<svg height="262.753" viewBox="0 0 163.193 69.52" width="616.792" xmlns="http://www.w3.org/2000/svg"><path d="M147.163 38.215q-.147-1.981-.844-3.816-.697-1.835-1.909-3.193-1.21-1.358-2.935-2.202-1.725-.844-3.854-.844-2.201 0-4 .77-1.798.771-3.082 2.13-1.285 1.357-2.055 3.192-.77 1.835-.844 3.963zM127.64 43.72q0 2.202.624 4.257.624 2.055 1.871 3.596 1.248 1.541 3.156 2.459 1.908.917 4.55.917 3.67 0 5.91-1.578 2.238-1.578 3.339-4.734h7.926q-.66 3.083-2.275 5.505-1.615 2.422-3.89 4.073-2.275 1.652-5.1 2.496-2.827.844-5.91.844-4.476 0-7.926-1.468t-5.835-4.11q-2.385-2.642-3.596-6.312-1.211-3.67-1.211-8.074 0-4.036 1.284-7.67 1.285-3.632 3.67-6.385 2.385-2.752 5.761-4.367 3.377-1.614 7.633-1.614 4.478 0 8.037 1.871 3.56 1.872 5.909 4.954 2.348 3.083 3.413 7.083 1.064 4 .55 8.257zM96.594 22.582h7.853v7.34h.147q.367-1.542 1.431-3.01 1.064-1.468 2.569-2.679 1.504-1.21 3.34-1.944 1.834-.734 3.742-.734 1.468 0 2.019.073.55.073 1.137.147v8.073q-.88-.147-1.798-.257-.917-.11-1.798-.11-2.128 0-4 .844-1.872.844-3.266 2.496-1.395 1.651-2.202 4.073-.807 2.422-.807 5.578v18.055h-8.367zM79.126 8.123h8.367v7.927h-8.367zm0 14.46h8.367v37.944h-8.367zM45.144 8.123v19.45h.147q1.54-2.569 4.587-4.294 3.046-1.724 6.789-1.724 6.238 0 9.835 3.229 3.596 3.23 3.596 9.688v26.055h-8.367V36.674q-.147-4.477-1.908-6.496-1.762-2.018-5.505-2.018-2.128 0-3.816.77-1.688.771-2.863 2.13-1.174 1.357-1.835 3.192-.66 1.835-.66 3.89v13.165h-8.367v-12.47c1.16-1.044 2.185-2.226 3.153-3.447q1.81-2.345 2.88-5.142 1.069-2.797 1.069-6.252 0-2.797-.905-5.882-.905-3.085-3.085-5.718a15.28 15.28 0 00-3.112-2.832v-1.44z"/><path d="M45.144 60.527H6.79q.074-6.385 3.083-11.156 3.01-4.77 8.22-8.293 2.496-1.835 5.211-3.56 2.716-1.725 4.991-3.706 2.276-1.982 3.743-4.294 1.468-2.312 1.542-5.321 0-1.395-.33-2.973-.33-1.578-1.285-2.936-.954-1.357-2.642-2.275-1.688-.917-4.404-.917-2.495 0-4.147.99-1.651.991-2.642 2.716-.99 1.725-1.468 4.074-.477 2.348-.55 5.064H7.746q0-4.257 1.137-7.89 1.138-3.633 3.413-6.275 2.275-2.643 5.541-4.147 3.266-1.505 7.597-1.505 4.697 0 7.853 1.542 3.156 1.54 5.101 3.89 1.945 2.348 2.752 5.1.808 2.753.808 5.248 0 3.083-.954 5.578-.955 2.496-2.57 4.588-1.614 2.091-3.669 3.853-2.055 1.761-4.257 3.302-2.202 1.542-4.404 2.936-2.202 1.395-4.073 2.79-1.872 1.394-3.266 2.898-1.395 1.505-1.908 3.193h28.297z"/></svg>