<svg height="69.520187mm" viewBox="0 0 163.19284 69.520187" width="163.19284mm" xmlns="http://www.w3.org/2000/svg"><g transform="matrix(.12666943 0 0 .12666943 5.242697 3.171689)"><path d="m1120.398 276.653q-1.159-15.644-6.664-30.13-5.504-14.485-15.065-25.205-9.56-10.719-23.177-17.381-13.616-6.664-30.419-6.664-17.382 0-31.579 6.083-14.195 6.085-24.335 16.803-10.14 10.72-16.223 25.206-6.085 14.485-6.664 31.288zm-154.126 43.457q0 17.383 4.924 33.606 4.926 16.224 14.776 28.392 9.85 12.168 24.915 19.41 15.065 7.243 35.925 7.243 28.971 0 46.644-12.458 17.671-12.457 26.363-37.372h62.577q-5.215 24.336-17.962 43.457-12.747 19.121-30.709 32.157-17.962 13.038-40.269 19.7-22.309 6.664-46.644 6.664-35.345 0-62.578-11.588-27.233-11.588-46.065-32.448-18.83-20.859-28.39-49.83-9.561-28.971-9.561-63.736 0-31.868 10.139-60.55 10.141-28.681 28.972-50.41 18.831-21.728 45.484-34.475 26.654-12.747 60.26-12.747 35.345 0 63.448 14.774 28.101 14.776 46.642 39.112 18.542 24.336 26.944 55.914 8.401 31.579 4.345 65.185z"/><path d="m721.177 153.237h61.998v57.942h1.159q2.897-12.168 11.299-23.756 8.401-11.589 20.28-21.15 11.877-9.56 26.363-15.354 14.485-5.794 29.55-5.794 11.589 0 15.934.579 4.346.58 8.981 1.159v63.736q-6.953-1.158-14.196-2.028-7.242-.869-14.195-.869-16.803 0-31.579 6.663-14.775 6.664-25.784 19.7-11.009 13.038-17.383 32.159-6.373 19.121-6.373 44.036v142.537h-66.054z"/><path d="m583.274 39.091h66.054v62.577h-66.054zm0 114.146h66.054v299.56h-66.054z"/><path d="m315.002 39.091v153.546h1.159q12.168-20.279 36.213-33.896 24.047-13.616 53.597-13.616 49.251 0 77.643 25.494 28.391 25.495 28.391 76.484v205.694h-66.054v-188.311q-1.158-35.345-15.064-51.28-13.907-15.933-43.457-15.933-16.803 0-30.13 6.083-13.327 6.085-22.597 16.803-9.271 10.72-14.486 25.206-5.215 14.485-5.215 30.709v103.934h-66.054v-98.441c9.166-8.245 17.249-17.578 24.895-27.221q14.288-18.51 22.731-40.591 8.443-22.081 8.443-49.358 0-22.081-7.144-46.436-7.144-24.354-24.355-45.136c-7.115-8.53-15.393-16.098-24.57-22.361v-11.373z"/><path d="m315.002 452.797h-302.775q.58-50.409 24.336-88.072 23.756-37.662 64.895-65.474 19.701-14.486 41.139-28.102 21.439-13.617 39.401-29.261 17.962-15.644 29.55-33.895 11.589-18.253 12.168-42.009 0-11.009-2.607-23.467-2.608-12.457-10.14-23.177-7.533-10.719-20.859-17.962-13.327-7.242-34.766-7.242-19.7 0-32.736 7.822-13.038 7.822-20.86 21.439-7.822 13.616-11.588 32.157-3.767 18.542-4.346 39.98h-66.054q0-33.606 8.981-62.287 8.981-28.682 26.943-49.541 17.962-20.859 43.746-32.738 25.784-11.877 59.97-11.877 37.083 0 61.998 12.167 24.916 12.168 40.27 30.71 15.355 18.541 21.729 40.269 6.373 21.729 6.373 41.429 0 24.336-7.532 44.036-7.533 19.701-20.28 36.215-12.747 16.513-28.971 30.419-16.224 13.906-33.607 26.074-17.382 12.168-34.765 23.177-17.383 11.009-32.157 22.018-14.776 11.009-25.785 22.886-11.009 11.879-15.065 25.206h223.394z"/></g></svg>