<?xml version="1.0" encoding="UTF-8"?>
<svg width="102px" height="68px" viewBox="0 0 102 68" version="1.1" xmlns="http://www.w3.org/2000/svg" xmlns:xlink="http://www.w3.org/1999/xlink">
    <!-- Generator: Sketch 51.3 (57544) - http://www.bohemiancoding.com/sketch -->
    <title>car2go_logo</title>
    <desc>Created with Sketch.</desc>
    <defs></defs>
    <g id="Guide" stroke="none" stroke-width="1" fill="none" fill-rule="evenodd">
        <g id="logo" transform="translate(-513.000000, -418.000000)" fill="#00A0E1" fill-rule="nonzero">
            <g id="colors" transform="translate(110.000000, 336.000000)">
                <g id="white" transform="translate(313.000000, 0.000000)">
                    <path d="M182.411465,146.485737 C185.75953,146.485737 188.484635,143.761112 188.484635,140.412122 L188.484635,91.5878776 C188.484635,88.2395679 185.75953,85.514943 182.411465,85.514943 L99.5878545,85.514943 C96.2391103,85.514943 93.5146852,88.2395679 93.5146852,91.5878776 L93.5146852,140.412122 C93.5146852,143.761112 96.2391103,146.485737 99.5878545,146.485737 L182.411465,146.485737 Z M90,91.5878776 C90,86.2569714 94.3015449,82 99.5878545,82 L182.411465,82 C187.697775,82 192,86.2569714 192,91.5878776 L192,140.412122 C192,145.743709 187.697775,150 182.411465,150 L99.5878545,150 C94.3015449,150 90,145.743709 90,140.412122 L90,91.5878776 Z M146.427427,131.731546 L137.568625,131.731546 C136.269661,131.731546 135.411392,130.866413 135.411392,129.577556 L135.411392,123.029206 C135.411392,121.741028 136.269661,120.875215 137.568625,120.875215 L149.92443,120.875215 L149.92443,117.378636 L137.245584,117.378636 C134.303532,117.378636 131.910309,119.772034 131.910309,122.713623 L131.910309,129.893819 C131.910309,132.834727 134.303532,135.228806 137.245584,135.228806 L149.92443,135.228806 L149.92443,124.7003 L140.99966,124.7003 L140.99966,128.159472 L146.426747,128.159472 L146.427427,131.731546 Z M135.575973,105.406881 L135.575973,102.262613 C135.575973,100.973755 136.434242,100.107942 137.732526,100.107942 L144.270194,100.107942 C145.568479,100.107942 146.426747,100.973755 146.426747,102.262613 L146.426747,105.406881 L135.575973,105.406881 Z M146.426747,108.905501 L146.426747,114.622044 L149.92443,114.622044 L149.92443,101.947029 C149.92443,99.004761 147.531207,96.6113623 144.589155,96.6113623 L137.409485,96.6113623 C134.468113,96.6113623 132.074889,99.004761 132.074889,101.947029 L132.074889,114.622044 L135.575973,114.622044 L135.575973,108.905501 L146.426747,108.905501 Z M117.022543,111.124785 C115.723578,111.124785 114.86599,110.258972 114.86599,108.970114 L114.86599,102.422444 C114.86599,101.133587 115.723578,100.268454 117.022543,100.268454 L129.214447,100.267774 L129.214447,96.7718744 L116.700182,96.7718744 C113.758129,96.7718744 111.364906,99.1645929 111.364906,102.106861 L111.364906,109.286377 C111.364906,112.227966 113.758129,114.621364 116.700182,114.621364 L129.214447,114.621364 L129.214447,111.124785 L117.022543,111.124785 Z M152.629133,130.042769 C152.629133,132.984357 155.023036,135.377756 157.964409,135.377756 L165.440596,135.377756 C168.381968,135.377756 170.775872,132.984357 170.775872,130.042769 L170.775872,122.534067 C170.775872,119.592478 168.381968,117.19908 165.440596,117.19908 L157.964409,117.19908 C155.023036,117.19908 152.629133,119.592478 152.629133,122.534067 L152.629133,130.042769 Z M156.130897,122.84965 C156.130897,121.560792 156.988485,120.695659 158.28745,120.695659 L165.121635,120.695659 C166.4206,120.695659 167.278189,121.560792 167.278189,122.84965 L167.278189,129.727185 C167.278189,131.015363 166.4206,131.881176 165.121635,131.881176 L158.28745,131.881176 C156.988485,131.881176 156.130897,131.015363 156.130897,129.726505 L156.130897,122.84965 Z M170.635094,114.622044 L167.138091,114.622044 L167.138091,110.942509 C167.138091,109.966513 166.349871,108.905501 164.861843,108.905501 L156.282556,108.905501 L156.282556,114.622044 L152.784873,114.622044 L152.784873,96.7718744 L165.07947,96.7718744 C168.777779,96.7718744 170.635094,99.7263853 170.635094,102.644169 C170.635094,105.481016 169.621085,106.45157 168.79274,107.167754 C169.863876,107.74859 170.635094,108.953791 170.635094,110.781996 L170.635094,114.622044 Z M164.861843,100.270494 L156.282556,100.270494 L156.282556,105.406881 L164.859122,105.406881 C166.550496,105.406881 167.138091,103.890858 167.138091,102.841408 C167.138091,101.662052 166.541655,100.270494 164.861843,100.270494 Z M111.364906,122.714983 C111.364906,120.869094 112.480247,117.378636 116.701542,117.378636 L124.231456,117.378636 C127.682893,117.378636 129.531367,119.944789 129.531367,122.787077 C129.531367,125.530746 127.633247,128.196879 124.194051,128.196879 L116.896047,128.196879 C115.332529,128.196879 114.863269,129.185797 114.863269,130.004681 L114.863269,131.730866 L129.214447,131.730866 L129.214447,135.228806 L111.364906,135.228806 L111.364906,130.004681 C111.364906,127.203201 113.660877,124.7003 117.019142,124.7003 L124.194051,124.7003 C125.431808,124.7003 126.226829,124.024245 126.226829,122.787077 C126.226829,121.752591 125.726285,120.875215 124.268181,120.875215 L116.798795,120.875215 C115.301925,120.875215 114.863269,121.983837 114.863269,122.714983 L111.364906,122.714983 Z" id="car2go_logo"></path>
                </g>
            </g>
        </g>
    </g>
</svg>