<svg width="102" height="68" xmlns="http://www.w3.org/2000/svg"><path d="M92.411 64.486a6.08 6.08 0 006.074-6.074V9.588a6.08 6.08 0 00-6.074-6.073H9.588a6.08 6.08 0 00-6.073 6.073v48.824a6.08 6.08 0 006.073 6.074H92.41zM0 9.588A9.57 9.57 0 019.588 0H92.41A9.571 9.571 0 01102 9.588v48.824A9.57 9.57 0 0192.411 68H9.588A9.57 9.57 0 010 58.412V9.588zm56.427 40.144H47.57c-1.3 0-2.158-.866-2.158-2.154v-6.549c0-1.288.859-2.154 2.158-2.154h12.355V35.38H47.246a5.341 5.341 0 00-5.336 5.335v7.18a5.342 5.342 0 005.336 5.335h12.678V42.7H51v3.46h5.427v3.572zM45.576 23.407v-3.144c0-1.29.858-2.155 2.157-2.155h6.537c1.298 0 2.157.866 2.157 2.155v3.144H45.576zm10.85 3.499v5.716h3.498V19.947a5.341 5.341 0 00-5.335-5.336h-7.18a5.341 5.341 0 00-5.334 5.336v12.675h3.501v-5.716h10.85zm-29.403 2.219c-1.3 0-2.157-.866-2.157-2.155v-6.548c0-1.288.858-2.154 2.157-2.154h12.191v-3.496H26.7a5.34 5.34 0 00-5.335 5.335v7.18A5.341 5.341 0 0026.7 32.62h12.514v-3.496H27.023zm35.606 18.918a5.342 5.342 0 005.335 5.335h7.477a5.342 5.342 0 005.335-5.335v-7.509A5.342 5.342 0 0075.44 35.2h-7.477a5.342 5.342 0 00-5.335 5.335v7.509zm3.502-7.193c0-1.29.857-2.154 2.156-2.154h6.835c1.299 0 2.156.865 2.156 2.154v6.877c0 1.288-.857 2.154-2.156 2.154h-6.835c-1.299 0-2.156-.866-2.156-2.154V40.85zm14.504-8.228h-3.497v-3.68c0-.975-.788-2.036-2.276-2.036h-8.58v5.716h-3.497v-17.85h12.294c3.699 0 5.556 2.954 5.556 5.872 0 2.837-1.014 3.808-1.842 4.524 1.07.58 1.842 1.786 1.842 3.614v3.84zM74.862 18.27h-8.58v5.137h8.577c1.691 0 2.28-1.516 2.28-2.566 0-1.179-.597-2.57-2.277-2.57zM21.365 40.715c0-1.846 1.115-5.336 5.337-5.336h7.53c3.45 0 5.3 2.566 5.3 5.408 0 2.744-1.899 5.41-5.338 5.41h-7.298c-1.563 0-2.033.989-2.033 1.808v1.726h14.351v3.498h-17.85v-5.224c0-2.802 2.297-5.305 5.655-5.305h7.175c1.238 0 2.033-.676 2.033-1.913 0-1.034-.5-1.912-1.959-1.912h-7.47c-1.496 0-1.935 1.109-1.935 1.84h-3.498z" fill="#00A0E1" fill-rule="nonzero"/></svg>