<?xml version="1.0" encoding="utf-8"?>
<svg viewBox="98.394 69.293 240 65.851" width="240" height="65.851" xmlns="http://www.w3.org/2000/svg">
  <g fill="currentColor" fill-rule="evenodd" transform="matrix(2.082104, 0, 0, 2.082104, 98.394363, 68.851471)">
    <path d="M6.339 28.066a15.24 15.24 0 0010.01 3.773c1.513 0 3.01-.226 4.458-.672-4.088-.267-7.89-1.91-10.758-4.661-3.011-2.89-4.669-6.695-4.669-10.716 0-6.749 5.705-13.639 12.458-15.045.234-.097.48-.189.733-.274a15.255 15.255 0 00-1.662-.154C9.05 2.407 3.564 9.75 3.564 18.178c0 3.512.96 6.93 2.775 9.888"/>
    <path d="M15.271.212C6.836.3 0 7.325 0 15.947c0 4.365 1.773 8.511 4.889 11.485a19.045 19.045 0 01-2.454-9.382c0-8.268 5.243-15.5 12.835-17.838"/>
    <path d="M13.421 3.431c-4.322 2.78-6.87 7.233-6.87 12.11 0 8.014 6.862 14.519 15.627 14.816a15.33 15.33 0 005.61-3.448 13.624 13.624 0 01-5.643 1.21c-7.59 0-13.763-6.165-13.763-13.74 0-3.363 1.23-6.599 3.463-9.112.463-.654.992-1.269 1.577-1.834"/>
    <path d="M9.536 14.203v.134c0 6.919 5.823 12.548 12.981 12.548 2.048 0 4.01-.45 5.833-1.339a14.39 14.39 0 001.82-2.267 13.763 13.763 0 01-7.316 2.077c-3.525 0-6.857-1.302-9.38-3.664-2.169-2.029-3.537-4.649-3.937-7.489"/>
    <path d="M29.037 17.028c-.142-.197-.354-.296-.632-.296-.157 0-.312.029-.461.087a.97.97 0 00-.38.272 6.38 6.38 0 01-2.122 1.513 6.52 6.52 0 01-2.656.546 6.438 6.438 0 01-2.54-.508 6.516 6.516 0 01-2.073-1.385 6.506 6.506 0 01-1.892-4.614c0-.894.171-1.749.508-2.54a6.665 6.665 0 011.387-2.085 6.469 6.469 0 014.612-1.905c.926 0 1.803.213 2.61.633.815.426 1.541.91 2.141 1.424.185.206.434.311.74.311.242 0 .457-.072.64-.214.194-.15.293-.367.293-.64 0-.16-.04-.324-.12-.485a1.46 1.46 0 00-.26-.377 8.77 8.77 0 00-2.715-1.879 8.122 8.122 0 00-3.326-.689 8.251 8.251 0 00-3.285.663 8.413 8.413 0 00-2.675 1.814 8.666 8.666 0 00-1.8 2.688 8.233 8.233 0 00-.664 3.286c0 1.162.223 2.268.664 3.287a8.516 8.516 0 001.801 2.676 8.517 8.517 0 002.675 1.801 8.222 8.222 0 003.286.664 8.387 8.387 0 003.418-.703 8.168 8.168 0 002.752-1.97c.186-.185.28-.44.28-.758a1.02 1.02 0 00-.198-.609m8.005 1.574a4.373 4.373 0 01-1.747-.352 4.547 4.547 0 01-2.405-2.403 4.398 4.398 0 01-.35-1.748c0-.618.118-1.21.351-1.76a4.56 4.56 0 01.97-1.448 4.583 4.583 0 011.435-.969 4.404 4.404 0 011.747-.35 4.506 4.506 0 013.209 1.321c.41.41.735.896.97 1.447a4.48 4.48 0 01.352 1.753 5.075 5.075 0 01-.415 1.805 4.535 4.535 0 01-2.405 2.367 4.392 4.392 0 01-1.71.34M42.98 11.6a6.738 6.738 0 00-1.398-2.049 6.767 6.767 0 00-2.035-1.396 5.92 5.92 0 00-2.443-.52c-.917 0-1.78.17-2.57.506a6.375 6.375 0 00-2.052 1.386 6.428 6.428 0 00-1.359 2.065 6.509 6.509 0 00-.493 2.516c0 .92.171 1.78.507 2.557a6.25 6.25 0 001.387 2.026 6.454 6.454 0 002.038 1.333c.77.318 1.607.48 2.491.48.96 0 1.865-.239 2.691-.71a8.443 8.443 0 001.84-1.397v1.2c0 .265.093.494.278.678a.927.927 0 00.681.281.927.927 0 00.68-.28.928.928 0 00.28-.68V14.1c0-.884-.176-1.728-.52-2.508m9.46-3.742c-.194-.183-.453-.276-.769-.276a5.8 5.8 0 00-2.619.602 7.034 7.034 0 00-1.78 1.255v-.898a.927.927 0 00-.28-.68.93.93 0 00-.68-.279.925.925 0 00-.68.278.925.925 0 00-.281.681V19.56a.93.93 0 00.28.68c.183.185.412.28.68.28a.93.93 0 00.68-.278.933.933 0 00.28-.681v-5.744a4.103 4.103 0 01.389-1.631c.243-.52.566-.988.96-1.389.39-.399.85-.72 1.37-.956a4.049 4.049 0 011.68-.35c.319 0 .577-.094.769-.276a.912.912 0 00.296-.685.91.91 0 00-.295-.683m11.634 5.238h-8.81c.105-.452.274-.881.503-1.28.257-.448.587-.842.979-1.167a4.814 4.814 0 011.336-.782 4.431 4.431 0 013.14 0 4.89 4.89 0 011.338.78c.392.328.727.722.993 1.172.236.396.408.825.515 1.276m1.499-1.536a7.018 7.018 0 00-1.41-2.035 6.581 6.581 0 00-2.036-1.384 6.012 6.012 0 00-2.421-.508 7.023 7.023 0 00-2.565.572 6.64 6.64 0 00-2.05 1.384 6.336 6.336 0 00-1.852 4.518c0 .92.172 1.78.508 2.557.335.778.8 1.46 1.386 2.026a6.434 6.434 0 004.53 1.812c.949 0 1.803-.14 2.538-.414.739-.276 1.412-.75 1.992-1.401a.926.926 0 00.279-.68.93.93 0 00-.279-.681.934.934 0 00-.68-.278.928.928 0 00-.679.276 4.706 4.706 0 01-1.436.945 4.45 4.45 0 01-1.735.339 4.387 4.387 0 01-1.585-.29 4.615 4.615 0 01-1.347-.793 4.59 4.59 0 01-.994-1.196 4.277 4.277 0 01-.496-1.318h9.91c.225 0 .441-.081.643-.241.211-.17.318-.411.318-.718 0-.885-.18-1.725-.535-2.496m3.273 6.889a1.178 1.178 0 00-.863-.358c-.337 0-.627.12-.862.357a1.174 1.174 0 00-.357.86c0 .338.12.628.357.865.236.237.526.357.862.357.335 0 .626-.12.863-.357s.358-.528.358-.864c0-.335-.12-.624-.357-.861m12.233-1.113a.975.975 0 00-.661-.26.928.928 0 00-.678.277 4.74 4.74 0 01-1.436.946 4.444 4.444 0 01-1.736.338c-.62 0-1.207-.118-1.747-.352a4.55 4.55 0 01-2.404-2.403 4.37 4.37 0 01-.352-1.747 4.537 4.537 0 011.322-3.21c.407-.407.89-.733 1.435-.97a4.383 4.383 0 011.747-.35c.618 0 1.202.114 1.736.339a5.314 5.314 0 011.434.89.933.933 0 00.681.278c.23 0 .439-.082.622-.245a.794.794 0 00.285-.61c0-.177-.113-.402-.359-.707-.226-.28-.548-.562-.956-.837a7.086 7.086 0 00-1.464-.732c-.57-.213-1.217-.321-1.931-.321h-.001a7.035 7.035 0 00-2.567.572A6.683 6.683 0 0072 9.599a6.334 6.334 0 00-1.853 4.518c0 .917.171 1.778.508 2.558a6.244 6.244 0 001.387 2.026 6.446 6.446 0 002.038 1.332c.768.319 1.606.48 2.49.48.758 0 1.444-.1 2.038-.293a6.42 6.42 0 001.506-.694c.414-.27.73-.55.937-.831.225-.303.33-.526.33-.701a.87.87 0 00-.298-.674m8.078 1.275a4.39 4.39 0 01-1.747-.352 4.55 4.55 0 01-2.405-2.403 4.395 4.395 0 01-.351-1.748 4.503 4.503 0 011.32-3.208 4.596 4.596 0 011.436-.97 4.403 4.403 0 011.746-.351 4.54 4.54 0 013.209 1.321c.409.41.735.898.969 1.448a4.48 4.48 0 01.35 1.76 4.41 4.41 0 01-.35 1.749 4.61 4.61 0 01-.969 1.435 4.558 4.558 0 01-3.21 1.32m5.929-7.012a6.764 6.764 0 00-1.398-2.048 6.763 6.763 0 00-2.035-1.397 5.923 5.923 0 00-2.448-.521H89.2a7.035 7.035 0 00-2.566.572 6.654 6.654 0 00-2.049 1.384 6.331 6.331 0 00-1.853 4.518c0 .919.171 1.78.508 2.557a6.216 6.216 0 001.386 2.026 6.454 6.454 0 002.038 1.333 6.458 6.458 0 002.491.48c.901 0 1.753-.17 2.533-.505a6.39 6.39 0 002.037-1.388 6.72 6.72 0 001.372-2.034 6.141 6.141 0 00.507-2.468 6.17 6.17 0 00-.52-2.508m17.573-1.403a4.53 4.53 0 00-.943-1.4 4.499 4.499 0 00-1.4-.942 4.303 4.303 0 00-1.726-.352c-.75 0-1.44.169-2.05.5a4.652 4.652 0 00-1.408 1.17 4.425 4.425 0 00-1.386-1.17 4.228 4.228 0 00-2.05-.501 3.39 3.39 0 00-1.54.381 5.186 5.186 0 00-.935.6.916.916 0 00-.278-.624.933.933 0 00-.68-.278.933.933 0 00-.68.278.927.927 0 00-.28.68v11.03a.93.93 0 00.28.68.93.93 0 00.68.28.93.93 0 00.681-.278.928.928 0 00.28-.681V11.81a2.504 2.504 0 01.748-1.706c.462-.463 1.042-.698 1.726-.698.676 0 1.24.233 1.727.71.481.475.741 1.08.773 1.79v7.649c0 .266.095.495.28.681a.929.929 0 00.681.28.933.933 0 00.68-.279.93.93 0 00.28-.681V11.91c0-.34.065-.665.195-.968.13-.303.31-.571.53-.8.22-.229.476-.405.781-.538a2.504 2.504 0 011.934-.001 2.548 2.548 0 011.339 1.338c.13.3.196.626.196.968v7.647c0 .266.093.496.278.681a.937.937 0 00.681.278.93.93 0 00.681-.279.933.933 0 00.28-.68V11.91c0-.605-.119-1.186-.35-1.727m1.355-1.382h.116c.136 0 .246-.045.246-.155 0-.097-.07-.163-.226-.163a.552.552 0 00-.136.015v.304zm-.006.596h-.246V8.34c.097-.013.233-.033.408-.033.201 0 .292.032.363.084a.27.27 0 01.11.227c0 .13-.098.214-.22.252v.013c.103.033.155.117.188.26.033.161.06.22.078.258h-.259c-.032-.038-.052-.129-.084-.259-.02-.11-.084-.161-.22-.161H114v.42zm-.654-.55c0 .473.357.848.83.848.46.007.81-.375.81-.842 0-.473-.35-.855-.823-.855-.46 0-.816.382-.816.85zm1.911 0a1.07 1.07 0 01-1.088 1.068c-.609 0-1.095-.473-1.095-1.069s.486-1.062 1.101-1.062c.603 0 1.082.466 1.082 1.062z"/>
  </g>
</svg>