<svg xmlns="http://www.w3.org/2000/svg" width="217" height="64" viewBox="0 0 217 64">
  <g fill="none">
    <path fill="#7BC0D6" d="M23.92 39.78l24.2 4.7c-1.6 8-9.3 18-21.2 18.8a23.62 23.62 0 0 1-25.5-22c-.9-12.8 9.2-24.6 22-25.6a21.56 21.56 0 0 1 19.3 8.6l-18.8 15.5z"/>
    <path fill="#34353D" d="M23.81 39.77l20.65-15.43a43.33 43.33 0 0 0-5.14-4.95 21.42 21.42 0 0 0-9.5-4.39C18.33 13 7.43 18.79 3.16 28.62a25.2 25.2 0 0 0 12.51 33.16c14.68 6.71 31.05-2.7 34.06-18.14l-25.92-3.87zM12.45 27a15.17 15.17 0 0 0-4.35 8.49c-.55 2.65-.64 15.89 11.61 19 0 0 8.92 3.12 18.1-4A16.79 16.79 0 0 0 41.54 46c.4-.66.74-1.36 1-2.09l5.25 1a25.5 25.5 0 0 1-3.4 7.4 19.36 19.36 0 0 1-6.81 6.52c-6.25 3.92-14.93 5.34-22.58 1.49C4.45 55 0 43.34 3 32.23c4.31-16.08 27.2-21.59 38.43-8.06-1.81 1.57-3.26 2.77-5.07 4.34a16.68 16.68 0 0 0-5-4.24C20.48 18.82 12.45 27 12.45 27z"/>
    <path fill="#E50D3B" d="M40.17 44.24L21 40.47l13.38-11.26c-5.3-6.4-15.84-5.32-21.34 1.18a14.93 14.93 0 0 0 1 19.5c2.46 2.46 6.83 4.25 12.46 3.88a16.4 16.4 0 0 0 13.67-9.53z"/>
    <path fill="#34353D" d="M53.05 15.1H53a.52.52 0 0 0-.7.3l-7.5 17.2c-.4.8-.7 1.7-1.1 2.5a1 1 0 0 0 .5 1.3s13.8 5.4 14.19 5.22l9.26-19.92a1.07 1.07 0 0 0-.6-1.5l-14-5.1zm-.22.74l12 5.91-6.78 19.15-12.41-6.11 7.19-18.95zM65.32 4a.69.69 0 0 0-.42-.39l-.68-.25-.7-.26-1.38-.5c-.72-.28-1.48-.54-2.2-.79l-.58-.2h-.09a.46.46 0 0 0-.56.28l-3 6.8c-.08.16-.15.34-.22.51-.07.17-.13.32-.22.49a.7.7 0 0 0 0 .53.63.63 0 0 0 .35.34c4.66 1.82 5.52 2.08 5.76 2.08a.18.18 0 0 0 .09 0h.09l3.7-8a.7.7 0 0 0 .06-.64zm-8.63 5.52l2.65-7 4.27 2.1-2.5 7.06-4.42-2.16zM54 4a.92.92 0 0 0-.56-.52L44 0a.56.56 0 0 0-.75.33l-5 11.52c-.14.27-.26.56-.38.85-.12.29-.23.56-.37.84a.94.94 0 0 0 0 .67.83.83 0 0 0 .47.49c8.14 3.17 9.4 3.51 9.66 3.51h.14L54 4.78A1 1 0 0 0 54 4zm-14.71 9.34l4.65-12.28 7.65 3.76-4.39 12.42-7.91-3.9z"/>
    <path fill="#FFF" d="M25 54.57c-4.7 0-8.83-1.47-11.5-4.14-4.7-4.7-6.44-13.87-1.05-20.5a16.37 16.37 0 0 1 12.37-5.74h.08A12.85 12.85 0 0 1 35 28.73l.47.57L22.69 40l18.55 3.66-.39.86a17.23 17.23 0 0 1-14.31 10 23.76 23.76 0 0 1-1.54.05zm-.19-28.89a14.85 14.85 0 0 0-11.21 5.2c-4.85 6-3.28 14.25 1 18.49 2.61 2.61 7.05 4 11.88 3.66a15.75 15.75 0 0 0 12.63-8.23l-19.77-3.9 14-11.77a11.47 11.47 0 0 0-8.41-3.45h-.12z"/>
    <path fill="#34353D" d="M73.32 50.78a16.51 16.51 0 0 1-1.6-8.1 16.28 16.28 0 0 1 1.6-7.8c1.3-2.4 4-3.8 7.8-3.8 1.28 0 2.56.17 3.8.5a10 10 0 0 1 3.2 1c.48.24.73.78.6 1.3l-.5 2.9c-.1.7-.4 1-1 .9-3-.3-4.7-.4-5.1-.4-2.2 0-3.3 1.8-3.3 5.3 0 4.3.8 5.7 3.2 5.7a24.55 24.55 0 0 0 4.8-.4c.8-.2 1.4-.1 1.6.8l.5 2.6c.2.9.1 1.1-.5 1.6a7.23 7.23 0 0 1-3.1 1.1 18.71 18.71 0 0 1-4 .4c-4.2 0-6.8-1.2-8-3.6zm36.2-1.9c-1 3.2-3.6 5.4-9 5.6-3.4 0-5.9-1.2-7.2-2.7a9.86 9.86 0 0 1-1.5-2.9 19.75 19.75 0 0 1-.8-6.4 14.74 14.74 0 0 1 .9-5.7c1-3.2 3.6-5.5 8.7-5.7 3.3 0 5.8 1 7.2 2.5a7.82 7.82 0 0 1 1.7 2.6 14.46 14.46 0 0 1 1 6.2 23.82 23.82 0 0 1-1 6.5zm-8.9-11.8c-2 0-2.6 1.8-2.6 5.7 0 4.1.5 5.7 2.5 5.7 2.2 0 2.8-1.7 2.8-5.7s-.6-5.7-2.7-5.7zm24.9-5.5v-8.5c0-.7.4-1 1.3-1h4.6c1 0 1.1.4 1.1 1v30.1c0 .7-.4 1-1.1 1h-4.8c-.7 0-1-.3-1-1v-.6h-.1a8.57 8.57 0 0 1-5.2 1.9 6.17 6.17 0 0 1-5-2.1c-1.6-2.1-2-5.2-2-9.2 0-4 .6-7.1 1.7-9.1s3.4-3 6.7-3a17.26 17.26 0 0 1 3.8.5zm-3.3 16.6a6.77 6.77 0 0 0 3.3-1.1v-9.4a7.83 7.83 0 0 0-2.6-.4c-2 0-2.6 1.2-2.6 5.8-.1 4.1.5 5.1 1.9 5.1zm16.2 4c-2.2-2.2-2.8-5.5-2.7-9.2 0-7.9 3.1-11.9 9.5-11.9a10.17 10.17 0 0 1 6.8 2.2c2.1 2.1 2.6 5.2 2.6 8.2 0 2-.7 3-2.6 3h-9.2c.2 3.2 1.4 4.1 3.9 4.1a30.45 30.45 0 0 0 4.6-.4c.7-.2 1.6-.1 1.7.7l.4 2.3a1.63 1.63 0 0 1-.9 1.9c-1.6.9-3.9 1.3-6.9 1.3-3.4.1-5.8-.9-7.2-2.2zm4.4-11.9h4.6c0-2.6-.8-3.8-2.3-3.8-1.5 0-2.3 1-2.3 3.8zM159 50.78a16.51 16.51 0 0 1-1.6-8.1 16.28 16.28 0 0 1 1.6-7.8c1.3-2.4 4-3.8 7.8-3.8 1.28 0 2.56.17 3.8.5a10 10 0 0 1 3.2 1c.48.24.73.78.6 1.3l-.5 2.8c-.1.7-.4 1-1 .9-3-.3-4.7-.4-5.1-.4-2.2 0-3.3 1.8-3.3 5.3 0 4.3.8 5.7 3.2 5.7a24.55 24.55 0 0 0 4.8-.4c.8-.2 1.4-.1 1.6.8l.5 2.6c.2.9.1 1.1-.5 1.6a7.23 7.23 0 0 1-3.1 1.1 18.71 18.71 0 0 1-4 .4c-4.08.1-6.68-1.1-8-3.5zm27.1-4.4l-1.4 2v4.7a1 1 0 0 1-1.1 1h-4.7c-.8 0-1.1-.3-1.1-1v-30.2c0-.7.4-1 1.1-1h4.7c1 0 1.1.5 1.1 1v15.7h.1c.2-.5.9-1.5 1.9-3.1l1.9-3a2.35 2.35 0 0 1 2.2-1h4.9c.8 0 1.1.5.5 1.3l-5.8 7.8 6.5 12.3c.4.6.1 1.2-.8 1.2h-4.8a2.21 2.21 0 0 1-2-1l-3.2-6.7zm27.4 6.3a11.19 11.19 0 0 1-6.6 1.8 20.65 20.65 0 0 1-6.5-1c-1.5-.6-1.8-1-1.5-2.2l.4-2.2c.2-.9.5-1 1.8-.8a28.13 28.13 0 0 0 5.6.6c1.6 0 2.3-.5 2.3-1.6 0-1.3-.4-1.6-1.9-1.8a15.4 15.4 0 0 1-5.7-1.7c-1.7-1-2.5-2.7-2.5-5.2 0-4.7 3.5-7.3 8.6-7.3a16.66 16.66 0 0 1 6.3 1c1.3.5 1.8 1 1.6 1.9l-.5 2.4c-.1.6-.3 1.1-1.6.8a53.43 53.43 0 0 0-5.6-.5c-1.5 0-1.8.4-1.8 1.5s.8 1.4 2.1 1.5a12.77 12.77 0 0 1 5.5 1.8c1.7 1 2.6 2.8 2.6 5.4a6.11 6.11 0 0 1-2.6 5.6z"/>
    <path fill="#FFF" d="M45.64 34.79l7.19-18.95 12 5.91-6.78 19.15zM56.69 9.52l2.65-6.99 4.26 2.1-2.5 7.06zM47.2 17.24l-7.91-3.9 4.65-12.28 7.65 3.76z"/>
  </g>
</svg>
