<svg width="100" height="100" viewBox="0 0 542 542" xmlns="http://www.w3.org/2000/svg" xmlns:xlink="http://www.w3.org/1999/xlink"><defs><path d="M150.177 11.325C158.137 4.281 168.636 0 180.142 0c24.872 0 45.035 20.004 45.035 44.68 24.873 0 45.036 20.005 45.036 44.682 0 24.676-20.163 44.68-45.036 44.68H45.036C20.163 134.043 0 114.039 0 89.363S20.163 44.68 45.035 44.68h3.844C58.153 18.65 83.176 0 112.59 0c13.912 0 26.842 4.173 37.588 11.325z" id="a"/></defs><g fill="none" fill-rule="evenodd"><circle stroke="#FFF" stroke-width="30" fill="#000" cx="271" cy="271" r="256"/><g transform="translate(72 95)"><ellipse fill="#FFF" cx="197.936" cy="180.213" rx="135.106" ry="161.702"/><ellipse fill="#FFF" transform="rotate(135 347.936 161.064)" cx="347.936" cy="161.064" rx="21.277" ry="48.936"/><ellipse fill="#FFF" transform="scale(1 -1) rotate(-45 -338.779 0)" cx="50.064" cy="161.064" rx="21.277" ry="48.936"/><g transform="translate(62.83)"><use fill="#FFF" xlink:href="#a"/><path stroke="#000" stroke-width="20" d="M149.487-.74c8.952-5.975 19.556-9.26 30.655-9.26 27.213 0 49.835 19.632 54.254 45.445 25.994 4.356 45.817 26.824 45.817 53.917 0 30.217-24.658 54.68-55.036 54.68H45.036C14.658 144.043-10 119.58-10 89.363c0-29.254 23.11-53.115 52.148-54.607C54.64 7.855 81.912-10 112.588-10c13.078 0 25.69 3.228 36.899 9.26z"/></g><ellipse fill="#000" cx="156.447" cy="199.362" rx="21.277" ry="25.532"/><ellipse fill="#000" cx="252.191" cy="199.362" rx="21.277" ry="25.532"/></g></g></svg>