<svg height="56" width="349" xmlns="http://www.w3.org/2000/svg"><g fill-rule="evenodd"><text font-family="Helvetica" font-size="45" transform="translate(0 -2)"><tspan x="66" y="44">evilfactorylabs</tspan></text><path d="M50.47 42.242V14.7l-11.424 5.646-10.51 5.18a2.58 2.58 0 0 0-.64-1.356l10.47-5.167 9.712-4.793h-19.66c.092-.258.131-.53.131-.814 0-.245-.026-.478-.091-.697h19.856l-9.948-4.91-12.38-6.11-12.365 6.11-9.96 4.91h19.881c-.065.22-.104.452-.104.697 0 .284.052.556.13.814H3.909l9.713 4.793 10.47 5.167c-.326.374-.562.84-.627 1.37l-10.523-5.194-11.425-5.645v27.541l.745.362 2.942 1.447 1.294.646 7.124 3.513 11.608 5.736V28.278c.248.064.496.116.771.116.261 0 .523-.052.758-.116v25.668l11.608-5.736 10-4.934 1.36-.672zM26.759 15.8v7.66a2.449 2.449 0 0 0-.758-.116c-.275 0-.523.039-.771.116V15.8c.248.077.496.116.771.116.261 0 .523-.039.758-.116zM26.327.168l12.719 6.278 6.039 2.984 1.36.672 5.267 2.597.288.142v30.318l-.235.117-1.294.646-2.105 1.033-9.32 4.599-12.706 6.278L26 56l-.34-.168-12.719-6.278-6.444-3.178-1.896-.943-.457-.22-2.628-1.291L0 43.159V12.828l.275-.13 5.163-2.557 1.36-.672 6.143-3.023L25.647.168l.34-.168zm1.62 14.856l6.942 10.76 6.954 10.761c-.51.13-.954.414-1.28.801l-6.955-10.76-6.941-10.761c.51-.13.954-.414 1.28-.801zm12.118 24.712H11.922c.078-.245.117-.49.117-.762 0-.258-.039-.517-.117-.75h28.143c-.078.233-.117.492-.117.75 0 .271.039.517.117.762zm-29.908-3.19l6.941-10.761 6.941-10.761c.34.387.785.672 1.281.8l-6.94 10.761-6.942 10.761a2.466 2.466 0 0 0-1.281-.8zm-.68-.672c.876 0 1.66.348 2.235.904a3.12 3.12 0 0 1 .915 2.196c0 .865-.352 1.64-.915 2.196v.013a3.196 3.196 0 0 1-4.458 0v-.013a3.034 3.034 0 0 1-.927-2.196c0-.853.353-1.628.928-2.196a3.196 3.196 0 0 1 2.222-.904zm1.399 1.73a1.987 1.987 0 0 0-2.784 0c-.353.35-.576.84-.576 1.37 0 .542.223 1.02.576 1.382.352.349.85.556 1.385.556.55 0 1.046-.207 1.399-.556.353-.362.575-.84.575-1.382 0-.53-.222-1.02-.575-1.37zM26 22.75c.863 0 1.647.349 2.222.917.575.568.928 1.343.928 2.196 0 .853-.353 1.64-.928 2.196a3.152 3.152 0 0 1-2.222.917 3.16 3.16 0 0 1-2.235-.917 3.098 3.098 0 0 1-.915-2.196c0-.853.353-1.628.915-2.196A3.16 3.16 0 0 1 26 22.749zm1.386 1.744A1.98 1.98 0 0 0 26 23.924c-.549 0-1.033.22-1.399.569-.353.349-.575.84-.575 1.37 0 .542.222 1.02.575 1.368.366.35.85.569 1.399.569a1.98 1.98 0 0 0 1.386-.569 1.91 1.91 0 0 0 .575-1.369c0-.53-.222-1.02-.575-1.37zm15.124 11.38c.863 0 1.647.35 2.222.905.575.568.928 1.343.928 2.196 0 .865-.353 1.64-.928 2.196v.013c-.575.555-1.36.904-2.222.904s-1.66-.349-2.222-.904v-.013a3.034 3.034 0 0 1-.929-2.196c0-.853.353-1.628.929-2.196a3.172 3.172 0 0 1 2.222-.904zm1.385 1.732a1.98 1.98 0 0 0-1.385-.569 1.956 1.956 0 0 0-1.961 1.938c0 .542.222 1.02.575 1.382.353.349.837.556 1.386.556.536 0 1.032-.207 1.385-.556.353-.362.576-.84.576-1.382 0-.53-.223-1.02-.576-1.37zM26 10.283c.863 0 1.647.349 2.222.904v.013c.575.555.928 1.33.928 2.196 0 .853-.353 1.628-.928 2.196a3.196 3.196 0 0 1-4.457 0 3.12 3.12 0 0 1-.915-2.196c0-.865.353-1.64.915-2.196v-.013A3.204 3.204 0 0 1 26 10.283zm1.386 1.744A1.926 1.926 0 0 0 26 11.458c-.549 0-1.033.207-1.399.569a1.91 1.91 0 0 0-.575 1.37c0 .529.222 1.02.575 1.368.366.35.85.569 1.399.569a1.98 1.98 0 0 0 1.386-.569c.353-.348.575-.84.575-1.369a1.91 1.91 0 0 0-.575-1.37z" fill-rule="nonzero"/></g></svg>