<svg height="197.304" viewBox="0 0 465.919 147.978" width="621.226" xmlns="http://www.w3.org/2000/svg"><path d="M73.491 1.378c-9 3.3-17.2 16.4-27 43.2-3 8-6.1 15.4-7 16.4s-4.2 3.1-7.3 4.6c-12 5.8-22 19.4-28.7 38.9-3.7 10.5-4.6 25.3-2.1 32 3.2 8.2 10.5 12.4 19.7 11.2 11.3-1.5 18.8-14.7 26.4-46.7 7.1-29.5 7.6-31 10.1-32.7 1.4-.8 4.5-1.8 7.1-2.1 4.3-.5 4.6-.3 3.8 1.4-.4 1-1 5.7-1.2 10.4-.4 7.4-.1 9.1 1.9 13 5.1 10 19.8 11.9 28.5 3.8l2.2-2.1 3.1 2.6c4.4 3.7 8.5 4.2 15.3 1.8l5.7-2 4.8 2.2c6.1 2.8 19 2.9 24 .3 1.9-1 3.6-1.5 3.9-1.2s-.7 4.8-2.1 10c-7 24.4-.8 41.6 14.9 41.6 14.4 0 21.5-12.4 31.1-53.7 2.5-10.9 5-20.5 5.5-21.4.7-1.5 4.7-3 11.7-4.4l3.2-.7v6.9c0 3.7.5 8.4 1 10.4 3.4 12.2 14.5 17.2 27.8 12.4 4.5-1.7 5.7-1.7 8.5-.6 6 2.4 10.3 3.1 13.7 2.1 1.9-.5 3.5-.9 3.6-.7.1.1-.9 3.6-2.4 7.7-2 6-2.6 9.5-2.6 17.5-.1 8.8.2 10.6 2.4 15 2.9 5.8 8.9 9.5 15.2 9.5 14.9 0 22-13.4 33.8-64.2 1.7-7.5 3.7-14.1 4.3-14.6 2-1.5 10.8-4.2 13.9-4.2 1.6 0 3.1.7 3.4 1.5.4.9-.3 5.3-1.5 10-1.1 4.6-2.1 9.8-2.1 11.5 0 7.3 5.7 12 14.4 12 4.3 0 8.9-1.8 13.7-5.2 1.4-1 2.1-.6 4.2 1.8s3.3 2.9 6.9 2.9c8.4 0 12.5-5.4 17.4-22.8 3-11 5.7-16 8.2-15.5 2.7.6 2.1 11.4-1.1 21.6-3.4 10.5-3.5 13.7-.2 15.8 3.1 2 8 1.1 10.1-2.1.8-1.2 1.9-5.8 2.4-10.1 2.2-20 5.9-28.4 12.4-28.4 8 0 9.6 10.3 3.7 25-5.9 15-5.1 25.6 2.1 30 6.9 4.2 17.8 1.4 17.8-4.6 0-3.4-1.7-3-4.1 1.1-4.6 7.8-9.4 2-8.7-10.4.4-6.1 1.3-9.5 4.8-17.6 5.4-12.5 6.5-21.4 3-25.7-4.2-5.4-15.4-6-22.5-1.2-3.9 2.6-5.5 3-5.5 1.4 0-.6-1.5-1.9-3.2-3-9.5-5.8-16.2 1.2-22.1 22.7-3 10.9-5 14.9-7.9 15.9-1.6.5-2.7 0-4.1-1.7-2.6-3.3-1.7-10.3 2.8-22.1 1.9-4.9 3.5-10 3.5-11.3 0-6.9-10.4-7.3-14-.5-.6 1.1-1.9 6.9-2.9 13-1.9 11.3-5.9 21.4-9.2 23.3-2.7 1.6-6.5 0-7.9-3.3-1.6-3.9-.7-10.1 3.1-21.3 3.3-9.6 3.2-13.2-.2-16.3s-7.6-2.2-11.8 2.3c-2.9 3.3-4.7 4.3-8.2 4.8-2.5.4-5.7.5-7 .3-2.2-.3-2.4-.7-2.1-4.6.3-4.7 9.1-35 12.3-42.2 2.9-6.5 6.6-10 10.5-10 3.5 0 6.4 2.2 6.4 4.8 0 1-1.2 3.4-2.6 5.5-3.6 5.4-4.1 9.6-1.4 12.4 2.9 3.2 8.9 3.1 11.9-.1 7.1-7.5-.3-22.3-12-24.2-14.1-2.3-25.2 11.6-37 46.4-2.1 6.2-4.3 12.2-4.9 13.2-.6 1.1-3.8 3.4-7.1 5.1-9.3 4.6-19.1 14.6-24.3 24.6-3 5.9-11.6 8.3-15.6 4.3-3.2-3.2-2.7-9.7 1.3-17.8 1.9-3.7 6.4-13.8 10.2-22.4l6.8-15.7 11.1-.3c9.1-.2 11.1-.6 11.1-1.8 0-1.3-1.6-1.4-10.2-1.1-11.8.4-11.3.9-8.3-8.7 2.6-8.3 2.6-12.8.1-14.2-2.7-1.4-4.7-1.3-8.7.6-3.2 1.6-5.6 4.9-14.3 20.4-.7 1.2-3.2 1.5-12.7 1.5-9.9.1-12.4.4-15.1 2-6.1 3.6-6.9 11.2-1.4 13.5 5.2 2.1 10.1-.5 10.1-5.4 0-1.7.4-3.7.8-4.4 1.3-1.9 7-3.2 11.7-2.5l4.3.5-2.9 8.3c-4.8 13.8-6.2 22.6-5.5 34.1.6 9.8.6 10.1-1.9 12.4-3.5 3.3-12 4-15.5 1.2-3.6-2.9-3.2-7.6 1.5-15.3 9.3-15.5 3.3-26.4-11-19.9-2.5 1.1-7.2 2.3-10.6 2.7l-6.2.6.7-5.4c1.2-8.8 8.3-35.2 11.6-43.3 3.5-8.4 6.7-11.6 11.4-11.6 6.2 0 7.3 4.4 2.9 11.1-4.9 7.4-2.6 13.9 4.9 13.9 10 0 12.3-13.6 3.6-21.7-3-2.8-8.9-5.3-12.5-5.3-4.2.1-10.5 3.3-14.7 7.6-4.4 4.5-12.8 21.2-18 35.9-6.2 17.1-6.5 17.6-14.3 21.9-3.9 2.1-8.2 4.9-9.6 6.2-3.5 3.2-4.2 3-4.4-1-.4-8.6-6.9-16.6-13.4-16.6-4.1 0-7.9 3.6-7.9 7.5 0 4.4 2.4 7 8.5 9.2 8.7 3.2 9.8 10.8 2.6 18.5-3.2 3.5-4.5 4.1-8.9 4.6-6.6.6-9.4-1.2-11.7-7.3-1.4-3.4-1.6-6.2-1.2-11.4.7-8.6 2.3-12.3 8.1-18.6 12.4-13.5 20-42.1 12-45.7-5.9-2.7-14.5 3.4-20.8 14.6-4.9 8.7-7.1 16.7-10.6 37.1-3.5 21.2-4.3 24.4-7.1 27.9-2.2 2.8-5.7 3.4-7.7 1.4-3.3-3.3.1-16.9 5.7-23.3 3.8-4.4 4.9-9.6 2.7-12.9-1.8-2.9-4.7-3.5-9.7-2.2-2.7.7-5.6.5-11.2-.8-9.2-2.2-13.4-1.7-23.8 3-5.5 2.4-9.1 3.4-12.8 3.4h-5.1v-3.4c0-6.5 9.1-37.9 13.6-46.8 1.3-2.6 3.3-5.2 4.3-5.8 2.4-1.2 7.1-1.3 9-.1 2.1 1.4 1.7 6.4-.8 10-5.3 7.4-3 14.1 4.7 14.1s11.3-8.1 7.2-16.5-13.7-12.3-22.5-9.1zm85.3 16.8c.7 8.5-7.6 29.3-14.2 35.7l-3.6 3.5v-3.5c0-10 12.7-40.8 16.3-39.6.7.2 1.3 2 1.5 3.9zm125.5.4c-.2 2.1-1.2 6.7-2.4 10.1-1.9 5.8-2.3 6.3-5 6.3-3.6 0-3.6-.9-.5-9.4 4.2-11.6 8.4-15.3 7.9-7zm-9.8 30.5c-4.1 10.5-6.7 14.9-8.7 14.9-1.6 0-.8-6.2 1.8-13.8 4.5-12.9 4-12.2 7.8-12.2h3.4zm-170.3 7.5c2.9 1.8-3.5 24.9-8.2 29.6-4.5 4.5-10.5 3.5-13.5-2.2-4.4-8.5 2.1-25.3 10.9-27.9 2.8-.9 9-.6 10.8.5zm-66.4 17.1c.6 6-10.3 57.4-13.5 63.7-3.5 7-10.6 8.7-16.2 4.1-4.2-3.6-5.4-8.1-4.9-18.9 1-19.7 13.5-43.6 26.5-50.5 5.3-2.9 7.7-2.4 8.1 1.6zm151.7-1.4c.8 3.2-9.5 55.3-12.6 63.4-1.9 5.1-5.8 8.3-10.1 8.3-8.1 0-12.1-6.3-12.1-19 0-9.6 3.1-21 8.6-31.4 8.2-15.7 24.3-28.9 26.2-21.3zm118.3 1.1c.4 3.4-1.5 14.3-6.9 39.4-5.6 26.2-8.2 31.2-16.3 31.2-14 0-15.6-24.7-3-49.7 8.6-17.3 25.1-30.4 26.2-20.9z"/></svg>