<svg xmlns="http://www.w3.org/2000/svg" height="172.85" width="546.29"><g fill="#333"><path d="M544.68 107.64l-3.17 6.45-3.19-6.45h-1.58v9.24h1.21v-7.32l3.15 6.36h.83l3.15-6.36v7.32h1.21v-9.24zM528.26 108.86h2.84v8.02h1.32v-8.02h2.86v-1.22h-7.02z"/><path d="M528.1 124a2.52 2.52 0 00-2.51.87c-2 2.18-1.86 6.57-5.39 7.21-2.73.49-6-3-6.63-10.71a44.22 44.22 0 012.34-17.11c1.83-5.44 4.45-10.57 6.56-15.9a51.4 51.4 0 002.9-9.48c.93-4.86.72-10.33-2.41-14.17a13.72 13.72 0 00-6.69-4.27c-5.74-1.73-11.77-.76-17.15 1.68a20.37 20.37 0 00-4.35 2.88c-.77.61-1.88 1.81-3 1.72-1.77-.15-2.38-7.08-12.28-7.08-11.61 0-16.86 21.12-19.29 31.35-4.07 17.13-8.82 16.69-11.27 16.29-2.92-.49-3.91-5.28-3.93-7.83.05-6.87 1.46-12.78 5.46-21.65l.33-.73c2.56-5.67 5.47-12.1 1.77-15.93a6.59 6.59 0 00-5.38-1.94c-1.49.12-4.32.43-5.92 1.72-5.35 4.34-5.54 11.82-6.17 16.41-.35 2.61-.84 4.7-1.42 7.74-1.92 9.93-5.85 23.51-12.82 23.57a6.67 6.67 0 01-5.48-2.53c-2.49-3.21-2.2-7.06-1.81-10.86a53.85 53.85 0 011.44-7.77 40.92 40.92 0 012.07-6.48 65.52 65.52 0 002.76-7.3 17.91 17.91 0 001.17-7.97 11 11 0 00-3.43-6.53c-2-1.85-5-1.94-7.53-1.37a9.16 9.16 0 00-5.04 2.94 10.75 10.75 0 00-2 3.71 3.08 3.08 0 01-2.16 2c-4.11 1.11-9.53 2.53-13.4 2.72-2.22 0-3.52-.44-4.06-1.37-.76-1.29.37-7.41 2.39-15.3 2.91-10.78 8.23-28.1 11.23-36.09.13-.36.28-.79.46-1.32 5-14.5 12.47-13.33 13.72-13.33 6.38 0 6.86 5.19 6.23 8s-2.4 3.93-3.68 5.85a15.77 15.77 0 00-2.59 6.08 8.83 8.83 0 001.26 6.37 9 9 0 006 3.51 10 10 0 0010.36-4.77 14.27 14.27 0 001.6-10.32 20.76 20.76 0 00-5-9.35 22.41 22.41 0 00-7.12-5.45c-4.33-2-9.5-2.08-14.11-.93a21.2 21.2 0 00-7.56 3.68 38.24 38.24 0 00-8 8.72A102.11 102.11 0 00379.75 29q-4.75 10.23-8.48 20.9c-4.39 12.45-6.27 21.33-10.22 23.4-2.06 1.08-4.24 2.08-6.32 3.13a50.38 50.38 0 00-10.81 7.31 75.63 75.63 0 00-16.81 21.73c-.8 1.57-4.73 6.29-10 6.81-9.59 1-11.23-7.73-10.87-10.87a22.69 22.69 0 012-7.31c6.05-12.57 12.51-27.06 17.91-40 1-2.49 3.93-8.55 4.6-9.94a.5.5 0 01.46-.29l6.51-.14a119.3 119.3 0 0113.76.57c1.22.12 4.48.45 5.27-1.85a2.56 2.56 0 00-.25-2.19c-.92-1.37-3-1.1-4.59-.75-5.71 1.24-5.6 1.14-16.74 1h-3c-.5 0-.56-.24-.43-.7l.22-.75c2.42-7.58 8.71-22.37 2.94-25.39-4.13-2.16-11.46-.12-14.84 4.54a134 134 0 00-12.62 22.09.53.53 0 01-.48.31h-6.8c-3.86 0-8.67-.24-13.22-.64-.69-.05-1.39-.09-2.07-.09a20.6 20.6 0 00-7.23 1.24 13.71 13.71 0 00-7.49 6.88 8.59 8.59 0 00-.25 6.7 7.19 7.19 0 006.35 4.3h.93c3.2 0 5.94-1.1 7.51-3a6.85 6.85 0 001.31-5.79 4.82 4.82 0 01.9-3.91c1.68-2.39 6-2.75 8.47-2.75 2.9 0 8.08.24 9.79.32a.42.42 0 01.37.56l-.53 1.36c-.44 1.15-.87 2.3-1.3 3.45-.88 2.34-1.74 4.68-2.54 7s-1.5 4.61-2.16 6.94-1.21 4.44-1.72 6.69-.9 4.27-1.25 6.42-.59 4.07-.77 6.12-.27 3.86-.27 5.79.07 3.63.25 5.43c0 .32.06.64.1 1l.16 1.3c.91 4.88 1.3 8.72-.53 11.29-2 2.85-7.31 5.4-12.34 5.4-3.52 0-5.45-.86-6.67-1.69-5.3-3.62-4.5-10-1.42-15.48.71-1.26 1.52-2.48 2.3-3.66.89-1.35 1.81-2.75 2.59-4.19a21.83 21.83 0 002.63-13.6 9.74 9.74 0 00-1-3.23 8.88 8.88 0 00-8.22-4.77c-5.83.18-9.53 3.53-10.46 3.93a39.64 39.64 0 01-5.5 1.36c-3.55.64-6.73 1.08-9.22 1.27h-1.15a2.69 2.69 0 01-1.84-1.14c-1.31-2.22 7.65-36.66 7.65-36.66 2-6.75 4.15-13.3 6-18.32.13-.36.28-.79.46-1.32 5-14.5 12.47-13.33 13.72-13.33 6.38 0 6.86 5.19 6.22 8s-2.39 3.93-3.67 5.85a15.47 15.47 0 00-2.59 6.08 8.78 8.78 0 001.26 6.37 9 9 0 006 3.51 9.93 9.93 0 0010.35-4.77 14.18 14.18 0 001.6-10.32 20.65 20.65 0 00-4.95-9.35 22.41 22.41 0 00-7.12-5.45c-4.33-2-9.5-2.08-14.11-.93A21.2 21.2 0 00258 4.44a38.28 38.28 0 00-8 8.72 101.06 101.06 0 00-8.55 15.27s-8.45 19.72-13.21 34.2c0 .1-.07.25-.13.44-.6 2.16-2.43 8.74-9.2 11.6h.09A51.5 51.5 0 00200.82 87l-.1.11c-.65.61-1 0-1-.6a27.41 27.41 0 00-4.42-17.13c-4.6-6.7-16.08-10.14-20.15-1a9.26 9.26 0 00.65 8.84c2.88 4.3 7.82 4.64 12.1 6.36 3.72 1.49 5.53 6.19 5.15 10.16s-3.49 14-15.82 16.41a12.61 12.61 0 01-5.69-.33c-5-1.33-8.07-7.12-9.15-11.91-1.33-5.95-.63-11.57.45-17.64.73-4.07 2.07-7.73 5-10.67a64.12 64.12 0 0016.72-24.94c6.19-16.19 8-32.45-.76-33-4.87-.31-12.8 1.41-20.44 14.16-11.8 19.66-11.2 30.68-15.3 53.05v.22c-.88 4.78-1.78 9.74-2.75 14.57-.7 3.49-3.52 15.29-10.09 15.26-11.08 0-2.33-24.77 1.69-27.78 3.76-2.8 6.34-7.95 5.83-12.67a9.13 9.13 0 00-.82-2.94 5.69 5.69 0 00-.49-1c-1.18-1.93-3.31-3.08-6.14-3.31h-.68a7.34 7.34 0 00-2.83.58 10.74 10.74 0 00-2.22 1 7.2 7.2 0 01-3 .72c-2.25 0-5-1-7.57-1.9a46 46 0 00-10.19-1.9c-4.43-.35-14.47 1.44-19.83 5.3a23.86 23.86 0 01-5.47 2.3c-5 1.39-6.8 1.94-11.22 1.94-2.28 0-3.6-.43-4.15-1.37-1.87-3.16 7-35.32 13-51.49.13-.36.28-.8.46-1.33C86.59.62 94.05 1.8 95.31 1.8c6.38 0 6.86 5.19 6.22 8s-2.39 3.92-3.67 5.84a15.47 15.47 0 00-2.59 6.08 8.73 8.73 0 001.26 6.37 9 9 0 006 3.51 10.31 10.31 0 006-.81 10.45 10.45 0 004.3-4 14.22 14.22 0 001.6-10.32 20.7 20.7 0 00-4.95-9.35 22.34 22.34 0 00-7.13-5.45c-4.33-2-9.49-2.08-14.1-.93a21 21 0 00-7.56 3.69 38.23 38.23 0 00-8 8.71A102.58 102.58 0 0063.91 29C60.14 37.08 57 45.47 54 53.92q-1.52 4.36-3 8.75c0 .1-.07.25-.13.44-.6 2.16-2.43 8.74-9.19 11.6-12.66 5.37-25.86 14.72-37 46.46-7.63 21.67-8.46 51.66 17 51.68 10.91 0 20.7-6.06 30.14-38.7 6.47-22.39 11.5-51 13.83-53.51 1.71-1.81 5.93-3.17 13.28-4.27h.25a1.65 1.65 0 011.33.69 1.63 1.63 0 01.22 1.48c-3 8.74-2.67 19.47-1.09 24.45a18.69 18.69 0 008 10.71c7.31 4.34 19.65 3.94 25.84-2.25 1-1.05 2.14-2.63 3.76-2.74.78 0 1.5.63 2.19 1.37a15.23 15.23 0 0011.78 5.11c6.45.14 10.21-3.9 13.69-3.87s6 4.52 18.41 5c4.6.19 12.37-.43 16.51-2.47a32.17 32.17 0 003.34-2.07.7.7 0 011.09.66 42.2 42.2 0 01-2.29 8.7c-7.63 21.67-7.36 51.68 17 51.68 10.9 0 20.7-6.05 30.14-38.7 5.33-18.43 10-46.55 12.66-49.78 1.55-1.86 6.86-3.62 16-4.79h.24a.8.8 0 01.63.27c.46.54.28 1.72.18 2.43v.33a71.62 71.62 0 00.46 13.28 25.13 25.13 0 005.49 13 21.46 21.46 0 008.72 6.13c3.07 1.16 6.1 1.18 9.34 1.12 7.95-.13 11.53-4.3 16.95-4.36 1.43 0 6.81 3.75 11.45 4.25s7.45.29 11.5-2c.62-.36.6.1.56.27s-1.7 4.29-2.62 6.91c-7.63 21.67-7.36 51.68 17 51.68 10.91 0 20.7-6.05 30.14-38.7 6.47-22.39 11.5-51 13.83-53.51a.46.46 0 00.07-.07c5.06-3.14 18.55-6.29 20.08-4.6s.48 5.09 0 8.59c-.55 3-1.67 5.93-2.43 8.88-.95 3.66-2.23 7.91-1.45 11.69a13.88 13.88 0 004.95 8.32 17.32 17.32 0 008.64 3 25.9 25.9 0 009.57-.4 22.12 22.12 0 008.48-4.8 10.89 10.89 0 012.67-2c1.58-.63 2.11.85 2.89 2.84 1.36 3.48 6.21 4.41 9.22 4.35a14 14 0 0010.43-4.53c2.68-2.9 4.27-6.68 5.64-10.33.84-2.25 1.59-4.54 2.3-6.84 2.84-9.06 5.25-23.91 10.75-23.91 3.23 0 3.25 3.53 3.25 5v.3c.07 4.74-1.25 10.27-2.21 14.1-1.11 4.42-2.72 8.88-4.09 13.2-1.15 3.65-2.37 8.52 1 11.45 1.93 1.68 6.45 1.59 8.83.95 3.64-1 5.05-4.62 5.81-8.1a48.61 48.61 0 00.72-6.92A126.61 126.61 0 01489 86.23a63.06 63.06 0 012.36-9.4c1.77-4.81 4.59-9.46 10.22-9.46A8 8 0 01509 72.1c3.08 6.38.45 15.45-1.95 21.61-3.88 9.93-10.85 24.77-2.5 35a15.48 15.48 0 0012.24 5.87c5.25.12 9.08-1.51 12-6.06a4.15 4.15 0 00.77-2.53 2.54 2.54 0 00-.78-1.64 1.87 1.87 0 00-.68-.35zM321.3 36.23c4.21-12.4 7.26-20.83 10.36-20.22 2.82.52 2 6.33-.56 14.61-1.43 4.55-2.78 8.47-3.18 9.64a.52.52 0 01-.5.35h-6.87a.53.53 0 01-.5-.7zm-9 24.82c.59-1.8 5.21-14.57 6-16.84a.51.51 0 01.49-.34h7a.52.52 0 01.49.71c-.92 2.35-3.85 9.82-5 12.82-2 5.37-6.53 18.32-9.91 17.18-2.85-.94-.54-9.06.91-13.53zM170.81 40.59c4.2-11.4 10.09-25.45 13.82-24.24 5.37 1.75-1 20.45-3.73 27.69-4.82 12.77-13.12 22.12-15.33 22.14-2.67.03 1.04-14.18 5.24-25.59zM44.5 91.27l-.15.8c-3.05 16.93-10.22 53.1-12.82 61.84-2.05 6.91-5.67 15.13-14.59 14.67-14.31-.74-17.79-22.67-8-48.84 8.72-23.24 22.92-38 33.51-38h.14a2.18 2.18 0 011.72.78c1.46 1.75.69 5.96.19 8.75zm77.86-14.66a134.05 134.05 0 01-3.83 12.85c-.24.64-.48 1.27-.71 1.9-2 5.53-3.95 10.75-9.85 12.34a9 9 0 01-2.35.32C99.57 104 95 97.79 95 92.22c0-6.15 1-10.07 3-15.59 1.53-4.2 6.23-11 14.14-12a20.61 20.61 0 012.77-.17c1.57 0 5.45.18 7.49 1.94 2.6 2.17.02 10.01-.04 10.21zm99.4 14.62l-.15.8c-3.05 16.93-10.22 53.1-12.82 61.84-2 6.91-5.35 15.29-14.28 14.83-14.3-.73-17.8-22.65-8.24-48.91 7.26-19.93 22.88-38.09 33.46-38.09h.15a2.18 2.18 0 011.72.78c1.4 1.75.67 5.96.16 8.75zm138.62 0l-.15.8c-3.05 16.93-10.22 53.1-12.82 61.84-2.05 6.91-5.67 15.07-14.59 14.61-14.31-.74-17.45-22.43-7.89-48.69 7.26-19.93 22.84-38.09 33.43-38.09h.14a2.15 2.15 0 011.72.79c1.43 1.76.67 5.97.16 8.76z"/></g></svg>