<svg height="205.73" width="662.52" viewBox="0 0 662.52 205.73" xmlns="http://www.w3.org/2000/svg"><g fill="#a3a29e"><path d="m58.54 59.47h53.38v9.53h-43.16v28.41h40.12v9.48h-40.12v38.66h-10.22z"/><path d="m160 59.41h10.22v76.65h39.42v9.49h-49.64z"/><path d="m323 111.75a47.32 47.32 0 0 1 -1.78 13.13 30.18 30.18 0 0 1 -5.65 10.93 27.32 27.32 0 0 1 -10.13 7.51 42.68 42.68 0 0 1 -30.46 0 27.4 27.4 0 0 1 -10.13-7.51 30.18 30.18 0 0 1 -5.65-10.93 47.32 47.32 0 0 1 -1.78-13.13v-52.28h10.31v50.85a43.48 43.48 0 0 0 1.11 9.9 24.17 24.17 0 0 0 3.69 8.48 18.51 18.51 0 0 0 6.87 5.91 27.54 27.54 0 0 0 21.62 0 18.54 18.54 0 0 0 6.88-5.91 24.16 24.16 0 0 0 3.68-8.48 43.48 43.48 0 0 0 1.11-9.9v-50.85h10.31z"/><path d="m401.58 100.17-28.95-40.76h13.13l23.24 33.71 23-33.71h12.77l-28.95 40.76 31.75 45.38h-13.5l-25.55-38.2-25.67 38.2h-12.66z"/><path d="m650.77 11.75v182.25h-639v-182.25zm11.75-11.75h-662.52v205.73h662.52z"/><path d="m515.95 68.68h9.64v9.64h-9.64z"/><path d="m506.09 49.41a9.3 9.3 0 0 0 -9.41 9.64v38.54h48.18v-48.18zm29.13 38.59h-28.9v-23.17a5.58 5.58 0 0 1 5.68-5.78h23.26z"/><path d="m515.95 68.68h9.64v9.64h-9.64z"/><path d="m573.77 68.68h9.64v9.64h-9.64z" transform="matrix(0 1 -1 0 652.09 -505.08)"/><path d="m593 49.41h-38.5v48.18h48.17v-38.77a9.3 9.3 0 0 0 -9.67-9.41zm0 38.59h-28.87v-28.95h23.13a5.58 5.58 0 0 1 5.74 5.64z"/><path d="m573.77 68.68h9.64v9.64h-9.64z" transform="matrix(0 1 -1 0 652.09 -505.08)"/><path d="m515.95 126.5h9.64v9.64h-9.64z" transform="matrix(0 -1 1 0 389.46 652.09)"/><path d="m506.32 140.12v-23.26h28.9v19.27h9.64v-28.9h-48.18v38.77a9.3 9.3 0 0 0 9.64 9.4h19.27v-9.63h-13.49a5.58 5.58 0 0 1 -5.78-5.65z"/><path d="m535.23 155.4h9.63v-9.63h-9.63z"/><path d="m515.95 126.5h9.64v9.64h-9.64z" transform="matrix(0 -1 1 0 389.46 652.09)"/><path d="m525.59 136.13h9.64v9.64h-9.64z" transform="matrix(0 -1 1 0 389.46 671.36)"/><path d="m583.38 145.8v-9.67h9.63v-9.63h-9.63v9.6h-9.64v9.7 9.58h28.95v-9.58z"/><path d="m554.47 155.38h9.64v-.01-5.66-3.97-.9-27.98h-9.64z"/><path d="m602.65 107.2h-38.54v.03 9.6.01h28.9v9.66h9.64z"/></g></svg>