<svg width="815" height="142" xmlns="http://www.w3.org/2000/svg"><g fill="none" fill-rule="evenodd"><g fill="#0a1f3d"><path d="M219.673 40.925h-28.189v13.862h21.77v11.536h-21.77v28.189h-11.91V29.389h40.1zM264.05 94.512h-10.792l-.187-2.791c-3.226 2.481-6.668 3.722-10.327 3.722-13.15 0-19.723-7.473-19.723-22.422V47.995h11.536v25.026c0 4.342.728 7.552 2.187 9.629 1.456 2.079 3.797 3.116 7.024 3.116 3.596 0 6.512-1.301 8.745-3.907V47.995h11.536v46.517zM298.937 85.953l-1.023 9.49h-8.281c-2.046 0-3.845-.326-5.395-.978-1.552-.65-2.854-1.519-3.908-2.604-1.055-1.085-1.846-2.373-2.372-3.862-.53-1.488-.792-3.069-.792-4.744v-25.77h-6.605l1.023-9.49h5.582V37.762l11.537-1.21v11.443h10.234v9.49h-10.234v21.026c0 1.799.06 3.194.186 4.186.123.992.418 1.737.884 2.233.465.497 1.162.791 2.093.884.93.092 2.233.139 3.908.139h3.163zM346.661 94.512H335.87l-.186-2.791c-3.226 2.481-6.667 3.722-10.327 3.722-13.15 0-19.723-7.473-19.723-22.422V47.995h11.537v25.026c0 4.342.727 7.552 2.186 9.629 1.457 2.079 3.797 3.116 7.024 3.116 3.596 0 6.512-1.301 8.745-3.907V47.995h11.536v46.517zM383.595 47.251l-2.232 10.884h-4.28c-1.86 0-3.568.436-5.117 1.304-1.55.868-2.667 1.985-3.35 3.348v31.725H357.08V47.995h10.792l.28 4.931c3.596-3.783 7.722-5.675 12.374-5.675h3.07zM397.085 65.95h18.887c0-2.419-.687-4.557-2.058-6.419-1.372-1.86-3.49-2.79-6.358-2.79-2.867 0-5.174.837-6.918 2.512-1.746 1.675-2.93 3.907-3.553 6.698m29.861 7.815h-30.14c.622 4.031 2.255 7.07 4.901 9.116 2.644 2.047 5.645 3.07 9.006 3.07 1.058 0 2.21-.092 3.453-.278a34.502 34.502 0 003.78-.79 41.1 41.1 0 003.781-1.21 24.062 24.062 0 003.36-1.537l.56 9.77c-4.529 2.358-9.708 3.535-15.537 3.535-4.093 0-7.708-.62-10.838-1.86-3.133-1.24-5.769-2.93-7.908-5.07-2.14-2.14-3.755-4.684-4.838-7.629-1.087-2.944-1.628-6.124-1.628-9.537 0-3.349.511-6.479 1.535-9.396 1.023-2.916 2.496-5.474 4.42-7.676 1.92-2.2 4.261-3.922 7.023-5.162 2.76-1.24 5.876-1.86 9.35-1.86 2.914 0 5.628.48 8.14 1.44 2.512.963 4.682 2.326 6.512 4.094 1.83 1.768 3.258 3.893 4.28 6.373 1.024 2.481 1.534 5.242 1.534 8.28 0 1.738-.249 3.847-.746 6.327M497.655 40.925h-28.19v13.862h21.77v11.536h-21.77v28.189h-11.908V29.389h40.098zM530.241 60.741c-2.03-2.666-4.86-4-8.49-4-3.694 0-6.555 1.334-8.584 4-2.03 2.667-3.046 6.203-3.046 10.605 0 4.405 1.016 7.941 3.047 10.607 2.029 2.667 4.89 4 8.584 4 3.69 0 6.552-1.364 8.584-4.094 2.028-2.727 3.044-6.233 3.044-10.513 0-4.402-1.046-7.938-3.138-10.605m8.628 27.724c-4.22 4.651-9.924 6.978-17.118 6.978-3.598 0-6.84-.621-9.722-1.862-2.885-1.238-5.35-2.944-7.396-5.116-2.047-2.17-3.63-4.713-4.746-7.629-1.116-2.914-1.674-6.077-1.674-9.49 0-3.348.558-6.495 1.674-9.442 1.117-2.945 2.699-5.504 4.746-7.676 2.046-2.17 4.51-3.875 7.396-5.116 2.883-1.24 6.124-1.861 9.722-1.861 3.596 0 6.85.637 9.768 1.907 2.914 1.272 5.396 2.993 7.443 5.164 2.046 2.17 3.612 4.713 4.698 7.628 1.084 2.917 1.628 6.048 1.628 9.396 0 6.761-2.14 12.467-6.42 17.119M593.48 94.512h-10.792l-.186-2.791c-3.226 2.481-6.668 3.722-10.327 3.722-13.15 0-19.723-7.473-19.723-22.422V47.995h11.536v25.026c0 4.342.728 7.552 2.187 9.629 1.456 2.079 3.797 3.116 7.024 3.116 3.596 0 6.512-1.301 8.745-3.907V47.995h11.536v46.517zM644.926 94.512H633.39V69.486c0-4.34-.73-7.551-2.187-9.629-1.458-2.077-3.799-3.116-7.023-3.116-3.536 0-6.45 1.334-8.746 4v33.771h-11.536V47.995h10.792l.186 2.791c3.286-2.357 6.698-3.535 10.234-3.535 13.211 0 19.816 7.413 19.816 22.235v25.026zM675.67 56.741c-3.706 0-6.578 1.318-8.617 3.953-2.038 2.637-3.057 6.187-3.057 10.652 0 4.467 1.02 8.018 3.057 10.653 2.04 2.637 4.911 3.954 8.617 3.954 3.582 0 6.252-1.302 8.013-3.907 1.76-2.606 2.642-6.172 2.642-10.7 0-4.525-.882-8.094-2.642-10.698-1.76-2.605-4.43-3.907-8.013-3.907zm21.632 37.771h-10.885l-.186-2.605c-3.474 2.358-7.257 3.536-11.35 3.536-3.66 0-6.9-.621-9.722-1.862-2.823-1.238-5.195-2.96-7.117-5.162-1.923-2.202-3.395-4.761-4.42-7.676-1.023-2.915-1.534-6.047-1.534-9.397 0-3.348.526-6.495 1.581-9.442 1.054-2.945 2.56-5.504 4.513-7.676 1.953-2.17 4.341-3.875 7.163-5.116 2.821-1.24 6.001-1.861 9.536-1.861 4.154 0 7.783 1.023 10.885 3.07V24.737h11.536v69.775zM734.144 47.251l-2.232 10.884h-4.28c-1.861 0-3.567.436-5.117 1.304-1.551.868-2.667 1.985-3.35 3.348v31.725H707.63V47.995h10.79l.28 4.931c3.597-3.783 7.723-5.675 12.375-5.675h3.069zM789.88 47.995l-29.12 69.031h-11.537l10.327-25.585-19.352-43.446h12.84l11.907 29.956 12.096-29.956z"/></g><g fill="#0a1f3d"><path d="M86.802 125.117c.099 2.468-5.133 4.541-11.649 4.541-6.515 0-11.747-2.073-11.55-4.54.1-2.469 5.33-4.443 11.65-4.443 6.316 0 11.45 1.974 11.55 4.442M117.405 119.885c.394 2.369-4.443 4.343-10.86 4.343-6.416 0-11.747-1.974-11.845-4.343-.198-2.369 4.738-4.245 10.858-4.245 6.22 0 11.452 1.876 11.847 4.245M125.499 108.236c.395 2.172-4.145 3.949-10.266 3.949s-11.255-1.777-11.452-3.95c-.197-2.17 4.343-3.848 10.266-3.848 5.924 0 11.058 1.678 11.452 3.849M108.125 98.463c.296 1.975-4.245 3.653-10.07 3.653-5.824 0-10.661-1.678-10.76-3.653-.098-1.974 4.443-3.554 10.07-3.554 5.725 0 10.464 1.58 10.76 3.554M55.804 119.885c-.197 2.369-5.528 4.343-11.945 4.343-6.416 0-11.253-1.974-10.859-4.343.395-2.369 5.726-4.245 11.945-4.245 6.22 0 11.057 1.876 10.86 4.245M46.525 108.236c-.296 2.172-5.43 3.949-11.55 3.949-6.12 0-10.662-1.777-10.168-3.95.494-2.17 5.627-3.848 11.55-3.848 5.923 0 10.365 1.678 10.168 3.849M63.406 98.463c-.099 1.975-4.936 3.653-10.76 3.653-5.825 0-10.366-1.678-10.07-3.653.296-1.974 5.134-3.554 10.76-3.554 5.627 0 10.168 1.58 10.07 3.554M82.36 134.594c0 1.58-3.16 2.961-7.207 2.961s-7.207-1.283-7.207-2.961c.1-1.58 3.259-2.862 7.207-2.862s7.107 1.282 7.207 2.862M129.744 126.499c.297 1.48-2.567 2.765-6.516 2.765s-7.205-1.284-7.502-2.765c-.197-1.481 2.666-2.665 6.515-2.665 3.85 0 7.206 1.085 7.503 2.665M142.38 108.138c.394 1.283-2.27 2.369-5.923 2.369s-6.812-1.086-7.108-2.37c-.296-1.283 2.37-2.369 5.923-2.369s6.713 1.086 7.108 2.37M117.108 93.132c.197 1.185-2.369 2.074-5.824 2.074-3.455 0-6.319-.987-6.416-2.074-.1-1.184 2.468-2.073 5.823-2.073 3.356 0 6.22.889 6.417 2.073M49.19 92.343c-.099 1.184-2.962 2.073-6.417 2.073-3.455 0-6.022-.889-5.824-2.073.197-1.086 3.06-2.073 6.417-2.073 3.356 0 6.021.888 5.824 2.073M21.944 106.657c-.296 1.283-3.455 2.37-7.107 2.37-3.653 0-6.22-1.087-5.924-2.37.395-1.283 3.554-2.27 7.01-2.27 3.455 0 6.317.987 6.021 2.27M31.618 125.117c-.296 1.481-3.652 2.764-7.502 2.764-3.85 0-6.812-1.184-6.417-2.764.296-1.48 3.653-2.665 7.503-2.665s6.713 1.185 6.416 2.665M68.934 139.727c0 1.086-2.271 1.975-5.035 1.975-2.764 0-4.837-.889-4.837-1.975.098-1.086 2.27-1.974 5.034-1.974 2.666-.099 4.838.79 4.838 1.974M131.028 132.719c.197 1.086-1.777 1.874-4.443 1.874-2.665 0-4.936-.887-5.133-1.874-.198-1.087 1.777-1.876 4.442-1.876 2.566 0 4.936.789 5.134 1.876M153.437 111.1c.296.888-1.481 1.579-3.949 1.579s-4.64-.691-4.837-1.58c-.199-.888 1.48-1.58 3.949-1.58 2.467 0 4.54.692 4.837 1.58M14.442 125.413c-.198.987-2.567 1.777-5.134 1.777-2.566 0-4.442-.79-4.146-1.777.296-.987 2.567-1.777 5.133-1.777 2.567 0 4.443.79 4.147 1.777M10.592 102.906c-.198.79-2.37 1.48-4.739 1.48-2.37 0-4.047-.69-3.85-1.48.296-.79 2.37-1.481 4.64-1.481 2.27 0 4.146.691 3.949 1.48M48.598 87.703c-.099.69-1.974 1.283-4.146 1.283-2.172 0-3.949-.592-3.751-1.283.098-.691 1.974-1.284 4.146-1.284 2.172 0 3.85.593 3.751 1.284M127.375 91.947c.197.791-1.481 1.383-3.752 1.383-2.27 0-4.244-.592-4.343-1.383-.099-.79 1.58-1.38 3.751-1.38 2.172 0 4.146.59 4.344 1.38"/><path d="M97.366 50.731c13.452-7.676 22.522-22.151 22.522-38.75 0-3.096-.317-6.118-.917-9.035 0 0-4.356-1.321-11.424-.862-7.084.46-13.892 2.683-20.018 6.21a52.18 52.18 0 00-4.599 2.976c-5.476 3.974-15.372 9.546-27.396 9.127-18.179-.63-24.57-7.225-24.824-7.493l-.002.001c.333 16.319 9.426 30.482 22.77 37.978 10.231 5.748 16.774 16.352 16.774 28.087v4.454c0 6.788-1.602 13.01-4.364 18.452-9.92 1.189-17.228 4.192-17.686 7.84-.59 4.838 11.55 8.985 27.05 8.985 15.499 0 27.641-4.049 27.148-8.985-.386-3.7-7.881-6.74-18.011-7.892-2.519-5.252-3.968-11.195-3.968-17.64v-4.868c0-11.908 6.602-22.682 16.945-28.585"/><path d="M55.534 20.397c12.024.419 21.92-5.153 27.396-9.127a52.18 52.18 0 014.599-2.977l.132-.1s-4.123 1.564-14.016 1.05c-9.891-.515-33.28-10.23-42.935 3.66.253.269 6.645 6.863 24.824 7.494"/></g></g></svg>