<svg id="Layer_2" data-name="Layer 2" xmlns="http://www.w3.org/2000/svg" height="42.24" width="209.49"><defs><style>.cls-1{fill:#4e5054}.cls-2{fill:#ff4f1f}</style></defs><path class="cls-1" d="M261 53.64h-1v-.4h2.53v.4h-1v2.76H261zM264.25 56.4l-.88-2.74v2.74h-.46v-3.16h.76l.82 2.63.82-2.63h.76v3.16h-.46v-2.74l-.88 2.74z" transform="translate(-56.58 -42.76)"/><path class="cls-2" d="M77.8 45.21a1.88 1.88 0 110 3.76h-.1a1.89 1.89 0 01-1.78-1.79 1.88 1.88 0 011.88-2m0-2.45a4.33 4.33 0 00-.21 8.66h.21a4.33 4.33 0 000-8.66zM74.91 73a4.37 4.37 0 110 8.73h-4.73a4.37 4.37 0 010-8.73h4.73m0-2.85h-4.73a7.22 7.22 0 100 14.43h4.73a7.22 7.22 0 100-14.43zM74.91 56.09a4.37 4.37 0 110 8.73H63.79a4.37 4.37 0 010-8.73h11.12m0-2.85H63.79a7.22 7.22 0 000 14.44h11.12a7.22 7.22 0 100-14.44z" transform="translate(-56.58 -42.76)"/><path class="cls-1" d="M64.19 41.8V10.49h17.64v3.09h-14.5v10.85h13.02v3.04H67.33v11.24h14.5v3.09H64.19zM116.11 41.8V10.49h17.64v3.09h-14.51v10.85h13.02v3.04h-13.02v11.24h14.51v3.09h-17.64zM168.88 41.8V28.82l-10.57-18.33h3.5l8.66 15.01 8.62-15.01h3.51l-10.58 18.33V41.8h-3.14zM109.69 41.8V10.49h-3.14v25.59L91.04 10.49h-3.13V41.8h3.13V16.21l15.51 25.59h3.14z"/><path class="cls-1" d="M104.2 71.1h7.51v2.49c0 6.13-3.88 8.32-7.51 8.32s-7.5-2.19-7.5-8.32v-9.37c0-6.14 3.87-8.32 7.5-8.32a7.11 7.11 0 017.38 6.42h3.15c-.73-5.8-4.8-9.51-10.53-9.51-6.36 0-10.64 4.57-10.64 11.38v9.42c0 6.81 4.28 11.39 10.64 11.39s10.64-4.58 10.64-11.39v-5.55H104.2zM197.3 75.09c.27 4.2 3 6.82 7 6.82s6.14-2 6.14-5.49a5.24 5.24 0 00-4.27-5.24l-5.29-1.44c-3.89-1-6.21-4.21-6.21-8.44 0-5.08 3.62-8.49 9-8.49 6.17 0 8.89 4.29 9.48 8.59H210c-.71-3.59-3-5.5-6.35-5.5-3.58 0-5.88 2.12-5.88 5.4a5.22 5.22 0 004.05 5.37l5.46 1.49a8.21 8.21 0 016.26 8.26c0 5.29-3.56 8.58-9.28 8.58-7.12 0-10-5.43-10.14-9.91zM243.63 75.09c.27 4.2 3.06 6.82 7 6.82s6.14-2 6.14-5.49a5.25 5.25 0 00-4.27-5.24l-5.29-1.44c-3.89-1-6.21-4.21-6.21-8.44 0-5.08 3.62-8.49 9-8.49 6.17 0 8.88 4.29 9.48 8.59h-3.14c-.71-3.59-3-5.5-6.34-5.5-3.58 0-5.89 2.12-5.89 5.4a5.23 5.23 0 004.06 5.37l5.46 1.49a8.21 8.21 0 016.26 8.26c0 5.29-3.56 8.58-9.28 8.58-7.12 0-10-5.43-10.14-9.91z" transform="translate(-56.58 -42.76)"/></svg>