<svg version="1.2" baseProfile="tiny" width="170mm" height="30mm" viewBox="0 0 17000 3000" preserveAspectRatio="xMidYMid" fill-rule="evenodd" stroke-width="28.222" stroke-linejoin="round" xmlns="http://www.w3.org/2000/svg"><path d="M1469 300l70 1 68 4 66 7 63 10 62 12 59 15 57 18 55 20 53 23 50 25 49 27 47 29 45 31 43 33 41 36 39 37-453 447-21-19-22-19-22-17-24-16-24-16-25-14-26-13-27-13-28-11-29-10-31-8-32-6-33-6-35-3-36-2-38-1-31 1-30 2-30 3-29 5-28 7-28 8-27 9-27 11-26 12-24 13-24 14-24 16-22 16-21 18-20 19-20 20-18 21-18 23-16 23-16 24-14 26-13 26-12 28-11 28-10 29-9 31-7 30-6 32-5 32-3 33-2 34-1 34 1 40 2 39 4 37 5 36 7 35 8 33 10 33 11 30 13 30 14 28 14 28 16 25 17 25 17 23 19 22 20 21 21 19 21 19 22 17 23 15 24 15 24 13 25 12 26 11 27 10 26 8 27 7 27 5 28 5 27 3 28 2 29 1 54-2 52-4 49-7 46-9 43-12 40-15 37-18 34-21 32-23 28-26 27-28 24-32 21-34 19-36 16-40 14-42h-555v-471h1178l4 28 3 27 3 28 1 26 3 105-3 96-4 47-5 46-6 45-8 44-9 42-11 42-12 40-13 40-14 38-15 38-17 37-17 35-19 35-20 33-21 33-21 31-23 31-23 29-24 28-25 28-26 26-27 25-28 24-28 24-29 22-29 21-30 20-31 19-31 18-31 17-65 31-66 27-67 23-69 18-69 15-70 10-69 6-70 2-69-1-67-4-67-7-65-10-63-13-62-16-60-18-60-21-57-24-55-26-54-28-51-31-49-33-47-35-45-37-43-39-41-42-38-44-36-45-34-48-32-49-29-52-27-53-24-56-22-57-19-59-17-59-13-62-10-62-7-64-5-65-1-67 2-89 4-43 4-43 6-42 7-42 9-42 10-40 11-40 12-39 14-39 14-38 16-36 17-36 18-36 19-34 20-34 22-33 22-32 23-31 25-30 26-29 26-29 28-28 29-26 30-26 30-25 31-24 33-23 33-21 33-21 35-20 36-19 36-17 37-17 38-15 39-14 40-13 81-23 42-9 43-8 87-13 90-8 91-2z"/><path fill="none" d="M199 299h2416v2459H199z"/><path d="M4718 2714H2866V344h1852v572H3510v313h1124v572H3510v341h1208v572z"/><path fill="none" d="M2866 343h1854v2372H2866z"/><path d="M6151 300l68 1 67 5 65 7 64 10 62 13 61 16 60 18 58 22 57 24 54 27 53 28 50 31 49 33 47 36 44 38 43 40 41 42 38 43 36 46 33 48 31 50 29 51 27 54 24 55 22 57 18 58 16 60 13 60 10 62 8 64 4 64 1 66-1 66-4 64-8 64-10 62-13 60-16 60-18 58-22 57-24 55-27 54-29 51-31 50-33 48-36 45-38 44-41 42-43 40-44 38-47 35-49 34-50 30-53 29-54 27-57 24-58 21-60 19-61 16-62 13-64 10-65 7-67 5-68 1-67-1-67-5-65-7-64-10-62-13-61-16-60-19-58-21-57-24-54-27-53-29-50-30-49-34-47-35-44-38-43-40-41-42-38-44-36-45-33-48-31-50-29-51-27-54-24-55-22-57-18-58-16-60-13-60-10-62-8-64-4-64-1-66 1-66 4-64 8-64 10-62 13-60 16-60 18-58 22-57 24-55 27-54 29-51 31-50 33-48 36-46 38-43 41-42 43-40 44-38 47-36 49-33 50-31 53-28 54-27 57-24 58-22 60-18 61-16 62-13 64-10 65-7 67-5 67-1zm0 616l-32 1-31 2-31 3-30 5-29 7-29 7-28 9-27 11-26 12-25 13-24 14-24 15-23 16-21 18-21 18-20 20-19 21-18 22-16 22-16 24-15 25-13 26-12 26-11 28-10 28-9 30-7 30-6 30-5 32-3 32-2 32-1 34 1 33 2 33 3 32 5 32 6 30 7 30 9 29 10 29 11 28 12 26 13 26 15 25 16 23 16 23 18 22 19 21 20 20 21 18 21 18 23 16 24 15 24 14 25 13 26 12 27 10 28 10 29 7 29 7 30 4 31 4 31 2 32 1 32-1 31-2 31-4 30-4 29-7 29-7 27-10 28-10 26-12 26-13 24-14 24-15 22-16 22-18 21-18 20-20 19-21 18-22 16-23 16-23 14-25 14-26 12-26 11-28 10-29 9-29 7-30 6-30 5-32 3-32 2-33 1-33-1-34-2-32-3-32-5-32-6-30-7-30-9-30-10-28-11-28-12-26-14-26-14-25-16-24-16-22-18-22-19-21-20-20-21-18-22-18-22-16-24-15-24-14-26-13-26-12-28-11-27-9-29-7-29-7-30-5-31-3-31-2-32-1z"/><path fill="none" d="M4898 299h2508v2461H4898z"/><path d="M9443 2714H7658V344h644v1777h1141v593z"/><path fill="none" d="M7658 343h1786v2372H7658z"/><g><path d="M10614 1817v897h-644v-889L9076 344h739l479 895 477-895h716l-873 1473z"/><path fill="none" d="M9076 343h2413v2372H9076z"/></g><g><path d="M13532 936h-674v1778h-643V936h-674V344h1991v592z"/><path fill="none" d="M11540 343h1993v2372h-1993z"/></g><g><path d="M14377 2714h-644V344h644v2370z"/><path fill="none" d="M13733 343h645v2372h-645z"/></g><g><path d="M16083 1520l750 1194h-728l-415-703-413 703h-723l750-1192-750-1178h728l415 701 413-701h723l-750 1176z"/><path fill="none" d="M14554 343h2281v2372h-2281z"/></g></svg>