<?xml version="1.0" encoding="UTF-8"?>
<svg width="1531px" height="371px" viewBox="0 0 1531 371" version="1.1" xmlns="http://www.w3.org/2000/svg" xmlns:xlink="http://www.w3.org/1999/xlink">
    <!-- Generator: Sketch 46.2 (44496) - http://www.bohemiancoding.com/sketch -->
    <title>logo</title>
    <desc>Created with Sketch.</desc>
    <defs>
        <linearGradient x1="100%" y1="50%" x2="0%" y2="50%" id="linearGradient-1">
            <stop stop-color="#000000" offset="0%"></stop>
            <stop stop-color="#FFFFFF" stop-opacity="0" offset="100%"></stop>
        </linearGradient>
        <filter x="-2.2%" y="-1.6%" width="104.7%" height="104.7%" filterUnits="objectBoundingBox" id="filter-2">
            <feOffset dx="0" dy="2" in="SourceAlpha" result="shadowOffsetOuter1"></feOffset>
            <feGaussianBlur stdDeviation="2" in="shadowOffsetOuter1" result="shadowBlurOuter1"></feGaussianBlur>
            <feColorMatrix values="0 0 0 0 0   0 0 0 0 0   0 0 0 0 0  0 0 0 0.5 0" type="matrix" in="shadowBlurOuter1" result="shadowMatrixOuter1"></feColorMatrix>
            <feMerge>
                <feMergeNode in="shadowMatrixOuter1"></feMergeNode>
                <feMergeNode in="SourceGraphic"></feMergeNode>
            </feMerge>
        </filter>
    </defs>
    <g id="Page-1" stroke="none" stroke-width="1" fill="none" fill-rule="evenodd">
        <g id="logo" fill-rule="nonzero">
            <g id="Group" transform="translate(103.000000, 27.000000)">
                <g id="logo" transform="translate(385.000000, 78.000000)">
                    <path d="M82.617626,162 C106.19059,162 124.824457,154.168508 137.621209,146.337017 C145.927872,141.414365 149.744447,134.477901 149.744447,124.40884 L149.744447,86.3701657 C149.744447,76.7486188 142.111297,69.140884 132.457607,69.140884 L92.9448292,69.140884 C84.6381658,69.140884 77.9030332,75.8535912 77.9030332,84.1325967 C77.9030332,92.4116022 84.6381658,98.9005525 92.9448292,98.9005525 L116.293289,98.9005525 L116.293289,121.276243 C107.537616,127.541436 96.3123955,130.674033 83.7401481,130.674033 C55.9016002,130.674033 36.1452114,109.640884 36.1452114,81 L36.1452114,80.5524862 C36.1452114,53.9254144 56.1261046,31.7734807 81.2705995,31.7734807 C96.0878911,31.7734807 106.19059,35.801105 115.619775,42.5138122 C118.089324,44.3038674 121.232386,46.0939227 126.171483,46.0939227 C135.600669,46.0939227 143.233819,38.4861878 143.233819,29.0883978 C143.233819,22.3756906 139.417244,17.6767956 136.049678,15.2154696 C121.905899,5.37016575 106.19059,0 82.3931216,0 C34.7981849,0 0,36.4723757 0,81 L0,81.4475138 C0,127.765193 33.6756628,162 82.617626,162 L82.617626,162 L82.617626,162 Z M248.526391,161.776243 C290.733222,161.776243 317.449248,138.505525 317.449248,91.0690608 L317.449248,18.5718232 C317.449248,8.95027624 309.816097,1.34254144 300.162407,1.34254144 C290.508717,1.34254144 282.875567,8.95027624 282.875567,18.5718232 L282.875567,92.4116022 C282.875567,117.248619 270.078815,130.002762 248.9754,130.002762 C227.871985,130.002762 215.075233,116.801105 215.075233,91.2928177 L215.075233,18.5718232 C215.075233,8.95027624 207.442083,1.34254144 197.788393,1.34254144 C188.134703,1.34254144 180.501552,8.95027624 180.501552,18.5718232 L180.501552,92.1878453 C180.501552,138.281768 206.319561,161.776243 248.526391,161.776243 L248.526391,161.776243 L248.526391,161.776243 Z M352.696441,143.875691 C352.696441,153.273481 360.105087,160.657459 369.534273,160.657459 C378.963458,160.657459 386.596609,153.273481 386.596609,143.875691 L386.596609,66.0082873 L416.455696,111.878453 C420.047767,117.248619 424.537855,120.604972 430.823979,120.604972 C437.110103,120.604972 441.600191,117.248619 445.192262,111.878453 L475.500358,65.3370166 L475.500358,143.428177 C475.500358,152.825967 483.133508,160.657459 492.562694,160.657459 C502.216384,160.657459 509.849534,153.049724 509.849534,143.428177 L509.849534,19.019337 C509.849534,9.39779006 502.216384,1.79005525 492.562694,1.79005525 L488.746119,1.79005525 C481.786482,1.79005525 476.847385,4.69889503 473.255314,10.5165746 L431.272988,78.538674 L389.515166,10.7403315 C386.372104,5.59392265 381.208503,1.79005525 373.799857,1.79005525 L369.983282,1.79005525 C360.329592,1.79005525 352.696441,9.39779006 352.696441,19.019337 L352.696441,143.875691 L352.696441,143.875691 Z M673.064246,159.314917 L761.294483,159.314917 C769.825651,159.314917 776.785288,152.60221 776.785288,144.099448 C776.785288,135.596685 769.825651,128.660221 761.294483,128.660221 L690.126582,128.660221 L690.126582,95.7679558 L750.069262,95.7679558 C758.60043,95.7679558 765.560067,89.0552486 765.560067,80.5524862 C765.560067,72.0497238 758.60043,65.1132597 750.069262,65.1132597 L690.126582,65.1132597 L690.126582,33.339779 L760.171961,33.339779 C768.703129,33.339779 775.662766,26.6270718 775.662766,18.1243094 C775.662766,9.62154696 768.703129,2.68508287 760.171961,2.68508287 L673.064246,2.68508287 C663.410556,2.68508287 655.777406,10.2928177 655.777406,19.9143646 L655.777406,142.085635 C655.777406,151.707182 663.410556,159.314917 673.064246,159.314917 L673.064246,159.314917 L673.064246,159.314917 Z M856.259852,143.428177 C856.259852,153.049724 863.893002,160.657459 873.546692,160.657459 C883.200382,160.657459 890.833532,153.049724 890.833532,143.428177 L890.833532,34.4585635 L924.060186,34.4585635 C932.815859,34.4585635 940,27.2983425 940,18.5718232 C940,9.84530387 932.815859,2.68508287 924.060186,2.68508287 L823.033198,2.68508287 C814.277526,2.68508287 807.093384,9.84530387 807.093384,18.5718232 C807.093384,27.2983425 814.277526,34.4585635 823.033198,34.4585635 L856.259852,34.4585635 L856.259852,143.428177 L856.259852,143.428177 Z" id="GUM·LET" fill="#000000"></path>
                    <path d="M525,152.203312 L525,159 L613.445945,159 C622.668918,159 630,152.135715 630,143.500002 C630,134.864288 622.668918,128.000004 613.445945,128.000004 L546.047297,128.000004 L534.459461,128 L525,128 L525,132.428574 L525,141.285715 L525,152.203312 Z" id="Path" fill="url(#linearGradient-1)"></path>
                </g>
                <g id="footer-logo" filter="url(#filter-2)">
                    <path d="M122.884956,213.308642 L68.0493827,289.514142 C92.4061075,306.041011 120.251541,316.585048 151.802469,318 L151.802469,223.525216 C140.824461,222.324706 131.760219,218.859334 122.884956,213.308642 Z" id="Shape" fill="#104A70"></path>
                    <path d="M153.111111,93.5289753 L152.476744,0 C121.310611,1.48333054 93.6150719,11.3984088 69.3580247,27.8642004 L124.082412,103.382716 C132.765375,98.025212 142.316567,94.5978523 153.111111,93.5289753 Z" id="Shape" fill="#ED7324"></path>
                    <path d="M247.333333,26.0721511 C222.58382,9.57718422 193.533992,0.923837349 161.569676,0 L160.962963,93.1209805 C171.944989,93.8958118 182.358264,96.7173075 191.232167,102.074074 L247.333333,26.0721511 Z" id="Shape" fill="#FBBC05"></path>
                    <path d="M98.0729447,181.901235 L9.16049383,211.112296 C19.5493223,239.955254 37.2763093,264.239845 61.0575136,282.666667 L116.469136,207.031595 C108.492133,200.287333 102.117622,191.695401 98.0729447,181.901235 Z" id="Shape" fill="#0F1E2A"></path>
                    <path d="M116.469136,109.265849 L61.2299006,34.0246914 C45.1123531,46.4647334 31.9651907,61.6053169 21.5600001,79.159891 C16.4905565,87.7125381 12.5803406,96.4626719 9.16049383,105.937638 L98.3655477,134.790123 C102.409694,124.954027 108.448876,116.053506 116.469136,109.265849 Z" id="Shape" fill="#DF5216"></path>
                    <path d="M94.6134517,160.379933 C94.4845453,154.857589 95.0871608,148.993379 96.2944813,143.989709 L6.48193133,115.160494 C2.3208519,129.459938 0,144.022583 0,159.654321 C0,175.376897 1.8052146,189.780575 6.00426008,204.148148 L96.8395062,175.739648 C95.5942196,170.66028 94.7423581,165.902278 94.6134517,160.379933 Z" id="Shape" fill="#D53C0D"></path>
                    <path d="M198.91358,209.75291 L254.471854,285.283951 C278.271839,266.813496 297.17652,242.241758 307.530864,213.374177 L218.217277,184.518519 C214.028311,194.25931 207.135704,203.104384 198.91358,209.75291 Z" id="Shape" fill="#378A9B"></path>
                    <path d="M162.271605,223.064108 L162.271605,316.691358 C194.129097,315.731154 223.99793,306.546203 248.641975,290.148873 L192.293758,214.617284 C183.350629,219.88432 173.219894,222.407347 162.271605,223.064108 Z" id="Shape" fill="#1D77B2"></path>
                    <path d="M311.258461,113.851852 L204.148148,146.678099 C205.345734,151.866456 205.824784,154.422773 205.809175,158.997249 C205.793567,163.571724 205.23125,165.99564 204.148148,171.200883 L311.637761,204.148148 C315.844222,189.881517 317.999978,174.586899 317.999978,159 C318.008255,143.330071 315.648554,128.431811 311.258461,113.851852 Z" id="Shape" fill="#539E82"></path>
                </g>
            </g>
        </g>
    </g>
</svg>