<svg width="1531" height="371" xmlns="http://www.w3.org/2000/svg"><defs><linearGradient x1="100%" y1="50%" x2="0%" y2="50%" id="a"><stop offset="0%"/><stop stop-color="#FFF" stop-opacity="0" offset="100%"/></linearGradient><filter x="-2.2%" y="-1.6%" width="104.7%" height="104.7%" filterUnits="objectBoundingBox" id="b"><feOffset dy="2" in="SourceAlpha" result="shadowOffsetOuter1"/><feGaussianBlur stdDeviation="2" in="shadowOffsetOuter1" result="shadowBlurOuter1"/><feColorMatrix values="0 0 0 0 0 0 0 0 0 0 0 0 0 0 0 0 0 0 0.5 0" in="shadowBlurOuter1" result="shadowMatrixOuter1"/><feMerge><feMergeNode in="shadowMatrixOuter1"/><feMergeNode in="SourceGraphic"/></feMerge></filter></defs><g fill-rule="nonzero" fill="none"><path d="M570.618 267c23.573 0 42.206-7.831 55.003-15.663 8.307-4.923 12.123-11.86 12.123-21.928V191.37c0-9.621-7.633-17.23-17.286-17.23h-39.513c-8.307 0-15.042 6.714-15.042 14.993s6.735 14.768 15.042 14.768h23.348v22.375c-8.755 6.265-19.98 9.398-32.553 9.398-27.838 0-47.595-21.033-47.595-49.674v-.448c0-26.627 19.981-48.779 45.126-48.779 14.817 0 24.92 4.028 34.349 10.74 2.47 1.79 5.612 3.58 10.551 3.58 9.43 0 17.063-7.607 17.063-17.005 0-6.712-3.817-11.411-7.184-13.873C609.906 110.37 594.19 105 570.393 105 522.798 105 488 141.472 488 186v.448C488 232.765 521.676 267 570.618 267zm165.908-.224c42.207 0 68.923-23.27 68.923-70.707v-72.497c0-9.622-7.633-17.23-17.287-17.23-9.653 0-17.286 7.608-17.286 17.23v73.84c0 24.837-12.797 37.59-33.9 37.59-21.104 0-33.9-13.2-33.9-38.71v-72.72c0-9.622-7.634-17.23-17.288-17.23-9.653 0-17.286 7.608-17.286 17.23v73.616c0 46.094 25.818 69.588 68.024 69.588zm104.17-17.9c0 9.397 7.41 16.781 16.838 16.781 9.43 0 17.063-7.384 17.063-16.781v-77.868l29.859 45.87c3.592 5.37 8.082 8.727 14.368 8.727s10.776-3.356 14.368-8.727l30.308-46.541v78.091c0 9.398 7.634 17.23 17.063 17.23 9.653 0 17.287-7.608 17.287-17.23V124.02c0-9.621-7.634-17.229-17.287-17.229h-3.817c-6.96 0-11.899 2.909-15.49 8.727l-41.983 68.022-41.758-67.799c-3.143-5.146-8.306-8.95-15.715-8.95h-3.817c-9.653 0-17.287 7.608-17.287 17.23v124.856zm320.368 15.439h88.23c8.532 0 15.491-6.713 15.491-15.216 0-8.502-6.96-15.439-15.49-15.439h-71.168v-32.892h59.942c8.531 0 15.491-6.713 15.491-15.216 0-8.502-6.96-15.439-15.49-15.439h-59.943V138.34h70.045c8.531 0 15.49-6.713 15.49-15.216 0-8.502-6.959-15.439-15.49-15.439h-87.108c-9.653 0-17.287 7.608-17.287 17.23v122.17c0 9.622 7.634 17.23 17.287 17.23zm183.196-15.887c0 9.622 7.633 17.23 17.287 17.23 9.653 0 17.287-7.608 17.287-17.23v-108.97h33.226c8.756 0 15.94-7.16 15.94-15.886 0-8.727-7.184-15.887-15.94-15.887h-101.027c-8.755 0-15.94 7.16-15.94 15.887 0 8.726 7.185 15.887 15.94 15.887h33.227v108.97z" fill="#000"/><path d="M525 152.203V159h88.446c9.223 0 16.554-6.864 16.554-15.5s-7.331-15.5-16.554-15.5H525v24.203z" fill="url(#a)" transform="translate(488 105)"/><g filter="url(#b)" transform="translate(103 27)"><path d="M122.885 213.309l-54.836 76.205c24.357 16.527 52.203 27.071 83.753 28.486v-94.475c-10.978-1.2-20.042-4.666-28.917-10.216z" fill="#104A70"/><path d="M153.111 93.529L152.477 0C121.31 1.483 93.615 11.398 69.358 27.864l54.724 75.519c8.683-5.358 18.235-8.785 29.03-9.854z" fill="#ED7324"/><path d="M247.333 26.072C222.583 9.577 193.534.924 161.57 0l-.607 93.121c10.982.775 21.395 3.596 30.27 8.953l56.1-76.002z" fill="#FBBC05"/><path d="M98.073 181.901L9.16 211.112c10.39 28.843 28.116 53.128 51.898 71.555l55.411-75.635c-7.977-6.745-14.351-15.337-18.396-25.13z" fill="#0F1E2A"/><path d="M116.47 109.266L61.23 34.025c-16.118 12.44-29.265 27.58-39.67 45.135-5.07 8.553-8.98 17.303-12.4 26.778l89.206 28.852c4.044-9.836 10.083-18.736 18.103-25.524z" fill="#DF5216"/><path d="M94.613 160.38c-.128-5.522.474-11.387 1.681-16.39L6.482 115.16C2.32 129.46 0 144.023 0 159.654c0 15.723 1.805 30.127 6.004 44.494L96.84 175.74c-1.246-5.08-2.098-9.838-2.227-15.36z" fill="#D53C0D"/><path d="M198.914 209.753l55.558 75.531c23.8-18.47 42.705-43.042 53.059-71.91l-89.314-28.855c-4.189 9.74-11.081 18.585-19.303 25.234z" fill="#378A9B"/><path d="M162.272 223.064v93.627c31.857-.96 61.726-10.145 86.37-26.542l-56.348-75.532c-8.943 5.267-19.074 7.79-30.022 8.447z" fill="#1D77B2"/><path d="M311.258 113.852l-107.11 32.826c1.198 5.188 1.677 7.745 1.661 12.32-.015 4.574-.578 6.998-1.66 12.203l107.489 32.947C315.844 189.882 318 174.587 318 159c.008-15.67-2.351-30.568-6.742-45.148z" fill="#539E82"/></g></g></svg>