<svg enable-background="new 0 0 444 135" viewBox="0 0 444 135" width="190" height="58" xmlns="http://www.w3.org/2000/svg"><g fill="#3e3e3f"><path d="m130.66 97.26v-82.77c0-4.83 3.91-8.74 8.74-8.74 4.83 0 8.74 3.91 8.74 8.74v20.18c4.16-1.61 9-2.42 14.53-2.42 10.12 0 18.03 2.64 23.73 7.92s8.56 12.68 8.56 22.2v34.88c0 4.83-3.91 8.74-8.74 8.74-4.83 0-8.74-3.91-8.74-8.74v-36.37c0-1.94-.16-3.56-.5-4.87-.32-1.3-1.05-2.66-2.16-4.08s-2.92-2.49-5.45-3.2-5.73-1.07-9.6-1.07c-4.55 0-8.41.71-11.63 2.13v47.45c0 4.83-3.91 8.74-8.74 8.74-4.83.01-8.74-3.9-8.74-8.72z"/><path d="m204.16 69.34c0-11.65 2.6-20.96 7.78-27.92s13.42-10.44 24.68-10.44c10.66 0 18.72 3.38 24.19 10.16 5.47 6.77 8.2 15.11 8.2 25.01 0 4.07-.09 7.08-.28 9.02h-47.1c.48 6.3 2.35 10.51 5.65 12.65 3.29 2.13 7.56 3.2 12.82 3.2 3.39 0 6.93-.18 10.25-.93 2.98-.67 4.08-2.23 6.94 0 .66.51 1.32 1.05 1.79 1.74 4.6 6.74-4.13 12.04-9.63 13.09-3.81.73-7.8 1.09-11.97 1.09-3.22 0-6.25-.26-9.09-.78s-5.78-1.61-8.83-3.27-5.67-3.77-7.87-6.32c-2.2-2.56-4-6.1-5.41-10.62s-2.12-9.76-2.12-15.68zm17.47-6.25h29.27c-.47-4.98-1.95-9.18-4.43-12.61-2.49-3.43-5.91-5.15-10.27-5.15-4.35 0-7.75 1.4-10.19 4.19-2.45 2.79-3.9 7.32-4.38 13.57z"/><path d="m353.93 97.26v-82.77c0-4.83 3.91-8.74 8.74-8.74 4.83 0 8.74 3.91 8.74 8.74v82.76c0 4.83-3.91 8.74-8.74 8.74-4.83 0-8.74-3.91-8.74-8.73z"/><path d="m439.8 34.06c-4.09-1.48-8.69.88-10.28 5.28l-5.54 15.28-8.64 23.83-15-39.15c-1.13-3.52-4.41-5.9-8.1-5.9-5.96 0-10.07 5.96-7.96 11.54l21.69 57.14c-2.77 7.55-5.72 12.4-8.79 15.09 0 0-1.32 1.04-3.91 1.04-1.94 0-4.5-.27-5.96.82-2.11 1.58-3.55 3.96-3.58 6.79v.18c.04 4.09 2.94 7.35 6.77 8.25 1.42.2 2.84.39 4.24.39 4.88 0 9.59-1.84 14.14-5.51 1.33-1.07 2.62-2.53 3.9-4.19 1.6-2.09 3.14-4.76 4.64-7.78 1.18-2.36 2.34-4.88 3.46-7.8.21-.55.43-1 .64-1.57l6.04-16.86 16.75-46.21c.12-.34.09-.68.17-1.02.97-4.11-.91-8.27-4.68-9.64z"/><path d="m287.04 131.27c-4.83 0-8.74-3.91-8.74-8.74v-67.34c0-6.68 2.5-12.42 7.49-17.23 5-4.81 12.69-7.21 23.06-7.21 2.41 0 4.79.19 7.18.57 2.38.38 5.19 1.38 8.41 2.98 3.24 1.61 6.01 3.69 8.31 6.25 2.31 2.56 4.32 6.31 6.02 11.26 1.69 4.95 2.55 10.67 2.55 17.16 0 11.88-2.9 21.01-8.71 27.39-5.79 6.37-14.1 9.55-24.89 9.55-4.08 0-8.06-.43-11.93-1.29v17.92c-.01 4.82-3.92 8.73-8.75 8.73zm8.74-39.85c4.02.57 7.6.85 10.73.85 5.63 0 9.94-1.64 12.89-4.94 2.96-3.29 4.45-9.1 4.45-17.44 0-8.52-1.12-14.68-3.34-18.47-2.23-3.79-6.11-5.68-11.65-5.68-8.72 0-13.07 2.6-13.07 7.81v37.87z"/></g><path d="m76.25 102.86c-1.14.76-2.31 1.47-3.52 2.12-.76.36-1.53.69-2.32 1.01-4.02-6.44-11.16-10.72-19.31-10.72s-15.29 4.28-19.31 10.72c-.78-.32-1.56-.66-2.32-1.02-1.23-.58-2.43-1.2-3.61-1.86-15.44-8.79-25.86-25.4-25.86-44.45 0-10.42 3.12-20.1 8.47-28.18l.05.09c3.17 5.65 8.68 9.8 15.21 11.16-1.9-4.52-2.95-9.48-2.95-14.69 0-10.55 4.32-20.1 11.28-26.97l.06-.07c5.44 10.34 15.83 16.21 26.57 20.09 14.72 5.32 27.14 12.14 33.37 24.94l-.02.04c2.92 6 4.56 12.74 4.56 19.87 0 15.83-8.09 29.77-20.35 37.92" fill="#00bcce"/></svg>
