<svg enable-background="new 0 0 100 40" height="68" viewBox="0 0 100 40" width="102" xmlns="http://www.w3.org/2000/svg"><g clip-rule="evenodd" fill="#55aa29" fill-rule="evenodd"><path d="m18.26 28.96h3.85v-8.7c0-.76-.12-1.45-.35-2.07s-.57-1.15-1.02-1.6c-.45-.44-1.01-.78-1.67-1.03-.66-.24-1.41-.36-2.26-.36-1.46 0-2.62.41-3.46 1.23v-5.43l-3.88 1.35v16.61h3.88v-9.19c.16-.44.45-.79.89-1.05.43-.27.94-.4 1.52-.4.88 0 1.52.21 1.91.64s.59.94.59 1.54z"/><path d="m33.24 28.45c.84-.36 1.56-.86 2.15-1.49s1.05-1.37 1.38-2.23.5-1.77.5-2.76c0-.98-.17-1.9-.5-2.74-.33-.85-.79-1.58-1.38-2.21s-1.31-1.12-2.15-1.49c-.84-.36-1.77-.54-2.8-.54-1.02 0-1.96.18-2.8.54s-1.56.86-2.15 1.49-1.05 1.36-1.38 2.21-.5 1.76-.5 2.74.16 1.9.5 2.76c.33.85.79 1.6 1.38 2.23s1.31 1.12 2.15 1.49c.84.36 1.77.54 2.8.54 1.02.01 1.95-.17 2.8-.54m-5.03-3.72c-.52-.7-.78-1.62-.78-2.74 0-1.13.26-2.04.78-2.73s1.26-1.04 2.23-1.04c.96 0 1.7.35 2.22 1.04s.78 1.6.78 2.73-.26 2.04-.78 2.74-1.26 1.05-2.22 1.05-1.71-.35-2.23-1.05"/><path d="m46.62 25.21c-.28.19-.6.35-.95.46s-.7.17-1.04.17c-.46 0-.82-.09-1.08-.27s-.39-.49-.39-.94v-6.36h2.89v-3.07h-2.89v-3.85l-3.82 1.33v2.51h-1.71v3.07h1.71v6.77c0 1.18.36 2.12 1.07 2.84s1.74 1.08 3.08 1.08c.7 0 1.25-.04 1.64-.12s.69-.17.89-.27z"/><path d="m46.71 27.73c.84.47 1.72.79 2.65.97.92.18 1.77.27 2.56.27.92 0 1.79-.08 2.6-.24s1.51-.41 2.11-.76c.59-.35 1.06-.8 1.4-1.36s.51-1.26.51-2.08c0-1.06-.3-1.9-.89-2.5s-1.4-1.07-2.42-1.39c-.4-.11-.86-.21-1.37-.29s-.99-.18-1.44-.29-.84-.25-1.16-.4-.48-.36-.48-.62c0-.24.14-.44.42-.59s.82-.23 1.62-.23c.68 0 1.32.08 1.92.24s1.25.43 1.95.8l1.11-3.02c-1.34-.79-2.91-1.18-4.69-1.18-.9 0-1.74.08-2.51.23s-1.44.4-1.99.74-.99.77-1.31 1.29-.48 1.15-.48 1.87c0 .64.14 1.18.42 1.62.28.43.68.8 1.2 1.1s1.15.55 1.89.76 1.56.41 2.47.6c.66.15 1.14.32 1.45.51.3.19.45.44.45.75 0 .39-.21.7-.63.95s-1.11.38-2.07.38c-.84 0-1.61-.1-2.31-.29s-1.25-.4-1.66-.63z"/><path d="m67.37 25.21c-.28.19-.6.35-.95.46s-.7.17-1.04.17c-.46 0-.82-.09-1.08-.27s-.39-.49-.39-.94v-6.36h2.89v-3.07h-2.89v-3.85l-3.82 1.33v2.51h-1.71v3.07h1.71v6.77c0 1.18.36 2.12 1.07 2.84s1.74 1.08 3.08 1.08c.7 0 1.25-.04 1.64-.12s.69-.17.89-.27z"/><path d="m76.14 24.87c-.6.58-1.4.87-2.4.87-.68 0-1.27-.16-1.76-.47s-.74-.74-.74-1.27c0-1.23.94-1.84 2.83-1.84.46 0 .88.08 1.26.23s.65.34.81.57zm.03 3.89h3.85v-8.63c0-.77-.14-1.48-.43-2.12s-.7-1.18-1.23-1.62-1.18-.78-1.94-1.03c-.78-.24-1.62-.36-2.54-.36-.98 0-1.89.15-2.74.45-.84.3-1.55.71-2.14 1.22l1.74 2.39c.42-.29.85-.52 1.29-.69s.97-.26 1.59-.26c.76 0 1.34.13 1.74.4s.67.72.81 1.37c-.4-.23-.85-.37-1.34-.45-.49-.07-.98-.11-1.46-.11-1.81 0-3.26.39-4.36 1.18s-1.65 1.97-1.65 3.56c0 .76.14 1.44.42 2.04s.67 1.12 1.17 1.55 1.08.76 1.73.99 1.36.35 2.12.35c.7 0 1.35-.1 1.94-.29s1.06-.43 1.4-.7v.76z"/><path d="m90.52 15.86c-.28-.23-.61-.39-.98-.5-.37-.1-.76-.16-1.16-.16-1.04 0-1.87.31-2.5.94v-.7h-3.88v13.51h3.88v-9.15c.08-.45.28-.81.59-1.08s.76-.4 1.34-.4c.36 0 .66.04.89.12s.44.19.62.31z"/></g></svg>