<svg xmlns="http://www.w3.org/2000/svg" fill="none" viewBox="0 0 430 124" width="430" height="124"><path fill="#38719a" fill-rule="evenodd" d="M353.156 87.8589c.85 0 2.519.28 5.013.8416 2.265.39 3.908.786 4.928 1.176.395.1114.593.2815.593.5044-.057.0557-.114.28-.169.6745-.737 4.2054-1.106 8.6622-1.106 13.3736 0 1.792.115 4.455.339 7.989.229 3.532.343 6.167.343 7.906 0 .896-.425 1.4-1.275 1.513-2.947.226-6.261.336-9.94.336-.51-.054-.848-.724-1.022-2.016-.169-1.346-.339-2.046-.508-2.102-.17.112-.399.333-.682.67-2.66 2.581-5.496 3.868-8.495 3.868-4.586 0-8.382-1.764-11.383-5.297-2.837-3.362-4.222-7.374-4.165-12.027 0-5.3286 1.473-9.6153 4.415-12.869 3.004-3.4209 7.167-5.1299 12.495-5.1299 3.681 0 6.568 1.2618 8.666 3.7853.11.1671.224.2515.336.2515.169 0 .37-.5602.593-1.6819.289-1.1789.625-1.7661 1.024-1.7661Zm15.803 1.429c1.304-.1114 3.199-.3343 5.693-.6745 3.684-.786 5.579-1.1489 5.694-1.0917.45-.0572.734.6731.851 2.1863.112 1.2918.309 2.0191.593 2.1877-.114-.1144.851-.7287 2.887-1.8505 2.267-1.2331 4.449-1.8504 6.542-1.8504 1.304 0 1.955.3086 1.955.9245 0 .6173-.057 1.5418-.17 2.7764-.171 1.2889-.257 2.2405-.257 2.8578v2.6093c.055 1.4033.086 2.3263.086 2.7752 0 .897-.508 1.346-1.529 1.346h-1.866c-.908-.113-1.588-.167-2.041-.167-1.926 0-3.258.31-3.995.926-.68.558-.992 1.791-.932 3.701-.06.95-.06 2.464 0 4.539 0 2.019.026 3.533.083 4.541 0 .618.057 1.599.169 2.944.057 1.348.086 2.356.086 3.031 0 .504-.369.813-1.104.924-1.132.058-2.861.083-5.182.083-2.266 0-4.052-.054-5.353-.168-.793-.113-1.16-.478-1.104-1.094-.056-1.907-.056-4.681 0-8.326v-8.409c-.056-5.4401-.569-9.9541-1.53-13.5452-.055-.1671-.084-.3056-.084-.4186 0-.3929.17-.6459.508-.7573Zm55.648 2.0184c3.116 3.2508 4.675 7.1219 4.675 11.6077 0 2.354-.766 3.699-2.296 4.038-.224.054-2.635.308-7.221.756-2.775.337-6.91.7-12.405 1.093.282 1.513 1.245 2.665 2.89 3.448 1.413.673 3.001 1.009 4.756 1.009 2.04 0 4.108-.561 6.203-1.682.849-.616 1.755-1.178 2.718-1.682.453.224 1.273 1.402 2.467 3.534 1.133 2.13 1.698 3.476 1.698 4.036 0 .169-.167.449-.511.842-2.831 3.026-7.277 4.541-13.34 4.541-5.608 0-10.108-1.627-13.508-4.88-3.512-3.25-5.238-7.597-5.184-13.036-.054-5.3811 1.502-9.7566 4.674-13.1203 3.23-3.5338 7.504-5.2984 12.833-5.2984 4.529-.0573 8.379 1.5433 11.551 4.794Zm-7.643 9.5047c0-1.4591-.508-2.6938-1.53-3.7011-1.019-1.1232-2.239-1.6818-3.653-1.6818-1.528-.0572-2.777.5315-3.74 1.7647-.906 1.1232-1.357 2.4678-1.357 4.0382 0 .616.338.953 1.019 1.01 1.699-.057 4.388-.367 8.071-.926.794-.113 1.19-.281 1.19-.504Zm-67.719-1.0079c-1.305-1.3476-2.948-2.0206-4.928-2.0206-2.038 0-3.68.6459-4.928 1.9348-1.244 1.2327-1.871 2.8607-1.871 4.8797.059 1.906.739 3.531 2.043 4.877 1.301 1.345 2.889 2.019 4.756 2.019 1.98 0 3.598-.646 4.842-1.936 1.305-1.288 1.957-2.944 1.957-4.96 0-1.963-.625-3.562-1.871-4.7939ZM62.3277 89.625c.4515-.2258 1.4159-.393 2.8871-.5059 1.6985-.1656 2.7182-.28 3.0607-.3358.281-.0557 1.2439-.3056 2.8871-.7558 1.0766-.3358 1.9826-.5059 2.7182-.5059.3978 0 .6235.8131.6804 2.4392.0552 1.6276.1704 2.4392.3394 2.4392.2272-.113.5098-.2801.8507-.5044 2.0395-1.6247 3.6811-2.7193 4.9266-3.2824 1.8137-.8959 3.7656-1.3431 5.8649-1.3431 2.15 0 4.0773.4773 5.7758 1.4304 1.8705 1.0645 3.1145 2.5777 3.7395 4.5396 1.1871-1.6818 2.8871-3.1107 5.0959-4.2866 2.154-1.1263 4.278-1.6834 6.374-1.6834 3.056 0 5.578.7288 7.559 2.1863 2.212 1.5704 3.317 3.8394 3.317 6.8132 0 1.1759-.032 3.0279-.087 5.5494-.112 2.47-.171 4.319-.171 5.552 0 1.459.059 3.645.171 6.563.055 2.915.087 5.1.087 6.559 0 .84-.344 1.319-1.021 1.43-.736.057-2.492.083-5.269.083-2.887 0-4.672-.054-5.352-.169-.679-.113-1.02-.671-1.02-1.68 0-1.064.031-2.663.086-4.794.056-2.132.085-3.701.085-4.708 0-4.151-.029-7.095-.085-8.836-.172-2.7474-1.5-4.0919-3.993-4.0362-1.076 0-2.1542.4758-3.2276 1.4304-1.1349.8428-1.7569 1.8518-1.8705 3.0298-.1137.951-.1413 3.783-.086 8.493 0 1.065.0307 2.721.086 4.961v5.047c0 .729-.3118 1.093-.9353 1.093h-10.621c-.6788 0-1.0182-.477-1.0182-1.428 0-1.121.0277-2.775.0845-4.965.0568-2.132.0845-3.725.0845-4.789 0-.899-.0277-2.217-.0845-3.956v-3.871c0-3.3634-1.2746-5.0452-3.8224-5.0452-1.0765-.0557-2.2099.3357-3.4001 1.1789-1.3022.8417-1.9534 1.7363-1.9534 2.6903-.0553 2.132-.0553 5.3 0 9.506v9.335c0 .563-.0292.956-.086 1.177-.1674.112-.5651.198-1.1871.253-1.0212.057-2.6629.083-4.9296.083-1.4728 0-3.1421-.054-5.0126-.169-.5651-.055-.8769-.138-.9353-.251-.1673-.167-.2549-.53-.2549-1.093v-16.57c0-3.867-.2549-8.1865-.7617-12.9549-.0568-.2756-.086-.4743-.086-.5872-.0584-.393.1121-.6445.5099-.7559Zm71.5393-1.5975c1.132-.3358 2.069-.5059 2.804-.5059.395 0 .622.8131.679 2.4392 0 1.6276.084 2.4392.253 2.4392.228-.113.512-.2801.85-.5044 2.099-1.6247 3.767-2.7193 5.015-3.2824 1.756-.8959 3.709-1.3431 5.862-1.3431 2.096 0 4.022.4773 5.777 1.4304 1.869 1.0645 3.115 2.5777 3.738 4.5396 1.192-1.6818 2.891-3.1107 5.097-4.2866 2.155-1.1263 4.279-1.6834 6.372-1.6834 3.061 0 5.553.7288 7.477 2.1863 2.212 1.5704 3.316 3.8394 3.316 6.8132 0 1.1759-.029 3.0279-.086 5.5494-.055 2.47-.086 4.319-.086 5.552 0 1.459.031 3.645.086 6.563.057 2.915.086 5.1.086 6.559 0 .84-.341 1.319-1.021 1.43-.736.057-2.463.083-5.182.083-2.89 0-4.671-.054-5.353-.169-.736-.113-1.075-.671-1.018-1.68 0-1.064.027-2.663.083-4.794.058-2.132.113-3.701.17-4.708-.057-4.151-.141-7.095-.253-8.836-.114-2.7474-1.418-4.0919-3.91-4.0362-1.134 0-2.265.4758-3.397 1.4304-1.078.8428-1.644 1.8518-1.702 3.0298-.112.951-.169 3.783-.169 8.493 0 1.065.057 2.721.169 4.961v5.047c0 .729-.312 1.093-.932 1.093h-10.706c-.625 0-.907-.477-.85-1.428-.057-1.121-.057-2.775 0-4.965.057-2.132.084-3.725.084-4.789-.055-.899-.084-2.217-.084-3.956-.057-1.74-.057-3.028 0-3.871 0-3.3634-1.273-5.0452-3.823-5.0452-1.075-.0557-2.211.3357-3.398 1.1789-1.304.8417-1.955 1.7363-1.955 2.6903v18.841c0 .563-.057.956-.171 1.177-.169.112-.51.198-1.018.253-1.133.057-2.832.083-5.098.083-1.473 0-3.142-.054-5.015-.169-.565-.055-.906-.138-1.019-.251-.112-.167-.14-.53-.083-1.093v-16.57c0-3.867-.255-8.1865-.765-12.9549-.057-.2756-.086-.4743-.086-.5872-.055-.393.086-.6445.425-.7559.509-.2258 1.502-.393 2.974-.5059 1.7-.1656 2.719-.28 3.059-.3358.227-.0557 1.161-.3056 2.804-.7558Zm82.751 3.8684c3.285 3.2537 4.928 7.5148 4.928 12.7851 0 5.325-1.614 9.615-4.845 12.867-3.338 3.308-7.674 4.991-12.997 5.046-5.155 0-9.403-1.654-12.744-4.96-3.342-3.254-4.987-7.404-4.929-12.449 0-5.437 1.587-9.8125 4.758-13.122 3.174-3.3622 7.479-5.0455 12.915-5.0455 5.323-.0557 9.629 1.5704 12.914 4.8784Zm15.634-19.7642c2.495-.2258 4.533-.3387 6.118-.3387.396 0 .625.3628.682 1.0916-.057.8989-.117 2.1335-.171 3.7039-.17 1.7948-.256 2.9692-.256 3.5324-.171 2.2419-.255 5.3827-.255 9.418 0 .6745.201 1.0404.596 1.0946.226 0 .451-.0843.679-.253 2.037-2.2419 4.786-3.3637 8.24-3.3637 5.099 0 9.089 1.7391 11.982 5.2142 2.661 3.1408 3.994 7.3477 3.994 12.615 0 4.825-1.388 8.889-4.163 12.199-3.061 3.475-6.997 5.215-11.813 5.215-3.512 0-6.341-.983-8.495-2.945-.171-.223-.312-.337-.424-.337-.226 0-.426.45-.596 1.346-.227.896-.481 1.375-.763 1.43-.398.113-3.741.198-10.025.252-1.473-.054-2.212-.365-2.212-.925 0-.054.032-.226.088-.504.451-3.703.677-10.712.677-21.0269 0-9.9254-.339-18.5334-1.02-25.8223l-.084-.4216c0-.39.371-.5887 1.104-.5887.508-.0543 2.549-.2515 6.117-.5858Zm36.704 16.5682c.68-.0572 1.727 0 3.143.1672 1.304.1114 2.293.1972 2.973.2514.625 0 1.618-.0542 2.975-.1656 1.416-.1144 2.465-.1702 3.144-.1702.566 0 .846.2259.846.6731v.673c-.562 4.4854-.846 9.7011-.846 15.6442 0 1.739.027 4.318.086 7.737.055 3.308.11 5.805.169 7.488 0 .45-.314.726-.934.839-.794.114-2.575.168-5.354.168-2.833 0-4.644-.054-5.439-.168-.507-.113-.819-.252-.932-.419-.057-.113-.086-.479-.086-1.094 0-1.571.029-3.953.086-7.149.057-3.31.113-5.776.169-7.402-.056-6.5604-.338-11.7761-.85-15.6442-.056-.393-.087-.6188-.087-.673 0-.5029.315-.7559.937-.7559Zm18.436-14.973c.059-.5617.4-.8432 1.02-.8432h12.491c.621.0572.907.3373.851.8432v.5872c-.682 9.9841-1.023 18.845-1.023 26.5799 0 6.28.031 11.13.086 14.549 0 .562.028 1.486.086 2.777.057 1.179.114 2.103.169 2.778-.055.45-.368.725-.933.838-1.077.169-2.946.253-5.609.253-2.89 0-4.731-.084-5.522-.253-.512-.113-.793-.418-.848-.926v-1.511c0-2.075.025-5.16.081-9.251.059-4.15.114-7.235.171-9.254V87.5204c-.057-5.1028-.341-9.5039-.851-13.2063-.055-.2786-.11-.4758-.169-.5872Zm26.765 15.3916c.68 0 1.7-.0542 3.061-.1656 1.357-.1144 2.378-.1702 3.056-.1702.568 0 .85.2259.85.6731 0 .0542-.026.28-.084.673-.51 4.4854-.766 9.7011-.766 15.6442 0 1.739.056 4.318.173 7.737.055 3.308.083 5.805.083 7.488 0 .45-.312.726-.934.839-.79.114-2.577.168-5.352.168-2.836 0-4.647-.054-5.441-.168-.506-.113-.817-.252-.932-.419-.054-.113-.086-.479-.086-1.094 0-1.571.057-3.953.171-7.149.057-3.31.086-5.776.086-7.402-.056-6.5604-.341-11.7761-.851-15.6442-.055-.393-.055-.6188 0-.673-.055-.5029.227-.7559.851-.7559.678-.0572 1.7 0 3.059.1672 1.356.1114 2.376.1972 3.056.2514ZM244.74 111.411c1.983 0 3.571-.674 4.761-2.02 1.074-1.291 1.613-2.944 1.613-4.962 0-1.906-.595-3.533-1.785-4.8779-1.245-1.3491-2.802-1.9936-4.675-1.9363-1.979-.0573-3.536.5872-4.67 1.9363-1.135 1.2889-1.669 2.9449-1.615 4.9609-.054 2.019.48 3.673 1.615 4.963 1.134 1.29 2.72 1.936 4.756 1.936Zm-36.447-11.5248c-1.19-1.4575-2.69-2.1591-4.501-2.1034-1.871-.0557-3.4.6459-4.59 2.1034-1.132 1.3458-1.699 2.9418-1.699 4.7938 0 1.906.567 3.534 1.699 4.877 1.19 1.403 2.719 2.132 4.59 2.189 1.811-.057 3.311-.786 4.501-2.189 1.135-1.343 1.728-2.971 1.785-4.877-.057-1.852-.65-3.448-1.785-4.7938Zm72.048-30.3638c1.529 1.5147 2.296 3.3923 2.296 5.6357 0 2.1306-.767 3.9524-2.296 5.4671-1.527 1.569-3.397 2.3534-5.606 2.3534-2.21 0-4.108-.7844-5.69-2.3534-1.532-1.5147-2.297-3.3365-2.297-5.4671 0-2.2434.765-4.121 2.297-5.6357 1.582-1.5719 3.48-2.3564 5.69-2.3564 2.209 0 4.079.7845 5.606 2.3564Zm39.932 0c1.531 1.5147 2.301 3.3923 2.301 5.6357 0 2.1306-.77 3.9524-2.301 5.4671-1.526 1.569-3.397 2.3534-5.602 2.3534-2.213 0-4.082-.7844-5.613-2.3534-1.585-1.5147-2.348-3.3365-2.291-5.4671-.057-2.2434.706-4.121 2.291-5.6357 1.531-1.5719 3.4-2.3564 5.613-2.3564 2.205 0 4.076.7845 5.602 2.3564Z" clip-rule="evenodd"/><mask id="a" width="69" height="81" x="0" y="43" mask-type="alpha" maskUnits="userSpaceOnUse"><path fill="#38719a" fill-rule="evenodd" d="M0 43.877h68.4249v79.259H0V43.877Z" clip-rule="evenodd"/></mask><g mask="url(#a)"><path fill="#38719a" fill-rule="evenodd" d="M68.3769 80.4679c0-.2831-.1382-.5556-.3686-.783-10.8943-10.0489-21.288-20.8747-31.092-32.4623-.1137-.2289-.9875-1.3461-2.8488-3.3456-1.8582 1.9995-2.5738 3.1107-2.6936 3.341C21.5729 58.8057 11.2637 69.621.364727 79.6668c-.230357.2259-.327107.4849-.327107.7709-.056821.2304-.046071.4578.01075.6851 0 .0587.033786.113.090607.1702.058357.2303.233429.3869.523679.6128.228821.1129.492964.0948.778604.0948h8.47715c.05682 0 .11359 1.0179.17049 1.5298 1.5004 12.333 3.0008 24.7006 4.4981 37.0286 0 .342.1474 1.303.4331 1.59.2334.226.5497.988.9536.988h10.7946v-20.989c0-1.09-1.0766-.747-1.0766-.747-1.5403 0-2.9055-.784-2.9055-2.3064 0-1.5283 1.2162-1.9845 2.7566-1.9845h17.6576c1.5403 0 2.5662.4562 2.5662 1.9845 0 1.5224-1.5695 2.0404-3.1083 2.0404 0 0-1.4727-.063-1.4727 1.013v20.989h11.2951c.4039 0 .7234-.793.9552-1.021.2857-.283.43-1.051.43-1.395 1.5004-12.327 2.9993-24.7462 4.4982-37.0777.0568-.5119.1167-1.6427.1735-1.6427h8.4756c.2872 0 .5467.0181.7755-.0963.2903-.2244.4607-.3192.5191-.5466.0553-.0587.0783-.146.0783-.2033.0568-.2288.0492-.4562-.0092-.6865Zm-37.0422 9.2604c-1.8398 0-3.3294-1.4786-3.3294-3.296 0-1.8203 1.4896-3.2974 3.3294-3.2974s3.3294 1.4771 3.3294 3.2974c0 1.8174-1.4896 3.296-3.3294 3.296Zm6.4709 4.2973c-1.1779 0-2.1377-.944-2.1377-2.1109 0-1.1699.9598-2.114 2.1377-2.114 1.1794 0 2.1362.9441 2.1362 2.114 0 1.1669-.9568 2.1109-2.1362 2.1109ZM39.61 78.3759c-1.5603 1.5448-3.4631 2.3127-5.7098 2.3127-2.2483 0-4.1833-.7679-5.7989-2.3127-1.551-1.5991-2.3327-3.5098-2.3327-5.7336 0-2.2269.7817-4.1135 2.3327-5.6538 1.6156-1.5961 3.5506-2.3986 5.7989-2.3986 2.2467 0 4.1495.8025 5.7098 2.3986 1.614 1.5403 2.4218 3.4269 2.4218 5.6538 0 2.2238-.8078 4.1345-2.4218 5.7336Z" clip-rule="evenodd"/></g><path fill="#C12400" fill-rule="evenodd" d="M114.555 0C92.7982 0 75.4231 17.4628 75.1605 38.9955c-.1796 14.7812 9.3556 23.3274 9.7641 25.6853 1.6601 9.5339-10.6609 9.8396-10.6609 9.8396s8.0932 5.1629 18.6297.4938c4.1987-1.8595 11.4086 2.8021 21.6616 2.9798 21.753.3809 39.392-17.4598 39.392-38.9985C153.947 17.4598 136.311 0 114.555 0Z" clip-rule="evenodd"/><path fill="#FEFEFE" fill-rule="evenodd" d="M86.5625 52.2457V26.6914h3.2926v22.2945h7.9504v3.2598h-11.243Zm16.6315.0352h-3.3971l5.9551-25.5543h2.626l6.024 25.5543h-3.433l-1.646-7.1429h-4.483l-1.646 7.1429Zm3.888-16.6793-1.47 6.2772h2.941l-1.471-6.2772Zm19.079 3.8856c.141.1385.233.2544.281.3463 1.003 1.2015 1.505 2.9586 1.505 5.2698 0 2.3353-.502 4.0804-1.505 5.2368-1.051 1.2933-2.662 1.9408-4.833 1.9408h-4.974V26.7266h4.974c2.193 0 3.804.6489 4.833 1.9423 1.003 1.1563 1.505 2.8999 1.505 5.2352 0 2.3127-.502 4.0683-1.505 5.2699-.048.0707-.14.1731-.281.3132Zm-6.234-1.6292h1.681c.747 0 1.284-.0873 1.61-.2589.327-.1747.549-.3403.666-.5044.49-.5767.736-1.6397.736-3.1891 0-.9019-.077-1.611-.227-2.132-.153-.5195-.363-.9124-.632-1.1789-.268-.265-.589-.4337-.963-.5029-.374-.0693-.769-.1039-1.19-.1039h-1.681v7.8701Zm1.681 11.1628c.421 0 .816-.0347 1.19-.1039.374-.0693.695-.2364.963-.5029.269-.265.479-.658.632-1.179.15-.5194.227-1.2301.227-2.132 0-.9245-.083-1.6517-.246-2.1847-.164-.5315-.379-.929-.646-1.1955-.271-.265-.586-.4337-.946-.5044-.364-.0678-.753-.1024-1.174-.1024h-1.681v7.9048h1.681Zm15.125 3.2249c-2.054 0-3.608-.658-4.658-1.9754-1.004-1.2256-1.507-2.9813-1.507-5.2699v-1.6306h3.293v1.6306c0 1.5012.269 2.5762.806 3.2237.117.1626.327.3297.63.5029.304.1731.783.2589 1.436.2589.631 0 1.133-.1325 1.506-.399.373-.2635.659-.5887.859-.9696.196-.381.325-.798.385-1.2482.057-.4502.088-.8492.088-1.197 0-.6008-.094-1.1097-.28-1.5238-.189-.4171-.433-.7694-.735-1.0585-.306-.2891-.644-.5315-1.017-.7272-.375-.1973-.746-.3764-1.121-.539l-.63-.2756c-.374-.1626-.847-.3869-1.42-.6775-.572-.2891-1.137-.6987-1.699-1.2302-1.399-1.34-2.101-3.052-2.101-5.1313 0-1.0871.146-2.0809.438-2.9813.293-.9018.713-1.6712 1.262-2.3066s1.201-1.1323 1.961-1.4907c.758-.3583 1.593-.539 2.504-.539 1.261 0 2.26.2213 2.994.6595.736.4396 1.292.8914 1.665 1.3521 1.003 1.2723 1.507 3.0399 1.507 5.306v1.6291h-3.328V34.009c0-.9938-.1-1.7692-.298-2.3233-.2-.5556-.45-.9546-.753-1.1955-.304-.2439-.62-.3884-.946-.4351-.328-.0452-.608-.0693-.841-.0693-.678 0-1.203.1626-1.576.4864-.373.3222-.66.7106-.857 1.1623-.2.4487-.322.9004-.368 1.3506-.048.4517-.071.792-.071 1.0239 0 .6008.092 1.1142.281 1.5433.187.4276.431.7965.736 1.1082.302.3117.646.5782 1.033.798.384.2198.788.411 1.207.5721l.561.2425c.327.1385.775.3417 1.35.6067.571.2665 1.138.664 1.697 1.1956 1.448 1.3174 2.173 3.0173 2.173 5.0967 0 1.9649-.492 3.5955-1.473 4.8889-1.144 1.4575-2.709 2.1847-4.693 2.1847Z" clip-rule="evenodd"/></svg>