<svg height="86" width="400" xmlns="http://www.w3.org/2000/svg"><g fill="none" fill-rule="evenodd"><path d="M0 70.902V0h8.809v70.902zM44.145 21.57c13.914 0 23.323 10.086 23.323 24.766C67.468 64.21 54.956 72 43.344 72 30.33 72 20.12 62.413 20.12 47.135c0-16.078 10.711-25.565 24.025-25.565zm-.2 6.59c-10.31 0-14.816 9.588-14.816 18.675 0 10.585 6.007 18.574 14.615 18.574 8.409 0 14.715-7.889 14.715-18.774 0-8.188-4.104-18.474-14.514-18.474zm67.668 34.453l1.502 6.59C110.812 70.304 105.707 72 99.2 72c-14.614 0-24.124-9.886-24.124-24.666 0-14.88 10.21-25.764 26.026-25.764 5.206 0 9.81 1.298 12.213 2.596l-2.002 6.691c-2.102-1.098-5.406-2.297-10.21-2.297-11.112 0-17.118 8.289-17.118 18.275 0 11.184 7.207 18.075 16.817 18.075 5.005 0 8.308-1.198 10.811-2.297zm45.846-21.37v18.075c0 4.194.2 8.288.701 11.584h-7.908l-.7-6.092h-.3c-2.704 3.795-7.909 7.19-14.816 7.19-9.81 0-14.815-6.89-14.815-13.88 0-11.684 10.41-18.076 29.13-17.976v-.998c0-3.895-1.101-11.185-11.012-11.085-4.604 0-9.309 1.298-12.712 3.595l-2.002-5.892c4.004-2.496 9.91-4.194 16.016-4.194 14.815 0 18.418 10.086 18.418 19.673zm-8.508 13.381v-8.388c-9.61-.2-20.52 1.498-20.52 10.885 0 5.792 3.803 8.388 8.207 8.388 6.407 0 10.511-3.994 11.912-8.089.3-.998.4-1.997.4-2.796zm22.723 16.278V0h8.809v70.902zm32.433 0h-8.81V22.569h8.81zm11.311-2.297l2.102-6.591c2.703 1.598 7.308 3.395 11.712 3.395 6.307 0 9.31-3.096 9.31-7.19 0-4.194-2.503-6.391-8.91-8.788-8.808-3.195-12.913-7.889-12.913-13.68 0-7.79 6.407-14.181 16.717-14.181 4.905 0 9.21 1.298 11.812 2.996l-2.102 6.391c-1.902-1.198-5.405-2.896-9.91-2.896-5.205 0-8.008 2.996-8.008 6.59 0 3.995 2.803 5.793 9.11 8.29 8.308 3.095 12.712 7.29 12.712 14.48 0 8.587-6.707 14.579-18.018 14.579-5.305 0-10.21-1.398-13.614-3.395zm44.946-55.024l8.608-2.596v11.584h12.613v6.69h-12.613v26.064c0 5.992 1.702 9.387 6.607 9.387 2.403 0 3.804-.2 5.105-.599l.4 6.69c-1.701.6-4.404 1.199-7.807 1.199-4.104 0-7.408-1.398-9.51-3.695-2.402-2.696-3.403-6.99-3.403-12.682V29.259h-7.508v-6.69h7.508zm78.574 57.32V37.649c0-5.692-.1-10.586-.4-15.08h7.708l.4 9.587h.3c2.203-6.49 7.608-10.585 13.514-10.585.9 0 1.602.1 2.402.2v8.288c-.9-.2-1.801-.2-3.003-.2-6.206 0-10.61 4.594-11.812 11.185-.2 1.198-.3 2.696-.3 4.094v25.765zm29.43-2.296l2.102-6.591c2.703 1.598 7.307 3.395 11.712 3.395 6.306 0 9.31-3.096 9.31-7.19 0-4.194-2.503-6.391-8.91-8.788-8.809-3.195-12.913-7.889-12.913-13.68 0-7.79 6.407-14.181 16.717-14.181 4.905 0 9.21 1.298 11.812 2.996l-2.102 6.391c-1.902-1.198-5.405-2.896-9.91-2.896-5.205 0-8.008 2.996-8.008 6.59 0 3.995 2.803 5.793 9.11 8.29C395.595 46.035 400 50.23 400 57.42 400 66.007 393.293 72 381.982 72c-5.306 0-10.21-1.398-13.614-3.395z" fill="#0e5f69"/><g fill="#fca82a"><path d="M199.55 3c3.23 0 5.45 2.422 5.45 5.55 0 3.028-2.12 5.45-5.651 5.45-3.23 0-5.349-2.422-5.349-5.45 0-3.027 2.22-5.55 5.55-5.55z"/><path d="M0 86v-8.05h283.348a1 1 0 00.953-.7l17.126-53.947c1.512-4.765 6.577-7.393 11.312-5.871a9.028 9.028 0 015.834 5.87L335.7 77.25a1 1 0 00.953.7H400V86h-63.348c-3.916 0-7.382-2.547-8.574-6.3l-17.125-53.947a.999.999 0 00-1.905 0l-17.126 53.946C290.73 83.453 287.264 86 283.348 86z" fill-rule="nonzero"/></g></g></svg>