<svg xmlns="http://www.w3.org/2000/svg" height="322" width="713"><style>.st2{fill-rule:evenodd;clip-rule:evenodd;fill:#db0a5b}</style><g id="Layer_1"><path d="M-2884.5 805.8l41.9 24.2c4.5 2.6 7.3 7.5 7.3 12.7v77c0 5.2-2.8 10.1-7.3 12.7-15.5 8.9-51.2 29.6-66.7 38.5-4.5 2.6-10.1 2.6-14.7 0-15.5-8.9-51.2-29.6-66.7-38.5-4.5-2.6-7.3-7.5-7.3-12.7v-77c0-5.2 2.8-10.1 7.3-12.7 15.5-8.9 51.2-29.6 66.7-38.5 4.5-2.6 10.1-2.6 14.7 0l23.9 13.8.3.1c.2.1.4.3.6.4zm-56.1 137.9l16.6 9.6c4.5 2.6 10.1 2.6 14.7 0l16.1-9.3-.6-4.8-46.4-1.4c-.2 2-.3 4-.4 5.9zm57-5.2l25.7-14.8c4.5-2.6 7.3-7.5 7.3-12.7v-59.4c0-5.2-2.8-10.1-7.3-12.7l-25.1-14.5c0 .4-.1.8-.1 1.2v.2c-.4 4.4-1 8.7-1.8 13-.1.3-.1.6-.2.8-.2 1.2-.5 2.5-.8 3.7-.1.4-.2.9-.3 1.3 0 .1-.2.7-.2.7-.1.4-.2.6-.3 1-.3.9-.5 1.9-.8 2.8v.1c-.4 1.3-.8 2.5-1.3 3.7-.1.1-.1.3-.2.4-.2.4-.2.4-.3.8-.3.8-.6 1.5-.9 2.2-.1.1-.1.3-.2.4-.1.1-.1.2-.2.4-.2.5-.5.9-.7 1.4-.4.9-.9 1.8-1.4 2.6-.2.4-.5.8-.7 1.2l-.1.1c-.7 1.1-1.4 2.3-2.2 3.4l-.9 1.2c-.1.2-.2.3-.3.5-1.1 1.4-2.2 2.7-3.4 3.9l-.2.2c-.2.1-.3.3-.5.4-.5.4-1 .9-1.5 1.3-.1.1-.1.1-.2.1-1 .7-2.1 1.4-3.2 2-.3.1-.6.3-.8.4-.5.2-.9.4-1.4.6-.5.2-1.1.4-1.6.5-.2 0-.5.1-.7.1l.6.3c.5.3.9.5 1.3.8 3.4 2.2 6.2 5.3 8.5 8.6.4.6.8 1.1 1.1 1.7.5.7.9 1.5 1.4 2.3.6 1 1.1 2.1 1.7 3.1.7 1.3 1.3 2.7 1.9 4 .8 1.9 1.5 3.7 2.2 5.6.9 2.6 1.7 5.3 2.5 7.9 1 3.5 1.8 7 2.5 10.5.9 4.4 1.7 8.8 2.3 13.2.5 1.3.7 2.4.8 3.5zm-66.8-.4c.1-1 .2-1.9.3-2.9 0-.2.1-.5.1-.7 0-.2.1-.5.1-.7.1-.9.2-1.8.3-2.6.3-2.1.5-4.2.9-6.2.1-.8.3-1.6.4-2.3l.1-.4c.4-2 .8-3.9 1.2-5.9.1-.3.1-.5.2-.8.2-.8.4-1.6.7-2.5l.3-.9c0-.2.1-.3.1-.5.4-1.2.8-2.3 1.2-3.5l.1-.2c.4-1.1.9-2.3 1.4-3.4v-.1c.6-1.3 1.2-2.5 1.8-3.8.4-.7.8-1.5 1.2-2.2l.1-.2c.7-1.1 1.4-2.3 2.2-3.4.3-.4.6-.8.8-1.2.1-.2.2-.3.4-.5 1.1-1.4 2.2-2.7 3.4-3.9l.2-.2c.1 0 .1-.1.2-.1.3-.2.5-.5.8-.7l1.2-.9c.1-.1.2-.2.3-.2.1-.1.3-.2.4-.3l1.5-.9c.3-.2.7-.4 1-.5.4-.2.8-.4 1.3-.6l1.8-.6c.4-.1.9-.2 1.3-.2h.8l.1.1-.1.1h-.1s-.1 0 0 0h-.2c-.9.1-1.7.4-2.4.8s-1.3.8-1.8 1.3c-.2.2-.5.4-.7.6-.4.4-.8.9-1.2 1.3-.1.2-.3.3-.4.5 0 .1-.1.1-.1.2-.2.2-.3.4-.5.7-.4.5-.7 1.1-1 1.6 0 .1-.1.1-.1.2s-.1.1-.1.2c-.3.6-.6 1.1-.9 1.7-.3.7-.7 1.4-.9 2.2-.1.2-.1.3-.2.5-.2.4-.3.8-.5 1.2-.1.4-.3.8-.4 1.2l28.7-1.2c-.7-1.3-1.5-2.7-2.4-3.9-.8-1.2-1.7-2.3-2.7-3.4-1.4-1.4-3-2.7-4.8-3.6-.5-.2-1.1-.4-1.6-.6-.4-.1-.7-.2-1.1-.2-.2 0-.2 0-.4-.1-.5-.1-.9-.2-1.4-.4l-2.4-.9c-.8-.3-1.6-.7-2.3-1.2-.6-.3-1.1-.7-1.7-1-3.4-2.3-6.3-5.5-8.6-8.9-.3-.5-.7-1-1-1.5-.5-.7-.9-1.5-1.4-2.3-.6-1-1.1-2.1-1.6-3.1-.6-1.3-1.3-2.7-1.8-4-.8-1.8-1.5-3.7-2.1-5.6-.8-2.4-1.6-4.9-2.3-7.3-.9-3.2-1.7-6.5-2.3-9.8-.8-4.1-1.6-8.3-2.1-12.4-.1-.9-.2-1.8-.4-2.6l-25.6 14.8c-4.5 2.6-7.3 7.5-7.3 12.7v59.4c0 5.2 2.8 10.1 7.3 12.7l24.7 14zm10.5-4.5l45-1.4c-.5-3.2-1.2-6.4-1.9-9.6-.1-.2-.1-.5-.2-.7l-41.5-1.5c-.1 1.1-.3 2.1-.4 3.2 0 .3-.1.6-.1.9-.4 3-.7 6-.9 9.1zm2.1-17.4l39.2-1.4c-.4-1.5-.8-2.9-1.3-4.3-.7-2.2-1.5-4.4-2.3-6.6l-33.1-1.4c-.1.2-.1.5-.2.7-.3 1.1-.5 2.3-.7 3.4-.1.3-.1.6-.2.8-.2.8-.3 1.7-.4 2.5 0 .2-.1.4-.1.6-.1.4-.1.8-.2 1.3-.1.6-.2 1.1-.3 1.7-.1.3-.1.6-.2.9-.1.6-.2 1.2-.2 1.8zm27.4-39.2s.1 0 0 0c.9-.2 1.7-.6 2.5-1 .6-.4 1.2-.8 1.7-1.2.6-.5 1.2-1.1 1.7-1.8.1-.2.3-.3.4-.5.1-.1.2-.2.2-.3.1-.2.2-.3.4-.5.4-.6.8-1.2 1.1-1.8 0-.1.1-.1.1-.2s.1-.1.1-.2c.4-.8.9-1.5 1.2-2.3.2-.5.5-1 .7-1.5.1-.2.2-.5.3-.7.2-.4.3-.8.5-1.2.2-.6.4-1.3.6-1.9l-29.9 1.1c.5.9.9 1.7 1.4 2.5.9 1.5 2 3 3.1 4.3 1.6 1.8 3.5 3.5 5.7 4.5.6.3 1.3.5 2 .7.2.1.4.1.6.2.2 0 .4.1.6.1.2 0 .2 0 .4.1l1.2.3c.8.2 1.5.5 2.2.8.5.1.9.3 1.2.5zm-21.4-20.9l34.2 1.3.6-3c0-.2 0-.2.1-.4s.1-.5.2-.7c.2-.8.3-1.5.4-2.3 0-.1 0-.3.1-.4 0-.1 0-.3.1-.4.1-.6.2-1.1.3-1.7.1-.4.1-.8.2-1.1.1-.3.1-.7.2-1 .1-.5.2-1.1.3-1.6l-39.8 1.3c.4 1.4.8 2.9 1.3 4.3.3 1.9 1 3.8 1.8 5.7zm-5.1-17.2l42.2 1.4c0-.2.1-.4.1-.6l.1-.5c0-.3.1-.7.1-1 0-.3.1-.5.1-.8 0-.3.1-.5.1-.8 0-.4.1-.7.1-1.1 0-.4.1-.7.1-1.1.1-1.2.3-2.3.4-3.5l.3-3.6-45.6 1.3c.6 3.4 1.3 6.9 2 10.3zm-3.3-20.4c.1 1 .2 2.1.4 3.1l46.9 1.3v-.8c0-.5.1-.9.1-1.4 0-.5 0-.9.1-1.4v-.7l-16.6-9.6c-4.5-2.6-10.1-2.6-14.7 0l-16.2 9.5z" fill-rule="evenodd" clip-rule="evenodd" fill="#fff"/><path d="M-2884.5 447.5l41.9 24.2c4.5 2.6 7.3 7.5 7.3 12.7v77c0 5.2-2.8 10.1-7.3 12.7-15.5 8.9-51.2 29.6-66.7 38.5-4.5 2.6-10.1 2.6-14.7 0-15.5-8.9-51.2-29.6-66.7-38.5-4.5-2.6-7.3-7.5-7.3-12.7v-77c0-5.2 2.8-10.1 7.3-12.7 15.5-8.9 51.2-29.6 66.7-38.5 4.5-2.6 10.1-2.6 14.7 0l23.9 13.8.3.1c.2.1.4.3.6.4zm-56.1 137.9l16.6 9.6c4.5 2.6 10.1 2.6 14.7 0l16.1-9.3-.6-4.8-46.4-1.4c-.2 2-.3 3.9-.4 5.9zm57-5.3l25.7-14.8c4.5-2.6 7.3-7.5 7.3-12.7v-59.4c0-5.2-2.8-10.1-7.3-12.7L-2883 466c0 .4-.1.8-.1 1.2v.2c-.4 4.4-1 8.7-1.8 13-.1.3-.1.6-.2.8-.2 1.2-.5 2.5-.8 3.7-.1.4-.2.9-.3 1.3 0 .1-.2.7-.2.7-.1.4-.2.6-.3 1-.3.9-.5 1.9-.8 2.8v.1c-.4 1.3-.8 2.5-1.3 3.7-.1.1-.1.3-.2.4-.2.4-.2.4-.3.8-.3.8-.6 1.5-.9 2.2-.1.1-.1.3-.2.4-.1.1-.1.2-.2.4-.2.5-.5.9-.7 1.4-.4.9-.9 1.8-1.4 2.6-.2.4-.5.8-.7 1.2l-.1.1c-.7 1.1-1.4 2.3-2.2 3.4l-.9 1.2c-.1.2-.2.3-.3.5-1.1 1.4-2.2 2.7-3.4 3.9l-.2.2c-.2.1-.3.3-.5.4-.5.4-1 .9-1.5 1.3-.1.1-.1.1-.2.1-1 .7-2.1 1.4-3.2 2-.3.1-.6.3-.8.4-.5.2-.9.4-1.4.6-.5.2-1.1.4-1.6.5-.2 0-.5.1-.7.1l.6.3c.5.3.9.5 1.3.8 3.4 2.2 6.2 5.3 8.5 8.6.4.6.8 1.1 1.1 1.7.5.7.9 1.5 1.4 2.3.6 1 1.1 2.1 1.7 3.1.7 1.3 1.3 2.7 1.9 4 .8 1.9 1.5 3.7 2.2 5.6.9 2.6 1.7 5.3 2.5 7.9 1 3.5 1.8 7 2.5 10.5.9 4.4 1.7 8.8 2.3 13.2.5 1.4.7 2.5.8 3.5zm-66.8-.4c.1-1 .2-1.9.3-2.9 0-.2.1-.5.1-.7 0-.2.1-.5.1-.7.1-.9.2-1.8.3-2.6.3-2.1.5-4.2.9-6.2.1-.8.3-1.6.4-2.3l.1-.4c.4-2 .8-3.9 1.2-5.9.1-.3.1-.5.2-.8.2-.8.4-1.6.7-2.5l.3-.9c0-.2.1-.3.1-.5.4-1.2.8-2.3 1.2-3.5l.1-.2c.4-1.1.9-2.3 1.4-3.4v-.1c.6-1.3 1.2-2.5 1.8-3.8.4-.7.8-1.5 1.2-2.2l.1-.2c.7-1.1 1.4-2.3 2.2-3.4.3-.4.6-.8.8-1.2.1-.2.2-.3.4-.5 1.1-1.4 2.2-2.7 3.4-3.9l.2-.2c.1 0 .1-.1.2-.1.3-.2.5-.5.8-.7l1.2-.9c.1-.1.2-.2.3-.2.1-.1.3-.2.4-.3l1.5-.9c.3-.2.7-.4 1-.5.4-.2.8-.4 1.3-.6l1.8-.6c.4-.1.9-.2 1.3-.2h.8l.1.1-.1.1h-.1s-.1 0 0 0h-.2c-.9.1-1.7.4-2.4.8s-1.3.8-1.8 1.3c-.2.2-.5.4-.7.6-.4.4-.8.9-1.2 1.3-.1.2-.3.3-.4.5 0 .1-.1.1-.1.2-.2.2-.3.4-.5.7-.4.5-.7 1.1-1 1.6 0 .1-.1.1-.1.2s-.1.1-.1.2c-.3.6-.6 1.1-.9 1.7-.3.7-.7 1.4-.9 2.2-.1.2-.1.3-.2.5-.2.4-.3.8-.5 1.2-.1.4-.3.8-.4 1.2l28.7-1.2c-.7-1.3-1.5-2.7-2.4-3.9-.8-1.2-1.7-2.3-2.7-3.4-1.4-1.4-3-2.7-4.8-3.6-.5-.2-1.1-.4-1.6-.6-.4-.1-.7-.2-1.1-.2-.2 0-.2 0-.4-.1-.5-.1-.9-.2-1.4-.4l-2.4-.9c-.8-.3-1.6-.7-2.3-1.2-.6-.3-1.1-.7-1.7-1-3.4-2.3-6.3-5.5-8.6-8.9-.3-.5-.7-1-1-1.5-.5-.7-.9-1.5-1.4-2.3-.6-1-1.1-2.1-1.6-3.1-.6-1.3-1.3-2.7-1.8-4-.8-1.8-1.5-3.7-2.1-5.6-.8-2.4-1.6-4.9-2.3-7.3-.9-3.2-1.7-6.5-2.3-9.8-.8-4.1-1.6-8.3-2.1-12.4-.1-.9-.2-1.8-.4-2.6l-25.6 14.8c-4.5 2.6-7.3 7.5-7.3 12.7V553c0 5.2 2.8 10.1 7.3 12.7l24.7 14zm10.5-4.5l45-1.4c-.5-3.2-1.2-6.4-1.9-9.6-.1-.2-.1-.5-.2-.7l-41.5-1.5c-.1 1.1-.3 2.1-.4 3.2 0 .3-.1.6-.1.9-.4 3.1-.7 6.1-.9 9.1zm2.1-17.4l39.2-1.4c-.4-1.5-.8-2.9-1.3-4.3-.7-2.2-1.5-4.4-2.3-6.6l-33.1-1.4c-.1.2-.1.5-.2.7-.3 1.1-.5 2.3-.7 3.4-.1.3-.1.6-.2.8-.2.8-.3 1.7-.4 2.5 0 .2-.1.4-.1.6-.1.4-.1.8-.2 1.3-.1.6-.2 1.1-.3 1.7-.1.3-.1.6-.2.9-.1.7-.2 1.3-.2 1.8zm27.4-39.1s.1 0 0 0c.9-.2 1.7-.6 2.5-1 .6-.4 1.2-.8 1.7-1.2.6-.5 1.2-1.1 1.7-1.8.1-.2.3-.3.4-.5.1-.1.2-.2.2-.3.1-.2.2-.3.4-.5.4-.6.8-1.2 1.1-1.8 0-.1.1-.1.1-.2s.1-.1.1-.2c.4-.8.9-1.5 1.2-2.3.2-.5.5-1 .7-1.5.1-.2.2-.5.3-.7.2-.4.3-.8.5-1.2.2-.6.4-1.3.6-1.9l-29.9 1.1c.5.9.9 1.7 1.4 2.5.9 1.5 2 3 3.1 4.3 1.6 1.8 3.5 3.5 5.7 4.5.6.3 1.3.5 2 .7.2.1.4.1.6.2.2 0 .4.1.6.1.2 0 .2 0 .4.1l1.2.3c.8.2 1.5.5 2.2.8.5.1.9.3 1.2.5zm-21.4-20.9l34.2 1.3.6-3c0-.2 0-.2.1-.4s.1-.5.2-.7c.2-.8.3-1.5.4-2.3 0-.1 0-.3.1-.4 0-.1 0-.3.1-.4.1-.6.2-1.1.3-1.7.1-.4.1-.8.2-1.1.1-.3.1-.7.2-1 .1-.5.2-1.1.3-1.6l-39.8 1.3c.4 1.4.8 2.9 1.3 4.3.3 1.8 1 3.8 1.8 5.7zm-5.1-17.2l42.2 1.4c0-.2.1-.4.1-.6l.1-.5c0-.3.1-.7.1-1 0-.3.1-.5.1-.8 0-.3.1-.5.1-.8 0-.4.1-.7.1-1.1 0-.4.1-.7.1-1.1.1-1.2.3-2.3.4-3.5l.3-3.6-45.6 1.3c.6 3.4 1.3 6.9 2 10.3zm-3.3-20.5c.1 1 .2 2.1.4 3.1l46.9 1.3v-.8c0-.5.1-.9.1-1.4 0-.5 0-.9.1-1.4v-.7l-16.6-9.6c-4.5-2.6-10.1-2.6-14.7 0l-16.2 9.5z" fill-rule="evenodd" clip-rule="evenodd"/><path class="st2" d="M-2884.5 85.8l41.9 24.2c4.5 2.6 7.3 7.5 7.3 12.7v77c0 5.2-2.8 10.1-7.3 12.7-15.5 8.9-51.2 29.6-66.7 38.5-4.5 2.6-10.1 2.6-14.7 0-15.5-8.9-51.2-29.6-66.7-38.5-4.5-2.6-7.3-7.5-7.3-12.7v-77c0-5.2 2.8-10.1 7.3-12.7 15.5-8.9 51.2-29.6 66.7-38.5 4.5-2.6 10.1-2.6 14.7 0l23.9 13.8.3.1c.2.1.4.3.6.4zm-56.1 137.9l16.6 9.6c4.5 2.6 10.1 2.6 14.7 0l16.1-9.3-.6-4.8-46.4-1.4c-.2 2-.3 4-.4 5.9zm57-5.2l25.7-14.8c4.5-2.6 7.3-7.5 7.3-12.7v-59.4c0-5.2-2.8-10.1-7.3-12.7l-25.1-14.5c0 .4-.1.8-.1 1.2v.2c-.4 4.4-1 8.7-1.8 13-.1.3-.1.6-.2.8-.2 1.2-.5 2.5-.8 3.7-.1.4-.2.9-.3 1.3 0 .1-.2.7-.2.7-.1.4-.2.6-.3 1-.3.9-.5 1.9-.8 2.8v.1c-.4 1.3-.8 2.5-1.3 3.7-.1.1-.1.3-.2.4-.2.4-.2.4-.3.8-.3.8-.6 1.5-.9 2.2-.1.1-.1.3-.2.4-.1.1-.1.2-.2.4-.2.5-.5.9-.7 1.4-.4.9-.9 1.8-1.4 2.6-.2.4-.5.8-.7 1.2l-.1.1c-.7 1.1-1.4 2.3-2.2 3.4l-.9 1.2c-.1.2-.2.3-.3.5-1.1 1.4-2.2 2.7-3.4 3.9l-.2.2c-.2.1-.3.3-.5.4-.5.4-1 .9-1.5 1.3-.1.1-.1.1-.2.1-1 .7-2.1 1.4-3.2 2-.3.1-.6.3-.8.4-.5.2-.9.4-1.4.6-.5.2-1.1.4-1.6.5-.2 0-.5.1-.7.1l.6.3c.5.3.9.5 1.3.8 3.4 2.2 6.2 5.3 8.5 8.6.4.6.8 1.1 1.1 1.7.5.7.9 1.5 1.4 2.3.6 1 1.1 2.1 1.7 3.1.7 1.3 1.3 2.7 1.9 4 .8 1.9 1.5 3.7 2.2 5.6.9 2.6 1.7 5.3 2.5 7.9 1 3.5 1.8 7 2.5 10.5.9 4.4 1.7 8.8 2.3 13.2.5 1.3.7 2.4.8 3.5zm-66.8-.4c.1-1 .2-1.9.3-2.9 0-.2.1-.5.1-.7 0-.2.1-.5.1-.7.1-.9.2-1.8.3-2.6.3-2.1.5-4.2.9-6.2.1-.8.3-1.6.4-2.3l.1-.4c.4-2 .8-3.9 1.2-5.9.1-.3.1-.5.2-.8.2-.8.4-1.6.7-2.5l.3-.9c0-.2.1-.3.1-.5.4-1.2.8-2.3 1.2-3.5l.1-.2c.4-1.1.9-2.3 1.4-3.4v-.1c.6-1.3 1.2-2.5 1.8-3.8.4-.7.8-1.5 1.2-2.2l.1-.2c.7-1.1 1.4-2.3 2.2-3.4.3-.4.6-.8.8-1.2.1-.2.2-.3.4-.5 1.1-1.4 2.2-2.7 3.4-3.9l.2-.2c.1 0 .1-.1.2-.1.3-.2.5-.5.8-.7l1.2-.9c.1-.1.2-.2.3-.2.1-.1.3-.2.4-.3l1.5-.9c.3-.2.7-.4 1-.5.4-.2.8-.4 1.3-.6l1.8-.6c.4-.1.9-.2 1.3-.2h.8l.1.1-.1.1h-.1s-.1 0 0 0h-.2c-.9.1-1.7.4-2.4.8s-1.3.8-1.8 1.3c-.2.2-.5.4-.7.6-.4.4-.8.9-1.2 1.3-.1.2-.3.3-.4.5 0 .1-.1.1-.1.2-.2.2-.3.4-.5.7-.4.5-.7 1.1-1 1.6 0 .1-.1.1-.1.2s-.1.1-.1.2c-.3.6-.6 1.1-.9 1.7-.3.7-.7 1.4-.9 2.2-.1.2-.1.3-.2.5-.2.4-.3.8-.5 1.2-.1.4-.3.8-.4 1.2l28.7-1.2c-.7-1.3-1.5-2.7-2.4-3.9-.8-1.2-1.7-2.3-2.7-3.4-1.4-1.4-3-2.7-4.8-3.6-.5-.2-1.1-.4-1.6-.6-.4-.1-.7-.2-1.1-.2-.2 0-.2 0-.4-.1-.5-.1-.9-.2-1.4-.4l-2.4-.9c-.8-.3-1.6-.7-2.3-1.2-.6-.3-1.1-.7-1.7-1-3.4-2.3-6.3-5.5-8.6-8.9-.3-.5-.7-1-1-1.5-.5-.7-.9-1.5-1.4-2.3-.6-1-1.1-2.1-1.6-3.1-.6-1.3-1.3-2.7-1.8-4-.8-1.8-1.5-3.7-2.1-5.6-.8-2.4-1.6-4.9-2.3-7.3-.9-3.2-1.7-6.5-2.3-9.8-.8-4.1-1.6-8.3-2.1-12.4-.1-.9-.2-1.8-.4-2.6l-25.6 14.8c-4.5 2.6-7.3 7.5-7.3 12.7v59.4c0 5.2 2.8 10.1 7.3 12.7l24.7 14zm10.5-4.5l45-1.4c-.5-3.2-1.2-6.4-1.9-9.6-.1-.2-.1-.5-.2-.7l-41.5-1.5c-.1 1.1-.3 2.1-.4 3.2 0 .3-.1.6-.1.9-.4 3-.7 6-.9 9.1zm2.1-17.4l39.2-1.4c-.4-1.5-.8-2.9-1.3-4.3-.7-2.2-1.5-4.4-2.3-6.6l-33.1-1.4c-.1.2-.1.5-.2.7-.3 1.1-.5 2.3-.7 3.4-.1.3-.1.6-.2.8-.2.8-.3 1.7-.4 2.5 0 .2-.1.4-.1.6-.1.4-.1.8-.2 1.3-.1.6-.2 1.1-.3 1.7-.1.3-.1.6-.2.9-.1.6-.2 1.2-.2 1.8zm27.4-39.2s.1 0 0 0c.9-.2 1.7-.6 2.5-1 .6-.4 1.2-.8 1.7-1.2.6-.5 1.2-1.1 1.7-1.8.1-.2.3-.3.4-.5.1-.1.2-.2.2-.3.1-.2.2-.3.4-.5.4-.6.8-1.2 1.1-1.8 0-.1.1-.1.1-.2s.1-.1.1-.2c.4-.8.9-1.5 1.2-2.3.2-.5.5-1 .7-1.5.1-.2.2-.5.3-.7.2-.4.3-.8.5-1.2.2-.6.4-1.3.6-1.9l-29.9 1.1c.5.9.9 1.7 1.4 2.5.9 1.5 2 3 3.1 4.3 1.6 1.8 3.5 3.5 5.7 4.5.6.3 1.3.5 2 .7.2.1.4.1.6.2.2 0 .4.1.6.1.2 0 .2 0 .4.1l1.2.3c.8.2 1.5.5 2.2.8.5.1.9.3 1.2.5zm-21.4-20.9l34.2 1.3.6-3c0-.2 0-.2.1-.4s.1-.5.2-.7c.2-.8.3-1.5.4-2.3 0-.1 0-.3.1-.4 0-.1 0-.3.1-.4.1-.6.2-1.1.3-1.7.1-.4.1-.8.2-1.1.1-.3.1-.7.2-1 .1-.5.2-1.1.3-1.6l-39.8 1.3c.4 1.4.8 2.9 1.3 4.3.3 1.9 1 3.8 1.8 5.7zm-5.1-17.2l42.2 1.4c0-.2.1-.4.1-.6l.1-.5c0-.3.1-.7.1-1 0-.3.1-.5.1-.8 0-.3.1-.5.1-.8 0-.4.1-.7.1-1.1 0-.4.1-.7.1-1.1.1-1.2.3-2.3.4-3.5l.3-3.6-45.6 1.3c.6 3.4 1.3 6.9 2 10.3zm-3.3-20.4c.1 1 .2 2.1.4 3.1l46.9 1.3v-.8c0-.5.1-.9.1-1.4 0-.5 0-.9.1-1.4v-.7l-16.6-9.6c-4.5-2.6-10.1-2.6-14.7 0l-16.2 9.5zM182.7 85.8l41.9 24.2c4.5 2.6 7.3 7.5 7.3 12.7v77c0 5.2-2.8 10.1-7.3 12.7-15.5 8.9-51.2 29.6-66.7 38.5-4.5 2.6-10.1 2.6-14.7 0-15.5-8.9-51.2-29.6-66.7-38.5-4.5-2.6-7.3-7.5-7.3-12.7v-77c0-5.2 2.8-10.1 7.3-12.7 15.5-8.9 51.2-29.6 66.7-38.5 4.5-2.6 10.1-2.6 14.7 0l23.9 13.8.3.1c.1.1.4.3.6.4zm-56.1 137.9l16.6 9.6c4.5 2.6 10.1 2.6 14.7 0L174 224l-.6-4.8-46.4-1.4c-.2 2-.4 4-.4 5.9zm57-5.2l25.7-14.8c4.5-2.6 7.3-7.5 7.3-12.7v-59.4c0-5.2-2.8-10.1-7.3-12.7l-25.1-14.5c0 .4-.1.8-.1 1.2v.2c-.4 4.4-1 8.7-1.8 13-.1.3-.1.6-.2.8-.2 1.2-.5 2.5-.8 3.7-.1.4-.2.9-.3 1.3 0 .1-.2.7-.2.7-.1.4-.2.6-.3 1-.3.9-.5 1.9-.8 2.8v.1c-.4 1.3-.8 2.5-1.3 3.7-.1.1-.1.3-.2.4-.2.4-.2.4-.3.8-.3.8-.6 1.5-.9 2.2-.1.1-.1.3-.2.4-.1.1-.1.2-.2.4-.2.5-.5.9-.7 1.4-.4.9-.9 1.8-1.4 2.6-.2.4-.5.8-.7 1.2l-.1.1c-.7 1.1-1.4 2.3-2.2 3.4l-.9 1.2c-.1.2-.2.3-.3.5-1.1 1.4-2.2 2.7-3.4 3.9l-.2.2c-.2.1-.3.3-.5.4-.5.4-1 .9-1.5 1.3-.1.1-.1.1-.2.1-1 .7-2.1 1.4-3.2 2-.3.1-.6.3-.8.4-.5.2-.9.4-1.4.6-.5.2-1.1.4-1.6.5-.2 0-.5.1-.7.1l.6.3c.5.3.9.5 1.3.8 3.4 2.2 6.2 5.3 8.5 8.6.4.6.8 1.1 1.1 1.7.5.7.9 1.5 1.4 2.3.6 1 1.1 2.1 1.7 3.1.7 1.3 1.3 2.7 1.9 4 .8 1.9 1.5 3.7 2.2 5.6.9 2.6 1.7 5.3 2.5 7.9 1 3.5 1.8 7 2.5 10.5.9 4.4 1.7 8.8 2.3 13.2.5 1.3.6 2.4.8 3.5zm-66.8-.4c.1-1 .2-1.9.3-2.9 0-.2.1-.5.1-.7 0-.2.1-.5.1-.7.1-.9.2-1.8.3-2.6.3-2.1.5-4.2.9-6.2.1-.8.3-1.6.4-2.3l.1-.4c.4-2 .8-3.9 1.2-5.9.1-.3.1-.5.2-.8.2-.8.4-1.6.7-2.5l.3-.9c0-.2.1-.3.1-.5.4-1.2.8-2.3 1.2-3.5l.1-.2c.4-1.1.9-2.3 1.4-3.4v-.1c.6-1.3 1.2-2.5 1.8-3.8.4-.7.8-1.5 1.2-2.2l.1-.2c.7-1.1 1.4-2.3 2.2-3.4.3-.4.6-.8.8-1.2.1-.2.2-.3.4-.5 1.1-1.4 2.2-2.7 3.4-3.9l.2-.2c.1 0 .1-.1.2-.1.3-.2.5-.5.8-.7l1.2-.9c.1-.1.2-.2.3-.2.1-.1.3-.2.4-.3l1.5-.9c.3-.2.7-.4 1-.5.4-.2.8-.4 1.3-.6l1.8-.6c.4-.1.9-.2 1.3-.2h.8l.1.1-.1.1h-.1s-.1 0 0 0h-.2c-.9.1-1.7.4-2.4.8s-1.3.8-1.8 1.3c-.2.2-.5.4-.7.6-.4.4-.8.9-1.2 1.3-.1.2-.3.3-.4.5 0 .1-.1.1-.1.2-.2.2-.3.4-.5.7-.4.5-.7 1.1-1 1.6 0 .1-.1.1-.1.2s-.1.1-.1.2c-.3.6-.6 1.1-.9 1.7-.3.7-.7 1.4-.9 2.2-.1.2-.1.3-.2.5-.2.4-.3.8-.5 1.2-.1.4-.3.8-.4 1.2l28.7-1.2c-.7-1.3-1.5-2.7-2.4-3.9-.8-1.2-1.7-2.3-2.7-3.4-1.4-1.4-3-2.7-4.8-3.6-.5-.2-1.1-.4-1.6-.6-.4-.1-.7-.2-1.1-.2-.2 0-.2 0-.4-.1-.5-.1-.9-.2-1.4-.4l-2.4-.9c-.8-.3-1.6-.7-2.3-1.2-.6-.3-1.1-.7-1.7-1-3.4-2.3-6.3-5.5-8.6-8.9-.3-.5-.7-1-1-1.5-.5-.7-.9-1.5-1.4-2.3-.6-1-1.1-2.1-1.6-3.1-.6-1.3-1.3-2.7-1.8-4-.8-1.8-1.5-3.7-2.1-5.6-.8-2.4-1.6-4.9-2.3-7.3-.9-3.2-1.7-6.5-2.3-9.8-.8-4.1-1.6-8.3-2.1-12.4-.1-.9-.2-1.8-.4-2.6l-25.6 14.8c-4.5 2.6-7.3 7.5-7.3 12.7v59.4c0 5.2 2.8 10.1 7.3 12.7l24.7 14zm10.4-4.5l45-1.4c-.5-3.2-1.2-6.4-1.9-9.6-.1-.2-.1-.5-.2-.7l-41.5-1.5c-.1 1.1-.3 2.1-.4 3.2 0 .3-.1.6-.1.9-.3 3-.6 6-.9 9.1zm2.1-17.4l39.2-1.4c-.4-1.5-.8-2.9-1.3-4.3-.7-2.2-1.5-4.4-2.3-6.6l-33.1-1.4c-.1.2-.1.5-.2.7-.3 1.1-.5 2.3-.7 3.4-.1.3-.1.6-.2.8-.2.8-.3 1.7-.4 2.5 0 .2-.1.4-.1.6-.1.4-.1.8-.2 1.3-.1.6-.2 1.1-.3 1.7-.1.3-.1.6-.2.9 0 .6-.1 1.2-.2 1.8zm27.5-39.2c.9-.2 1.7-.6 2.5-1 .6-.4 1.2-.8 1.7-1.2.6-.5 1.2-1.1 1.7-1.8.1-.2.3-.3.4-.5.1-.1.2-.2.2-.3.1-.2.2-.3.4-.5.4-.6.8-1.2 1.1-1.8 0-.1.1-.1.1-.2s.1-.1.1-.2c.4-.8.9-1.5 1.2-2.3.2-.5.5-1 .7-1.5.1-.2.2-.5.3-.7.2-.4.3-.8.5-1.2.2-.6.4-1.3.6-1.9l-29.9 1.1c.5.9.9 1.7 1.4 2.5.9 1.5 2 3 3.1 4.3 1.6 1.8 3.5 3.5 5.7 4.5.6.3 1.3.5 2 .7.2.1.4.1.6.2.2 0 .4.1.6.1.2 0 .2 0 .4.1l1.2.3c.8.2 1.5.5 2.2.8.5.1.8.3 1.2.5zm-21.5-20.9l34.2 1.3.6-3c0-.2 0-.2.1-.4s.1-.5.2-.7c.2-.8.3-1.5.4-2.3 0-.1 0-.3.1-.4 0-.1 0-.3.1-.4.1-.6.2-1.1.3-1.7.1-.4.1-.8.2-1.1.1-.3.1-.7.2-1 .1-.5.2-1.1.3-1.6l-40 1.2c.4 1.4.8 2.9 1.3 4.3.6 2 1.3 3.9 2 5.8zm-5-17.2l42.2 1.4c0-.2.1-.4.1-.6l.1-.5c0-.3.1-.7.1-1 0-.3.1-.5.1-.8 0-.3.1-.5.1-.8 0-.4.1-.7.1-1.1 0-.4.1-.7.1-1.1.1-1.2.3-2.3.4-3.5l.3-3.6-45.6 1.3c.6 3.4 1.2 6.9 2 10.3zM127 98.5c.1 1 .2 2.1.4 3.1l46.9 1.3v-.8c0-.5.1-.9.1-1.4 0-.5 0-.9.1-1.4v-.7L157.9 89c-4.5-2.6-10.1-2.6-14.7 0L127 98.5z"/><path d="M278.5 192.7c.1.8-.2 1.2-.8 1.4-1.2.4-2.5.7-3.9.8-1.4.1-2.6.2-3.6.2-3.8 0-6.3-1-7.5-2.9-1.2-1.9-1.9-4.7-1.9-8.2v-82.9c0-.8.4-1.2 1.2-1.2h3.7c.9 0 1.3.4 1.3 1.2V182c0 2.7.3 4.7 1 5.9.6 1.2 2.1 1.7 4.3 1.7.9 0 1.7 0 2.4-.1.8-.1 1.5-.2 2.2-.4.3 0 .5 0 .7.1.2 0 .4.3.5.7l.4 2.8zM346.1 160c0 11.7-2.5 20.5-7.6 26.6-5.1 6.1-12.2 9.1-21.4 9.1-9.1 0-16.1-3-21.1-9.1-4.9-6.1-7.4-14.8-7.4-26.2 0-11.5 2.6-20.3 7.9-26.3 5.2-6 12.2-9 21-9 9.2 0 16.2 3 21.2 9.1 4.9 6 7.4 14.6 7.4 25.8zm-6.1.4c0-3.9-.3-7.6-1-11.3-.7-3.6-1.9-6.8-3.7-9.6-1.8-2.7-4.1-5-7-6.6-2.9-1.7-6.6-2.5-11.1-2.5-4.1 0-7.6.8-10.5 2.4-2.9 1.6-5.2 3.8-7 6.6-1.8 2.7-3 5.9-3.9 9.5-.8 3.6-1.2 7.3-1.2 11.1 0 4.3.4 8.3 1.2 12 .8 3.7 2.1 6.9 3.9 9.7 1.8 2.7 4.1 4.9 7 6.4 2.9 1.5 6.4 2.3 10.6 2.3 4.4 0 8-.9 10.9-2.7 2.9-1.8 5.2-4.1 7-7 1.7-2.9 2.9-6.1 3.7-9.7.8-3.6 1.1-7.1 1.1-10.6zM390.2 125.1c3.6 0 7.5.3 11.7.8 4.2.5 8.4 1.6 12.5 3.2.8.3 1.2.9 1.2 1.8v59.4c0 5.8-.7 10.5-2.2 14.4-1.5 3.8-3.5 6.9-6.2 9.3-2.7 2.4-5.9 4.2-9.7 5.5-3.8 1.3-8 2.3-12.6 3-.9.1-1.3-.2-1.4-.8l-.5-3.7c0-.6.3-.9 1-1 3.7-.7 7.1-1.5 10.2-2.4s5.8-2.3 8.1-4.1c2.3-1.8 4-4.1 5.3-6.9 1.2-2.8 1.9-6.5 1.9-10.9v-.9c-1.4.5-2.9 1-4.6 1.5-1.7.5-3.5.9-5.3 1.2-1.8.3-3.7.6-5.5.8-1.8.2-3.5.3-5 .3-5 0-9.2-.9-12.8-2.6-3.6-1.7-6.5-4.1-8.8-7.2-2.3-3.1-4-6.7-5.1-10.9-1.1-4.2-1.6-8.8-1.6-13.6 0-5.1.6-9.8 1.7-14.2 1.2-4.4 2.9-8.2 5.3-11.4 2.4-3.2 5.5-5.8 9.2-7.6 3.6-2.1 8-3 13.2-3zm-.7 65c.9 0 2.2-.1 3.7-.2s3.2-.4 5-.7c1.8-.3 3.7-.8 5.6-1.2 1.9-.5 3.8-1.1 5.5-1.9v-52.5c-3.3-1.2-6.7-2-10.2-2.4-3.5-.4-6.5-.6-9-.6-3.3 0-6.4.6-9.3 1.8-2.8 1.2-5.3 3-7.3 5.5-2.1 2.4-3.7 5.6-4.9 9.4-1.2 3.8-1.8 8.3-1.8 13.6 0 9.6 2 16.9 6.1 21.9 4.1 4.8 9.6 7.3 16.6 7.3zM430.1 161.3c0-4.8.6-9.4 1.8-13.8 1.2-4.4 3-8.2 5.5-11.5 2.5-3.3 5.7-5.9 9.7-7.9 3.9-1.9 8.6-2.9 14-2.9 2.2 0 4.4.1 6.5.3 2.1.2 4.5.6 7.1 1.2v-23.6c0-1 .2-1.7.6-2.1.4-.3 1.1-.5 2.3-.5h13.1c.9 0 1.7.2 2.1.5.5.3.7 1 .7 2.1v82.2c0 1-.1 2-.3 2.9-.1.9-.7 1.8-1.9 2.6s-2.7 1.4-4.6 2c-1.8.6-3.9 1.1-6.2 1.5-2.3.4-4.5.8-6.8 1-2.2.2-4.3.4-6.3.5-2 .1-3.6.2-4.9.2-6.2 0-11.4-.9-15.5-2.6-4.2-1.7-7.5-4.1-10-7.2-2.5-3.1-4.3-6.7-5.4-10.9-1-4.3-1.5-8.9-1.5-14zm19.4.3c0 6.9 1.4 11.7 4.1 14.4 2.7 2.7 6.5 4.1 11.3 4.1 1.2 0 2.8-.1 4.8-.4 2-.3 3.7-.6 5.1-1.2v-35.9c-2.2-.5-4.2-.9-5.9-1-1.7-.2-3.3-.3-4.6-.3-4.4 0-7.9 1.6-10.6 4.8-2.8 3.2-4.2 8.4-4.2 15.5zM535.4 140.7c-.9 0-2.1 0-3.7.1-1.6 0-3.3.2-5.1.6v50.9c0 .9-.2 1.6-.5 1.9-.3.3-1.1.5-2.3.5h-13.3c-.9 0-1.6-.2-2.1-.5-.4-.3-.6-.9-.6-1.9V137c0-2.9.5-5.2 1.5-6.9 1-1.7 3.2-2.9 6.4-3.5.9-.2 2.1-.3 3.7-.5 1.6-.1 3.3-.3 5.1-.4 1.8-.1 3.6-.2 5.3-.3 1.8-.1 3.3-.1 4.6-.1 6 0 11.2.6 15.6 1.8 4.4 1.2 8 3.1 10.9 5.7 2.9 2.6 5 6.1 6.4 10.3 1.4 4.2 2.1 9.4 2.1 15.5v33.6c0 .9-.2 1.6-.5 1.9-.3.3-1.1.5-2.3.5h-13.4c-.9 0-1.6-.2-2.1-.5-.4-.3-.6-.9-.6-1.9v-34.8c0-2.8-.2-5.3-.7-7.3-.5-2.1-1.3-3.8-2.4-5.2-1.2-1.4-2.7-2.5-4.8-3.2-1.7-.6-4.2-1-7.2-1zM644 186.2c0 1.1-.2 2.1-.5 2.8-.3.8-1.1 1.5-2.3 2.2-2 .9-4.1 1.7-6.4 2.3-2.3.6-4.6 1.1-7 1.4-2.4.3-4.7.6-7.1.8-2.4.2-4.7.3-6.8.3-5.8 0-10.7-.6-14.5-1.7-3.8-1.1-6.9-2.6-9.2-4.6-2.3-1.9-3.9-4.2-4.9-6.8-.9-2.6-1.4-5.4-1.4-8.4 0-3.3.6-6.4 1.7-9.2 1.1-2.8 2.8-5.2 5-7.3 2.2-2.1 5-3.7 8.4-4.8 3.4-1.2 7.4-1.7 12-1.7h14.2v-2.1c0-1.2-.1-2.4-.4-3.5-.3-1.1-.8-2.1-1.6-2.9-.8-.8-2-1.5-3.4-2-1.5-.5-3.4-.8-5.8-.8-1.3 0-2.7.1-4.4.2-1.6.1-3.3.3-4.9.5-1.6.2-3.2.5-4.8.8-1.5.3-2.9.6-4.1 1-1.1.3-1.9.3-2.3 0-.4-.3-.7-.8-.9-1.7l-2.1-9c-.3-.9-.3-1.6-.1-2 .2-.4.7-.7 1.4-1 3.9-1.4 7.9-2.4 12.2-3 4.2-.6 8.5-.9 12.7-.9 9.4 0 16.2 2 20.6 6 4.4 4 6.6 9.9 6.6 17.7v37.4h.1zm-18.8-22.3H615c-1.2 0-2.5.1-3.9.3-1.4.2-2.6.6-3.8 1.2-1.2.6-2.1 1.6-2.9 2.8-.8 1.2-1.2 2.8-1.2 4.9 0 3 1 5.1 3 6.3 2 1.2 4.7 1.8 8.2 1.8.5 0 1.2 0 2.1-.1.9 0 1.8-.1 2.8-.3 1-.1 2-.3 3-.5s2-.5 2.8-.8l.1-15.6z"/></g></svg>