<svg xmlns="http://www.w3.org/2000/svg" width="362" height="76" viewBox="0 0 361.333 75.28"><path d="M106.684 27.977L85.487 1.09C84.994.474 84.045.007 83.27.007H23.794c-.79 0-1.75.468-2.234 1.082L.372 27.977c-.57.723-.474 1.796.22 2.376l51.72 44.495a1.84 1.84 0 0 0 1.203.432 1.9 1.9 0 0 0 1.223-.432l51.72-44.495c.695-.58.79-1.653.23-2.376zm-68.833 4.75c.458 0 1.16.273 1.505.58L52.32 45.122c.648.59 1.748.595 2.4 0l12.974-11.814c.333-.307 1.055-.58 1.504-.58l20.423.01-35.656 30.68c-.22.192-.66.185-.882 0l-35.664-30.69zm31.99-13.78L53.94 33.43c-.22.193-.606.193-.82 0L37.208 18.937a1.68 1.68 0 0 0-1.135-.432c-.474 0-.922.192-1.24.537l-3.545 3.888c-.3.325-.95.617-1.397.617l-14.354-.01L26.363 9.813c.264-.333.88-.632 1.3-.632h51.72c.423 0 1.038.298 1.293.622l10.82 13.742H77.142c-.415 0-1.08-.292-1.392-.617l-3.536-3.888c-.605-.65-1.722-.713-2.37-.095" fill="#6cb92f"/><path d="M152.143 26.508l14.754-17.02h9.94V55.4H165.4V26.737L153 41.13h-1.717l-12.397-14.392V55.4H127.45V9.487h9.928l14.765 17.02m79.825-17.02L210.75 55.983h-4.96L183.55 9.487h12.456l12.146 26.23 11.496-26.23h12.32m31.96 40.215V55.4H240.25V24.338h7.734V49.7h15.94m23.642-25.36L301.36 55.4h-8.317l-2.56-6.133h-13.906l-2.32 6.133h-8.197l12.545-31.053zm.656 19.496l-5.035-12.072-4.56 12.072zm17.6-19.496h13.42c3.2 0 5.717.77 7.544 2.308 1.836 1.543 2.748 3.362 2.748 5.466 0 2.694-1.42 4.76-4.248 6.195 2.136.564 3.772 1.56 4.903 2.982s1.705 3.083 1.705 4.982c0 2.7-.93 4.894-2.784 6.584s-4.58 2.535-8.18 2.535h-15.108zm7.73 5.7v6.646h4.047c1.247 0 2.216-.32 2.913-.956s1.04-1.438 1.04-2.4a3.04 3.04 0 0 0-1.04-2.356c-.697-.622-1.667-.933-2.913-.933zm0 12.337v7.336h4.356c2.063 0 3.54-.286 4.443-.858s1.363-1.557 1.363-2.966c0-1.08-.433-1.94-1.292-2.568s-2-.944-3.444-.944h-5.425m46.36-16.027v6.07c-4.116-1.852-7.404-2.777-9.846-2.777-1.4 0-2.503.232-3.327.698-.815.468-1.23 1.087-1.23 1.858 0 .592.296 1.156.9 1.7s2.037 1.222 4.328 2.068c2.305.844 4.14 1.63 5.513 2.355 1.383.727 2.575 1.75 3.572 3.07s1.5 2.985 1.5 5c0 2.876-1.1 5.165-3.28 6.868s-5.063 2.556-8.638 2.556c-3.844 0-7.582-.998-11.202-3v-6.7c2.076 1.392 3.917 2.407 5.517 3.044s3.295.957 5.088.957c3.04 0 4.557-.954 4.557-2.866 0-.652-.305-1.266-.9-1.844s-2.07-1.28-4.392-2.1-4.155-1.602-5.512-2.312-2.524-1.728-3.5-3.047-1.48-3-1.48-5.07c0-2.67 1.076-4.823 3.223-6.46s5.023-2.456 8.62-2.456c3.324 0 6.83.798 10.518 2.4" fill="#1c1b1a"/></svg>