<svg width="400" height="80" viewBox="0 0 139 10" xmlns="http://www.w3.org/2000/svg"><g fill="#000" fill-rule="evenodd"><path d="M8.832 9.838V.241H7.41v7.333L1.433.323h-.001A.233.233 0 001.367.27.21.21 0 001.27.242L1.268.241H0v9.597h1.38V2.531l5.98 7.213.002.001c.016.02.044.042.079.06.04.021.078.031.105.032l.003.001h1.283M12.733 9.837V.24h6.558V1.58h-5.169v2.766h4.647V5.53h-4.647v2.984h5.558v1.324h-6.947M28.723 1.58v8.26H27.33V1.58h-3.973V.24h9.337v1.34h-3.972M35.5 6.104h5.065V4.929H35.5zM53.266 9.86l-1.44-3.125h-4.51L45.82 9.86h-1.52l4.571-9.6.705-.042.705.042 4.505 9.6h-1.52zm-3.688-7.885l-1.69 3.556h3.379l-1.69-3.556zM58.515 6.104h5.065V4.929h-5.065zM74.584 5.76h-4.256v4.078h-1.23V.24h5.486C76.36.24 77.4 1.257 77.4 2.98c0 1.698-1.053 2.779-2.816 2.779m0-4.188h-4.27v2.773h4.27c.817.003 1.587-.438 1.587-1.364 0-.952-.75-1.338-1.587-1.408M85.526.037c3.35 0 5.466 2.278 5.466 4.982 0 2.62-2.055 4.981-5.495 4.981-3.322 0-5.423-2.347-5.423-4.98 0-2.69 2.16-4.983 5.452-4.983m.005 8.633c2.28 0 4.075-1.518 4.075-3.639 0-2.135-1.795-3.657-4.075-3.657-2.262 0-4.073 1.51-4.073 3.645 0 2.12 1.81 3.651 4.073 3.651M100.74 5.74l2.645 4.1h-1.655l-2.591-4.077h-3.416V9.84H94.51V.244h5.428c1.831 0 2.873 1.136 2.873 2.779 0 1.454-.547 2.267-2.071 2.717m-.802-4.165h-4.215v2.86h4.215c.844-.084 1.591-.473 1.591-1.49 0-.771-.635-1.312-1.59-1.37M111.441 1.655V9.85h-1.427V1.655h-3.93V.253h9.336v1.402h-3.98M119.238 9.838V.24h6.558v1.341h-5.169v2.766h4.647V5.53h-4.647v2.985h5.558v1.323h-6.947M136.331 5.74l2.645 4.1h-1.655l-2.592-4.077h-3.415V9.84h-1.213V.244h5.428c1.831 0 2.873 1.136 2.873 2.779 0 1.454-.547 2.267-2.071 2.717m-.802-4.165h-4.215v2.86h4.215c.844-.084 1.592-.473 1.592-1.49 0-.771-.636-1.312-1.592-1.37"/></g></svg>