<?xml version="1.0" encoding="UTF-8"?>
<svg viewBox="0 0 294.46 72.16" xmlns="http://www.w3.org/2000/svg" xmlns:xlink="http://www.w3.org/1999/xlink">
<defs>
<style>.cls-1{fill:url(#b);}.cls-2{fill:url(#i);}.cls-3{fill:url(#h);}.cls-4{fill:url(#a);}.cls-5{fill:url(#g);}.cls-6{fill:url(#f);}.cls-7{fill:url(#e);}.cls-8{fill:url(#d);}.cls-9{fill:url(#c);}.cls-10{fill:url(#k);}.cls-11{fill:url(#j);}</style>
<linearGradient id="b" x1="123.43" x2="124.04" y1="-150.81" y2="-150.81" gradientTransform="matrix(0 -119.66 -119.66 0 -18014 14842)" gradientUnits="userSpaceOnUse">
<stop stop-color="#9ec974" offset="0"/>
<stop stop-color="#00b4ec" offset="1"/>
</linearGradient>
<linearGradient id="i" x1="123.43" x2="124.04" y1="-150.77" y2="-150.77" gradientTransform="matrix(0 -119.66 -119.66 0 -18000 14842)" xlink:href="#b"/>
<linearGradient id="h" x1="123.43" x2="124.04" y1="-150.81" y2="-150.81" xlink:href="#b"/>
<linearGradient id="a" x1="122.35" x2="122.96" y1="-150.51" y2="-150.51" gradientTransform="matrix(0 -81.71 -81.71 0 -12207 10052)" gradientUnits="userSpaceOnUse">
<stop stop-color="#9ec974" offset="0"/>
<stop stop-color="#00b4ec" offset="1"/>
</linearGradient>
<linearGradient id="g" x1="122.35" x2="122.96" y1="-150.27" y2="-150.27" gradientTransform="matrix(0 -81.71 -81.71 0 -12157 10052)" xlink:href="#a"/>
<linearGradient id="f" x1="122.35" x2="122.96" y1="-150.04" y2="-150.04" gradientTransform="matrix(0 -81.71 -81.71 0 -12108 10052)" xlink:href="#a"/>
<linearGradient id="e" x1="122.35" x2="122.96" y1="-149.87" y2="-149.87" gradientTransform="matrix(0 -81.71 -81.71 0 -12073 10052)" xlink:href="#a"/>
<linearGradient id="d" x1="122.35" x2="122.96" y1="-149.7" y2="-149.7" gradientTransform="matrix(0 -81.71 -81.71 0 -12038 10052)" xlink:href="#a"/>
<linearGradient id="c" x1="122.35" x2="122.96" y1="-149.47" y2="-149.47" gradientTransform="matrix(0 -81.71 -81.71 0 -11989 10052)" xlink:href="#a"/>
<linearGradient id="k" x1="122.35" x2="122.96" y1="-149.24" y2="-149.24" gradientTransform="matrix(0 -81.71 -81.71 0 -11941 10052)" xlink:href="#a"/>
<linearGradient id="j" x1="122.35" x2="122.96" y1="-149" y2="-149" gradientTransform="matrix(0 -81.71 -81.71 0 -11892 10052)" xlink:href="#a"/>
</defs>
<title>color</title>
<g data-name="Layer 2">
<g data-name="Layer 1">
<path class="cls-1" d="M32.06,6.09l26,15v30l-26,15-26-15v-30l26-15m0-6.09a6,6,0,0,0-3,.82l-26,15a6.1,6.1,0,0,0-3,5.27v30a6.1,6.1,0,0,0,3,5.28l26,15a6,6,0,0,0,3,.82,6.07,6.07,0,0,0,3-.82l26-15a6.1,6.1,0,0,0,3-5.28v-30a6.1,6.1,0,0,0-3-5.27l-26-15A6.07,6.07,0,0,0,32.06,0Z"/>
<path class="cls-2" d="M45.77,52V47.27a1.32,1.32,0,0,0-.66-1.14L41,43.75a1.35,1.35,0,0,0-1.32,0l-4.12,2.38a1.32,1.32,0,0,0-.66,1.14V52a1.32,1.32,0,0,0,.66,1.14l4.12,2.38a1.35,1.35,0,0,0,1.32,0l4.12-2.38A1.32,1.32,0,0,0,45.77,52Z"/>
<path class="cls-3" d="M30.63,47.07,21.83,42V30.17l10.23-5.91L42.3,30.17v9.21a4.22,4.22,0,0,1,.65.3l5.44,3.13V28.57a3.33,3.33,0,0,0-1.66-2.87l-1.39-.8L35.11,19l-1.39-.8a3.33,3.33,0,0,0-3.32,0L29,19,18.78,24.9l-1.38.8a3.31,3.31,0,0,0-1.66,2.87v15a3.31,3.31,0,0,0,1.66,2.87l1.38.8L29,53.17l1.38.8.24.12v-7Z"/>
<path class="cls-4" d="m91.57 19.18q11.22 0 11.22 8.41v25.93h-5.61v-25.23c0-1.59-0.5-2.63-1.51-3.12a11.73 11.73 0 0 0 -8.2 0q-1.5 0.73-1.5 3.12v25.23h-5.61v-25.93q0-8.41 11.21-8.41z"/>
<path class="cls-5" d="M127.31,19.88h5.61V45.81q0,8.41-11.21,8.41t-11.22-8.41V19.88h5.61V45.11c0,1.59.5,2.63,1.51,3.12a11.88,11.88,0,0,0,8.2,0q1.5-.73,1.5-3.12Z"/>
<path class="cls-6" d="M157.1,40.9h5.6v4.91q0,8.41-11.21,8.41t-11.21-8.41V27.59q0-8.41,11.21-8.41t11.21,8.41v4.9h-5.6v-4.2q0-2.38-1.47-3.12a11.92,11.92,0,0,0-8.27,0c-1,.49-1.48,1.53-1.48,3.12V45.11c0,1.59.5,2.63,1.48,3.12a12.08,12.08,0,0,0,8.27,0q1.47-.73,1.47-3.12Z"/>
<rect class="cls-7" x="170.06" y="4.46" width="5.61" height="49.06"/>
<path class="cls-8" d="M194.59,19.18q11.22,0,11.21,8.41V39.36H189v5.75c0,1.59.5,2.63,1.48,3.12a12.08,12.08,0,0,0,8.27,0q1.47-.73,1.47-3.12V43h5.6v2.8q0,8.41-11.21,8.41t-11.21-8.41V27.59Q183.38,19.18,194.59,19.18ZM189,34.11H200.2V28.29q0-2.38-1.47-3.12a11.92,11.92,0,0,0-8.27,0c-1,.49-1.48,1.53-1.48,3.12Z"/>
<path class="cls-9" d="m224 19.18q11.21 0 11.21 8.41v18.22q0 8.41-11.21 8.41t-11.22-8.41v-18.22q0.03-8.41 11.22-8.41zm5.6 25.93v-16.82q0-2.38-1.47-3.12a11.92 11.92 0 0 0 -8.27 0q-1.47 0.73-1.47 3.12v16.82q0 2.39 1.47 3.12a12.08 12.08 0 0 0 8.27 0q1.5-0.73 1.5-3.12z"/>
<path class="cls-10" d="m259.07 19.88v-15.42h5.6v41.35q0 8.41-11.21 8.41t-11.21-8.41v-17.52q0-8.41 11.21-8.41zm0 25.23v-20h-5.61a9.48 9.48 0 0 0 -4.14 0.73q-1.47 0.73-1.47 3.12v16.15q0 2.39 1.47 3.12a12.08 12.08 0 0 0 8.27 0c0.99-0.49 1.48-1.53 1.48-3.12z"/>
<path class="cls-11" d="M283.24,19.18q11.22,0,11.22,8.41V39.36H277.64v5.75q0,2.39,1.47,3.12a12.08,12.08,0,0,0,8.27,0q1.47-.73,1.47-3.12V43h5.61v2.8q0,8.41-11.22,8.41T272,45.81V27.59Q272,19.18,283.24,19.18Zm-5.6,14.93h11.21V28.29q0-2.38-1.47-3.12a11.92,11.92,0,0,0-8.27,0q-1.47.73-1.47,3.12Z"/>
</g>
</g>
</svg>
