<svg xmlns="http://www.w3.org/2000/svg" xmlns:xlink="http://www.w3.org/1999/xlink" width="293.747" height="72.03" viewBox="0 0 293.747 72.03"><clipPath id="a"><path d="m0 0h293.747v72.03h-293.747z"/></clipPath><linearGradient id="b"><stop offset="0" stop-color="#9ec974"/><stop offset="1" stop-color="#00b4ec"/></linearGradient><linearGradient id="c" x1=".497884" x2=".497884" y1="1.002441" y2="-.008677" gradientTransform="scale(63.858 72.03)" gradientUnits="userSpaceOnUse" xlink:href="#b"/><g fill="url(#c)" clip-path="url(#a)"><path d="m31.929 6.076 25.942 14.967v29.934l-25.942 14.966-25.942-14.966v-29.934zm0-6.076c-1.052.005-2.085.287-2.993.818l-25.943 14.967c-1.86 1.097-2.999 3.099-2.993 5.258v29.934c-.009 2.163 1.13 4.169 2.993 5.268l25.943 14.967c.908.531 1.941.813 2.993.818 1.052-.008 2.084-.29 2.993-.818l25.943-14.967c1.863-1.099 3.003-3.105 2.993-5.268v-29.934c.006-2.159-1.133-4.161-2.993-5.258l-25.943-14.967c-.909-.528-1.941-.81-2.993-.818z"/><path d="m30.502 46.966-8.78-5.059v-11.804l10.207-5.897 10.217 5.897v9.19c.225.081.442.181.649.299l5.428 3.123v-14.208c-.004-1.181-.635-2.272-1.656-2.864l-1.387-.798-10.208-5.887-1.387-.798c-1.025-.59-2.287-.59-3.312 0l-1.397.798-10.197 5.887-1.377.798c-1.025.589-1.657 1.681-1.657 2.864v14.966c0 1.183.632 2.275 1.657 2.864l1.377.798 10.197 5.917 1.377.798.239.12v-6.984z"/><path d="m45.609 51.885v-4.72c-.001-.469-.252-.903-.659-1.137l-4.101-2.375c-.409-.229-.908-.229-1.317 0l-4.111 2.375c-.406.234-.657.668-.658 1.137v4.72c.001.469.252.902.658 1.137l4.111 2.375c.409.229.908.229 1.317 0l4.111-2.375c.403-.237.65-.67.649-1.137z"/></g><g fill="url(#c)"><path d="m91.307 19.137q11.195 0 11.195 8.392v25.872h-5.597v-25.174c0-1.586-.499-2.624-1.507-3.113-2.638-.984-5.543-.984-8.182 0q-1.496.729-1.496 3.113v25.174h-5.598v-25.872q0-8.392 11.185-8.392z"/><path d="m126.968 19.836h5.597v25.872q0 8.392-11.185 8.392-11.185 0-11.195-8.392v-25.872h5.598v25.174c0 1.586.499 2.624 1.506 3.113 2.641.971 5.541.971 8.182 0q1.497-.728 1.497-3.113z"/><path d="m156.692 40.809h5.587v4.899q0 8.392-11.185 8.392-11.185 0-11.185-8.392v-18.179q0-8.392 11.185-8.392 11.185 0 11.185 8.392v4.889h-5.587v-4.191q0-2.374-1.467-3.113c-2.662-.985-5.589-.985-8.252 0-.997.489-1.476 1.527-1.476 3.113v16.783c0 1.586.499 2.624 1.476 3.113 2.665.971 5.587.971 8.252 0q1.467-.728 1.467-3.113z"/><path d="m169.623 4.45h5.598v48.951h-5.598z"/><path d="m194.099 19.137q11.195 0 11.185 8.392v11.744h-16.763v5.737c0 1.586.499 2.624 1.477 3.113 2.665.971 5.587.971 8.252 0q1.466-.728 1.466-3.113v-2.105h5.588v2.793q0 8.392-11.185 8.392-11.185 0-11.185-8.392v-18.169q-.02-8.392 11.165-8.392zm-5.578 14.897h11.175v-5.807q0-2.374-1.466-3.113c-2.663-.985-5.59-.985-8.252 0-.998.489-1.477 1.527-1.477 3.113z"/><path d="m223.444 19.137q11.185 0 11.185 8.392v18.179q0 8.392-11.185 8.392-11.186 0-11.196-8.392v-18.179q.03-8.392 11.196-8.392zm5.587 25.873v-16.783q0-2.374-1.467-3.113c-2.662-.985-5.589-.985-8.251 0q-1.467.729-1.467 3.113v16.783q0 2.385 1.467 3.113c2.665.971 5.586.971 8.251 0q1.497-.728 1.497-3.113z"/><path d="m258.436 19.836v-15.386h5.587v41.258q0 8.392-11.185 8.392-11.185 0-11.185-8.392v-17.481q0-8.391 11.185-8.391zm0 25.174v-19.956h-5.598c-1.414-.069-2.826.18-4.131.729q-1.466.728-1.466 3.113v16.114q0 2.385 1.466 3.113c2.665.971 5.587.971 8.252 0 .988-.489 1.477-1.527 1.477-3.113z"/><path d="m282.552 19.137q11.195 0 11.195 8.392v11.744h-16.782v5.737q0 2.385 1.466 3.113c2.665.971 5.587.971 8.252 0q1.467-.728 1.467-3.113v-2.105h5.597v2.793q0 8.392-11.195 8.392-11.195 0-11.215-8.382v-18.179q0-8.392 11.215-8.392zm-5.587 14.897h11.185v-5.807q0-2.374-1.467-3.113c-2.662-.985-5.589-.985-8.252 0q-1.466.729-1.466 3.113z"/></g></svg>
