<svg xmlns="http://www.w3.org/2000/svg" xmlns:xlink="http://www.w3.org/1999/xlink" width="293.747" height="72.03"><clipPath id="c"><path d="M0 0h293.747v72.03H0z"/></clipPath><linearGradient id="a"><stop offset="0" stop-color="#9ec974"/><stop offset="1" stop-color="#00b4ec"/></linearGradient><linearGradient id="b" x1=".498" x2=".498" y1="1.002" y2="-.009" gradientTransform="scale(63.858 72.03)" gradientUnits="userSpaceOnUse" xlink:href="#a"/><g fill="url(#b)" clip-path="url(#c)"><path d="M31.929 6.076l25.942 14.967v29.934L31.929 65.943 5.987 50.977V21.043zm0-6.076a5.987 5.987 0 00-2.993.818L2.993 15.785A6.086 6.086 0 000 21.043v29.934a6.087 6.087 0 002.993 5.268l25.943 14.967a5.987 5.987 0 002.993.818 6.051 6.051 0 002.993-.818l25.943-14.967a6.084 6.084 0 002.993-5.268V21.043a6.086 6.086 0 00-2.993-5.258L34.922.818A6.051 6.051 0 0031.929 0z"/><path d="M30.502 46.966l-8.78-5.059V30.103l10.207-5.897 10.217 5.897v9.19c.225.081.442.181.649.299l5.428 3.123V28.507a3.325 3.325 0 00-1.656-2.864l-1.387-.798-10.208-5.887-1.387-.798a3.32 3.32 0 00-3.312 0l-1.397.798-10.197 5.887-1.377.798a3.303 3.303 0 00-1.657 2.864v14.966c0 1.183.632 2.275 1.657 2.864l1.377.798 10.197 5.917 1.377.798.239.12v-6.984z"/><path d="M45.609 51.885v-4.72a1.315 1.315 0 00-.659-1.137l-4.101-2.375a1.348 1.348 0 00-1.317 0l-4.111 2.375a1.316 1.316 0 00-.658 1.137v4.72c.001.469.252.902.658 1.137l4.111 2.375c.409.229.908.229 1.317 0l4.111-2.375c.403-.237.65-.67.649-1.137z"/></g><g fill="url(#b)"><path d="M91.307 19.137q11.195 0 11.195 8.392v25.872h-5.597V28.227c0-1.586-.499-2.624-1.507-3.113a11.708 11.708 0 00-8.182 0q-1.496.729-1.496 3.113v25.174h-5.598V27.529q0-8.392 11.185-8.392zM126.968 19.836h5.597v25.872q0 8.392-11.185 8.392t-11.195-8.392V19.836h5.598V45.01c0 1.586.499 2.624 1.506 3.113 2.641.971 5.541.971 8.182 0q1.497-.728 1.497-3.113zM156.692 40.809h5.587v4.899q0 8.392-11.185 8.392t-11.185-8.392V27.529q0-8.392 11.185-8.392t11.185 8.392v4.889h-5.587v-4.191q0-2.374-1.467-3.113a11.891 11.891 0 00-8.252 0c-.997.489-1.476 1.527-1.476 3.113V45.01c0 1.586.499 2.624 1.476 3.113 2.665.971 5.587.971 8.252 0q1.467-.728 1.467-3.113zM169.623 4.45h5.598v48.951h-5.598zM194.099 19.137q11.195 0 11.185 8.392v11.744h-16.763v5.737c0 1.586.499 2.624 1.477 3.113 2.665.971 5.587.971 8.252 0q1.466-.728 1.466-3.113v-2.105h5.588v2.793q0 8.392-11.185 8.392t-11.185-8.392V27.529q-.02-8.392 11.165-8.392zm-5.578 14.897h11.175v-5.807q0-2.374-1.466-3.113a11.891 11.891 0 00-8.252 0c-.998.489-1.477 1.527-1.477 3.113zM223.444 19.137q11.185 0 11.185 8.392v18.179q0 8.392-11.185 8.392-11.186 0-11.196-8.392V27.529q.03-8.392 11.196-8.392zm5.587 25.873V28.227q0-2.374-1.467-3.113a11.889 11.889 0 00-8.251 0q-1.467.729-1.467 3.113V45.01q0 2.385 1.467 3.113a12.05 12.05 0 008.251 0q1.497-.728 1.497-3.113zM258.436 19.836V4.45h5.587v41.258q0 8.392-11.185 8.392t-11.185-8.392V28.227q0-8.391 11.185-8.391zm0 25.174V25.054h-5.598a9.465 9.465 0 00-4.131.729q-1.466.728-1.466 3.113V45.01q0 2.385 1.466 3.113c2.665.971 5.587.971 8.252 0 .988-.489 1.477-1.527 1.477-3.113zM282.552 19.137q11.195 0 11.195 8.392v11.744h-16.782v5.737q0 2.385 1.466 3.113c2.665.971 5.587.971 8.252 0q1.467-.728 1.467-3.113v-2.105h5.597v2.793q0 8.392-11.195 8.392t-11.215-8.382V27.529q0-8.392 11.215-8.392zm-5.587 14.897h11.185v-5.807q0-2.374-1.467-3.113a11.891 11.891 0 00-8.252 0q-1.466.729-1.466 3.113z"/></g></svg>