<svg xmlns="http://www.w3.org/2000/svg" viewBox="0 0 585.44 150.1" height="44" width="177"><defs><style>.cls-1{fill:#2947de}</style></defs><g id="Livello_2" data-name="Livello 2"><g id="Layer_3" data-name="Layer 3"><path class="cls-1" d="M276 89q0 9.72-7 15.32T249.47 110a45.73 45.73 0 01-20.33-4.32V91.49a83.48 83.48 0 0012.3 4.57 36.21 36.21 0 009.21 1.33c3.34 0 5.91-.64 7.69-1.92a6.53 6.53 0 002.68-5.7 6.24 6.24 0 00-1.18-3.77 13.15 13.15 0 00-3.46-3.17 89.52 89.52 0 00-9.31-4.83 44.15 44.15 0 01-9.88-6 22.38 22.38 0 01-5.25-6.63 18.92 18.92 0 01-2-8.84q0-9.54 6.46-15t17.86-5.45A41.9 41.9 0 01265 37.46a73.47 73.47 0 0110.64 3.73L270.7 53a71.51 71.51 0 00-9.51-3.29 30.68 30.68 0 00-7.39-.94c-2.88 0-5.1.68-6.63 2a6.63 6.63 0 00-2.31 5.25 6.54 6.54 0 00.93 3.52 10.29 10.29 0 003 2.9 92.29 92.29 0 009.66 5q10.06 4.82 13.8 9.65A18.84 18.84 0 01276 89zM322.67 109l-2.9-7.46h-.39a22.18 22.18 0 01-7.79 6.6 25.14 25.14 0 01-10.44 1.86q-7.9 0-12.45-4.51t-4.54-12.88q0-8.73 6.11-12.89t18.45-4.59l9.53-.3v-2.45q0-8.34-8.55-8.35-6.58 0-15.47 4l-5-10.12a44.61 44.61 0 0121-5q11.06 0 16.95 4.81t5.89 14.64V109zm-4.42-25.44l-5.8.19q-6.52.19-9.72 2.36a7.4 7.4 0 00-3.2 6.58q0 6.35 7.27 6.34a11.5 11.5 0 008.33-3 10.51 10.51 0 003.12-8zM371.7 98a32.69 32.69 0 009.43-1.72v11.15a33.64 33.64 0 01-13.76 2.5q-9 0-13.09-4.54t-4.1-13.63V65.31H343V59l8.25-5 4.33-11.59h9.57v11.65h15.38v11.25h-15.37v26.48A5.82 5.82 0 00367 96.5a7 7 0 004.7 1.5zM391.59 39.86q0-7.32 8.16-7.32t8.15 7.32a7.13 7.13 0 01-2 5.43c-1.35 1.3-3.39 1.94-6.11 1.94q-8.2 0-8.2-7.37zM407.22 109h-15V54.06h15zM461.84 109l-2-7H459a15.79 15.79 0 01-6.83 5.92 23.3 23.3 0 01-10.03 2.08q-9.67 0-14.59-5.18t-4.91-14.91V54.06h15v32.08q0 5.94 2.12 8.91c1.4 2 3.65 3 6.73 3q6.28 0 9.08-4.2t2.81-13.93V54.06h15V109zM519.71 53a24.49 24.49 0 015.06.44l-1.13 14a17 17 0 00-4.42-.49q-7.17 0-11.17 3.68T504 81v28h-15V54.06h11.35l2.21 9.24h.73a20.78 20.78 0 016.91-7.45 17 17 0 019.51-2.85zM585.44 109h-15V76.9c0-4-.71-6.93-2.11-8.91s-3.66-3-6.73-3c-4.2 0-7.22 1.41-9.09 4.21s-2.8 7.44-2.8 13.92V109h-15V54.06h11.45l2 7h.84a15.8 15.8 0 016.9-6 23.51 23.51 0 0110-2q9.59 0 14.54 5.18t5 15zM47.66 103a259.78 259.78 0 0045.27-1.36 3.4 3.4 0 001.8-.78c1.06-.87 1.4-1.71.25-2.81a3.3 3.3 0 00-2-.87 121.36 121.36 0 01-27.29-5.55c-1.28-.44-2.56-.92-3.81-1.42C46.36 83.89 38.67 65.16 45.1 49c0-.07 0-.13.08-.19.11-.3.24-.61.36-.9s.27-.62.41-.93l.11-.24c.18-.39.37-.77.55-1.16 9.8-20.42 29.89-34.41 53.05-34.41 18.26 0 34.6 8.71 45.5 22.39 1.87.07 3.74.16 5.62.29h.34c2.62.18 5.24.43 7.82.74C146.55 13.82 124.65 0 99.67 0 70.91 0 46.2 18.27 35.43 44.43 15.12 51.05-.5 61 0 75.92c.52 15.35 16 22.55 34.72 25.58l.6.1c3.79.59 7.7 1 11.66 1.3.22.03.45.1.68.1z"/><path class="cls-1" d="M151.35 47.14a260.74 260.74 0 00-45.27 1.36 3.47 3.47 0 00-1.8.78c-1.06.87-1.4 1.72-.25 2.81a3.25 3.25 0 002 .87 121.08 121.08 0 0127.29 5.56c1.28.44 2.55.91 3.81 1.42 15.52 6.27 23.21 25 16.78 41.18 0 .06 0 .12-.08.19-.12.29-.25.6-.36.89s-.27.63-.41.93c0 .08-.07.16-.11.25-.19.38-.37.77-.55 1.15-9.8 20.47-29.89 34.47-53.06 34.41-18.26 0-34.59-8.7-45.49-22.39-1.87-.07-3.75-.16-5.62-.28h-.34c-2.62-.18-5.24-.43-7.82-.74 12.39 20.78 34.29 34.59 59.27 34.6 28.76 0 53.47-18.27 64.24-44.42 20.31-6.62 35.93-16.57 35.42-31.49-.52-15.35-16-22.55-34.71-25.59l-.6-.1c-3.8-.59-7.71-1-11.66-1.3z"/></g></g></svg>