<svg height="200pt" viewBox="0 0 200 200" width="200pt" xmlns="http://www.w3.org/2000/svg"><g fill="#1975d2"><path d="m22.027344.195312c-6.660156.726563-11.542969 2.816407-15.277344 6.554688-3.554688 3.550781-5.558594 8.027344-6.46875 14.394531-.2070312 1.460938-.21875 5.296875-.21875 78.855469s.0117188 77.394531.21875 78.855469c.910156 6.367187 2.914062 10.84375 6.46875 14.394531 3.550781 3.554688 8.027344 5.558594 14.394531 6.46875 1.460938.207031 5.296875.21875 78.855469.21875s77.394531-.011719 78.855469-.21875c6.367187-.910156 10.84375-2.914062 14.394531-6.46875 3.554688-3.550781 5.558594-8.027344 6.46875-14.394531.207031-1.460938.21875-5.296875.21875-78.855469s-.011719-77.394531-.21875-78.855469c-.910156-6.367187-2.914062-10.84375-6.46875-14.394531-3.527344-3.515625-7.855469-5.484375-14.269531-6.46875-1.339844-.2070312-5.582031-.21875-78.425781-.2304688-63.921876-.0273437-77.273438 0-78.527344.1445308zm23.640625 61.453126c2.914062.378906 5.664062 1.019531 7.902343 1.855468.640626.234375 1.007813.453125 1.351563.835938 1.5 1.621094.503906 4.425781-1.65625 4.707031-.347656.039063-.949219-.097656-2.191406-.492187-3.601563-1.15625-5.800781-1.5-9.710938-1.5-2.222656 0-3.058593.050781-3.921875.222656-2.800781.566406-4.582031 1.390625-5.984375 2.777344-1.378906 1.378906-1.832031 2.460937-1.832031 4.390624 0 1.917969.628906 3.171876 2.164062 4.335938 1.734376 1.304688 3.417969 1.945312 9.023438 3.394531 7.730469 2.003907 9.894531 2.816407 12.292969 4.632813 1.976562 1.476562 3.367187 3.492187 3.945312 5.691406.367188 1.414062.464844 4.207031.171875 5.605469-.75 3.726562-3.453125 6.984375-7.253906 8.71875-2.972656 1.363281-5.863281 1.914062-9.945312 1.878906-5.261719-.050781-9.339844-.824219-13.964844-2.628906-1.695313-.664063-2.285156-1.070313-2.800782-1.929688-.859374-1.488281-.0625-3.578125 1.5625-4.070312.808594-.234375 1.324219-.160157 2.9375.464843 3.847657 1.488282 6.378907 2.054688 10.59375 2.363282 2.1875.160156 4.609376.011718 6.480469-.394532 4.3125-.933593 6.453125-3.234374 6.464844-6.957031.011719-1.019531-.023437-1.191406-.394531-1.929687-.808594-1.648438-2.753906-2.890625-6.242188-3.996094-1.070312-.332031-3.394531-1.007812-5.175781-1.488281-7.71875-2.078125-10.398437-3.269531-13.019531-5.789063-2.089844-2.003906-2.984375-4.289062-2.984375-7.546875 0-5.484375 3.269531-9.933593 8.910156-12.144531 1.277344-.503906 3.503906-1.019531 5.066406-1.195312 1.535157-.15625 6.453125-.046876 8.210938.1875zm38.769531.550781c3.417969.210937 5.640625.675781 8.1875 1.710937 3.738281 1.535156 7.597656 4.792969 9.820312 8.296875 1.699219 2.667969 2.964844 6.230469 3.457032 9.722657.242187 1.734374.257812 5.003906.011718 6.699218-.417968 2.9375-1.511718 6.160156-2.914062 8.605469-3.074219 5.371094-8.296875 9.207031-14.199219 10.4375-2.347656.476563-3.230469.515625-11.910156.476563-9.257813-.035157-8.65625.015624-9.515625-.859376-.882812-.898437-.8125 1.167969-.773438-21.855468.023438-12.441406.085938-20.898438.160157-21.167969.183593-.714844.824219-1.476563 1.574219-1.855469l.675781-.332031h6.699219c3.6875 0 7.621093.0625 8.726562.121094zm47.3125 11.828125c.605469.332031 15.796875 15.4375 16.105469 16.003906.257812.503906.257812 1.621094-.011719 2.113281-.113281.222657-3.640625 3.847657-7.832031 8.078125-5.371094 5.417969-7.792969 7.765625-8.160157 7.941406-1.242187.601563-2.914062-.015624-3.382812-1.253906-.195312-.519531-.160156-1.515625.0625-1.96875.109375-.222656 3.21875-3.417968 6.910156-7.128906l6.722656-6.726562-6.847656-6.855469c-5.164062-5.164063-6.859375-6.933594-6.921875-7.21875-.035156-.207031-.097656-.464844-.121093-.578125-.074219-.429688.207031-1.300782.578124-1.757813.75-.894531 1.953126-1.167969 2.898438-.648437zm-11.75.710937c.699219.257813 1.648438 1.105469 1.980469 1.796875.292969.574219.441406 1.730469.332031 2.542969-.257812 1.855469-1.636719 3.132813-3.503906 3.257813-1.757813.109374-3.023438-.429688-3.886719-1.671876-.785156-1.117187-.894531-2.914062-.246094-4.179687.320313-.640625 1.367188-1.5625 2.015625-1.78125.789063-.285156 2.507813-.257813 3.308594.035156zm.148438 26.304688c.859374.445312 1.746093 1.464843 1.992187 2.300781.269531.921875.183594 2.261719-.1875 3.035156-.6875 1.414063-1.964844 2.164063-3.699219 2.164063-2.765625 0-4.472656-1.980469-4.042968-4.660157.207031-1.351562 1.09375-2.445312 2.421874-2.972656.859376-.34375 2.691407-.285156 3.515626.132813zm56.679687 2.890625c.75.46875 1.167969 1.203125 1.167969 2.066406 0 1.363281-.933594 2.335938-2.371094 2.480469-.417969.039062-5.519531.0625-11.335938.039062-11.761718-.039062-10.914062.023438-11.714843-.886719-1.179688-1.351562-.539063-3.488281 1.207031-3.980468.269531-.085938 4.363281-.125 11.441406-.113282l11.015625.027344zm-141.769531 41.328125c.121094.109375.222656.320312.222656.480469 0 .441406-.445312.664062-1.316406.664062h-.773438v11.921875h.835938c.699218 0 .882812.050781 1.066406.246094.1875.195312.210938.320312.113281.589843l-.113281.332032-1.484375.035156c-1.316406.027344-1.5.015625-1.6875-.195312-.195313-.222657-.207031-.773438-.183594-7.019532l.039063-6.796875.292968-.234375c.394532-.320312 2.632813-.34375 2.988282-.023437zm50.769531.121093c.207031.1875.21875.542969.21875 6.023438 0 5.65625-.011719 5.828125-.246094 6.0625-.132812.132812-.34375.246094-.476562.246094-.371094 0-.875-.480469-.875-.824219v-.320313l-.269531.257813c-.566407.515625-1.574219.886719-2.457032.886719-1.648437 0-2.953125-.8125-3.691406-2.3125-.378906-.773438-.402344-.898438-.402344-2.175782 0-1.230468.035156-1.414062.34375-2.050781 1.128906-2.300781 3.894532-3.125 5.839844-1.746093l.574219.417968.0625-2.078125c.050781-1.820312.085937-2.113281.296875-2.335937.28125-.308594.773437-.332032 1.082031-.050782zm-26.515625.222657c.40625.394531.40625.957031-.011719 1.375-.246093.246093-.382812.296875-.703125.234375-.796875-.160156-1.09375-1.042969-.515625-1.609375.160157-.171875.441407-.308594.613281-.308594.171876 0 .457032.136719.617188.308594zm63.316406-.136719c.210938.160156.234375.382812.296875 2.335938l.0625 2.152343.613281-.40625c2.039063-1.375 4.695313-.515625 5.816407 1.867188.292969.617187.328125.851562.328125 1.992187 0 1.144532-.035156 1.378906-.328125 1.992188-.457031.984375-1.339844 1.84375-2.265625 2.1875-.589844.222656-.894532.257812-1.707032.222656-1.042968-.0625-1.597656-.257812-2.175781-.8125-.34375-.320312-.34375-.320312-.34375-.035156 0 .34375-.515625.871094-.859375.871094-.136718 0-.394531-.132813-.554687-.308594l-.308594-.292969v-2.753906c0-1.511719.039063-4.09375.085937-5.742188.074219-2.664062.101563-3.011719.308594-3.21875.269532-.269531.699219-.28125 1.03125-.050781zm31.875.273438c.234375.304687.257813.488281.257813 2.445312v2.125l.800781-.527344c1.203125-.8125 2.027344-.972656 3.195312-.628906.773438.246094 1.464844.921875 1.796876 1.796875.230468.625.257812.898437.246093 3.550781-.015625 1.574219-.074219 2.976563-.136719 3.085938-.183593.34375-.726562.417968-1.09375.148437l-.320312-.234375-.0625-2.949218c-.046875-2.53125-.085938-2.988282-.28125-3.269532-.34375-.527344-.886719-.738281-1.683594-.664062-.847656.074218-1.339844.308594-1.96875.957031l-.476562.492187-.039063 2.691407c-.035156 2.347656-.0625 2.730469-.246093 2.902343-.320313.320313-.945313.269532-1.242188-.085937-.230469-.28125-.246094-.429687-.171875-5.9375.0625-4.816406.097656-5.679687.273437-5.925781.269532-.40625.820313-.390625 1.152344.027344zm10.621094-.1875c.148438.085937.308594.210937.359375.285156.046875.074218.097656 3.195312.097656 6.917968 0 8.089844.195313 7.292969-1.808593 7.292969-1.402344 0-1.757813-.136719-1.757813-.652343 0-.503907.34375-.703126 1.230469-.703126h.824218l.074219-5.847656c.046875-3.210937.058594-5.902344.023438-5.964844-.050781-.058593-.457031-.109374-.910157-.109374-.898437 0-1.117187-.125-1.117187-.601563 0-.601563.292969-.75 1.558594-.75.640625 0 1.277343.0625 1.425781.132813zm-56.667969.199218c.773438.871094-.378906 2.136719-1.277343 1.398438-.355469-.28125-.382813-.992188-.050782-1.363282.285156-.320312 1.046875-.332031 1.328125-.035156zm-67.398437 3.058594c1.042968.246094 1.351562.457031 1.351562.910156 0 .664063-.46875.875-1.351562.617188-.703125-.210938-2.238282-.175782-2.679688.046875-.640625.332031-.835937.960937-.40625 1.351562.121094.113281.921875.417969 1.769532.675781.898437.273438 1.769531.617188 2.066406.824219 1.632812 1.132813 1.066406 3.589844-.960938 4.179688-1.414062.417969-4.042968-.046875-4.609375-.824219-.183593-.246094-.207031-.367188-.109375-.636719.160156-.429687.613282-.53125 1.242188-.285156 1.238281.492187 3.035156.480469 3.476562-.023437.269532-.320313.320313-.726563.125-.996094-.160156-.234375-.566406-.394532-2.496094-.921875-1.425781-.394531-2.324218-1.300781-2.335937-2.347657-.011719-2.089843 2.152344-3.21875 4.917969-2.570312zm4.105468.199219c.097657.160156.589844 1.621093 1.082032 3.257812.488281 1.644531.921875 2.984375.957031 2.984375.039063 0 .480469-1.339844.984375-2.984375.613281-2.003906 1.007812-3.0625 1.191406-3.257812.367188-.371094.933594-.359375 1.242188.023437.121094.160156.640625 1.636719 1.128906 3.257813.492188 1.632812.949219 2.925781.996094 2.875.050781-.058594.503906-1.449219 1.023437-3.109375.5625-1.820313 1.019531-3.074219 1.140625-3.171875.492188-.355469 1.265625.023437 1.265625.628906 0 .257813-1.558593 4.941406-2.285156 6.882813-.441406 1.144531-1.105469 1.5-1.808594.933593-.269531-.195312-.476562-.738281-1.128906-2.789062-.441406-1.402344-.847656-2.65625-.910156-2.777344-.0625-.1875-.296875.390625-.847657 2.148437-.960937 3-1.117187 3.34375-1.636718 3.554688-.34375.148438-.441406.132812-.835938-.074219-.441406-.234375-.453125-.269531-1.695312-3.921875-.6875-2.027344-1.253906-3.796875-1.253906-3.945312-.023438-.675782 1.03125-1.070313 1.390624-.515625zm14.011719-.011719.320313.242188v3.898437c0 3.8125 0 3.882813-.269532 4.167969-.320312.34375-.714843.355468-1.09375.046875-.285156-.21875-.296874-.332031-.332031-1.816407-.027343-.863281-.011719-2.644531.035157-3.960937.074218-2.089844.125-2.40625.320312-2.605469.308594-.304687.613281-.292968 1.019531.027344zm7.5-.039062c.871094.246093 1.289063.6875 1.070313 1.117187-.234375.433594-.53125.503906-1.253906.320313-.851563-.234376-2.089844-.234376-2.632813-.011719-.835937.355469-1.007813 1.242187-.320313 1.597656.171876.097656.933594.34375 1.671876.554687 2.078124.589844 2.777343 1.191407 2.867187 2.433594.121094 1.867188-1.5625 2.9375-4.132813 2.617188-1.105468-.148438-2.222656-.578125-2.382812-.933594-.199219-.417969-.027344-.898438.332031-.984375.183594-.046875.648438.027344 1.140625.183594.863282.285156 1.894532.359375 2.570313.210937.46875-.109375.898437-.589844.898437-1.007812 0-.417969-.429687-.652344-1.917968-1.058594-2.003907-.539062-2.667969-.980469-3-2.003906-.28125-.847656.234374-2.1875 1.058593-2.714844.847657-.566406 2.652344-.699219 4.03125-.320312zm8.273438.074218c.699219.222656.957031.527344.847656 1.007813-.125.492187-.542969.601562-1.453125.367187-1.769531-.441406-3.167969-.035156-3.167969.898438 0 .503906.257813.714844 1.265625 1.007812 2.015625.578125 2.46875.773438 2.910156 1.167969.617188.554687.777344.996094.714844 1.894531-.0625.910156-.492187 1.511719-1.402344 1.964844-.527343.273438-.75.308594-1.832031.296875-1.007812 0-1.398437-.0625-2.148437-.332031-.503906-.183594-.996094-.429688-1.082032-.542969-.234374-.332031-.136718-.796875.234376-1.007813.292968-.160156.402343-.144531 1.203124.113282 1.488282.476562 3.132813.316406 3.378907-.308594.148437-.40625.074219-.800781-.195313-.972656-.160156-.097656-.933594-.367188-1.722656-.601563-2.246094-.652343-2.925781-1.242187-2.925781-2.53125 0-1.21875.628906-2.078125 1.84375-2.519531.691406-.246094 2.582031-.199219 3.53125.097656zm19.027343.183594c1.277344.628906 2.113282 1.980469 2.175782 3.527344.023437.589844-.011719.726562-.257813.921875-.257812.210937-.527343.234375-3.207031.234375h-2.925781l.121093.457031c.171876.648437.640626 1.214844 1.242188 1.535156.726562.367188 2.335938.367188 3.257812 0 .796876-.332031.945313-.332031 1.253907-.023437.601562.601562.148437 1.191406-1.253907 1.609375-.703124.222656-1.082031.246093-2.164062.207031-1.5-.058594-2.1875-.316406-3-1.167969-1.425781-1.460937-1.511719-4.523437-.183594-6.28125 1.105469-1.460937 3.171875-1.890625 4.941406-1.019531zm4.386719-.121094c.210938.171875.640625 1.117188 1.527344 3.378906.664063 1.722657 1.253906 3.097657 1.289063 3.050782.039062-.050782.613281-1.441406 1.265624-3.097656.664063-1.660157 1.292969-3.113282 1.390626-3.234376.28125-.308593.957031-.269531 1.191406.0625.109375.144532.195312.355469.195312.464844 0 .097656-.699218 1.855469-1.558594 3.910156-1.4375 3.453126-1.597656 3.75-1.957031 3.921876-.464843.21875-1.152343.132812-1.4375-.183594-.21875-.246094-3.160156-7.402344-3.160156-7.695313 0-.257812.542969-.8125.777344-.8125.097656 0 .304687.109375.476562.234375zm18.574219.230469c.921875.457031 1.464844 1.023437 1.917969 1.992187.285156.601563.320312.824219.320312 2.03125 0 1.226563-.035156 1.425782-.34375 2.089844-.675781 1.4375-1.917969 2.261719-3.601562 2.371094-1.894531.121094-3.464844-.726562-4.191407-2.273438-1.191406-2.546874-.0625-5.644531 2.347657-6.429687 1.144531-.382813 2.507812-.296875 3.550781.21875zm19.65625-.085937c.675781.199218.847656.296874.910156.53125.199219.796874-.257812 1.117187-1.214844.859374-.824218-.222656-2.078124-.222656-2.609374 0-.527344.222657-.847657.714844-.746094 1.117188.097656.382812.21875.445312 1.855468.921875 1.546876.457031 2.078126.703125 2.542969 1.195313 1.167969 1.226562.480469 3.316406-1.277343 3.847656-1.574219.464844-4.683594-.171875-4.78125-.984375-.050782-.429688.023437-.613281.320312-.8125.292969-.195313.355469-.183594 1.007812.0625 1.546876.589843 3.316407.441406 3.601563-.308594.28125-.722656-.027344-.957031-1.871094-1.449219-1.460937-.382812-2.027343-.664062-2.53125-1.230468-.640625-.738282-.664062-1.71875-.074219-2.738282.738282-1.269531 2.632813-1.660156 4.867188-1.011718zm-28.273438-.046876c.210938.183594.222657.515626.222657 5.496094 0 4.878906-.023438 5.332032-.234375 5.789063-.40625.894531-1.140625 1.242187-2.371094 1.128906-1.09375-.097656-1.523438-.625-.960938-1.191406.1875-.183594.40625-.246094.910157-.246094.46875 0 .714843-.0625.824219-.207031.136718-.160156.183593-1.242188.234374-5.410156.0625-4.992188.074219-5.226563.296876-5.398438.316406-.230469.796874-.21875 1.078124.039062zm41.269532-.011718c.992187.269531 1.671875.773437 1.671875 1.203125 0 .234375-.113281.429687-.320313.601562l-.332031.234375-.773437-.34375c-.972657-.441406-2.078126-.46875-2.964844-.074218-1.511719.664062-2.027344 2.988281-1.007813 4.460937.699219 1.023437 2.558594 1.425781 3.847657.851563.675781-.308594 1.144531-.308594 1.425781 0 .503906.5625-.0625 1.152343-1.585938 1.621093-1.632812.503907-3.441406.0625-4.632812-1.117187-.972657-.984375-1.253907-1.773438-1.191407-3.332032.035157-.847656.121094-1.328124.304688-1.746093.480469-1.070313 1.832031-2.152344 3.035156-2.445313.664063-.148437 1.820313-.125 2.523438.085938zm-8.214844 6.722656c1.046875.800781.015625 2.410156-1.152344 1.78125-.652344-.34375-.789062-1.128906-.273437-1.632812.332031-.34375 1.082031-.417969 1.425781-.148438zm0 0"/><path d="m72.734375 74.136719c-.046875 3.464843-.085937 11.273437-.085937 17.34375v11.039062h5.445312c5.777344 0 7.289062-.097656 9.28125-.601562 3.539062-.910157 6.34375-2.582031 8.628906-5.136719 1.046875-1.167969 1.625-2.054688 2.335938-3.554688 1.191406-2.46875 1.746094-5.078124 1.734375-8.222656-.011719-6.824218-3.222657-12.230468-8.984375-15.121094-1.5625-.773437-2.78125-1.191406-4.734375-1.621093-1.449219-.320313-1.5625-.320313-7.511719-.371094l-6.035156-.058594zm0 0"/><path d="m80.847656 150.523438c-1.214844.429687-1.867187 1.855468-1.574218 3.453124.273437 1.425782 1.144531 2.140626 2.605468 2.140626.875 0 1.527344-.246094 2.175782-.789063l.394531-.34375v-3.503906l-.550781-.390625c-1.007813-.726563-2.066407-.925782-3.050782-.566406zm0 0"/><path d="m124.574219 150.632812c-.285157.085938-.777344.34375-1.082031.566407l-.566407.40625v1.746093c0 1.730469 0 1.730469.34375 2.050782.726563.675781 1.832031 1.007812 2.816407.824218 1.277343-.246093 2.003906-1.230468 2.003906-2.730468 0-1.117188-.199219-1.746094-.738282-2.308594-.652343-.691406-1.683593-.898438-2.777343-.554688zm0 0"/><path d="m91.089844 150.484375c-.605469.320313-.925782.691406-1.167969 1.402344l-.160156.480469 2.285156.0625c1.265625.035156 2.347656.023437 2.410156-.027344.046875-.035156.035157-.269532-.050781-.515625-.453125-1.390625-2.027344-2.050781-3.316406-1.402344zm0 0"/><path d="m114.359375 150.472656c-1.058594.199219-1.648437.761719-2.003906 1.882813-.234375.722656-.085938 2.0625.292969 2.714843 1.046874 1.769532 3.910156 1.574219 4.683593-.332031.269531-.6875.285157-2.089843.011719-2.742187-.476562-1.140625-1.707031-1.769532-2.984375-1.523438zm0 0"/></g></svg>