<svg height="200pt" viewBox="0 0 200 200" width="200pt" xmlns="http://www.w3.org/2000/svg"><g fill="#1975d2"><path d="M22.027.195C15.367.922 10.484 3.012 6.75 6.75 3.195 10.3 1.191 14.777.281 21.145.074 22.605.062 26.44.062 100s.012 77.395.22 78.855c.91 6.368 2.913 10.844 6.468 14.395 3.55 3.555 8.027 5.559 14.395 6.469 1.46.207 5.296.219 78.855.219s77.395-.012 78.855-.22c6.368-.91 10.844-2.913 14.395-6.468 3.555-3.55 5.559-8.027 6.469-14.395.207-1.46.219-5.296.219-78.855s-.012-77.395-.22-78.855c-.91-6.368-2.913-10.844-6.468-14.395-3.527-3.516-7.855-5.484-14.27-6.469-1.34-.207-5.582-.219-78.425-.23C36.633.023 23.28.05 22.027.195zm23.641 61.453c2.914.38 5.664 1.02 7.902 1.856.64.234 1.008.453 1.352.836 1.5 1.62.504 4.426-1.656 4.707-.348.039-.95-.098-2.192-.492-3.601-1.157-5.8-1.5-9.71-1.5-2.223 0-3.06.05-3.923.222-2.8.567-4.582 1.391-5.984 2.778-1.379 1.379-1.832 2.46-1.832 4.39 0 1.918.629 3.172 2.164 4.336 1.734 1.305 3.418 1.946 9.024 3.395 7.73 2.004 9.894 2.816 12.292 4.633 1.977 1.476 3.368 3.492 3.946 5.691.367 1.414.465 4.207.172 5.605-.75 3.727-3.453 6.985-7.254 8.72-2.973 1.362-5.864 1.913-9.946 1.878-5.261-.05-9.34-.824-13.964-2.629-1.696-.664-2.286-1.07-2.801-1.93-.86-1.488-.063-3.578 1.562-4.07.809-.234 1.325-.16 2.938.465 3.847 1.488 6.379 2.055 10.594 2.363 2.187.16 4.609.012 6.48-.394 4.313-.934 6.453-3.235 6.465-6.957.012-1.02-.024-1.192-.395-1.93-.808-1.648-2.754-2.89-6.242-3.996a177.85 177.85 0 00-5.176-1.488c-7.718-2.078-10.398-3.27-13.02-5.79-2.089-2.003-2.984-4.288-2.984-7.546 0-5.485 3.27-9.934 8.91-12.145 1.278-.504 3.505-1.02 5.067-1.195 1.535-.156 6.453-.047 8.211.187zm38.77.551c3.417.211 5.64.676 8.187 1.711 3.738 1.535 7.598 4.793 9.82 8.297 1.7 2.668 2.965 6.23 3.457 9.723.243 1.734.258 5.004.012 6.699-.418 2.937-1.512 6.16-2.914 8.605-3.074 5.371-8.297 9.207-14.2 10.438-2.347.476-3.23.516-11.91.476-9.257-.035-8.656.016-9.515-.859-.883-.898-.813 1.168-.773-21.855.023-12.442.085-20.899.16-21.168.183-.715.824-1.477 1.574-1.856l.676-.332h6.699c3.687 0 7.621.063 8.726.121zm47.312 11.828c.605.332 15.797 15.438 16.105 16.004.258.504.258 1.621-.011 2.114-.114.222-3.64 3.847-7.832 8.078-5.371 5.418-7.793 7.765-8.16 7.941-1.243.602-2.915-.016-3.383-1.254-.196-.52-.16-1.515.062-1.969.11-.222 3.219-3.418 6.91-7.129l6.723-6.726-6.848-6.856c-5.164-5.164-6.859-6.933-6.921-7.218-.036-.207-.098-.465-.122-.578-.074-.43.207-1.301.579-1.758.75-.895 1.953-1.168 2.898-.649zm-11.75.711c.7.258 1.648 1.106 1.98 1.797.293.574.442 1.73.332 2.543-.257 1.856-1.636 3.133-3.503 3.258-1.758.11-3.024-.43-3.887-1.672-.785-1.117-.895-2.914-.246-4.18.32-.64 1.367-1.562 2.015-1.78.79-.286 2.508-.259 3.309.034zm.148 26.305c.86.445 1.747 1.465 1.993 2.3.27.923.183 2.262-.188 3.036-.687 1.414-1.965 2.164-3.7 2.164-2.765 0-4.472-1.98-4.042-4.66.207-1.352 1.094-2.445 2.422-2.973.86-.344 2.691-.285 3.515.133zm56.68 2.89c.75.47 1.168 1.204 1.168 2.067 0 1.363-.934 2.336-2.371 2.48-.418.04-5.52.063-11.336.04-11.762-.04-10.914.023-11.715-.887-1.18-1.352-.539-3.488 1.207-3.98.27-.087 4.364-.126 11.442-.114l11.015.027zm-141.77 41.329c.122.11.223.32.223.48 0 .442-.445.664-1.316.664h-.774v11.922h.836c.7 0 .883.05 1.067.246.187.196.21.32.113.59l-.113.332-1.485.035c-1.316.028-1.5.016-1.687-.195-.195-.223-.207-.774-.184-7.02l.04-6.796.292-.235c.395-.32 2.633-.344 2.989-.023zm50.77.12c.207.188.219.544.219 6.024 0 5.656-.012 5.828-.246 6.063-.133.133-.344.246-.477.246-.37 0-.875-.48-.875-.824v-.32l-.27.257c-.566.516-1.574.887-2.456.887-1.649 0-2.953-.813-3.692-2.313-.379-.773-.402-.898-.402-2.175 0-1.23.035-1.415.344-2.051 1.129-2.301 3.894-3.125 5.84-1.746l.574.418.062-2.078c.051-1.82.086-2.114.297-2.336a.773.773 0 011.082-.051zm-26.516.223c.407.395.407.958-.011 1.375-.246.247-.383.297-.703.235-.797-.16-1.094-1.043-.516-1.61.16-.171.441-.308.613-.308s.457.137.618.308zm63.317-.136c.21.16.234.383.297 2.336l.062 2.152.614-.406c2.039-1.375 4.695-.516 5.816 1.867.293.617.328.852.328 1.992 0 1.145-.035 1.38-.328 1.992-.457.985-1.34 1.844-2.266 2.188-.59.222-.894.258-1.707.222-1.043-.062-1.597-.257-2.175-.812-.344-.32-.344-.32-.344-.035 0 .344-.516.87-.86.87-.136 0-.394-.132-.554-.308l-.309-.293v-2.754c0-1.511.04-4.093.086-5.742.074-2.664.102-3.011.309-3.218.27-.27.699-.282 1.03-.051zm31.875.273c.234.305.258.488.258 2.446v2.125l.8-.528c1.204-.812 2.028-.972 3.196-.629.773.246 1.465.922 1.797 1.797.23.625.257.899.246 3.55-.016 1.575-.074 2.977-.137 3.087-.184.344-.726.418-1.094.148l-.32-.234-.063-2.95c-.046-2.53-.085-2.988-.28-3.269-.345-.527-.887-.738-1.684-.664-.848.074-1.34.309-1.97.957l-.476.492-.039 2.692c-.035 2.347-.062 2.73-.246 2.902-.32.32-.945.27-1.242-.086-.23-.281-.246-.43-.172-5.937.063-4.817.098-5.68.274-5.926.27-.406.82-.39 1.152.027zm10.621-.187c.148.086.309.21.36.285.046.074.097 3.195.097 6.918 0 8.09.195 7.293-1.809 7.293-1.402 0-1.757-.137-1.757-.653 0-.503.343-.703 1.23-.703h.824l.075-5.847c.046-3.211.058-5.903.023-5.965-.05-.059-.457-.11-.91-.11-.899 0-1.117-.125-1.117-.601 0-.602.293-.75 1.558-.75.64 0 1.278.062 1.426.133zm-56.668.199c.773.871-.379 2.137-1.277 1.398-.356-.28-.383-.992-.051-1.363.285-.32 1.047-.332 1.328-.035zm-67.398 3.059c1.043.246 1.351.457 1.351.91 0 .664-.469.875-1.351.617-.704-.211-2.239-.176-2.68.047-.64.332-.836.96-.406 1.351.12.114.922.418 1.77.676.898.274 1.769.617 2.066.824 1.632 1.133 1.066 3.59-.961 4.18-1.414.418-4.043-.047-4.61-.824-.183-.246-.207-.367-.11-.637.161-.43.614-.531 1.243-.285 1.238.492 3.035.48 3.477-.024.27-.32.32-.726.125-.996-.16-.234-.567-.394-2.496-.922-1.426-.394-2.325-1.3-2.336-2.347-.012-2.09 2.152-3.219 4.918-2.57zm4.105.199c.098.16.59 1.62 1.082 3.258.488 1.644.922 2.984.957 2.984.04 0 .48-1.34.984-2.984.614-2.004 1.008-3.063 1.192-3.258.367-.371.934-.36 1.242.023.121.16.64 1.637 1.129 3.258.492 1.633.95 2.926.996 2.875.05-.059.504-1.45 1.024-3.11.562-1.82 1.02-3.074 1.14-3.171.492-.356 1.266.023 1.266.629 0 .257-1.559 4.941-2.285 6.882-.442 1.145-1.106 1.5-1.809.934-.27-.195-.477-.738-1.129-2.789-.441-1.402-.848-2.656-.91-2.777-.063-.188-.297.39-.848 2.148-.96 3-1.117 3.344-1.636 3.555-.344.148-.442.133-.836-.074-.442-.235-.453-.27-1.696-3.922-.687-2.028-1.254-3.797-1.254-3.946-.023-.675 1.032-1.07 1.391-.515zM59.176 149l.32.242v3.899c0 3.812 0 3.882-.27 4.168-.32.343-.714.355-1.093.046-.285-.218-.297-.332-.332-1.816-.028-.863-.012-2.644.035-3.96.074-2.09.125-2.407.32-2.606.309-.305.614-.293 1.02.027zm7.5-.04c.87.247 1.289.688 1.07 1.118-.234.434-.531.504-1.254.32-.851-.234-2.09-.234-2.633-.011-.836.355-1.007 1.242-.32 1.597.172.098.934.344 1.672.555 2.078.59 2.777 1.191 2.867 2.434.121 1.867-1.562 2.937-4.133 2.617-1.105-.149-2.222-.578-2.382-.934-.2-.418-.028-.898.332-.984.183-.047.648.027 1.14.183.863.286 1.895.36 2.57.211.47-.109.899-.59.899-1.007 0-.418-.43-.653-1.918-1.059-2.004-.54-2.668-.98-3-2.004-.281-.848.234-2.187 1.059-2.715.847-.566 2.652-.699 4.03-.32zm8.273.075c.7.223.957.528.848 1.008-.125.492-.543.602-1.453.367-1.77-.441-3.168-.035-3.168.899 0 .504.258.714 1.265 1.007 2.016.579 2.47.774 2.91 1.168.618.555.778.996.715 1.895-.062.91-.492 1.512-1.402 1.965-.527.273-.75.308-1.832.297-1.008 0-1.398-.063-2.148-.332-.504-.184-.996-.43-1.082-.543a.694.694 0 01.234-1.008c.293-.16.402-.145 1.203.113 1.488.477 3.133.316 3.379-.309.148-.406.074-.8-.195-.972-.16-.098-.934-.367-1.723-.602-2.246-.652-2.926-1.242-2.926-2.531 0-1.219.63-2.078 1.844-2.52.691-.246 2.582-.199 3.531.098zm19.028.184c1.277.629 2.113 1.98 2.175 3.527.024.59-.011.727-.257.922-.258.21-.528.234-3.207.234h-2.926l.12.457c.173.649.641 1.215 1.243 1.536.727.367 2.336.367 3.258 0 .797-.333.945-.333 1.254-.024.601.602.148 1.191-1.254 1.61-.703.222-1.082.246-2.164.207-1.5-.06-2.188-.317-3-1.168-1.426-1.461-1.512-4.524-.184-6.282 1.106-1.46 3.172-1.89 4.942-1.02zm4.386-.121c.211.172.64 1.117 1.528 3.379.664 1.722 1.254 3.097 1.289 3.05.039-.05.613-1.441 1.265-3.097.664-1.66 1.293-3.114 1.39-3.235.282-.308.958-.27 1.192.063.11.144.196.355.196.465 0 .097-.7 1.855-1.559 3.91-1.437 3.453-1.598 3.75-1.957 3.922-.465.218-1.152.132-1.437-.184-.22-.246-3.16-7.402-3.16-7.695 0-.258.542-.813.777-.813.097 0 .304.11.476.235zm18.575.23c.921.457 1.464 1.024 1.917 1.992.286.602.32.825.32 2.032 0 1.226-.034 1.425-.343 2.09-.676 1.437-1.918 2.261-3.602 2.37-1.894.122-3.464-.726-4.19-2.273-1.192-2.547-.063-5.644 2.347-6.43 1.144-.382 2.508-.297 3.55.22zm19.656-.086c.676.2.847.297.91.531.2.797-.258 1.118-1.215.86-.824-.223-2.078-.223-2.61 0-.527.222-.847.715-.745 1.117.097.383.218.445 1.855.922 1.547.457 2.078.703 2.543 1.195 1.168 1.227.48 3.317-1.277 3.848-1.575.465-4.684-.172-4.782-.985-.05-.43.024-.613.32-.812.294-.195.356-.184 1.009.062 1.546.59 3.316.442 3.601-.308.281-.723-.027-.957-1.871-1.45-1.46-.382-2.027-.663-2.531-1.23-.64-.738-.664-1.719-.074-2.738.738-1.27 2.632-1.66 4.867-1.012zm-28.274-.047c.211.184.223.516.223 5.496 0 4.88-.023 5.332-.234 5.79-.407.894-1.141 1.242-2.371 1.128-1.094-.097-1.524-.625-.961-1.191.187-.184.406-.246.91-.246.468 0 .715-.063.824-.207.137-.16.184-1.242.234-5.41.063-4.993.075-5.227.297-5.399.317-.23.797-.219 1.078.04zm41.27-.011c.992.27 1.672.773 1.672 1.203 0 .234-.114.43-.32.601l-.333.235-.773-.344c-.973-.441-2.078-.469-2.965-.074-1.512.664-2.027 2.988-1.008 4.46.7 1.024 2.559 1.426 3.848.852.676-.308 1.144-.308 1.426 0 .504.563-.063 1.153-1.586 1.621-1.633.504-3.442.063-4.633-1.117-.973-.984-1.254-1.773-1.191-3.332.035-.848.12-1.328.304-1.746.48-1.07 1.832-2.152 3.035-2.445.664-.149 1.82-.125 2.524.086zm-8.215 6.722c1.047.801.016 2.41-1.152 1.781-.653-.343-.79-1.128-.274-1.632.332-.344 1.082-.418 1.426-.149zm0 0"/><path d="M72.734 74.137c-.046 3.465-.086 11.273-.086 17.343v11.04h5.446c5.777 0 7.289-.098 9.281-.602 3.54-.91 6.344-2.582 8.629-5.137 1.047-1.168 1.625-2.054 2.336-3.554 1.191-2.47 1.746-5.079 1.734-8.223-.011-6.824-3.222-12.23-8.984-15.121-1.563-.774-2.781-1.192-4.735-1.621-1.449-.32-1.562-.32-7.511-.371l-6.035-.059zm0 0M80.848 150.523c-1.215.43-1.868 1.856-1.575 3.454.274 1.425 1.145 2.14 2.606 2.14.875 0 1.527-.246 2.176-.789l.394-.344v-3.504l-.55-.39c-1.008-.727-2.067-.926-3.051-.567zm0 0M124.574 150.633c-.285.086-.777.344-1.082.566l-.566.406v1.747c0 1.73 0 1.73.344 2.05.726.676 1.832 1.008 2.816.825 1.277-.247 2.004-1.23 2.004-2.73 0-1.118-.2-1.747-.738-2.31-.653-.69-1.684-.898-2.778-.554zm0 0M91.09 150.484c-.606.32-.926.692-1.168 1.403l-.16.48 2.285.063c1.266.035 2.348.023 2.41-.028.047-.035.035-.27-.05-.515-.454-1.39-2.028-2.051-3.317-1.403zm0 0M114.36 150.473c-1.06.199-1.65.761-2.005 1.882-.234.723-.085 2.063.293 2.715 1.047 1.77 3.91 1.575 4.684-.332.27-.687.285-2.09.012-2.742-.477-1.14-1.707-1.77-2.985-1.523zm0 0"/></g></svg>