<svg xmlns="http://www.w3.org/2000/svg" xmlns:xlink="http://www.w3.org/1999/xlink" width="400px" height="80px" viewBox="0 0 276 25"><defs><path id="a" d="M0 24.21h276V0H0z"/></defs><g fill="none" fill-rule="evenodd"><mask id="b" fill="#fff"><use xlink:href="#a"/></mask><path fill="#000" d="M276 4.16V.337h-16.458V4.16h6.233v19.713h3.955V4.16H276zm-37.766 15.89v-6.633h6.456V9.594h-6.456V4.16h9.479V.337h-13.435v23.536h13.435v-3.822h-9.48zm-18.249 4.16V.338h-3.955v15.104L199.46 0v23.873h3.956V8.77l16.57 15.44zm-33.25-20.05V.337h-16.459V4.16h6.233v19.713h3.956V4.16h6.27zm-44.261 9.482V.337h-3.956v13.455c0 6.52 4.142 10.419 9.89 10.419 5.747 0 9.89-3.898 9.89-10.42V.338h-3.957v13.305c0 4.16-2.164 6.746-5.933 6.746-3.77 0-5.934-2.586-5.934-6.746zm-28.623-9.82c4.665 0 8.21 3.636 8.21 8.283 0 4.647-3.545 8.283-8.21 8.283-4.665 0-8.21-3.636-8.21-8.283 0-4.647 3.545-8.282 8.21-8.282zm0 20.389c6.83 0 12.166-5.285 12.166-12.106C126.017 5.285 120.68 0 113.85 0s-12.166 5.284-12.166 12.105c0 6.821 5.336 12.106 12.166 12.106zm-46.79-4.16v-6.634h6.457V9.594h-6.456V4.16h9.479V.337H63.106v23.536H76.54v-3.822h-9.48zm-22.203 3.822h3.955V.337h-3.955v9.257H33.139V.337h-3.955v23.536h3.955V13.417h11.719v10.456zM16.458 4.16V.337H0V4.16h6.232v19.713h3.956V4.16h6.27z" mask="url(#b)"/></g></svg>