<svg height="85" width="410" xmlns="http://www.w3.org/2000/svg"><clipPath id="a"><path d="M0 0h410v85H0z"/></clipPath><linearGradient id="b" gradientTransform="matrix(33.585 0 0 49.453 27.843 34.361)" gradientUnits="userSpaceOnUse" x1="0" x2=".741" y1=".5" y2="-.171"><stop offset="0" stop-color="#961959" stop-opacity=".907"/><stop offset=".332" stop-color="#d54c4f" stop-opacity="0"/></linearGradient><linearGradient id="c" gradientTransform="matrix(42.301 0 0 46.476 10.493 37.375)" gradientUnits="userSpaceOnUse" x1="0" x2=".873" y1=".5" y2=".012"><stop offset="0" stop-color="#b53254" stop-opacity=".467"/><stop offset=".196" stop-color="#d54c4f" stop-opacity="0"/></linearGradient><linearGradient id="d" gradientTransform="matrix(-33.511 58.043 -6.435 -3.715 59.853 21.275)" gradientUnits="userSpaceOnUse" x1="0" x2="1" y1=".5" y2=".5"><stop offset=".018" stop-color="#90145a"/><stop offset="1" stop-color="#d54c4f" stop-opacity="0"/></linearGradient><linearGradient id="e" gradientTransform="matrix(-37.569 65.071 -12.883 -7.438 53.452 17.579)" gradientUnits="userSpaceOnUse" x1="0" x2="1" y1=".5" y2=".5"><stop offset=".048" stop-color="#90145a"/><stop offset="1" stop-color="#d54c4f" stop-opacity="0"/></linearGradient><linearGradient id="f" gradientTransform="matrix(37.312 0 0 64.431 44.493 3)" gradientUnits="userSpaceOnUse" x1="0" x2="1" y1=".5" y2=".5"><stop offset=".096" stop-color="#90145a"/><stop offset="1" stop-color="#d54c4f" stop-opacity="0"/></linearGradient><g clip-path="url(#a)"><g fill-rule="evenodd"><path d="M54.746 7.351l.016.027.015-.027v.054L90 68.413H72.307L54.616 37.694l-18.43 32.13 10.257-4.844h8.288v3.382L28.142 83.849H10.493zM49.574 58.9l5.041-8.731 5.041 8.731z" fill="#e60b6d"/><path d="M27.843 83.814L36.06 81.4l25.367-42.337-4.197-4.702z" fill="url(#b)"/><path d="M10.493 83.849l15.951.002 26.35-46.476-15.558.278z" fill="url(#c)"/></g><path d="M53.452 17.579l4.517 6.959-29.128 50.14-8.934.924z" fill="url(#d)"/><path d="M53.452 17.579L37.19 16.324 3 75.212l16.904.39z" fill="url(#e)" fill-rule="evenodd"/><path d="M44.493 17.633L53.101 3l28.704 49.798-8.607 14.633z" fill="url(#f)" fill-rule="evenodd"/><path d="M112.23 51.356c-3.402 0-5.88-2.73-5.88-6.51v-10.92h-4.2v10.92c0 6.048 4.284 10.5 10.08 10.5s10.08-4.452 10.08-10.5v-10.92h-4.2v10.92c0 3.78-2.478 6.51-5.88 6.51zm43 3.57h3.78v-21h-4.2v14.49l-13.02-14.49h-3.78v21h4.2v-14.49zm23.68-21h-4.2v21h4.2v-8.61h12.6v8.61h4.2v-21h-4.2v8.61h-12.6zm35.062 21l1.722-4.2h11.088l1.722 4.2h4.536l-8.61-21h-6.3l-8.61 21zm3.276-7.98l3.78-9.24h.42l3.78 9.24zm46.822 7.98h3.78v-21h-4.2v14.49l-13.02-14.49h-3.78v21h4.2v-14.49zm29.98-21h-10.5v21h10.5c6.3 0 10.92-4.452 10.92-10.5 0-6.09-4.62-10.5-10.92-10.5zm-6.3 3.78h6.3c3.78 0 6.51 2.856 6.51 6.72 0 3.906-2.73 6.72-6.51 6.72h-6.3zm31.87 17.22h16.8v-3.78h-12.6v-17.22h-4.2zm51.61-17.22v-3.78h-20.58v21h20.58v-3.78h-16.38v-4.83h12.18v-3.78h-12.18v-4.83zm25.57-3.78h-10.5v21h10.5c6.3 0 10.92-4.452 10.92-10.5 0-6.09-4.62-10.5-10.92-10.5zm-6.3 3.78h6.3c3.78 0 6.51 2.856 6.51 6.72 0 3.906-2.73 6.72-6.51 6.72h-6.3z" fill="#e60b6d"/></g></svg>