<svg height="140" viewBox="0 0 570.706 140" width="570.706" xmlns="http://www.w3.org/2000/svg" xmlns:xlink="http://www.w3.org/1999/xlink"><clipPath id="a"><path d="m0 0h570.706v140h-570.706z"/></clipPath><g clip-path="url(#a)"><g fill="#231f20"><path d="m406.464 36.561-68.701.01v8.5h30.056v58.318h8.591v-58.318h30.054z"/><path d="m167.21 36.545h-9.676l-29.456 57.502-29.462-57.502h-9.668l34.35 66.911 4.781-.01 4.781.01z"/><path d="m570.615 103.422-34.32-66.892-9.611.019-34.329 66.873 9.64.034 29.491-57.539 29.461 57.501z"/><path d="m246.962 45.071v-8.526h-68.702v66.925h68.702v-8.593h-60.11v-20.607h42.926v-8.592h-42.926v-20.607z"/><path d="m297.604 103.428c11.256 0 21.407-3.972 28.615-10.34.227-.202.459-.4.679-.607l-6.939-5.314c-5.639 4.711-13.567 7.648-22.355 7.648-17.108 0-30.976-11.11-30.976-24.815 0-13.706 13.868-24.815 30.976-24.815 8.755 0 16.655 2.913 22.288 7.592l6.927-5.335c-7.24-6.68-17.647-10.871-29.215-10.871-21.866 0-39.592 14.966-39.592 33.429 0 18.462 17.726 33.428 39.592 33.428"/><path d="m426.107 45.153h41.255c5.668 0 10.262 4.554 10.262 10.222 0 5.469-4.281 9.991-9.672 10.303h-41.845zm60.109 10.222c0-10.413-8.441-18.814-18.854-18.814l-49.847-.008v.008 29.117 8.592 29.186h8.592v-29.186h35.511l14.957 29.186 9.641-.034-15.173-29.558c8.649-1.712 15.173-9.337 15.173-18.489z"/><path d="m565.135 41.751c.575 0 .985-.078 1.229-.236.246-.157.368-.41.368-.76 0-.376-.129-.649-.385-.822-.259-.172-.673-.258-1.243-.258h-.966v2.076zm1.364.563 1.417 2.857h-1.342l-1.274-2.669h-1.162v2.669h-1.186v-6.261h2.363c.875 0 1.532.144 1.972.431.44.288.66.716.66 1.286 0 .446-.127.818-.383 1.118-.254.3-.609.489-1.065.569zm3.517-.119c0-.67-.118-1.298-.354-1.886-.238-.588-.583-1.112-1.038-1.571-.454-.445-.98-.789-1.574-1.032-.596-.243-1.219-.363-1.87-.363-.657 0-1.274.116-1.854.352-.58.235-1.091.572-1.53 1.014-.464.464-.822.993-1.074 1.588-.252.596-.379 1.213-.379 1.853 0 .629.123 1.235.367 1.817.245.583.592 1.098 1.041 1.542.46.454.984.808 1.575 1.057.59.249 1.193.375 1.809.375.656 0 1.284-.12 1.884-.364.6-.242 1.135-.591 1.605-1.046.444-.44.787-.948 1.03-1.522.241-.575.362-1.179.362-1.814zm-4.836-5.572c.626 0 1.226.098 1.803.291.577.196 1.109.481 1.595.856.674.525 1.197 1.169 1.57 1.935.371.765.558 1.58.558 2.445 0 .749-.138 1.457-.412 2.125-.275.667-.675 1.254-1.2 1.759-.546.529-1.155.936-1.83 1.219-.674.282-1.369.422-2.084.422-.725 0-1.426-.141-2.104-.426-.677-.286-1.281-.695-1.81-1.231-.52-.519-.919-1.113-1.196-1.78-.278-.668-.416-1.363-.416-2.088 0-.611.101-1.208.304-1.792.202-.585.498-1.131.888-1.636.529-.68 1.166-1.199 1.913-1.559.744-.36 1.551-.54 2.421-.54"/></g><path d="m11.451 103.423h-1.689c-5.369 0-9.762-4.393-9.762-9.762v-12.607l11.467 22.337z" fill="#14783d"/><path d="m50.573 45.97 16.274 31.769v15.922c0 5.369-4.393 9.762-9.763 9.762h-35.964l20.644-40.293z" fill="#14783d"/><path d="m55.379 36.607.016-.03h1.689c5.37 0 9.763 4.393 9.763 9.761v12.608z" fill="#14783d"/><path d="m16.273 94.03-16.273-31.769v-15.923c0-5.368 4.393-9.761 9.762-9.761h35.965l-20.644 40.292z" fill="#14783d"/></g></svg>