<svg height="140" width="570.706" xmlns="http://www.w3.org/2000/svg"><clipPath id="a"><path d="M0 0h570.706v140H0z"/></clipPath><g clip-path="url(#a)"><g fill="#231f20"><path d="M406.464 36.561l-68.701.01v8.5h30.056v58.318h8.591V45.071h30.054zM167.21 36.545h-9.676l-29.456 57.502-29.462-57.502h-9.668l34.35 66.911 4.781-.01 4.781.01zM570.615 103.422l-34.32-66.892-9.611.019-34.329 66.873 9.64.034 29.491-57.539 29.461 57.501zM246.962 45.071v-8.526H178.26v66.925h68.702v-8.593h-60.11V74.27h42.926v-8.592h-42.926V45.071zM297.604 103.428c11.256 0 21.407-3.972 28.615-10.34.227-.202.459-.4.679-.607l-6.939-5.314c-5.639 4.711-13.567 7.648-22.355 7.648-17.108 0-30.976-11.11-30.976-24.815 0-13.706 13.868-24.815 30.976-24.815 8.755 0 16.655 2.913 22.288 7.592l6.927-5.335c-7.24-6.68-17.647-10.871-29.215-10.871-21.866 0-39.592 14.966-39.592 33.429 0 18.462 17.726 33.428 39.592 33.428M426.107 45.153h41.255c5.668 0 10.262 4.554 10.262 10.222 0 5.469-4.281 9.991-9.672 10.303h-41.845zm60.109 10.222c0-10.413-8.441-18.814-18.854-18.814l-49.847-.008V103.456h8.592V74.27h35.511l14.957 29.186 9.641-.034-15.173-29.558c8.649-1.712 15.173-9.337 15.173-18.489zM565.135 41.751c.575 0 .985-.078 1.229-.236.246-.157.368-.41.368-.76 0-.376-.129-.649-.385-.822-.259-.172-.673-.258-1.243-.258h-.966v2.076zm1.364.563l1.417 2.857h-1.342l-1.274-2.669h-1.162v2.669h-1.186V38.91h2.363c.875 0 1.532.144 1.972.431.44.288.66.716.66 1.286 0 .446-.127.818-.383 1.118-.254.3-.609.489-1.065.569zm3.517-.119c0-.67-.118-1.298-.354-1.886a4.734 4.734 0 0 0-1.038-1.571 4.904 4.904 0 0 0-3.444-1.395c-.657 0-1.274.116-1.854.352a4.531 4.531 0 0 0-1.53 1.014 4.967 4.967 0 0 0-1.074 1.588 4.711 4.711 0 0 0 1.029 5.212c.46.454.984.808 1.575 1.057.59.249 1.193.375 1.809.375.656 0 1.284-.12 1.884-.364a4.951 4.951 0 0 0 1.605-1.046c.444-.44.787-.948 1.03-1.522a4.644 4.644 0 0 0 .362-1.814zm-4.836-5.572a5.478 5.478 0 0 1 3.398 1.147 5.44 5.44 0 0 1 1.57 1.935c.371.765.558 1.58.558 2.445 0 .749-.138 1.457-.412 2.125a5.13 5.13 0 0 1-1.2 1.759 5.885 5.885 0 0 1-1.83 1.219 5.376 5.376 0 0 1-4.188-.004 5.562 5.562 0 0 1-1.81-1.231 5.446 5.446 0 0 1-1.308-5.66 5.717 5.717 0 0 1 .888-1.636 5.334 5.334 0 0 1 1.913-1.559 5.484 5.484 0 0 1 2.421-.54"/></g><path d="M11.451 103.423H9.762C4.393 103.423 0 99.03 0 93.661V81.054l11.467 22.337zM50.573 45.97l16.274 31.769v15.922c0 5.369-4.393 9.762-9.763 9.762H21.12L41.764 63.13zM55.379 36.607l.016-.03h1.689c5.37 0 9.763 4.393 9.763 9.761v12.608zM16.273 94.03L0 62.261V46.338c0-5.368 4.393-9.761 9.762-9.761h35.965L25.083 76.869z" fill="#14783d"/></g></svg>