<svg xmlns="http://www.w3.org/2000/svg" width="400" height="80.696" viewBox="0 0 400 80.696"><g fill-rule="evenodd"><path d="M195.642 4.095c-1.958.603-2.887 3.047-1.869 4.917 1.626 2.988 6.246 2.079 6.527-1.285.221-2.639-2.073-4.428-4.658-3.632m145.946.004c-2.586.947-3.051 4.481-.804 6.108 2.782 2.016 6.589-.97 5.284-4.145a3.509 3.509 0 00-4.48-1.963M86.43 4.645c-.1.162.317.771 3.21 4.688a3949.49 3949.49 0 015.612 7.626l3.581 4.875v8.411c0 8.144.011 8.415.323 8.582.342.184 4.964.244 5.414.072.235-.091.263-.999.263-8.542v-8.44l4.421-6 5.875-7.974c2.118-2.873 2.247-3.072 2.127-3.266-.071-.116-1.316-.177-3.582-.177H110.2l-2.891 3.931a3155.972 3155.972 0 00-4.062 5.528c-1.493 2.041-1.237 2.093-3.253-.664-4.617-6.315-6.046-8.165-6.542-8.467-.575-.351-6.817-.514-7.022-.183m118.671.119c-.322.839-.099 33.892.23 34.068.202.108 1.283.159 2.791.131l2.461-.046.043-17.209.042-17.208h-2.733c-2.338 0-2.747.038-2.834.264m26.566 16.881c0 15.487.025 17.162.263 17.254.526.202 5.16.111 5.454-.107.256-.189.285-.884.324-7.542l.042-7.333 6.535-.044 6.534-.044.049 6.877c.055 7.74.014 7.494 1.344 8.037.634.26 3.793.372 4.358.156.238-.092.263-1.766.263-17.25V4.5h-2.899c-2.489 0-2.913.037-3 .264-.055.145-.101 3.145-.101 6.666v6.403H237.67l-.043-6.625-.044-6.625-2.958-.045-2.958-.046v17.153M394.444 4.611c-.217.217-.129 33.971.089 34.189.211.211 4.69.296 5.203.099.238-.092.264-1.766.264-17.25V4.5h-2.722c-1.497 0-2.772.05-2.834.111m-44.069 2.322c-.333.152-.293 24.221.043 25.817 1.012 4.812 5.946 7.668 11.29 6.534l.625-.132v-2.993c0-3.29.021-3.234-1.016-2.701-1.465.754-3.943.323-4.885-.848l-.515-.64-.05-6.235-.049-6.235h2.43c3.853 0 4.085-.203 4.085-3.575v-2.092h-6.5l-.003-1.958c-.005-2.633-.651-3.945-2.288-4.647-.574-.246-2.816-.455-3.167-.295m-225.798 6.475c-9.167 1.425-13.921 12.232-8.838 20.092 5.32 8.226 17.731 7.903 22.442-.583 1.026-1.848 1.163-1.75-2.454-1.75h-3.106l-.696.641c-3.941 3.633-10.956 1.9-12.178-3.008l-.112-.451 7.474-.055c8.716-.064 8.677-.058 10.152-1.533 2.296-2.296 1.772-6.634-1.169-9.673-2.951-3.05-7.079-4.37-11.515-3.68m27.216.007c-7.617 1.243-12.576 9.432-10.217 16.869 2.927 9.229 14.47 12.311 21.464 5.731 9.61-9.04 1.802-24.731-11.247-22.6m120.605-.073c-10.072 1.314-14.783 13.604-8.219 21.446 7.381 8.819 21.773 4.563 23.156-6.849 1.043-8.607-6.246-15.731-14.937-14.597m25.435-.08a83.3 83.3 0 01-1.666.251c-6.602.946-9.131 8.411-4.133 12.2.773.587 1.445.939 3.549 1.861 6.695 2.933 7.05 3.218 6.155 4.949-1.027 1.986-7.402 1.636-10.674-.587-1.071-.728-1.064-.742-1.064 2.289 0 3.718.162 3.952 3.333 4.804 1.861.499 6.446.552 8.132.093 6.238-1.697 8.295-8.675 3.808-12.919-1.004-.949-1.451-1.192-5.273-2.868l-3.688-1.617c-1.122-.493-1.471-1.034-1.066-1.652 1.009-1.54 5.548-1.611 9.241-.145 1.785.709 1.696.85 1.642-2.6l-.046-2.904-.916-.304c-1.818-.601-5.983-1.084-7.334-.851m24.084.077c-1.459.224-3.239.917-4.466 1.74l-1.075.721-.601-.719c-.767-.917-1.787-1.283-3.384-1.214l-1.141.05-.042 16.982c-.032 12.588.007 17.041.148 17.212.151.182.739.221 2.793.185l2.601-.046.044-5.375c.027-3.335.105-5.375.206-5.375.089 0 .519.22.956.488 5.424 3.332 13.563 1.046 17.12-4.809 5.719-9.415-2.298-21.501-13.159-19.84m53.115-.004c-7.662 1.072-12.701 8.64-10.862 16.311 2.006 8.368 12.218 12.595 19.211 7.954l.941-.625.547.624c.871.992 2.945 1.651 4.202 1.336l.431-.109-.043-12.454-.042-12.455-1.203-.049c-1.514-.062-2.652.379-3.393 1.314l-.505.638-.805-.578c-2.229-1.601-5.465-2.329-8.479-1.907m-208.41.708c-.045.116.454 1.417 1.107 2.891.653 1.475 1.33 3.011 1.504 3.415.175.404 1.174 2.684 2.221 5.068 6.849 15.584 5.913 13.916 7.812 13.916 1.741 0 1.598.219 5.067-7.75l2.051-4.666 3.668-8.333c1.048-2.383 1.87-4.428 1.825-4.545-.181-.47-5.856-.197-6.135.294-.13.23-1.07 2.329-2.09 4.667-3.611 8.282-4.256 9.695-4.411 9.674-.147-.021-.906-1.692-4.661-10.257-1.627-3.71-1.765-3.945-2.544-4.32-.714-.344-5.285-.389-5.414-.054m27.493-.103c-.275.276-.129 24.852.149 24.959.391.15 4.952.118 5.195-.037.166-.105.201-2.724.167-12.539l-.043-12.406-2.676-.046c-1.472-.025-2.729.006-2.792.069m146 0c-.275.276-.129 24.852.149 24.959.391.15 4.952.118 5.195-.037.166-.105.201-2.724.167-12.539l-.043-12.406-2.676-.046c-1.472-.025-2.729.006-2.792.069M70.772 19.888c-1.455 1.116-2.645 2.09-2.644 2.164.002.141 2.221 4.115 2.298 4.115.273 0 6.329-2.683 6.377-2.825.145-.437-2.723-5.401-3.153-5.454-.128-.016-1.424.884-2.878 2m-51.439-.97c0 .071 3.565 6.339 4.834 8.499.162.275 1.414 2.45 2.784 4.833a3579.53 3579.53 0 005.144 8.917l2.655 4.583.083 9 .084 9h10.5l.083-8.917.083-8.916 1.221-2.084a1911.17 1911.17 0 005.238-9c1.196-2.062 2.789-4.8 3.54-6.083 3.46-5.91 5.585-9.625 5.585-9.765 0-.088-2.26-.152-5.404-.152h-5.404l-1.118 2.042a1585.189 1585.189 0 00-3.663 6.708c-.347.642-.946 1.73-1.333 2.417-.386.688-1.361 2.548-2.165 4.133-.805 1.586-1.52 2.824-1.589 2.75-.069-.073-.817-1.483-1.662-3.133a332.356 332.356 0 00-3.118-5.917l-2.125-3.916-1.355-2.5-1.083-2-.271-.5-5.772-.044c-3.174-.024-5.772-.004-5.772.045m109.129.167c2.616.616 4.825 2.581 4.475 3.978-.147.584-.319.599-6.817.601-6.664.003-6.465.043-5.721-1.136 1.808-2.864 4.907-4.187 8.063-3.443m27.98.157c3.692 1.124 5.978 5.333 4.922 9.064-1.609 5.685-8.653 7.444-12.625 3.153-5.243-5.663.309-14.469 7.703-12.217m119.544-.152c3.009.71 5.294 3.226 5.667 6.243.88 7.115-7.437 11.334-12.535 6.359-5.424-5.292-.495-14.337 6.868-12.602m49.5 0c4.034.951 6.606 5.092 5.589 8.998-1.481 5.685-8.209 7.654-12.421 3.636-5.46-5.208-.509-14.364 6.832-12.634m53.169.001c5.55 1.308 7.606 8.427 3.601 12.465-4.781 4.818-12.756 1.552-12.756-5.224 0-4.875 4.407-8.36 9.155-7.241M75.833 26.942c-.962.411-2.237.949-2.833 1.196-1.421.589-1.544.676-1.411 1.004.537 1.327 1.51 5.454 1.682 7.138l.11 1.067 1.184-.085a208.28 208.28 0 013.49-.194c1.709-.081 2.327-.168 2.392-.336.23-.599-.814-5.784-1.801-8.94-.598-1.915-.435-1.865-2.813-.85" fill="#6c3c7d"/><path d="M36.333.129C10.909 2.507-6.11 28.721 2.006 53 7.229 68.622 21.71 79.796 37.792 80.614l2.041.103V73.55l-1.708-.11C21.215 72.349 7.818 58.468 7.217 41.414 6.59 23.642 20.388 8.391 38.147 7.227l1.686-.11V-.017l-1.458.046a47.34 47.34 0 00-2.042.1m39.334 39.879c-.963.065-1.833.127-1.934.138-.115.013-.226.752-.297 1.979-.306 5.332-1.843 10.418-4.524 14.974-.517.878-.89 1.645-.83 1.705.762.762 5.541 4.129 5.689 4.009.333-.271 1.871-2.887 2.793-4.751 2.523-5.1 4.089-11.507 4.1-16.77l.003-1.459-1.625.028c-.894.016-2.413.081-3.375.147" fill="#2cace3"/><path d="M55.94 6.875c-1.546 3.894-1.622 3.34.627 4.595 3.132 1.749 6.216 4.208 8.396 6.697.683.779 1.332 1.416 1.443 1.416.272 0 5.574-3.955 5.585-4.166.026-.497-4.04-4.633-6.574-6.688-2.026-1.643-7.536-5.062-8.157-5.062-.026 0-.62 1.443-1.32 3.208M98.5 62.149c0 10.468.027 11.659.264 11.75.384.147 3.283.119 3.525-.035.154-.098.217-1.384.25-5.122l.044-4.992h9l.022 4.598c.024 5.077.048 5.207 1.022 5.477.683.19 2.358.234 2.776.074.237-.091.264-1.282.264-11.75V50.5h-4l-.012.458c-.007.252-.006 2.277.001 4.5l.012 4.042H102.5v-9h-4v11.649m62.111-11.538c-.216.216-.129 22.971.089 23.189.209.209 3.042.289 3.536.099.237-.091.264-1.282.264-11.75V50.5h-1.889c-1.039 0-1.939.05-2 .111M180.5 62.149c0 10.468.027 11.659.264 11.75.38.146 3.116.12 3.355-.033.151-.096.214-1.656.25-6.15l.048-6.023.407-.433c1.176-1.252 5.349-1.244 6.53.012l.396.421.083 5.752.084 5.752.387.313c.482.39 1.182.526 2.363.459l.916-.052V60.75l-.443-.84c-1.502-2.845-5.801-4.238-9.5-3.079-.581.182-1.113.332-1.182.334-.068.001-.125-1.498-.125-3.332V50.5H180.5v11.649m-11.799-10.016c-.172.116-.205 1.884-.166 8.881l.048 8.736.403.999c.9 2.237 2.982 3.5 5.764 3.499 2.198-.002 2.083.123 2.083-2.262 0-2.29.159-2.11-1.444-1.632-.849.254-1.883.001-2.493-.609l-.396-.397V60.667h1.758c2.391 0 2.575-.166 2.575-2.326v-1.508h-4.286l-.089-1.423c-.137-2.191-.882-3.101-2.724-3.324-.449-.055-.914-.034-1.033.047m-41.618 4.374c-5.851.768-9.291 7.405-6.642 12.814 2.325 4.747 8.667 6.477 12.948 3.531 1.349-.928 3.278-3.289 3.278-4.012 0-.443-4.411-.207-4.815.258-2.172 2.498-8.185.819-8.185-2.285 0-.081 2.193-.146 4.886-.146 6.525 0 7.183-.217 7.876-2.6 1.178-4.055-4.019-8.26-9.346-7.56m19.334-.004c-3.407.41-6.583 3.231-7.404 6.576-1.894 7.718 6.425 14.06 13.041 9.942l.635-.395.447.416c.849.792 2.602 1.225 3.002.742.149-.179.188-2.318.155-8.553l-.043-8.314-.75-.055c-1.007-.073-1.908.218-2.327.751l-.345.439-1.372-.684c-.755-.376-1.56-.72-1.789-.765-.878-.172-2.29-.216-3.25-.1m59.738-.005c-3.663.467-6.687 3.37-7.425 7.128-1.166 5.945 3.626 11.197 9.697 10.628 2.34-.219 2.734-.677 2.737-3.185.003-2.045.054-1.991-1.243-1.315-3.49 1.819-7.442-.461-7.467-4.308-.026-4.063 4.376-6.515 7.773-4.331.887.571.958.42.903-1.946l-.047-2.054-.833-.282c-1.02-.344-2.849-.493-4.095-.335m15.093.001c-4.762.521-8.309 5.266-7.575 10.134.956 6.339 7.899 9.696 13.214 6.388l.635-.395.447.416c.85.792 2.602 1.225 3.003.742.148-.179.187-2.318.155-8.553l-.044-8.314-.659-.054c-1.021-.083-1.714.109-2.325.645-.667.586-.666.586-1.283.147-1.333-.95-3.445-1.388-5.568-1.156m18.919.007c-1.979.262-3.493 1.344-4.368 3.122l-.549 1.114-.051 6.489c-.04 5.197-.007 6.516.167 6.626.251.159 2.977.193 3.37.042.234-.09.264-.783.264-6.092 0-7.942-.109-7.745 4-7.272l.417.048.047-1.85c.034-1.352-.011-1.896-.167-2.019-.3-.237-2.041-.353-3.13-.208m12.464-.007c-7.134.915-10.118 9.956-4.996 15.132 4.224 4.268 11.444 3.252 14.206-1.999.511-.97.52-.965-1.854-.965-2.174 0-2.18.001-2.655.475-1.756 1.756-4.942 1.699-6.812-.122-.713-.695-1.353-1.734-1.353-2.196 0-.075 2.381-.16 5.291-.188 4.601-.046 5.36-.09 5.809-.336 3.328-1.823 1.908-6.927-2.519-9.056-1.039-.5-3.492-1.033-4.081-.888-.046.012-.512.076-1.036.143m-122.385 4.109c1.551.528 3.038 2.453 2.157 2.791-.405.155-8.57.12-8.57-.037 0-.343 1.065-1.695 1.66-2.107 1.353-.938 3.173-1.186 4.753-.647m19.723.205c3.848 1.985 3.593 7.837-.402 9.247-5.378 1.897-9.429-4.673-5.217-8.46 1.472-1.324 3.915-1.665 5.619-.787m74.792-.021c5.219 2.695 2.329 10.889-3.348 9.488-5.036-1.243-5.33-8.192-.414-9.801.777-.254 3.026-.067 3.762.313m30.958-.193c1.612.549 3.095 2.45 2.184 2.8-.383.147-8.57.124-8.569-.024.009-1.908 3.93-3.613 6.385-2.776M56.75 69.12c-3.726 2.23-7.685 3.477-13.708 4.319l-.542.076v3.576c0 3.469.01 3.576.335 3.576 2.389 0 8.819-1.425 11.998-2.66 2.342-.909 6.68-3.123 6.938-3.541.055-.088-.295-.735-.776-1.438-3.517-5.136-2.996-4.656-4.245-3.908" fill="#c0d031"/><path d="M42.625.097c-.069.069-.125 1.684-.125 3.59v3.465l.542.075c2.977.413 4.67.743 6.291 1.227 2.939.875 2.517 1.147 4.016-2.581 1.478-3.676 1.543-3.268-.626-3.941C48.95.761 43.034-.314 42.625.097m22.458 62.287c-1.146 1.313-4.345 4.283-4.613 4.283-.353 0-.03.654 1.214 2.458a482.766 482.766 0 011.941 2.835l.59.876.601-.447c2.669-1.982 7.469-6.864 7.085-7.204-.402-.356-5.133-3.874-5.374-3.996-.217-.11-.529.148-1.444 1.195" fill="#d62457"/></g></svg>