<?xml version="1.0" encoding="utf-8"?>
<!-- Generator: Adobe Illustrator 25.2.3, SVG Export Plug-In . SVG Version: 6.00 Build 0)  -->
<svg version="1.1" id="Layer_1" xmlns="http://www.w3.org/2000/svg" xmlns:xlink="http://www.w3.org/1999/xlink" x="0px" y="0px" width="1671" height="532"
	 viewBox="0 0 1671 532" style="enable-background:new 0 0 1671 532;" xml:space="preserve">
<style type="text/css">
	.st0{fill:#7289DA;}
	.st1{fill:#4E5D94;}
	.st2{fill:#23272A;}
	.st3{fill:none;}
</style>
<path class="st0" d="M347,456.1H146.6c-30.7,0-55.6-24.9-55.6-55.6V205.8h256V456.1z"/>
<path class="st1" d="M319.5,445.8H155c-29.3,0-53-23.7-53-53v-159c0-15.5,12.5-28,28-28h189.4c15.5,0,28,12.5,28,28v183.9
	C347.5,433.2,335,445.8,319.5,445.8z"/>
<g>
	<path class="st1" d="M356.7,13.5h-27.1L316,37l13.5,23.5h27.1L370.2,37L356.7,13.5z M343.1,46.8c-5.4,0-9.8-4.4-9.8-9.8
		s4.4-9.8,9.8-9.8s9.8,4.4,9.8,9.8S348.5,46.8,343.1,46.8z"/>
	<polygon class="st1" points="326.3,153 333.9,67 351.4,67 358.9,153 	"/>
</g>
<path class="st0" d="M410.9,190.7v195.8c0,38.3-31.3,69.6-69.6,69.6l0,0C203.1,456.1,91,344,91,205.8v-15.1
	c0-38.4,31.2-69.6,69.6-69.6c10.7,0.4,77.6-0.9,132.8-0.1c37.9,0.5,70.3,2,75.1,5.6C393.4,137.2,410.9,161.9,410.9,190.7z"/>
<path class="st2" d="M209,252.9h-43.8c-5.8,0-10.5-4.7-10.5-10.5v-43.8c0-5.8,4.7-10.5,10.5-10.5H209c5.8,0,10.5,4.7,10.5,10.5v43.8
	C219.5,248.2,214.8,252.9,209,252.9z"/>
<path class="st2" d="M336.5,252.9h-43.8c-5.8,0-10.5-4.7-10.5-10.5v-43.8c0-5.8,4.7-10.5,10.5-10.5h43.8c5.8,0,10.5,4.7,10.5,10.5
	v43.8C347,248.2,342.3,252.9,336.5,252.9z"/>
<path class="st2" d="M319.6,339.6c-13.6,15.4-37.9,25.7-65.5,25.7c-29.4,0-55-11.6-68.1-28.7c1-0.8,2.1-1.5,3.3-2.1
	c17.2,8.4,40.4,13.5,65.8,13.5c23.4,0,44.8-4.3,61.5-11.5C317.8,337.4,318.8,338.4,319.6,339.6z"/>
<path class="st1" d="M91,205.8"/>
<g>
	<rect x="463.9" y="67" class="st3" width="1227" height="409"/>
	<path class="st1" d="M494.3,225.3c-12.2,0-18.2-6-18.2-18v-97.9c0-12,6.1-18.1,18.2-18.1h37.2c23.2,0,41.2,5.8,54,17.5
		c12.8,11.7,19.2,28.1,19.2,49.4c0,21.3-6.4,37.8-19.2,49.5c-12.8,11.7-30.8,17.6-54,17.6H494.3z M511,197h18.2
		c13.3,0,23.1-3.2,29.5-9.6c6.4-6.4,9.6-16.1,9.6-29.2c0-13-3.2-22.7-9.7-29.1c-6.5-6.3-16.3-9.5-29.4-9.5H511V197z"/>
	<path class="st1" d="M639.8,116.6c-6,0-10.5-1.4-13.8-4.2c-3.2-2.8-4.8-6.8-4.8-12.2c0-5.2,1.6-9.2,4.8-12
		c3.2-2.8,7.8-4.2,13.8-4.2c12.5,0,18.8,5.4,18.8,16.1c0,5.3-1.6,9.4-4.8,12.2C650.6,115.3,645.9,116.6,639.8,116.6z M639.8,227
		c-5.4,0-9.6-1.6-12.4-4.8c-2.9-3.2-4.3-7.7-4.3-13.7v-60c0-6,1.4-10.5,4.3-13.7c2.8-3.2,7-4.8,12.4-4.8c5.4,0,9.7,1.6,12.6,4.8
		c3,3.2,4.5,7.7,4.5,13.7v60c0,6-1.5,10.5-4.4,13.7C649.7,225.5,645.4,227,639.8,227z"/>
	<path class="st1" d="M713.7,227.4c-5.7,0-11.4-0.4-17.1-1.3c-5.7-0.9-10.9-2.3-15.6-4.4c-3.9-1.5-6.5-3.7-7.7-6.6
		c-1.2-2.9-1.3-5.8-0.4-8.7c1-2.9,2.7-5.1,5.2-6.6c2.5-1.5,5.6-1.6,9.1-0.4c5.2,1.9,9.9,3.3,14.2,4.1c4.3,0.8,8.4,1.2,12.3,1.2
		c4.7,0,8-0.7,10.1-2c2-1.3,3-3.1,3-5.2c0-1.9-0.7-3.3-2-4.3c-1.3-0.9-3.2-1.7-5.6-2.2l-21.1-3.4c-7.9-1.3-13.9-4.1-18.2-8.5
		c-4.3-4.4-6.5-10.2-6.5-17.3c0-6.6,1.8-12.3,5.5-17c3.7-4.8,8.8-8.4,15.4-11c6.6-2.6,14.1-3.9,22.6-3.9c5.7,0,10.9,0.4,15.6,1.3
		c4.7,0.9,9.2,2.3,13.7,4.4c3.4,1.4,5.6,3.5,6.6,6.5c0.9,2.9,0.9,5.8-0.2,8.6c-1.1,2.9-2.9,5-5.5,6.5c-2.6,1.5-5.7,1.5-9.4,0.1
		c-4.2-1.6-7.9-2.9-11.1-3.6c-3.2-0.8-6.2-1.1-9-1.1c-5.2,0-8.9,0.7-11,2.2c-2.2,1.5-3.2,3.2-3.2,5.2c0,3.4,2.3,5.5,7,6.3l21.1,3.6
		c8.1,1.3,14.3,4,18.7,8.3c4.4,4.2,6.6,10,6.6,17.2c0,10.3-3.9,18.2-11.8,23.8C737.2,224.6,726.8,227.4,713.7,227.4z"/>
	<path class="st1" d="M818.4,227.4c-10.5,0-19.7-2-27.5-5.9c-7.8-3.9-13.8-9.6-18.1-16.9c-4.3-7.3-6.5-16.1-6.5-26.2
		c0-10.1,2.2-18.8,6.5-26.1c4.3-7.3,10.4-12.9,18.1-16.7c7.8-3.9,16.9-5.8,27.5-5.8c3.7,0,7.5,0.4,11.6,1c4.1,0.7,8.2,2,12.5,3.9
		c2.9,1.1,5,2.9,6.3,5.2c1.3,2.3,1.8,4.8,1.6,7.5c-0.2,2.7-1,5.1-2.3,7.2c-1.3,2.2-3.2,3.6-5.5,4.4c-2.3,0.8-5,0.4-7.9-0.9
		c-4.2-1.9-8.4-2.9-12.7-2.9c-6.7,0-11.9,2-15.6,6.1c-3.7,4.1-5.5,9.8-5.5,17.1c0,7.5,1.8,13.3,5.5,17.4c3.7,4.1,8.9,6.2,15.6,6.2
		c2,0,4.1-0.2,6.3-0.7c2.2-0.4,4.3-1.2,6.5-2.2c3-1.4,5.7-1.7,7.9-0.9c2.2,0.8,4,2.3,5.3,4.4s2.1,4.5,2.3,7.1
		c0.2,2.7-0.3,5.2-1.6,7.5c-1.3,2.3-3.4,4.1-6.5,5.2c-4.3,1.9-8.4,3.2-12.4,3.9C825.9,227.1,822.1,227.4,818.4,227.4z"/>
	<path class="st1" d="M908.1,227.4c-10.4,0-19.4-2-27.2-5.9c-7.7-3.9-13.7-9.6-18-16.9c-4.3-7.3-6.5-16-6.5-26
		c0-10.1,2.2-18.8,6.5-26.1c4.3-7.3,10.3-12.9,18-16.8c7.7-3.9,16.8-5.9,27.2-5.9c10.4,0,19.4,2,27.2,5.9c7.7,3.9,13.7,9.5,18,16.8
		c4.2,7.3,6.4,16,6.4,26.1c0,10-2.1,18.7-6.4,26c-4.2,7.3-10.2,13-18,16.9C927.6,225.5,918.5,227.4,908.1,227.4z M908.1,202.5
		c5.1,0,9.2-1.9,12.5-5.7c3.3-3.8,4.9-9.9,4.9-18.2c0-8.5-1.6-14.6-4.9-18.3c-3.3-3.7-7.5-5.6-12.5-5.6c-5.2,0-9.4,1.9-12.7,5.6
		c-3.3,3.7-4.9,9.9-4.9,18.3c0,8.4,1.6,14.4,4.9,18.2C898.7,200.6,902.9,202.5,908.1,202.5z"/>
	<path class="st1" d="M992.5,227c-11.5,0-17.3-5.7-17.3-17.1V147c0-11.3,5.5-16.9,16.5-16.9c5.2,0,9.2,1.5,12.1,4.4
		c2.9,2.9,4.3,7.1,4.3,12.5v0.6c2.2-5.4,5.6-9.8,10.5-12.9c4.8-3.2,10.5-4.8,17.1-4.9c3.7-0.1,6.4,0.8,8.3,2.8
		c1.8,2,2.8,5.6,2.9,10.9c0,4.6-1,8.2-2.8,10.8c-1.9,2.7-5.5,4.2-10.8,4.8l-4.4,0.4c-6.7,0.6-11.6,2.5-14.6,5.6
		c-3,3.1-4.6,7.7-4.6,13.8v31.2C1009.6,221.3,1003.9,227,992.5,227z"/>
	<path class="st1" d="M1092.4,227.4c-8,0-15-2-21.2-5.9c-6.1-3.9-11-9.6-14.4-16.9c-3.5-7.3-5.2-16-5.2-26c0-10.1,1.7-18.8,5.2-26.1
		c3.5-7.3,8.3-12.9,14.4-16.8c6.1-3.9,13.2-5.9,21.2-5.9c6,0,11.4,1.2,16.4,3.7c5,2.5,8.8,5.7,11.5,9.6v-36.3
		c0-11.4,5.6-17.1,16.9-17.1c5.4,0,9.6,1.5,12.5,4.4c2.9,2.9,4.4,7.2,4.4,12.7v103.2c0,11.4-5.6,17.1-16.7,17.1
		c-10,0-15.5-4.8-16.5-14.2c-2.5,4.4-6.4,8-11.5,10.6C1104.3,226.1,1098.6,227.4,1092.4,227.4z M1103.2,202.5
		c5.1,0,9.2-1.9,12.5-5.7c3.3-3.8,4.9-9.9,4.9-18.2c0-8.5-1.6-14.6-4.9-18.3c-3.3-3.7-7.5-5.6-12.5-5.6c-5.2,0-9.4,1.9-12.7,5.6
		c-3.3,3.7-4.9,9.9-4.9,18.3c0,8.4,1.6,14.4,4.9,18.2C1093.8,200.6,1098,202.5,1103.2,202.5z"/>
	<path class="st1" d="M1248.6,225.3c-12.2,0-18.2-6-18.2-18v-97.9c0-12,6.1-18.1,18.2-18.1h46.4c14.4,0,25.6,3.1,33.5,9.4
		c7.9,6.3,11.9,14.7,11.9,25.2c0,7-1.7,13-5.2,18.2c-3.5,5.2-8.3,9.1-14.5,11.6c7.5,2.3,13.2,6.1,17.3,11.5c4.1,5.4,6.1,12.1,6.1,20
		c0,11.8-4.2,21.1-12.6,27.8c-8.4,6.8-19.9,10.2-34.5,10.2H1248.6z M1263.8,144.6h24.9c6.3,0,11-1.1,14-3.4c3-2.3,4.5-5.8,4.5-10.5
		c0-4.7-1.5-8.1-4.5-10.4c-3-2.2-7.6-3.3-14-3.3h-24.9V144.6z M1263.8,199.7h28.3c6.5,0,11.2-1.2,14.2-3.7c3-2.5,4.5-6.2,4.5-11.1
		c0-4.9-1.5-8.6-4.5-11c-3-2.4-7.7-3.6-14.2-3.6h-28.3V199.7z"/>
	<path class="st1" d="M1408.8,227.4c-10.4,0-19.4-2-27.2-5.9c-7.7-3.9-13.7-9.6-18-16.9c-4.3-7.3-6.5-16-6.5-26
		c0-10.1,2.2-18.8,6.5-26.1c4.3-7.3,10.3-12.9,18-16.8c7.7-3.9,16.8-5.9,27.2-5.9c10.4,0,19.4,2,27.2,5.9c7.7,3.9,13.7,9.5,18,16.8
		c4.2,7.3,6.4,16,6.4,26.1c0,10-2.1,18.7-6.4,26c-4.2,7.3-10.2,13-18,16.9C1428.2,225.5,1419.1,227.4,1408.8,227.4z M1408.8,202.5
		c5.1,0,9.2-1.9,12.5-5.7c3.3-3.8,4.9-9.9,4.9-18.2c0-8.5-1.6-14.6-4.9-18.3c-3.3-3.7-7.5-5.6-12.5-5.6c-5.2,0-9.4,1.9-12.7,5.6
		c-3.3,3.7-4.9,9.9-4.9,18.3c0,8.4,1.6,14.4,4.9,18.2C1399.3,200.6,1403.6,202.5,1408.8,202.5z"/>
	<path class="st1" d="M1523.9,227.4c-14.2,0-24.7-3.3-31.5-9.9c-6.8-6.6-10.3-16.5-10.3-29.8v-31h-6.5c-8.5,0-12.7-4.2-12.7-12.5
		c0-8.2,4.2-12.4,12.7-12.4h6.5v-11.8c0-5.6,1.5-9.8,4.4-12.7c2.9-2.9,7.1-4.4,12.5-4.4c11.3,0,16.9,5.7,16.9,17.1v11.8h15.6
		c8.6,0,12.9,4.1,12.9,12.4c0,8.4-4.3,12.5-12.9,12.5h-15.6v29.8c0,9.1,4.6,13.7,13.9,13.7c1.8,0,3.5-0.2,5.1-0.6
		c1.6-0.4,3.2-0.6,4.6-0.6c2-0.1,3.7,0.5,4.9,1.8c1.3,1.3,1.9,4.3,1.9,9c0,3.8-0.6,7-1.7,9.6c-1.1,2.6-3.2,4.5-6.1,5.6
		c-1.8,0.6-4.2,1.2-7.2,1.6C1528.3,227.2,1525.8,227.4,1523.9,227.4z"/>
	<path class="st1" d="M1593.1,227.4c-5.7,0-11.4-0.4-17.1-1.3c-5.7-0.9-10.9-2.3-15.6-4.4c-3.9-1.5-6.5-3.7-7.7-6.6
		c-1.2-2.9-1.3-5.8-0.4-8.7c1-2.9,2.7-5.1,5.2-6.6c2.5-1.5,5.6-1.6,9.1-0.4c5.2,1.9,9.9,3.3,14.2,4.1c4.3,0.8,8.4,1.2,12.3,1.2
		c4.7,0,8-0.7,10.1-2c2-1.3,3-3.1,3-5.2c0-1.9-0.7-3.3-2-4.3c-1.3-0.9-3.2-1.7-5.6-2.2l-21.1-3.4c-7.9-1.3-13.9-4.1-18.2-8.5
		c-4.3-4.4-6.5-10.2-6.5-17.3c0-6.6,1.8-12.3,5.5-17c3.7-4.8,8.8-8.4,15.4-11c6.6-2.6,14.1-3.9,22.6-3.9c5.7,0,10.9,0.4,15.6,1.3
		c4.7,0.9,9.2,2.3,13.7,4.4c3.4,1.4,5.6,3.5,6.6,6.5c0.9,2.9,0.9,5.8-0.2,8.6c-1.1,2.9-2.9,5-5.5,6.5c-2.6,1.5-5.7,1.5-9.4,0.1
		c-4.2-1.6-7.9-2.9-11.1-3.6c-3.2-0.8-6.2-1.1-9-1.1c-5.2,0-8.9,0.7-11,2.2c-2.2,1.5-3.2,3.2-3.2,5.2c0,3.4,2.3,5.5,7,6.3l21.1,3.6
		c8.1,1.3,14.3,4,18.7,8.3c4.4,4.2,6.6,10,6.6,17.2c0,10.3-3.9,18.2-11.8,23.8C1616.5,224.6,1606.1,227.4,1593.1,227.4z"/>
	<path class="st1" d="M543.7,455.4c-14.8,0-27.5-2.8-38.2-8.5c-10.6-5.7-18.8-13.7-24.4-24.1c-5.6-10.4-8.5-22.5-8.5-36.5
		c0-13.9,2.8-26.1,8.5-36.4c5.6-10.3,13.8-18.3,24.4-24c10.6-5.7,23.4-8.5,38.2-8.5c5.8,0,11.9,0.7,18.1,2c6.3,1.3,11.8,3.3,16.6,6
		c3.5,1.9,6,4.3,7.4,7.2c1.4,2.9,1.9,5.9,1.5,8.9s-1.5,5.8-3.3,8.2c-1.8,2.4-4.2,4-6.9,4.8c-2.8,0.8-5.8,0.4-9.1-1.2
		c-7.5-3.7-15.1-5.5-23-5.5c-11.8,0-20.6,3.3-26.6,10c-6,6.7-8.9,16.2-8.9,28.6c0,12.5,3,22.1,8.9,28.8c6,6.7,14.8,10,26.6,10
		c3.3,0,6.8-0.4,10.6-1.2c3.8-0.8,7.5-2.1,11.2-3.9c3.8-1.6,7.2-2.1,10.2-1.3c3,0.8,5.4,2.3,7.3,4.6s3.1,4.9,3.5,7.9
		c0.4,3,0,5.9-1.2,8.8c-1.3,2.9-3.6,5.3-7,7c-4.4,2.7-9.9,4.8-16.4,6.3C556.6,454.7,550.2,455.4,543.7,455.4z"/>
	<path class="st1" d="M633.4,455.4c-7.2,0-13.6-1.3-19.1-4c-5.5-2.7-9.8-6.3-12.9-10.9c-3.1-4.6-4.7-9.9-4.7-15.9
		c0-6.7,1.8-12.1,5.3-16.1c3.5-4,9.2-6.8,17.1-8.5c7.9-1.7,18.3-2.6,31.3-2.6h7.2v-2.7c0-4.6-1.2-7.8-3.5-9.7
		c-2.3-1.9-6.4-2.8-12.1-2.8c-3.2,0-6.6,0.3-10.4,1c-3.7,0.7-8,1.9-12.6,3.7c-4.2,1.5-7.7,1.5-10.5-0.2c-2.8-1.6-4.6-4-5.4-7.1
		c-0.8-3.1-0.5-6.2,1-9.3c1.5-3.1,4.3-5.4,8.5-6.9c6.1-2.2,11.7-3.6,16.8-4.5c5.1-0.8,9.8-1.2,14.2-1.2c15.6,0,27.1,3.4,34.7,10.1
		c7.5,6.7,11.3,17.3,11.3,31.7v38.4c0,11.4-5.2,17.1-15.6,17.1c-9.9,0-15.1-5.1-15.8-15.2c-1.8,4.8-4.8,8.6-9.1,11.4
		C644.8,454,639.6,455.4,633.4,455.4z M641,433.4c4.7,0,8.6-1.5,11.9-4.6c3.2-3,4.8-7,4.8-12v-3.4h-7.2c-7.5,0-13,0.8-16.4,2.4
		c-3.5,1.6-5.2,4.1-5.2,7.5c0,2.9,1,5.3,3.1,7.2C634,432.4,637,433.4,641,433.4z"/>
	<path class="st1" d="M757.8,455.4c-14.2,0-24.7-3.3-31.5-9.9C719.4,439,716,429,716,415.7v-31h-6.5c-8.5,0-12.7-4.2-12.7-12.5
		c0-8.2,4.2-12.4,12.7-12.4h6.5v-11.8c0-5.6,1.5-9.8,4.4-12.7c2.9-2.9,7.1-4.4,12.5-4.4c11.3,0,16.9,5.7,16.9,17.1v11.8h15.6
		c8.6,0,12.9,4.1,12.9,12.4c0,8.4-4.3,12.5-12.9,12.5h-15.6v29.8c0,9.1,4.6,13.7,13.9,13.7c1.8,0,3.5-0.2,5.1-0.6
		c1.6-0.4,3.2-0.6,4.6-0.6c2-0.1,3.7,0.5,4.9,1.8c1.3,1.3,1.9,4.3,1.9,9c0,3.8-0.6,7-1.7,9.6c-1.1,2.6-3.2,4.5-6.1,5.6
		c-1.8,0.6-4.2,1.2-7.2,1.6C762.2,455.2,759.7,455.4,757.8,455.4z"/>
	<path class="st1" d="M822.2,455.4c-7.2,0-13.6-1.3-19.1-4c-5.5-2.7-9.8-6.3-12.9-10.9c-3.1-4.6-4.7-9.9-4.7-15.9
		c0-6.7,1.8-12.1,5.3-16.1c3.5-4,9.2-6.8,17.1-8.5c7.9-1.7,18.3-2.6,31.3-2.6h7.2v-2.7c0-4.6-1.2-7.8-3.5-9.7
		c-2.3-1.9-6.4-2.8-12.1-2.8c-3.2,0-6.6,0.3-10.4,1c-3.7,0.7-8,1.9-12.6,3.7c-4.2,1.5-7.7,1.5-10.5-0.2c-2.8-1.6-4.6-4-5.4-7.1
		c-0.8-3.1-0.5-6.2,1-9.3c1.5-3.1,4.3-5.4,8.5-6.9c6.1-2.2,11.7-3.6,16.8-4.5c5.1-0.8,9.8-1.2,14.2-1.2c15.6,0,27.1,3.4,34.7,10.1
		c7.5,6.7,11.3,17.3,11.3,31.7v38.4c0,11.4-5.2,17.1-15.6,17.1c-9.9,0-15.1-5.1-15.8-15.2c-1.8,4.8-4.8,8.6-9.1,11.4
		C833.7,454,828.4,455.4,822.2,455.4z M829.8,433.4c4.7,0,8.6-1.5,11.9-4.6c3.2-3,4.8-7,4.8-12v-3.4h-7.2c-7.5,0-13,0.8-16.4,2.4
		c-3.5,1.6-5.2,4.1-5.2,7.5c0,2.9,1,5.3,3.1,7.2C822.9,432.4,825.9,433.4,829.8,433.4z"/>
	<path class="st1" d="M933.2,455.4c-12.3,0-21.3-3.3-27-9.8c-5.7-6.5-8.5-16.4-8.5-29.5v-81.3c0-11.4,5.6-17.1,16.7-17.1
		c5.4,0,9.7,1.5,12.6,4.4c3,2.9,4.5,7.2,4.5,12.7v80.2c0,4.7,0.9,8.1,2.8,10.3c1.8,2.2,4.2,3.2,7.1,3.2c0.9,0,1.8-0.1,2.8-0.3
		c1-0.2,2-0.3,3.1-0.5c2.3,0,3.9,0.8,4.9,2.5c1,1.6,1.5,5,1.5,10.1c0,4.4-0.9,7.8-2.7,10c-1.8,2.2-4.5,3.6-8.2,4.3
		c-1,0.3-2.5,0.5-4.4,0.7C936.6,455.3,934.8,455.4,933.2,455.4z"/>
	<path class="st1" d="M1010.1,455.4c-10.4,0-19.4-2-27.2-5.9c-7.7-3.9-13.7-9.6-18-16.9c-4.3-7.3-6.5-16-6.5-26
		c0-10.1,2.2-18.8,6.5-26.1c4.3-7.3,10.3-12.9,18-16.8c7.7-3.9,16.8-5.9,27.2-5.9c10.4,0,19.4,2,27.2,5.9c7.7,3.9,13.7,9.5,18,16.8
		c4.2,7.3,6.4,16,6.4,26.1c0,10-2.1,18.7-6.4,26c-4.2,7.3-10.2,13-18,16.9C1029.6,453.5,1020.5,455.4,1010.1,455.4z M1010.1,430.5
		c5.1,0,9.2-1.9,12.5-5.7c3.3-3.8,4.9-9.9,4.9-18.2c0-8.5-1.6-14.6-4.9-18.3c-3.3-3.7-7.5-5.6-12.5-5.6c-5.2,0-9.4,1.9-12.7,5.6
		c-3.3,3.7-4.9,9.9-4.9,18.3c0,8.4,1.6,14.4,4.9,18.2C1000.7,428.6,1004.9,430.5,1010.1,430.5z"/>
	<path class="st1" d="M1123.6,489.6c-14.3,0-26.1-1.8-35.3-5.5c-4.6-1.6-7.5-4.1-8.8-7.2c-1.3-3.2-1.5-6.4-0.5-9.6
		c1-3.2,2.8-5.7,5.4-7.4c2.6-1.7,5.7-1.9,9.2-0.7c5.6,2.3,10.6,3.8,15.1,4.5c4.5,0.7,8.4,1,11.7,1c7.7,0,13.5-1.6,17.4-4.8
		c3.9-3.2,5.8-8.3,5.8-15.1V436c-2.7,4.6-6.7,8.2-12,10.8c-5.3,2.7-11,4-17.1,4c-8.4,0-15.6-1.9-21.9-5.8
		c-6.2-3.9-11.1-9.3-14.5-16.2c-3.5-7-5.2-15.1-5.2-24.5c0-9.4,1.7-17.5,5.2-24.5c3.5-7,8.3-12.4,14.5-16.2
		c6.2-3.9,13.5-5.8,21.9-5.8c6.2,0,11.9,1.3,17.2,3.9c5.3,2.6,9.1,6.1,11.5,10.5c1.1-9.4,6.7-14.1,16.7-14.1
		c11,0,16.5,5.6,16.5,16.9v65.7c0,16.3-4.6,28.6-13.7,36.7C1153.6,485.6,1140.5,489.6,1123.6,489.6z M1124.9,426
		c5.6,0,10-1.9,13.3-5.7c3.3-3.8,4.9-9.1,4.9-16c0-6.8-1.6-12.2-4.9-16c-3.3-3.8-7.7-5.7-13.3-5.7c-5.4,0-9.8,1.9-13.1,5.7
		c-3.3,3.8-4.9,9.1-4.9,16c0,6.8,1.6,12.2,4.9,16C1115.1,424.1,1119.5,426,1124.9,426z"/>
</g>
</svg>
