<svg enable-background="new 0 0 167.084 84.594" height="84.594" viewBox="0 0 167.084 84.594" width="167.084" xmlns="http://www.w3.org/2000/svg"><path d="m51.241 84.594c-.002 0-.005 0-.007 0-2.616-.002-4.993-.411-7.068-1.213-1.934-.745-3.535-1.599-4.891-2.606-.433-.314-.851-.649-1.254-1.006-.961.774-2.027 1.437-3.179 1.974-1.072.502-2.212.945-3.383 1.311-.038.014-.076.025-.116.037-2.562.744-5.463 1.198-8.622 1.344-1.137.055-2.159.08-3.126.08-1.129 0-2.145-.035-3.103-.106-2.04-.153-3.768-.429-5.286-.847-1.676-.457-3.173-1.078-4.439-1.836-1.293-.773-2.409-1.695-3.31-2.738-2.121-2.321-3.316-5.206-3.452-8.35-.003-.089-.005-.174-.005-.259 0-2.094.33-3.86 1.008-5.4.689-1.588 1.705-2.906 3.006-3.91-.588-1.113-1.078-2.225-1.457-3.301-.977-2.945-1.289-5.793-.963-8.561.007-.055.014-.11.023-.164.296-2.032.846-3.743 1.68-5.225.855-1.531 1.949-2.812 3.24-3.793 1.145-.873 2.438-1.549 3.823-1.992.079-.024.157-.049.238-.073-.791-.263-1.548-.626-2.266-1.089-2.734-1.729-4.527-4.684-4.881-8.084-.4-3.842 1.073-7.803 3.943-10.598 2.64-2.549 6.195-3.943 10.03-3.943 2.883 0 5.728.818 8.011 2.299.311.203.618.423.928.664.006-.037.015-.072.021-.108.284-1.36.595-2.587.946-3.712l-.036.123c.492-1.697 1.149-3.23 1.956-4.561.784-1.281 1.655-2.41 2.595-3.367 1.04-1.058 2.174-1.927 3.37-2.58.981-.532 1.949-.966 2.891-1.293.052-.019.103-.036.157-.052 1.632-.519 3.35-.781 5.101-.781.694 0 1.403.04 2.113.123 2.865.19 5.339.961 7.355 2.29 1.723 1.141 3.13 2.418 4.195 3.799.219.283.429.575.629.871.873-1.333 1.793-2.436 2.781-3.34 1.363-1.247 2.679-2.167 4.02-2.81 1.43-.691 2.74-1.087 3.99-1.205.888-.088 1.172-.104 1.468-.104.162 0 .629.021 1.415.088 1.168.095 2.392.432 3.831 1.054 1.213.522 2.467 1.277 3.824 2.306 1.042.788 2.021 1.756 2.962 2.935.11-.147.223-.294.337-.436.862-1.06 1.823-1.979 2.864-2.741 1.045-.769 2.185-1.393 3.387-1.846.913-.344 1.836-.625 2.748-.838.036-.009.074-.018.11-.024 1.473-.314 3.047-.474 4.674-.474.566 0 1.145.018 1.725.056 2.502.077 4.581.429 6.359 1.078.596.218 1.15.442 1.666.678.552-.391 1.145-.731 1.765-1.015 1.427-.674 3.146-1.118 5.039-1.289.097-.007.195-.014.291-.018.282-.012.557-.016.829-.016.966 0 1.909.071 2.804.213 1.091.173 2.116.425 3.055.75.96.335 1.801.719 2.58 1.172 1.106-.664 2.258-1.158 3.438-1.469 1.199-.334 2.539-.516 3.9-.516.384 0 .77.014 1.158.042 1.262.097 2.344.272 3.321.537 1.124.31 2.065.689 2.903 1.168 1.037.59 1.912 1.315 2.604 2.159.137.166.268.335.393.508 1.832-.781 3.873-1.199 5.933-1.199 3.833 0 7.39 1.393 10.013 3.923 2.886 2.813 4.36 6.774 3.96 10.614-.353 3.399-2.145 6.354-4.913 8.107-.821.527-1.702.926-2.627 1.19.01.166.014.329.014.495 0 .396-.024.785-.074 1.168 1.069.634 2.068 1.395 2.993 2.282 1.663 1.589 3.104 3.336 4.279 5.187 1.225 1.901 2.306 4.051 3.195 6.35.016.043.031.083.047.126 1.078 2.991 1.932 5.966 2.535 8.845.579 2.777.996 5.168 1.273 7.314.33 2.621.511 4.985.551 7.244.044 1.94-.068 3.653-.34 5.207-.293 1.661-.719 3.092-1.295 4.381-.609 1.359-1.37 2.572-2.264 3.594-.831.951-1.733 1.766-2.681 2.424-2.246 1.59-4.821 2.445-7.607 2.51-.057.002-.11.002-.167.002-2.532-.01-4.825-.61-6.813-1.777-1.799-1.056-3.36-2.479-4.641-4.23-1.095-1.5-2.018-3.202-2.74-5.057-.247-.629-.477-1.269-.689-1.915-.418.06-.845.092-1.272.092-.322 0-.648-.018-.971-.054-.58-.038-1.143-.119-1.691-.24-.459 1.477-.982 2.813-1.562 3.982-.765 1.539-1.543 2.814-2.383 3.898-.024.033-.053.064-.076.099-3.029 3.748-6.434 4.853-8.758 5.12-.227.023-.473.037-.702.037-2.222 0-4.253-.396-6.036-1.184-1.652-.73-3.113-1.699-4.354-2.878-.152-.144-.301-.292-.446-.442-.385.453-.795.883-1.228 1.287-1.169 1.094-2.531 1.955-4.045 2.555-1.514.602-3.19.905-4.986.905-1.985 0-3.845-.384-5.525-1.146-1.441-.653-2.743-1.498-3.881-2.512-1.128-1.006-2.084-2.149-2.848-3.396-.049-.081-.099-.162-.146-.243-.731.977-1.515 1.851-2.337 2.605-.923.852-1.911 1.59-2.93 2.189-.979.572-1.954 1.029-2.91 1.367-2 .734-4.132 1.104-6.325 1.104-1.859 0-3.566-.216-5.097-.638-1.479-.411-2.818-.957-3.983-1.619-.523-.301-1.017-.621-1.482-.965-.593.463-1.228.882-1.903 1.258-1.186.654-2.528 1.169-4.002 1.533-1.42.358-2.967.531-4.719.531z" fill="#999"/><g fill="#fff"><path d="m51.245 77.11c-1.696-.002-3.171-.241-4.386-.709-1.273-.492-2.324-1.042-3.121-1.632-.976-.709-1.77-1.521-2.441-2.49-.935-1.423-1.667-2.996-2.16-4.645-.509-1.707-.897-3.361-1.151-4.924-.287-1.785-.449-3.602-.481-5.395-.07-1.324-.013-2.455.168-3.418.178-.967.438-1.82.775-2.541.328-.702.704-1.293 1.12-1.757.442-.495.897-.905 1.354-1.226 1.117-.803 2.361-1.277 3.832-1.462.134-.007.357-.013.576-.013.989 0 1.873.146 2.63.432.939.357 1.755.857 2.427 1.482.696.654 1.293 1.423 1.771 2.283.508.912.919 1.84 1.223 2.76.711 2.092 1.111 4.455 1.19 7.037.024.811.688 1.449 1.493 1.449h.028c.818-.014 1.475-.684 1.471-1.502-.006-1.41.202-2.568.6-3.346.485-.951 1.022-1.674 1.595-2.146.661-.543 1.401-.885 2.263-1.041.346-.064.668-.098.952-.098.224 0 .427.02.604.061.438.094.807.233 1.096.417.297.19.545.418.753.689.234.306.42.628.558.961.331.873.521 1.972.553 3.228.022.812.688 1.457 1.498 1.457h.02c.818-.01 1.477-.678 1.477-1.496 0-2.004.133-3.83.396-5.426.265-1.604.619-3.062 1.053-4.332.431-1.266.919-2.363 1.455-3.268.543-.92 1.101-1.705 1.663-2.336 1.295-1.473 2.74-2.49 4.304-3.032.799-.187 1.528-.282 2.169-.282.206 0 .405.008.595.027.762.08 1.416.264 1.943.553.538.293.976.649 1.339 1.09.388.471.703.998.941 1.566.635 1.451.985 3.244 1.052 5.354 0 2.955-.199 5.742-.593 8.23-.398 2.523-.853 4.729-1.356 6.559-.574 2.104-1.224 3.993-1.931 5.624-.44 1.03-.921 1.912-1.429 2.624-.512.717-1.05 1.336-1.602 1.847-.539.494-1.099.917-1.668 1.251-.558.326-1.098.582-1.595.758-1.236.459-2.483.678-3.845.68-1.187 0-2.221-.121-3.099-.367-.874-.242-1.639-.549-2.276-.91-.602-.344-1.107-.734-1.501-1.162-.411-.446-.737-.898-.969-1.344-.644-1.18-.967-2.501-.998-4.067-.015-.775-.622-1.41-1.396-1.463-.035-.002-.067-.004-.103-.004-.729 0-1.359.534-1.478 1.265-.265 1.681-.79 3.153-1.564 4.375-.328.543-.716 1.037-1.164 1.495-.434.439-.954.829-1.55 1.157-.6.334-1.328.607-2.162.814-.829.207-1.811.309-2.918.309zm48.084-.067c-.918 0-1.738-.162-2.441-.479-.743-.339-1.411-.771-1.982-1.28-.576-.51-1.062-1.085-1.446-1.715-.423-.689-.793-1.401-1.097-2.108-.683-1.688-1.123-3.545-1.33-5.646-.224-1.584-.357-3.26-.41-5.042-.055-1.854-.065-3.578-.027-5.126.034-1.854.108-3.748.221-5.635.168-2.201.605-4.28 1.298-6.151.298-.771.678-1.571 1.124-2.366.421-.748.938-1.45 1.539-2.092.598-.637 1.311-1.212 2.114-1.709.775-.479 1.686-.836 2.707-1.057.328-.041.647-.063.956-.063.814 0 1.547.144 2.241.444.402.175.828.433 1.263.768.406.315.799.756 1.168 1.313.393.595.749 1.346 1.057 2.228.32.912.567 2.02.738 3.295.284 2.604.448 5.24.487 7.803.035 2.602.018 4.959-.055 7.002-.108 2.361-.258 4.669-.439 6.842-.243 2.078-.697 3.996-1.349 5.65-.283.639-.646 1.332-1.057 2.006-.369.613-.827 1.178-1.356 1.674-.485.456-1.057.816-1.695 1.07-.631.247-1.379.374-2.229.374zm-79.737-.014c-.925 0-1.781-.027-2.543-.085-1.545-.114-2.808-.312-3.856-.6-1.033-.28-1.896-.628-2.575-1.035-.645-.387-1.162-.812-1.539-1.263-1.018-1.092-1.536-2.328-1.597-3.735.002-.941.131-1.764.374-2.315.219-.499.495-.854.846-1.086.406-.269.881-.445 1.446-.537.515-.086 1.051-.127 1.589-.127.138 0 .278.002.416.006 1.566.086 3.529.475 5.98 1.19.138.04.278.06.416.06.628 0 1.213-.398 1.422-1.021.254-.764-.14-1.592-.891-1.876-1.488-.562-2.792-1.228-3.875-1.976-1.05-.725-1.959-1.521-2.703-2.369-.722-.82-1.322-1.668-1.781-2.519-.458-.849-.827-1.675-1.099-2.451-.591-1.774-.792-3.536-.595-5.208.155-1.053.422-1.941.792-2.596.358-.643.774-1.145 1.238-1.496.497-.377 1.013-.648 1.584-.832.602-.188 1.223-.309 1.838-.35.293-.02.591-.029.893-.029 1.326 0 2.799.195 4.377.582 3.12.627 6.029 1.236 8.021 2.005 1.926.735 3.267 1.448 4.109 2.188.784.688 1.263 1.369 1.425 2.029.2.805.271 1.516.212 2.113-.072.57-.248 1.046-.528 1.409-.319.413-.709.742-1.192 1.003-.536.286-1.155.505-1.843.645-.696.145-1.414.217-2.133.217-.013 0-.118 0-.132 0l-.35.005c-1.82 0-3.786-.326-5.84-.968-.149-.045-.298-.067-.446-.067-.63 0-1.215.398-1.423 1.028-.253.777.16 1.615.935 1.883 1.83.632 3.747 1.311 5.366 1.98 1.575.651 2.838 1.249 3.864 1.831 1.081.612 1.926 1.18 2.578 1.733.672.568 1.226 1.115 1.648 1.628.9 1.099 1.353 2.177 1.383 3.296 0 .993-.158 1.847-.481 2.564-.322.713-.74 1.298-1.28 1.786-.569.517-1.21.938-1.965 1.289-.794.374-1.617.692-2.449.951-1.969.573-4.282.931-6.854 1.048-.983.049-1.912.072-2.782.072zm133.13-.183c-1.197-.008-2.186-.254-3.021-.748-.912-.531-1.715-1.27-2.39-2.193-.713-.976-1.323-2.109-1.816-3.365-.505-1.289-.923-2.633-1.243-3.987-.789-3.199-1.205-6.737-1.238-10.534-.006-.804-.647-1.458-1.449-1.484-.015 0-.03 0-.046 0-.782 0-1.438.602-1.494 1.388-.217 2.98-.674 4.55-1.02 5.341-.638 1.456-1.143 2.014-1.39 2.218-.49.433-.831.479-1.05.479-.07 0-.143-.007-.217-.018-.055-.009-.107-.014-.162-.016-.998-.043-1.716-.398-2.258-1.123-.71-.941-1.248-1.993-1.603-3.131-.447-1.37-.722-2.924-.825-4.635-.051-.793-.705-1.406-1.494-1.406-.016 0-.031 0-.047 0-.808.027-1.45.688-1.45 1.498 0 2.67-.137 5.09-.402 7.197-.272 2.137-.624 4.002-1.047 5.55-.42 1.554-.899 2.875-1.425 3.931-.529 1.067-1.066 1.956-1.595 2.643-1.127 1.393-2.34 2.169-3.682 2.354-1.156-.01-2.146-.193-2.952-.551-.857-.378-1.602-.863-2.215-1.447-.625-.596-1.146-1.278-1.547-2.033-.438-.818-.796-1.656-1.061-2.491-.618-2.02-.933-4.314-.933-6.803 0-3.573.203-6.708.626-9.583.406-2.803.872-5.248 1.385-7.266.598-2.266 1.287-4.344 2.044-6.165.874-2.199 1.906-3.845 3.077-4.915 1.18-1.076 2.311-1.852 3.363-2.307 1.132-.477 2.3-.722 3.462-.722l.193.002.348-.005c.947 0 1.806.134 2.552.398.816.289 1.52.67 2.085 1.13.58.471 1.072 1.018 1.465 1.628.423.658.768 1.339 1.028 2.02.639 1.703 1 3.698 1.067 5.928.023.786.655 1.421 1.44 1.449.02 0 .039.002.059.002.762 0 1.405-.575 1.486-1.339.236-2.229.748-4.149 1.521-5.7.312-.606.706-1.215 1.163-1.788.414-.523.91-.972 1.478-1.34.536-.343 1.175-.586 1.899-.716.273-.05.564-.074.867-.074.519 0 1.087.072 1.695.215 1.53.357 2.896 1.103 4.061 2.219 1.235 1.182 2.29 2.456 3.137 3.791.977 1.518 1.828 3.213 2.535 5.039.956 2.654 1.713 5.292 2.238 7.809.525 2.519.921 4.785 1.177 6.74.287 2.28.451 4.439.486 6.414.035 1.464-.042 2.733-.226 3.781-.181 1.024-.435 1.904-.755 2.61-.309.696-.664 1.276-1.066 1.731-.431.492-.87.895-1.312 1.201-1.059.752-2.234 1.145-3.506 1.179z"/><path d="m122.4 10.775c.562-1.41 1.279-2.395 2.15-3.035.87-.639 1.734-1.059 2.592-1.285.991-.277 2.023-.371 3.096-.291.855.064 1.587.178 2.19.343s1.105.36 1.507.59c.402.229.717.481.944.761.229.277.409.559.543.843.267.675.295 1.437.081 2.284-.349 1.012-.926 1.909-1.729 2.674-.804.766-1.622 1.408-2.452 1.916-.965.607-2.01 1.129-3.135 1.566.535 1.312.776 2.537.723 3.646-.055 1.108-.2 2.078-.442 2.89-.295.951-.709 1.816-1.246 2.594-.616.776-1.312 1.349-2.089 1.706-.777.358-1.688.564-2.733.626-.857.049-1.602.016-2.23-.108-.63-.124-1.146-.276-1.548-.462-.481-.203-.883-.447-1.205-.732-.429-.396-.783-.834-1.065-1.309-.281-.477-.503-.977-.663-1.503s-.269-1.058-.321-1.597c-.054-.537-.081-1.045-.081-1.521 0-1.133.146-2.288.441-3.455-1.365-.358-2.612-.835-3.737-1.438-.482-.255-.958-.546-1.427-.876-.469-.328-.904-.697-1.306-1.105s-.745-.858-1.025-1.348c-.282-.49-.476-1.021-.583-1.59-.134-.669-.146-1.263-.039-1.778.105-.517.28-.968.521-1.356.241-.387.529-.717.864-.988.334-.273.689-.494 1.065-.664.884-.418 1.915-.669 3.095-.775.884-.035 1.701.01 2.452.129.749.119 1.427.283 2.029.494s1.138.454 1.607.732c.47.279.877.572 1.226.881.831.702 1.473 1.54 1.93 2.541z"/><path d="m44.935 6.965c1.901.107 3.435.555 4.601 1.324 1.164.77 2.081 1.586 2.75 2.455.777 1.005 1.34 2.138 1.689 3.394.401 1.872.453 3.421.16 4.695-.294 1.272-.71 2.317-1.246 3.149-.617.969-1.379 1.779-2.29 2.434 1.231.371 2.182.922 2.852 1.662.668.738 1.151 1.463 1.446 2.185.349.84.55 1.747.603 2.724.053 1.252-.052 2.37-.321 3.364-.267.995-.642 1.868-1.125 2.623-.481.755-1.043 1.419-1.687 1.991-.644.574-1.298 1.055-1.968 1.443-1.607.924-3.441 1.551-5.503 1.848-1.126.155-2.156.186-3.094.101-.938-.087-1.782-.247-2.531-.476-.75-.229-1.421-.502-2.009-.818-.591-.316-1.099-.659-1.527-1.027-1.045-.83-1.835-1.807-2.372-2.924-.802-1.584-1.325-3.307-1.566-5.174-.24-1.867-.361-3.642-.361-5.305 0-1.695.082-3.256.241-4.664.161-1.41.348-2.618.562-3.615.243-1.167.508-2.229.805-3.178.347-1.194.789-2.235 1.324-3.115.536-.88 1.12-1.643 1.749-2.283s1.285-1.146 1.967-1.519c.685-.371 1.347-.669 1.99-.895 1.527-.483 3.147-.618 4.861-.399zm-1.407 10.818c-.455.01-.837.199-1.145.568-.308.373-.461.853-.461 1.438 0 .553.113 1.057.34 1.512.228.457.649.677 1.265.66.536-.016.938-.256 1.206-.725.268-.467.402-.974.402-1.524 0-.515-.134-.967-.402-1.358-.267-.391-.669-.582-1.205-.571zm.362 12.029c-.455.018-.85.24-1.185.666-.334.426-.476.891-.422 1.395.054.66.221 1.108.502 1.349s.65.351 1.104.33c.456-.021.83-.194 1.126-.521.293-.327.442-.757.442-1.292 0-.504-.135-.955-.402-1.355-.268-.402-.657-.592-1.165-.572z"/><path d="m97.502 6.562c1.901.05 3.436.298 4.602.721 1.164.425 2.081.872 2.75 1.358.777.561 1.34 1.203 1.689 1.939.401 1.104.453 2.062.16 2.883-.294.82-.711 1.527-1.246 2.111-.617.68-1.378 1.283-2.289 1.807 1.231.164 2.182.486 2.852.967.668.48 1.151.973 1.446 1.481.349.593.55 1.253.602 1.989.054.944-.052 1.821-.32 2.627-.267.805-.642 1.538-1.125 2.191-.481.654-1.044 1.252-1.688 1.789-.643.539-1.297 1.012-1.968 1.416-1.606.963-3.441 1.744-5.504 2.34-1.126.319-2.156.533-3.094.639-.938.104-1.781.14-2.53.1-.751-.039-1.421-.128-2.009-.27-.591-.141-1.1-.32-1.527-.539-1.045-.474-1.836-1.128-2.371-1.965-.802-1.174-1.326-2.529-1.566-4.055-.24-1.524-.361-2.974-.361-4.334 0-1.387.081-2.655.241-3.795.161-1.141.348-2.104.562-2.895.243-.924.509-1.754.805-2.484.348-.918.789-1.709 1.324-2.369.536-.66 1.12-1.219 1.749-1.68s1.284-.816 1.968-1.074c.685-.258 1.347-.459 1.99-.609 1.524-.324 3.146-.407 4.858-.289zm-1.406 6.891c-.455.043-.838.203-1.145.482-.308.281-.461.627-.461 1.035 0 .385.113.727.34 1.021.229.299.65.406 1.266.329.536-.067.938-.276 1.206-.626.268-.348.402-.706.402-1.078 0-.348-.135-.641-.402-.881-.268-.237-.67-.335-1.206-.282zm.362 8.58c-.454.076-.849.305-1.184.686s-.477.77-.422 1.158c.053.516.22.848.502.994.28.148.649.178 1.104.092.457-.086.831-.279 1.127-.581.294-.302.442-.659.442-1.077 0-.391-.135-.722-.402-.994-.269-.271-.659-.366-1.167-.278z"/><path d="m79.905 35.869c-.643.367-1.312.659-2.007.876-.588.19-1.236.315-1.946.37-.709.053-1.412-.047-2.106-.304-.803-.314-1.45-.746-1.946-1.294-.495-.547-.889-1.109-1.183-1.683s-.494-1.113-.603-1.618c-.107-.504-.174-.842-.2-1.009-.027.177-.093.54-.201 1.087-.107.548-.307 1.168-.601 1.864-.294.695-.689 1.424-1.184 2.185-.496.762-1.143 1.474-1.945 2.138-.696.558-1.398.962-2.105 1.21-.709.246-1.359.395-1.947.447-.694.068-1.363.047-2.006-.07-.534-.107-.995-.293-1.383-.56-.389-.265-.708-.588-.963-.968-.255-.379-.469-.796-.642-1.252-.174-.455-.301-.913-.382-1.375-.213-1.089-.293-2.289-.24-3.598.08-2.16.293-4.209.641-6.119.348-1.909.783-3.697 1.304-5.341.521-1.645 1.088-3.142 1.705-4.479.615-1.337 1.216-2.548 1.805-3.634.883-1.627 1.785-2.863 2.708-3.706.922-.845 1.778-1.452 2.568-1.831.788-.381 1.444-.592 1.965-.643.522-.051.822-.076.902-.076.079-.001.38.021.902.066.521.043 1.178.242 1.965.582s1.651.875 2.587 1.583 1.845 1.729 2.729 3.032c.588.873 1.183 1.828 1.785 2.865.601 1.038 1.163 2.195 1.685 3.473.52 1.277.955 2.682 1.303 4.222.347 1.54.561 3.243.643 5.126.078 1.133.012 2.231-.201 3.294-.08.446-.207.911-.381 1.392s-.394.947-.662 1.398c-.267.452-.595.877-.983 1.277-.385.402-.846.759-1.38 1.073zm-9.83-13.235c-.454.065-.849.315-1.182.749-.336.436-.476.889-.423 1.354.054.613.222 1.016.501 1.205.281.191.649.247 1.103.172.455-.074.829-.283 1.124-.622.295-.337.44-.753.44-1.247 0-.464-.134-.866-.401-1.207-.266-.341-.653-.477-1.162-.404z"/><path d="m141.079 10.684c-2.928 1.914-6.985 7.719-6.985 13.329 9.476-7.244 13.447-.392 17.592-3.06 2.929-1.855 2.929-6.504 0-9.357-2.931-2.826-7.679-2.814-10.607-.912z"/><path d="m142.613 23.604c-2.03-.387-6.316.314-8.52 2.109 6.569.659 5.647 4.059 8.52 4.578 2.032.418 3.677-.714 3.677-2.594 0-1.883-1.645-3.736-3.677-4.093z"/><path d="m22.175 21.566c2.929 1.914 6.986 7.719 6.985 13.329-9.476-7.244-13.447-.392-17.591-3.06-2.929-1.855-2.929-6.504 0-9.357 2.93-2.826 7.678-2.813 10.606-.912z"/><path d="m20.641 34.486c2.03-.387 6.317.313 8.52 2.109-6.57.659-5.646 4.059-8.52 4.578-2.031.416-3.676-.715-3.676-2.594 0-1.882 1.645-3.736 3.676-4.093z"/></g></svg>