<svg height="58.285" viewBox="0 0 228.252 58.285" width="228.252" xmlns="http://www.w3.org/2000/svg"><g fill="#b2b3b5" transform="translate(-103.432 -410.226)"><path d="m179.821 425.332c-.887-1.143-2.332-1.781-3.77-1.781-3.501 0-5.81 2.797-5.81 6.336 0 3.285 2.178 6.082 5.81 6.082 1.784 0 3.153-.799 4.075-2.094l1.785 1.344c-.465.636-2.336 2.728-5.904 2.728-4.952 0-8.01-4.14-8.01-8.06 0-4.844 3.324-8.323 8.121-8.323 2.049 0 4.205.774 5.461 2.426z"/><path d="m186.429 428.83h2.77c1.671 0 3.347-.396 3.347-2.506 0-2.111-1.676-2.51-3.347-2.51h-2.77zm-2.119-6.871h5.482c3.985 0 4.998 2.4 4.998 4.365 0 1.981-1.476 3.85-3.832 4.117l4.426 7.11h-2.642l-3.963-6.873h-2.35v6.873h-2.119z"/><path d="m210.724 429.761c0-3.414-2.305-6.211-5.873-6.211s-5.881 2.797-5.881 6.211c0 3.41 2.313 6.207 5.881 6.207s5.873-2.797 5.873-6.207m-14 0c0-4.629 3.371-8.197 8.127-8.197 4.754 0 8.121 3.568 8.121 8.197 0 4.617-3.367 8.186-8.121 8.186-4.756 0-8.127-3.569-8.127-8.186"/><path d="m216.032 421.959h9.801v1.986h-7.684v4.885h7.156v1.987h-7.156v6.734h-2.117z"/><path d="m232.425 423.945h-5.021v-1.986h12.154v1.986h-5.018v13.605h-2.115z"/><path d="m243.601 427.377h-1.721v-5.418h1.721z"/><path d="m246.757 434.296c.74 1.138 2.045 1.673 3.299 1.673 1.385 0 3.107-.881 3.107-2.603 0-3.587-7.687-1.363-7.687-7.436 0-1.835 1.545-4.366 5.283-4.366 1.695 0 3.328.353 4.49 1.789l-1.717 1.559c-.527-.817-1.564-1.361-2.773-1.361-2.332 0-3.035 1.412-3.035 2.379 0 3.937 7.682 1.583 7.682 7.197 0 3.015-2.424 4.82-5.419 4.82-2 0-3.915-.684-4.97-2.156z"/><path d="m177.64 451.068-2.906-7.148h-.047l-2.951 7.148zm-3.787-9.879h1.914l6.672 15.584h-2.467l-1.559-3.85h-7.423l-1.541 3.85h-2.467z"/><path d="m194.761 444.556c-.885-1.143-2.336-1.785-3.768-1.785-3.498 0-5.81 2.799-5.81 6.344 0 3.277 2.178 6.076 5.81 6.076 1.784 0 3.149-.791 4.075-2.092l1.785 1.342c-.467.64-2.336 2.726-5.905 2.726-4.953 0-8.015-4.132-8.015-8.052 0-4.85 3.328-8.321 8.125-8.321 2.053 0 4.207.77 5.461 2.422z"/><path d="m209.808 444.556c-.885-1.143-2.336-1.785-3.762-1.785-3.504 0-5.812 2.799-5.812 6.344 0 3.277 2.175 6.076 5.812 6.076 1.782 0 3.147-.791 4.073-2.092l1.782 1.342c-.464.64-2.333 2.726-5.906 2.726-4.951 0-8.015-4.132-8.015-8.052 0-4.85 3.332-8.321 8.127-8.321 2.051 0 4.211.77 5.461 2.422z"/><path d="m227.028 448.982c0-3.412-2.313-6.211-5.873-6.211-3.57 0-5.879 2.799-5.879 6.211 0 3.41 2.309 6.209 5.879 6.209 3.56 0 5.873-2.799 5.873-6.209m-14.002 0c0-4.623 3.373-8.188 8.129-8.188 4.748 0 8.123 3.565 8.123 8.188 0 4.617-3.375 8.186-8.123 8.186-4.756 0-8.129-3.569-8.129-8.186"/><path d="m234.208 441.189v9.551c0 1.937.973 4.451 3.926 4.451 2.945 0 3.914-2.514 3.914-4.451v-9.551h2.115v9.879c0 3.619-2.619 6.1-6.029 6.1-3.416 0-6.037-2.481-6.037-6.1v-9.879z"/><path d="m247.946 441.189h2.773l8.588 12.814h.043v-12.814h2.11v15.584h-2.68l-8.674-12.809h-.043v12.809h-2.117z"/><path d="m268.714 443.168h-5.018v-1.979h12.155v1.979h-5.02v13.605h-2.117z"/><path d="m285.36 451.068-2.902-7.148h-.051l-2.953 7.148zm-3.787-9.879h1.914l6.672 15.584h-2.463l-1.563-3.85h-7.419l-1.545 3.85h-2.463z"/><path d="m292.268 441.189h2.771l8.591 12.814h.045v-12.814h2.11v15.584h-2.682l-8.674-12.809h-.045v12.809h-2.116z"/><path d="m313.034 443.168h-5.016v-1.979h12.153v1.979h-5.018v13.605h-2.119z"/><path d="m323.036 453.519c.742 1.145 2.043 1.672 3.299 1.672 1.387 0 3.109-.881 3.109-2.602 0-3.59-7.691-1.364-7.691-7.439 0-1.824 1.541-4.356 5.283-4.356 1.697 0 3.33.348 4.494 1.782l-1.717 1.558c-.527-.808-1.564-1.363-2.777-1.363-2.336 0-3.033 1.414-3.033 2.379 0 3.939 7.681 1.586 7.681 7.201 0 3.016-2.421 4.816-5.419 4.816-2 0-3.915-.681-4.969-2.156z"/><path d="m143.733 430.115-16.025 9.256 16.025 9.254v12.251l-26.637-15.382v-12.25l26.637-15.381zm-11.162-19.889c-16.086 0-29.139 13.049-29.139 29.145 0 16.098 13.053 29.14 29.139 29.14 16.1 0 29.15-13.042 29.15-29.14 0-16.096-13.05-29.145-29.15-29.145"/></g></svg>