<svg enable-background="new 0 0 147.336 113.385" height="113.385" viewBox="0 0 147.336 113.385" width="147.336" xmlns="http://www.w3.org/2000/svg"><g fill="#999"><path d="m3.398 43.188v-5.945h2.244c.461 0 .822.016 1.223.277.398.27.626.685.626 1.17 0 .676-.398 1.179-1.051 1.333v.019c.736.155 1.229.746 1.229 1.508 0 .506-.17.945-.569 1.258-.453.357-.92.381-1.467.381zm1.899-3.397c.372 0 .779.009 1.084-.226.244-.176.371-.493.371-.778 0-.357-.137-.608-.443-.791-.259-.146-.525-.146-.82-.146h-1.346v1.94zm.304 2.765c.327 0 .694-.034.954-.243.25-.188.37-.475.37-.797 0-.356-.155-.71-.431-.928-.285-.226-.659-.226-.998-.226h-1.353v2.193z"/><path d="m15.25 41.005c0 .589-.035 1.135-.437 1.612-.397.477-.996.659-1.602.659-.58 0-1.198-.124-1.596-.572-.435-.484-.468-1.084-.468-1.699v-3.762h.745v3.762c0 .355.01.841.225 1.151.244.357.748.461 1.153.461.381 0 .815-.122 1.066-.425.288-.339.288-.781.288-1.188v-3.762h.624v3.763z"/><path d="m19.064 43.188v-5.945h.745v5.945z"/><path d="m27.145 43.188h-3.512v-5.945h.747v5.286h2.765z"/><path d="m30.37 37.243h1.882c.846 0 1.482.172 2.042.84.516.598.723 1.343.723 2.114 0 .729-.192 1.448-.614 2.046-.479.668-1.095.945-1.91.945h-2.123zm1.836 5.313c.687 0 1.231-.155 1.619-.754.299-.45.436-1.064.436-1.604 0-.605-.156-1.238-.546-1.725-.407-.511-.884-.606-1.509-.606h-1.094v4.689z"/><path d="m38.5 43.188v-5.945h.745v5.945z"/><path d="m47.412 43.188h-.729l-3.026-5.185v5.185h-.621v-5.945h.933l2.815 4.846v-4.846h.628z"/><path d="m55.68 43.232h-.458l-.201-.737c-.371.545-.996.781-1.643.781-.802 0-1.387-.283-1.858-.919-.45-.615-.622-1.327-.622-2.081 0-1.56.813-3.121 2.572-3.121 1.136 0 1.872.643 2.149 1.708l-.701.173c-.149-.745-.723-1.257-1.499-1.257-1.345 0-1.718 1.369-1.718 2.463 0 .511.095 1.118.338 1.576.268.503.799.851 1.387.851.919 0 1.492-.625 1.492-1.526v-.329h-1.481v-.624h2.243z"/><path d="m68.106 41.334c-.276 1.127-.946 1.942-2.201 1.942-1.714 0-2.42-1.656-2.42-3.121 0-1.533.758-3 2.479-3 1.196 0 1.899.807 2.143 1.896l-.699.132c-.209-.755-.584-1.405-1.468-1.405-1.292 0-1.638 1.405-1.638 2.438 0 .467.079 1.046.277 1.48.242.531.705.953 1.326.953.912 0 1.335-.685 1.527-1.463z"/><path d="m71.274 40.258c0-1.483.729-3.103 2.442-3.103 1.674 0 2.447 1.525 2.447 2.991 0 1.457-.746 3.13-2.437 3.13-1.705 0-2.452-1.526-2.452-3.018zm4.109-.068c0-.529-.088-1.146-.354-1.621-.271-.469-.729-.8-1.286-.8-1.326 0-1.691 1.432-1.691 2.497 0 1.024.417 2.402 1.675 2.402 1.275.001 1.656-1.456 1.656-2.478z"/><path d="m84.029 43.188h-.729l-3.025-5.185v5.185h-.625v-5.945h.937l2.818 4.846v-4.846h.625z"/><path d="m89.659 43.188h-.748v-5.298h-1.688v-.647h4.125v.647h-1.688v5.298z"/><path d="m98.052 43.188-1.101-2.573h-1.648v2.573h-.746v-5.945h2.23c.484 0 .953.06 1.351.361.401.306.633.8.633 1.303 0 .7-.416 1.335-1.11 1.523l1.17 2.758zm-1.354-3.179c.397 0 .729-.026 1.022-.331.209-.208.303-.493.303-.779 0-.347-.127-.634-.415-.823-.259-.185-.513-.192-.82-.192h-1.484v2.126z"/><path d="m106.572 43.188h-.761l-.602-1.733h-2.199l-.529 1.733h-.625l1.925-5.945h.856zm-2.437-5.148-.915 2.853h1.827z"/><path d="m113.888 41.334c-.278 1.127-.945 1.942-2.202 1.942-1.716 0-2.417-1.656-2.417-3.121 0-1.533.754-3 2.478-3 1.196 0 1.897.807 2.143 1.896l-.701.132c-.21-.755-.585-1.405-1.469-1.405-1.287 0-1.637 1.405-1.637 2.438 0 .467.08 1.046.277 1.48.242.531.703.953 1.326.953.91 0 1.336-.685 1.525-1.463z"/><path d="m119.167 43.188h-.748v-5.298h-1.688v-.647h4.127v.647h-1.688v5.298z"/><path d="m123.604 40.258c0-1.483.73-3.103 2.445-3.103 1.674 0 2.443 1.525 2.443 2.991 0 1.457-.746 3.13-2.435 3.13-1.708 0-2.453-1.526-2.453-3.018zm4.111-.068c0-.529-.088-1.146-.355-1.621-.268-.469-.727-.8-1.283-.8-1.324 0-1.689 1.432-1.689 2.497 0 1.024.417 2.402 1.674 2.402 1.271.001 1.653-1.456 1.653-2.478z"/><path d="m135.493 43.188-1.103-2.573h-1.647v2.573h-.744v-5.945h2.227c.484 0 .952.06 1.352.361.399.306.633.8.633 1.303 0 .7-.416 1.335-1.107 1.523l1.171 2.758zm-1.353-3.179c.396 0 .728-.026 1.022-.331.207-.208.303-.493.303-.779 0-.347-.131-.634-.416-.823-.26-.185-.514-.192-.824-.192h-1.482v2.126z"/><path d="m139.977 41.438c.242.825.926 1.206 1.758 1.206.357 0 .789-.078 1.068-.295.227-.174.365-.479.365-.765 0-.598-.496-.84-1.018-.969l-.986-.245c-.398-.094-.762-.188-1.072-.476-.315-.276-.487-.685-.487-1.1 0-1.146.987-1.64 2.019-1.64.996 0 1.797.494 2.119 1.455l-.68.185c-.127-.651-.822-1.049-1.455-1.049-.564 0-1.273.294-1.273.944 0 .667.52.814 1.074.945l.893.216c.391.086.781.199 1.082.459.373.305.556.712.556 1.18 0 .537-.233 1.023-.667 1.353s-1.016.434-1.549.434c-1.217 0-2.014-.538-2.411-1.692z"/><path d="m0 26.042c.832.133 1.013.133 1.537.133 2.061 0 2.419-.792 2.419-3.777v-21.915h4.389v21.739c0 2.414 0 7.772-5.975 7.772-.351 0-1.404 0-2.37-.308v-3.644z"/><path d="m19.203 29.775-1.01-8.081h-3.513l-.92 8.081h-3.912l4.524-29.292h4.303l4.655 29.292zm-1.405-11.635-.659-5.229c-.176-1.404-.788-7.157-.879-7.992-.046.835-.087 1.58-.22 2.941-.265 2.812-.307 3.119-.483 5.095l-.57 5.185z"/><path d="m38.085 29.775v-11.066c0-1.494.085-6.323.132-10.673-.089.528-1.013 7.642-1.447 10.673l-1.715 11.066h-3.25l-1.8-11.33c-1.012-6.368-1.012-6.412-1.405-10.409.131 5.754.219 9.135.219 10.542v11.197h-3.426v-29.292h4.743l2.415 15.369c.352 1.977.613 4.919.921 8.301.132-2.896.396-4.831.966-8.301l2.332-15.369h4.873v29.292z"/><path d="m45.153 29.775v-29.292h9.969v3.732h-5.579v8.345h4.042v3.731h-4.042v9.75h5.974v3.733z"/><path d="m61.096 22.619c.048 1.843.131 3.862 1.845 3.862 1.274 0 1.887-1.229 1.887-4.171 0-3.338-1.054-4.261-3.818-6.588-1.096-.924-3.645-3.471-3.645-7.993 0-4.084 1.536-7.598 5.664-7.598 4.215 0 5.447 3.469 5.664 6.412l-4.084.527c-.308-3.25-.922-3.25-1.535-3.25-1.057 0-1.363 1.363-1.363 3.513 0 2.11.483 3.119 2.898 5.139 2.59 2.24 4.566 4.394 4.566 9.049 0 3.645-.788 8.605-6.19 8.605-5.098 0-5.973-4.26-5.973-7.071z"/><path d="m94.017 22.619c.04 1.843.13 3.862 1.844 3.862 1.272 0 1.888-1.229 1.888-4.171 0-3.338-1.055-4.261-3.817-6.588-1.103-.924-3.647-3.471-3.647-7.993 0-4.084 1.533-7.598 5.662-7.598 4.219 0 5.449 3.469 5.668 6.412l-4.089.527c-.309-3.25-.918-3.25-1.537-3.25-1.052 0-1.359 1.363-1.359 3.513 0 2.11.484 3.119 2.896 5.139 2.592 2.24 4.566 4.394 4.566 9.049 0 3.645-.788 8.605-6.19 8.605-5.095 0-5.97-4.26-5.97-7.071z"/><path d="m110.657.132c4.657 0 6.676 3.688 6.676 15.02 0 11.33-2.019 14.975-6.676 14.975-5.928 0-6.632-6.368-6.632-14.975 0-8.299.573-15.02 6.632-15.02zm-1.58 24.595c.174.834.482 1.755 1.58 1.755 1.1 0 1.406-.88 1.584-1.755.396-1.978.396-8.301.396-8.828 0-4.172-.046-6.019-.222-9.136-.09-2.151-.615-2.986-1.758-2.986-1.098 0-1.406.835-1.58 1.757-.354 1.843-.354 9.44-.354 9.618.001 2.285.001 7.597.354 9.575z"/><path d="m129.252 29.775-3.91-12.955c-.131-.439-1.055-3.381-1.885-7.377.133 3.337.349 9.045.349 10.889v9.443h-3.603v-29.292h3.691l3.732 13.176c1.011 3.556 1.363 4.875 2.021 7.686-.219-3.471-.396-7.246-.396-10.453v-10.409h3.558v29.292z"/><path d="m139.256 22.619c.043 1.843.132 3.862 1.844 3.862 1.271 0 1.888-1.229 1.888-4.171 0-3.338-1.053-4.261-3.821-6.588-1.096-.924-3.646-3.471-3.646-7.993 0-4.084 1.537-7.598 5.666-7.598 4.215 0 5.446 3.469 5.663 6.412l-4.081.526c-.308-3.25-.923-3.25-1.537-3.25-1.055 0-1.364 1.363-1.364 3.513 0 2.11.488 3.119 2.901 5.139 2.592 2.24 4.567 4.394 4.567 9.049 0 3.645-.793 8.605-6.192 8.605-5.095 0-5.972-4.26-5.972-7.071z"/><path d="m85.538 23.873c-.351.177-.632.249-1.123.249-1.199 0-1.834-.706-2.434-1.551-.527.598-1.439 1.584-3.38 1.584-3.767 0-5.036-3.344-5.036-6.479 0-3.52 1.375-5.423 2.891-7.535-1.127-2.219-1.869-3.627-1.869-5.423-.001-2.183 1.304-4.718 3.944-4.718 2.255 0 4.015 1.688 4.015 4.684 0 1.69-.563 3.451-2.779 5.915l2.533 5.6c.246-1.127.386-3.486.386-3.872l2.575.313c-.18 2.749-.565 4.615-1.445 6.762.352.882.811 1.621 1.445 1.621.142 0 .205-.036.277-.072zm-7.78-10.844c-.92 1.937-.92 3.979-.92 4.507 0 1.655.428 3.731 2.045 3.731.281 0 1.341-.068 2.007-1.193zm.844-4.929c.458-.6 1.303-1.691 1.303-3.45 0-1.374-.561-1.938-1.158-1.938-.637 0-1.166.669-1.166 1.938-.002 1.442.774 2.954 1.021 3.45z"/><path d="m73.566 26.042h11.972v3.733h-11.972z"/><path d="m35.317 76.483-31.955-18.451v-7.379l31.955 18.451z"/><path d="m35.317 76.483 31.959-18.451v-7.379l-31.959 18.451z"/><path d="m35.317 91.245-31.955-18.452v-7.378l31.955 18.451z"/><path d="m35.317 91.245 12.784-7.381-6.39-3.69-6.394 3.692z"/><path d="m73.669 98.624-31.958-18.45v-7.381l31.958 18.452z"/><path d="m73.669 98.624 31.955-18.45v-7.381l-31.955 18.452z"/><path d="m112.016 76.483-31.956-18.451v-7.379l31.956 18.451z"/><path d="m112.016 76.483 31.957-18.451v-7.379l-31.957 18.451z"/><path d="m73.669 113.385-31.958-18.448v-7.381l31.958 18.448z"/><path d="m73.669 113.385 31.955-18.448v-7.381l-31.955 18.448z"/><path d="m112.016 91.245-6.412-3.703.02-7.368 6.392 3.692z"/><path d="m112.016 91.245 31.957-18.452v-7.378l-31.957 18.451z"/></g></svg>