<svg enable-background="new 0 0 184.251 44.496" height="44.496" viewBox="0 0 184.251 44.496" width="184.251" xmlns="http://www.w3.org/2000/svg"><g fill="#999"><path d="m15.558 20.267c0 1.228-.994 2.225-2.223 2.225s-2.225-.997-2.225-2.225v-4.484h-9.196l-1.914 12.931h24.755v-12.932h-9.197zm166.779-4.485h-9.197v4.484c0 1.229-.994 2.225-2.223 2.225s-2.225-.995-2.225-2.225v-4.484h-9.195v12.932h24.754z"/><path d="m182.337 0h-9.197v4.485c0 1.229-.994 2.225-2.223 2.225s-2.225-.996-2.225-2.225v-4.485h-153.134v4.485c0 1.228-.994 2.225-2.223 2.225s-2.225-.997-2.225-2.225v-4.485h-9.196l-1.914 12.933h184.251z"/><path d="m182.337 31.563h-9.197v4.486c0 1.229-.994 2.223-2.223 2.223s-2.225-.994-2.225-2.223v-4.486h-153.134v4.486c0 1.227-.994 2.223-2.223 2.223s-2.225-.996-2.225-2.223v-4.486h-9.196l-1.914 12.933h184.251z"/><path d="m29.927 16.763c1.42-.149 2.721-.225 3.901-.225 1.141 0 2.119.08 2.935.24s1.485.407 2.011.742c.525.336.913.769 1.163 1.299s.375 1.16.375 1.891c0 1.4-.535 2.453-1.605 3.159-1.071.705-2.677 1.058-4.817 1.058h-.436v2.866h-3.526v-11.03zm4.592 5.477c.431 0 .788-.022 1.073-.067s.511-.127.676-.247.282-.278.353-.473c.069-.195.104-.443.104-.743 0-.29-.027-.533-.082-.728-.056-.195-.158-.351-.308-.466-.15-.114-.355-.195-.615-.24-.261-.045-.601-.067-1.021-.067-.19 0-.411.005-.66.016-.251.01-.445.024-.586.045v2.881c.34.06.695.089 1.066.089z"/><path d="m41.424 16.688h9.244v2.642h-5.718v1.591h5.117v2.642h-5.117v1.591h5.868v2.641h-9.395v-11.107z"/><path d="m54.834 19.329h-3.196v-2.642h9.935v2.642h-3.213v8.464h-3.526z"/><path d="m62.675 16.688h9.244v2.642h-5.718v1.591h5.117v2.642h-5.117v1.591h5.868v2.641h-9.395v-11.107z"/><path d="m76.52 16.688c.01.101.024.218.045.354.02.135.03.272.03.412 0 .301-.03.623-.091.968-.06.346-.152.698-.277 1.059s-.28.723-.465 1.088c-.186.365-.403.713-.653 1.043h-1.966c.21-.351.37-.811.48-1.381.109-.57.165-1.155.165-1.756 0-.35-.021-.66-.061-.931-.04-.27-.13-.555-.27-.855h3.063z"/><path d="m82.253 27.974c-.33 0-.695-.011-1.096-.03-.4-.021-.811-.05-1.23-.09s-.836-.088-1.245-.143c-.411-.055-.791-.113-1.141-.173v-2.791c.96.189 1.793.325 2.498.405.706.08 1.363.12 1.974.12.63 0 1.068-.043 1.313-.128s.367-.242.367-.473c0-.26-.127-.458-.383-.593-.255-.135-.692-.242-1.312-.323-1.511-.17-2.614-.553-3.31-1.147-.695-.596-1.043-1.453-1.043-2.574 0-.55.115-1.043.346-1.478.229-.436.562-.803.998-1.104.435-.3.965-.53 1.59-.69.626-.159 1.334-.24 2.124-.24.271 0 .538.008.803.022.265.016.556.041.87.075.315.035.666.083 1.051.143.385.061.833.136 1.343.226v2.776c-.56-.17-1.17-.303-1.83-.398s-1.266-.142-1.816-.142c-1.17 0-1.756.234-1.756.705 0 .29.138.513.413.668s.753.282 1.433.382c1.481.23 2.552.608 3.212 1.134s.99 1.263.99 2.213c0 1.241-.423 2.159-1.268 2.754-.846.596-2.144.894-3.895.894z"/><path d="m97.44 27.943c-.931 0-1.831-.018-2.701-.053-.871-.035-1.807-.093-2.807-.173v-10.954c.851-.08 1.666-.137 2.446-.172s1.565-.053 2.355-.053c1.841 0 3.191.258 4.053.772.86.516 1.29 1.323 1.29 2.424 0 1.181-.675 1.951-2.025 2.312v.06c.78.141 1.375.436 1.785.886s.615 1.025.615 1.726c0 1.12-.402 1.938-1.208 2.454-.804.514-2.072.771-3.803.771zm-.555-6.858c.641 0 1.088-.08 1.343-.24.256-.16.383-.445.383-.855 0-.399-.127-.68-.383-.84-.255-.16-.702-.24-1.343-.24-.311 0-.601.007-.87.022-.271.015-.506.037-.705.067v2.086zm.315 4.473c.62 0 1.07-.098 1.351-.293s.42-.503.42-.923c0-.4-.133-.683-.397-.848-.266-.166-.723-.248-1.373-.248h-1.891v2.266c.069.011.14.018.21.022.069.006.17.011.3.016s.303.008.518.008.502 0 .862 0z"/><path d="m103.881 16.688h3.526v8.479h4.968v2.626h-8.494z"/><path d="m113.427 16.688h3.526v11.105h-3.526z"/><path d="m118.891 16.688h2.731l4.337 4.923 1.005 1.261h.15v-6.184h3.062v11.105h-2.731l-4.127-4.682-1.216-1.501h-.149v6.183h-3.062z"/><path d="m135.834 27.943c-.351 0-.701-.005-1.051-.015-.351-.011-.69-.022-1.021-.038-.33-.015-.636-.035-.915-.06-.28-.025-.521-.053-.721-.083v-11.03c1.051-.06 1.938-.104 2.664-.135.725-.03 1.357-.045 1.898-.045 1.17 0 2.178.112 3.023.338.846.225 1.543.569 2.094 1.035.55.465.958 1.058 1.223 1.778.266.721.397 1.575.397 2.566 0 1.021-.14 1.891-.42 2.611s-.723 1.308-1.328 1.763c-.605.456-1.391.788-2.355.998-.965.212-2.128.317-3.488.317zm1.471-2.746c.489 0 .895-.045 1.215-.136.32-.09.578-.247.773-.473.195-.225.332-.527.412-.907.08-.381.12-.855.12-1.426 0-.551-.045-1.016-.135-1.396-.09-.381-.235-.686-.436-.916-.2-.229-.468-.395-.803-.495s-.748-.15-1.238-.15c-.18 0-.388.006-.622.016-.235.01-.548.029-.938.06v5.703c.22.04.478.07.773.09.296.021.588.03.879.03z"/><path d="m149.163 27.974c-.33 0-.695-.011-1.096-.03-.4-.021-.811-.05-1.23-.09s-.836-.088-1.245-.143c-.411-.055-.791-.113-1.141-.173v-2.791c.96.189 1.793.325 2.498.405.706.08 1.363.12 1.974.12.63 0 1.068-.043 1.313-.128s.367-.242.367-.473c0-.26-.127-.458-.383-.593-.255-.135-.692-.242-1.312-.323-1.511-.17-2.614-.553-3.31-1.147-.695-.596-1.043-1.453-1.043-2.574 0-.55.115-1.043.346-1.478.229-.436.562-.803.998-1.104.435-.3.965-.53 1.59-.69.626-.159 1.334-.24 2.124-.24.271 0 .538.008.803.022.265.016.556.041.87.075.315.035.666.083 1.051.143.385.061.833.136 1.343.226v2.776c-.56-.17-1.17-.303-1.83-.398s-1.266-.142-1.816-.142c-1.17 0-1.756.234-1.756.705 0 .29.138.513.413.668s.753.282 1.433.382c1.481.23 2.552.608 3.212 1.134s.99 1.263.99 2.213c0 1.241-.423 2.159-1.268 2.754-.846.596-2.144.894-3.895.894z"/></g></svg>