<svg enable-background="new 0 0 170.079 92.49" height="92.49" viewBox="0 0 170.079 92.49" width="170.079" xmlns="http://www.w3.org/2000/svg"><g fill="#999"><path d="m5.906 80.086c-1.513 0-3.875-.285-5.482-.709v-3.451c1.466.379 3.402.709 5.956.709 3.26 0 4.678-1.891 4.678-5.812 0-4.584-1.276-5.908-3.829-6.428-5.245-1.086-7.229-3.356-7.229-8.932 0-6.76 3.875-9.123 9.309-9.123 1.561 0 3.64.332 5.011.709v3.451c-1.606-.379-3.829-.709-5.482-.709-2.364 0-4.632 1.418-4.632 5.15 0 3.828.662 4.916 3.639 5.529 4.537.945 7.42 2.932 7.42 9.879-.001 7.846-3.734 9.737-9.359 9.737z"/><path d="m18.842 87.789v-31.666h3.309l.377 2.033c1.465-1.512 3.355-2.363 5.578-2.363 5.528 0 7.466 3.592 7.466 10.633 0 10.352-2.551 13.66-10.066 13.66-1.088 0-1.938-.096-2.647-.189v7.893h-4.017zm4.017-24.576v13.281c.709.094 1.702.188 3.121.188 4.488 0 5.482-3.26 5.482-9.781 0-6.004-1.088-7.705-4.112-7.705-2.646-.001-4.491 2.316-4.491 4.017z"/><path d="m55.363 79.754c-.899 0-2.837-.377-3.546-2.316-1.181 1.703-3.072 2.648-6.238 2.648-3.45 0-7.042-1.135-7.042-6.996 0-5.104 3.167-7.893 8.413-7.893h3.732v-2.553c0-1.984-1.182-3.449-3.544-3.449-2.694 0-4.491.33-6.853.992v-3.449c1.75-.52 4.064-.945 6.379-.945 6.146 0 8.036 2.41 8.036 7.799v11.342c0 .945.567 1.512 2.079 1.512v3.309h-1.416zm-4.68-6.379v-4.963h-3.969c-2.032 0-4.065 1.275-4.065 4.395 0 2.932 1.371 3.875 3.876 3.875 3.26 0 4.158-2.362 4.158-3.307z"/><path d="m72.714 79.33c-1.514.424-3.45.756-5.152.756-5.436 0-8.271-1.797-8.271-12.619 0-8.461 2.552-11.674 8.223-11.674 1.56 0 3.829.379 5.2.709v3.496c-1.75-.377-3.073-.662-5.483-.662-2.741 0-3.827 2.08-3.827 9.076 0 7.088 1.465 8.129 3.827 8.129 2.552 0 4.112-.426 5.483-.709z"/><path d="m79.544 69.357c.141 6.238 1.654 7.324 4.017 7.324 2.599 0 4.914-.426 6.333-.756v3.404c-1.512.424-4.161.756-5.861.756-5.436 0-8.507-1.607-8.507-12.146 0-8.744 2.929-12.146 8.602-12.146 5.434 0 7.608 3.781 7.608 10.02v3.545h-12.192zm.046-3.214h8.223v-1.275c0-3.592-.991-5.719-3.779-5.719-3.025-.001-4.207 1.558-4.444 6.994z"/><path d="m109.848 79.281c-1.039.283-3.688.805-5.246.805-6.758 0-9.545-3.309-9.545-17.393 0-13.941 3.211-16.354 10.11-16.354 1.515 0 3.403.332 4.681.662v3.499c-1.561-.379-3.688-.615-5.53-.615-3.45 0-5.058 1.701-5.058 13.139 0 11.91 1.704 13.518 5.104 13.518 1.938 0 4.303-.426 5.484-.709z"/><path d="m125.474 79.754-.332-1.938c-1.322 1.465-3.025 2.27-5.434 2.27-5.249 0-6.807-2.789-6.807-8.555v-15.408h4.019v15.881c0 2.977.52 4.678 3.399 4.678 2.601 0 4.351-2.221 4.443-3.875v-16.684h4.018v23.631z"/><path d="m140.268 80.086c-3.403 0-4.915-.332-6.665-.568v-32.846h4.017v11.201c1.418-1.324 3.167-2.08 5.249-2.08 5.526 0 7.465 3.592 7.465 10.633-.001 10.351-2.552 13.66-10.066 13.66zm-2.649-16.873v13.281c.71.094 1.702.188 3.122.188 4.488 0 5.48-3.26 5.48-9.781 0-6.004-1.089-7.705-4.112-7.705-2.645-.001-4.49 2.316-4.49 4.017z"/><path d="m157.888 69.357c.139 6.238 1.653 7.324 4.015 7.324 2.601 0 4.915-.426 6.334-.756v3.404c-1.512.424-4.16.756-5.86.756-5.434 0-8.507-1.607-8.507-12.146 0-8.744 2.93-12.146 8.604-12.146 5.434 0 7.606 3.781 7.606 10.02v3.545h-12.192zm.046-3.214h8.223v-1.275c0-3.592-.992-5.719-3.78-5.719-3.024-.001-4.208 1.558-4.443 6.994z"/><path d="m76.889 11.252-19.112-11.041c-.483-.281-1.075-.281-1.554 0l-19.123 11.039c-.477.279-.773.791-.773 1.35v22.064c0 .557.296 1.07.773 1.35l19.115 11.035c.242.141.512.211.78.211.27 0 .538-.07.778-.211l19.114-11.035c.482-.279.777-.795.777-1.35l.003-22.062c.001-.557-.297-1.073-.778-1.35zm-20.673 32.201-16.383-9.463 13.575-7.838c.188-.107.252-.346.144-.531-.107-.186-.347-.25-.535-.143l-13.577 7.84v-18.922l16.781 9.684zm.782-20.723-16.78-9.682 16.397-9.468v15.68c0 .213.171.389.387.389.215-.002.389-.176.389-.391v-15.678l16.385 9.471zm.779 1.35 16.774-9.68-.002 18.912-13.573-7.834c-.184-.105-.422-.043-.527.143-.111.186-.044.426.142.531l13.57 7.836-16.389 9.463z"/><path d="m100.002 92.422-.361-1.695h-1.87l-.374 1.695h-.851l1.617-6.705h1.101l1.591 6.705zm-1.301-6.072-.776 3.658h1.562z"/><path d="m107.696 89.512 1.31 2.91h-.917l-1.229-2.777h-.853v2.777h-.831v-6.705s.822-.066 1.619-.066c1.453 0 1.857.775 1.857 1.953.001.986-.276 1.638-.956 1.908zm-.789-3.172c-.524 0-.899.057-.899.057v2.549h.899c.538 0 .894-.23.894-1.273 0-.931-.214-1.333-.894-1.333z"/><path d="m116.069 92.326c-.21.059-.748.164-1.063.164-1.368 0-1.935-.672-1.935-3.525 0-2.826.651-3.314 2.05-3.314.309 0 .689.066.948.133v.709c-.315-.076-.748-.125-1.118-.125-.702 0-1.026.346-1.026 2.664 0 2.414.346 2.74 1.036 2.74.393 0 .87-.086 1.108-.143z"/><path d="m123.298 92.422v-3.084h-1.973v3.084h-.834v-6.705h.834v2.912h1.973v-2.912h.834v6.705z"/><path d="m128.552 92.422v-.699h.671v-5.307h-.671v-.699h2.177v.699h-.674v5.307h.674v.699z"/><path d="m137.083 86.445v5.977h-.834v-5.977h-1.475v-.729h3.784v.729z"/><path d="m142.821 92.422v-6.705h3.141v.699h-2.309v2.193h2.07v.701h-2.07v2.412h2.309v.699h-3.141z"/><path d="m153.247 92.326c-.21.059-.747.164-1.06.164-1.373 0-1.938-.672-1.938-3.525 0-2.826.652-3.314 2.05-3.314.309 0 .689.066.948.133v.709c-.315-.076-.747-.125-1.119-.125-.7 0-1.025.346-1.025 2.664 0 2.414.346 2.74 1.035 2.74.393 0 .872-.086 1.109-.143z"/><path d="m159.609 86.445v5.977h-.834v-5.977h-1.475v-.729h3.783v.729z"/><path d="m166.338 92.49c-.306 0-.785-.059-1.111-.145v-.699c.3.076.692.145 1.208.145.662 0 .949-.385.949-1.18 0-.928-.261-1.197-.776-1.301-1.062-.223-1.468-.682-1.468-1.812 0-1.369.788-1.848 1.889-1.848.315 0 .738.066 1.018.143v.699c-.328-.076-.779-.143-1.113-.143-.479 0-.937.287-.937 1.043 0 .777.133.998.734 1.121.919.191 1.506.594 1.506 2.002-.001 1.592-.76 1.975-1.899 1.975z"/></g></svg>