<svg enable-background="new 0 0 283.463 78.254" height="78.254" viewBox="0 0 283.463 78.254" width="283.463" xmlns="http://www.w3.org/2000/svg"><path d="m10.237 63.063v-9.198l-9.477-9.477c-.48-.48-.76-1.12-.76-1.8 0-1.359 1.2-2.56 2.56-2.56.681 0 1.32.28 1.801.76l8.437 8.438 8.438-8.438c.48-.479 1.12-.76 1.8-.76 1.36 0 2.56 1.2 2.56 2.56 0 .68-.28 1.32-.76 1.8l-9.479 9.478v9.198c0 1.399-1.16 2.56-2.56 2.56-1.399-.001-2.56-1.161-2.56-2.561z" fill="#999"/><path d="m37.213 40.028c7.078 0 12.797 5.719 12.797 12.798 0 7.078-5.719 12.797-12.797 12.797s-12.797-5.719-12.797-12.797c0-7.079 5.719-12.798 12.797-12.798zm0 20.476c4.239 0 7.679-3.439 7.679-7.678s-3.439-7.679-7.679-7.679-7.679 3.439-7.679 7.679c0 4.238 3.44 7.678 7.679 7.678z" fill="#999"/><path d="m74.647 60.064c0 .439-.12.839-.321 1.199.4.52.641 1.119.641 1.8 0 1.6-1.279 2.879-2.879 2.879-1 0-1.88-.479-2.4-1.279-1.559.64-3.199.96-4.838.96-7.078 0-12.798-5.719-12.798-12.797 0-7.079 5.72-12.798 12.798-12.798 3.279 0 6.518 1.28 9.037 3.759.479.48.761 1.16.761 1.801 0 1.399-1.2 2.559-2.56 2.559-.681 0-1.32-.24-1.801-.76-1.479-1.52-3.479-2.239-5.438-2.239-4.239 0-7.679 3.439-7.679 7.679 0 4.238 3.439 7.678 7.679 7.678 1.639 0 3.279-.48 4.679-1.56v-3.56h-2.12c-1.399 0-2.559-1.159-2.559-2.559s1.159-2.561 2.559-2.561h4.68c1.399 0 2.56 1.16 2.56 2.561v7.238z" fill="#999"/><path d="m101.904 63.063c0 1.399-1.16 2.56-2.561 2.56-1.398 0-2.559-1.16-2.559-2.56v-5.119h-12.796v5.119c0 1.399-1.16 2.56-2.56 2.56s-2.56-1.16-2.56-2.56v-11.517c0-6.358 5.159-11.518 11.518-11.518s11.518 5.159 11.518 11.518zm-17.916-10.237h12.797v-1.28c0-3.52-2.879-6.398-6.398-6.398s-6.398 2.879-6.398 6.398v1.28z" fill="#999"/><path d="m183.092 65.623c-1.398 0-2.559-1.16-2.559-2.56v-20.475c0-1.4 1.16-2.56 2.559-2.56h11.518c4.24 0 7.678 3.439 7.678 7.679 0 1.64-.52 3.158-1.398 4.398 1.641 1.4 2.68 3.52 2.68 5.839 0 4.239-3.439 7.679-7.68 7.679zm2.561-20.476v5.118h8.957c1.4 0 2.561-1.159 2.561-2.559s-1.16-2.56-2.561-2.56h-8.957zm0 10.238v5.119h10.236c1.4 0 2.561-1.16 2.561-2.56s-1.16-2.56-2.561-2.56h-10.236z" fill="#999"/><path d="m229.729 63.063c0 1.399-1.16 2.56-2.559 2.56s-2.559-1.16-2.559-2.56v-5.119h-12.799v5.119c0 1.399-1.158 2.56-2.559 2.56-1.398 0-2.561-1.16-2.561-2.56v-11.517c0-6.358 5.16-11.518 11.518-11.518 6.359 0 11.518 5.159 11.518 11.518v11.517zm-17.916-10.237h12.799v-1.28c0-3.52-2.879-6.398-6.4-6.398-3.518 0-6.398 2.879-6.398 6.398v1.28z" fill="#999"/><path d="m236.68 65.623c-1.4 0-2.561-1.16-2.561-2.56v-20.475c0-1.4 1.16-2.56 2.561-2.56h11.518c4.238 0 7.678 3.439 7.678 7.679 0 1.64-.521 3.158-1.4 4.398 1.641 1.4 2.68 3.52 2.68 5.839 0 4.239-3.439 7.679-7.678 7.679zm2.559-20.476v5.118h8.959c1.398 0 2.559-1.159 2.559-2.559s-1.16-2.56-2.559-2.56h-8.959zm0 10.238v5.119h10.238c1.398 0 2.561-1.16 2.561-2.56s-1.162-2.56-2.561-2.56h-10.238z" fill="#999"/><path d="m268.108 63.063v-9.198l-9.48-9.478c-.479-.479-.758-1.12-.758-1.8 0-1.359 1.199-2.56 2.559-2.56.68 0 1.32.28 1.801.76l8.438 8.438 8.438-8.438c.48-.479 1.121-.76 1.801-.76 1.359 0 2.559 1.2 2.559 2.56 0 .68-.281 1.32-.76 1.8l-9.479 9.478v9.198c0 1.399-1.16 2.56-2.559 2.56s-2.56-1.16-2.56-2.56z" fill="#999"/><g fill="#fff"><path d="m134.084 44.07c0-2.48-2.014-4.492-4.493-4.492-1.04 0-1.992.355-2.754.947l-.004-.003-13.48 10.484.004.003c-1.058.822-1.741 2.104-1.741 3.546 0 2.481 2.014 4.493 4.495 4.493 1.038 0 1.992-.355 2.754-.947l.003.003 13.479-10.484-.002-.003c1.055-.823 1.739-2.103 1.739-3.547z"/><circle cx="141.218" cy="22.201" r="17.974"/><ellipse cx="141.218" cy="54.555" rx="17.974" ry="16.477"/><path d="m129.713 39.58h4.194l-1.628.892z"/><path d="m148.352 44.07c0-2.48 2.014-4.492 4.494-4.492 1.039 0 1.992.355 2.754.947l.004-.003 13.479 10.484-.002.003c1.055.822 1.738 2.104 1.738 3.546 0 2.481-2.012 4.493-4.494 4.493-1.037 0-1.99-.355-2.754-.947l-.002.003-13.479-10.484.002-.003c-1.056-.823-1.74-2.103-1.74-3.547z"/><path d="m152.721 39.58h-4.191l1.625.892z"/><path d="m123.559 23.283c-1.225 0-2.214-.99-2.214-2.211 0-1.223.989-2.213 2.214-2.213z"/><path d="m158.877 23.283c1.223 0 2.215-.99 2.215-2.211 0-1.223-.992-2.213-2.215-2.213z"/><path d="m128.105 68.258 28.823-11.763.004.003c.695-.285 1.457-.445 2.26-.445 3.307 0 5.99 2.684 5.99 5.992 0 2.908-2.072 5.331-4.82 5.875v.002l-30.541 6.048-.001-.001c-.188.038-.385.059-.584.059-1.654 0-2.996-1.342-2.996-2.996 0-1.255.77-2.328 1.865-2.774z"/><path d="m154.331 68.258-28.825-11.763v.003c-.697-.285-1.461-.445-2.262-.445-3.309 0-5.992 2.684-5.992 5.992 0 2.908 2.074 5.331 4.823 5.875v.002l30.541 6.048v-.001c.188.038.385.059.584.059 1.654 0 2.996-1.342 2.996-2.996 0-1.255-.772-2.328-1.865-2.774z"/></g><path d="m129.657 58.188h23.121l-11.559 4.718z" fill="#999"/><path d="m120.88 56.539 8.699-6.767-6.263 6.283z" fill="#999"/><path d="m161.555 56.539-8.699-6.767 6.264 6.283z" fill="#999"/><path d="m134.752 12.252c-1.067-.633-1.852-1.595-1.856-2.775 0-.35.282-.633.633-.633.351 0 .636.283.636.633-.006.562.392 1.178 1.238 1.687.833.5 2.053.836 3.408.834.12 0 .24-.002.357-.007-.857-.624-1.452-1.486-1.456-2.514.005-.782.52-1.384 1.149-1.757.643-.382 1.461-.591 2.357-.592.896.001 1.715.21 2.356.592.631.373 1.143.975 1.15 1.757-.004 1.027-.6 1.89-1.457 2.514.119.005.238.007.357.007 1.354.002 2.576-.334 3.408-.834.844-.509 1.242-1.124 1.236-1.687h.004c0-.35.283-.633.631-.633.348 0 .637.283.637.633-.008 1.181-.793 2.143-1.857 2.775-1.076.641-2.498 1.012-4.059 1.012-.855 0-1.668-.111-2.407-.318-.738.207-1.554.318-2.408.32-1.561-.002-2.98-.373-4.057-1.014zm4.76-3.444c-.41.249-.539.505-.533.669-.004.562.394 1.178 1.238 1.687.289.175.628.329 1.002.456.373-.127.711-.281 1.001-.456.843-.509 1.242-1.124 1.238-1.687.006-.164-.123-.42-.533-.669-.398-.239-1.016-.413-1.706-.413-.006 0-.008 0-.012 0-.686 0-1.297.174-1.695.413z" fill="#999"/><path d="m141.22 35.15c-2.155 0-4.21-.672-6.062-1.873-.195-.127-.25-.389-.124-.584.128-.197.39-.252.585-.126 1.737 1.126 3.622 1.736 5.602 1.736 1.976 0 3.857-.612 5.595-1.736h.002c.195-.128.457-.071.584.124.129.196.072.458-.125.585-1.852 1.2-3.9 1.874-6.052 1.874-.002 0-.005 0-.005 0z" fill="#999"/><path d="m130.979 22.201c0-1.782 1.447-3.229 3.229-3.229s3.228 1.446 3.228 3.229" fill="none" stroke="#999" stroke-linecap="round" stroke-width=".5"/><path d="m135.822 23.815c0 .446-.181.849-.473 1.142-.294.291-.697.472-1.142.472s-.849-.181-1.141-.472c-.293-.293-.473-.695-.473-1.142s.18-.85.473-1.142c.292-.292.695-.473 1.141-.473.444 0 .848.181 1.142.473.293.293.473.696.473 1.142z" fill="#999"/><circle cx="135.35" cy="22.674" fill="#fff" r=".807"/><path d="m145 22.201c0-1.782 1.447-3.229 3.229-3.229 1.783 0 3.229 1.446 3.229 3.229" fill="none" stroke="#999" stroke-linecap="round" stroke-width=".5"/><path d="m149.844 23.815c0 .446-.182.849-.473 1.142-.295.291-.697.472-1.143.472s-.848-.181-1.141-.472c-.293-.293-.473-.695-.473-1.142s.18-.85.473-1.142.695-.473 1.141-.473.848.181 1.143.473c.292.293.473.696.473 1.142z" fill="#999"/><circle cx="149.372" cy="22.674" fill="#fff" r=".807"/><path d="m141.219 71.713-7.074-1.401 5.457 1.721z" fill="#999"/><path d="m141.219 62.906 7.074 2.887-5.791-3.41z" fill="#999"/><circle cx="141.218" cy="54.557" fill="#999" r=".646"/><path d="m171.674 47.675-13.477-10.489c-.117-.09-.234-.177-.355-.262 2.715-3.064 4.566-6.865 5.262-11.009 1.363-1.187 2.215-2.93 2.215-4.843 0-2.23-1.141-4.198-2.867-5.355-2.809-9.238-11.383-15.717-21.233-15.717v4.227c8.786 0 16.098 6.309 17.659 14.643v-.01c1.223 0 2.215.99 2.215 2.213 0 1.125-.848 2.045-1.934 2.184-.422 7.293-5.191 13.419-11.754 15.826.445.149.879.318 1.305.498h4.012l-.012.004c.047-.001.09-.006.137-.006 1.039 0 1.992.355 2.754.947l.004-.003 13.479 10.484-.002.003c1.055.822 1.738 2.104 1.738 3.546 0 2.481-2.012 4.493-4.494 4.493-.904 0-1.74-.27-2.447-.729.816 1.022 1.305 2.316 1.305 3.726 0 2.908-2.072 5.331-4.82 5.875v.002l-5.047.999c.543.541.881 1.284.881 2.11 0 1.654-1.342 2.996-2.996 2.996-.199 0-.396-.021-.584-.059v.001l-11.397-2.257v4.309l10.575 2.096c.463.09.936.137 1.406.137 3.572 0 6.547-2.605 7.123-6.015l.861-.171c4.543-.901 7.9-4.773 8.203-9.347 3.303-1.241 5.658-4.434 5.658-8.166-.002-2.706-1.23-5.215-3.373-6.881z" fill="#999"/><path d="m110.762 47.675 13.478-10.489c.116-.09.234-.177.354-.262-2.714-3.064-4.566-6.865-5.262-11.009-1.362-1.187-2.214-2.93-2.214-4.843 0-2.23 1.14-4.198 2.867-5.355 2.808-9.238 11.382-15.717 21.234-15.717v4.227c-8.787 0-16.1 6.309-17.66 14.643v-.01c-1.223 0-2.214.99-2.214 2.213 0 1.125.847 2.045 1.934 2.184.422 7.293 5.19 13.419 11.754 15.826-.445.149-.879.318-1.306.498h-4.012l.013.004c-.047-.001-.091-.006-.137-.006-1.039 0-1.992.355-2.754.947l-.004-.003-13.479 10.484.003.003c-1.056.822-1.739 2.104-1.739 3.546 0 2.481 2.012 4.493 4.494 4.493.904 0 1.741-.27 2.447-.729-.815 1.022-1.305 2.316-1.305 3.726 0 2.908 2.072 5.331 4.821 5.875v.002l5.046.999c-.542.541-.881 1.284-.881 2.11 0 1.654 1.342 2.996 2.996 2.996.199 0 .396-.021.585-.059v.001l11.397-2.257v4.309l-10.576 2.096c-.463.09-.936.137-1.406.137-3.571 0-6.547-2.605-7.123-6.015l-.861-.171c-4.543-.901-7.899-4.773-8.203-9.347-3.302-1.241-5.658-4.434-5.658-8.166 0-2.706 1.228-5.215 3.371-6.881z" fill="#999"/></svg>