<svg xmlns="http://www.w3.org/2000/svg" width="400" height="102.372" viewBox="0, 0, 400,102.37239396117901"><g fill-rule="evenodd"><path d="M36.527.292 35.21 2.833c-.641 1.238-2.086 4.05-3.211 6.25-1.124 2.2-2.587 5.05-3.25 6.334-2.841 5.5-4.172 8.092-6.334 12.333-1.262 2.475-2.359 4.571-2.438 4.658-.358.395-.019.824 1.898 2.398 1.123.923 2.304 1.899 2.625 2.169.321.27 1.483 1.214 2.583 2.097 1.1.882 2.225 1.793 2.5 2.024.275.23 1.925 1.578 3.667 2.996a714.601 714.601 0 0 1 3.862 3.16c.382.32.734.581.781.581.105 0 2-1.658 12.19-10.668 1.925-1.702 7.907-6.98 13.292-11.729 5.385-4.749 9.792-8.666 9.792-8.704 0-.068-2.106-1.065-2.251-1.065-.041 0-.845-.37-1.787-.822C67.684 14.153 55.817 8.693 54 7.886c-.321-.143-1.221-.558-2-.923a414.643 414.643 0 0 0-4.583-2.115c-.642-.292-1.542-.707-2-.921C37.088.025 36.739-.118 36.527.292" fill="#049494"/><path d="M35 .572c-.596.311-2.696 1.293-4.667 2.182a551.39 551.39 0 0 0-4.583 2.088c-.55.258-1.525.707-2.167.997-1.196.54-2.226 1.016-4.416 2.041-.688.321-1.888.868-2.667 1.214-1.78.791-4.889 2.23-6.417 2.969-.641.311-1.804.843-2.583 1.184-.779.34-1.885.836-2.458 1.103-.573.266-1.548.716-2.167 1-.619.284-1.519.709-2 .944L0 16.722v27.343c0 24.21.028 27.302.247 26.99.236-.338 1.22-2.223 4.115-7.888a2428.1 2428.1 0 0 1 2.779-5.417A12130.874 12130.874 0 0 0 17.789 37c.961-1.879 1.814-3.488 1.896-3.575.081-.087.148-.316.148-.508 0-.193.065-.422.144-.509.08-.087 1.215-2.258 2.523-4.825 1.308-2.566 2.92-5.716 3.583-7 2.11-4.082 3.986-7.727 5.917-11.5 1.033-2.016 2.509-4.885 3.28-6.375 1.576-3.044 1.569-3.1-.28-2.136" fill="#046c8c"/><path d="M68.083 21.277A14608.162 14608.162 0 0 1 46.589 40.25a8222.519 8222.519 0 0 0-5.683 5.014c-1.461 1.29-2.972 2.546-3.357 2.789-.386.243-.782.593-.881.778-.099.185-.257.336-.352.336-.094 0-.422.243-.727.541-.925.903-1.399 1.324-4.172 3.71-1.467 1.262-2.869 2.491-3.116 2.73-.743.721-1.105 1.043-3.968 3.524a422.639 422.639 0 0 0-3.193 2.788c-1.933 1.761-2.024 1.843-3.766 3.34a98.903 98.903 0 0 0-2.083 1.84 76.804 76.804 0 0 1-1.646 1.467c-1.46 1.259-4.865 4.26-5.163 4.549-.623.606-2.536 2.271-2.75 2.394-.127.073-.232.205-.232.292 0 .1 12.494.143 33.875.117l33.875-.042.042-29.792c.023-16.385-.014-29.788-.083-29.783-.069.004-2.376 2-5.126 4.435" fill="#3bd3ab"/><path d="M114.708 28.129c-.298.62-.541 1.189-.541 1.264 0 .075-.225.623-.5 1.217-.275.594-.5 1.144-.5 1.223 0 .079-.225.63-.5 1.224s-.5 1.129-.5 1.188c0 .131-1.038 2.62-1.69 4.054-.262.577-.477 1.119-.477 1.204 0 .086-.225.647-.5 1.247-.275.6-.5 1.164-.5 1.252 0 .087-.225.624-.5 1.192-.275.567-.5 1.156-.5 1.308 0 .152-.056.332-.125.401a.477.477 0 0 0-.133.236c-.004.061-.163.411-.353.778-.19.366-.402.854-.47 1.083-.068.229-.34.891-.604 1.47-.265.579-.482 1.127-.482 1.218 0 .09-.225.618-.5 1.172-.275.554-.5 1.096-.5 1.203 0 .108-.262.744-.583 1.414-.321.669-.583 1.31-.583 1.424 0 .113-.225.671-.5 1.239-.275.567-.5 1.106-.5 1.196 0 .09-.225.639-.5 1.221-.275.582-.5 1.147-.5 1.256 0 .108-.225.642-.5 1.187s-.5 1.079-.5 1.186c0 .108-.263.741-.584 1.408-.32.668-.583 1.296-.583 1.398 0 .101-.225.63-.5 1.175-.275.544-.5 1.061-.5 1.147 0 .086-.206.471-.458.856s-.459.763-.459.841c0 .077-.281.477-.625.888-.343.411-.625.786-.625.832 0 .199-2.156 2.182-2.946 2.709-.973.65-2.781 1.227-3.845 1.227h-.709V76.5H106V74.667h-.7c-4.156 0-5.58-3.801-3.216-8.584.432-.875 1.11-2.511 1.537-3.708l.252-.708h9.147c7.019 0 9.147.046 9.147.2 0 .191.911 2.189 2.001 4.39.274.553.499 1.097.499 1.208 0 .111.087.202.194.202.107 0 .148.046.091.103-.057.057.093.489.334.959.369.72.44 1.083.451 2.305l.013 1.451-.738.752c-.847.864-2.249 1.43-3.544 1.43h-.801V76.5H157.5V74.711l-1.625-.089c-2.324-.129-3.645-.867-4.018-2.247-.112-.415-.229-19.536-.121-19.949.048-.188.351-.643.671-1.009l.728-.834c2.51-2.872 7.096-4.287 9.625-2.97 3.055 1.592 3.24 2.405 3.24 14.231 0 12.419-.137 12.823-4.34 12.823h-1.327V76.5H178.5v-1.794l-1.542-.071c-1.559-.073-3.125-.556-3.125-.965 0-.1-.128-.378-.285-.618-.157-.239-.303-.518-.324-.619-.331-1.583-.389-3.226-.39-11.026l-.001-8.843.453-.574c1.791-2.268 4.245-4.015 6.778-4.824 2.593-.828 5.746.858 6.761 3.616l.418 1.135.052 9.301c.073 13.133-.031 13.449-4.409 13.449h-1.219V76.5H200V74.667h-1.303c-4.434 0-4.395.125-4.536-14.5-.112-11.737-.121-11.865-.863-13.417-.591-1.237-.807-1.566-1.262-1.924-.249-.196-.43-.392-.403-.436.054-.088-.797-.731-1.495-1.13-2.028-1.16-6.327-1.498-8.671-.681-.394.137-.823.251-.953.252-1.245.013-7.668 5.459-7.103 6.024.04.041-.06.158-.224.261-.266.165-.323.09-.512-.673-.238-.956-.662-1.972-.889-2.128-.081-.056-.141-.15-.134-.209a2.33 2.33 0 0 0 .015-.257c0-.226-1.133-1.563-1.568-1.849l-1.031-.682c-.358-.238-.839-.477-1.068-.532a94.829 94.829 0 0 1-1.417-.364c-1.91-.505-5.216-.332-6.916.362-.138.056-.313.088-.389.071-.194-.043-2.545 1.271-3.047 1.704-.228.197-.77.658-1.204 1.024-.434.367-1.349 1.314-2.033 2.106l-1.244 1.438-.045-3.552-.045-3.553-.538.075c-1.475.205-7.546.736-8.415.736-.545 0-1.452.049-2.016.107l-1.024.107v1.742l1.232.08c1.656.106 2.591.641 3.227 1.847l.457.867.052 10.917c.059 12.337-.01 13.676-.76 14.722-1.144 1.594-3.002 1.704-5.208.309-1.168-.739-3.263-3.052-3.629-4.007-.058-.151-.315-.585-.572-.965-.256-.38-.466-.768-.466-.863 0-.096-.216-.61-.479-1.143a57.247 57.247 0 0 1-1.019-2.22 87.482 87.482 0 0 0-1.135-2.5c-.328-.687-.583-1.301-.568-1.364.015-.064-.196-.566-.469-1.116-.273-.551-.497-1.079-.497-1.175 0-.095-.215-.605-.479-1.134a30.606 30.606 0 0 1-.784-1.711c-.168-.412-.419-.93-.557-1.15-.138-.22-.268-.52-.289-.666-.021-.147-.224-.68-.452-1.184-.227-.504-.689-1.554-1.027-2.333-1.33-3.075-1.574-3.629-2.149-4.873-.328-.709-.596-1.364-.596-1.455 0-.09-.225-.58-.5-1.089-.275-.508-.5-.997-.5-1.086 0-.09-.225-.639-.5-1.221-.275-.582-.5-1.109-.5-1.171 0-.061-.214-.579-.476-1.15s-.757-1.676-1.1-2.455a98.622 98.622 0 0 0-1.107-2.423c-.266-.554-.484-1.087-.484-1.185 0-.098-.224-.62-.498-1.16-.273-.54-.498-1.037-.5-1.103-.001-.067-.266-.686-.589-1.375-.813-1.738-1.251-1.765-2.038-.125m170.792-.98c-1.839.214-3.78.909-6.035 2.161-1.031.573-3.965 3.383-3.965 3.798 0 .111-.097.301-.215.422-2.282 2.343-2.324 8.776-.083 12.758 1.055 1.873 4.763 5.46 5.696 5.509a.389.389 0 0 1 .25.147c.25.342 4.493 2.436 4.795 2.367.135-.03 1.351.5 3.474 1.515.55.263 1.187.532 1.416.598.23.067.454.178.5.248.046.07.422.307.836.527.413.219.988.574 1.276.787.289.213.562.386.608.384.158-.007 2.058 1.885 2.658 2.647 1.983 2.518 2.106 6.824.274 9.566-.374.56-2.238 2.449-2.362 2.395-.022-.01-.34.111-.706.269-1.88.806-2.437.92-4.5.92-2.075 0-2.026.009-4.56-.913-.4-.146-.97-.45-1.266-.676-.297-.226-.599-.411-.672-.411-.269 0-2.422-1.86-3.117-2.693a58.56 58.56 0 0 0-1.052-1.229c-.183-.203-.356-.472-.384-.599a.832.832 0 0 0-.262-.396c-.116-.092-.446-.631-.733-1.199-.288-.567-.596-1.167-.684-1.333-.155-.288-.358-.8-1.043-2.632-.171-.457-.311-.982-.312-1.167 0-.185-.079-.617-.174-.961l-.174-.625H273v15.334h-1.22c-1.577 0-3.501-.498-3.949-1.023-.976-1.139-.91-.011-.962-16.528-.044-14.203-.065-15.13-.333-15.054-.29.082-7.57.703-10.244.875l-1.459.093v1.803h.773c1.598 0 3.035.774 3.727 2.008l.417.742v12.084c0 13.133.037 12.587-.942 13.851-.576.744-1.848 1.149-3.611 1.149H254V76.5h20.957l.211-1.592c.33-2.493 1.275-2.988 3.332-1.749a57.2 57.2 0 0 0 3.282 1.815c4.228 2.184 10.372 2.457 14.399.639.496-.224 1.071-.459 1.277-.521.207-.063.375-.197.375-.298 0-.1.044-.139.097-.086.159.159 1.77-.962 3.051-2.125 3.924-3.561 5.711-10.004 4.014-14.471-.181-.474-.328-.952-.328-1.061 0-.328-1.179-2.265-1.691-2.779-.262-.263-.476-.557-.476-.653 0-.096-.045-.13-.099-.075-.055.054-.371-.196-.702-.556-.331-.36-.668-.655-.749-.655-.081 0-.351-.193-.602-.429-.599-.566-1.353-1.017-4.098-2.453-.866-.453-2.758-1.284-2.924-1.284-.087 0-.665-.231-1.284-.514-2.443-1.115-3.636-1.678-3.875-1.827a26.732 26.732 0 0 0-1.084-.597c-.458-.242-1.045-.618-1.304-.835-.259-.217-.534-.394-.612-.394-.427 0-3.166-2.764-3.634-3.667a58.13 58.13 0 0 0-.472-.885c-.627-1.148-.644-4.23-.031-5.531.543-1.151 1.594-2.584 1.896-2.584.057 0 .415-.22.797-.489 1.853-1.306 5.478-1.661 8.294-.811 1.287.388 1.668.554 2.863 1.245.942.544 2.976 2.547 4.203 4.139.43.557 1.584 2.394 1.584 2.521 0 .066.196.609.435 1.207.239.598.484 1.429.543 1.846l.108.759.957.05.957.05V28h-2v.718c0 1.511-1.159 1.942-2.481.922-.219-.169-.505-.307-.635-.307-.131 0-.662-.2-1.18-.445-.518-.245-1.207-.502-1.531-.571-.325-.068-1.248-.359-2.051-.647-1.584-.565-5.688-.824-8.289-.521m-23.083 1.622a4.642 4.642 0 0 0 1.925 9.072c4.285-.765 5.062-6.594 1.144-8.596-.75-.384-2.403-.64-3.069-.476m-149.25 12.182c0 .123.225.669.5 1.214.275.544.5 1.069.5 1.165 0 .096.214.642.476 1.213.262.571.758 1.676 1.103 2.455.344.779.842 1.887 1.107 2.461.264.575.48 1.123.48 1.218 0 .095.21.6.465 1.122.256.522.568 1.268.694 1.657.125.39.285.709.355.709.069 0 .176.224.236.498s.179.541.263.593c.085.052.154.203.154.335s.213.708.473 1.282c.661 1.455.86 1.949.86 2.133 0 .098-3.01.159-7.916.159-4.354 0-7.917-.04-7.917-.089 0-.049.188-.459.417-.911.229-.453.416-.907.416-1.01 0-.102.225-.673.5-1.267.275-.594.5-1.152.5-1.241 0-.088.194-.542.431-1.009.236-.467.452-1.009.478-1.203.027-.195.283-.858.57-1.475.287-.617.521-1.2.521-1.296 0-.097.215-.605.477-1.129.263-.525.569-1.254.68-1.62.111-.367.384-1.015.606-1.44.222-.424.404-.88.404-1.012 0-.131.225-.704.5-1.271.275-.568.5-1.101.5-1.184 0-.583.763-1.828.958-1.563.115.156.209.384.209.506m99.157 1.23c-1.871.192-4.08.823-5.157 1.473-.138.083-.578.31-.978.505-.4.194-.829.444-.954.555-.124.11-.531.426-.904.701-.782.576-2.079 1.827-2.618 2.522l-.833 1.076c-.569.736-1.716 3-2.314 4.568-1.29 3.385-1.159 10.659.241 13.334.144.275.244.563.222.641-.128.455 2.017 3.628 3.36 4.971 5.254 5.254 16.383 5.735 20.863.902.209-.226.417-.373.462-.328.046.046.256-.165.468-.468.212-.304.441-.591.508-.639.506-.357 2.278-3.681 2.486-4.663.068-.321.255-1.093.416-1.716.331-1.278.256-1.465-.604-1.507-.504-.025-.565.028-.746.642-.86 2.912-3.044 5.486-5.806 6.842l-1.314.646-2.353-.001h-2.352L213 71.578c-4.458-2.08-7.167-7.24-7.167-13.65v-1.261h22.549l-.098-1.542c-.123-1.934-.485-3.203-1.505-5.277-.496-1.007-.824-1.578-1.069-1.86-.114-.131-.48-.575-.812-.988-.552-.685-1.49-1.532-2.687-2.428-2.267-1.694-6.556-2.731-9.887-2.389m23.509.242c-2.154.212-4.524.39-5.267.396-.743.007-1.811.061-2.375.119l-1.024.107V44.786l1.375.094c4.53.309 4.458.068 4.458 14.843 0 15.154.071 14.944-5.03 14.944h-1.803v.815c0 1.095-.794 1.018 10.513 1.018h9.987V74.667h-1.721c-2.875 0-4.143-.691-4.699-2.562-.444-1.494-.36-21.061.096-22.371a50.56 50.56 0 0 0 .442-1.317c.146-.486 1.1-1.491 1.476-1.555 1.508-.258 2.275.057 2.836 1.165 1.856 3.664 4.853 4.643 7.446 2.434 1.222-1.042 1.803-4.504.906-5.401-.063-.063-.116-.237-.116-.386 0-.528-1.369-1.641-2.574-2.094-3.135-1.178-7.208-.056-9.884 2.723l-.875.908v-2.105c0-1.158-.056-2.097-.125-2.085-.069.011-1.888.193-4.042.404m84.602-.237c-1.347.11-2.696.359-4.518.834a7.418 7.418 0 0 0-1.396.576c-.401.221-.792.402-.867.402-.076 0-.627.342-1.225.76-5.471 3.824-5.531 10.122-.092 9.691 2.429-.193 3.528-2.429 2.587-5.264-.375-1.128.376-2.46 1.824-3.229.184-.098.598-.381.919-.628 1.614-1.245 5.734-1.062 7.467.33 1.673 1.345 2.042 2.478 2.15 6.59l.078 3-1.473.376c-.81.207-1.96.497-2.556.644-2.557.632-3.76.957-3.916 1.059-.092.06-.455.129-.806.154-.352.025-1.139.231-1.75.458-.611.228-1.411.508-1.778.624a7.186 7.186 0 0 0-1.371.656c-.388.245-.786.446-.884.446-1.139 0-4.428 3.61-4.936 5.416-2.972 10.578 10.055 16.191 18.195 7.84 1.209-1.24 1.355-1.258 1.661-.208.393 1.349 2.045 3.452 2.711 3.452.086 0 .412.13.724.289 2.494 1.271 7.597-.771 8.034-3.214.032-.179.175-.595.318-.924.643-1.482.815-3.318.312-3.318-.176 0-.438-.045-.582-.101-.166-.063-.302.013-.371.209-.452 1.275-.771 1.741-1.421 2.072-.658.336-.82.346-2.257.128-.111-.017-.166-.088-.123-.158.044-.07-.005-.179-.108-.242-.776-.48-.81-.942-.82-10.908-.01-10.433-.058-11.168-.837-12.795-1.767-3.693-6.506-5.537-12.893-5.017M384 42.183c-2.48.267-6.091 1.571-6.935 2.504-.156.172-.38.313-.499.313s-.276.101-.349.224c-.074.123-.353.365-.621.538-.584.377-2.763 2.666-2.763 2.904 0 .064-.15.29-.334.502-.471.543-1.832 3.077-1.832 3.41 0 .153-.092.441-.204.641-1.191 2.133-1.534 11.007-.476 12.358.074.095.175.361.224.59.156.727.765 2.196 1.169 2.817 1.533 2.354 1.875 2.772 3.461 4.234.56.516 2.573 1.812 3.141 2.022.331.122.976.376 1.435.563 4.186 1.715 12.327.93 14.238-1.372.12-.145.316-.264.434-.264s.395-.207.615-.459c.22-.252.545-.541.723-.643.178-.101.318-.251.312-.333-.006-.082.238-.369.542-.638.304-.269.552-.555.552-.636 0-.081.177-.386.392-.677.341-.462 1.169-2.044 1.195-2.281.004-.046.096-.24.202-.431.363-.651.951-3.563.759-3.755-.424-.424-1.27-.26-1.388.269-.159.716-1.228 2.835-1.732 3.434-.235.28-.428.56-.428.623 0 .103-.829.958-1.782 1.837-.201.186-1.018.658-1.817 1.05l-1.452.713h-4.737l-1.314-.647c-1.523-.749-2.981-1.817-3.615-2.649-.244-.32-.574-.711-.732-.87-.158-.158-.301-.373-.316-.477-.015-.104-.221-.474-.457-.822-.237-.349-.477-.797-.536-.996a26.419 26.419 0 0 0-.523-1.431c-.465-1.191-1.044-4.807-1.049-6.555l-.003-1.124 11.208-.043 11.209-.043.049-1.025c.048-1.007-.245-2.657-.646-3.641a5.576 5.576 0 0 1-.266-.824c-.139-.732-1.222-2.574-2.27-3.863-2.082-2.56-4.877-4.179-8.284-4.798-.229-.042-.642-.115-.917-.163-1.059-.184-2.383-.216-3.583-.086m-50.5 1.734v.916h1.172c1.24 0 2.082.258 2.689.824.203.188.422.343.487.343.066 0 .278.244.472.542l1.011 1.541c.836 1.273 1.327 2.197 3.457 6.5.953 1.925 1.816 3.65 1.919 3.834.102.183 2.1 4.158 4.438 8.833 2.338 4.675 4.331 8.555 4.428 8.622.097.068.112.124.032.125-.438.008.357.503.807.503.511 0 1.588-1.478 1.588-2.18 0-.096.182-.563.404-1.039.832-1.781 1.763-3.899 1.763-4.014 0-.065.225-.573.5-1.127s.5-1.075.5-1.157c0-.082.225-.625.5-1.207.275-.582.5-1.117.5-1.188 0-.072.222-.59.494-1.151.271-.561.652-1.433.847-1.937.194-.504.428-1.006.52-1.117.092-.111.119-.28.06-.376-.059-.095-.028-.174.069-.174s.176-.074.176-.166c0-.091.225-.642.5-1.224s.5-1.111.5-1.174c0-.064.225-.597.5-1.186.275-.588.5-1.136.5-1.218 0-.082.197-.516.438-.965.24-.449.577-1.221.749-1.715.171-.494.375-.982.452-1.084.077-.101.311-.616.52-1.143.209-.527.441-.958.516-.958.11 0 .279-.354.391-.821.01-.04.443-.527.963-1.084 1.425-1.526 2.776-2.16 4.763-2.235l1.542-.059V43h-14.334V44.833h.856c1.974 0 3.035.763 3.085 2.217.016.476-.028.942-.098 1.033-.069.092-.34.767-.602 1.5-.262.734-.602 1.559-.757 1.834-.154.275-.369.78-.478 1.123-.108.343-.379.966-.601 1.384-.223.418-.405.85-.405.96 0 .11-.217.649-.483 1.199-.794 1.645-1.683 3.671-1.685 3.841-.002.088-.227.601-.5 1.141-.274.54-.498 1.062-.498 1.16 0 .098-.221.631-.491 1.185s-.581 1.255-.691 1.558c-.27.744-.113 1.001-3.323-5.47a744.961 744.961 0 0 0-3.1-6.208c-1.657-3.057-2.223-4.475-2.227-5.584-.002-.719.365-1.873.596-1.873.101 0 .313-.142.47-.316.377-.416 1.488-.684 2.839-.684h1.093V43H333.5v.917m-117.989.817C217.04 45.1 220 47.56 220 48.465c0 .077.184.521.41.989.373.772.923 3.433.923 4.461v.418H206l.003-.375c.014-1.58 1.285-5.27 2.094-6.079.13-.13.236-.297.236-.372 0-.074.319-.441.709-.815 1.369-1.314 2.221-1.884 2.935-1.963.216-.024.435-.085.486-.136.172-.173 2.114-.083 3.048.141m171.667-.01c1.096.258 3.572 1.864 3.572 2.318 0 .068.206.383.458.699.252.316.459.639.459.719 0 .079.193.544.428 1.033.411.852.896 3.162.902 4.299l.003.541h-7.667c-7.191 0-7.666-.018-7.663-.291.009-.877.545-3.149.915-3.879.235-.463.386-.908.337-.988-.05-.081-.034-.172.035-.202.07-.031.408-.469.752-.973 2.026-2.97 4.382-4.003 7.469-3.276m-59.845 18.487v5.877l-.458.45c-1.173 1.15-1.516 1.462-1.608 1.462-.055 0-.456.253-.892.563-.435.309-1.017.603-1.292.653-.275.049-.8.169-1.166.266-6.257 1.656-10.144-5.273-5.533-9.86 1.902-1.892 3.168-2.567 8.199-4.371.459-.164 1.209-.435 1.667-.603.458-.167.89-.306.958-.309.069-.003.125 2.639.125 5.872m-91.166 26.402c-1.653.269-2.201.452-2.801.938-.857.694-1.749 1.735-1.788 2.087-.017.153-.128.504-.247.779-1.017 2.359.125 6.967 1.982 7.993 1.541.852 1.836.923 3.841.923 4.032 0 5.895-1.884 5.918-5.984.015-2.798-.219-3.877-.978-4.507-.143-.119-.261-.332-.261-.474 0-.141-.042-.215-.093-.163-.052.051-.296-.095-.542-.326-.781-.731-1.144-.897-2.479-1.135-1.305-.233-1.776-.257-2.552-.131m76.333.115c-1.035.188-2.167.697-2.167.975 0 .072-.098.13-.218.13-.42 0-1.938 2.133-1.955 2.747a1.56 1.56 0 0 1-.098.331c-.697 1.818.392 6.214 1.808 7.291 1.812 1.38 4.849 1.643 6.428.557l.835-.575.108.575.107.574h2.319v-7H314v2.5h1.353c1.326 0 1.35.008 1.238.375a3.556 3.556 0 0 0-.131.601c-.054.784-2.842 1.09-3.759.412-1.667-1.232-1.596-5.328.112-6.41 1.222-.776 3.174-.336 3.453.778.14.555.579.533 2.092-.108.674-.285 1.245-.536 1.269-.557.108-.096-.49-1.266-.888-1.74-1.167-1.387-3.551-1.943-6.239-1.456m51.559.005c-1.933.321-3.276 1.438-4.104 3.415-.613 1.461-.607 4.571.01 5.885.203.43.368.851.368.935 0 .289 1.584 1.631 2.374 2.012 1.08.522 4.498.484 4.89-.054.13-.177.236-.258.236-.179 0 .08.182-.027.405-.236l.405-.38.053.559.054.56 1.208.049 1.209.049V95.333H365.5v2.487l1.417.049 1.417.048-.339.683c-.669 1.35-3.275 1.449-4.242.161-.938-1.25-.861-4.766.122-5.638 1.303-1.155 3.596-.895 3.862.437.122.608.789.561 2.387-.168 1.078-.493 1.272-.806.793-1.285-.138-.137-.25-.334-.25-.438 0-.103-.244-.414-.542-.69-1.36-1.262-3.419-1.685-6.066-1.246M201.5 96.083v6.25h3.167l.011-4.208c.011-3.87.031-4.155.252-3.542.133.367.289.779.348.917a.987.987 0 0 1 .079.44c-.017.104.197.777.473 1.496.277.719.503 1.402.503 1.518 0 .308.682 2.268.854 2.454.081.087.146.331.146.542 0 .371.047.383 1.489.383h1.488l.196-.958c.108-.527.251-1.033.317-1.125.185-.258.694-1.694.657-1.856-.018-.079.01-.256.063-.394.289-.758.945-2.694 1.157-3.417.227-.77.239-.508.165 3.459l-.079 4.291H216v-12.5H211.403l-.45 1.375c-.693 2.116-1.386 4.423-1.709 5.687-.333 1.307-.457 1.241-.821-.438a16.629 16.629 0 0 0-.5-1.79 30.32 30.32 0 0 1-.608-1.992c-.184-.683-.489-1.602-.679-2.042l-.344-.8H201.5v6.25m56.667-.008v6.258h3.5v-4.5h.741c.724 0 1.592.7 1.592 1.283 0 .092.225.478.5.858.275.379.5.759.5.843 0 .084.201.46.446.835l.447.681h1.887c2.262 0 2.227.101.717-2.083-.868-1.255-1.876-2.94-1.792-2.996.025-.016.326-.199.67-.405.344-.207.625-.475.625-.595s.109-.26.243-.312c.134-.051.367-.519.518-1.04.525-1.803-.09-3.559-1.576-4.5l-.767-.485-4.126-.05-4.125-.05v6.258m24.666-4.908V92.5H287v9.833h3.333V92.5h4v-2.667h-11.5v1.334m54.852-.959c-.076.207-.235.675-.353 1.042a42.04 42.04 0 0 1-.628 1.75 21.887 21.887 0 0 0-.547 1.583c-.074.275-.482 1.475-.908 2.667a223.269 223.269 0 0 0-1.165 3.333 58.599 58.599 0 0 1-.505 1.459c-.105.267.041.291 1.737.291h1.851v-.408c0-.393.095-.683.617-1.889l.237-.546 1.94.046 1.941.047.288.917c.159.504.332 1.123.386 1.375l.097.458h3.696l-.109-.435a8.676 8.676 0 0 0-.419-1.125c-.171-.379-.348-.877-.395-1.106-.047-.229-.433-1.392-.86-2.584a707.32 707.32 0 0 1-1.242-3.5 245.333 245.333 0 0 0-1.196-3.375c-.136-.361-.216-.375-2.232-.375s-2.096.014-2.231.375m48.815 5.875v6.25h10V99.5h-6.667v-2.333h5v-2.5h-5V92.5h6.334v-2.667H386.5v6.25m-148.156-3.382c2.018 1.492 1.756 6.018-.389 6.731-2.145.712-3.366-.532-3.369-3.432-.004-2.971 1.918-4.659 3.758-3.299m26.472.093c.53.393.64 1.151.273 1.862l-.264.511h-3.158V92.286l1.358.093c.972.066 1.481.184 1.791.415m75.86 2.789c.166.55.352 1.132.414 1.292.101.263-.02.292-1.224.292h-1.336l.299-.625c.164-.344.347-.888.407-1.209.059-.32.236-.985.393-1.476l.286-.893.23.809c.126.446.365 1.26.531 1.81" fill="#343c34"/></g></svg>