<svg height="94.7" width="319" enable-background="new 0 0 319 94.7" viewBox="0 0 319 94.7" xmlns="http://www.w3.org/2000/svg"><title>AppAdaptive logo</title><g fill="#e30613"><path d="m0 10.2c0-5.6 4.6-10.2 10.2-10.2h74.2c5.7 0 10.2 4.6 10.2 10.2v74.2c0 5.7-4.6 10.2-10.2 10.2h-74.2c-5.6.1-10.2-4.5-10.2-10.2m27.9-47.4v4.6c-2.7-3.5-6-5.2-10.3-5.2-7.6 0-12.9 5.6-12.9 13.6 0 8.2 5.4 14 13.1 14 4.2 0 7.8-1.9 10.2-5.4v4.7h2.6v-26.3zm-10.3 2.4c2.4 0 4.7.9 6.6 2.4 2.3 1.9 3.4 4.5 3.4 8 0 6.8-4 11.4-9.9 11.4-5.6 0-9.8-4.7-9.8-11.1 0-6.1 4.2-10.7 9.7-10.7m20.2 39.4v-20c2.7 3.6 6 5.3 10.3 5.3 7.6 0 12.9-5.6 12.9-13.7 0-8.2-5.4-14-13.1-14-4.2 0-7.8 1.9-10.2 5.3v-4.7h-2.6v41.9h2.7zm10.2-39.4c5.6 0 9.8 4.7 9.8 11 0 6.1-4.2 10.8-9.7 10.8-2.4 0-4.6-.8-6.6-2.5-2.3-1.9-3.4-4.5-3.4-8 0-6.8 4-11.3 9.9-11.3m18.5 39.4v-20c2.7 3.6 6 5.3 10.3 5.3 7.6 0 12.9-5.6 12.9-13.7 0-8.2-5.4-14-13.1-14-4.2 0-7.8 1.9-10.2 5.3v-4.7h-2.4v41.9h2.5zm10.3-39.4c5.6 0 9.8 4.7 9.8 11 0 6.1-4.2 10.8-9.7 10.8-2.4 0-4.6-.8-6.6-2.5-2.3-1.9-3.4-4.5-3.4-8 0-6.8 4-11.3 9.9-11.3"/><path d="m97.4 0h210.9c5.9 0 10.8 4.6 10.8 10.4v73.9c0 5.7-4.8 10.4-10.8 10.4h-210.9c1.2-.9 2.1-2.1 2.8-3.5h208.1c3.9 0 7.1-3.1 7.1-6.9v-73.9c0-3.8-3.2-6.9-7.1-6.9h-208.1c-.7-1.4-1.6-2.6-2.8-3.5"/><g clip-rule="evenodd" fill-rule="evenodd"><path d="m136.7 48.7 5.9 14.7h3.3l-18.7-46.1-18.8 46.1h3.2l6-14.7m18-2.7h-16.9l8.5-21.2z"/><path d="m173.3 17.5v45.8h-2.7v-4.9c-2.4 3.6-6.2 5.6-10.5 5.6-7.9 0-13.6-6-13.6-14.6 0-8.4 5.5-14.2 13.4-14.2 4.5 0 7.9 1.7 10.7 5.4v-23.1m-10.7 20.4c2.6 0 5.1.9 7.2 2.6 2.5 2.1 3.7 4.9 3.7 8.7 0 7.4-4.4 12.4-10.8 12.4-6.1 0-10.7-5.2-10.7-12.1 0-6.5 4.6-11.6 10.6-11.6"/><path d="m201.9 36v4.8c-2.8-3.6-6.2-5.4-10.7-5.4-7.9 0-13.4 5.8-13.4 14.2 0 8.5 5.6 14.6 13.6 14.6 4.4 0 8.1-2 10.5-5.6v4.9h2.7v-27.5m-13.5 1.9c2.6 0 5.1.9 7.2 2.6 2.5 2.1 3.7 4.9 3.7 8.7 0 7.4-4.4 12.4-10.8 12.4-6.1 0-10.7-5.2-10.7-12.1 0-6.5 4.6-11.6 10.6-11.6"/><path d="m213.4 79.4v-20.8c2.8 3.8 6.2 5.5 10.7 5.5 7.9 0 13.4-5.8 13.4-14.2 0-8.5-5.6-14.5-13.6-14.5-4.4 0-8.1 1.9-10.5 5.5v-4.9h-2.7v43.4m13.3-41.5c6.1 0 10.7 5.2 10.7 12 0 6.6-4.6 11.7-10.6 11.7-2.6 0-5-.9-7.2-2.7-2.5-2.1-3.8-4.9-3.8-8.7.1-7.4 4.5-12.3 10.9-12.3"/><path d="m244.9 38.5h4.9v-2.5h-4.9v-9.8h-2.7v9.8h-3v2.5h3v24.9h2.7"/><path d="m254.3 36h-2.7v27.4h2.7zm-1.2-11.6c-1.4 0-2.5 1.1-2.5 2.4 0 1.4 1.1 2.5 2.5 2.5 1.3 0 2.4-1.1 2.4-2.5 0-1.3-1.1-2.4-2.4-2.4"/><path d="m259.5 36h-3.2l12.7 29 12.4-29h-3l-9.4 22.1"/><path d="m307.3 50c-.1-8.9-5.4-14.6-13.2-14.6-7.5 0-13.3 6.2-13.3 14.3 0 8.3 5.6 14.4 13.3 14.4 5.4 0 9.5-2.4 12.3-7.5l-2.3-1.3c-1.1 1.9-1.8 2.8-2.8 3.7-1.8 1.6-4.4 2.6-6.9 2.6-3.8 0-7.4-2.1-9.2-5.4-1-1.7-1.4-3.4-1.5-6.2m.4-2.5c.8-5.6 5-9.6 10.2-9.6 5 0 9 3.8 10 9.6z"/></g></g></svg>