<svg enable-background="new 0 0 170.079 88.486" height="88.486" viewBox="0 0 170.079 88.486" width="170.079" xmlns="http://www.w3.org/2000/svg" xmlns:xlink="http://www.w3.org/1999/xlink"><linearGradient id="a" gradientUnits="userSpaceOnUse" x1="83.5425" x2="83.5425" y1="84.5942" y2="0"><stop offset="0" stop-color="#0a9bd9"/><stop offset="1" stop-color="#111556"/></linearGradient><linearGradient id="b"><stop offset="0" stop-color="#ffe400"/><stop offset="1" stop-color="#e58000"/></linearGradient><linearGradient id="c" gradientUnits="userSpaceOnUse" x1="83.5405" x2="83.5405" xlink:href="#b" y1="32.5181" y2="77.1108"/><linearGradient id="d" gradientUnits="userSpaceOnUse" x1="121.5913" x2="121.5913" xlink:href="#b" y1="5.9854" y2="28.6235"/><linearGradient id="e" gradientUnits="userSpaceOnUse" x1="43.4751" x2="43.4751" xlink:href="#b" y1="6.8638" y2="42.4033"/><linearGradient id="f" gradientUnits="userSpaceOnUse" x1="96.0435" x2="96.0435" xlink:href="#b" y1="6.5117" y2="32.9365"/><linearGradient id="g" gradientUnits="userSpaceOnUse" x1="69.9238" x2="69.9238" xlink:href="#b" y1="6.4883" y2="40.1777"/><linearGradient id="h"><stop offset="0" stop-color="#0a9bd9"/><stop offset="1" stop-color="#bdc2e0"/></linearGradient><linearGradient id="i" gradientUnits="userSpaceOnUse" x1="143.9868" x2="143.9868" xlink:href="#h" y1="9.2021" y2="24.9151"/><linearGradient id="j" gradientUnits="userSpaceOnUse" x1="140.1919" x2="140.1919" xlink:href="#h" y1="23.2944" y2="30.5519"/><linearGradient id="k" gradientTransform="matrix(-1 0 0 1 58.8193 0)" gradientUnits="userSpaceOnUse" x1="39.5527" x2="39.5527" xlink:href="#h" y1="20.0854" y2="35.7984"/><linearGradient id="l" gradientTransform="matrix(-1 0 0 1 58.8193 0)" gradientUnits="userSpaceOnUse" x1="35.7568" x2="35.7568" xlink:href="#h" y1="34.1777" y2="41.4347"/><path d="m54.235 88.486c-.003 0-.005 0-.007 0-2.616-.002-4.993-.411-7.068-1.212-1.934-.746-3.535-1.599-4.891-2.607-.434-.314-.851-.649-1.255-1.005-.961.774-2.027 1.437-3.179 1.973-1.071.503-2.211.945-3.382 1.312-.038.013-.076.024-.116.036-2.562.746-5.463 1.199-8.622 1.345-1.136.054-2.158.079-3.125.079-1.129 0-2.145-.034-3.103-.106-2.04-.152-3.768-.429-5.286-.846-1.676-.458-3.173-1.078-4.439-1.837-1.293-.772-2.409-1.695-3.31-2.737-2.121-2.322-3.316-5.207-3.452-8.351-.003-.087-.005-.173-.005-.258 0-2.093.33-3.861 1.009-5.4.688-1.588 1.704-2.906 3.006-3.91-.588-1.113-1.078-2.225-1.457-3.301-.977-2.945-1.289-5.792-.963-8.562.007-.053.013-.11.022-.164.296-2.032.847-3.742 1.68-5.225.854-1.531 1.949-2.811 3.24-3.792 1.145-.874 2.438-1.549 3.824-1.992.078-.024.157-.049.238-.074-.791-.263-1.548-.626-2.266-1.089-2.734-1.729-4.527-4.684-4.881-8.083-.4-3.842 1.073-7.803 3.943-10.598 2.64-2.548 6.194-3.942 10.03-3.942 2.883 0 5.728.817 8.011 2.299.311.202.617.422.928.662.006-.036.016-.072.021-.107.284-1.361.596-2.587.946-3.712l-.036.124c.492-1.698 1.149-3.231 1.956-4.561.784-1.282 1.655-2.412 2.595-3.369 1.04-1.057 2.174-1.926 3.37-2.58.982-.532 1.949-.965 2.89-1.293.052-.018.104-.035.157-.051 1.632-.519 3.351-.781 5.102-.781.694 0 1.404.04 2.113.123 2.866.191 5.339.961 7.355 2.291 1.723 1.14 3.131 2.418 4.195 3.799.22.283.429.575.629.871.874-1.333 1.793-2.437 2.781-3.341 1.363-1.246 2.679-2.167 4.02-2.809 1.431-.691 2.74-1.086 3.99-1.206.888-.087 1.173-.104 1.468-.104.162 0 .629.021 1.415.088 1.168.094 2.391.431 3.831 1.053 1.213.523 2.468 1.278 3.824 2.306 1.042.789 2.021 1.756 2.961 2.935.11-.148.223-.295.337-.436.862-1.06 1.823-1.979 2.865-2.742 1.045-.768 2.185-1.392 3.387-1.846.913-.343 1.836-.624 2.748-.837.036-.009.074-.019.11-.025 1.473-.314 3.047-.474 4.675-.474.565 0 1.144.018 1.725.056 2.501.076 4.58.429 6.359 1.078.594.218 1.149.442 1.666.678.552-.39 1.145-.732 1.764-1.015 1.427-.674 3.146-1.118 5.039-1.289.098-.006.195-.013.292-.018.281-.011.557-.016.829-.016.965 0 1.908.072 2.804.213 1.09.173 2.116.424 3.055.75.958.334 1.8.719 2.579 1.172 1.107-.665 2.259-1.159 3.438-1.468 1.199-.334 2.54-.516 3.901-.516.383 0 .77.014 1.157.042 1.263.097 2.344.271 3.322.537 1.124.31 2.065.689 2.902 1.168 1.037.59 1.913 1.315 2.605 2.16.137.166.266.334.392.507 1.833-.781 3.874-1.199 5.933-1.199 3.833 0 7.391 1.392 10.012 3.923 2.888 2.813 4.361 6.774 3.961 10.613-.353 3.399-2.144 6.354-4.912 8.108-.822.527-1.702.925-2.627 1.19.009.166.013.33.013.496 0 .396-.024.784-.074 1.168 1.069.633 2.068 1.394 2.994 2.282 1.663 1.589 3.104 3.336 4.279 5.186 1.224 1.902 2.306 4.051 3.195 6.35.016.043.031.083.046.126 1.078 2.991 1.933 5.966 2.536 8.845.579 2.777.996 5.168 1.272 7.315.33 2.621.511 4.985.551 7.244.045 1.94-.067 3.653-.339 5.207-.295 1.662-.719 3.092-1.295 4.38-.609 1.361-1.371 2.574-2.265 3.595-.83.95-1.732 1.765-2.681 2.422-2.246 1.59-4.82 2.446-7.607 2.511-.056.002-.11.002-.166.002-2.533-.011-4.825-.611-6.815-1.778-1.798-1.055-3.359-2.479-4.639-4.23-1.096-1.5-2.018-3.202-2.74-5.057-.248-.629-.477-1.269-.69-1.915-.418.06-.845.092-1.272.092-.321 0-.647-.018-.97-.054-.58-.038-1.144-.119-1.691-.24-.461 1.478-.983 2.814-1.562 3.984-.765 1.538-1.543 2.813-2.383 3.898-.023.034-.052.065-.075.099-3.03 3.748-6.435 4.852-8.759 5.119-.226.025-.474.038-.702.038-2.221 0-4.252-.397-6.035-1.183-1.653-.732-3.114-1.699-4.354-2.878-.152-.144-.301-.292-.446-.443-.386.454-.796.883-1.229 1.287-1.168 1.093-2.53 1.956-4.043 2.555-1.515.602-3.19.905-4.987.905-1.984 0-3.844-.384-5.524-1.145-1.441-.654-2.744-1.498-3.882-2.513-1.128-1.006-2.084-2.148-2.847-3.395-.05-.082-.1-.162-.146-.243-.732.977-1.517 1.85-2.338 2.604-.924.851-1.911 1.59-2.93 2.189-.98.573-1.954 1.031-2.91 1.367-2 .735-4.132 1.105-6.325 1.105-1.859 0-3.566-.215-5.097-.638-1.48-.411-2.818-.956-3.983-1.619-.523-.3-1.017-.622-1.482-.965-.593.462-1.228.882-1.903 1.258-1.186.655-2.529 1.169-4.002 1.533-1.426.356-2.973.529-4.723.529z" fill="#111556"/><path d="m51.241 84.594c-.002 0-.005 0-.007 0-2.616-.002-4.993-.411-7.068-1.212-1.934-.746-3.535-1.599-4.891-2.607-.433-.314-.851-.649-1.254-1.006-.961.774-2.027 1.437-3.179 1.974-1.072.502-2.212.945-3.383 1.311-.038.014-.076.025-.116.036-2.562.745-5.463 1.199-8.622 1.345-1.137.054-2.159.079-3.126.079-1.129 0-2.145-.034-3.103-.106-2.04-.153-3.768-.429-5.286-.846-1.676-.458-3.173-1.078-4.439-1.837-1.293-.772-2.409-1.695-3.31-2.737-2.121-2.322-3.316-5.207-3.452-8.351-.003-.087-.005-.173-.005-.258 0-2.093.33-3.86 1.008-5.4.689-1.587 1.705-2.905 3.006-3.909-.588-1.114-1.078-2.226-1.457-3.301-.977-2.946-1.289-5.793-.963-8.562.007-.054.014-.11.023-.164.296-2.032.846-3.743 1.68-5.225.855-1.532 1.949-2.812 3.24-3.793 1.145-.874 2.438-1.549 3.823-1.992.079-.025.157-.049.238-.074-.791-.263-1.548-.626-2.266-1.089-2.734-1.729-4.527-4.684-4.881-8.083-.4-3.842 1.073-7.803 3.943-10.598 2.64-2.549 6.195-3.943 10.03-3.943 2.883 0 5.728.817 8.011 2.299.311.203.618.422.928.663.006-.037.015-.072.021-.108.284-1.361.595-2.586.946-3.712l-.036.124c.492-1.697 1.149-3.231 1.956-4.561.784-1.282 1.655-2.411 2.595-3.368 1.04-1.057 2.174-1.926 3.37-2.579.981-.533 1.949-.966 2.891-1.294.052-.018.103-.036.157-.051 1.632-.519 3.35-.781 5.101-.781.694 0 1.403.04 2.113.123 2.865.191 5.339.961 7.355 2.291 1.723 1.14 3.13 2.418 4.195 3.799.219.283.429.575.629.871.873-1.333 1.793-2.436 2.781-3.341 1.363-1.247 2.679-2.167 4.02-2.809 1.43-.691 2.74-1.086 3.99-1.205.888-.088 1.172-.104 1.468-.104.162 0 .629.021 1.415.088 1.168.094 2.392.431 3.831 1.053 1.213.523 2.467 1.277 3.824 2.306 1.042.788 2.021 1.756 2.962 2.935.11-.148.223-.294.337-.436.862-1.06 1.823-1.979 2.864-2.741 1.045-.769 2.185-1.392 3.387-1.846.913-.343 1.836-.624 2.748-.837.036-.009.074-.019.11-.025 1.473-.314 3.047-.474 4.674-.474.566 0 1.145.018 1.725.056 2.502.077 4.581.429 6.359 1.078.596.218 1.15.442 1.666.678.552-.391 1.145-.731 1.765-1.015 1.427-.674 3.146-1.118 5.039-1.289.097-.007.195-.013.291-.018.282-.011.557-.016.829-.016.966 0 1.909.072 2.804.214 1.091.172 2.116.424 3.055.75.96.335 1.801.719 2.58 1.172 1.106-.665 2.258-1.159 3.438-1.468 1.199-.335 2.539-.516 3.9-.516.384 0 .77.013 1.158.042 1.262.097 2.344.272 3.321.537 1.124.31 2.065.689 2.903 1.168 1.037.59 1.912 1.315 2.604 2.16.137.166.268.334.393.507 1.832-.781 3.873-1.199 5.933-1.199 3.833 0 7.39 1.392 10.013 3.922 2.886 2.814 4.36 6.775 3.96 10.614-.353 3.4-2.145 6.354-4.913 8.108-.821.528-1.702.925-2.627 1.19.01.166.014.33.014.496 0 .396-.024.784-.074 1.168 1.069.633 2.068 1.394 2.993 2.282 1.663 1.589 3.104 3.336 4.279 5.186 1.225 1.902 2.306 4.051 3.195 6.35.016.043.031.083.047.126 1.078 2.991 1.932 5.966 2.535 8.845.579 2.777.996 5.168 1.273 7.315.33 2.62.511 4.985.551 7.244.044 1.94-.068 3.653-.34 5.207-.293 1.661-.719 3.092-1.295 4.38-.609 1.36-1.37 2.573-2.264 3.595-.831.95-1.733 1.765-2.681 2.423-2.246 1.59-4.821 2.446-7.607 2.511-.057.002-.11.002-.167.002-2.532-.011-4.825-.611-6.813-1.778-1.799-1.055-3.36-2.479-4.641-4.23-1.095-1.5-2.018-3.202-2.74-5.057-.247-.629-.477-1.269-.689-1.915-.418.06-.845.092-1.272.092-.322 0-.648-.018-.971-.054-.58-.038-1.143-.119-1.691-.24-.459 1.478-.982 2.814-1.562 3.983-.765 1.539-1.543 2.813-2.383 3.898-.024.033-.053.064-.076.098-3.029 3.748-6.434 4.853-8.758 5.12-.227.024-.473.038-.702.038-2.222 0-4.253-.397-6.036-1.184-1.652-.731-3.113-1.699-4.354-2.878-.152-.143-.301-.292-.446-.442-.385.454-.795.883-1.228 1.287-1.169 1.094-2.531 1.956-4.045 2.555-1.514.602-3.19.905-4.986.905-1.985 0-3.845-.384-5.525-1.145-1.441-.654-2.743-1.498-3.881-2.513-1.128-1.006-2.084-2.149-2.848-3.395-.049-.081-.099-.162-.146-.243-.731.977-1.515 1.85-2.337 2.604-.923.852-1.911 1.59-2.93 2.189-.979.573-1.954 1.03-2.91 1.367-2 .735-4.132 1.105-6.325 1.105-1.859 0-3.566-.215-5.097-.638-1.479-.411-2.818-.957-3.983-1.619-.523-.3-1.017-.622-1.482-.965-.593.462-1.228.882-1.903 1.257-1.186.655-2.528 1.169-4.002 1.533-1.42.355-2.967.528-4.719.528z" fill="url(#a)"/><g fill="#0a9bd9"><circle cx="8.883" cy="65.484" r="2.293"/><circle cx="7.116" cy="56.855" r="1.433"/><circle cx="3.945" cy="50.764" r=".717"/><circle cx="11.326" cy="40.764" r=".717"/><circle cx="54.663" cy="53.153" r="2.293"/><circle cx="58.637" cy="47.302" r="1.434"/><circle cx="55.578" cy="41.87" r=".717"/><circle cx="56.851" cy="33.666" r=".717"/><circle cx="71.007" cy="42.312" r=".717"/><circle cx="160.431" cy="69.109" r="2.293"/><circle cx="163.654" cy="62.732" r="1.433"/><circle cx="159.667" cy="56.16" r=".717"/><circle cx="162.215" cy="49.231" r=".716"/><circle cx="113.456" cy="44.439" r="2.292"/><circle cx="110.233" cy="38.062" r="1.434"/><circle cx="114.221" cy="31.49" r=".717"/><circle cx="111.672" cy="24.561" r=".717"/></g><path d="m52.743 79.507c-1.697-.002-3.171-.241-4.386-.708-1.273-.493-2.324-1.042-3.121-1.632-.976-.709-1.77-1.521-2.441-2.491-.935-1.422-1.668-2.996-2.16-4.644-.51-1.708-.898-3.361-1.151-4.924-.287-1.786-.448-3.602-.481-5.394-.07-1.324-.013-2.456.168-3.418.177-.967.438-1.82.775-2.541.328-.702.705-1.293 1.121-1.757.442-.495.897-.906 1.354-1.226 1.117-.803 2.362-1.277 3.832-1.462.134-.006.357-.013.576-.013.989 0 1.873.146 2.63.431.939.358 1.755.857 2.427 1.483.696.654 1.293 1.423 1.771 2.283.507.912.918 1.84 1.223 2.759.712 2.092 1.112 4.456 1.191 7.038.024.81.687 1.449 1.492 1.449h.029c.818-.013 1.475-.683 1.47-1.501-.006-1.411.202-2.569.6-3.346.486-.952 1.022-1.674 1.595-2.147.661-.542 1.401-.884 2.263-1.041.346-.064.668-.097.952-.097.223 0 .427.02.604.06.438.094.807.234 1.096.417.298.19.545.418.753.689.234.306.42.627.559.961.331.873.521 1.972.553 3.228.022.812.687 1.458 1.497 1.458h.02c.818-.011 1.478-.679 1.478-1.497 0-2.004.133-3.83.396-5.425.265-1.604.619-3.063 1.053-4.333.431-1.265.919-2.363 1.455-3.267.543-.919 1.101-1.705 1.663-2.335 1.295-1.473 2.74-2.49 4.304-3.033.799-.186 1.528-.282 2.169-.282.206 0 .405.008.595.028.761.079 1.416.264 1.943.552.538.293.976.649 1.339 1.09.387.47.702.998.94 1.567.635 1.451.985 3.243 1.053 5.353 0 2.956-.199 5.742-.593 8.23-.398 2.523-.854 4.729-1.356 6.559-.574 2.103-1.224 3.994-1.931 5.625-.44 1.03-.921 1.912-1.429 2.624-.512.718-1.05 1.337-1.601 1.847-.539.495-1.099.917-1.668 1.252-.558.326-1.099.582-1.595.757-1.236.46-2.484.679-3.845.681-1.187 0-2.221-.122-3.099-.367-.874-.243-1.639-.549-2.276-.91-.602-.344-1.107-.735-1.501-1.162-.411-.447-.737-.899-.969-1.344-.644-1.18-.967-2.501-.998-4.068-.015-.775-.621-1.41-1.396-1.463-.035-.002-.068-.004-.103-.004-.729 0-1.359.534-1.477 1.265-.265 1.681-.79 3.153-1.564 4.375-.328.542-.716 1.037-1.165 1.495-.433.44-.954.829-1.549 1.158-.6.334-1.328.608-2.162.814-.832.202-1.815.304-2.922.304zm48.081-.067c-.918 0-1.738-.162-2.439-.48-.742-.339-1.411-.77-1.981-1.28-.576-.51-1.062-1.086-1.446-1.716-.423-.689-.793-1.401-1.097-2.108-.684-1.689-1.123-3.545-1.33-5.646-.224-1.584-.357-3.26-.41-5.042-.055-1.854-.065-3.578-.028-5.125.035-1.854.109-3.749.222-5.635.168-2.201.605-4.28 1.297-6.151.298-.77.679-1.571 1.125-2.366.421-.749.938-1.451 1.539-2.092.598-.637 1.311-1.212 2.113-1.709.772-.479 1.684-.835 2.705-1.057.328-.041.647-.063.956-.063.814 0 1.547.144 2.241.444.403.174.828.433 1.263.768.406.315.798.755 1.168 1.312.393.596.749 1.346 1.058 2.228.319.913.566 2.02.737 3.295.284 2.603.448 5.239.487 7.802.035 2.602.018 4.959-.055 7.003-.109 2.361-.258 4.668-.439 6.841-.242 2.079-.698 3.997-1.348 5.65-.284.64-.646 1.333-1.058 2.007-.369.613-.827 1.178-1.356 1.674-.485.456-1.057.816-1.695 1.07-.63.249-1.379.376-2.229.376zm-79.735-.013c-.925 0-1.781-.028-2.543-.085-1.545-.114-2.808-.311-3.856-.6-1.033-.28-1.896-.627-2.575-1.035-.646-.387-1.163-.812-1.539-1.263-1.018-1.092-1.537-2.328-1.597-3.735.002-.941.131-1.764.374-2.315.219-.499.495-.854.845-1.085.407-.269.881-.447 1.446-.539.515-.085 1.051-.127 1.589-.127.138 0 .278.002.416.007 1.567.084 3.53.475 5.981 1.19.138.04.278.059.416.059.628 0 1.212-.398 1.422-1.022.254-.764-.139-1.591-.89-1.875-1.488-.562-2.792-1.228-3.875-1.976-1.051-.725-1.959-1.521-2.703-2.369-.722-.82-1.321-1.667-1.781-2.519-.458-.849-.827-1.674-1.098-2.451-.591-1.774-.792-3.536-.596-5.208.155-1.053.422-1.941.792-2.596.359-.643.775-1.144 1.238-1.497.497-.376 1.013-.647 1.585-.832.602-.188 1.223-.308 1.838-.35.293-.02.591-.028.893-.028 1.326 0 2.799.194 4.377.582 3.121.626 6.029 1.236 8.021 2.004 1.926.735 3.267 1.448 4.109 2.188.784.688 1.263 1.37 1.425 2.029.2.805.272 1.516.212 2.114-.072.571-.248 1.046-.527 1.409-.32.414-.709.742-1.192 1.002-.537.287-1.156.505-1.843.646-.696.145-1.414.216-2.133.216-.013 0-.118 0-.131 0l-.35.005c-1.82 0-3.786-.326-5.841-.967-.149-.046-.297-.068-.446-.068-.63 0-1.215.398-1.423 1.028-.253.777.16 1.615.935 1.882 1.83.632 3.746 1.311 5.366 1.98 1.576.652 2.838 1.25 3.864 1.832 1.082.613 1.926 1.18 2.578 1.733.672.569 1.226 1.116 1.648 1.628.9 1.099 1.352 2.177 1.383 3.295 0 .994-.158 1.847-.481 2.565-.322.713-.74 1.297-1.281 1.785-.569.517-1.209.939-1.965 1.289-.794.375-1.617.693-2.449.952-1.97.574-4.283.93-6.854 1.048-.984.049-1.913.074-2.784.074zm133.128-.184c-1.197-.009-2.187-.254-3.02-.749-.914-.532-1.715-1.27-2.391-2.193-.713-.977-1.324-2.109-1.816-3.366-.505-1.289-.923-2.633-1.242-3.987-.79-3.199-1.206-6.738-1.238-10.535-.007-.803-.648-1.458-1.449-1.484-.016 0-.031 0-.047 0-.782 0-1.438.602-1.494 1.388-.217 2.98-.674 4.549-1.02 5.341-.638 1.456-1.143 2.014-1.39 2.217-.49.433-.831.479-1.05.479-.07 0-.143-.006-.217-.017-.055-.009-.107-.014-.162-.016-.998-.043-1.716-.398-2.258-1.123-.71-.941-1.248-1.993-1.603-3.131-.447-1.37-.722-2.924-.825-4.635-.051-.792-.704-1.405-1.494-1.405-.016 0-.031 0-.046 0-.809.026-1.451.688-1.451 1.497 0 2.67-.137 5.09-.402 7.197-.272 2.137-.624 4.003-1.047 5.55-.42 1.553-.899 2.875-1.424 3.93-.53 1.068-1.066 1.956-1.596 2.644-1.127 1.392-2.34 2.168-3.681 2.353-1.156-.009-2.147-.192-2.953-.55-.857-.378-1.602-.864-2.215-1.448-.625-.595-1.146-1.278-1.547-2.033-.438-.819-.796-1.657-1.061-2.491-.618-2.02-.933-4.314-.933-6.803 0-3.574.204-6.708.626-9.583.406-2.803.872-5.248 1.385-7.266.598-2.265 1.287-4.344 2.044-6.165.873-2.199 1.907-3.845 3.077-4.915 1.18-1.077 2.311-1.852 3.364-2.307 1.131-.477 2.299-.722 3.461-.722l.193.002.348-.004c.947 0 1.806.133 2.552.398.815.289 1.52.669 2.085 1.129.58.471 1.072 1.018 1.465 1.628.423.658.768 1.339 1.028 2.02.639 1.703 1 3.698 1.067 5.928.023.786.655 1.42 1.44 1.449.021 0 .04.002.06.002.761 0 1.404-.576 1.485-1.339.237-2.23.748-4.149 1.521-5.701.312-.606.706-1.214 1.164-1.788.414-.523.91-.972 1.477-1.34.536-.343 1.176-.586 1.899-.715.273-.05.565-.074.867-.074.519 0 1.087.072 1.695.214 1.53.357 2.896 1.103 4.061 2.219 1.235 1.182 2.29 2.455 3.138 3.79.977 1.519 1.827 3.213 2.534 5.04.956 2.654 1.713 5.292 2.238 7.808.525 2.519.922 4.786 1.177 6.74.287 2.281.452 4.44.486 6.415.035 1.464-.042 2.733-.226 3.782-.181 1.024-.435 1.904-.754 2.61-.309.696-.666 1.276-1.066 1.731-.432.492-.871.895-1.312 1.201-1.059.756-2.235 1.15-3.507 1.183z" fill="#111556"/><path d="m51.245 77.111c-1.696-.002-3.171-.241-4.386-.709-1.273-.492-2.324-1.042-3.121-1.632-.976-.709-1.77-1.521-2.441-2.491-.935-1.422-1.667-2.996-2.16-4.644-.509-1.708-.897-3.361-1.151-4.924-.287-1.786-.449-3.602-.481-5.394-.07-1.324-.013-2.456.168-3.418.178-.967.438-1.82.775-2.541.328-.702.704-1.293 1.12-1.757.442-.495.897-.906 1.354-1.226 1.117-.803 2.361-1.278 3.832-1.462.134-.006.357-.013.576-.013.989 0 1.873.146 2.63.431.939.358 1.755.857 2.427 1.483.696.654 1.293 1.422 1.771 2.283.508.912.919 1.84 1.223 2.759.711 2.092 1.111 4.456 1.19 7.038.024.81.688 1.449 1.493 1.449h.028c.818-.013 1.475-.683 1.471-1.501-.006-1.411.202-2.569.6-3.346.485-.951 1.022-1.674 1.595-2.146.661-.543 1.401-.885 2.263-1.042.346-.064.668-.097.952-.097.224 0 .427.02.604.06.438.094.807.234 1.096.417.297.19.545.418.753.689.234.306.42.628.558.961.331.873.521 1.971.553 3.228.022.812.688 1.458 1.498 1.458h.02c.818-.011 1.477-.679 1.477-1.497 0-2.004.133-3.83.396-5.425.265-1.604.619-3.063 1.053-4.333.431-1.265.919-2.363 1.455-3.267.543-.919 1.101-1.705 1.663-2.335 1.295-1.473 2.74-2.49 4.304-3.033.799-.186 1.528-.282 2.169-.282.206 0 .405.008.595.028.762.079 1.416.263 1.943.552.538.293.976.649 1.339 1.09.388.47.703.998.941 1.567.635 1.451.985 3.243 1.052 5.353 0 2.956-.199 5.743-.593 8.23-.398 2.523-.853 4.729-1.356 6.559-.574 2.104-1.224 3.994-1.931 5.625-.44 1.03-.921 1.912-1.429 2.624-.512.718-1.05 1.337-1.602 1.847-.539.494-1.099.917-1.668 1.251-.558.326-1.098.582-1.595.757-1.236.46-2.483.679-3.845.681-1.187 0-2.221-.122-3.099-.368-.874-.243-1.639-.549-2.276-.91-.602-.344-1.107-.735-1.501-1.162-.411-.447-.737-.899-.969-1.344-.644-1.18-.967-2.501-.998-4.068-.015-.775-.622-1.41-1.396-1.463-.035-.002-.067-.004-.103-.004-.729 0-1.359.534-1.478 1.265-.265 1.681-.79 3.153-1.564 4.375-.328.542-.716 1.037-1.164 1.495-.434.439-.954.829-1.55 1.157-.6.334-1.328.608-2.162.814-.829.206-1.811.308-2.918.308zm48.084-.068c-.918 0-1.738-.162-2.441-.479-.743-.339-1.411-.77-1.982-1.28-.576-.51-1.062-1.085-1.446-1.716-.423-.689-.793-1.401-1.097-2.108-.683-1.689-1.123-3.545-1.33-5.646-.224-1.584-.357-3.26-.41-5.042-.055-1.854-.065-3.578-.027-5.125.034-1.854.108-3.749.221-5.635.168-2.201.605-4.28 1.298-6.151.298-.77.678-1.571 1.124-2.366.421-.749.938-1.451 1.539-2.092.598-.637 1.311-1.212 2.114-1.709.775-.479 1.686-.836 2.707-1.057.328-.041.647-.063.956-.063.814 0 1.547.144 2.241.444.402.175.828.433 1.263.768.406.315.799.755 1.168 1.313.393.595.749 1.346 1.057 2.228.32.913.567 2.02.738 3.295.284 2.603.448 5.239.487 7.802.035 2.602.018 4.959-.055 7.003-.108 2.361-.258 4.668-.439 6.841-.243 2.079-.697 3.997-1.349 5.65-.283.64-.646 1.333-1.057 2.007-.369.613-.827 1.178-1.356 1.674-.485.456-1.057.816-1.695 1.07-.631.247-1.379.374-2.229.374zm-79.737-.013c-.925 0-1.781-.028-2.543-.085-1.545-.114-2.808-.311-3.856-.6-1.033-.28-1.896-.627-2.575-1.035-.645-.387-1.162-.812-1.539-1.263-1.018-1.092-1.536-2.328-1.597-3.735.002-.941.131-1.764.374-2.315.219-.499.495-.854.846-1.085.406-.269.881-.446 1.446-.538.515-.086 1.051-.127 1.589-.127.138 0 .278.002.416.007 1.566.085 3.529.475 5.98 1.19.138.04.278.059.416.059.628 0 1.213-.398 1.422-1.021.254-.764-.14-1.592-.891-1.875-1.488-.562-2.792-1.228-3.875-1.976-1.05-.725-1.959-1.521-2.703-2.369-.722-.82-1.322-1.667-1.781-2.519-.458-.849-.827-1.674-1.099-2.451-.591-1.774-.792-3.536-.595-5.208.155-1.053.422-1.941.792-2.595.358-.644.774-1.145 1.238-1.497.497-.376 1.013-.647 1.584-.832.602-.188 1.223-.308 1.838-.35.293-.02.591-.028.893-.028 1.326 0 2.799.194 4.377.582 3.12.626 6.029 1.236 8.021 2.004 1.926.736 3.267 1.449 4.109 2.188.784.688 1.263 1.37 1.425 2.029.2.805.271 1.516.212 2.114-.072.571-.248 1.046-.528 1.409-.319.414-.709.742-1.192 1.002-.536.287-1.155.505-1.843.646-.696.144-1.414.216-2.133.216-.013 0-.118 0-.132 0l-.35.005c-1.82 0-3.786-.326-5.84-.967-.149-.046-.298-.068-.446-.068-.63 0-1.215.398-1.423 1.028-.253.777.16 1.615.935 1.882 1.83.632 3.747 1.311 5.366 1.98 1.575.652 2.838 1.25 3.864 1.832 1.081.612 1.926 1.18 2.578 1.733.672.569 1.226 1.116 1.648 1.628.9 1.099 1.353 2.177 1.383 3.295 0 .994-.158 1.847-.481 2.565-.322.713-.74 1.297-1.28 1.786-.569.516-1.21.938-1.965 1.289-.794.374-1.617.693-2.449.951-1.969.574-4.282.93-6.854 1.048-.983.047-1.912.071-2.782.071zm133.13-.183c-1.197-.009-2.186-.254-3.021-.749-.912-.532-1.715-1.27-2.39-2.193-.713-.976-1.323-2.109-1.816-3.366-.505-1.289-.923-2.632-1.243-3.987-.789-3.199-1.205-6.738-1.238-10.535-.006-.803-.647-1.458-1.449-1.484-.015 0-.03 0-.046 0-.782 0-1.438.602-1.494 1.388-.217 2.98-.674 4.549-1.02 5.341-.638 1.456-1.143 2.013-1.39 2.217-.49.433-.831.479-1.05.479-.07 0-.143-.006-.217-.017-.055-.009-.107-.014-.162-.016-.998-.043-1.716-.398-2.258-1.123-.71-.941-1.248-1.993-1.603-3.131-.447-1.37-.722-2.923-.825-4.635-.051-.792-.705-1.405-1.494-1.405-.016 0-.031 0-.047 0-.808.026-1.45.688-1.45 1.497 0 2.67-.137 5.09-.402 7.197-.272 2.137-.624 4.003-1.047 5.55-.42 1.553-.899 2.875-1.425 3.93-.529 1.068-1.066 1.957-1.595 2.644-1.127 1.392-2.34 2.168-3.682 2.353-1.156-.009-2.146-.193-2.952-.55-.857-.378-1.602-.864-2.215-1.448-.625-.595-1.146-1.278-1.547-2.033-.438-.819-.796-1.657-1.061-2.491-.618-2.02-.933-4.314-.933-6.803 0-3.574.203-6.708.626-9.583.406-2.803.872-5.248 1.385-7.266.598-2.265 1.287-4.344 2.044-6.165.874-2.199 1.906-3.845 3.077-4.915 1.18-1.077 2.311-1.851 3.363-2.307 1.132-.477 2.3-.722 3.462-.722l.193.002.348-.005c.947 0 1.806.134 2.552.399.816.289 1.52.669 2.085 1.129.58.471 1.072 1.018 1.465 1.628.423.658.768 1.339 1.028 2.02.639 1.703 1 3.698 1.067 5.928.023.786.655 1.42 1.44 1.449.02 0 .039.002.059.002.762 0 1.405-.576 1.486-1.339.236-2.23.748-4.149 1.521-5.701.312-.606.706-1.214 1.163-1.788.414-.523.91-.972 1.478-1.34.536-.343 1.175-.586 1.899-.715.273-.05.564-.074.867-.074.519 0 1.087.072 1.695.214 1.53.357 2.896 1.103 4.061 2.219 1.235 1.182 2.29 2.456 3.137 3.79.977 1.519 1.828 3.213 2.535 5.04.956 2.654 1.713 5.292 2.238 7.808.525 2.519.921 4.786 1.177 6.74.287 2.281.451 4.44.486 6.415.035 1.464-.042 2.733-.226 3.782-.181 1.024-.435 1.904-.755 2.61-.309.696-.664 1.276-1.066 1.732-.431.492-.87.895-1.312 1.201-1.059.754-2.234 1.148-3.506 1.182z" fill="url(#c)"/><path d="m123.895 13.172c.562-1.41 1.28-2.394 2.15-3.035.87-.639 1.734-1.059 2.592-1.286.991-.276 2.023-.371 3.097-.29.855.064 1.586.178 2.189.342.603.166 1.105.361 1.507.59s.717.482.944.76c.228.277.408.56.543.843.267.675.295 1.436.081 2.285-.349 1.012-.925 1.909-1.729 2.674s-1.622 1.407-2.452 1.916c-.965.607-2.01 1.129-3.135 1.567.535 1.312.777 2.537.723 3.645s-.2 2.078-.441 2.89c-.296.951-.71 1.817-1.246 2.593-.617.777-1.313 1.349-2.09 1.707s-1.688.564-2.733.625c-.857.05-1.602.016-2.23-.108-.63-.124-1.146-.277-1.547-.462-.482-.202-.885-.446-1.206-.732-.429-.397-.784-.833-1.065-1.309s-.502-.977-.663-1.502c-.161-.526-.269-1.059-.321-1.597-.054-.538-.08-1.045-.08-1.521 0-1.133.146-2.289.441-3.455-1.366-.358-2.613-.835-3.738-1.438-.482-.254-.958-.546-1.427-.875-.468-.329-.904-.698-1.306-1.106s-.744-.858-1.025-1.348-.477-1.021-.583-1.589c-.134-.669-.146-1.262-.039-1.778.106-.517.28-.968.521-1.356.241-.387.529-.717.864-.989.334-.272.689-.493 1.064-.664.885-.417 1.916-.669 3.096-.775.885-.036 1.701.01 2.451.128.75.12 1.428.284 2.03.495.603.21 1.138.454 1.607.732s.878.571 1.226.881c.831.703 1.473 1.541 1.93 2.542z" fill="#111556"/><path d="m46.433 9.362c1.901.107 3.435.555 4.602 1.324 1.164.77 2.081 1.586 2.75 2.455.777 1.005 1.339 2.138 1.689 3.394.401 1.873.454 3.422.16 4.695-.294 1.272-.71 2.317-1.246 3.149-.617.969-1.378 1.779-2.289 2.434 1.231.371 2.182.922 2.852 1.662.668.739 1.151 1.463 1.446 2.185.349.84.55 1.747.603 2.724.053 1.253-.053 2.37-.321 3.364-.267.995-.643 1.869-1.125 2.623-.481.755-1.043 1.42-1.687 1.992-.644.574-1.298 1.054-1.969 1.443-1.607.923-3.441 1.55-5.503 1.848-1.126.155-2.156.185-3.094.1-.938-.087-1.782-.247-2.531-.475-.75-.229-1.421-.503-2.008-.818-.591-.316-1.099-.66-1.527-1.027-1.044-.83-1.835-1.808-2.372-2.925-.802-1.583-1.325-3.307-1.566-5.174-.24-1.867-.361-3.641-.361-5.304 0-1.696.082-3.255.242-4.665.161-1.41.348-2.618.562-3.614.242-1.167.508-2.23.804-3.178.348-1.194.789-2.235 1.324-3.115.536-.879 1.12-1.642 1.749-2.283.629-.64 1.285-1.147 1.967-1.519.685-.371 1.347-.669 1.99-.895 1.525-.485 3.145-.618 4.859-.4zm-1.407 10.819c-.455.009-.837.199-1.145.569-.307.372-.461.852-.461 1.437 0 .553.114 1.057.34 1.512.228.457.65.677 1.266.66.536-.015.937-.256 1.206-.725.268-.467.402-.974.402-1.524 0-.515-.134-.967-.402-1.358-.269-.392-.67-.583-1.206-.571zm.362 12.028c-.455.018-.85.24-1.185.666-.334.425-.475.891-.422 1.394.054.661.221 1.11.502 1.35.28.241.649.351 1.104.33.456-.02.83-.195 1.126-.521.294-.328.442-.757.442-1.292 0-.503-.135-.956-.402-1.355-.268-.402-.657-.592-1.165-.572z" fill="#111556"/><path d="m98.998 8.958c1.902.051 3.436.298 4.602.721 1.164.425 2.081.873 2.75 1.358.777.562 1.34 1.204 1.689 1.94.401 1.104.454 2.061.16 2.882s-.711 1.527-1.246 2.111c-.616.681-1.378 1.284-2.289 1.807 1.231.164 2.182.487 2.853.967.668.48 1.15.973 1.445 1.481.349.592.55 1.252.602 1.989.055.945-.052 1.822-.32 2.627-.267.806-.642 1.539-1.125 2.192-.481.654-1.043 1.251-1.688 1.789-.643.54-1.297 1.012-1.968 1.417-1.606.962-3.441 1.744-5.504 2.34-1.124.319-2.153.533-3.091.638-.938.104-1.782.14-2.53.1-.751-.039-1.421-.128-2.009-.269-.591-.141-1.1-.32-1.527-.54-1.045-.474-1.836-1.128-2.372-1.965-.802-1.174-1.325-2.528-1.566-4.054-.24-1.524-.361-2.974-.361-4.334 0-1.387.082-2.655.241-3.794.161-1.141.347-2.104.562-2.895.242-.924.509-1.753.805-2.485.348-.918.789-1.708 1.324-2.368.536-.66 1.119-1.219 1.749-1.68.629-.461 1.284-.816 1.967-1.074.685-.258 1.347-.459 1.99-.609 1.526-.326 3.146-.408 4.857-.292zm-1.404 6.892c-.455.043-.838.203-1.145.483-.308.282-.461.627-.461 1.035 0 .385.113.727.34 1.022.228.298.649.406 1.266.329.536-.067.936-.276 1.204-.626.267-.348.401-.706.401-1.078 0-.348-.135-.64-.401-.881-.268-.239-.668-.336-1.204-.284zm.362 8.58c-.454.077-.849.305-1.185.686-.334.381-.476.769-.422 1.159.054.515.221.847.503.994.28.148.649.177 1.104.092.455-.086.829-.28 1.124-.582.294-.301.442-.66.442-1.077 0-.392-.135-.722-.402-.994-.268-.271-.658-.365-1.164-.278z" fill="#111556"/><path d="m81.402 38.267c-.643.367-1.312.659-2.006.875-.588.19-1.236.315-1.946.37-.709.054-1.412-.046-2.105-.303-.804-.314-1.45-.746-1.946-1.294-.495-.547-.889-1.109-1.183-1.683-.293-.573-.494-1.113-.602-1.619-.107-.503-.174-.842-.2-1.008-.026.176-.093.54-.201 1.086-.107.548-.308 1.169-.601 1.865-.294.695-.689 1.424-1.184 2.185s-1.143 1.474-1.945 2.137c-.696.559-1.398.963-2.105 1.21-.71.247-1.359.395-1.947.447-.694.069-1.363.047-2.006-.069-.534-.108-.996-.294-1.383-.56-.389-.265-.709-.588-.963-.967-.255-.379-.468-.796-.642-1.252-.174-.455-.301-.913-.381-1.375-.213-1.089-.294-2.289-.24-3.598.08-2.161.294-4.209.641-6.119.348-1.91.783-3.698 1.304-5.341.522-1.645 1.089-3.142 1.706-4.479.615-1.337 1.216-2.549 1.805-3.635.883-1.626 1.785-2.862 2.708-3.706.922-.844 1.778-1.452 2.567-1.831.788-.381 1.445-.592 1.966-.643s.822-.076.902-.077c.08 0 .381.022.902.067.521.042 1.178.242 1.965.583.788.339 1.651.875 2.587 1.583s1.845 1.729 2.729 3.033c.587.872 1.182 1.828 1.785 2.865.601 1.038 1.163 2.195 1.685 3.473.52 1.277.955 2.682 1.303 4.222.347 1.541.561 3.244.643 5.126.078 1.133.011 2.231-.201 3.294-.081.447-.207.91-.381 1.391-.174.482-.394.948-.662 1.4-.267.452-.595.877-.984 1.276s-.849.756-1.384 1.071zm-9.829-13.236c-.454.065-.849.315-1.182.749-.336.436-.475.889-.422 1.354.053.614.222 1.015.501 1.205.282.191.649.247 1.104.172s.829-.283 1.124-.623c.295-.337.44-.753.44-1.247 0-.464-.134-.866-.401-1.207-.269-.34-.655-.476-1.164-.403z" fill="#111556"/><path d="m122.4 10.776c.562-1.41 1.279-2.394 2.15-3.035.87-.639 1.734-1.059 2.592-1.286.991-.276 2.023-.371 3.096-.291.855.064 1.587.178 2.19.343.603.166 1.105.361 1.507.59s.717.482.944.76c.229.277.409.56.543.843.267.675.295 1.436.081 2.285-.349 1.012-.926 1.909-1.729 2.674-.804.765-1.622 1.407-2.452 1.916-.965.607-2.01 1.129-3.135 1.567.535 1.312.776 2.537.723 3.645-.055 1.108-.2 2.078-.442 2.89-.295.951-.709 1.817-1.246 2.593-.616.777-1.312 1.349-2.089 1.707s-1.688.564-2.733.625c-.857.05-1.602.016-2.23-.108-.63-.124-1.146-.277-1.548-.462-.481-.202-.883-.446-1.205-.732-.429-.397-.783-.833-1.065-1.309-.281-.476-.503-.977-.663-1.502s-.269-1.058-.321-1.597c-.054-.538-.081-1.045-.081-1.521 0-1.133.146-2.289.441-3.455-1.365-.359-2.612-.835-3.737-1.438-.482-.254-.958-.546-1.427-.875s-.904-.698-1.306-1.106c-.401-.408-.745-.858-1.025-1.348-.282-.489-.476-1.021-.583-1.589-.134-.669-.146-1.263-.039-1.778.105-.516.28-.967.521-1.356.241-.388.529-.717.864-.989.334-.272.689-.493 1.065-.664.884-.417 1.915-.669 3.095-.775.884-.036 1.701.01 2.452.128.749.12 1.427.284 2.029.495.603.21 1.138.454 1.607.732.47.278.877.571 1.226.881.831.703 1.473 1.541 1.93 2.542z" fill="url(#d)"/><path d="m44.935 6.966c1.901.107 3.435.555 4.601 1.324 1.164.77 2.081 1.586 2.75 2.455.777 1.005 1.34 2.138 1.689 3.394.401 1.873.453 3.421.16 4.695-.294 1.272-.71 2.317-1.246 3.149-.617.969-1.379 1.779-2.29 2.434 1.231.371 2.182.922 2.852 1.662.668.739 1.151 1.463 1.446 2.185.349.84.55 1.747.603 2.724.053 1.252-.052 2.37-.321 3.364-.267.995-.642 1.869-1.125 2.623-.481.755-1.043 1.419-1.687 1.992-.644.574-1.298 1.054-1.968 1.443-1.607.923-3.441 1.55-5.503 1.848-1.126.155-2.156.185-3.094.1-.938-.087-1.782-.247-2.531-.475-.75-.229-1.421-.503-2.009-.818-.591-.316-1.099-.66-1.527-1.027-1.045-.83-1.835-1.808-2.372-2.925-.802-1.583-1.325-3.307-1.566-5.174-.24-1.867-.361-3.641-.361-5.304 0-1.696.082-3.255.241-4.665.161-1.41.348-2.618.562-3.615.243-1.167.508-2.229.805-3.178.347-1.194.789-2.235 1.324-3.115.536-.88 1.12-1.642 1.749-2.283.629-.64 1.285-1.147 1.967-1.519.685-.371 1.347-.669 1.99-.895 1.527-.484 3.147-.618 4.861-.399zm-1.407 10.818c-.455.009-.837.199-1.145.568-.308.372-.461.852-.461 1.437 0 .553.113 1.057.34 1.512.228.457.649.677 1.265.66.536-.015.938-.256 1.206-.725.268-.467.402-.974.402-1.524 0-.515-.134-.967-.402-1.358-.267-.391-.669-.581-1.205-.57zm.362 12.029c-.455.018-.85.24-1.185.666-.334.425-.476.891-.422 1.394.054.661.221 1.109.502 1.349.281.241.65.351 1.104.33.456-.02.83-.195 1.126-.521.293-.328.442-.757.442-1.292 0-.503-.135-.956-.402-1.355-.268-.402-.657-.592-1.165-.571z" fill="url(#e)"/><path d="m97.502 6.562c1.901.05 3.436.298 4.602.721 1.164.425 2.081.873 2.75 1.358.777.562 1.34 1.204 1.689 1.94.401 1.104.453 2.061.16 2.882-.294.821-.711 1.527-1.246 2.111-.617.681-1.378 1.284-2.289 1.807 1.231.165 2.182.487 2.852.967.668.48 1.151.973 1.446 1.481.349.592.55 1.253.602 1.989.054.944-.052 1.821-.32 2.626-.267.806-.642 1.539-1.125 2.192-.481.654-1.044 1.251-1.688 1.789-.643.54-1.297 1.012-1.968 1.417-1.606.962-3.441 1.744-5.504 2.34-1.126.319-2.156.533-3.094.638-.938.104-1.781.14-2.53.1-.751-.039-1.421-.128-2.009-.269-.591-.141-1.1-.32-1.527-.54-1.045-.474-1.836-1.128-2.371-1.965-.802-1.174-1.326-2.528-1.566-4.054-.24-1.524-.361-2.974-.361-4.334 0-1.387.081-2.655.241-3.794.161-1.141.348-2.104.562-2.895.243-.924.509-1.753.805-2.485.348-.918.789-1.708 1.324-2.368.536-.66 1.12-1.219 1.749-1.68s1.284-.816 1.968-1.074c.685-.258 1.347-.459 1.99-.609 1.524-.325 3.146-.408 4.858-.291zm-1.406 6.891c-.455.043-.838.203-1.145.483-.308.281-.461.627-.461 1.034 0 .385.113.727.34 1.022.229.298.65.406 1.266.329.536-.067.938-.277 1.206-.626.268-.348.402-.706.402-1.078 0-.348-.135-.64-.402-.88-.268-.239-.67-.336-1.206-.284zm.362 8.58c-.454.077-.849.305-1.184.686s-.477.769-.422 1.159c.053.515.22.847.502.994.28.148.649.177 1.104.092.457-.086.831-.28 1.127-.582.294-.301.442-.66.442-1.077 0-.392-.135-.722-.402-.994-.269-.27-.659-.365-1.167-.278z" fill="url(#f)"/><path d="m79.905 35.87c-.643.367-1.312.659-2.007.875-.588.19-1.236.315-1.946.37-.709.054-1.412-.046-2.106-.303-.803-.314-1.45-.746-1.946-1.294-.495-.547-.889-1.109-1.183-1.683-.294-.573-.494-1.113-.603-1.619-.107-.504-.174-.842-.2-1.008-.027.176-.093.54-.201 1.086-.107.548-.307 1.169-.601 1.865-.294.695-.689 1.424-1.184 2.184-.496.762-1.143 1.474-1.945 2.138-.696.558-1.398.962-2.105 1.21-.709.247-1.359.395-1.947.447-.694.069-1.363.047-2.006-.069-.534-.108-.995-.294-1.383-.56-.389-.265-.708-.588-.963-.967s-.469-.796-.642-1.252c-.174-.455-.301-.913-.382-1.375-.213-1.089-.293-2.29-.24-3.598.08-2.16.293-4.208.641-6.118s.783-3.698 1.304-5.341c.521-1.645 1.088-3.141 1.705-4.479.615-1.336 1.216-2.548 1.805-3.634.883-1.626 1.785-2.862 2.708-3.706.922-.844 1.778-1.452 2.568-1.831.788-.381 1.444-.592 1.965-.643.522-.051.822-.076.902-.077.079 0 .38.022.902.067.521.042 1.178.242 1.965.583.788.339 1.651.875 2.587 1.583s1.845 1.729 2.729 3.033c.588.872 1.183 1.828 1.785 2.865.601 1.038 1.163 2.195 1.685 3.472.52 1.277.955 2.682 1.303 4.222.347 1.541.561 3.244.643 5.126.078 1.133.012 2.231-.201 3.294-.08.447-.207.911-.381 1.391-.174.482-.394.947-.662 1.399-.267.452-.595.877-.983 1.277-.385.399-.846.756-1.38 1.07zm-9.83-13.236c-.454.065-.849.315-1.182.749-.336.436-.476.889-.423 1.354.054.614.222 1.015.501 1.205.281.191.649.247 1.103.172.455-.075.829-.283 1.124-.623.295-.337.44-.753.44-1.248 0-.463-.134-.866-.401-1.207-.266-.338-.653-.475-1.162-.402z" fill="url(#g)"/><ellipse cx="95.092" cy="46.355" fill="#fff" rx="1.574" ry="5.938" transform="matrix(.9662 .2576 -.2576 .9662 15.1513 -22.9324)"/><ellipse cx="74.652" cy="50.177" fill="#fff" rx="1.574" ry="5.938" transform="matrix(.9426 .334 -.334 .9426 21.0489 -22.0543)"/><ellipse cx="41.496" cy="53.916" fill="#fff" rx="1.862" ry="4.516" transform="matrix(.9554 .2952 -.2952 .9554 17.767 -9.8476)"/><ellipse cx="12.576" cy="50.094" fill="#fff" rx="1.732" ry="3.251" transform="matrix(.9553 .2955 -.2955 .9553 15.365 -1.479)"/><path d="m39.73 13.429c-1.193 1.341-2.736 1.917-3.453 1.286-.717-.636-.33-2.239.859-3.584 1.191-1.344 2.737-1.918 3.453-1.286.717.634.331 2.238-.859 3.584z" fill="#fff"/><ellipse cx="89.546" cy="11.321" fill="#fff" rx="1.345" ry="2.524" transform="matrix(.7485 .6631 -.6631 .7485 30.029 -56.5347)"/><ellipse cx="111.049" cy="9.623" fill="#fff" rx="1.236" ry="1.603" transform="matrix(.7484 .6632 -.6632 .7484 34.3223 -71.2321)"/><path d="m152.283 12.495c2.929 2.853 2.929 7.502 0 9.357-4.144 2.668-8.115-4.185-17.591 3.059-.001-5.61 4.057-11.414 6.985-13.328 2.929-1.901 7.677-1.914 10.606.912zm-9.072 12.008c-2.03-.387-6.317.313-8.52 2.109 6.569.659 5.646 4.059 8.52 4.578 2.031.417 3.677-.714 3.677-2.594 0-1.882-1.645-3.737-3.677-4.093z" fill="#111556"/><path d="m141.079 10.685c-2.928 1.914-6.985 7.718-6.985 13.329 9.476-7.244 13.447-.391 17.592-3.059 2.929-1.855 2.929-6.504 0-9.357-2.931-2.828-7.679-2.815-10.607-.913z" fill="url(#i)"/><path d="m142.613 23.604c-2.03-.387-6.316.313-8.52 2.109 6.569.659 5.647 4.059 8.52 4.578 2.032.417 3.677-.714 3.677-2.594 0-1.882-1.645-3.736-3.677-4.093z" fill="url(#j)"/><path d="m146.472 13.09c-1.688-.221-2.979-.991-2.885-1.723.098-.732 1.543-1.145 3.228-.929 1.688.222 2.979.993 2.886 1.724-.098.733-1.543 1.145-3.229.928z" fill="#fff"/><path d="m142.823 25.693c-.71-.291-1.17-.803-1.031-1.144.144-.341.831-.378 1.538-.089.707.292 1.169.805 1.028 1.145-.141.341-.828.379-1.535.088z" fill="#fff"/><path d="m67.391 13.921c-1.669 2.183-3.633 3.482-4.395 2.906-.761-.583-.023-2.823 1.642-5.008 1.667-2.185 3.635-3.484 4.395-2.907.761.582.026 2.823-1.642 5.009z" fill="#fff"/><ellipse cx="60.299" cy="58.332" fill="#fff" rx=".911" ry="1.723" transform="matrix(.9553 .2956 -.2956 .9553 19.9414 -15.2198)"/><ellipse cx="119.495" cy="42.259" fill="#fff" rx="2.112" ry="7.127" transform="matrix(.9238 .3828 -.3828 .9238 25.2824 -42.528)"/><ellipse cx="141.138" cy="39.632" fill="#fff" rx="1.055" ry="3.564" transform="matrix(.9342 .3567 -.3567 .9342 23.4253 -47.7425)"/><path d="m22.776 22.466c2.928 1.914 6.986 7.717 6.985 13.328-9.476-7.244-13.447-.391-17.591-3.059-2.929-1.855-2.929-6.504 0-9.357 2.929-2.827 7.677-2.814 10.606-.912zm-5.211 17.013c0 1.879 1.645 3.011 3.676 2.594 2.873-.519 1.95-3.919 8.52-4.578-2.203-1.796-6.489-2.496-8.52-2.109-2.031.356-3.676 2.211-3.676 4.093z" fill="#111556"/><path d="m22.175 21.567c2.929 1.914 6.986 7.718 6.985 13.329-9.476-7.244-13.447-.391-17.591-3.059-2.929-1.855-2.929-6.505 0-9.358 2.93-2.826 7.678-2.813 10.606-.912z" fill="url(#k)"/><path d="m20.641 34.487c2.03-.387 6.317.313 8.52 2.109-6.57.659-5.646 4.059-8.52 4.578-2.031.417-3.676-.714-3.676-2.594 0-1.882 1.645-3.737 3.676-4.093z" fill="url(#l)"/><path d="m19.903 36.685c.563-.58.762-1.174.438-1.327-.327-.152-1.042.196-1.61.774-.562.58-.758 1.175-.434 1.328.323.152 1.043-.195 1.606-.775z" fill="#fff"/><ellipse cx="13.832" cy="23.276" fill="#fff" rx="1.119" ry="2.605" transform="matrix(.5652 .825 -.825 .5652 25.2167 -1.2897)"/></svg>