<svg enable-background="new 0 0 207.215 69.975" height="69.975" viewBox="0 0 207.215 69.975" width="207.215" xmlns="http://www.w3.org/2000/svg"><path d="m10.859 14.119c0-1.131-.238-1.491-.238-1.907 0-.599.718-1.016 1.551-1.016 1.971 0 3.343 1.194 3.343 2.626v22.141c0 5.727 1.911 7.995 5.43 7.995 3.343 0 5.85-2.625 5.85-6.087 0-5.37-4.117-6.98-7.877-6.98-1.074 0-2.09-4.478-.301-4.478 2.808 0 9.669-1.848 9.669-10.501 0-4.537-2.923-9.189-10.264-9.189-9.609 0-13.487 6.325-13.487 13.604 0 5.251 2.148 7.103 2.268 7.281.658-.179.896.238.896.836 0 1.075-1.61 5.013-3.343 3.7-.954-.896-4.356-4.477-4.356-11.457 0-11.16 7.341-18.44 17.962-18.44 9.011 0 14.919 5.072 14.919 13.547 0 6.504-3.343 10.502-7.697 12.829 3.459 1.016 6.266 3.998 6.266 9.13 0 5.968-4.536 10.323-10.445 10.323-7.816 0-10.145-4.953-10.145-12.294v-21.663z"/><path d="m38.599 39.422c.837 2.03 2.447 3.7 5.552 3.7 4.652 0 6.563-3.879 7.281-7.52.536-2.685 3.879-1.491 3.638.599-.417 3.641-2.805 10.858-11.576 10.858-5.43 0-10.562-4.354-10.562-11.814 0-7.578 4.536-13.246 9.129-13.246 3.344 0 5.37 2.447 5.37 6.024 0 4.418-3.042 9.669-8.832 11.399zm-.714-3.28c2.982-1.372 4.894-4.478 4.894-8.059 0-1.312-.479-2.086-1.253-2.086-2.927 0-3.819 6.563-3.7 9.069 0 .358.059.715.059 1.076z"/><path d="m72.32 36.677c.238-1.253.837-1.788 1.432-1.788.956 0 2.09 1.312 2.09 2.446 0 .06 0 .179-.06.417-1.015 3.938-3.402 9.308-8.534 9.308-2.09 0-3.7-1.012-4.596-2.446-1.191 1.372-2.864 2.446-5.132 2.446-4.653 0-7.1-3.938-7.1-9.01 0-9.967 6.921-16.051 14.202-16.051 1.61 0 2.744.952 2.744 2.507 0 1.012-.179 1.372-.774 1.372-.538 0-1.134-.119-1.732-.119-4.533 0-9.847 3.879-9.847 12.47 0 3.104 1.312 4.894 3.402 4.894 1.61 0 2.686-1.433 3.343-3.102v-9.189c0-1.134-.238-1.494-.238-1.911 0-.596.715-1.016 1.551-1.016 1.968 0 3.222 1.194 3.222 2.626v9.847c0 1.312.598 2.745 2.029 2.745 2.387-.001 3.462-3.82 3.998-6.446z"/><path d="m84.082 42.824c-1.433 2.506-3.344 4.295-5.969 4.295-3.998 0-6.325-3.399-6.325-8.59 0-6.326 2.148-13.429 2.148-13.429.417-1.015 0-2.209 3.162-2.209 2.923 0 1.193 2.388.955 3.284-1.074 4.414-1.729 7.039-1.729 12.053 0 3.224 1.012 4.953 2.744 4.953 2.388 0 4.177-3.879 4.895-8.056v-9.608c0-1.729-.599-1.849-.599-2.266 0-.42 1.074-.657 1.911-.657 1.968 0 3.221 1.193 3.221 2.625v15.157c0 .536 0 2.745 1.551 2.745 2.388 0 3.462-3.819 4.001-6.445.238-1.253.833-1.788 1.432-1.788.952 0 2.087 1.312 2.087 2.446 0 .06 0 .179-.06.417-1.075 3.938-3.399 9.308-8.531 9.308-2.689.001-4.478-1.848-4.894-4.235z"/><path d="m94.292 17.522v-10.084c0-1.729-.599-1.849-.599-2.269 0-.417 1.075-.655 1.911-.655 1.968 0 3.221 1.194 3.221 2.626v10.442c3.641 0 7.818-.06 11.877-.238 1.67-1.789 1.132 3.938-.419 3.997-4.775.119-8.293.119-11.458.119v18.917c0 1.911.777 2.745 2.03 2.745 2.388 0 3.462-3.819 3.999-6.445.238-1.253.836-1.788 1.432-1.788.955 0 2.09 1.312 2.09 2.446 0 .06 0 .179-.06.417-1.016 3.938-3.402 9.308-8.535 9.308-3.224 0-5.489-1.907-5.489-6.623v-18.977c-2.625 0-4.12-.119-4.12-.119-1.908 0-2.982-3.997-1.253-3.997-.001 0 2.149.119 5.373.178z"/><path d="m127.708 34.889c.956 0 2.09 1.312 2.09 2.446 0 .06 0 .357-.06.596-2.03 6.924-5.488 10.442-8.713 13.249v10.323c0 6.266-3.161 8.472-6.206 8.472-3.34 0-5.728-3.042-5.728-6.861 0-6.027 3.463-9.07 7.4-12.532v-7.578c-1.435 2.387-3.283 4.116-5.849 4.116-3.998 0-6.327-3.399-6.327-8.59 0-6.326 2.15-13.429 2.15-13.429.417-1.015 0-2.209 3.161-2.209 2.927 0 1.193 2.388.956 3.284-1.075 4.414-1.729 7.039-1.729 12.053 0 3.224 1.012 4.953 2.744 4.953 2.388 0 4.177-3.879 4.894-8.056v-9.608c0-1.135-.241-1.491-.241-1.908 0-.599.718-1.015 1.554-1.015 1.968 0 3.221 1.193 3.221 2.625v20.947c2.149-2.388 4.058-5.373 5.251-9.49.361-1.253.837-1.788 1.432-1.788zm-11.216 26.614v-6.385c-1.911 1.968-3.224 4.235-3.224 7.816 0 1.849.599 3.28 1.551 3.28 1.911.001 1.673-3.577 1.673-4.711z"/><g fill="#ce0767"><path d="m134.952 14.119c0-1.131-.238-1.491-.238-1.907 0-.599.718-1.016 1.551-1.016 1.971 0 3.343 1.194 3.343 2.626v22.141c0 5.727 1.911 7.995 5.43 7.995 3.343 0 5.85-2.625 5.85-6.087 0-5.37-4.117-6.98-7.877-6.98-1.074 0-2.09-4.478-.301-4.478 2.808 0 9.669-1.848 9.669-10.501 0-4.537-2.923-9.189-10.264-9.189-9.609 0-13.487 6.325-13.487 13.604 0 5.251 2.148 7.103 2.268 7.281.658-.179.896.238.896.836 0 1.075-1.61 5.013-3.343 3.7-.953-.896-4.355-4.477-4.355-11.457 0-11.16 7.341-18.44 17.962-18.44 9.011 0 14.919 5.072 14.919 13.547 0 6.504-3.343 10.502-7.697 12.829 3.459 1.016 6.266 3.998 6.266 9.13 0 5.968-4.536 10.323-10.445 10.323-7.816 0-10.145-4.953-10.145-12.294v-21.663z"/><path d="m183.041 37.275c-.714 3.221-3.161 5.906-7.219 5.906-1.074 0-2.029-.119-2.923-.417-1.494 2.565-3.76 4.295-7.162 4.295-6.027 0-8.713-5.132-8.713-11.097 0-8.772 4.775-14.083 6.088-14.083 1.551 0 2.744 3.161 1.193 4.177-.955 1.432-2.744 3.641-2.744 9.546 0 5.013 1.968 7.52 4.295 7.52 1.67 0 2.745-.894 3.521-2.269-2.804-2.385-4.298-6.325-4.298-10.621 0-3.76 1.613-6.98 4.834-6.98 2.804 0 5.072 4.236 5.072 10.022 0 2.209-.238 4.418-.837 6.448.42.119.777.119 1.194.119 2.565 0 3.94-1.971 4.298-4.299.24-1.371 4.178-1.609 3.401 1.733zm-12.528-.3c.118-.952.178-1.849.178-2.744 0-4.058-.178-7.04-1.432-7.04-.657 0-1.015.952-1.015 2.804 0 2.685.896 5.191 2.269 6.98z"/><path d="m179.467 36.38c.598-2.209 1.554-8.476 1.554-11.518 0-2.089 1.015-2.863 3.519-2.863.955 0 2.387.357 3.164 1.61 1.432 2.328 2.625 4.655 4.116 7.816 2.03-3.102 3.641-5.968 4.656-7.876.535-1.074 1.015-1.61 1.67-1.61 1.193 0 2.506 1.729 2.506 3.102 0 .357-.06.658-.238.896l-6.742 9.605c2.266 4.834 3.879 7.816 6.085 7.816 2.387 0 3.402-4.057 3.941-6.683.237-1.253.833-1.788 1.432-1.788.952 0 2.086 1.312 2.086 2.446 0 .06 0 .179-.06.417-1.015 3.938-3.102 9.308-7.936 9.308-3.581 0-5.79-2.026-8.355-7.459l-3.998 5.671c-.833 1.312-1.61 1.788-2.685 1.788-1.372 0-3.102-.833-3.102-1.967 0-.777.654-.42 2.565-2.626 1.849-2.149 3.7-4.536 5.37-6.924-1.253-2.863-2.625-5.549-4.235-8.293-.119 2.625-1.075 7.936-1.971 10.8-.774 2.508-3.878.362-3.342-1.668z"/><path d="m86.177 2.449s-1.874-3.7-8.606-2.005c-4.991 1.256-11.737 4.91-14.014 6.191-.025-.122-.129-.216-.257-.216h-4.014c-.132 0-.235.094-.257.216-2.281-1.281-9.026-4.935-14.014-6.19-6.736-1.695-8.61 2.005-8.61 2.005-1.694 3.255-.488 5.176.536 6.244 1.024 1.071 3.39 3.524 9.678 3.524h9.171l-8.409 5.43c-.125.078-.16.244-.078.366l1.977 2.945c.085.122.251.153.373.072l8.521-5.718.843-3.096v3.387c0 .15.119.27.27.27h4.013c.146 0 .266-.119.266-.27v-3.387l.847 3.096 8.521 5.718c.122.081.288.05.369-.072l1.978-2.945c.081-.122.047-.288-.075-.366l-8.412-5.43h9.17c6.288 0 8.653-2.453 9.678-3.524 1.027-1.069 2.23-2.99.535-6.245zm-45.4 5.799c-1.738 0-2.811-.758-2.811-.758s-1.068-.58-1.281-1.808c0 0 .179.88 1.26 1.466-.025-.68.021-2.259.871-3.584 0 0 1.159-2.184 4.458-2.184 2.052 0 9.205 4.794 11.501 6.369l3.086.498h-17.084zm43.84-.758s-1.071.758-2.811.758h-17.084l3.086-.498c2.297-1.575 9.452-6.369 11.502-6.369 3.299 0 4.458 2.184 4.458 2.184.849 1.325.896 2.904.871 3.584 1.08-.586 1.259-1.466 1.259-1.466-.213 1.227-1.281 1.807-1.281 1.807z"/></g><path d="m61.294 12.794c.404-.827 2.813-1.572 2.813-3.349 0-.928-.752-1.683-1.679-1.683-.436 0-.837.169-1.135.448-.301-.279-.701-.448-1.137-.448-.928 0-1.68.755-1.68 1.683.002 1.777 2.411 2.522 2.818 3.349z" fill="#fff"/></svg>