<?xml version="1.0" encoding="UTF-8"?><svg version="1.1" width="154px" height="30px" viewBox="0 0 154.0 30.0" xmlns="http://www.w3.org/2000/svg" xmlns:xlink="http://www.w3.org/1999/xlink"><defs><clipPath id="i0"><path d="M720,0 L720,676 L0,676 L0,0 L720,0 Z"></path></clipPath><clipPath id="i1"><path d="M8.95927289,0 C10.4762207,2.88348093 13.3725029,4.52044042 16.3679947,5.60374597 C20.4723946,7.08549033 23.9367321,8.9880757 25.6761016,12.5580235 L25.669701,12.5708248 C26.4841803,14.2445878 26.9418249,16.124771 26.9418249,18.1121646 C26.9418249,22.5269948 24.6856051,26.4137735 21.2644718,28.6859948 C20.9476409,28.8972154 20.6212091,29.0940346 20.2835762,29.2764524 C20.0707555,29.3772622 19.8563346,29.4700712 19.6371132,29.55968 C18.5170041,27.764305 16.5264102,26.5705887 14.2541888,26.5705887 C11.9819674,26.5705887 9.99137345,27.764305 8.86966416,29.55968 C8.65204296,29.4700712 8.43442176,29.375662 8.22160102,29.2764524 C7.87916766,29.1164368 7.54313492,28.9420198 7.21670312,28.7564017 C2.90748327,26.3049629 0,21.6709114 0,16.3583938 C0,13.4541108 0.87048481,10.7530477 2.36183011,8.50002815 L2.37623151,8.52563064 C3.26111773,10.1001841 4.79566724,11.2586969 6.61984496,11.6363337 C6.09019336,10.377011 5.79576468,8.99127601 5.79576468,7.53833445 C5.79576468,4.59564775 6.99908191,1.93458848 8.94007102,0.016001559 L8.95927289,0 Z"></path></clipPath><clipPath id="i2"><path d="M9.27130329,0 C12.0891778,0 14.2925925,0.734471559 15.8815473,2.20341468 C17.468902,3.67235779 18.2625793,5.73175844 18.2625793,8.3784163 L18.2625793,18.084962 C18.2625793,19.4274928 17.1744733,20.5155988 15.8319425,20.5155988 C14.4894117,20.5155988 13.4013057,19.4274928 13.4013057,18.084962 L13.4013057,7.96557608 C13.4013057,7.42472338 13.3501007,6.97347942 13.2524912,6.61024403 C13.1532815,6.2486088 12.9548622,5.86937185 12.6588333,5.47253318 C12.3628045,5.07889483 11.8779573,4.78126583 11.2058918,4.58444666 C10.5354265,4.38762748 9.67294242,4.28841782 8.61843969,4.28841782 C8.61363922,4.28841782 8.61043891,4.29001797 8.60723859,4.29001797 C7.99437888,4.29001797 7.36391746,4.32362125 6.71745447,4.38762748 C6.6838512,4.39082779 6.64704761,4.39882857 6.61344434,4.40202889 C5.62294784,4.52204058 4.86287378,5.35732196 4.86287378,6.36061971 L4.86287378,18.084962 C4.86287378,19.4274928 3.77476777,20.5155988 2.43063681,20.5155988 C1.08810601,20.5155988 0,19.4274928 0,18.084962 L0,2.21141546 C0.315230713,2.05460018 0.640062361,1.93938895 0.958493385,1.80017539 C1.02249962,1.76177165 1.07690492,1.71056666 1.14731178,1.68176385 C1.35533205,1.59215512 1.56815278,1.52814889 1.77937336,1.44494078 C2.06420111,1.33453002 2.34902886,1.22571942 2.63545677,1.12650975 C3.08030011,0.974494944 3.52834376,0.84328216 3.97798757,0.721670312 C4.2564147,0.64806314 4.53324167,0.568055345 4.81326895,0.504049109 C5.30611697,0.393638352 5.80376545,0.313630557 6.3030141,0.240023385 C6.54303748,0.204819955 6.78146071,0.156815278 7.02308425,0.129612628 C7.76555659,0.048004677 8.51442955,0 9.26970314,0 Z"></path></clipPath><clipPath id="i3"><path d="M8.8792651,0 C11.793149,0 13.999764,0.924890111 15.4959098,2.77787065 C16.9920555,4.63085118 17.7377282,6.90947318 17.7377282,9.61693697 C17.7377282,10.7322456 17.7137258,11.5531256 17.6609207,12.0843774 L4.77966568,12.0843774 C4.91087846,13.8077453 5.42292835,14.9598575 6.32541628,15.5439144 C7.2247039,16.124771 8.3928177,16.4159994 9.83135786,16.4159994 C10.756248,16.4159994 11.7259424,16.3663946 12.6332308,16.1631748 C13.4493104,15.9823571 13.7469393,15.5551155 14.5294156,16.1631748 C14.7102332,16.3023883 14.8894507,16.4496027 15.0190633,16.6384211 C16.2751857,18.4818007 13.8893532,19.9299418 12.3852067,20.2163697 C11.3435052,20.4163891 10.2521989,20.5155988 9.11288786,20.5155988 C8.23280211,20.5155988 7.4023212,20.4467921 6.62464543,20.3027781 C5.84696966,20.1603642 5.0436914,19.8627352 4.21001018,19.4098911 C3.3747288,18.9554468 2.65945911,18.3793907 2.05940065,17.6801226 C1.45774203,16.9808544 0.966494165,16.0127601 0.579256436,14.7758396 C0.193618864,13.5389191 0,12.11158 0,10.4906221 C0,7.30471169 0.71046922,4.76046381 2.12820735,2.85627828 C3.54594548,0.952092761 5.79736483,0 8.8792651,0 Z M8.76245372,3.92518243 C7.57193773,3.92518243 6.64224715,4.30761969 5.97658229,5.07089405 C5.30611697,5.83576857 4.91087846,7.07428924 4.77966568,8.78165559 L12.7836455,8.78165559 C12.655633,7.41992292 12.2507936,6.26941082 11.5707273,5.33171946 C10.8906611,4.39402811 9.95617002,3.92518243 8.76245372,3.92518243 Z"></path></clipPath><clipPath id="i4"><path d="M8.8792651,0 C11.793149,0 13.999764,0.924890111 15.4959098,2.77787065 C16.9920555,4.63085118 17.7393283,6.90947318 17.7393283,9.61693697 C17.7393283,10.7322456 17.7137258,11.5531256 17.6609207,12.0843774 L4.77966568,12.0843774 C4.91087846,13.8077453 5.42452851,14.9598575 6.32541628,15.5439144 C7.2247039,16.124771 8.3928177,16.4159994 9.83135786,16.4159994 C10.7578481,16.4159994 11.7259424,16.3663946 12.6332308,16.1631748 C13.4493104,15.9823571 13.7485395,15.5551155 14.5310157,16.1631748 C14.7102332,16.3023883 14.8910508,16.4496027 15.0190633,16.6384211 C16.2767858,18.4818007 13.8893532,19.9299418 12.3852067,20.2163697 C11.3435052,20.4163891 10.2521989,20.5155988 9.11288786,20.5155988 C8.23280211,20.5155988 7.4023212,20.4467921 6.62624559,20.3027781 C5.84856982,20.1603642 5.0436914,19.8627352 4.21161033,19.4098911 C3.37632895,18.9554468 2.65945911,18.3793907 2.05940065,17.6801226 C1.45774203,16.9808544 0.966494165,16.0127601 0.580856592,14.7758396 C0.19521902,13.5389191 0,12.11158 0,10.4906221 C0,7.30471169 0.712069376,4.76046381 2.1298075,2.85627828 C3.54754563,0.952092761 5.79896499,0 8.8792651,0 Z M8.76245372,3.92518243 C7.57193773,3.92518243 6.64224715,4.30761969 5.97658229,5.07089405 C5.30771713,5.83576857 4.91087846,7.07428924 4.77966568,8.78165559 L12.7836455,8.78165559 C12.6572332,7.41992292 12.2507936,6.26941082 11.5723275,5.33171946 C10.8922612,4.39402811 9.95617002,3.92518243 8.76245372,3.92518243 Z"></path></clipPath><clipPath id="i5"><path d="M2.43223697,0 C3.77476777,0 4.86447394,1.08810601 4.86447394,2.43063681 L4.86447394,16.9776541 C4.86447394,18.3201849 3.77476777,19.4082909 2.43223697,19.4082909 C1.08970617,19.4082909 0,18.3201849 0,16.9776541 L0,2.43063681 C0,1.08810601 1.08970617,0 2.43223697,0 Z"></path></clipPath><clipPath id="i6"><path d="M2.48984258,0 C3.8643765,0 4.97968517,1.11530866 4.97968517,2.48984258 C4.97968517,3.86597666 3.8643765,4.97968517 2.48984258,4.97968517 C1.11530866,4.97968517 0,3.86597666 0,2.48984258 C0,1.11530866 1.11530866,0 2.48984258,0 Z"></path></clipPath><clipPath id="i7"><path d="M2.43223697,0 C3.77476777,0 4.86447394,1.08810601 4.86447394,2.43223697 L4.86447394,24.5671936 C4.86447394,25.9097244 3.77476777,26.9978304 2.43223697,26.9978304 C1.08970617,26.9978304 0,25.9097244 0,24.5671936 L0,2.43223697 C0,1.08810601 1.08970617,0 2.43223697,0 Z"></path></clipPath><clipPath id="i8"><path d="M16.2326756,0 C17.9272407,0 19.0953545,1.69776541 18.4904956,3.2803196 L16.1478673,9.40251608 L12.4883108,18.9650477 C12.131476,19.8995388 11.2337885,20.5155988 10.232091,20.5155988 L8.41911431,20.5155988 C7.41741672,20.5155988 6.52132941,19.8995388 6.16289449,18.9650477 L3.59304411,12.2491934 L0.162309862,3.2803196 C-0.444149225,1.69776541 0.723964583,0 2.41852968,0 C3.46183133,0 4.38672144,0.668865167 4.71315325,1.65936167 L6.58213534,7.32391356 L9.30400053,15.5775177 L11.6002242,8.62164 L12.3394963,6.37982158 L13.8980481,1.65776151 C14.2260801,0.667265011 15.14937,0 16.1926717,0 Z"></path></clipPath><clipPath id="i9"><path d="M2.43223697,0 C3.77476777,0 4.86287378,1.08970617 4.86287378,2.43063681 L4.86287378,8.06798606 C5.98778338,7.86476626 7.06468831,7.76235628 8.09038824,7.76235628 C11.0618777,7.76235628 13.3437001,8.62804062 14.9406557,10.356209 C16.5360111,12.0859775 17.3344889,14.5758201 17.3344889,17.8273369 C17.3344889,19.614711 17.1008661,21.1108568 16.6336206,22.4741896 C16.1663751,23.8375225 15.6159214,24.8712232 14.9790594,25.5768919 C14.3437975,26.2825607 13.5821233,26.8570167 12.6940368,27.3002598 C11.8043501,27.743503 11.0330749,28.0171297 10.3786112,28.12274 C9.72254726,28.2267501 9.06488318,28.2795552 8.40401879,28.2795552 C5.54934067,28.2795552 3.43553472,27.6218912 2.06260096,26.3017626 C0.686466882,24.9864344 0,23.3990797 0,21.5476994 L0,2.43063681 C0,1.08970617 1.08810601,0 2.43223697,0 Z M7.91437109,11.5147219 C6.74305697,11.5147219 5.7077561,11.6251326 4.80846848,11.8475543 L4.80846848,21.9989433 C4.80846848,23.4374835 6.00698525,24.1559535 8.40401879,24.1559535 C9.92896737,24.1559535 10.9946712,23.6359028 11.6091311,22.5974016 C12.2203906,21.5589005 12.5276206,19.9363424 12.5276206,17.571312 C12.5276206,15.3246931 12.132382,13.75334 11.3435052,12.8588528 C10.5546283,11.9627655 9.41211701,11.5147219 7.91437109,11.5147219 Z"></path></clipPath></defs><g transform="translate(-64.0 -150.0)"><g clip-path="url(#i0)"><g transform="translate(63.99967953229037 150.0)"><g clip-path="url(#i1)"><polygon points="0,0 26.9418249,0 26.9418249,29.55968 0,29.55968 0,0" stroke="none" fill="#0FBCCD"></polygon></g><g transform="translate(135.4314349435942 9.043281077452775)"><g clip-path="url(#i2)"><polygon points="0,0 18.2625793,0 18.2625793,20.5155988 0,20.5155988 0,0" stroke="none" fill="#2A2B2E"></polygon></g></g><g transform="translate(56.01361734837507 9.043121061862507)"><g clip-path="url(#i3)"><polygon points="0,0 17.7377282,0 17.7377282,20.5155988 0,20.5155988 0,0" stroke="none" fill="#2A2B2E"></polygon></g></g><g transform="translate(114.72093714137259 9.043121061862507)"><g clip-path="url(#i4)"><polygon points="0,0 17.7393283,0 17.7393283,20.5155988 0,20.5155988 0,0" stroke="none" fill="#2A2B2E"></polygon></g></g><g transform="translate(85.84580386722405 10.15138903925686)"><g clip-path="url(#i5)"><polygon points="0,0 4.86447394,0 4.86447394,19.4082909 0,19.4082909 0,0" stroke="none" fill="#2A2B2E"></polygon></g></g><g transform="translate(85.78819825476933 2.56152956715664)"><g clip-path="url(#i6)"><polygon points="0,0 4.97968517,0 4.97968517,4.97968517 0,4.97968517 0,0" stroke="none" fill="#2A2B2E"></polygon></g></g><g transform="translate(76.36600025983603 2.5615295671566383)"><g clip-path="url(#i7)"><polygon points="0,0 4.86447394,0 4.86447394,26.9978304 0,26.9978304 0,0" stroke="none" fill="#2A2B2E"></polygon></g></g><g transform="translate(94.18256206072601 9.043441093042818)"><g clip-path="url(#i8)"><polygon points="-4.4408921e-16,0 18.6520797,0 18.6520797,20.5155988 -4.4408921e-16,20.5155988 -4.4408921e-16,0" stroke="none" fill="#2A2B2E"></polygon></g></g><g transform="translate(36.43923023623427 1.280284736807971)"><g clip-path="url(#i9)"><polygon points="0,0 17.3344889,0 17.3344889,28.2795552 0,28.2795552 0,0" stroke="none" fill="#2A2B2E"></polygon></g></g></g></g></g></svg>
