<svg xmlns="http://www.w3.org/2000/svg" viewBox="0 0 959 181" width="959" height="181"><g fill="none" fill-rule="evenodd"><path stroke="#BB14EA" stroke-linecap="round" stroke-linejoin="round" stroke-width="13.6" d="M174.973 104.393v6.165a11.899 11.899 0 0 1-9.265 11.604l-21.737 4.935a8.502 8.502 0 0 0-6.618 8.29v36.5a1.7 1.7 0 0 1-2.993 1.104l-26.777-31.38a8.502 8.502 0 0 0-8.155-2.812l-37.7 7.643c-13.305 2.697-26.39-5.501-29.766-18.65L9.357 39.763c-3.503-13.64 4.715-27.538 18.356-31.04 2.88-.74 5.868-.97 8.827-.68l116.944 11.45c8.356.818 14.863 7.615 15.318 15.999l1.466 27.03c.473 8.712-5.727 16.367-14.347 17.716l-68.115 10.66a40.366 40.366 0 0 1-30.92-7.938h0"/><path fill="#B620E0" d="M78.765 58.419c2.7-.07 4.889 2.084 4.889 4.808 0 2.725-2.19 5.064-4.89 5.223-2.7.16-4.889-1.994-4.889-4.808s2.19-5.153 4.89-5.223zm12.034-13.152c2.7.05 4.89 2.21 4.89 4.825 0 2.616-2.19 4.767-4.89 4.806a4.807 4.807 0 0 1-4.89-4.824 4.787 4.787 0 0 1 4.89-4.807zm-24.07-.444c2.702.05 4.89 2.39 4.89 5.224 0 2.837-2.188 5.167-4.89 5.206-2.7.04-4.889-2.298-4.889-5.224 0-2.924 2.19-5.255 4.89-5.206zm12.036-12.036c2.7.16 4.889 2.496 4.889 5.222 0 2.725-2.19 4.878-4.89 4.808-2.7-.07-4.889-2.408-4.889-5.222 0-2.816 2.19-4.967 4.89-4.808zm52.747 23.743c1.897-.05 3.436 1.488 3.436 3.435 0 1.946-1.539 3.616-3.436 3.73-1.898.114-3.437-1.424-3.437-3.434 0-2.01 1.54-3.681 3.437-3.73zm8.458-9.394c1.898.035 3.436 1.579 3.436 3.446 0 1.868-1.538 3.405-3.436 3.433-1.898.029-3.437-1.513-3.437-3.446 0-1.931 1.54-3.469 3.437-3.433zm-16.917-.317c1.898.035 3.436 1.706 3.436 3.731 0 2.026-1.537 3.69-3.436 3.719-1.898.028-3.437-1.641-3.437-3.732 0-2.088 1.54-3.754 3.437-3.718zm8.459-8.598c1.897.114 3.436 1.784 3.436 3.73 0 1.947-1.539 3.485-3.436 3.435-1.898-.05-3.437-1.72-3.437-3.73 0-2.012 1.54-3.548 3.437-3.435z"/><path fill="#101924" fill-rule="nonzero" d="M259.653 113.707c12.558 0 21.658-10.192 21.658-24.661 0-14.378-9.1-24.57-21.658-24.57-6.552 0-12.012 2.82-15.743 7.644V49.006h-13.286v63.609h13.286v-6.643c3.731 4.914 9.191 7.735 15.743 7.735zm-3.822-11.193c-6.461 0-11.193-4.732-11.921-11.648v-3.64c.728-6.825 5.46-11.557 11.921-11.557 7.371 0 12.558 5.55 12.558 13.377 0 7.917-5.187 13.468-12.558 13.468zm55.648 11.193c6.916 0 15.015-2.912 19.201-7.28l-8.463-8.645c-2.548 2.457-7.098 4.186-10.829 4.186-5.551 0-9.646-3.458-11.193-8.554h33.943c0-17.745-8.645-28.938-23.387-28.938-13.741 0-24.206 10.283-24.206 24.479 0 14.469 10.92 24.752 24.934 24.752zm9.919-29.848h-21.021c1.729-4.732 5.915-7.644 10.92-7.644 5.369 0 8.827 3.003 10.101 7.644zm37.903 29.848c11.557 0 19.11-5.915 19.11-15.197 0-10.283-9.009-13.013-17.108-15.106-6.37-1.73-8.281-2.457-8.281-5.005 0-1.638 2.275-2.821 5.551-2.821 4.004 0 8.918 1.547 13.195 4.186l5.369-9.464c-5.187-3.458-11.83-5.824-18.564-5.824-11.102 0-18.473 6.37-18.382 15.288.091 9.282 7.553 11.92 17.199 14.287 4.823 1.274 8.281 2.184 8.281 5.096 0 2.093-2.548 3.549-6.097 3.549-6.279 0-11.557-2.275-15.743-5.278l-5.733 9.19c5.642 4.55 13.65 7.099 21.203 7.099zm43.636 0c3.822 0 8.099-1.638 10.829-4.095l-3.185-8.645c-.91.91-2.73 1.547-4.55 1.547-2.457 0-4.459-2.184-4.459-5.278v-20.93h10.192V65.568h-10.192V52.646h-12.74v12.922h-6.461v10.738h6.461v23.023c0 8.463 5.824 14.378 14.105 14.378zm39.723 14.56c14.833 0 25.298-8.554 25.298-20.657V65.568h-13.377v6.37c-3.185-4.46-9.191-7.462-15.561-7.462-11.83 0-20.839 9.19-20.839 22.295 0 13.104 9.009 22.386 20.839 22.386 6.188 0 11.83-2.73 15.561-7.28v5.187c0 6.097-5.46 10.01-14.014 10.01-5.46 0-10.92-1.73-14.014-4.46l-4.641 9.374c4.641 3.64 12.467 6.279 20.748 6.279zm.546-30.303c-6.643 0-11.375-4.641-11.375-11.193s4.732-11.102 11.375-11.102 11.375 4.55 11.375 11.102c0 6.552-4.732 11.193-11.375 11.193zm49.915 15.743c5.096 0 10.465-2.002 13.832-5.824v4.732h12.831v-28.12c0-12.284-8.372-20.02-20.657-20.02-6.552 0-13.013 1.82-19.656 5.188l4.459 8.827c3.731-1.911 7.826-3.367 12.194-3.367 7.735 0 10.829 4.368 10.829 9.373v.91c-4.004-1.547-8.19-2.366-12.012-2.366-10.92 0-19.565 6.37-19.565 15.652 0 9.009 7.735 15.015 17.745 15.015zm3.003-9.191c-4.55 0-7.917-2.366-7.917-6.188 0-3.822 3.822-6.643 8.645-6.643 3.64 0 7.098.637 10.101 1.729v4.368c-.91 4.368-5.733 6.734-10.829 6.734zm76.487 8.19V84.223c0-5.005 3.822-8.554 9.1-8.554 4.914 0 8.372 3.822 8.372 9.282v27.755h12.74v-30.03c0-10.647-7.553-18.2-17.381-18.2-7.007 0-12.831 3.367-15.288 8.554-2.912-5.278-8.463-8.554-14.924-8.554-5.824 0-10.465 2.82-12.74 7.28v-6.188h-13.286v47.047h13.286V84.223c0-5.005 3.731-8.554 9.1-8.554 4.823 0 8.281 3.822 8.281 9.282v27.755h12.74zm62.2 1c6.916 0 15.015-2.911 19.201-7.28l-8.463-8.644c-2.548 2.457-7.098 4.186-10.829 4.186-5.551 0-9.646-3.458-11.193-8.554h33.943c0-17.745-8.645-28.938-23.387-28.938-13.741 0-24.206 10.283-24.206 24.479 0 14.469 10.92 24.752 24.934 24.752zm9.919-29.847h-21.021c1.729-4.732 5.915-7.644 10.92-7.644 5.369 0 8.827 3.003 10.101 7.644zm33.535 44.408v-22.295c3.731 4.914 9.191 7.735 15.743 7.735 12.558 0 21.658-10.192 21.658-24.661 0-14.378-9.1-24.57-21.658-24.57-6.552 0-12.012 2.82-15.743 7.644v-6.552h-13.286v62.699h13.286zm11.921-25.753c-6.461 0-11.193-4.732-11.921-11.648v-3.64c.728-6.825 5.46-11.557 11.921-11.557 7.371 0 12.558 5.55 12.558 13.377 0 7.917-5.187 13.468-12.558 13.468zm46.639 10.1V90.139c0-8.827 6.279-14.47 16.107-14.47V64.477c-7.189 0-13.013 3.73-16.107 9.828v-8.736h-13.286v47.047h13.286zm28.894-53.507c3.913 0 7.098-3.276 7.098-7.28 0-3.731-3.185-7.098-7.098-7.098-4.095 0-7.28 3.367-7.28 7.098 0 4.004 3.185 7.28 7.28 7.28zm6.552 53.508V65.568h-13.286v47.047h13.286zm33.08 1.092c7.826 0 14.196-3.185 18.837-8.281l-8.827-7.462c-2.457 2.73-6.279 4.55-9.919 4.55-7.007 0-12.831-6.188-12.831-13.56 0-7.188 5.824-13.285 12.74-13.285 3.64 0 7.371 1.729 9.737 4.368l8.827-7.553c-4.55-4.914-10.829-8.008-18.473-8.008-13.923 0-25.753 11.193-25.753 24.57s11.739 24.66 25.662 24.66zm47.64 0c6.916 0 15.015-2.912 19.201-7.28l-8.463-8.645c-2.548 2.457-7.098 4.186-10.829 4.186-5.551 0-9.646-3.458-11.193-8.554h33.943c0-17.745-8.645-28.938-23.387-28.938-13.741 0-24.206 10.283-24.206 24.479 0 14.469 10.92 24.752 24.934 24.752zm9.919-29.848h-21.021c1.729-4.732 5.915-7.644 10.92-7.644 5.369 0 8.827 3.003 10.101 7.644zm20.589 29.308c1.656 0 2.99-1.426 2.99-3.128 0-1.564-1.334-2.99-2.99-2.99-1.748 0-3.082 1.426-3.082 2.99 0 1.702 1.334 3.128 3.082 3.128zm13.134-.552v-15.41c.368-2.806 3.22-4.968 6.532-4.968 3.22 0 5.474 2.484 5.474 6.026v14.352h4.462V97.481c0-5.382-3.68-9.2-8.924-9.2-3.22 0-6.118 1.656-7.544 4.002v-3.45h-4.554v23.782h4.554zm33.19.552c3.358 0 7.498-1.426 9.614-3.68l-2.852-2.944c-1.426 1.472-4.324 2.576-6.808 2.576-4.094 0-6.992-2.852-7.59-6.808h18.722c0-8.51-4.186-14.03-11.454-14.03-6.578 0-11.868 5.244-11.868 12.374 0 7.314 5.612 12.512 12.236 12.512zm6.67-14.49h-14.26c.736-3.864 3.726-6.348 7.406-6.348 4.094 0 6.348 2.668 6.854 6.348zm16.997 14.49c1.702 0 3.45-.644 4.738-1.702l-1.656-3.128c-.506.506-1.426.874-2.438.874-1.334 0-2.438-1.196-2.438-2.852V92.697h5.612v-3.864h-5.612v-6.532h-4.462v6.532h-3.588v3.864h3.588v13.984c0 3.818 2.576 6.486 6.256 6.486z"/></g></svg>