<?xml version="1.0" encoding="UTF-8"?>
<!DOCTYPE svg  PUBLIC '-//W3C//DTD SVG 1.0//EN'  'http://www.w3.org/TR/2001/REC-SVG-20010904/DTD/svg10.dtd'>
<svg width="1024" height="672" version="1.0" viewBox="-2.58315009 -2.58315009 139.16505018 91.27130318" xmlns="http://www.w3.org/2000/svg">
<path d="m134 75.344c0 5.945-4.3612 10.761-9.745 10.761h-114.51c-5.3825 0-9.7462-4.8162-9.7462-10.761v-64.581c0-5.9412 4.3638-10.763 9.7462-10.763h114.51c5.3838 0 9.745 4.8213 9.745 10.763v64.581z" fill="#009be0"/>
<path d="m35.63 18.042c-3.4738 0-6.8838 3.4112-6.8838 6.885v9.255c0 3.4738 3.41 6.885 6.8838 6.885h16.14v-4.5138h-16.14c-2.28 0-2.3688-2.1312-2.3712-2.3738v-9.2525c0.0025-0.24 0.09125-2.3712 2.3712-2.3712h16.14v-4.5138h-16.14z" fill="#fff"/>
<path d="m35.63 45.04c-5.4438 0-6.8838 4.5025-6.8838 6.8825v0.7125h4.505l0.0075-0.71c0.0025-0.2425 0.09125-2.3762 2.3712-2.3762h9.3512c1.8825 0 2.2775 1.2925 2.2775 2.3738 0 1.5962-0.77625 2.3725-2.3725 2.3725h-9.16c-3.5875 0-6.98 3.4162-6.98 7.0288v6.7375h23.024v-4.51h-18.511v-2.2275c0.0025-0.25625 0.08875-2.5188 2.3712-2.5188h9.2562c3.5388 0 6.8838-3.345 6.8838-6.8825 0-3.6675-3.195-6.8825-6.835-6.8825h-9.305z" fill="#fff"/>
<path d="m71.628 18.042h-9.2562c-3.475 0-6.8838 3.4112-6.8838 6.885v16.14h4.5125v-6.17h13.999v6.17h4.5125v-16.14c0-3.4738-3.41-6.885-6.8838-6.885m2.3712 12.341h-13.999v-5.4562c0-1.1988 1.175-2.3712 2.3712-2.3712h9.2562c1.2412 0 2.3712 1.1312 2.3712 2.3712v5.4562z" fill="#fff"/>
<path d="m62.372 45.04c-3.4738 0-6.8838 3.3838-6.8838 6.8338v9.3525c0 3.45 3.41 6.835 6.8838 6.835h16.14v-13.766h-13.769v4.4638h9.2575v4.7925h-11.629c-2.29 0-2.4125-2.0562-2.42-2.2925v-9.3363c0.0025-0.24 0.0925-2.3738 2.3738-2.3738h16.186v-4.5088h-16.14z" fill="#fff"/>
<path d="m103.1 29.66c0.8675-0.8125 2.155-2.4 2.155-4.7338 0-3.4738-3.41-6.885-6.8838-6.885h-16.138v23.025h4.51v-9.255h11.628c2.2812 0 2.37 2.1312 2.3725 2.375v6.88h4.5112v-6.8388c0-2.355-1.2738-3.8225-2.155-4.5675m-4.8238-2.3612h-11.532v-4.7438h11.628c2.2812 0 2.37 2.1312 2.3725 2.3738-0.01 0.215-0.16625 2.37-2.4675 2.37" fill="#fff"/>
<path d="m98.369 45.04h-9.255c-3.475 0-6.8825 3.4088-6.8825 6.8825v9.255c0 3.4738 3.4075 6.8838 6.8825 6.8838h9.255c3.4738 0 6.8838-3.41 6.8838-6.8838v-9.255c0-3.4738-3.41-6.8825-6.8838-6.8825m2.3725 16.138c0 2.2825-2.1338 2.3688-2.3762 2.3738h-9.2512c-0.24-5e-3 -2.3725-0.09125-2.3725-2.3738v-9.255c0-2.28 2.1325-2.3688 2.3762-2.3738h9.2512c0.23875 5e-3 2.3725 0.09375 2.3725 2.3738v9.255z" fill="#fff"/>
</svg>