<?xml version="1.0" standalone="no"?>
<!DOCTYPE svg PUBLIC "-//W3C//DTD SVG 20010904//EN"
 "http://www.w3.org/TR/2001/REC-SVG-20010904/DTD/svg10.dtd">
<svg version="1.0" xmlns="http://www.w3.org/2000/svg"
 width="4677.000000pt" height="1056.000000pt" viewBox="0 0 4677.000000 1056.000000"
 preserveAspectRatio="xMidYMid meet">

<g transform="translate(0.000000,1056.000000) scale(0.100000,-0.100000)"
fill="#000000" stroke="none">
<path d="M5015 10553 c-374 -23 -667 -66 -1002 -148 -1225 -301 -2308 -1041
-3045 -2080 -890 -1255 -1185 -2851 -804 -4349 309 -1214 1037 -2271 2071
-3008 1246 -888 2851 -1185 4349 -804 764 195 1463 553 2081 1066 125 103 365
327 365 340 0 9 -1008 1052 -1022 1058 -5 2 -60 -45 -122 -106 -590 -566
-1371 -926 -2213 -1018 -198 -21 -588 -21 -786 0 -1094 119 -2066 688 -2704
1582 -372 521 -607 1144 -679 1801 -21 198 -21 588 0 786 119 1094 688 2066
1582 2704 442 317 966 536 1516 637 228 42 411 58 678 58 346 0 617 -33 934
-113 631 -159 1242 -499 1692 -942 51 -49 96 -88 101 -86 7 3 913 935 997
1027 l30 32 -45 46 c-75 78 -300 277 -425 376 -860 683 -1870 1069 -2974 1138
-151 9 -451 11 -575 3z"/>
<path d="M44510 5850 l0 -1860 115 0 115 0 0 775 c0 516 4 792 11 827 6 29 29
91 52 138 107 219 339 350 622 350 168 0 322 -51 427 -140 59 -51 131 -158
163 -244 53 -141 55 -178 55 -972 l0 -734 115 0 115 0 0 768 c-1 826 -2 840
-55 998 -83 250 -259 417 -511 485 -116 32 -381 33 -505 2 -188 -47 -338 -144
-444 -285 l-45 -60 0 906 0 906 -115 0 -115 0 0 -1860z"/>
<path d="M23210 5845 l0 -1855 270 0 270 0 0 177 0 177 37 -45 c272 -327 687
-453 1101 -333 396 115 695 469 768 909 24 148 15 406 -19 536 -104 397 -364
691 -712 802 -136 44 -191 52 -360 51 -129 0 -176 -4 -245 -21 -214 -54 -389
-163 -528 -328 l-42 -50 0 918 0 917 -270 0 -270 0 0 -1855z m1430 -65 c238
-80 403 -272 456 -529 20 -100 15 -270 -10 -366 -66 -248 -266 -442 -508 -490
-268 -53 -548 43 -695 237 -101 133 -143 270 -143 464 0 237 84 429 247 565
63 53 192 116 273 134 96 22 295 14 380 -15z"/>
<path d="M16125 7609 c-485 -46 -969 -289 -1267 -635 -263 -307 -405 -624
-449 -1004 -18 -157 -6 -415 25 -566 107 -510 416 -936 880 -1213 258 -153
529 -236 864 -263 176 -14 390 -1 557 33 212 43 486 151 647 254 40 26 74 49
76 50 3 3 -217 433 -237 464 -7 11 -21 5 -67 -26 -145 -99 -332 -171 -529
-205 -102 -17 -148 -19 -310 -15 -254 7 -384 37 -593 139 -549 267 -822 874
-667 1485 119 466 499 818 1006 929 120 27 476 27 599 1 182 -39 344 -104 484
-194 38 -24 72 -41 76 -36 4 4 60 110 124 235 l117 227 -48 36 c-72 53 -314
169 -438 210 -266 87 -569 120 -850 94z"/>
<path d="M33818 7609 c-826 -80 -1448 -718 -1557 -1599 -15 -119 -13 -386 4
-511 67 -510 341 -972 746 -1262 100 -72 332 -192 439 -227 566 -189 1235 -64
1690 315 183 152 345 395 418 625 52 164 64 252 69 523 l5 247 -823 -2 -824
-3 -3 -97 -3 -98 707 0 707 0 -6 -167 c-6 -207 -31 -315 -112 -479 -66 -136
-149 -248 -257 -348 -382 -356 -975 -485 -1466 -320 -515 172 -897 622 -1018
1198 -31 149 -43 427 -25 581 51 433 240 813 532 1070 194 172 418 280 684
332 140 27 454 25 602 -5 305 -61 602 -215 817 -424 49 -48 90 -87 91 -85 1 1
30 40 65 85 l62 84 -58 60 c-369 376 -914 562 -1486 507z"/>
<path d="M6895 6669 c-303 -47 -586 -196 -800 -420 -100 -105 -156 -180 -247
-337 -111 -192 -162 -240 -301 -287 -91 -30 -286 -49 -368 -35 -170 28 -323
125 -559 355 -165 161 -205 192 -315 247 -148 74 -274 102 -450 101 -198 -1
-357 -49 -522 -156 -294 -190 -459 -517 -440 -871 20 -356 220 -658 545 -821
120 -60 229 -87 380 -92 159 -7 250 6 381 53 154 55 235 110 410 280 233 225
373 320 531 360 125 32 377 0 491 -62 75 -41 147 -125 222 -259 89 -159 150
-240 271 -360 196 -195 426 -320 689 -377 135 -29 407 -31 539 -5 428 86 771
350 1004 771 123 224 259 297 559 300 125 1 133 0 211 -32 134 -54 251 -139
430 -313 214 -208 323 -279 516 -331 72 -20 106 -23 258 -22 161 0 182 2 263
27 281 86 496 272 618 531 66 141 84 228 84 406 0 130 -4 169 -23 240 -29 107
-106 266 -170 350 -276 364 -772 487 -1188 296 -115 -54 -189 -110 -355 -271
-287 -279 -456 -365 -684 -350 -292 19 -398 84 -539 333 -93 162 -176 271
-292 381 -193 183 -399 293 -654 353 -98 22 -395 33 -495 17z"/>
<path d="M18766 6260 c-233 -37 -442 -145 -604 -314 -232 -242 -334 -535 -319
-915 11 -262 76 -460 218 -661 222 -315 603 -486 985 -441 267 31 482 147 667
361 l47 55 0 -178 0 -177 265 0 265 0 0 1105 0 1105 -265 0 -265 0 -2 -165 -3
-166 -56 69 c-122 149 -316 261 -533 308 -85 19 -318 27 -400 14z m479 -465
c84 -18 212 -79 278 -134 100 -83 168 -184 213 -316 22 -66 28 -103 32 -211 6
-164 -11 -251 -75 -384 -38 -79 -60 -109 -128 -177 -99 -99 -201 -154 -335
-179 -347 -66 -674 114 -785 433 -49 141 -57 335 -20 478 64 240 252 428 487
486 90 22 238 24 333 4z"/>
<path d="M22189 6256 c-184 -39 -355 -150 -473 -307 l-46 -61 0 156 0 156
-270 0 -270 0 0 -1105 0 -1105 270 0 269 0 3 713 3 713 39 78 c64 130 189 237
334 286 129 43 326 20 468 -53 l30 -16 107 222 c59 122 107 226 107 230 0 13
-99 53 -190 76 -109 28 -288 36 -381 17z"/>
<path d="M27260 6264 c-295 -38 -548 -149 -749 -330 -119 -107 -250 -310 -299
-464 -87 -270 -70 -612 42 -855 162 -350 493 -595 906 -671 130 -24 400 -24
530 -1 408 75 735 314 900 659 123 256 138 630 37 899 -59 158 -146 291 -266
409 -173 170 -377 277 -633 331 -91 20 -382 34 -468 23z m313 -468 c269 -52
479 -250 543 -511 24 -95 24 -287 1 -375 -40 -150 -124 -284 -231 -370 -138
-109 -270 -153 -461 -154 -215 0 -361 59 -505 204 -146 145 -201 284 -201 505
0 184 36 299 137 442 147 207 438 312 717 259z"/>
<path d="M30450 6259 c-98 -15 -251 -71 -342 -125 -45 -27 -115 -81 -155 -119
l-73 -70 0 127 0 128 -270 0 -270 0 0 -1105 0 -1105 270 0 270 0 0 728 0 727
23 65 c61 172 195 286 379 324 259 53 487 -44 585 -249 62 -132 63 -137 63
-902 l0 -693 271 0 270 0 -3 783 -4 782 -27 99 c-83 305 -286 513 -572 587
-93 24 -312 34 -415 18z"/>
<path d="M37200 6256 c-189 -40 -332 -139 -441 -305 l-49 -74 0 162 0 161
-115 0 -115 0 0 -1105 0 -1105 115 0 114 0 3 813 3 814 44 89 c81 165 258 308
432 349 113 26 292 13 393 -29 l37 -15 47 95 c55 111 59 103 -73 135 -113 27
-302 34 -395 15z"/>
<path d="M39096 6259 c-397 -58 -738 -349 -869 -741 -78 -233 -86 -512 -22
-764 92 -363 369 -667 708 -778 91 -30 257 -56 353 -56 362 0 691 180 892 488
l57 87 3 -252 2 -253 110 0 110 0 0 1105 0 1105 -110 0 -110 0 -2 -252 -3
-253 -24 45 c-121 228 -334 401 -589 480 -146 45 -354 61 -506 39z m434 -214
c343 -79 599 -349 676 -715 24 -111 24 -363 1 -465 -44 -195 -132 -362 -256
-485 -123 -122 -264 -202 -423 -237 -110 -25 -328 -22 -441 5 -457 112 -741
551 -688 1063 26 248 117 447 276 605 126 125 311 217 490 244 86 13 277 5
365 -15z"/>
<path d="M42395 6255 c-303 -57 -567 -237 -712 -485 l-38 -64 -3 247 -2 247
-115 0 -115 0 0 -1665 0 -1665 115 0 115 0 1 813 c0 632 3 808 12 794 90 -140
121 -181 186 -246 224 -227 538 -337 863 -303 150 16 241 42 373 107 320 158
536 455 600 825 22 123 22 354 0 475 -43 242 -152 453 -319 621 -154 154 -319
244 -530 290 -102 23 -332 27 -431 9z m390 -214 c354 -91 609 -386 665 -770
18 -118 8 -354 -18 -452 -124 -467 -527 -745 -998 -689 -231 28 -396 109 -549
272 -130 137 -205 293 -241 498 -22 126 -15 360 15 472 98 373 365 625 726
684 109 18 297 11 400 -15z"/>
</g>
</svg>
