<svg viewBox="0 0 1224 286" fill="none" xmlns="http://www.w3.org/2000/svg" width="1224" height="286">
    <g clip-path="url(#clip0)">
        <path fill-rule="evenodd" clip-rule="evenodd" d="M123.2 58.4h50.7a29 29 0 0129 29v101.4a28.998 28.998 0 01-29 29h-7.2V276L45.6 203.3h63.2a14.51 14.51 0 0014.5-14.5V58.4h-.1z" fill="#007171" />
        <path d="M15 50.95l79.7-46.1a28 28 0 0142 24.2v159.8a28 28 0 01-28 28H29a28 28 0 01-28-28V75.2a28.34 28.34 0 0114-24.25v0z" fill="#FFBE3C" stroke="#FFBE3C" stroke-width="2" />
        <path d="M166.7 58.4h-29v130.4a28.998 28.998 0 01-29 29H68.9l14.5 7.2h39.8a43.53 43.53 0 0043.5-43.5V58.4z" fill="#005454" />
        <path fill-rule="evenodd" clip-rule="evenodd" d="M347.7 169.1c12.2 0 22.6-6.1 28-16.2l2-4 22.9 13.4-1.9 3.6c-9.8 18.4-29.4 29.7-51 29.7-33.9 0-59.5-25.8-59.5-59.9 0-34.1 25.6-59.9 59.5-59.9 22.1 0 41.4 11.5 50.3 30.1l1.7 3.6-22.7 13.2-2-4.2c-4.6-9.9-15-16.2-27.3-16.2-18.7 0-32.7 14.3-32.7 33.4 0 19.1 14 33.4 32.7 33.4zM585.1 75.95c14.1 0 26.2 4.6 35.5 13.5v-10.7h26.8v114.3h-26.8v-10.7c-9.3 8.9-21.4 13.5-35.5 13.5-31.7 0-57.4-27-57.4-59.9s25.7-60 57.4-60zm2.3 93.6c-18.8 0-33-14.4-33-33.6 0-19.2 14.2-33.6 33-33.6s33.2 14.4 33.2 33.6c0 19.2-14.3 33.55-33.2 33.55v.05zM844.9 75.95c14.1 0 26.2 4.6 35.5 13.5v-10.7h26.8v114.3h-26.8v-10.7c-9.3 8.9-21.4 13.5-35.5 13.5-31.7 0-57.4-27-57.4-59.9s25.7-60 57.4-60zm2.3 93.6c-18.8 0-33-14.4-33-33.6 0-19.2 14.2-33.6 33-33.6s33.2 14.4 33.2 33.6c0 19.2-14.3 33.55-33.2 33.55v.05zM1009.2 80.3l-27 74.1-32.6-75.8h-28.8l47.6 109.6-1.2 2.5v.1c-2.8 7-6.1 11.9-10.1 15a19.677 19.677 0 01-14 3.9l-4.6-.3v25.7l3.9.3c1.2.1 2.3.1 3.3.1 21.3 0 38.4-14.2 47.5-38.6l45.1-118.2H1009v1.6h.2zM1094.3 169.95c11.7 0 21.6-5.1 26.6-13.4l2.1-3.5 23 13.1-2.5 3.7c-10.7 16.7-28.5 25.9-49.8 25.9-17.7 0-32.9-6.1-43.6-16.8-10.7-10.7-16.9-25.6-16.9-43.2 0-34.6 25-59.9 59.3-59.9 32.3 0 56.6 26 56.7 60.1.02 2.981-.21 5.959-.7 8.9l-.6 3.6h-86.2a29.276 29.276 0 0010.8 15c5.7 4.25 13.1 6.5 21.8 6.5zm-1.7-68.1a30.055 30.055 0 0117.7 5.5c4.8 3.5 8.8 8.8 11 16.7h-59.7c4-13.85 15.4-22.25 31-22.25v.05zM1217.5 76.8c-11.7 0-21.4 3.5-28.5 10.4v-8.6h-26.8V193h26.8v-60.3c0-9.5 2.6-16.5 7.5-21.3 4.8-4.7 12.2-7.2 20.9-6.9l4.4.2V76.8h-4.3zM707.3 105h28V78.7h-28V51.4L680.5 67v11.8h-20.8V105h20.8v53.1c0 12.6 3.2 22 10.1 28 6.2 5.4 14.8 7.9 26.4 7.9 4.885-.051 9.762-.419 14.6-1.1l3.7-.5v-24.7l-6.5.3c-5.1.2-9.4.4-12.8.2-3.4-.2-5.5-.9-6.6-2-1.2-1.2-2.1-3.5-2.1-8.2v-53zm24 86a108.798 108.798 0 01-14.3 1.1c-8.5 0-15.1-1.4-20.3-4.2 5.2 2.8 11.9 4.2 20.3 4.2 4.786-.056 9.562-.423 14.3-1.1zM751.4 45.4V193h26.8V30h-.1l-26.7 15.4zM413.8 51.95v141.2h26.8v-60.4c0-13.8 4.3-21.3 9.4-25.4 5.1-4.1 11.8-5.2 16.8-5.2 7.2 0 12.6 2.1 16.2 5.9 3.6 3.8 5.7 9.4 5.7 17v68.2h26.8v-69.3c0-14.3-4.4-26.3-12.3-34.7-7.9-8.4-19.2-13.1-32.7-13.1-12 0-22 3.5-29.8 10.5v-50l-26.9 15.3z" fill="#007171" />
        <path fill-rule="evenodd" clip-rule="evenodd" d="M1112.86 247.33v26.12h7.81v-30.5l-7.81 4.38zm106.13-.21a14.526 14.526 0 00-4.82-3.181 14.419 14.419 0 00-5.68-1.039c-2.55 0-5.49.95-6.93 2.34v-15l-7.82 4.42v38.79h7.87v-15.5a8.156 8.156 0 011.93-5.49 7.229 7.229 0 019.9 0 7.917 7.917 0 012 5.49v15.5h7.87v-16.08c.03-1.915-.34-3.815-1.08-5.58a13.921 13.921 0 00-3.24-4.67zm-71.26 26.33h7.86v-16.08a13.774 13.774 0 00-4.3-10.25 15.2 15.2 0 00-10.5-4.213 15.2 15.2 0 00-10.5 4.213 13.741 13.741 0 00-3.2 4.678 13.65 13.65 0 00-1.04 5.572v16.08h7.86v-15.5a8.162 8.162 0 011.94-5.49 7.229 7.229 0 019.9 0 7.917 7.917 0 012 5.49l-.02 15.5zm16.69-3.68a16.315 16.315 0 0013.34 4.388c2.4-.307 4.71-1.149 6.76-2.464a16.338 16.338 0 005.04-5.134l-6.79-3.81a7.466 7.466 0 01-2.93 2.982 7.483 7.483 0 01-4.07.948 7.752 7.752 0 01-3.15-.524 7.77 7.77 0 01-4.43-4.415 7.72 7.72 0 01-.54-3.151 7.743 7.743 0 01.54-3.156 7.826 7.826 0 014.43-4.438 7.82 7.82 0 013.15-.546c1.41-.05 2.81.299 4.03 1.007a7.507 7.507 0 012.87 2.993l6.73-3.86a15.11 15.11 0 00-5.72-5.716 15.16 15.16 0 00-7.85-1.954 15.623 15.623 0 00-11.45 4.52 15.987 15.987 0 00-4.55 11.175c0 4.176 1.63 8.186 4.55 11.175l.04-.02zm-69 4.52c-3.11.125-6.21-.535-9-1.92a12.72 12.72 0 01-4.72-4.49l7-3.95c1.33 2.707 3.67 4.063 7 4.07 1.29.08 2.57-.272 3.63-1 .38-.258.69-.603.9-1.004.22-.402.34-.849.35-1.306a1.72 1.72 0 00-.14-.742 1.74 1.74 0 00-.43-.618 4.667 4.667 0 00-1.56-.89c-.75-.264-1.52-.477-2.3-.64-.87-.19-1.8-.37-2.78-.56-1.28-.26-2.3-.57-3.61-.94a12.19 12.19 0 01-3.38-1.56 8.072 8.072 0 01-2.52-2.53 7.232 7.232 0 01-1-3.93c0-1.259.31-2.498.9-3.61a9.277 9.277 0 012.56-3 12.066 12.066 0 013.8-2c1.57-.52 3.21-.774 4.86-.75 2.75-.117 5.48.468 7.94 1.7a15.52 15.52 0 014.57 3.85l-6.5 3.69a6.947 6.947 0 00-2.41-2.34 7.094 7.094 0 00-3.6-.84 4.937 4.937 0 00-3.16.81c-.34.228-.62.539-.82.904-.19.366-.29.773-.28 1.186 0 1 .6 1.64 1.81 2 1.61.52 3.24.958 4.89 1.31a52 52 0 013.88.94c1.26.349 2.47.885 3.57 1.59a8.528 8.528 0 012.64 2.64 7.38 7.38 0 011 4 8.601 8.601 0 01-.79 3.53 9.184 9.184 0 01-2.44 3.18 13.235 13.235 0 01-4.11 2.31c-1.85.627-3.8.935-5.76.91h.01z" fill="#1E232D" />
        <path d="M1038.39 257.95c0 9.11-7 16.19-15.58 16.19a13.322 13.322 0 01-11.63-6.09v5.29h-5.36v-43.1h5.36v17.61a13.302 13.302 0 0111.63-6.1c8.56-.01 15.58 7.08 15.58 16.2zm-5.35 0c-.01-2.16-.67-4.267-1.88-6.056a10.918 10.918 0 00-11.24-4.583 10.926 10.926 0 00-5.57 3.016 10.904 10.904 0 00-2.32 11.913 10.905 10.905 0 004.04 4.887 10.914 10.914 0 006.07 1.823 10.753 10.753 0 007.79-3.182 10.643 10.643 0 002.35-3.592c.54-1.343.79-2.781.76-4.226zM1070.78 242.54l-12.56 32.7c-2.59 6.9-7.39 10.84-13.67 10.41v-5c4.12.31 6.71-2.22 8.31-6.28l.56-1.17-13.43-30.67h5.73l10.47 24.14 8.86-24.14 5.73.01z" fill="#007171" />
    </g>
    <defs>
        <clipPath id="clip0">
            <path fill="#fff" d="M0 0h1223.3v285.68H0z" />
        </clipPath>
    </defs>
</svg>