<svg enable-background="new 0 0 212.599 92.72" height="92.72" viewBox="0 0 212.599 92.72" width="212.599" xmlns="http://www.w3.org/2000/svg"><g fill="#e27866"><path d="m8.538 82.317h1.146v8.183h-1.146v-3.778h-4.002v3.778h-1.146v-8.183h1.146v3.412h4.002z"/><path d="m11.224 91.646c.087.04.199.077.338.112.137.037.273.053.407.053.433 0 .772-.097 1.016-.29.244-.192.464-.505.662-.938-.497-.945-.958-1.946-1.388-3.005-.429-1.06-.785-2.132-1.069-3.218h1.181c.087.354.192.736.313 1.146.122.409.257.83.407 1.263s.311.866.484 1.3c.173.433.355.85.543 1.251.299-.827.559-1.645.78-2.457.22-.81.429-1.645.625-2.502h1.134c-.283 1.157-.598 2.269-.945 3.335-.346 1.067-.72 2.064-1.122 2.994-.157.354-.321.66-.49.916-.169.255-.356.466-.562.631-.204.166-.435.288-.69.366-.256.079-.545.119-.869.119-.086 0-.177-.006-.271-.018s-.187-.028-.276-.047c-.091-.02-.173-.042-.25-.066-.074-.022-.128-.042-.159-.058z"/><path d="m21.84 89.887c-.095.062-.278.144-.549.242-.272.099-.589.148-.952.148-.369 0-.718-.06-1.044-.177-.328-.119-.613-.302-.857-.55-.243-.248-.437-.556-.578-.926-.142-.37-.213-.811-.213-1.323 0-.448.067-.859.201-1.233s.329-.697.584-.969c.256-.271.568-.484.939-.638.369-.153.787-.229 1.251-.229.512 0 .958.037 1.34.111.382.076.703.144.963.207v5.479c0 .946-.244 1.63-.732 2.055s-1.228.638-2.22.638c-.386 0-.75-.031-1.092-.095-.343-.062-.64-.137-.892-.223l.201-.957c.22.087.49.164.809.229.319.068.651.101.998.101.653 0 1.123-.13 1.411-.39.287-.26.431-.672.431-1.24v-.26zm-.011-4.558c-.111-.032-.258-.062-.444-.089-.184-.028-.435-.041-.749-.041-.591 0-1.045.193-1.364.578s-.478.898-.478 1.535c0 .355.045.658.135.91.091.251.213.46.367.625.153.166.331.288.53.366.202.078.408.118.62.118.291 0 .559-.041.803-.124s.437-.179.579-.289v-3.589z"/><path d="m25.599 83.25c-.197 0-.364-.065-.501-.195s-.207-.305-.207-.526c0-.22.069-.395.207-.525s.305-.194.501-.194.364.064.502.194.207.306.207.525c0 .221-.069.396-.207.526s-.306.195-.502.195zm.555 7.25h-1.099v-6.14h1.099z"/><path d="m27.94 87.442c0-.543.079-1.018.236-1.422.157-.406.366-.743.626-1.01.26-.268.559-.468.897-.603.338-.134.685-.201 1.039-.201.827 0 1.46.259 1.901.774.441.516.662 1.301.662 2.355v.183c0 .075-.005.144-.012.206h-4.204c.047.639.232 1.123.555 1.453.323.331.827.497 1.512.497.386 0 .71-.034.974-.101s.462-.131.597-.195l.154.921c-.134.071-.368.147-.703.225s-.715.118-1.14.118c-.536 0-.998-.081-1.388-.242-.39-.162-.71-.384-.962-.668-.252-.283-.439-.62-.562-1.009-.121-.39-.182-.817-.182-1.281zm4.216-.603c.007-.496-.116-.903-.372-1.222-.256-.318-.609-.478-1.058-.478-.251 0-.474.049-.666.148-.193.097-.357.226-.49.384-.134.157-.238.337-.313.542-.074.205-.124.414-.147.625h3.046z"/><path d="m35.11 84.537c.252-.063.587-.13 1.004-.201s.897-.105 1.441-.105c.488 0 .893.068 1.217.206.322.138.58.331.773.579.194.248.328.544.408.891.078.347.118.729.118 1.146v3.447h-1.098v-3.212c0-.377-.026-.7-.077-.967-.052-.268-.136-.485-.254-.649-.118-.166-.276-.287-.473-.361-.198-.075-.441-.112-.732-.112-.119 0-.24.004-.366.011-.126.008-.246.018-.36.03-.114.011-.217.025-.307.041s-.156.028-.194.036v5.183h-1.1z"/><path d="m41.804 87.442c0-.543.078-1.018.236-1.422.157-.406.366-.743.625-1.01.26-.268.559-.468.897-.603.339-.134.686-.201 1.039-.201.827 0 1.461.259 1.902.774.441.516.661 1.301.661 2.355v.183c0 .075-.004.144-.011.206h-4.203c.046.639.231 1.123.555 1.453.322.331.826.497 1.512.497.385 0 .71-.034.974-.101.263-.067.462-.131.597-.195l.153.921c-.135.071-.368.147-.703.225s-.715.118-1.14.118c-.535 0-.997-.081-1.388-.242-.389-.162-.71-.384-.962-.668-.252-.283-.439-.62-.561-1.009-.122-.39-.183-.817-.183-1.281zm4.216-.603c.007-.496-.117-.903-.373-1.222-.256-.318-.609-.478-1.057-.478-.251 0-.474.049-.667.148-.192.097-.357.226-.49.384-.134.157-.238.337-.312.542-.075.205-.125.414-.147.625h3.046z"/><path d="m53.448 89.686c1.196 0 1.794-.409 1.794-1.228 0-.252-.052-.467-.159-.645s-.25-.331-.432-.46c-.181-.13-.388-.241-.62-.336-.231-.095-.478-.189-.738-.284-.299-.102-.582-.218-.85-.348-.269-.13-.501-.283-.697-.46-.197-.177-.353-.387-.467-.632-.114-.243-.171-.539-.171-.885 0-.717.244-1.275.732-1.677.487-.401 1.161-.603 2.019-.603.496 0 .947.053 1.353.161.405.105.703.222.891.348l-.365.932c-.165-.102-.412-.203-.738-.301-.327-.099-.707-.148-1.14-.148-.221 0-.425.024-.614.072-.188.047-.354.118-.495.212-.142.095-.254.215-.338.361-.082.145-.124.317-.124.513 0 .221.043.406.13.555.086.15.209.282.366.396s.34.219.549.313c.208.095.438.188.691.283.354.142.68.285.974.426.295.142.55.311.768.508.217.197.384.431.502.703.118.271.178.6.178.985 0 .716-.262 1.268-.786 1.654-.524.385-1.262.578-2.214.578-.323 0-.62-.022-.893-.065-.271-.043-.513-.095-.726-.154s-.396-.122-.549-.188c-.154-.067-.273-.125-.36-.171l.343-.946c.181.103.457.217.826.343.371.125.824.188 1.36.188z"/><path d="m57.813 87.442c0-.543.078-1.018.236-1.422.157-.406.366-.743.625-1.01s.559-.468.898-.603c.338-.134.685-.201 1.039-.201.827 0 1.46.259 1.901.774.441.516.662 1.301.662 2.355v.183c0 .075-.005.144-.012.206h-4.204c.047.639.231 1.123.555 1.453.322.331.826.497 1.512.497.385 0 .71-.034.974-.101s.462-.131.597-.195l.153.921c-.134.071-.368.147-.702.225-.335.078-.715.118-1.14.118-.535 0-.998-.081-1.388-.242-.389-.162-.71-.384-.962-.668-.252-.283-.439-.62-.561-1.009-.122-.39-.183-.817-.183-1.281zm4.216-.603c.007-.496-.116-.903-.372-1.222-.257-.318-.608-.478-1.058-.478-.251 0-.474.049-.667.148-.192.097-.357.226-.489.384-.135.157-.239.337-.313.542-.075.205-.124.414-.148.625h3.047z"/><path d="m67.251 84.23c.094 0 .203.005.324.018.122.011.243.027.36.047.118.02.227.04.324.059.098.021.171.037.219.053l-.189.957c-.086-.031-.229-.069-.431-.113s-.458-.064-.774-.064c-.205 0-.407.021-.608.064s-.333.074-.395.089v5.16h-1.099v-5.88c.26-.095.582-.183.969-.266s.82-.124 1.3-.124z"/><path d="m75.007 84.36c-.308 1.149-.668 2.251-1.081 3.307-.414 1.055-.813 2-1.199 2.833h-.992c-.386-.833-.785-1.778-1.198-2.833-.414-1.056-.773-2.158-1.08-3.307h1.18c.094.385.207.797.337 1.234.13.436.268.869.413 1.299.146.429.293.843.442 1.245.15.402.292.759.425 1.075.134-.315.275-.672.426-1.075.149-.402.297-.816.442-1.245.146-.43.284-.863.414-1.299.13-.437.242-.849.336-1.234z"/><path d="m76.975 83.25c-.197 0-.364-.065-.502-.195s-.207-.305-.207-.526c0-.22.068-.395.207-.525.138-.13.305-.194.502-.194.196 0 .364.064.502.194s.206.306.206.525c0 .221-.068.396-.206.526-.139.13-.306.195-.502.195zm.555 7.25h-1.099v-6.14h1.099z"/><path d="m82.321 90.642c-.496 0-.931-.079-1.305-.235-.374-.158-.689-.379-.945-.662-.255-.284-.446-.62-.572-1.009-.126-.391-.188-.821-.188-1.293s.068-.905.206-1.299.333-.734.585-1.022c.251-.287.561-.512.926-.672.367-.161.774-.243 1.222-.243.276 0 .551.024.828.071.275.048.539.123.791.225l-.247.932c-.167-.078-.356-.142-.574-.188-.216-.047-.446-.071-.69-.071-.614 0-1.084.194-1.412.579-.326.385-.49.949-.49 1.688 0 .331.038.634.113.91.074.275.192.512.354.708.161.197.368.348.619.454.252.107.56.16.921.16.291 0 .555-.028.791-.083.237-.054.421-.114.556-.177l.154.921c-.063.04-.154.077-.272.113s-.251.066-.401.094c-.149.027-.309.051-.478.071-.171.017-.334.028-.492.028z"/><path d="m84.983 87.442c0-.543.078-1.018.236-1.422.157-.406.366-.743.626-1.01.259-.268.559-.468.898-.603.338-.134.685-.201 1.039-.201.827 0 1.46.259 1.901.774.441.516.662 1.301.662 2.355v.183c0 .075-.004.144-.012.206h-4.204c.047.639.231 1.123.555 1.453.322.331.826.497 1.512.497.385 0 .71-.034.974-.101s.462-.131.597-.195l.153.921c-.135.071-.368.147-.703.225s-.715.118-1.14.118c-.535 0-.997-.081-1.388-.242-.389-.162-.71-.384-.962-.668-.252-.283-.439-.62-.561-1.009-.122-.39-.183-.817-.183-1.281zm4.216-.603c.007-.496-.116-.903-.372-1.222-.257-.318-.609-.478-1.058-.478-.251 0-.474.049-.667.148-.193.097-.357.226-.49.384-.135.157-.239.337-.313.542-.075.205-.124.414-.147.625h3.047z"/><path d="m93.58 89.709c.448 0 .78-.059.997-.176.217-.119.325-.307.325-.567 0-.268-.106-.48-.319-.638s-.563-.335-1.051-.532c-.236-.095-.463-.191-.679-.29-.217-.098-.404-.214-.562-.348-.158-.133-.284-.295-.378-.483-.094-.189-.141-.421-.141-.697 0-.543.201-.974.602-1.293.402-.318.948-.478 1.641-.478.173 0 .347.01.52.03s.334.043.484.071c.148.027.281.057.396.088.113.031.202.06.266.083l-.202.944c-.118-.062-.303-.127-.555-.194s-.555-.101-.91-.101c-.307 0-.575.061-.803.184-.228.122-.343.313-.343.573 0 .134.027.251.078.354.051.102.13.194.236.277s.238.16.396.23c.156.071.346.146.566.225.291.109.551.218.779.324.229.106.423.23.585.373.161.141.285.312.372.513.086.2.13.447.13.738 0 .567-.211.996-.631 1.287-.423.292-1.022.437-1.801.437-.543 0-.969-.045-1.276-.136-.306-.09-.516-.159-.625-.207l.2-.944c.126.048.328.118.603.212.277.095.644.141 1.1.141z"/></g><path d="m10.431 75.756c-1.557 0-2.976-.255-4.255-.768-1.28-.512-2.379-1.258-3.295-2.24-.917-.98-1.627-2.191-2.128-3.632-.502-1.438-.753-3.086-.753-4.942s.283-3.503.848-4.943 1.328-2.65 2.288-3.632c.96-.98 2.08-1.727 3.36-2.239s2.645-.769 4.095-.769c.917 0 1.743.064 2.479.192s1.375.278 1.92.448c.543.171.986.341 1.328.512.341.171.576.299.704.384l-.896 2.559c-.192-.127-.47-.266-.832-.416-.363-.149-.773-.299-1.232-.448-.458-.149-.959-.271-1.504-.368-.543-.096-1.093-.144-1.647-.144-1.174 0-2.229.203-3.168.608-.938.405-1.738.992-2.4 1.76-.661.768-1.167 1.7-1.52 2.799-.352 1.098-.527 2.33-.527 3.695 0 1.322.154 2.528.463 3.615.309 1.088.773 2.021 1.392 2.8s1.392 1.381 2.32 1.808 2.01.639 3.248.639c1.429 0 2.612-.148 3.551-.447.938-.298 1.643-.565 2.112-.8l.8 2.559c-.149.107-.416.24-.8.4-.384.161-.864.315-1.44.464-.576.148-1.248.277-2.016.384-.768.109-1.6.162-2.495.162z" fill="#666"/><path d="m18.912 75.276v-24.316l2.976-.512v8.51c.554-.213 1.146-.379 1.775-.496s1.253-.176 1.872-.176c1.322 0 2.42.186 3.295.56.875.373 1.573.896 2.096 1.567.521.672.89 1.477 1.104 2.416.213.939.319 1.973.319 3.104v9.343h-2.976v-8.703c0-1.024-.069-1.898-.208-2.624-.139-.725-.368-1.312-.688-1.759-.32-.448-.747-.773-1.28-.977-.534-.203-1.195-.304-1.983-.304-.32 0-.652.022-.993.065-.341.042-.667.091-.976.143-.31.054-.587.112-.832.177-.245.064-.421.117-.527.16v13.822z" fill="#666"/><path d="m34.625 66.99c0-1.472.212-2.757.639-3.855s.992-2.01 1.696-2.736c.704-.725 1.514-1.269 2.432-1.631.917-.363 1.856-.544 2.815-.544 2.24 0 3.957.699 5.152 2.095 1.194 1.397 1.792 3.525 1.792 6.384v.496c0 .203-.011.39-.032.56h-11.39c.127 1.728.629 3.04 1.504 3.936.874.896 2.239 1.343 4.095 1.343 1.045 0 1.925-.09 2.64-.271.714-.181 1.252-.357 1.615-.528l.416 2.496c-.363.193-.997.395-1.904.608-.906.213-1.935.32-3.087.32-1.451 0-2.704-.219-3.759-.656-1.056-.437-1.925-1.04-2.607-1.808-.683-.769-1.189-1.68-1.52-2.736-.332-1.057-.497-2.214-.497-3.473zm11.422-1.632c.021-1.344-.315-2.448-1.008-3.312-.693-.863-1.648-1.296-2.864-1.296-.683 0-1.285.133-1.808.4-.522.267-.965.614-1.327 1.041-.363.426-.646.917-.848 1.471-.203.555-.336 1.12-.4 1.696z" fill="#666"/><path d="m55.53 73.132c1.216 0 2.117-.16 2.704-.48.586-.32.88-.832.88-1.535 0-.726-.288-1.301-.864-1.728-.577-.427-1.525-.906-2.848-1.44-.641-.255-1.253-.517-1.84-.784-.586-.267-1.093-.581-1.519-.944-.427-.362-.769-.8-1.024-1.312-.256-.511-.384-1.14-.384-1.888 0-1.471.543-2.639 1.631-3.503 1.088-.863 2.57-1.295 4.447-1.295.469 0 .938.027 1.408.08.469.054.907.118 1.312.192.405.075.762.156 1.072.24.309.085.549.16.72.224l-.544 2.56c-.319-.17-.821-.346-1.504-.527-.683-.182-1.504-.273-2.463-.273-.832 0-1.557.166-2.175.496-.619.332-.928.848-.928 1.552 0 .363.069.683.208.959.139.277.352.528.641.752.288.225.644.432 1.071.625.427.192.938.394 1.536.607.789.299 1.492.593 2.111.88.619.288 1.146.624 1.584 1.008.437.384.772.848 1.008 1.392.234.543.352 1.21.352 2 0 1.535-.571 2.699-1.712 3.487-1.141.789-2.767 1.184-4.879 1.184-1.472 0-2.624-.123-3.456-.368s-1.397-.432-1.696-.561l.544-2.559c.341.128.885.32 1.632.576.746.256 1.737.383 2.975.383z" fill="#666"/><path d="m64.226 75.276v-24.316l2.976-.512v8.51c.554-.213 1.146-.379 1.775-.496s1.253-.176 1.872-.176c1.322 0 2.42.186 3.295.56.875.373 1.573.896 2.096 1.567.521.672.89 1.477 1.104 2.416.213.939.319 1.973.319 3.104v9.343h-2.976v-8.703c0-1.024-.069-1.898-.208-2.624-.139-.725-.368-1.312-.688-1.759-.32-.448-.747-.773-1.28-.977-.534-.203-1.195-.304-1.983-.304-.32 0-.651.022-.993.065-.341.042-.667.091-.976.143-.31.054-.587.112-.832.177-.245.064-.421.117-.527.16v13.822z" fill="#666"/><path d="m82.242 55.631c-.534 0-.987-.176-1.36-.528-.374-.352-.56-.827-.56-1.423 0-.598.186-1.072.56-1.424.373-.353.826-.528 1.36-.528.533 0 .986.176 1.36.528.373.352.56.826.56 1.424 0 .597-.187 1.072-.56 1.423-.373.353-.827.528-1.36.528zm1.504 19.645h-2.976v-16.637h2.976z" fill="#666"/><path d="m93.245 58.288c.256 0 .549.015.88.047s.656.075.977.128c.319.053.613.106.879.16s.464.102.592.144l-.512 2.592c-.235-.085-.624-.187-1.167-.304-.544-.117-1.244-.176-2.096-.176-.556 0-1.104.059-1.648.176-.544.118-.901.198-1.071.24v13.981h-2.976v-15.933c.704-.255 1.579-.496 2.624-.72s2.217-.335 3.518-.335z" fill="#666"/><path d="m96.617 66.99c0-1.472.213-2.757.64-3.855.426-1.098.992-2.01 1.695-2.736.704-.725 1.514-1.269 2.432-1.631.917-.363 1.856-.544 2.815-.544 2.24 0 3.957.699 5.151 2.095 1.195 1.397 1.792 3.525 1.792 6.384v.496c0 .203-.011.39-.032.56h-11.39c.127 1.728.629 3.04 1.504 3.936.874.896 2.239 1.343 4.095 1.343 1.045 0 1.924-.09 2.64-.271.714-.181 1.252-.357 1.615-.528l.416 2.496c-.363.193-.998.395-1.904.608s-1.935.32-3.087.32c-1.451 0-2.704-.219-3.759-.656-1.057-.437-1.926-1.04-2.608-1.808-.683-.769-1.189-1.68-1.52-2.736-.33-1.057-.495-2.214-.495-3.473zm11.423-1.632c.02-1.344-.316-2.448-1.009-3.312-.693-.863-1.648-1.296-2.864-1.296-.683 0-1.285.133-1.808.4-.522.267-.965.614-1.327 1.041-.363.426-.646.917-.849 1.471-.203.555-.336 1.12-.4 1.696z" fill="#666"/><path d="m129.347 75.756c-1.557 0-2.975-.255-4.255-.768-1.279-.512-2.378-1.258-3.296-2.24-.917-.98-1.627-2.191-2.127-3.632-.502-1.439-.752-3.087-.752-4.942 0-1.856.282-3.503.848-4.943.564-1.44 1.328-2.65 2.287-3.632.961-.98 2.08-1.727 3.36-2.239 1.279-.512 2.645-.769 4.095-.769.917 0 1.744.064 2.48.192.735.128 1.375.278 1.919.448.544.171.986.341 1.328.512.341.171.575.299.704.384l-.896 2.559c-.192-.127-.47-.266-.832-.416-.362-.149-.773-.299-1.231-.448-.459-.149-.96-.271-1.504-.368-.544-.096-1.093-.144-1.647-.144-1.174 0-2.229.203-3.168.608-.938.405-1.738.992-2.399 1.76s-1.167 1.7-1.521 2.799c-.352 1.098-.527 2.33-.527 3.695 0 1.322.154 2.528.465 3.615.309 1.088.772 2.021 1.391 2.8s1.393 1.381 2.32 1.808 2.01.639 3.248.639c1.428 0 2.612-.148 3.551-.447.938-.298 1.643-.565 2.111-.8l.801 2.559c-.15.107-.417.24-.801.4-.384.161-.863.315-1.439.464-.576.148-1.248.277-2.016.384-.769.109-1.601.162-2.497.162z" fill="#666"/><path d="m152.159 66.958c0 1.323-.192 2.518-.576 3.583-.385 1.066-.923 1.983-1.616 2.752-.693.768-1.52 1.359-2.479 1.775-.961.416-2.006.624-3.136.624-1.132 0-2.176-.208-3.136-.624s-1.787-1.008-2.479-1.775c-.693-.769-1.232-1.686-1.616-2.752s-.575-2.26-.575-3.583c0-1.3.191-2.49.575-3.567s.923-2 1.616-2.768c.692-.768 1.52-1.359 2.479-1.775s2.004-.624 3.136-.624c1.13 0 2.175.208 3.136.624.959.416 1.785 1.008 2.479 1.775.693.769 1.231 1.691 1.616 2.768.384 1.077.576 2.266.576 3.567zm-3.103 0c0-1.877-.422-3.365-1.265-4.463-.843-1.099-1.989-1.648-3.438-1.648-1.451 0-2.598.549-3.44 1.648-.843 1.098-1.264 2.586-1.264 4.463s.421 3.365 1.264 4.463c.843 1.099 1.989 1.648 3.44 1.648 1.449 0 2.596-.549 3.438-1.648.843-1.099 1.265-2.586 1.265-4.463z" fill="#666"/><path d="m167.874 74.796c-.684.171-1.583.352-2.702.543-1.121.192-2.416.288-3.889.288-1.278 0-2.356-.187-3.231-.56s-1.578-.901-2.111-1.583-.917-1.488-1.151-2.416c-.235-.928-.353-1.957-.353-3.087v-9.342h2.977v8.702c0 2.027.318 3.477.959 4.352s1.717 1.312 3.232 1.312c.319 0 .648-.01.99-.032.342-.021.661-.048.961-.08.299-.032.571-.065.816-.096.245-.032.419-.069.527-.112v-14.046h2.975z" fill="#666"/><path d="m171.23 59.119c.682-.17 1.588-.352 2.721-.543 1.128-.192 2.432-.288 3.902-.288 1.322 0 2.42.186 3.296.56.874.373 1.572.896 2.097 1.567.521.672.89 1.477 1.103 2.416s.319 1.973.319 3.104v9.343h-2.976v-8.703c0-1.024-.069-1.898-.208-2.624-.139-.725-.367-1.312-.687-1.759-.321-.448-.748-.773-1.28-.977-.534-.203-1.195-.304-1.983-.304-.319 0-.651.012-.993.032-.341.022-.666.049-.975.08-.31.032-.587.069-.832.112-.245.042-.423.075-.529.096v14.046h-2.975z" fill="#666"/><path d="m190.66 58.639h6.304v2.496h-6.304v7.678c0 .832.064 1.52.194 2.064.125.543.319.971.573 1.28.257.31.578.528.962.656.384.127.832.192 1.343.192.896 0 1.616-.102 2.159-.304.545-.203.923-.347 1.136-.433l.577 2.463c-.3.15-.822.336-1.567.561-.748.224-1.6.335-2.561.335-1.131 0-2.064-.144-2.8-.432-.735-.288-1.327-.72-1.775-1.295-.447-.577-.763-1.285-.943-2.128s-.272-1.818-.272-2.928v-14.844l2.975-.512v5.151z" fill="#666"/><path d="m197.882 78.38c.235.106.539.208.913.304.37.096.74.145 1.103.145 1.173 0 2.09-.262 2.751-.785s1.258-1.371 1.792-2.543c-1.344-2.56-2.597-5.274-3.759-8.143-1.163-2.869-2.129-5.774-2.896-8.718h3.199c.235.959.518 1.995.849 3.104.33 1.109.699 2.25 1.103 3.423.406 1.173.844 2.346 1.312 3.52.47 1.173.962 2.304 1.473 3.391.812-2.24 1.515-4.458 2.111-6.655s1.162-4.458 1.696-6.783h3.07c-.768 3.136-1.621 6.149-2.558 9.039-.94 2.891-1.953 5.594-3.041 8.11-.426.96-.868 1.786-1.327 2.479-.46.693-.967 1.265-1.521 1.712-.555.448-1.177.778-1.87.992-.693.213-1.478.32-2.352.32-.235 0-.48-.016-.735-.048-.258-.032-.508-.075-.753-.127-.245-.054-.47-.112-.673-.177-.203-.063-.345-.117-.432-.16z" fill="#666"/><path d="m194.373 13.842c-.004-.026-.004-.041-.022-.103-.059-.068.08-.003-.213-.343l.006-.005c-.015-.016-.032-.033-.053-.05-.032-.04-.114-.091-.225-.131-.1-.042-.211-.069-.315-.063-.02.002-.036.005-.056.007-.045.002-.09.009-.137.02-.285.048-.288.099-.611.201-2.043.763-9.756 3.797-19.924 5.773-3.249-4.81-5.723-9.322-7.424-12.7-.911-1.813-1.604-3.299-2.074-4.338-.237-.518-.418-.921-.547-1.205-.064-.144-.117-.253-.161-.344-.022-.047-.042-.087-.08-.14-.017-.03-.032-.061-.084-.12-.083-.033-.052-.221-.629-.301-.601.08-.571.267-.651.301-.218.304-.2.357-.371.701-.92 2.02-4.226 9.593-9.998 18.146-5.625-1.093-10.514-2.512-14.092-3.688-1.924-.634-3.47-1.199-4.557-1.603-.543-.204-.971-.368-1.278-.481-.339-.106-.327-.16-.652-.208l.001-.002c-.033-.005-.08-.013-.138-.015-.006-.001-.011-.001-.017-.002-.097-.01-.202.015-.303.057-.027.011-.056.022-.084.036-.08.045-.146.096-.201.148-.071.066-.125.136-.15.2-.087.16-.096.304-.094.337-.003.053 0 .053-.003.057.058.484.107.421.228.805.795 2.128 4.059 10.402 6.02 21.208 1.513 6.109 4.108 11.657 9.424 14.03 1.713.815 3.728 1.246 5.828 1.246 3.774 0 7.844-1.404 11.079-4.424 3.219 3.015 7.292 4.423 11.073 4.423 2.102 0 4.111-.428 5.85-1.252 5.294-2.362 7.892-7.914 9.394-13.97 1.128-6.223 2.675-11.578 3.944-15.423.634-1.924 1.194-3.47 1.604-4.556.199-.544.362-.972.48-1.283.095-.314.148-.326.196-.589.02-.068.029-.14.029-.213 0-.001 0-.001 0-.002v-.005s0 0 0-.001c.001-.055-.002-.094-.012-.136zm-22.184 7.319c2.252 3.735 3.81 7.538 3.803 11.073 0 1.362-.226 2.688-.726 3.984-1.431 4.093-5.883 7.922-11.504 8.574 2.451-3.056 3.599-6.725 3.599-10.144 0-2.102-.429-4.116-1.258-5.853-.716-1.608-1.754-2.942-2.986-4.098 2.369-1.678 5.383-2.851 8.718-3.678v.001c.077-.015.151-.03.229-.044.041.063.083.123.125.185zm-20.63-.185c.066.012.13.025.196.037 3.354.829 6.382 2.004 8.757 3.687-1.236 1.16-2.28 2.5-3.003 4.119-.818 1.717-1.247 3.728-1.247 5.829 0 3.419 1.145 7.08 3.605 10.146-5.626-.651-10.077-4.478-11.501-8.551-.509-1.319-.735-2.645-.735-4.004-.007-3.549 1.56-7.366 3.827-11.112.035-.052.066-.101.101-.151zm13.045 8.511c.722 1.507 1.105 3.284 1.105 5.162 0 3.341-1.238 6.967-3.897 9.862-2.669-2.906-3.9-6.525-3.9-9.864 0-1.874.389-3.651 1.096-5.138.645-1.467 1.619-2.697 2.807-3.768 1.18 1.065 2.151 2.289 2.789 3.746zm-2.801-26.692c.004-.007.007-.014.01-.021 1.308 2.876 4.404 9.448 9.262 16.744-3.44.887-6.683 2.152-9.26 4.077-2.575-1.923-5.822-3.188-9.27-4.076 3.104-4.658 5.493-9.026 7.154-12.328.925-1.837 1.626-3.347 2.104-4.396zm-16.205 45.733c-4.576-2.008-7.044-6.975-8.501-12.874-1.126-6.22-2.693-11.645-3.979-15.543-.645-1.95-1.217-3.52-1.627-4.619-.018-.047-.034-.094-.051-.139 2.952 1.108 9.796 3.569 18.39 5.292-2.235 3.79-3.846 7.702-3.852 11.593 0 1.543.261 3.083.838 4.575 1.685 4.729 6.654 8.927 12.955 9.625-2.749 2.173-6.009 3.183-9.036 3.183-1.877-.001-3.654-.385-5.137-1.093zm40.919-12.826c-1.442 5.849-3.916 10.816-8.468 12.813-1.51.719-3.287 1.106-5.161 1.106-3.033 0-6.297-1.014-9.038-3.185 6.3-.695 11.275-4.893 12.967-9.645.567-1.476.827-3.015.827-4.558-.007-3.907-1.627-7.827-3.85-11.592 5.437-1.092 10.146-2.467 13.632-3.614 1.951-.644 3.521-1.216 4.618-1.626.049-.018.096-.035.143-.052-1.193 3.173-3.95 10.843-5.67 20.353z" fill="#e27866"/></svg>