<svg width="232" height="34" viewBox="0 0 930 133" fill="none" xmlns="http://www.w3.org/2000/svg"><path d="M66.1692 133C53.6667 133 42.3436 130.288 32.2 124.864C22.1744 119.323 14.2718 111.718 8.49231 102.049C2.83077 92.3808 0 81.4743 0 69.3298C0 57.1853 2.88974 46.2788 8.66923 36.6104C14.4487 26.9419 22.3513 19.3958 32.3769 13.9721C42.5205 8.43041 53.8436 5.65957 66.3461 5.65957C76.4897 5.65957 85.7487 7.42819 94.1231 10.9654C102.497 14.5027 109.574 19.6316 115.354 26.3524L100.492 40.3245C91.5282 30.656 80.5 25.8218 67.4077 25.8218C58.9154 25.8218 51.3077 27.7083 44.5846 31.4814C37.8615 35.1365 32.6128 40.2655 28.8385 46.8684C25.0641 53.4712 23.1769 60.9583 23.1769 69.3298C23.1769 77.7012 25.0641 85.1884 28.8385 91.7912C32.6128 98.3941 37.8615 103.582 44.5846 107.355C51.3077 111.01 58.9154 112.838 67.4077 112.838C80.5 112.838 91.5282 107.945 100.492 98.1582L115.354 112.307C109.574 119.028 102.438 124.157 93.9461 127.694C85.5718 131.231 76.3128 133 66.1692 133Z" fill="#2FB95F"/><path d="M135.269 0H157.384V131.231H135.269V0Z" fill="#2FB95F"/><path d="M275.226 84.5399C275.226 86.0727 275.108 88.254 274.872 91.0838H200.741C202.039 98.0403 205.4 103.582 210.826 107.709C216.369 111.718 223.211 113.722 231.349 113.722C241.728 113.722 250.28 110.303 257.003 103.464L268.857 117.082C264.611 122.152 259.244 125.984 252.757 128.578C246.269 131.172 238.957 132.469 230.818 132.469C220.439 132.469 211.298 130.406 203.395 126.279C195.493 122.152 189.359 116.434 184.995 109.124C180.749 101.695 178.626 93.324 178.626 84.0093C178.626 74.8125 180.69 66.559 184.818 59.2487C189.064 51.8205 194.903 46.043 202.334 41.9162C209.764 37.7895 218.139 35.7261 227.457 35.7261C236.657 35.7261 244.854 37.7895 252.049 41.9162C259.362 45.9251 265.023 51.6436 269.034 59.0718C273.162 66.3821 275.226 74.8715 275.226 84.5399ZM227.457 53.4122C220.38 53.4122 214.364 55.5346 209.411 59.7793C204.575 63.906 201.626 69.4477 200.564 76.4043H254.172C253.228 69.5656 250.339 64.0239 245.503 59.7793C240.667 55.5346 234.652 53.4122 227.457 53.4122Z" fill="#2FB95F"/><path d="M329.97 35.7261C343.888 35.7261 354.503 39.0864 361.816 45.8072C369.247 52.41 372.962 62.4322 372.962 75.8737V131.231H352.085V119.735C349.372 123.862 345.48 127.046 340.408 129.286C335.454 131.408 329.439 132.469 322.362 132.469C315.285 132.469 309.093 131.29 303.785 128.932C298.477 126.456 294.349 123.096 291.401 118.851C288.57 114.488 287.154 109.595 287.154 104.172C287.154 95.6822 290.28 88.9025 296.531 83.8325C302.901 78.6445 312.867 76.0505 326.431 76.0505H350.847V74.6356C350.847 68.0328 348.842 62.9628 344.831 59.4255C340.939 55.8883 335.1 54.1197 327.316 54.1197C322.008 54.1197 316.759 54.945 311.57 56.5957C306.498 58.2465 302.193 60.5457 298.654 63.4934L289.985 47.3989C294.939 43.6259 300.895 40.7371 307.854 38.7327C314.813 36.7283 322.185 35.7261 329.97 35.7261ZM326.962 116.375C332.506 116.375 337.401 115.137 341.647 112.661C346.011 110.067 349.077 106.412 350.847 101.695V90.7301H328.024C315.285 90.7301 308.916 94.9158 308.916 103.287C308.916 107.296 310.508 110.48 313.693 112.838C316.877 115.196 321.301 116.375 326.962 116.375Z" fill="#2FB95F"/><path d="M422.398 50.5824C428.767 40.6782 439.973 35.7261 456.014 35.7261V56.7726C454.126 56.4189 452.416 56.242 450.883 56.242C442.273 56.242 435.549 58.777 430.714 63.8471C425.878 68.7992 423.46 75.9916 423.46 85.4242V131.231H401.344V36.7872H422.398V50.5824Z" fill="#2FB95F"/><path d="M558.357 67.9149H580.118V117.259C573.749 122.329 566.318 126.22 557.826 128.932C549.334 131.644 540.605 133 531.641 133C519.021 133 507.639 130.288 497.495 124.864C487.352 119.323 479.39 111.718 473.61 102.049C467.831 92.3808 464.941 81.4743 464.941 69.3298C464.941 57.1853 467.831 46.2788 473.61 36.6104C479.39 26.9419 487.352 19.3958 497.495 13.9721C507.757 8.43041 519.257 5.65957 531.995 5.65957C542.375 5.65957 551.81 7.36924 560.303 10.7886C568.795 14.2079 575.931 19.219 581.71 25.8218L567.203 39.9707C557.767 30.5381 546.385 25.8218 533.057 25.8218C524.328 25.8218 516.544 27.6494 509.703 31.3045C502.98 34.9597 497.672 40.0887 493.78 46.6915C490.005 53.2943 488.118 60.8404 488.118 69.3298C488.118 77.5833 490.005 85.0115 493.78 91.6144C497.672 98.2172 502.98 103.405 509.703 107.178C516.544 110.951 524.269 112.838 532.88 112.838C542.552 112.838 551.044 110.715 558.357 106.471V67.9149Z" fill="#2FB95F"/><path d="M608.33 0H630.446V131.231H608.33V0Z" fill="#2FB95F"/><path d="M695.565 35.7261C709.483 35.7261 720.098 39.0864 727.411 45.8072C734.841 52.41 738.557 62.4322 738.557 75.8737V131.231H717.68V119.735C714.967 123.862 711.075 127.046 706.003 129.286C701.049 131.408 695.034 132.469 687.957 132.469C680.88 132.469 674.688 131.29 669.38 128.932C664.072 126.456 659.944 123.096 656.995 118.851C654.165 114.488 652.749 109.595 652.749 104.172C652.749 95.6822 655.875 88.9025 662.126 83.8325C668.495 78.6445 678.462 76.0505 692.026 76.0505H716.441V74.6356C716.441 68.0328 714.436 62.9628 710.426 59.4255C706.534 55.8883 700.695 54.1197 692.911 54.1197C687.603 54.1197 682.354 54.945 677.165 56.5957C672.093 58.2465 667.788 60.5457 664.249 63.4934L655.58 47.3989C660.534 43.6259 666.49 40.7371 673.449 38.7327C680.408 36.7283 687.78 35.7261 695.565 35.7261ZM692.557 116.375C698.1 116.375 702.995 115.137 707.241 112.661C711.606 110.067 714.672 106.412 716.441 101.695V90.7301H693.618C680.88 90.7301 674.511 94.9158 674.511 103.287C674.511 107.296 676.103 110.48 679.288 112.838C682.472 115.196 686.895 116.375 692.557 116.375Z" fill="#2FB95F"/><path d="M796.131 132.469C788.465 132.469 780.975 131.467 773.662 129.463C766.349 127.458 760.511 124.923 756.147 121.858L764.639 105.056C768.885 107.886 773.957 110.185 779.855 111.953C785.87 113.604 791.767 114.43 797.547 114.43C810.757 114.43 817.362 110.951 817.362 103.995C817.362 100.693 815.652 98.3941 812.232 97.0971C808.929 95.8001 803.562 94.5621 796.131 93.383C788.347 92.2039 781.978 90.848 777.024 89.3152C772.188 87.7824 767.942 85.1294 764.285 81.3564C760.747 77.4654 758.978 72.1006 758.978 65.262C758.978 56.301 762.693 49.1676 770.124 43.8617C777.673 38.4379 787.816 35.7261 800.555 35.7261C807.042 35.7261 813.529 36.4925 820.016 38.0253C826.503 39.4402 831.811 41.3856 835.939 43.8617L827.447 60.6636C819.426 55.9473 810.403 53.5891 800.378 53.5891C793.891 53.5891 788.937 54.5913 785.516 56.5957C782.214 58.4823 780.562 61.0173 780.562 64.2008C780.562 67.738 782.331 70.273 785.87 71.8058C789.526 73.2207 795.129 74.5767 802.678 75.8737C810.226 77.0527 816.419 78.4087 821.255 79.9415C826.09 81.4743 830.219 84.0683 833.639 87.7234C837.178 91.3785 838.947 96.5665 838.947 103.287C838.947 112.13 835.114 119.205 827.447 124.511C819.78 129.816 809.342 132.469 796.131 132.469Z" fill="#2FB95F"/><path d="M887.185 132.469C879.518 132.469 872.028 131.467 864.715 129.463C857.403 127.458 851.564 124.923 847.2 121.858L855.692 105.056C859.939 107.886 865.01 110.185 870.908 111.953C876.923 113.604 882.821 114.43 888.6 114.43C901.81 114.43 908.415 110.951 908.415 103.995C908.415 100.693 906.705 98.3941 903.285 97.0971C899.982 95.8001 894.615 94.5621 887.185 93.383C879.4 92.2039 873.031 90.848 868.077 89.3152C863.241 87.7824 858.995 85.1294 855.339 81.3564C851.8 77.4654 850.031 72.1006 850.031 65.262C850.031 56.301 853.746 49.1676 861.177 43.8617C868.726 38.4379 878.869 35.7261 891.608 35.7261C898.095 35.7261 904.582 36.4925 911.069 38.0253C917.556 39.4402 922.864 41.3856 926.992 43.8617L918.5 60.6636C910.479 55.9473 901.456 53.5891 891.431 53.5891C884.944 53.5891 879.99 54.5913 876.569 56.5957C873.267 58.4823 871.615 61.0173 871.615 64.2008C871.615 67.738 873.385 70.273 876.923 71.8058C880.58 73.2207 886.182 74.5767 893.731 75.8737C901.28 77.0527 907.472 78.4087 912.308 79.9415C917.144 81.4743 921.272 84.0683 924.692 87.7234C928.231 91.3785 930 96.5665 930 103.287C930 112.13 926.167 119.205 918.5 124.511C910.833 129.816 900.395 132.469 887.185 132.469Z" fill="#2FB95F"/></svg>