<svg width="2000" height="294.69" xmlns="http://www.w3.org/2000/svg" viewBox="0 0 2000 294.69"><title>logo</title><g id="Warstwa_2" data-name="Warstwa 2"><g id="Warstwa_1-2" data-name="Warstwa 1"><path d="M155.1,173.88a16.46,16.46,0,0,0-11.24,4.27h0a65.32,65.32,0,1,1-.58-93.43A17,17,0,0,0,155.1,89.8a16.37,16.37,0,0,0,11.44-28h0a98,98,0,1,0-1.83,141.62c3.8-3.15,6.72-7.76,6.72-13.18A16.33,16.33,0,0,0,155.1,173.88Z"/><path d="M1053.06,33.74a98,98,0,1,0,98,98A98,98,0,0,0,1053.06,33.74Zm0,163.27a65.31,65.31,0,1,1,65.31-65.31A65.31,65.31,0,0,1,1053.06,197Z"/><circle cx="1134.69" cy="245.71" r="16.33"/><path d="M678,0a16.05,16.05,0,0,0-16,16.33V58.69c-18-15.51-40.6-25-65.69-25-54.1,0-98.15,43.86-98.15,98s44.15,98,98.25,98c25.09,0,47.6-9.44,65.6-25v8.35a16,16,0,1,0,32,0V16.33A16.05,16.05,0,0,0,678,0ZM595.92,197a65.31,65.31,0,1,1,65.31-65.31A65.31,65.31,0,0,1,595.92,197Z"/><path d="M922.45,131.18c0-55.23-46.12-99.53-101.88-97.36-50.73,2-92,43.33-94,94.06a98,98,0,0,0,165.72,74.49A16.32,16.32,0,1,0,870.77,178l-.11-.11a65.31,65.31,0,0,1-111.3-41.17c-2.86-38.3,27.39-70.64,65.12-70.64,30.33,0,55.83,21.31,63.17,48.39H808.81c-8.18,0-15.51,5.74-16.77,13.82a16.44,16.44,0,0,0,16.12,19.06h97.89a16.16,16.16,0,0,0,16.39-15.82C922.45,131.39,922.45,131.32,922.45,131.18Z"/><path d="M1607,129.94c0-54.16-43.4-95.93-97.38-95.93A97.86,97.86,0,1,0,1578,202.4c3.64-3.27,6.49-7.7,6.49-13a16.45,16.45,0,0,0-28.08-11.52h0A65.3,65.3,0,0,1,1444.9,131.7c0-36.07,29.24-65.68,65.31-65.68,30.33,0,55.83,21.33,63.17,48.33h-79.5a16.5,16.5,0,0,0,0,33h98c9,0,15.16-7.74,15.16-15.47Z"/><path d="M1350.76,62.3l-.05.05a16.31,16.31,0,0,0-22.29,23.81,65.31,65.31,0,1,1-93.57,0,16.31,16.31,0,0,0-22.29-23.81l-.05-.05a98,98,0,1,0,138.26,0Z"/><path d="M1986.44,115.33a16.34,16.34,0,1,0,13.33,13.33A16.35,16.35,0,0,0,1986.44,115.33Z"/><path d="M1918.5,33.47c-9,0-15.5,7.31-15.5,16.33v64.55h-17.29a16.5,16.5,0,0,0,0,33H1903v65.71c0,9,6.48,16.33,15.5,16.33s15.5-7.31,15.5-16.33V49.8C1934,40.78,1927.52,33.47,1918.5,33.47Z"/><path d="M1706.12,130.85a16.48,16.48,0,0,0-16.33-16.5h-14.19c7.34-27,32.84-48.33,63.17-48.33a65.23,65.23,0,0,1,45.33,18.52,16.26,16.26,0,1,0,23.61-22.35l0,0a97.64,97.64,0,0,0-69-28.42c-54,0-96.27,42-98,95.94,0,.49,0,.49,0,1.56a16,16,0,0,0,16.32,16.11h32.65A16.48,16.48,0,0,0,1706.12,130.85Z"/><circle cx="1740.41" cy="131.43" r="16.33"/><path d="M1838,131.11c0-9-8.57-16.76-17.59-16.76h-32.65a16.5,16.5,0,0,0,0,33h14.33a65.58,65.58,0,0,1-109.87,30.32h0a16.34,16.34,0,0,0-27.73,11.71c0,5.3,2.78,9.82,6.46,13a99.17,99.17,0,0,0,68.46,27.29c54.1,0,98.59-43.86,98.59-98Z"/><path d="M432.65,98.78a32.83,32.83,0,0,0-5.51.47,98.22,98.22,0,0,0-60.3-60.1,32.65,32.65,0,1,0-64.3,0,98.22,98.22,0,0,0-60.3,60.1,32.65,32.65,0,1,0-.18,64.39,98.08,98.08,0,0,0,28.16,41.81l-28.71,28.71a16.33,16.33,0,0,0,0,23.09l32.65,32.65a16.33,16.33,0,0,0,23.09-23.09l-21.11-21.11s22.15-22.25,22.6-22.86a98.33,98.33,0,0,0,71.88,0c.46.61,22.6,22.86,22.6,22.86l-21.11,21.11a16.33,16.33,0,1,0,23.09,23.09l32.65-32.65a16.33,16.33,0,0,0,0-23.09l-28.71-28.71a98.08,98.08,0,0,0,28.16-41.81,32.65,32.65,0,1,0,5.33-64.87Zm-98,98.23A65.31,65.31,0,1,1,400,131.7,65.31,65.31,0,0,1,334.69,197Z"/></g></g></svg>
