<svg width="100" height="100" viewBox="0 0 542 542" xmlns="http://www.w3.org/2000/svg" xmlns:xlink="http://www.w3.org/1999/xlink"><defs><path d="M150.177 11.325C158.1375 4.281 168.6358 0 180.1418 0c24.8724 0 45.0355 20.0043 45.0355 44.6809 24.8724 0 45.0355 20.0042 45.0355 44.6808 0 24.6766-20.1631 44.6809-45.0355 44.6809H45.0355C20.163 134.0426 0 114.0383 0 89.3617s20.163-44.6808 45.0355-44.6808h3.8439C58.153 18.6499 83.1756 0 112.5887 0c13.9123 0 26.8424 4.1725 37.5883 11.325z" id="a"/></defs><g fill="none" fill-rule="evenodd"><circle stroke="#FFF" stroke-width="30" fill="#000" cx="271" cy="271" r="256"/><g transform="translate(72 95)"><ellipse fill="#FFF" cx="197.9362" cy="180.2128" rx="135.1064" ry="161.7021"/><ellipse fill="#FFF" transform="rotate(135 347.9362 161.0638)" cx="347.9362" cy="161.0638" rx="21.2766" ry="48.9362"/><ellipse fill="#FFF" transform="scale(1 -1) rotate(-45 -338.7787 0)" cx="50.0638" cy="161.0638" rx="21.2766" ry="48.9362"/><g transform="translate(62.8298)"><use fill="#FFF" xlink:href="#a"/><path stroke="#000" stroke-width="20" d="M149.487-.7391C158.439-6.7148 169.043-10 180.1418-10c27.2128 0 49.8354 19.6317 54.254 45.4448 25.9946 4.3565 45.817 26.824 45.817 53.9169 0 30.2172-24.6579 54.6809-55.0355 54.6809H45.0355C14.6578 144.0426-10 119.5789-10 89.3617c0-29.2539 23.1107-53.1152 52.1482-54.6069C54.6402 7.8551 81.912-10 112.5887-10c13.0776 0 25.69 3.2285 36.8983 9.2609z"/></g><ellipse fill="#000" cx="156.4468" cy="199.3617" rx="21.2766" ry="25.5319"/><ellipse fill="#000" cx="252.1915" cy="199.3617" rx="21.2766" ry="25.5319"/></g></g></svg>