<svg width="2754" height="517" viewBox="0 0 2754 517" xmlns="http://www.w3.org/2000/svg"><g fill="none" fill-rule="evenodd"><path fill="#FFF" d="M0 0h2754v517H0z"/><g transform="translate(-9 -11)"><circle stroke="#FFF" stroke-width="30" fill="#000" cx="271" cy="271" r="256"/><g transform="translate(72 95)"><ellipse fill="#FFF" cx="197.936" cy="180.213" rx="135.106" ry="161.702"/><ellipse fill="#FFF" transform="rotate(135 347.936 161.064)" cx="347.936" cy="161.064" rx="21.277" ry="48.936"/><ellipse fill="#FFF" transform="scale(1 -1) rotate(-45 -338.779 0)" cx="50.064" cy="161.064" rx="21.277" ry="48.936"/><path d="M104.978 34.755C117.47 7.855 144.742-10 175.418-10c13.078 0 25.69 3.229 36.899 9.26 8.952-5.975 19.556-9.26 30.655-9.26 27.212 0 49.835 19.632 54.254 45.445 25.994 4.356 45.817 26.824 45.817 53.917 0 30.217-24.658 54.68-55.036 54.68H107.865c-30.377 0-55.035-24.463-55.035-54.68 0-29.254 23.11-53.116 52.148-54.607z" stroke="#000" stroke-width="20" fill="#FFF"/><ellipse fill="#000" cx="148.812" cy="199.362" rx="21.277" ry="25.532"/><ellipse fill="#000" cx="249.188" cy="199.362" rx="21.277" ry="25.532"/></g></g><path d="M631.605 447.662c-8.463 0-15.828-.407-22.094-1.22-6.267-.814-13.062-2.645-20.386-5.494-7.324-2.848-13.55-6.795-18.677-11.84-5.127-5.046-10.254-12.045-15.38-20.997-5.128-8.952-9.237-19.653-12.33-32.104-3.092-12.451-5.615-27.75-7.568-45.899-1.953-18.147-2.93-38.777-2.93-61.89 0-31.25 1.913-58.105 5.738-80.566 3.824-22.46 8.667-39.957 14.526-52.49 5.86-12.533 13.468-22.38 22.827-29.54 9.359-7.162 18.31-11.72 26.856-13.673 8.544-1.953 18.758-2.93 30.64-2.93 15.136 0 27.587 2.28 37.353 6.836.162.163.407.367.732.61.326.245.61.49.855.733.244.244.447.651.61 1.22.163.57.244 1.262.244 2.076v29.541c0 2.279-.57 3.418-1.709 3.418-.163 0-.773-.163-1.83-.488-1.059-.326-2.564-.733-4.518-1.22a193.018 193.018 0 0 0-6.347-1.466c-2.279-.488-4.924-.895-7.935-1.22a82.869 82.869 0 0 0-8.91-.489c-7.65 0-14.161.855-19.532 2.564s-10.824 5.37-16.358 10.986c-5.533 5.615-10.01 13.387-13.427 23.316-3.418 9.928-6.185 23.518-8.301 40.771-2.116 17.253-3.174 37.923-3.174 62.012 0 24.577.936 45.491 2.808 62.744 1.871 17.253 4.272 30.884 7.202 40.893 2.93 10.01 6.999 17.782 12.207 23.316 5.208 5.534 10.417 9.114 15.625 10.742 5.208 1.628 11.719 2.441 19.531 2.441 11.556 0 21.81-1.546 30.762-4.638.163 0 .529.814 1.098 2.441.57 1.628.855 2.523.855 2.686v28.076c0 .163-.285 1.017-.855 2.563-.57 1.547-.935 2.401-1.098 2.564-9.929 3.743-22.298 5.615-37.11 5.615zm140.323-38.574c11.393 0 20.1-3.866 26.123-11.597 6.022-7.73 10.416-21.728 13.183-41.992 2.767-20.264 4.15-49.845 4.15-88.745 0-37.598-1.301-66.08-3.906-85.45-2.604-19.368-6.876-32.999-12.817-40.893-5.94-7.894-14.77-11.84-26.49-11.84-11.392 0-20.14 4.028-26.244 12.084-6.104 8.057-10.458 21.85-13.062 41.382-2.604 19.531-3.906 47.77-3.906 84.717 0 38.574 1.383 67.993 4.15 88.257 2.767 20.264 7.121 34.342 13.062 42.236 5.94 7.894 14.526 11.84 25.757 11.84zm.244 38.574c-13.51 0-24.943-1.465-34.302-4.394-9.359-2.93-17.863-8.26-25.513-15.992-7.65-7.73-13.672-18.432-18.066-32.104-4.395-13.672-7.772-30.965-10.132-51.88-2.36-20.915-3.54-46.427-3.54-76.538 0-24.089.773-45.247 2.32-63.477 1.546-18.229 4.068-33.935 7.568-47.119 3.5-13.183 7.609-24.088 12.329-32.715 4.72-8.626 10.66-15.503 17.822-20.63 7.162-5.127 14.811-8.707 22.95-10.742 8.137-2.034 17.659-3.051 28.564-3.051 13.183 0 24.455 1.505 33.813 4.516 9.359 3.011 17.863 8.342 25.513 15.991 7.65 7.65 13.753 18.189 18.31 31.617 4.558 13.427 8.016 30.436 10.376 51.025 2.36 20.59 3.54 45.45 3.54 74.585 0 30.273-1.139 55.908-3.417 76.904-2.28 20.996-5.616 38.33-10.01 52.002-4.395 13.672-10.417 24.292-18.067 31.86-7.65 7.569-16.154 12.818-25.512 15.748-9.36 2.93-20.874 4.394-34.546 4.394zM887.836 444c-3.906 0-5.86-3.988-5.86-11.963v-1.22l10.987-323.975c.162-8.952 2.197-13.59 6.103-13.916h38.574c2.442.163 4.476.976 6.104 2.441 1.628 1.465 2.848 4.476 3.662 9.033l41.26 230.957c.163.651.447 1.14.854 1.465.407.326.814.326 1.221 0 .407-.325.61-.814.61-1.465l41.504-230.224c1.465-7.813 4.639-11.882 9.522-12.207h39.062c3.907.325 5.86 4.964 5.86 13.916l11.474 323.974v1.465c0 7.813-2.034 11.719-6.103 11.719h-26.856c-3.906 0-6.022-4.394-6.347-13.184l-7.569-250.732c0-.977-.244-1.546-.732-1.709-.488-.163-.814.081-.977.732l-44.433 253.174c-1.302 7.813-4.07 11.719-8.301 11.719h-15.87c-3.905 0-6.672-3.906-8.3-11.719l-43.213-251.953c-.163-.976-.488-1.14-.976-.488-.163.325-.245.814-.245 1.465l-7.812 249.511c0 8.79-1.872 13.184-5.615 13.184h-27.588zm242.49 0c-3.906 0-5.86-3.988-5.86-11.963v-1.22l10.987-323.975c.163-8.952 2.197-13.59 6.103-13.916h38.575c2.441.163 4.476.976 6.103 2.441 1.628 1.465 2.848 4.476 3.662 9.033l41.26 230.957c.163.651.448 1.14.855 1.465.406.326.813.326 1.22 0 .407-.325.61-.814.61-1.465l41.504-230.224c1.465-7.813 4.64-11.882 9.522-12.207h39.062c3.907.325 5.86 4.964 5.86 13.916l11.474 323.974v1.465c0 7.813-2.034 11.719-6.103 11.719h-26.856c-3.906 0-6.022-4.394-6.347-13.184l-7.569-250.732c0-.977-.244-1.546-.732-1.709-.488-.163-.814.081-.977.732l-44.433 253.174c-1.302 7.813-4.07 11.719-8.3 11.719h-15.87c-3.906 0-6.673-3.906-8.3-11.719l-43.214-251.953c-.162-.976-.488-1.14-.976-.488-.163.325-.244.814-.244 1.465l-7.813 249.511c0 8.79-1.872 13.184-5.615 13.184h-27.588zm320.498-34.912c11.393 0 20.1-3.866 26.123-11.597 6.022-7.73 10.417-21.728 13.184-41.992 2.766-20.264 4.15-49.845 4.15-88.745 0-37.598-1.302-66.08-3.906-85.45-2.604-19.368-6.877-32.999-12.818-40.893-5.94-7.894-14.77-11.84-26.489-11.84-11.393 0-20.142 4.028-26.245 12.084-6.104 8.057-10.457 21.85-13.062 41.382-2.604 19.531-3.906 47.77-3.906 84.717 0 38.574 1.384 67.993 4.15 88.257 2.767 20.264 7.121 34.342 13.062 42.236 5.94 7.894 14.526 11.84 25.757 11.84zm.244 38.574c-13.51 0-24.943-1.465-34.302-4.394-9.358-2.93-17.863-8.26-25.512-15.992-7.65-7.73-13.672-18.432-18.067-32.104-4.394-13.672-7.772-30.965-10.132-51.88-2.36-20.915-3.54-46.427-3.54-76.538 0-24.089.773-45.247 2.32-63.477 1.546-18.229 4.069-33.935 7.568-47.119 3.5-13.183 7.609-24.088 12.33-32.715 4.72-8.626 10.66-15.503 17.821-20.63 7.162-5.127 14.812-8.707 22.95-10.742 8.138-2.034 17.659-3.051 28.564-3.051 13.184 0 24.455 1.505 33.814 4.516 9.358 3.011 17.862 8.342 25.512 15.991 7.65 7.65 13.753 18.189 18.31 31.617 4.558 13.427 8.017 30.436 10.377 51.025 2.36 20.59 3.54 45.45 3.54 74.585 0 30.273-1.14 55.908-3.418 76.904-2.279 20.996-5.615 38.33-10.01 52.002-4.395 13.672-10.417 24.292-18.066 31.86-7.65 7.569-16.154 12.818-25.513 15.748-9.359 2.93-20.874 4.394-34.546 4.394zM1576.86 444c-2.116 0-3.703-.814-4.76-2.441-1.059-1.628-1.588-4.883-1.588-9.766V105.865c0-8.626 2.116-12.94 6.348-12.94h37.11c3.417 0 6.347 3.175 8.788 9.522l82.764 222.412c.326 1.14.814.814 1.465-.976l.244-2.197v-215.82c0-8.627 2.197-12.94 6.592-12.94h29.053c4.069 0 6.103 4.313 6.103 12.94V432.77c0 4.882-.488 8.015-1.465 9.399-.976 1.383-2.522 2.075-4.638 2.075h-26.368c-1.627 0-3.377-.976-5.249-2.93-1.871-1.953-3.377-4.394-4.516-7.324L1614.7 193.756c-.651-1.302-1.14-.895-1.465 1.22-.163.489-.244 1.059-.244 1.71v235.107c0 4.883-.53 8.138-1.587 9.766-1.058 1.627-2.726 2.441-5.005 2.441h-29.541zm277.89-354.98c30.6 0 54.444 11.149 71.534 33.447 1.627 2.116 2.441 4.638 2.441 7.568 0 5.697-2.4 11.719-7.202 18.067-4.801 6.347-8.83 9.521-12.085 9.521-.977 0-1.709-.325-2.197-.977-14.486-17.578-31.738-26.367-51.758-26.367-11.23 0-20.264 4.761-27.1 14.283-6.836 9.521-10.254 21.118-10.254 34.79 0 12.858 2.93 23.356 8.79 31.494 5.859 8.138 14.241 15.706 25.146 22.705l31.006 20.02c32.715 21.158 49.072 52.082 49.072 92.773 0 29.785-7.568 54.117-22.705 72.998-15.137 18.88-35.482 28.32-61.035 28.32-34.506 0-61.686-14.892-81.543-44.678-.977-1.464-1.465-3.336-1.465-5.615 0-5.697 2.32-11.922 6.958-18.677 4.639-6.754 9.074-10.131 13.306-10.131 1.627 0 3.092.732 4.394 2.197 18.23 23.275 37.68 34.912 58.35 34.912 12.695 0 22.624-4.924 29.785-14.77 7.162-9.848 10.742-22.34 10.742-37.476 0-13.672-2.848-24.78-8.545-33.325-5.696-8.545-14.404-16.643-26.123-24.292l-31.25-20.996c-6.836-4.558-12.776-9.278-17.822-14.16-5.046-4.883-9.888-10.783-14.526-17.7-4.64-6.918-8.22-15.056-10.743-24.415-2.522-9.359-3.784-19.653-3.784-30.884 0-29.297 7.12-53.06 21.363-71.289 14.241-18.229 33.325-27.343 57.25-27.343zM1952.465 444c-4.231 0-6.347-4.15-6.347-12.451v-37.11c0-8.138 2.116-12.207 6.347-12.207h33.448c4.394 0 6.591 4.07 6.591 12.207v37.11c0 8.3-2.197 12.451-6.591 12.451h-33.448zm75.742 0c-2.278 0-3.906-.692-4.882-2.075-.977-1.384-1.465-4.517-1.465-9.4V104.4c0-4.882.488-8.016 1.465-9.399.976-1.383 2.604-2.075 4.882-2.075h35.4c2.28 0 3.907.692 4.884 2.075.976 1.383 1.464 4.517 1.464 9.4v129.882c0 1.465.285 2.767.855 3.906.57 1.14 1.099 1.71 1.587 1.71h73.242c.488 0 1.058-.61 1.709-1.832.651-1.22.977-2.563.977-4.028V104.4c0-4.72.529-7.812 1.587-9.277 1.057-1.465 2.644-2.197 4.76-2.197h35.889c2.116 0 3.662.692 4.639 2.075.976 1.383 1.464 4.517 1.464 9.4v328.124c0 4.883-.488 8.016-1.464 9.4-.977 1.383-2.523 2.075-4.64 2.075h-35.888c-1.465 0-2.604-.203-3.418-.61-.814-.407-1.546-1.506-2.197-3.296-.651-1.79-.977-4.313-.977-7.569v-149.17c0-3.418-.895-5.126-2.685-5.126h-72.51c-1.627 0-2.441 1.708-2.441 5.126v149.17c0 4.72-.53 7.813-1.587 9.278-1.058 1.465-2.645 2.197-4.76 2.197h-35.89zm282.412-34.912c11.394 0 20.101-3.866 26.123-11.597 6.023-7.73 10.417-21.728 13.184-41.992 2.767-20.264 4.15-49.845 4.15-88.745 0-37.598-1.302-66.08-3.906-85.45-2.604-19.368-6.876-32.999-12.817-40.893-5.94-7.894-14.77-11.84-26.49-11.84-11.393 0-20.141 4.028-26.245 12.084-6.103 8.057-10.457 21.85-13.061 41.382-2.604 19.531-3.906 47.77-3.906 84.717 0 38.574 1.383 67.993 4.15 88.257 2.767 20.264 7.12 34.342 13.062 42.236 5.94 7.894 14.526 11.84 25.756 11.84zm.245 38.574c-13.51 0-24.943-1.465-34.302-4.394-9.359-2.93-17.863-8.26-25.513-15.992-7.65-7.73-13.672-18.432-18.066-32.104-4.395-13.672-7.772-30.965-10.132-51.88-2.36-20.915-3.54-46.427-3.54-76.538 0-24.089.773-45.247 2.32-63.477 1.545-18.229 4.068-33.935 7.568-47.119 3.499-13.183 7.609-24.088 12.329-32.715 4.72-8.626 10.66-15.503 17.822-20.63 7.161-5.127 14.811-8.707 22.95-10.742 8.137-2.034 17.659-3.051 28.564-3.051 13.183 0 24.454 1.505 33.813 4.516 9.359 3.011 17.863 8.342 25.513 15.991 7.65 7.65 13.753 18.189 18.31 31.617 4.558 13.427 8.016 30.436 10.376 51.025 2.36 20.59 3.54 45.45 3.54 74.585 0 30.273-1.139 55.908-3.418 76.904-2.278 20.996-5.615 38.33-10.01 52.002-4.394 13.672-10.416 24.292-18.066 31.86-7.65 7.569-16.154 12.818-25.513 15.748-9.358 2.93-20.873 4.394-34.545 4.394zM2496.35 89.02c30.599 0 54.443 11.149 71.533 33.447 1.628 2.116 2.441 4.638 2.441 7.568 0 5.697-2.4 11.719-7.202 18.067-4.801 6.347-8.83 9.521-12.085 9.521-.976 0-1.709-.325-2.197-.977-14.486-17.578-31.738-26.367-51.758-26.367-11.23 0-20.263 4.761-27.1 14.283-6.835 9.521-10.253 21.118-10.253 34.79 0 12.858 2.93 23.356 8.789 31.494 5.86 8.138 14.241 15.706 25.146 22.705l31.006 20.02c32.715 21.158 49.072 52.082 49.072 92.773 0 29.785-7.568 54.117-22.705 72.998-15.137 18.88-35.481 28.32-61.035 28.32-34.505 0-61.686-14.892-81.543-44.678-.976-1.464-1.465-3.336-1.465-5.615 0-5.697 2.32-11.922 6.958-18.677 4.639-6.754 9.074-10.131 13.306-10.131 1.628 0 3.092.732 4.395 2.197 18.229 23.275 37.678 34.912 58.35 34.912 12.695 0 22.623-4.924 29.784-14.77 7.162-9.848 10.742-22.34 10.742-37.476 0-13.672-2.848-24.78-8.544-33.325-5.697-8.545-14.405-16.643-26.123-24.292l-31.25-20.996c-6.836-4.558-12.777-9.278-17.823-14.16-5.045-4.883-9.887-10.783-14.526-17.7-4.639-6.918-8.22-15.056-10.742-24.415-2.523-9.359-3.784-19.653-3.784-30.884 0-29.297 7.12-53.06 21.362-71.289 14.241-18.229 33.325-27.343 57.25-27.343zM2628.245 444c-1.953 0-3.458-.773-4.516-2.32-1.058-1.546-1.587-4.679-1.587-9.399V138.336c0-4.07-.895-6.104-2.686-6.104h-42.48c-1.628 0-2.808-.122-3.54-.366-.733-.244-1.384-1.058-1.953-2.441-.57-1.384-.855-3.54-.855-6.47v-19.287c0-4.395.488-7.284 1.465-8.667.976-1.383 2.604-2.075 4.883-2.075h137.94c2.115 0 3.661.692 4.638 2.075.976 1.383 1.465 4.272 1.465 8.667v19.287c0 4.07-.448 6.633-1.343 7.69-.895 1.058-2.482 1.587-4.76 1.587h-41.749c-1.79 0-2.685 2.035-2.685 6.104V432.28c0 4.883-.53 8.057-1.587 9.522-1.058 1.465-2.645 2.197-4.761 2.197h-35.889z" fill="#000"/><g fill="#000" font-family="BenchNine-Bold, BenchNine" font-size="500" font-weight="bold"><text transform="translate(-509 386)"><tspan x="511" y="627">CO</tspan></text><text transform="translate(-509 386)"><tspan x="858.295" y="627">M</tspan></text><text transform="translate(-509 386)"><tspan x="1100.785" y="627">M</tspan></text><text transform="translate(-509 386)"><tspan x="1338.275" y="627">ONS.</tspan></text><text transform="translate(-509 386)"><tspan x="1993.538" y="627">HO</tspan></text><text transform="translate(-509 386)"><tspan x="2396.986" y="627">S</tspan></text><text transform="translate(-509 386)"><tspan x="2564.769" y="627">T</tspan></text></g></g></svg>
