<?xml version="1.0" encoding="utf-8"?>
<!-- Generator: Adobe Illustrator 15.0.0, SVG Export Plug-In . SVG Version: 6.00 Build 0)  -->
<!DOCTYPE svg PUBLIC "-//W3C//DTD SVG 1.1//EN" "http://www.w3.org/Graphics/SVG/1.1/DTD/svg11.dtd">
<svg version="1.1" id="Layer_1" xmlns="http://www.w3.org/2000/svg" xmlns:xlink="http://www.w3.org/1999/xlink" x="0px" y="0px"
	 width="310.667px" height="124.667px" viewBox="0 0 310.667 124.667" enable-background="new 0 0 310.667 124.667"
	 xml:space="preserve">
<g>
	<path fill="#184191" d="M284.295,32.006c-8.107-8.101-18.875-12.564-30.339-12.564c-11.448,0-22.219,4.464-30.326,12.564
		c-4.33,4.33-7.609,9.43-9.727,14.98h0.869c2.086-5.331,5.26-10.23,9.441-14.406c7.943-7.946,18.517-12.322,29.742-12.322
		c11.247,0,21.809,4.376,29.758,12.322c16.399,16.399,16.399,43.098,0,59.506c-7.949,7.946-18.511,12.319-29.758,12.319
		c-11.226,0-21.799-4.373-29.742-12.319c-3.696-3.69-6.602-7.949-8.672-12.57h-0.891c2.117,4.841,5.134,9.297,8.979,13.148
		c8.107,8.101,18.878,12.558,30.326,12.558c11.464,0,22.231-4.457,30.339-12.558C301.013,75.934,301.013,48.724,284.295,32.006z"/>
	<g>
		<path fill="#184191" d="M218.426,53.428h3.22c0.322,0,0.482,0.163,0.482,0.488v17.49c0,0.327-0.16,0.488-0.482,0.488h-1.783
			c-0.327,0-0.485-0.161-0.485-0.488V56.901h-0.12l-3.73,10.515c-0.117,0.306-0.328,0.457-0.631,0.457h-1.845
			c-0.288,0-0.485-0.151-0.591-0.457l-3.829-10.543h-0.111v14.533c0,0.191-0.034,0.324-0.102,0.39
			c-0.068,0.064-0.204,0.099-0.39,0.099h-1.753c-0.321,0-0.481-0.161-0.481-0.488v-17.49c0-0.325,0.16-0.488,0.481-0.488h3.221
			c0.204,0,0.361,0.107,0.454,0.318l3.935,11.083h0.148l3.959-11.083C218.026,53.535,218.178,53.428,218.426,53.428z"/>
	</g>
	<g>
		<g>
			<path fill="#184191" d="M27.665,78.895H22.17c-2.665,0-4.723-0.707-6.163-2.123c-1.453-1.412-2.173-3.446-2.173-6.107V54.657
				c0-2.654,0.72-4.691,2.173-6.107c1.44-1.412,3.498-2.123,6.163-2.123h5.495c2.63,0,4.676,0.717,6.135,2.148
				c1.465,1.431,2.197,3.458,2.197,6.082v2.374c0,0.745-0.374,1.112-1.109,1.112h-4.24c-0.711,0-1.063-0.367-1.063-1.112v-2.067
				c0-1.076-0.223-1.843-0.68-2.297c-0.454-0.457-1.221-0.683-2.297-0.683h-3.434c-1.045,0-1.796,0.226-2.244,0.683
				c-0.457,0.454-0.68,1.221-0.68,2.297v15.397c0,1.079,0.223,1.842,0.68,2.297c0.448,0.454,1.199,0.683,2.244,0.683h3.434
				c1.076,0,1.843-0.229,2.297-0.683c0.457-0.455,0.68-1.218,0.68-2.297v-2.07c0-0.739,0.353-1.11,1.063-1.11h4.24
				c0.735,0,1.109,0.371,1.109,1.11v2.373c0,2.627-0.732,4.651-2.197,6.083C32.341,78.181,30.295,78.895,27.665,78.895z"/>
			<path fill="#184191" d="M54.885,78.895h-5.646c-2.664,0-4.711-0.707-6.163-2.123c-1.453-1.412-2.167-3.446-2.167-6.107V54.657
				c0-2.654,0.714-4.691,2.167-6.107c1.452-1.412,3.499-2.123,6.163-2.123h5.646c2.667,0,4.72,0.711,6.163,2.123
				c1.446,1.416,2.176,3.453,2.176,6.107v16.007c0,2.661-0.729,4.695-2.176,6.107C59.604,78.188,57.552,78.895,54.885,78.895z
				 M50.242,73.341h3.592c1.075,0,1.839-0.229,2.293-0.683c0.454-0.455,0.684-1.218,0.684-2.297V54.964
				c0-1.076-0.229-1.843-0.684-2.297c-0.454-0.457-1.218-0.683-2.293-0.683h-3.592c-1.078,0-1.833,0.226-2.271,0.683
				c-0.436,0.454-0.649,1.221-0.649,2.297v15.397c0,1.079,0.214,1.842,0.649,2.297C48.409,73.112,49.164,73.341,50.242,73.341z"/>
			<path fill="#184191" d="M74.078,78.895h-4.293c-0.714,0-1.063-0.355-1.063-1.06V47.493c0-0.711,0.35-1.066,1.063-1.066h12.017
				c2.624,0,4.676,0.727,6.16,2.176c1.48,1.446,2.225,3.483,2.225,6.107v3.938c0,3.808-1.505,6.33-4.497,7.572v0.204l5.396,11.26
				c0.303,0.807,0.021,1.211-0.847,1.211h-4.095c-0.603,0-1.045-0.067-1.311-0.204c-0.272-0.133-0.495-0.42-0.662-0.855
				l-5.047-10.907h-3.381c-0.405,0-0.606,0.186-0.606,0.56v10.348C75.138,78.539,74.783,78.895,74.078,78.895z M75.688,61.778h4.951
				c1.072,0,1.87-0.226,2.374-0.68c0.5-0.458,0.757-1.187,0.757-2.197v-3.938c0-1.042-0.257-1.803-0.757-2.275
				c-0.504-0.47-1.302-0.704-2.374-0.704h-4.951c-0.365,0-0.551,0.182-0.551,0.556v8.682C75.138,61.593,75.323,61.778,75.688,61.778
				z"/>
			<path fill="#184191" d="M95.259,70.615v-1.015c0-0.704,0.355-1.057,1.063-1.057h4.29c0.704,0,1.057,0.353,1.057,1.057v0.408
				c0,1.28,0.25,2.154,0.754,2.627c0.51,0.467,1.435,0.705,2.778,0.705h2.377c1.313,0,2.229-0.25,2.751-0.761
				c0.52-0.5,0.782-1.446,0.782-2.827v-0.6c0-0.978-0.399-1.729-1.184-2.247c-0.798-0.522-1.78-0.835-2.961-0.937
				c-1.175-0.103-2.448-0.294-3.805-0.584c-1.369-0.281-2.634-0.652-3.812-1.11c-1.181-0.451-2.169-1.344-2.958-2.676
				c-0.797-1.326-1.184-3.035-1.184-5.122V54.71c0-2.624,0.739-4.661,2.22-6.107c1.478-1.449,3.532-2.176,6.156-2.176h5.051
				c2.661,0,4.726,0.727,6.212,2.176c1.475,1.446,2.223,3.483,2.223,6.107v0.961c0,0.705-0.353,1.058-1.061,1.058h-4.287
				c-0.717,0-1.066-0.353-1.066-1.058v-0.306c0-1.311-0.253-2.204-0.757-2.677c-0.507-0.47-1.428-0.704-2.778-0.704h-1.963
				c-1.385,0-2.318,0.259-2.813,0.781c-0.485,0.522-0.732,1.539-0.732,3.054v0.962c0,1.585,1.385,2.49,4.142,2.726
				c2.868,0.234,5.408,0.807,7.631,1.715c1.178,0.508,2.16,1.41,2.955,2.702c0.785,1.295,1.187,2.954,1.187,4.973v1.719
				c0,2.624-0.745,4.66-2.226,6.106c-1.483,1.447-3.535,2.173-6.166,2.173h-5.495c-2.624,0-4.686-0.726-6.156-2.173
				C95.997,75.275,95.259,73.239,95.259,70.615z"/>
			<path fill="#184191" d="M126.596,78.895h-4.847c-0.605,0-0.807-0.355-0.605-1.06l7.974-30.342
				c0.238-0.711,0.742-1.066,1.512-1.066h6.723c0.84,0,1.344,0.355,1.511,1.066l7.983,30.342c0.195,0.704,0,1.06-0.611,1.06h-4.844
				c-0.371,0-0.624-0.077-0.757-0.231c-0.136-0.148-0.235-0.427-0.303-0.828l-1.416-5.558h-9.844l-1.416,5.558
				c-0.067,0.401-0.176,0.68-0.321,0.828C127.174,78.817,126.936,78.895,126.596,78.895z M133.914,52.54l-3.635,14.589h7.471
				l-3.632-14.589H133.914z"/>
			<path fill="#184191" d="M158.063,47.493v30.342c0,0.704-0.347,1.06-1.058,1.06h-4.287c-0.701,0-1.06-0.355-1.06-1.06V47.493
				c0-0.711,0.358-1.066,1.06-1.066h4.287C157.716,46.427,158.063,46.782,158.063,47.493z"/>
			<path fill="#184191" d="M169.406,78.895h-4.297c-0.705,0-1.055-0.355-1.055-1.06V47.493c0-0.711,0.35-1.066,1.055-1.066h12.018
				c2.621,0,4.677,0.727,6.154,2.176c1.489,1.446,2.228,3.483,2.228,6.107v3.938c0,3.808-1.502,6.33-4.493,7.572v0.204l5.399,11.26
				c0.303,0.807,0.021,1.211-0.859,1.211h-4.089c-0.6,0-1.042-0.067-1.313-0.204c-0.27-0.133-0.488-0.42-0.649-0.855l-5.05-10.907
				h-3.385c-0.401,0-0.603,0.186-0.603,0.56v10.348C170.467,78.539,170.111,78.895,169.406,78.895z M171.02,61.778h4.952
				c1.069,0,1.866-0.226,2.37-0.68c0.501-0.458,0.754-1.187,0.754-2.197v-3.938c0-1.042-0.253-1.803-0.754-2.275
				c-0.504-0.47-1.301-0.704-2.37-0.704h-4.952c-0.37,0-0.553,0.182-0.553,0.556v8.682C170.467,61.593,170.649,61.778,171.02,61.778
				z"/>
		</g>
	</g>
	<g>
		<path fill="#184191" d="M286.594,89.499c-1.495-1.502-3.931-1.502-5.433,0c-7.258,7.251-16.9,11.244-27.158,11.244
			c-10.268,0-19.904-3.993-27.161-11.244c-2.995-2.995-5.381-6.367-7.174-9.961h-8.426c2.25,5.606,5.632,10.857,10.163,15.389
			c8.709,8.709,20.284,13.506,32.598,13.506c12.31,0,23.888-4.797,32.601-13.506C288.1,93.428,288.1,90.992,286.594,89.499z"/>
		<path fill="#184191" d="M218.781,47.023c1.866-4.303,4.543-8.339,8.061-11.853c7.257-7.258,16.894-11.251,27.161-11.251
			c10.258,0,19.907,3.993,27.158,11.251c1.502,1.499,3.938,1.499,5.433,0c1.506-1.496,1.506-3.938,0-5.431
			c-8.703-8.71-20.281-13.507-32.591-13.507c-12.313,0-23.889,4.797-32.598,13.507c-5.041,5.041-8.664,10.969-10.877,17.283H218.781
			z"/>
	</g>
	<g>
		<g>
			<path fill="#184191" d="M237.949,61.154h1.459c0.634,0,1.094-0.13,1.363-0.39c0.284-0.257,0.423-0.687,0.423-1.276v-1.351
				c0-0.591-0.139-1.017-0.423-1.279c-0.27-0.254-0.729-0.384-1.363-0.384h-1.372c-0.618,0-1.045,0.13-1.298,0.384
				c-0.241,0.263-0.368,0.688-0.368,1.279v0.717c0,0.402-0.204,0.603-0.609,0.603h-2.435c-0.408,0-0.609-0.2-0.609-0.603v-0.775
				c0-1.496,0.414-2.643,1.239-3.446c0.819-0.804,1.994-1.205,3.505-1.205h2.557c1.511,0,2.676,0.401,3.501,1.205
				c0.822,0.804,1.233,1.95,1.233,3.446v1.44c0,1.606-0.757,2.651-2.271,3.131c1.515,0.324,2.271,1.362,2.271,3.128v1.468
				c0,1.489-0.411,2.64-1.233,3.439c-0.825,0.807-1.99,1.209-3.501,1.209h-2.557c-1.511,0-2.686-0.402-3.505-1.209
				c-0.825-0.8-1.239-1.95-1.239-3.439v-0.81c0-0.421,0.201-0.631,0.609-0.631h2.435c0.405,0,0.609,0.21,0.609,0.631v0.751
				c0,0.611,0.127,1.041,0.368,1.288c0.253,0.254,0.68,0.378,1.298,0.378h1.372c0.634,0,1.094-0.137,1.363-0.39
				c0.284-0.26,0.423-0.687,0.423-1.276v-1.409c0-0.597-0.139-1.018-0.423-1.277c-0.27-0.259-0.729-0.386-1.363-0.386h-1.459
				c-0.401,0-0.608-0.204-0.608-0.603v-1.722C237.341,61.367,237.548,61.154,237.949,61.154z"/>
			<path fill="#184191" d="M255.428,71.895h-2.81c-1.521,0-2.687-0.402-3.508-1.209c-0.822-0.8-1.236-1.956-1.236-3.471v-9.105
				c0-1.514,0.414-2.673,1.236-3.477c0.821-0.804,1.987-1.205,3.508-1.205h5.859c0.405,0,0.6,0.203,0.6,0.605v1.978
				c0,0.384-0.194,0.572-0.6,0.572h-5.288c-0.59,0-1.02,0.133-1.276,0.39c-0.26,0.263-0.396,0.698-0.396,1.311v1.922h3.91
				c1.511,0,2.683,0.405,3.502,1.209c0.825,0.804,1.235,1.966,1.235,3.474v2.327c0,1.515-0.41,2.671-1.235,3.471
				C258.11,71.492,256.938,71.895,255.428,71.895z M253.189,68.735h1.639c0.611,0,1.048-0.126,1.307-0.386
				c0.26-0.26,0.387-0.695,0.387-1.308v-1.981c0-0.615-0.127-1.048-0.387-1.307c-0.259-0.26-0.695-0.39-1.307-0.39h-3.311v3.678
				c0,0.612,0.127,1.048,0.38,1.308C252.146,68.609,252.574,68.735,253.189,68.735z"/>
			<path fill="#184191" d="M270.807,71.895h-2.868c-1.515,0-2.683-0.402-3.505-1.209c-0.825-0.8-1.239-1.956-1.239-3.471v-9.105
				c0-1.514,0.414-2.673,1.239-3.477c0.822-0.804,1.99-1.205,3.505-1.205h2.868c1.493,0,2.652,0.407,3.478,1.221
				c0.825,0.815,1.233,1.966,1.233,3.461v9.105c0,1.493-0.408,2.649-1.233,3.462C273.459,71.492,272.3,71.895,270.807,71.895z
				 M268.535,68.735h1.7c0.611,0,1.041-0.126,1.288-0.386c0.251-0.26,0.371-0.695,0.371-1.308v-8.759
				c0-0.612-0.12-1.048-0.371-1.311c-0.247-0.257-0.677-0.39-1.288-0.39h-1.7c-0.603,0-1.045,0.133-1.289,0.39
				c-0.25,0.263-0.377,0.698-0.377,1.311v8.759c0,0.612,0.127,1.048,0.377,1.308C267.49,68.609,267.933,68.735,268.535,68.735z"/>
		</g>
	</g>
	<path fill="#184191" d="M253.956,30.062c-12.177,0-22.8,6.787-28.289,16.773h0.942c5.409-9.52,15.643-15.957,27.347-15.957
		c17.349,0,31.461,14.111,31.461,31.454c0,17.348-14.112,31.457-31.461,31.457c-11.067,0-20.813-5.758-26.419-14.428h-0.968
		c5.693,9.146,15.843,15.243,27.387,15.243c17.8,0,32.273-14.474,32.273-32.272C286.229,44.535,271.756,30.062,253.956,30.062z"/>
</g>
</svg>
