<svg height="58.286" viewBox="0 0 228.254 58.286" width="228.254" xmlns="http://www.w3.org/2000/svg"><g transform="translate(-103.432 -126.762)"><path d="m179.817 141.865c-.883-1.142-2.334-1.781-3.765-1.781-3.499 0-5.811 2.798-5.811 6.34 0 3.282 2.176 6.079 5.811 6.079 1.783 0 3.15-.797 4.076-2.095l1.781 1.345c-.463.638-2.334 2.727-5.903 2.727-4.952 0-8.015-4.139-8.015-8.056 0-4.847 3.33-8.324 8.126-8.324 2.052 0 4.207.771 5.461 2.426z" fill="#673183"/><path d="m186.423 145.364h2.775c1.672 0 3.349-.395 3.349-2.504 0-2.114-1.677-2.513-3.349-2.513h-2.775zm-2.117-6.868h5.484c3.985 0 4.998 2.399 4.998 4.364 0 1.982-1.47 3.85-3.83 4.117l4.422 7.108h-2.637l-3.966-6.87h-2.354v6.87h-2.117z" fill="#673183"/><path d="m210.724 146.295c0-3.414-2.311-6.211-5.875-6.211-3.568 0-5.875 2.797-5.875 6.211 0 3.41 2.307 6.207 5.875 6.207 3.564 0 5.875-2.797 5.875-6.207m-14 0c0-4.63 3.37-8.194 8.125-8.194 4.75 0 8.125 3.564 8.125 8.194 0 4.619-3.375 8.185-8.125 8.185-4.755 0-8.125-3.566-8.125-8.185" fill="#673183"/><path d="m216.032 138.496h9.801v1.983h-7.684v4.885h7.152v1.986h-7.152v6.735h-2.117z" fill="#673183"/><path d="m232.42 140.479h-5.016v-1.983h12.153v1.983h-5.022v13.605h-2.115z" fill="#673183"/><path d="m243.6 143.91h-1.72v-5.414h1.72z" fill="#673183"/><path d="m246.755 150.83c.747 1.14 2.045 1.673 3.301 1.673 1.384 0 3.106-.882 3.106-2.599 0-3.591-7.69-1.366-7.69-7.44 0-1.832 1.543-4.363 5.287-4.363 1.694 0 3.329.351 4.495 1.787l-1.72 1.561c-.53-.817-1.562-1.365-2.775-1.365-2.334 0-3.037 1.412-3.037 2.38 0 3.937 7.684 1.587 7.684 7.199 0 3.013-2.424 4.817-5.42 4.817-2.003 0-3.914-.682-4.971-2.155z" fill="#673183"/><g fill="#e36d37"><path d="m177.638 167.605-2.904-7.151h-.045l-2.953 7.151zm-3.785-9.882h1.91l6.678 15.583h-2.469l-1.561-3.849h-7.42l-1.541 3.849h-2.468z"/><path d="m194.762 161.092c-.886-1.143-2.335-1.787-3.771-1.787-3.5 0-5.808 2.798-5.808 6.343 0 3.28 2.176 6.076 5.808 6.076 1.786 0 3.15-.791 4.073-2.089l1.787 1.339c-.466.643-2.334 2.727-5.902 2.727-4.956 0-8.014-4.132-8.014-8.053 0-4.846 3.325-8.321 8.121-8.321 2.051 0 4.207.773 5.465 2.425z"/><path d="m209.81 161.092c-.887-1.143-2.333-1.787-3.77-1.787-3.5 0-5.808 2.798-5.808 6.343 0 3.28 2.177 6.076 5.808 6.076 1.786 0 3.151-.791 4.074-2.089l1.787 1.339c-.464.643-2.335 2.727-5.905 2.727-4.953 0-8.011-4.132-8.011-8.053 0-4.846 3.327-8.321 8.121-8.321 2.051 0 4.206.773 5.464 2.425z"/><path d="m227.028 165.516c0-3.413-2.308-6.211-5.873-6.211-3.571 0-5.88 2.798-5.88 6.211 0 3.412 2.309 6.208 5.88 6.208 3.565 0 5.873-2.796 5.873-6.208m-14.002 0c0-4.621 3.371-8.188 8.129-8.188 4.752 0 8.121 3.567 8.121 8.188 0 4.62-3.369 8.186-8.121 8.186-4.758 0-8.129-3.566-8.129-8.186"/><path d="m234.213 157.723v9.553c0 1.937.97 4.448 3.92 4.448 2.944 0 3.915-2.511 3.915-4.448v-9.553h2.114v9.882c0 3.616-2.619 6.097-6.029 6.097-3.419 0-6.035-2.481-6.035-6.097v-9.882z"/><path d="m247.944 157.723h2.774l8.59 12.814h.041v-12.814h2.115v15.583h-2.686l-8.672-12.808h-.047v12.808h-2.115z"/><path d="m268.714 159.701h-5.017v-1.978h12.15v1.978h-5.016v13.605h-2.117z"/><path d="m285.359 167.605-2.907-7.151h-.045l-2.948 7.151zm-3.785-9.882h1.913l6.672 15.583h-2.468l-1.561-3.849h-7.418l-1.543 3.849h-2.469z"/><path d="m292.268 157.723h2.774l8.587 12.814h.041v-12.814h2.113v15.583h-2.686l-8.667-12.808h-.047v12.808h-2.115z"/><path d="m313.038 159.701h-5.02v-1.978h12.152v1.978h-5.016v13.605h-2.116z"/><path d="m323.03 170.053c.748 1.144 2.05 1.671 3.304 1.671 1.383 0 3.104-.88 3.104-2.599 0-3.59-7.686-1.367-7.686-7.439 0-1.827 1.542-4.359 5.286-4.359 1.695 0 3.327.351 4.492 1.782l-1.719 1.561c-.531-.811-1.564-1.365-2.773-1.365-2.333 0-3.039 1.414-3.039 2.381 0 3.937 7.687 1.586 7.687 7.202 0 3.015-2.426 4.813-5.42 4.813-2.004 0-3.914-.682-4.976-2.154z"/></g><path d="m161.721 155.904c0 16.099-13.052 29.144-29.149 29.144-16.088 0-29.14-13.045-29.14-29.144 0-16.096 13.052-29.142 29.14-29.142 16.097 0 29.149 13.046 29.149 29.142" fill="#673183"/><path d="m143.733 177.409-26.638-15.381v-12.247l26.638 15.378z" fill="#e36d37"/><path d="m143.733 134.4-26.638 15.381v12.247l26.638-15.379z" fill="#fefefe"/></g></svg>