<svg enable-background="new 0 0 170.079 68.751" height="68.751" viewBox="0 0 170.079 68.751" width="170.079" xmlns="http://www.w3.org/2000/svg"><g fill="#331b4e"><path d="m75.798 3.027v2.5c-1.131.122-2.262.243-3.393.361v8.649c-.892.093-1.784.185-2.676.275 0-2.883 0-5.766 0-8.649-1.115.113-2.23.223-3.345.33 0-.833 0-1.667 0-2.5 3.139-.301 6.277-.627 9.414-.966z"/><path d="m89.923 1.458v11.149c-.892.099-1.784.198-2.676.298 0-1.444 0-2.889 0-4.333-1.391.155-2.782.312-4.173.467v4.333c-.892.1-1.784.199-2.676.298 0-3.716 0-7.433 0-11.149.892-.099 1.784-.199 2.676-.298v4.316c1.391-.156 2.782-.312 4.173-.467 0-1.439 0-2.878 0-4.316.892-.1 1.784-.199 2.676-.298z"/><path d="m103.932 8.639v2.501c-2.734.261-5.47.542-8.204.834 0-3.717 0-7.433 0-11.149 2.702-.289 5.405-.566 8.107-.825v2.5c-1.811.173-3.621.355-5.432.543v1.832c1.418-.147 2.837-.291 4.255-.429v2.342c-1.418.138-2.837.282-4.255.429v1.975c1.843-.192 3.686-.377 5.529-.553z"/><path d="m52.672 60.803c-.27-.971-1.131-1.378-1.926-1.333-.797.045-1.258.468-1.258.915 0 .731 1.113.944 2.467 1.355 1.657.504 3.393 1.32 3.393 3.231 0 2.038-1.751 3.618-4.348 3.77-2.326.135-3.982-1.084-4.713-3.14.854-.264 1.708-.532 2.562-.804.287.829 1.083 1.633 2.263 1.564.955-.057 1.401-.532 1.401-1.074 0-.892-1.306-1.031-2.898-1.55-1.339-.437-2.883-1.102-2.883-3.062 0-1.736 1.752-3.385 4.173-3.525 2.134-.124 3.824 1.062 4.348 2.778-.862.296-1.721.587-2.581.875z"/><path d="m68.862 55.912v2.501c-1.131.113-2.262.223-3.394.33v8.648c-.892.084-1.783.166-2.675.245 0-2.883 0-5.766 0-8.648-1.116.1-2.231.195-3.347.286 0-.833 0-1.667 0-2.501 3.139-.256 6.278-.547 9.416-.861z"/><path d="m83.198 54.371v6.196c0 3.344-1.976 5.399-4.921 5.723-2.964.326-4.924-1.3-4.924-4.645 0-2.065 0-4.131 0-6.196.893-.095 1.785-.19 2.678-.287v6.133c0 1.911.78 2.655 2.246 2.494 1.464-.161 2.245-1.076 2.245-2.987 0-2.044 0-4.088 0-6.133.892-.099 1.784-.198 2.676-.298z"/><path d="m93.721 53.202c3.187-.347 5.767 1.668 5.767 5.014 0 3.345-2.58 5.789-5.767 6.136-1.624.176-3.249.356-4.873.537 0-3.717 0-7.433 0-11.149 1.624-.182 3.249-.362 4.873-.538zm0 8.649c1.595-.173 2.979-1.435 2.979-3.346 0-1.912-1.385-2.976-2.979-2.803-.732.08-1.464.16-2.196.24v6.148c.732-.079 1.463-.159 2.196-.239z"/><path d="m104.629 63.235c0-3.717 0-7.433 0-11.149.893-.084 1.784-.166 2.677-.246v11.149c-.893.08-1.785.162-2.677.246z"/><path d="m118.232 50.789c3.201-.196 5.798 2.14 5.798 5.5 0 3.361-2.597 5.899-5.798 6.096-3.202.195-5.781-2.036-5.781-5.397s2.579-6.005 5.781-6.199zm0 8.951c1.816-.11 3.01-1.458 3.01-3.322 0-1.879-1.193-3.095-3.01-2.985-1.801.11-2.994 1.47-2.994 3.349 0 1.864 1.194 3.068 2.994 2.958z"/><path d="m12.956 22.077c7.918 1.026 14.331 6.857 14.331 15.187 0 8.296-6.413 13.55-14.331 12.524-4.037-.523-8.075-1.209-12.112-2.087 0-9.237 0-18.474 0-27.711 4.037.878 8.074 1.564 12.112 2.087zm0 21.495c3.959.517 7.403-1.992 7.403-6.74 0-4.752-3.444-8.022-7.403-8.539-1.821-.236-3.642-.505-5.462-.81v15.279c1.82.305 3.641.574 5.462.81z"/><path d="m54.444 46.144c-3.655.25-7.31.444-10.965.56-.528 1.469-1.056 2.936-1.584 4.401-2.388.061-4.776.088-7.164.074 3.694-9.216 7.389-18.528 11.083-27.915 2.098-.085 4.196-.194 6.294-.323 3.695 9.009 7.39 17.956 11.084 26.86-2.388.215-4.777.412-7.165.586-.527-1.413-1.055-2.828-1.583-4.243zm-2.138-5.68c-.66-1.753-1.319-3.509-1.979-5.266-.593-1.551-1.306-4.008-1.345-4.006-.013 0-.027.001-.04.002-.04.002-.751 2.533-1.345 4.145-.66 1.825-1.32 3.648-1.979 5.469 2.229-.089 4.459-.205 6.688-.344z"/><path d="m98.425 18.34v27.711c-2.085.216-4.171.441-6.256.669-1.888-2.366-3.774-4.729-5.662-7.091-2.532-3.2-6.253-8.049-6.293-8.045-.013.001-.026.003-.04.004-.038.004.04 4.271.04 10.328v6.137c-2.216.246-4.433.489-6.649.724 0-9.237 0-18.474 0-27.711 2.085-.221 4.169-.449 6.254-.68 1.966 2.421 3.933 4.839 5.899 7.258 1.78 2.174 6.016 7.683 6.055 7.68.013-.001.026-.002.039-.004.041-.005-.039-4.906-.039-9.933 0-2.111 0-4.223 0-6.334 2.217-.243 4.434-.483 6.652-.713z"/><path d="m130.537 24.754c-1.267-1.565-3.641-2.5-5.818-2.413-4.592.183-7.442 3.678-7.442 8.223 0 4.794 3.128 7.544 7.442 7.375 2.653-.105 5.186-1.501 6.334-3.415 2.243.55 4.485 1.132 6.729 1.751-2.295 4.865-7.244 8.081-13.062 8.314-7.957.314-14.37-5.151-14.37-13.517 0-8.341 6.413-14.988 14.37-15.302 5.463-.218 10.133 2.722 12.588 7.197-2.258.561-4.514 1.158-6.771 1.787z"/><path d="m169.473 41.164v6.216c-6.795-1.491-13.591-2.438-20.386-2.972 0-9.237 0-18.474 0-27.711 6.717.528 13.433 1.459 20.149 2.92v6.216c-4.5-.979-9-1.72-13.5-2.261v4.552c3.523.424 7.047.97 10.57 1.657v5.818c-3.523-.687-7.047-1.233-10.57-1.657v4.909c4.579.551 9.158 1.309 13.737 2.313z"/></g><path d="m33.589 31.561c.39 1.203.779 2.405 1.169 3.605 1.259.007 2.519.002 3.778-.012-1.019.752-2.038 1.497-3.056 2.234.389 1.199.778 2.397 1.167 3.594-1.02-.737-2.039-1.481-3.058-2.233-1.02.729-2.04 1.451-3.06 2.165.39-1.188.779-2.377 1.169-3.567-1.02-.761-2.039-1.529-3.058-2.305 1.26.045 2.52.078 3.779.099.39-1.192.78-2.386 1.17-3.58z" fill="#ce0767"/><path d="m65.769 29.955c.389 1.162.779 2.323 1.168 3.483 1.26-.122 2.52-.248 3.779-.377-1.02.845-2.039 1.687-3.058 2.527.39 1.16.78 2.319 1.169 3.479-1.02-.639-2.039-1.28-3.059-1.924-1.02.837-2.04 1.671-3.06 2.503.389-1.233.778-2.466 1.167-3.7-1.019-.647-2.038-1.297-3.057-1.95 1.26-.107 2.521-.219 3.781-.336.392-1.235.781-2.47 1.17-3.705z" fill="#ce0767"/><path d="m104.385 25.85c.39 1.162.78 2.324 1.17 3.486 1.26-.117 2.519-.229 3.778-.335-1.02.826-2.038 1.656-3.058 2.489.39 1.163.778 2.326 1.168 3.49-1.02-.65-2.039-1.297-3.059-1.941-1.02.837-2.04 1.677-3.06 2.519.39-1.237.78-2.474 1.17-3.71-1.02-.64-2.039-1.277-3.059-1.913 1.26-.129 2.521-.255 3.78-.376.391-1.238.78-2.474 1.17-3.709z" fill="#ce0767"/><path d="m142.47 24.405c.39 1.214.779 2.43 1.169 3.647 1.26.06 2.519.133 3.778.219-1.019.67-2.038 1.349-3.057 2.036.39 1.218.778 2.438 1.168 3.659-1.02-.8-2.039-1.591-3.059-2.373-1.02.698-2.04 1.405-3.06 2.12.39-1.188.78-2.375 1.17-3.562-1.02-.772-2.039-1.536-3.059-2.292 1.26.021 2.52.052 3.779.096.391-1.184.781-2.368 1.171-3.55z" fill="#ce0767"/><path d="m166.5 59.829c-.466-.091-.842-.541-.842-1.004 0-.468.376-.771.842-.679.911.179 1.823.368 2.734.566.466.101.845.561.845 1.028 0 .464-.379.756-.845.655-.911-.198-1.823-.387-2.734-.566zm-6.136-1.066c-.468-.071-.843-.503-.843-.967 0-.468.375-.788.843-.716 1.022.155 2.045.321 3.067.499.465.081.844.523.844.991 0 .464-.379.773-.844.693-1.022-.179-2.044-.345-3.067-.5zm-6.137-.803c-.467-.052-.842-.469-.842-.933 0-.468.375-.803.842-.751 1.023.113 2.046.236 3.069.37.463.061.842.486.842.954 0 .464-.379.79-.842.729-1.024-.133-2.046-.256-3.069-.369zm-6.136-.56c-.468-.034-.843-.437-.843-.901 0-.468.375-.817.843-.783 1.022.074 2.045.158 3.067.251.463.043.842.453.842.921 0 .464-.379.805-.842.763-1.022-.093-2.045-.177-3.067-.251zm-6.138-.34c-.465-.018-.842-.408-.842-.872 0-.468.377-.829.842-.812 1.022.04 2.046.087 3.068.144.464.026.843.423.843.891 0 .464-.379.819-.843.793-1.022-.057-2.045-.104-3.068-.144zm-6.139-.14c-.465-.004-.841-.383-.841-.847 0-.468.376-.841.841-.837 1.023.008 2.047.023 3.07.046.463.011.842.395.842.863 0 .464-.379.832-.842.821-1.023-.023-2.046-.038-3.07-.046zm-6.135.038c-.464.009-.843-.36-.843-.824 0-.467.379-.851.843-.859 1.022-.02 2.046-.033 3.068-.04.465-.003.843.37.843.838 0 .464-.378.843-.843.846-1.022.005-2.046.019-3.068.039z" fill="#331b4e"/><path d="m37.666 64.243c-.466.003-.844-.373-.844-.836 0-.466.378-.846.844-.85.911-.007 1.822-.02 2.732-.038.466-.009.845.361.845.827 0 .463-.378.85-.845.858-.91.02-1.821.032-2.732.039zm-6.136-.039c-.468-.01-.847-.398-.847-.861 0-.466.379-.835.847-.825 1.021.021 2.043.035 3.065.042.466.003.845.382.845.848 0 .463-.379.84-.845.837-1.021-.006-2.043-.019-3.065-.041zm-6.137-.226c-.466-.025-.845-.425-.845-.888 0-.466.379-.823.845-.798 1.023.055 2.045.1 3.068.138.462.017.841.408.841.874 0 .463-.379.829-.841.812-1.023-.038-2.045-.084-3.068-.138zm-6.138-.436c-.466-.042-.845-.456-.845-.918 0-.466.379-.809.845-.768 1.023.091 2.046.173 3.069.245.463.033.842.437.842.902 0 .463-.379.816-.842.783-1.023-.071-2.046-.153-3.069-.244zm-6.136-.666c-.468-.06-.842-.488-.842-.951 0-.466.374-.794.842-.734 1.022.131 2.045.252 3.068.363.463.05.841.468.841.934 0 .463-.378.802-.841.752-1.022-.111-2.045-.232-3.068-.364zm-6.138-.917c-.466-.08-.845-.525-.845-.988 0-.466.379-.777.845-.697 1.022.175 2.045.338 3.068.491.463.069.842.502.842.968 0 .463-.379.787-.842.717-1.023-.153-2.046-.316-3.068-.491zm-6.137-1.191c-.466-.102-.842-.564-.842-1.027 0-.466.375-.76.842-.659 1.023.222 2.046.433 3.069.631.463.09.841.54.841 1.005 0 .463-.378.77-.841.68-1.023-.197-2.046-.408-3.069-.63z" fill="#331b4e"/><path d="m57.975 11.148c-.466.036-.843-.314-.843-.778 0-.467.377-.874.843-.91.842-.066 1.683-.134 2.525-.205.464-.039.843.308.843.774 0 .464-.379.875-.843.915-.842.07-1.684.139-2.525.204zm-5.715.402c-.466.029-.841-.328-.841-.792 0-.467.375-.868.841-.897.953-.059 1.906-.123 2.859-.189.464-.033.843.318.843.785 0 .464-.379.871-.843.903-.953.068-1.906.131-2.859.19zm-5.712.302c-.464.021-.843-.343-.843-.808 0-.467.379-.86.843-.881.953-.041 1.906-.087 2.858-.138.463-.024.843.333.843.8 0 .464-.38.864-.843.889-.952.051-1.906.097-2.858.138zm-5.712.186c-.466.01-.843-.362-.843-.826 0-.467.377-.853.843-.862.952-.02 1.904-.046 2.855-.077.464-.015.843.35.843.817 0 .464-.379.857-.843.872-.951.03-1.903.056-2.855.076zm-5.712.051c-.468-.001-.846-.384-.846-.848 0-.467.378-.843.846-.841.951.004 1.903.001 2.854-.008.464-.004.843.37.843.836 0 .464-.379.848-.843.852-.952.01-1.903.013-2.854.009zm-5.715-.1c-.468-.015-.843-.408-.843-.872 0-.467.375-.832.843-.817.952.03 1.904.054 2.855.07.466.008.846.392.846.858 0 .464-.38.838-.846.83-.951-.016-1.903-.039-2.855-.069zm-5.714-.269c-.466-.029-.843-.434-.843-.898 0-.467.377-.82.843-.791.952.06 1.904.112 2.855.157.468.022.843.417.843.883 0 .464-.375.827-.843.805-.951-.044-1.904-.096-2.855-.156zm-5.715-.456c-.466-.045-.842-.463-.842-.926 0-.467.375-.807.842-.762.953.093 1.906.177 2.859.252.464.037.843.444.843.911 0 .464-.378.815-.843.778-.953-.076-1.905-.16-2.859-.253zm-5.712-.659c-.465-.062-.843-.495-.843-.958 0-.467.378-.792.843-.73.953.128 1.906.247 2.859.356.463.053.841.473.841.94 0 .464-.378.802-.841.749-.954-.11-1.906-.229-2.859-.357zm-5.711-.878c-.467-.082-.844-.529-.844-.993 0-.467.377-.777.844-.696.951.166 1.903.322 2.855.468.462.071.843.506.843.973 0 .464-.38.787-.843.716-.952-.147-1.904-.303-2.855-.468zm-5.715-1.119c-.467-.101-.842-.565-.842-1.028 0-.467.375-.761.842-.66.952.207 1.904.403 2.855.589.465.091.844.541.844 1.008 0 .464-.378.771-.843.681-.952-.186-1.905-.383-2.856-.59z" fill="#331b4e"/><path d="m166.713 7.71c-.466-.092-.845-.542-.845-1.006 0-.468.379-.771.845-.678.841.167 1.681.341 2.521.524.466.102.845.562.845 1.029 0 .464-.379.756-.845.655-.84-.183-1.68-.358-2.521-.524zm-5.715-1.01c-.468-.073-.843-.507-.843-.971 0-.468.375-.787.843-.713.952.148 1.903.307 2.855.475.463.082.847.527.847.995 0 .464-.384.771-.847.689-.952-.169-1.903-.327-2.855-.475zm-5.713-.781c-.467-.055-.843-.474-.843-.938 0-.468.376-.801.843-.747.952.112 1.904.232 2.856.362.464.063.843.493.843.96 0 .463-.379.788-.843.724-.952-.128-1.904-.249-2.856-.361zm-5.713-.566c-.468-.038-.847-.445-.847-.909 0-.468.379-.814.847-.776.952.078 1.903.164 2.855.258.465.046.844.461.844.928 0 .464-.379.802-.844.756-.951-.093-1.903-.179-2.855-.257zm-5.716-.371c-.466-.022-.842-.417-.842-.881 0-.468.376-.826.842-.804.952.046 1.905.101 2.857.162.466.03.845.432.845.899 0 .464-.379.815-.845.785-.951-.06-1.904-.115-2.857-.161zm-5.71-.192c-.468-.009-.843-.392-.843-.856 0-.468.375-.838.843-.829.952.018 1.903.043 2.855.075.468.016.847.405.847.873 0 .464-.379.827-.847.812-.952-.032-1.903-.057-2.855-.075zm-5.713-.031c-.468.003-.844-.37-.844-.834 0-.468.376-.847.844-.851.952-.007 1.903-.008 2.855-.003.464.002.843.381.843.849 0 .464-.379.838-.843.836-.952-.006-1.903-.005-2.855.003zm-5.716.113c-.465.015-.844-.35-.844-.814 0-.468.379-.856.844-.871.953-.03 1.905-.054 2.858-.073.465-.009.844.36.844.828 0 .464-.379.848-.844.857-.953.018-1.905.043-2.858.073zm-5.713.239c-.467.024-.842-.333-.842-.797 0-.468.375-.863.842-.888.952-.049 1.905-.094 2.857-.134.465-.02.844.341.844.809 0 .464-.379.856-.844.876-.952.04-1.905.085-2.857.134zm-5.712.348c-.467.033-.843-.318-.843-.782 0-.468.376-.87.843-.902.952-.066 1.903-.128 2.855-.187.464-.028.843.325.843.792 0 .464-.379.864-.843.892-.952.059-1.903.121-2.855.187zm-5.712.44c-.469.039-.844-.306-.844-.77 0-.468.375-.875.844-.915.952-.08 1.903-.157 2.855-.23.464-.036.843.311.843.779 0 .464-.379.87-.843.906-.952.073-1.903.15-2.855.23z" fill="#331b4e"/></svg>