<svg xmlns="http://www.w3.org/2000/svg" viewBox="0 0 970 181" width="970" height="181"><g fill="none" fill-rule="evenodd"><path fill="#101924" d="M246.765 78.247h24.748c-1.027-6.35-5.79-10.458-12.327-10.458-6.631 0-11.394 4.015-12.421 10.458m38.197 8.498h-38.01c1.4 6.256 6.723 10.085 14.382 10.085 5.324 0 9.152-1.589 12.608-4.857l7.751 8.404c-4.67 5.323-11.674 8.124-20.733 8.124-17.37 0-28.671-10.925-28.671-25.865 0-15.034 11.487-25.865 26.803-25.865 14.756 0 26.15 9.897 26.15 26.05 0 1.122-.187 2.71-.28 3.924M346.324 78.994v28.76h-14.57V81.235c0-8.124-3.735-11.86-10.179-11.86-7.005 0-12.048 4.296-12.048 13.541v24.838h-14.569V57.517h13.915V63.4c3.923-4.294 9.807-6.629 16.625-6.629 11.86 0 20.826 6.91 20.826 22.224M410.115 57.517v50.237h-13.823v-5.977c-3.828 4.389-9.432 6.723-15.596 6.723-12.609 0-21.48-7.096-21.48-22.596V57.517h14.569v26.24c0 8.403 3.736 12.138 10.18 12.138 6.724 0 11.58-4.295 11.58-13.54V57.517h14.57ZM419.924 82.636c0-15.127 11.674-25.866 28.017-25.866 10.554 0 18.865 4.575 22.508 12.793l-11.3 6.07c-2.709-4.763-6.725-6.91-11.3-6.91-7.378 0-13.169 5.136-13.169 13.913 0 8.777 5.79 13.912 13.168 13.912 4.576 0 8.592-2.053 11.3-6.91l11.301 6.164c-3.643 8.03-11.954 12.699-22.508 12.699-16.343 0-28.017-10.738-28.017-25.865M529.475 57.517v50.237h-13.822v-5.977c-3.829 4.389-9.433 6.723-15.597 6.723-12.608 0-21.48-7.096-21.48-22.596V57.517h14.57v26.24c0 8.403 3.735 12.138 10.18 12.138 6.723 0 11.58-4.295 11.58-13.54V57.517h14.57ZM584.394 96.548v11.206h-44.828v-8.777l25.589-30.255h-24.937V57.517h43.335v8.777l-25.589 30.254zM629.787 82.636c0-8.684-5.51-13.913-12.796-13.913-7.284 0-12.887 5.229-12.887 13.913 0 8.684 5.603 13.912 12.887 13.912 7.286 0 12.796-5.228 12.796-13.912m-40.439 0c0-15.127 11.673-25.866 27.643-25.866s27.551 10.739 27.551 25.866c0 15.127-11.58 25.865-27.55 25.865s-27.644-10.738-27.644-25.865M702.73 57.517l-22.695 53.318c-4.855 12.14-11.767 15.782-20.826 15.782-5.137 0-10.74-1.681-14.01-4.577l5.324-10.365c2.242 1.961 5.324 3.176 8.219 3.176 4.016 0 6.257-1.775 8.219-6.257l.186-.467-21.76-50.61h15.036L674.525 91.6l14.196-34.083h14.009ZM759.327 57.517v50.237h-13.822v-5.977c-3.829 4.389-9.432 6.723-15.597 6.723-12.607 0-21.48-7.096-21.48-22.596V57.517h14.57v26.24c0 8.403 3.735 12.138 10.18 12.138 6.724 0 11.58-4.295 11.58-13.54V57.517h14.57ZM824.239 78.994v28.76h-14.57V81.235c0-8.124-3.736-11.86-10.18-11.86-7.004 0-12.047 4.296-12.047 13.541v24.838h-14.57V57.517h13.917V63.4c3.922-4.294 9.806-6.629 16.623-6.629 11.86 0 20.827 6.91 20.827 22.224"/><path fill="#101924" fill-rule="nonzero" d="M834.866 105.234c.124 1.868 1.53 3.18 3.389 3.18 1.947 0 3.399-1.44 3.399-3.45 0-2.009-1.397-3.345-3.399-3.345-1.911 0-3.27 1.217-3.39 3.075l-.008.27.009.27ZM865.954 81.237c4.834.127 8.61 1.95 10.714 5.082l.048.073-3.972 2.083-.106-.136c-1.85-2.265-4.371-3.44-7.282-3.44-5.604 0-9.672 3.99-9.672 9.924 0 5.933 4.068 9.924 9.672 9.924l.438-.01c2.753-.109 5.11-1.262 6.858-3.429l.096-.126 3.957 2.107-.037.059c-2.198 3.21-6.203 5.067-11.256 5.067-9.002 0-15.262-5.637-15.262-13.592 0-7.955 6.26-13.593 15.262-13.593l.542.007ZM896.908 81.23c-8.31 0-14.248 5.443-14.465 13.154l-.006.439.006.439c.217 7.71 6.156 13.153 14.465 13.153 8.454 0 14.417-5.637 14.417-13.592 0-7.955-5.963-13.593-14.417-13.593Zm0 3.669c5.244 0 9.002 3.84 9.178 9.506l.007.418-.007.418c-.176 5.666-3.934 9.506-9.178 9.506-5.378 0-9.238-4.038-9.238-9.924 0-5.887 3.86-9.924 9.238-9.924ZM969.436 92.561c-.165-7.41-4.035-11.133-10.634-11.133-3.805 0-7.129 1.446-9.258 3.932l-.283.346-1.473 1.88-1.294-2.007c-1.745-2.707-4.722-4.15-8.498-4.15-3.27 0-6.027 1.063-7.907 3.02l-.289.317-2.981 3.424-.001-6.314h-4.957v26.736h5.35V95.189c0-5.86 3.067-9.417 7.94-9.59l.378-.008c4.634 0 7.274 3.018 7.413 8.363l.006.45v14.208h5.349l.001-13.423c0-5.87 3.075-9.417 7.991-9.59l.382-.008c4.56 0 7.27 3.06 7.414 8.366l.006.448v14.207h5.35V93.06l-.005-.5Z"/><path stroke="#BB14EA" stroke-linecap="round" stroke-linejoin="round" stroke-width="13.6" d="M175.173 104.777v6.166a11.9 11.9 0 0 1-9.265 11.604l-21.737 4.935a8.5 8.5 0 0 0-6.618 8.29v36.501a1.7 1.7 0 0 1-2.993 1.103l-26.777-31.38a8.5 8.5 0 0 0-8.155-2.812l-37.7 7.643c-13.305 2.697-26.39-5.501-29.766-18.65L9.557 40.148c-3.503-13.64 4.715-27.538 18.356-31.04a25.5 25.5 0 0 1 8.827-.68l116.944 11.45a17 17 0 0 1 15.318 15.999l1.466 27.03c.473 8.712-5.727 16.367-14.347 17.716l-68.115 10.66a40.363 40.363 0 0 1-30.92-7.938h0"/><path fill="#B620E0" d="M78.965 58.804c2.7-.07 4.889 2.084 4.889 4.808 0 2.725-2.19 5.064-4.89 5.223-2.7.16-4.889-1.994-4.889-4.808s2.19-5.153 4.89-5.223Zm12.034-13.152c2.7.05 4.89 2.21 4.89 4.825 0 2.616-2.19 4.767-4.89 4.807-2.7.04-4.89-2.12-4.89-4.825A4.786 4.786 0 0 1 91 45.652Zm-24.07-.443c2.702.05 4.89 2.389 4.89 5.224 0 2.836-2.188 5.166-4.89 5.206-2.7.04-4.889-2.298-4.889-5.225 0-2.924 2.19-5.255 4.89-5.205Zm12.036-12.037c2.7.16 4.889 2.497 4.889 5.223 0 2.724-2.19 4.877-4.89 4.808-2.7-.07-4.889-2.409-4.889-5.223 0-2.816 2.19-4.967 4.89-4.808ZM131.712 56.915c1.897-.05 3.436 1.489 3.436 3.435s-1.539 3.616-3.436 3.73c-1.898.114-3.437-1.424-3.437-3.434 0-2.01 1.54-3.68 3.437-3.73Zm8.458-9.394c1.898.036 3.436 1.579 3.436 3.446 0 1.869-1.538 3.405-3.436 3.433-1.898.029-3.437-1.513-3.437-3.446 0-1.931 1.54-3.469 3.437-3.433Zm-16.917-.317c1.898.036 3.436 1.707 3.436 3.731 0 2.027-1.537 3.69-3.436 3.719-1.898.028-3.437-1.641-3.437-3.731s1.54-3.755 3.437-3.719Zm8.459-8.597c1.897.113 3.436 1.783 3.436 3.73 0 1.946-1.539 3.484-3.436 3.434-1.898-.05-3.437-1.72-3.437-3.73 0-2.011 1.54-3.548 3.437-3.434Z"/></g></svg>