<svg height="56" viewBox="0 0 349 56" width="349" xmlns="http://www.w3.org/2000/svg"><g fill-rule="evenodd" transform="translate(0 -2)"><text font-family="Helvetica" font-size="45"><tspan x="66" y="44">evilfactorylabs</tspan></text><path d="m50.4705882 42.2422145v-.8913494-8.4355248-4.4955018-13.7190311l-11.4248366 5.6452134-10.5098039 5.1801614c-.0784314-.5167243-.3006536-.9817762-.6405229-1.3564013l10.4705883-5.1672434 9.7124183-4.7926182h-19.6601307c.0915032-.2583622.1307189-.5296425.1307189-.8138409 0-.245444-.0261438-.47797-.0915033-.6975778h19.8562092l-9.9477124-4.90888122-12.379085-6.11026529-12.3660131 6.11026529-9.96078428 4.90888122h19.88235298c-.0653595.2196078-.1045752.4521338-.1045752.6975778 0 .2841984.0522876.5554787.130719.8138409h-19.66013077l9.71241827 4.7926182 10.4705883 5.1672434c-.3267974.3746251-.5620915.839677-.627451 1.3693194l-10.5228758-5.1930795-11.42483663-5.6452134v13.7190311 4.4955018 8.4226066.9042676l.74509804.3617071 2.94117647 1.4468281 1.29411765.6459054 7.12418297 3.5137255 11.6078432 5.7356402v-25.6682815c.248366.0645906.496732.116263.7712418.116263.2614379 0 .5228758-.0516724.7581699-.116263v25.6682815l11.6078432-5.7356402 10-4.9347174 1.3594771-.6717416zm-23.7124183-26.4433679v7.6604383c-.2352941-.0775087-.496732-.116263-.7581699-.116263-.2745098 0-.5228758.0387543-.7712418.116263v-7.6604383c.248366.0775086.496732.116263.7712418.116263.2614379 0 .5228758-.0387544.7581699-.116263zm-.4313725-15.63091119 12.7189542 6.27820069 6.0392157 2.98408305 1.3594771.67174165 5.2679739 2.5965398.2875817.1420992v1.1109573 12.1301038 3.6687428 1.8214533 9.9211072 1.666436l-.2352941.116263-1.2941177.6459054-2.1045751 1.0334487-9.3202615 4.5988466-12.7058823 6.2782007-.3398693.1679354-.3398693-.1679354-12.7189542-6.2782007-6.44444447-3.1778547-1.89542484-.9430219-.45751634-.2196078-2.62745098-1.2918109-1.51633987-.7621684v-.95594-12.1946943-6.7044983-1.9377163-7.4149942-1.1238754l.2745098-.1291811 5.1633987-2.5577855 1.35947712-.67174163 6.14379088-3.02283737 12.7058823-6.27820069.3398693-.16793541zm1.620915 14.85582469 6.9411765 10.7607843 6.9542484 10.7607843c-.509804.1291811-.9542484.4133795-1.2810458.8009227l-6.9542484-10.7607843-6.9411764-10.7607843c.5098039-.1291811.9542483-.4133795 1.2810457-.8009227zm12.1176471 24.7123414h-14.0653595-14.0784314c.0784314-.2454441.1176471-.4908881.1176471-.7621684 0-.2583622-.0392157-.5167243-.1176471-.7492503h14.0784314 14.0653595c-.0784314.232526-.1176471.4908881-.1176471.7492503 0 .2712803.0392157.5167243.1176471.7621684zm-29.9084968-3.1907728 6.9411765-10.7607843 6.9411765-10.7607843c.3398693.3875432.7843137.6717416 1.2810457.8009227l-6.9411764 10.7607843-6.9411765 10.7607843c-.3267974-.3875432-.7712418-.6717416-1.2810458-.8009227zm-.67973852-.6717416c.87581702 0 1.66013072.3487889 2.23529412.9042676.5620915.5683967.9150327 1.3434832.9150327 2.1960784 0 .8655133-.3529412 1.6405998-.9150327 2.1960784v.0129181c-.5751634.5554787-1.3594771.9042676-2.23529412.9042676-.8627451 0-1.64705882-.3487889-2.22222222-.9042676v-.0129181c-.5751634-.5554786-.92810457-1.3305651-.92810457-2.1960784 0-.8525952.35294117-1.6276817.92810457-2.1960784.5751634-.5554787 1.35947712-.9042676 2.22222222-.9042676zm1.39869282 1.7310265c-.3529412-.3487889-.8496732-.5683968-1.39869282-.5683968-.53594771 0-1.03267974.2196079-1.38562091.5683968-.35294118.3487889-.5751634.8396771-.5751634 1.3693195 0 .5425606.22222222 1.0205306.5751634 1.3822376.35294117.3487889.8496732.5554787 1.38562091.5554787.54901962 0 1.04575162-.2066898 1.39869282-.5554787.3529412-.361707.5751634-.839677.5751634-1.3822376 0-.5296424-.2222222-1.0205306-.5751634-1.3693195zm15.124183-14.8558247c.8627451 0 1.6470588.348789 2.2222222.9171857.5751634.5683968.9281046 1.3434833.9281046 2.1960785 0 .8525951-.3529412 1.6405997-.9281046 2.1960784-.5751634.5683968-1.3594771.9171857-2.2222222.9171857-.875817 0-1.6601307-.3487889-2.2352941-.9171857-.5620915-.5554787-.9150327-1.3434833-.9150327-2.1960784 0-.8525952.3529412-1.6276817.9150327-2.1960785.5751634-.5683967 1.3594771-.9171857 2.2352941-.9171857zm1.3856209 1.7439447c-.3529412-.348789-.8496732-.5683968-1.3856209-.5683968-.5490196 0-1.0326797.2196078-1.3986928.5683968-.3529412.3487889-.5751634.839677-.5751634 1.3693195 0 .5425605.2222222 1.0205305.5751634 1.3693194.3660131.348789.8496732.5683968 1.3986928.5683968.5359477 0 1.0326797-.2196078 1.3856209-.5683968.3529412-.3487889.5751634-.8267589.5751634-1.3693194 0-.5296425-.2222222-1.0205306-.5751634-1.3693195zm15.124183 11.3808535c.8627451 0 1.6470588.3487889 2.2222222.9042676.5751634.5683967.9281046 1.3434832.9281046 2.1960784 0 .8655133-.3529412 1.6405998-.9281046 2.1960784v.0129181c-.5751634.5554787-1.3594771.9042676-2.2222222.9042676s-1.6601307-.3487889-2.2222222-.9042676v-.0129181c-.5751634-.5554786-.9281046-1.3305651-.9281046-2.1960784 0-.8525952.3529412-1.6276817.9281046-2.1960784.5620915-.5554787 1.3594771-.9042676 2.2222222-.9042676zm1.3856209 1.7310265c-.3529411-.3487889-.8496732-.5683968-1.3856209-.5683968-.5490196 0-1.0326797.2196079-1.3856209.5683968s-.5751634.8396771-.5751634 1.3693195c0 .5425606.2222222 1.0205306.5751634 1.3822376.3529412.3487889.8366013.5554787 1.3856209.5554787.5359477 0 1.0326798-.2066898 1.3856209-.5554787.3529412-.361707.5751634-.839677.5751634-1.3822376 0-.5296424-.2222222-1.0205306-.5751634-1.3693195zm-17.8954248-27.3217993c.8627451 0 1.6470588.3487889 2.2222222.9042676v.0129181c.5751634.5554787.9281046 1.3305652.9281046 2.1960784 0 .8525952-.3529412 1.6276817-.9281046 2.1960785-.5751634.5554786-1.3594771.9042676-2.2222222.9042676-.875817 0-1.6601307-.348789-2.2352941-.9042676-.5620915-.5683968-.9150327-1.3434833-.9150327-2.1960785 0-.8655132.3529412-1.6405997.9150327-2.1960784v-.0129181c.5751634-.5554787 1.3594771-.9042676 2.2352941-.9042676zm1.3856209 1.7439446c-.3529412-.361707-.8496732-.5683967-1.3856209-.5683967-.5490196 0-1.0326797.2066897-1.3986928.5683967-.3529412.348789-.5751634.826759-.5751634 1.3693195 0 .5296425.2222222 1.0205306.5751634 1.3693195.3660131.348789.8496732.5683968 1.3986928.5683968.5359477 0 1.0326797-.2196078 1.3856209-.5683968.3529412-.3487889.5751634-.839677.5751634-1.3693195 0-.5425605-.2222222-1.0205305-.5751634-1.3693195z" fill-rule="nonzero" transform="translate(0 2)"/></g></svg>