<svg height="147.978277pt" preserveAspectRatio="xMidYMid meet" viewBox="0 0 465.919197 147.978277" width="465.919197pt" xmlns="http://www.w3.org/2000/svg"><path d="m1405 3726c-90-33-172-164-270-432-30-80-61-154-70-164s-42-31-73-46c-120-58-220-194-287-389-37-105-46-253-21-320 32-82 105-124 197-112 113 15 188 147 264 467 71 295 76 310 101 327 14 8 45 18 71 21 43 5 46 3 38-14-4-10-10-57-12-104-4-74-1-91 19-130 51-100 198-119 285-38l22 21 31-26c44-37 85-42 153-18l57 20 48-22c61-28 190-29 240-3 19 10 36 15 39 12s-7-48-21-100c-70-244-8-416 149-416 144 0 215 124 311 537 25 109 50 205 55 214 7 15 47 30 117 44l32 7v-69c0-37 5-84 10-104 34-122 145-172 278-124 45 17 57 17 85 6 60-24 103-31 137-21 19 5 35 9 36 7 1-1-9-36-24-77-20-60-26-95-26-175-1-88 2-106 24-150 29-58 89-95 152-95 149 0 220 134 338 642 17 75 37 141 43 146 20 15 108 42 139 42 16 0 31-7 34-15 4-9-3-53-15-100-11-46-21-98-21-115 0-73 57-120 144-120 43 0 89 18 137 52 14 10 21 6 42-18s33-29 69-29c84 0 125 54 174 228 30 110 57 160 82 155 27-6 21-114-11-216-34-105-35-137-2-158 31-20 80-11 101 21 8 12 19 58 24 101 22 200 59 284 124 284 80 0 96-103 37-250-59-150-51-256 21-300 69-42 178-14 178 46 0 34-17 30-41-11-46-78-94-20-87 104 4 61 13 95 48 176 54 125 65 214 30 257-42 54-154 60-225 12-39-26-55-30-55-14 0 6-15 19-32 30-95 58-162-12-221-227-30-109-50-149-79-159-16-5-27 0-41 17-26 33-17 103 28 221 19 49 35 100 35 113 0 69-104 73-140 5-6-11-19-69-29-130-19-113-59-214-92-233-27-16-65 0-79 33-16 39-7 101 31 213 33 96 32 132-2 163s-76 22-118-23c-29-33-47-43-82-48-25-4-57-5-70-3-22 3-24 7-21 46 3 47 91 350 123 422 29 65 66 100 105 100 35 0 64-22 64-48 0-10-12-34-26-55-36-54-41-96-14-124 29-32 89-31 119 1 71 75-3 223-120 242-141 23-252-116-370-464-21-62-43-122-49-132-6-11-38-34-71-51-93-46-191-146-243-246-30-59-116-83-156-43-32 32-27 97 13 178 19 37 64 138 102 224l68 157 111 3c91 2 111 6 111 18 0 13-16 14-102 11-118-4-113-9-83 87 26 83 26 128 1 142-27 14-47 13-87-6-32-16-56-49-143-204-7-12-32-15-127-15-99-1-124-4-151-20-61-36-69-112-14-135 52-21 101 5 101 54 0 17 4 37 8 44 13 19 70 32 117 25l43-5-29-83c-48-138-62-226-55-341 6-98 6-101-19-124-35-33-120-40-155-12-36 29-32 76 15 153 93 155 33 264-110 199-25-11-72-23-106-27l-62-6 7 54c12 88 83 352 116 433 35 84 67 116 114 116 62 0 73-44 29-111-49-74-26-139 49-139 100 0 123 136 36 217-30 28-89 53-125 53-42-1-105-33-147-76-44-45-128-212-180-359-62-171-65-176-143-219-39-21-82-49-96-62-35-32-42-30-44 10-4 86-69 166-134 166-41 0-79-36-79-75 0-44 24-70 85-92 87-32 98-108 26-185-32-35-45-41-89-46-66-6-94 12-117 73-14 34-16 62-12 114 7 86 23 123 81 186 124 135 200 421 120 457-59 27-145-34-208-146-49-87-71-167-106-371-35-212-43-244-71-279-22-28-57-34-77-14-33 33 1 169 57 233 38 44 49 96 27 129-18 29-47 35-97 22-27-7-56-5-112 8-92 22-134 17-238-30-55-24-91-34-128-34h-51v34c0 65 91 379 136 468 13 26 33 52 43 58 24 12 71 13 90 1 21-14 17-64-8-100-53-74-30-141 47-141s113 81 72 165-137 123-225 91zm853-168c7-85-76-293-142-357l-36-35v35c0 100 127 408 163 396 7-2 13-20 15-39zm1255-4c-2-21-12-67-24-101-19-58-23-63-50-63-36 0-36 9-5 94 42 116 84 153 79 70zm-98-305c-41-105-67-149-87-149-16 0-8 62 18 138 45 129 40 122 78 122h34zm-1703-75c29-18-35-249-82-296-45-45-105-35-135 22-44 85 21 253 109 279 28 9 90 6 108-5zm-664-171c6-60-103-574-135-637-35-70-106-87-162-41-42 36-54 81-49 189 10 197 135 436 265 505 53 29 77 24 81-16zm1517 14c8-32-95-553-126-634-19-51-58-83-101-83-81 0-121 63-121 190 0 96 31 210 86 314 82 157 243 289 262 213zm1183-11c4-34-15-143-69-394-56-262-82-312-163-312-140 0-156 247-30 497 86 173 251 304 262 209z" transform="matrix(.1 0 0 -.1 -67.008984 373.978277)"/></svg>