<?xml version="1.0" encoding="utf-8"?>
<!-- Generator: Adobe Illustrator 24.2.1, SVG Export Plug-In . SVG Version: 6.00 Build 0)  -->
<svg version="1.1" id="Layer_1" xmlns="http://www.w3.org/2000/svg" xmlns:xlink="http://www.w3.org/1999/xlink" x="0px" y="0px"
	 viewBox="0 0 160 160" style="enable-background:new 0 0 160 160;" xml:space="preserve">
<style type="text/css">
	.st0{display:none;fill:#FFFFFF;}
	.st8{fill:#1E2126;}
	.st2{display:none;fill:none;stroke:#1E2126;stroke-width:2;stroke-linecap:round;stroke-linejoin:round;}
	.st3{fill:#99AAB5;}
	.st4{fill:none;stroke:#1E2126;stroke-width:2;stroke-linecap:round;stroke-linejoin:round;}
	.st5{fill:#7289DA;}
	.st6{fill:#99AAB5;stroke:#1E2126;stroke-width:2;stroke-miterlimit:10;}
	#bgCircle{
	animation-name:rotate;
	animation-duration:20s;
	animation-timing-function:linear;
	fill:#99AAB5 !important;
	transform-origin:50% 50%;
	animation-iteration-count:infinite;
	}
	@keyframes rotate{
	from{
	transform:rotate(0deg) ;
	}
	to{
	transform:rotate(360deg);
	}
	}
	#clyde{
	animation-name:pulse;
	animation-duration:3s;
	animation-delay:1s;
	animation-timing-function:ease;
	transform-origin:50% 50%;
	animation-iteration-count:infinite;
	}
	@keyframes pulse{
	from{
	transform:scale(0.9);
	}
	50%{
	transform:scale(1);
	}
	to{
	transform:scale(0.9);
	}
	}
</style>
<path class="st0" d="M108.9,110.7c17-16.9,17-44.4,0-61.3c-17-16.9-44.5-16.9-61.5,0c-17,16.9-17,44.4,0,61.3
	S91.9,127.6,108.9,110.7"/>
<g id="bgCircle">
	<g>
		<path class="st1" d="M130.7,127.8l2.7-3c0.1-0.1,0.2-0.1,0.2,0s0.1,0.2,0,0.2l0,0l-2.7,3c-0.1,0.1-0.1,0.1-0.2,0
			C130.7,128,130.7,127.9,130.7,127.8z"/>
		<path class="st1" d="M136.5,120.9l2.3-3.3c0.1-0.1,0.2-0.1,0.3-0.1c0.1,0.1,0.1,0.2,0.1,0.3l0,0l-2.3,3.3c-0.1,0.1-0.2,0.1-0.3,0
			C136.4,121.1,136.4,121,136.5,120.9z"/>
		<path class="st1" d="M141.2,113.3l1.8-3.6c0.1-0.1,0.3-0.2,0.4-0.1c0.1,0.1,0.2,0.3,0.1,0.4c0,0,0,0,0,0l-1.9,3.5
			c-0.1,0.1-0.2,0.2-0.3,0.1C141.2,113.6,141.1,113.4,141.2,113.3z"/>
		<path class="st1" d="M144.9,105.2l1.3-3.8c0.1-0.2,0.3-0.4,0.6-0.3s0.4,0.3,0.3,0.6c0,0,0,0,0,0l-1.4,3.7
			c-0.1,0.2-0.3,0.3-0.5,0.2C144.9,105.6,144.8,105.4,144.9,105.2z"/>
		<path class="st1" d="M147.4,96.6l0.8-3.9c0.1-0.3,0.4-0.6,0.8-0.5c0.3,0.1,0.6,0.4,0.5,0.8c0,0,0,0,0,0l-0.9,3.9
			c-0.1,0.3-0.4,0.5-0.7,0.4C147.5,97.2,147.3,96.9,147.4,96.6z"/>
		<path class="st1" d="M148.8,87.8l0.3-4c0-0.5,0.4-0.8,0.9-0.8c0.5,0,0.8,0.4,0.8,0.9c0,0,0,0,0,0l-0.4,4c0,0.4-0.4,0.7-0.8,0.7
			C149.1,88.5,148.8,88.2,148.8,87.8z"/>
		<path class="st1" d="M149.1,78.9l-0.2-4c0-0.6,0.4-1,0.9-1.1c0.6,0,1,0.4,1.1,0.9c0,0,0,0,0,0l0.1,4c0,0.5-0.4,0.9-0.9,0.9
			C149.5,79.8,149.1,79.4,149.1,78.9z"/>
		<path class="st1" d="M148.2,70.1l-0.7-3.9c-0.1-0.6,0.3-1.2,0.9-1.4c0.6-0.1,1.2,0.3,1.4,0.9c0,0,0,0,0,0l0.6,4
			c0.1,0.6-0.3,1.2-0.9,1.3C148.9,71.1,148.4,70.7,148.2,70.1z"/>
		<path class="st1" d="M146.3,61.5l-1.2-3.8c-0.2-0.7,0.2-1.4,0.8-1.6c0.7-0.2,1.4,0.2,1.6,0.8c0,0,0,0,0,0l1.1,3.8
			c0.2,0.7-0.2,1.3-0.8,1.5C147.2,62.5,146.5,62.1,146.3,61.5z"/>
		<path class="st1" d="M143.4,53.2l-1.7-3.6c-0.3-0.7,0-1.5,0.7-1.8c0.7-0.3,1.5,0,1.8,0.7c0,0,0,0,0,0l1.6,3.7
			c0.3,0.7,0,1.4-0.7,1.7C144.5,54.1,143.7,53.8,143.4,53.2z"/>
		<path class="st1" d="M139.4,45.3l-2.1-3.4c-0.4-0.6-0.2-1.5,0.4-1.8c0.6-0.4,1.5-0.2,1.8,0.4l2.1,3.4c0.4,0.6,0.2,1.5-0.4,1.9
			C140.7,46.1,139.8,45.9,139.4,45.3L139.4,45.3z"/>
		<path class="st1" d="M134.6,37.9l-2.5-3.1c-0.5-0.6-0.4-1.4,0.2-1.8c0.6-0.4,1.4-0.4,1.8,0.2l2.5,3.1c0.5,0.6,0.4,1.4-0.2,1.9
			C135.9,38.6,135,38.5,134.6,37.9C134.6,37.9,134.6,37.9,134.6,37.9z"/>
		<path class="st1" d="M128.8,31.2c0,0-0.7-0.7-1.4-1.4c-0.7-0.7-1.5-1.4-1.5-1.4c-0.5-0.5-0.5-1.2-0.1-1.7c0.5-0.5,1.2-0.5,1.7-0.1
			c0,0,0.7,0.7,1.5,1.3c0.7,0.7,1.5,1.4,1.5,1.4c0.5,0.5,0.5,1.3,0,1.8C130.1,31.7,129.3,31.7,128.8,31.2
			C128.8,31.2,128.8,31.2,128.8,31.2z"/>
		<path class="st1" d="M122.2,25.3l-3.2-2.4c-0.5-0.4-0.6-1-0.2-1.5c0.4-0.5,1-0.6,1.5-0.2l3.3,2.3c0.5,0.4,0.6,1.1,0.3,1.6
			C123.5,25.5,122.8,25.7,122.2,25.3C122.3,25.3,122.3,25.3,122.2,25.3z"/>
		<path class="st1" d="M115,20.2l-3.5-2c-0.5-0.3-0.6-0.8-0.4-1.3c0.3-0.4,0.8-0.6,1.3-0.4l3.5,1.9c0.5,0.3,0.7,0.9,0.4,1.4
			C116.1,20.3,115.5,20.5,115,20.2C115,20.2,115,20.2,115,20.2z"/>
		<path class="st1" d="M107.1,16.1l-3.7-1.5c-0.4-0.2-0.6-0.6-0.4-1.1c0.2-0.4,0.6-0.6,1-0.4l3.7,1.4c0.4,0.2,0.7,0.7,0.5,1.1
			C108.1,16,107.6,16.2,107.1,16.1C107.2,16.1,107.1,16.1,107.1,16.1z"/>
		<path class="st1" d="M98.8,13l-3.9-1c-0.4-0.1-0.6-0.5-0.5-0.8c0.1-0.3,0.4-0.6,0.8-0.5l3.9,0.9c0.4,0.1,0.6,0.5,0.5,0.9
			C99.6,12.8,99.2,13.1,98.8,13C98.8,13,98.8,13,98.8,13z"/>
		<path class="st1" d="M90.1,11l-4-0.5c-0.3,0-0.5-0.3-0.5-0.6c0-0.3,0.3-0.5,0.6-0.5l4,0.4c0.3,0,0.6,0.3,0.5,0.6
			C90.7,10.8,90.4,11.1,90.1,11C90.1,11,90.1,11,90.1,11z"/>
		<path class="st1" d="M81.2,10.2l-4,0c-0.3,0-0.5-0.2-0.5-0.5c0-0.3,0.2-0.5,0.5-0.5l4-0.1c0.3,0,0.5,0.2,0.5,0.5
			C81.7,10,81.5,10.2,81.2,10.2C81.2,10.2,81.2,10.2,81.2,10.2z"/>
		<path class="st1" d="M72.3,10.7l-4,0.6c-0.2,0-0.5-0.1-0.5-0.4c0-0.2,0.1-0.5,0.4-0.5l4-0.6c0.3,0,0.5,0.1,0.5,0.4
			C72.7,10.4,72.5,10.6,72.3,10.7L72.3,10.7z"/>
		<path class="st1" d="M63.5,12.2l-3.8,1.1c-0.3,0.1-0.5-0.1-0.6-0.3c-0.1-0.3,0.1-0.5,0.3-0.6l0,0l3.9-1.1c0.3-0.1,0.5,0.1,0.6,0.3
			C63.9,11.9,63.7,12.2,63.5,12.2z"/>
		<path class="st1" d="M55,15l-3.7,1.6c-0.3,0.1-0.6,0-0.7-0.3c-0.1-0.3,0-0.6,0.3-0.7l0,0l3.7-1.5c0.3-0.1,0.6,0,0.7,0.3
			C55.4,14.6,55.3,14.9,55,15z"/>
		<path class="st1" d="M46.9,18.8l-3.4,2.1c-0.3,0.2-0.6,0.1-0.8-0.2c-0.2-0.3-0.1-0.6,0.2-0.8c0,0,0,0,0,0l3.5-2
			c0.3-0.2,0.6-0.1,0.8,0.2C47.3,18.3,47.2,18.7,46.9,18.8z"/>
		<path class="st1" d="M39.5,23.7l-3.1,2.5c-0.3,0.2-0.8,0.2-1-0.1c-0.2-0.3-0.2-0.8,0.1-1c0,0,0,0,0,0l3.2-2.4
			c0.3-0.2,0.7-0.2,0.9,0.1C39.8,23.1,39.8,23.5,39.5,23.7z"/>
		<path class="st1" d="M32.7,29.5c0,0-0.7,0.7-1.4,1.4c-0.3,0.4-0.7,0.7-1,1c-0.1,0.1-0.2,0.2-0.3,0.3C30,32.3,30,32.4,30,32.4l0,0
			c-0.3,0.3-0.8,0.4-1.2,0.1c-0.3-0.3-0.4-0.8-0.1-1.2c0,0,0,0,0,0c0,0,0.2-0.2,0.5-0.5c0.3-0.3,0.6-0.6,1-1
			c0.7-0.7,1.4-1.4,1.4-1.4c0.3-0.3,0.8-0.3,1.1,0C33,28.7,33,29.2,32.7,29.5z"/>
		<path class="st1" d="M26.8,36.1l-2.4,3.2c-0.3,0.4-0.9,0.5-1.3,0.2c-0.4-0.3-0.5-0.9-0.2-1.3c0,0,0,0,0,0l2.5-3.1
			c0.3-0.4,0.9-0.5,1.3-0.1C27,35.2,27.1,35.7,26.8,36.1z"/>
		<path class="st1" d="M21.8,43.4l-2,3.5c-0.3,0.5-1,0.7-1.5,0.4c-0.5-0.3-0.7-1-0.4-1.5c0,0,0,0,0,0l2.1-3.4
			c0.3-0.5,0.9-0.6,1.4-0.4C21.9,42.3,22,42.9,21.8,43.4z"/>
		<path class="st1" d="M17.7,51.3L16.2,55c-0.2,0.6-0.9,0.9-1.6,0.7c-0.6-0.2-0.9-0.9-0.7-1.5c0,0,0,0,0,0l1.6-3.7
			c0.3-0.6,0.9-0.9,1.5-0.6C17.7,50,17.9,50.7,17.7,51.3z"/>
		<path class="st1" d="M14.7,59.6l-1,3.9c-0.2,0.7-0.9,1.1-1.6,0.9c-0.7-0.2-1.1-0.9-0.9-1.6c0,0,0,0,0,0l1.1-3.8
			c0.2-0.7,0.9-1,1.5-0.9C14.5,58.3,14.9,58.9,14.7,59.6z"/>
		<path class="st1" d="M12.7,68.2l-0.5,4c-0.1,0.7-0.8,1.3-1.5,1.2c-0.7-0.1-1.3-0.8-1.2-1.5c0,0,0,0,0,0l0.6-4
			c0.1-0.7,0.8-1.2,1.5-1.1C12.3,66.8,12.8,67.5,12.7,68.2z"/>
		<path class="st1" d="M11.9,77l0,4c0,0.8-0.6,1.4-1.4,1.4S9.1,81.7,9.1,81c0,0,0,0,0,0l0.1-4c0-0.8,0.6-1.4,1.4-1.4
			C11.3,75.6,11.9,76.2,11.9,77z"/>
		<path class="st1" d="M12.2,85.8l0.5,4c0.1,0.8-0.5,1.5-1.3,1.6c-0.8,0.1-1.5-0.5-1.6-1.3c0,0,0,0,0,0l-0.4-4
			c-0.1-0.8,0.5-1.5,1.3-1.6C11.4,84.4,12.1,85,12.2,85.8z"/>
		<path class="st1" d="M13.5,94.5l1,3.9c0.2,0.8-0.3,1.6-1.1,1.8s-1.6-0.3-1.8-1.1c0,0,0,0,0,0l-0.9-3.9c-0.2-0.8,0.3-1.6,1.1-1.8
			C12.5,93.2,13.3,93.7,13.5,94.5z"/>
		<path class="st1" d="M16,102.9l1.5,3.7c0.3,0.8-0.1,1.7-0.9,2c-0.8,0.3-1.7-0.1-2-0.9c0,0,0,0,0,0l-1.4-3.7
			c-0.3-0.8,0.1-1.7,0.9-2C14.8,101.7,15.7,102.1,16,102.9z"/>
		<path class="st1" d="M19.5,111l1.9,3.5c0.4,0.8,0.1,1.7-0.6,2.2s-1.7,0.1-2.2-0.6l0,0l-1.9-3.5c-0.4-0.8-0.1-1.7,0.6-2.2
			C18.2,109.9,19.1,110.2,19.5,111z"/>
		<path class="st1" d="M24.1,118.5l2.4,3.2c0.5,0.7,0.4,1.7-0.3,2.2c-0.7,0.5-1.7,0.4-2.2-0.3l0,0l-2.4-3.2
			c-0.5-0.7-0.4-1.7,0.3-2.2S23.5,117.8,24.1,118.5z"/>
		<path class="st1" d="M29.5,125.4l2.8,2.9c0.6,0.6,0.6,1.7-0.1,2.3c-0.6,0.6-1.7,0.6-2.3-0.1v0l-2.8-2.9c-0.6-0.6-0.6-1.7,0.1-2.3
			C27.9,124.7,28.9,124.8,29.5,125.4z"/>
		<path class="st1" d="M35.8,131.6l3.1,2.5c0.7,0.6,0.8,1.5,0.2,2.2c-0.5,0.7-1.5,0.8-2.2,0.2l-3.1-2.5c-0.7-0.5-0.8-1.5-0.2-2.2
			C34.1,131.1,35.1,131,35.8,131.6L35.8,131.6z"/>
		<path class="st1" d="M42.7,136.9l3.4,2.1c0.7,0.4,0.9,1.4,0.5,2.1c-0.4,0.7-1.4,0.9-2.1,0.5l-3.4-2.1c-0.7-0.4-1-1.4-0.5-2.1
			C41.1,136.7,42,136.5,42.7,136.9L42.7,136.9z"/>
		<path class="st1" d="M50.4,141.3L54,143c0.7,0.3,1.1,1.2,0.7,1.9c-0.3,0.7-1.2,1-1.9,0.7l-3.7-1.6c-0.8-0.3-1.1-1.2-0.8-2
			S49.6,141,50.4,141.3C50.3,141.3,50.4,141.3,50.4,141.3z"/>
		<path class="st1" d="M58.5,144.8l3.8,1.2c0.7,0.2,1.1,1,0.9,1.7c-0.2,0.7-1,1.1-1.7,0.9l-3.8-1.1c-0.7-0.2-1.2-1-1-1.8
			C56.9,145,57.7,144.5,58.5,144.8C58.5,144.8,58.5,144.8,58.5,144.8z"/>
		<path class="st1" d="M67,147.1l3.9,0.7c0.7,0.1,1.1,0.8,1,1.4c-0.1,0.7-0.7,1.1-1.4,1l-4-0.6c-0.7-0.1-1.2-0.8-1.1-1.5
			C65.6,147.5,66.2,147,67,147.1C66.9,147.1,67,147.1,67,147.1z"/>
		<path class="st1" d="M75.7,148.5l4,0.2c0.6,0,1,0.5,1,1.1c0,0.6-0.5,1-1.1,1l-4-0.1c-0.6,0-1.1-0.5-1.1-1.1
			C74.5,148.9,75,148.4,75.7,148.5C75.7,148.5,75.7,148.5,75.7,148.5z"/>
		<path class="st1" d="M84.6,148.7l4-0.3c0.5,0,0.9,0.3,0.9,0.8c0,0.4-0.3,0.8-0.7,0.9l-4,0.5c-0.5,0.1-1-0.3-1-0.8
			C83.7,149.2,84,148.7,84.6,148.7C84.6,148.7,84.6,148.7,84.6,148.7z"/>
		<path class="st1" d="M93.4,147.7l3.9-0.8c0.4-0.1,0.7,0.2,0.8,0.5c0.1,0.3-0.1,0.7-0.5,0.8l-3.9,1c-0.4,0.1-0.8-0.1-0.9-0.5
			C92.8,148.2,93,147.8,93.4,147.7C93.4,147.7,93.4,147.7,93.4,147.7z"/>
		<path class="st1" d="M102.1,145.6l3.8-1.3c0.2-0.1,0.5,0,0.6,0.3c0.1,0.2,0,0.5-0.3,0.6l-3.7,1.4c-0.3,0.1-0.6,0-0.7-0.3
			C101.6,146.1,101.8,145.8,102.1,145.6C102.1,145.7,102.1,145.7,102.1,145.6z"/>
		<path class="st1" d="M110.4,142.5l3.6-1.8c0.2-0.1,0.3,0,0.4,0.1c0.1,0.1,0,0.3-0.1,0.4l-3.5,1.9c-0.2,0.1-0.4,0-0.5-0.1
			S110.2,142.6,110.4,142.5C110.4,142.5,110.4,142.5,110.4,142.5z"/>
		<path class="st1" d="M118.3,138.1l3.3-2.3c0.1-0.1,0.2,0,0.3,0.1c0.1,0.1,0,0.2-0.1,0.3l-3.3,2.3c-0.1,0.1-0.3,0.1-0.4-0.1
			C118.1,138.4,118.2,138.2,118.3,138.1C118.3,138.1,118.3,138.1,118.3,138.1z"/>
		<path class="st1" d="M125.5,132.8l3-2.7c0.1-0.1,0.2-0.1,0.2,0c0.1,0.1,0.1,0.2,0,0.2l-2.9,2.7c-0.1,0.1-0.2,0.1-0.3,0
			S125.4,132.9,125.5,132.8L125.5,132.8z"/>
	</g>
</g>
<path class="st2" d="M34.6,104.5c0.5,0.9,1.1,1.9,1.7,2.8 M43,115.5c19.7,19.6,51.6,19.6,71.2,0c19.7-19.6,19.7-51.4,0-71
	c-19.7-19.6-51.6-19.6-71.2,0c-14.8,14.7-18.4,36.3-11,54.4"/>
<path class="st2" d="M106.9,108.2c15.6-15.6,15.6-40.8,0-56.4c-15.6-15.6-40.9-15.6-56.6,0c-15.6,15.6-15.6,40.8,0,56.4
	S91.3,123.8,106.9,108.2z"/>
<g>
	<path class="st3" d="M150.3,150.8L150.3,150.8c2.4-2.4,2.4-6.4,0-8.8l-36.8-36.7l-8.8,8.8l36.8,36.7
		C143.9,153.2,147.9,153.2,150.3,150.8"/>
	<path class="st4" d="M150.3,150.8L150.3,150.8c2.4-2.4,2.4-6.4,0-8.8l-36.8-36.7l-8.8,8.8l36.8,36.7
		C143.9,153.2,147.9,153.2,150.3,150.8z"/>
	<path class="st5" d="M140,149.3l8.8-8.8c1.6-1.6,1.6-4.3,0-5.9l-17.4-17.4c-1.6-1.6-4.3-1.6-5.9,0l-8.8,8.8c-1.6,1.6-1.6,4.3,0,5.9
		l17.4,17.4C135.7,150.9,138.4,150.9,140,149.3"/>
	<path class="st4" d="M140,149.3l8.8-8.8c1.6-1.6,1.6-4.3,0-5.9l-17.4-17.4c-1.6-1.6-4.3-1.6-5.9,0l-8.8,8.8c-1.6,1.6-1.6,4.3,0,5.9
		l17.4,17.4C135.7,150.9,138.4,150.9,140,149.3z"/>
	<path class="st6" d="M108,108.6c15.6-15.6,15.6-40.8,0-56.4c-15.6-15.6-40.9-15.6-56.6,0c-15.6,15.6-15.6,40.8,0,56.4
		S92.4,124.2,108,108.6 M44.1,44.9c19.7-19.6,51.6-19.6,71.2,0c19.7,19.6,19.7,51.4,0,71c-19.7,19.6-51.6,19.6-71.2,0
		C24.5,96.3,24.5,64.5,44.1,44.9"/>
	<g id="clyde">
		<path  class="st5" d="M65.8,100.6c-11.4-0.4-15.8-7.7-16-8c-0.1-0.2-0.1-0.3-0.1-0.5c0-16,7-28.7,7.3-29.2c0.1-0.1,0.2-0.2,0.3-0.3
			c7-5.2,13.8-5.4,14.5-5.4c0.3,0,0.6,0.1,0.8,0.4l0.5,0.6c0.2,0.3,0.3,0.6,0.2,0.9c-0.1,0.3-0.4,0.6-0.7,0.7
			c-0.1,0-0.2,0.1-0.3,0.1c0.5-0.1,0.9-0.1,1.1-0.1c0.2,0,0.5-0.1,0.9-0.1c1.8-0.2,3.7-0.4,5.5-0.4c1.6,0,3.2,0.1,4.7,0.3
			c0.6,0.1,1.2,0.2,1.9,0.3c-0.2-0.1-0.3-0.3-0.4-0.5c-0.1-0.3,0-0.7,0.2-0.9l0.7-0.8c0.2-0.2,0.4-0.3,0.7-0.3c0,0,0,0,0,0
			c0.8,0,7.6,0.2,14.6,5.4c0.1,0.1,0.2,0.2,0.3,0.3c0.3,0.5,7.3,13.3,7.3,29.2c0,0.2,0,0.4-0.1,0.5c-0.2,0.3-4.6,7.6-16,8
			c0,0,0,0,0,0c-0.3,0-0.6-0.1-0.8-0.4c0,0-1.8-2.1-3.3-4c-0.2-0.3-0.3-0.6-0.2-0.9c0-0.1,0-0.1,0.1-0.2c-1,0.3-1.9,0.5-2.9,0.6
			c-2.1,0.4-4.2,0.6-6.4,0.6c-2.2,0-4.5-0.2-6.8-0.6c-1.1-0.2-2.2-0.5-3.3-0.8c0.1,0.1,0.1,0.2,0.1,0.3c0.1,0.3,0,0.7-0.2,0.9
			c-1.5,1.9-3.3,4.1-3.3,4.1C66.5,100.5,66.2,100.6,65.8,100.6C65.9,100.6,65.9,100.6,65.8,100.6z M88.6,77.6c-2.2,0-4.1,2-4.1,4.5
			c0,2.5,1.8,4.5,4.1,4.5c2.2,0,4.1-2,4.1-4.5C92.6,79.6,90.8,77.6,88.6,77.6z M70.4,77.6c-2.2,0-4.1,2-4.1,4.5
			c0,2.5,1.8,4.5,4.1,4.5s4.1-2,4.1-4.5c0-1.2-0.4-2.4-1.3-3.3C72.5,78,71.5,77.6,70.4,77.6z"/>
		<path class="st8" d="M87.7,58.2c0.6,0,7.1,0.1,13.9,5.2c0,0,7.2,12.9,7.2,28.8c0,0-4.2,7.1-15.2,7.5c0,0-1.8-2.1-3.3-4
			c6.5-1.8,9-5.9,9-5.9c-2,1.3-4,2.3-5.7,2.9c-2.5,1-4.9,1.7-7.2,2.1c-2.2,0.4-4.2,0.6-6.2,0.6c-2.4,0-4.6-0.2-6.7-0.6
			c-2.8-0.5-5.3-1.3-7.3-2.1c-1.1-0.4-2.4-1-3.6-1.7c-0.2-0.1-0.3-0.1-0.5-0.2c-0.1-0.1-0.1-0.1-0.2-0.2c-0.9-0.5-1.4-0.8-1.4-0.8
			s2.4,4,8.7,5.8c-1.5,1.9-3.3,4.1-3.3,4.1c-11-0.3-15.1-7.5-15.1-7.5c0-15.9,7.2-28.8,7.2-28.8c6.8-5.1,13.3-5.2,13.9-5.2
			c0,0,0.1,0,0.1,0l0.5,0.6c-8.9,2.6-13.1,6.5-13.1,6.5s1.1-0.6,2.9-1.4c5.3-2.3,9.5-3,11.3-3.1c0.3-0.1,0.5-0.1,0.8-0.1
			c1.7-0.2,3.5-0.4,5.4-0.4c1.5,0,3,0.1,4.6,0.3c4.7,0.5,9.8,1.9,15,4.7c0,0-3.9-3.7-12.4-6.3L87.7,58.2
			C87.6,58.2,87.7,58.2,87.7,58.2 M88.6,87.5c2.8,0,5.1-2.5,5.1-5.5c0-3-2.2-5.5-5.1-5.5c-2.8,0-5.1,2.5-5.1,5.5
			C83.5,85.1,85.8,87.5,88.6,87.5 M70.4,87.5c2.8,0,5.1-2.5,5.1-5.5c0-3-2.2-5.5-5.1-5.5c-2.8,0-5.1,2.5-5.1,5.5
			C65.4,85.1,67.7,87.5,70.4,87.5 M87.7,56.2L87.7,56.2c-0.7,0-1.2,0.3-1.6,0.7l-0.7,0.8c-0.2,0.3-0.4,0.6-0.5,0.9
			c-0.1,0-0.3,0-0.4,0c-1.6-0.2-3.2-0.3-4.8-0.3c-1.8,0-3.7,0.1-5.4,0.3c0-0.4-0.2-0.8-0.5-1.1l-0.5-0.6c-0.4-0.4-0.9-0.7-1.5-0.7
			l-0.1,0c-0.8,0-7.8,0.2-15.1,5.6c-0.2,0.2-0.4,0.4-0.6,0.6c-0.3,0.5-7.4,13.5-7.4,29.7c0,0.4,0.1,0.7,0.3,1
			c0.2,0.3,4.9,8.1,16.8,8.5c0,0,0,0,0.1,0c0.6,0,1.2-0.3,1.5-0.7c0,0,1.9-2.3,3.4-4.1c0.1-0.2,0.2-0.3,0.3-0.5
			c0.7,0.2,1.4,0.3,2,0.4c2.4,0.4,4.7,0.7,7,0.7c2.2,0,4.4-0.2,6.6-0.6c0.6-0.1,1.1-0.2,1.7-0.3c0.1,0.2,0.2,0.3,0.3,0.5
			c1.5,1.9,3.2,3.9,3.3,4c0.4,0.5,0.9,0.7,1.5,0.7c0,0,0,0,0.1,0c11.9-0.4,16.7-8.1,16.9-8.5c0.2-0.3,0.3-0.7,0.3-1
			c0-16.2-7.1-29.2-7.4-29.7c-0.1-0.2-0.3-0.5-0.6-0.6C95.5,56.3,88.5,56.2,87.7,56.2L87.7,56.2z M88.6,85.5c-1.7,0-3.1-1.6-3.1-3.5
			c0-1.9,1.4-3.5,3.1-3.5c1.7,0,3.1,1.6,3.1,3.5C91.6,84,90.3,85.5,88.6,85.5L88.6,85.5z M70.4,85.5c-1.7,0-3.1-1.6-3.1-3.5
			c0-1.9,1.4-3.5,3.1-3.5c0.8,0,1.5,0.3,2.1,0.9c0.6,0.7,1,1.6,1,2.5C73.5,84,72.1,85.5,70.4,85.5L70.4,85.5z"/>
	</g>
</g>
</svg>
