<svg enable-background="new 0 0 226.771 82.032" height="82.032" viewBox="0 0 226.771 82.032" width="226.771" xmlns="http://www.w3.org/2000/svg"><path d="m126.804 51.062 1.062 7.866 3.675-7.866h2.239l-5.138 10.508h-2.326l-1.622-10.508z"/><path d="m133.783 53.947h2.01l-1.206 7.622h-2.01zm.287-2.396c.028-.216.172-.359.402-.359h1.506c.216 0 .302.158.274.359l-.202 1.276c-.029.216-.172.33-.373.33h-1.508c-.201 0-.314-.129-.287-.33z"/><path d="m137.222 53.947h1.693l.157.962c.618-.518 1.407-1.033 2.354-1.033.33 0 .646 0 .833.086l-.302 1.938c-.201-.014-.66-.043-1.092-.043-.831 0-1.463.144-2.08.847l-.762 4.866h-2.01z"/><path d="m145.765 53.804c1.092-.058 2.828.187 3.561.89l-1.004 6.861h-1.551l-.301-.789c-.373.474-1.393.89-2.311.89-1.479 0-2.6-1.205-1.996-4.35.603-3.143 2.254-3.43 3.602-3.502zm-.875 6.143c.833 0 1.293-.272 1.752-.717l.545-3.676c-.444-.157-1.105-.229-1.521-.128-.646.128-1.248.329-1.55 2.253-.216 1.435-.116 2.268.774 2.268z"/><path d="m151.386 50.33h2.01l-1.307 8.21c-.188 1.192.028 1.336.445 1.493 0 0 .775.287.832.287l-.188 1.249h-1.291c-1.364 0-2.167-.761-1.853-2.712z"/><path d="m160.271 51.062h2.741l.633 7.178 2.855-7.178h2.829l-.676 10.508h-1.996l.504-7.019-2.843 7.019h-2.282l-.646-7.019-1.693 7.019h-2.023z"/><path d="m173.74 53.804c1.092-.058 2.828.187 3.561.89l-1.004 6.861h-1.553l-.301-.789c-.371.474-1.393.89-2.309.89-1.48 0-2.6-1.205-1.998-4.35.604-3.143 2.256-3.43 3.604-3.502zm-.875 6.143c.832 0 1.291-.272 1.75-.717l.547-3.676c-.443-.157-1.105-.229-1.521-.128-.646.128-1.248.329-1.551 2.253-.215 1.435-.116 2.268.775 2.268z"/><path d="m178.857 53.947h1.695l.156.962c.617-.518 1.406-1.033 2.354-1.033.332 0 .646 0 .834.086l-.303 1.938c-.199-.014-.66-.043-1.092-.043-.832 0-1.465.144-2.08.847l-.762 4.866h-2.008z"/><path d="m185.173 50.344h2.01l-1.02 6.375c1.121-.403 2.484-1.537 2.842-2.771h2.141c-.531 1.88-1.91 3.029-2.801 3.488l2.34 4.134h-2.238l-1.936-3.502-.547.014-.561 3.488h-2.01z"/><path d="m195.248 53.804c1.637-.015 3.1.445 2.984 2.196-.229 3.474-4.434 2.799-4.967 2.584-.199 1.162.088 1.464 1.107 1.479.848.029 2.225-.101 3.113-.244l-.244 1.436c-1.146.345-2.383.517-3.977.416-1.822-.086-2.41-1.622-1.893-4.406.445-2.341 1.076-3.447 3.877-3.461zm.919 2.468c.127-.703-.26-.86-1.064-.846-1.363.014-1.492.889-1.68 1.837 0 .001 2.498.417 2.744-.991z"/><path d="m198.896 54.35 1.293-.417.672-2.124h1.682l-.346 2.124h1.709l-.244 1.536h-1.709l-.473 3.057c-.188 1.207.016 1.364.43 1.522 0 0 .775.272.848.272l-.201 1.264h-1.379c-1.264 0-2.066-.789-1.766-2.742l.533-3.373h-1.223z"/><path d="m204.716 53.947h2.008l-1.205 7.622h-2.01zm.287-2.396c.027-.216.172-.359.402-.359h1.506c.215 0 .303.158.273.359l-.201 1.276c-.027.216-.174.33-.373.33h-1.508c-.199 0-.314-.129-.287-.33z"/><path d="m208.156 53.947h1.607l.271.818c.732-.474 1.408-.947 2.57-.947 1.779 0 2.082 1.22 1.852 2.67l-.805 5.081h-2.01l.805-5.11c.115-.745-.174-1.032-.674-1.032-.805 0-1.293.214-1.953.659l-.861 5.483h-2.01z"/><path d="m214.744 63.794h3.23c.717 0 1.291-.444 1.436-1.363l.215-1.392c-.631.388-1.334.545-1.98.545-2.238 0-2.627-1.723-2.225-4.264.402-2.569 1.637-3.502 3.344-3.502 1.521 0 3.273.229 3.977.431l-1.334 8.412c-.316 1.966-1.451 3.028-3.461 2.813l-3.416-.345zm3.447-3.789c.645 0 .988-.058 1.65-.315l.688-4.335h-1.535c-1.148 0-1.436 1.42-1.564 2.182-.204 1.348-.374 2.468.761 2.468z"/><path d="m64.517 28.812c.711-4.449 3.863-5.562 6.644-5.562 0 0 5.839 0 9.393.495l-.774 5.035h-7.631c-1.607 0-1.761.896-1.885 1.731l-.216 1.358 7.631.34-.772 4.976-7.755.278-1.329 8.403h-5.994z"/><path d="m86.37 29.152c2.534 0 6.21.401 7.786 1.915l-2.163 14.738h-4.727l-.927-1.545c-.742 1.359-2.688 1.761-4.325 1.761-2.936 0-5.284-3.584-3.955-9.795 1.452-6.858 5.098-7.074 8.311-7.074zm-1.483 12.08c1.298 0 1.916-.587 2.009-1.606l.834-5.87c-.247-.217-1.02-.278-1.637-.124-.896.216-1.792.648-2.163 3.337-.31 2.163-.588 4.263.957 4.263z"/><path d="m94.295 41.356h7.137c.525 0 .618-.217.68-.525l.031-.154c.062-.371-.031-.557-.525-.557h-2.936c-2.905 0-4.635-2.132-4.141-5.313l.248-1.422c.401-2.534 1.823-4.078 5.005-4.078 4.418 0 8.312-.093 9.115 1.111l-.556 3.522h-6.89c-.401 0-.68 0-.772.557l-.031.186c-.093.494.248.494.618.494h3.09c3.492 0 4.325 2.626 3.924 5.067l-.278 1.823c-.525 3.367-2.781 3.954-4.758 3.954-4.418 0-8.589.124-9.517-1.143z"/><path d="m109.366 30.604 2.502-1.175 1.606-4.573h5.129l-.741 4.573h2.75l-.649 4.141h-2.749l-.835 5.19c-.339 2.194.03 2.626.649 2.997 0 0 1.204.648 1.421.648l-.556 3.492h-3.708c-2.472 0-4.666-1.546-3.986-5.901l1.02-6.427h-2.317z"/><path d="m129.669 23.25h9.516c4.82 0 6.427 2.966 5.809 6.798-.309 1.916-1.792 3.893-4.048 4.078 2.256.371 3.491 2.75 3.09 5.686-.834 5.87-3.522 6.056-8.28 6.056h-9.671zm6.581 17.55c1.175 0 1.638-.803 1.854-2.162.185-1.144.03-2.226-1.175-2.226h-3.367l-.68 4.388zm1.143-9.146c.927 0 1.514-.711 1.638-1.575.216-1.359-.433-1.762-1.113-1.762h-3.059l-.525 3.337z"/><path d="m153.212 29.152c2.534 0 6.211.401 7.787 1.915l-2.164 14.738h-4.727l-.928-1.545c-.74 1.359-2.688 1.761-4.325 1.761-2.936 0-5.283-3.584-3.954-9.795 1.452-6.858 5.099-7.074 8.311-7.074zm-1.482 12.08c1.297 0 1.916-.587 2.008-1.606l.834-5.87c-.247-.217-1.02-.278-1.637-.124-.896.216-1.793.648-2.164 3.337-.308 2.163-.586 4.263.959 4.263z"/><path d="m162.784 29.461h5.005l.742 1.606c1.174-.958 2.316-1.885 4.82-1.885 4.264 0 4.324 2.719 3.77 6.18l-1.668 10.505h-5.994l1.668-10.629c.217-1.298-.061-1.606-.742-1.606-1.143 0-1.945.309-2.441 1.144l-1.76 11.092h-5.994z"/><path d="m186.099 29.152c2.533 0 6.211.401 7.785 1.915l-2.162 14.738h-4.727l-.928-1.545c-.742 1.359-2.689 1.761-4.326 1.761-2.936 0-5.283-3.584-3.955-9.795 1.454-6.858 5.098-7.074 8.313-7.074zm-1.484 12.08c1.297 0 1.916-.587 2.01-1.606l.832-5.87c-.246-.217-1.018-.278-1.637-.124-.895.216-1.791.648-2.162 3.337-.309 2.163-.588 4.263.957 4.263z"/><path d="m195.669 29.461h5.006l.742 1.606c1.174-.958 2.316-1.885 4.818-1.885 4.266 0 4.326 2.719 3.77 6.18l-1.668 10.505h-5.994l1.67-10.629c.215-1.298-.062-1.606-.742-1.606-1.145 0-1.947.309-2.441 1.144l-1.762 11.092h-5.992z"/><path d="m218.986 29.152c2.533 0 6.209.401 7.785 1.915l-2.162 14.738h-4.729l-.926-1.545c-.742 1.359-2.689 1.761-4.326 1.761-2.936 0-5.283-3.584-3.955-9.795 1.453-6.858 5.098-7.074 8.313-7.074zm-1.485 12.08c1.299 0 1.916-.587 2.008-1.606l.834-5.87c-.246-.217-1.018-.278-1.637-.124-.895.216-1.793.648-2.162 3.337-.308 2.163-.587 4.263.957 4.263z"/><path d="m55.44 10.5-27.08-2.892 28.554-2.888z"/><path d="m43.854 22.06-28.173-2.892 29.65-2.889z"/><path d="m40.908 33.619-34.525-2.891 35.998-2.889z"/><path d="m37.96 45.18-37.96-2.893 39.434-2.89z"/><path d="m35.014 56.738-28.631-2.891 30.103-2.889z"/><path d="m41.232 68.412-25.551-2.891 27.025-2.89z"/><path d="m55.542 79.962-27.182-2.893 28.656-2.888z"/><path d="m56.986 3.478c1.162-.357 6.253-1.896 6.879-1.18.626.715 2.305 2.464 2.862 3.309.716 1.084.269 1.252-.268 2.058s-3.667 4.473-6.887 6.351c-3.221 1.878-3.043 3.668-2.773 5.188.268 1.521 1.341 5.098-1.342 11.09-2.684 5.993-4.92 14.043-1.431 21.915 3.489 7.871 7.782 14.132 8.319 17.083.536 2.952 0 4.473.982 5.636.985 1.162.538 5.635-4.382 4.919s-16.547-3.13-22.809-13.416c-6.261-10.287-9.48-25.761-3.398-37.925s14.492-15.028 18.158-16.369c3.667-1.342 4.928-8.301 6.09-8.659z" fill="#facc00"/><path d="m62.346 69.291c-.537-2.951-4.83-9.212-8.319-17.083-3.489-7.872-1.252-15.922 1.431-21.915 2.683-5.992 1.61-9.569 1.342-11.09-.068-.381-.13-.777-.134-1.188-.908-.044-3.838.36-5.23 1.617-4.638 4.189-9.465 12.908-8.298 24.543 1.291 12.872 7.594 27.313 20.613 32.344.021-.668-.143-1.264-.422-1.593-.983-1.162-.447-2.683-.983-5.635z" fill="#eea200"/><path d="m43.018 37.283s.079-.478.272-1.288c1.088-7.544 4.669-13.225 8.143-16.362.806-.727 2.125-1.168 3.27-1.402 0 0 0-.001.001-.001 0 0-.913-5.776-6.605-5.008-4.225 1.823-10.529 5.611-15.364 15.283-3.414 6.828-3.896 14.7-2.556 22.11 1-6.493 5.088-28.403 12.839-13.332z" fill="#fde06c"/><path d="m59.958 82.031c-.423 0-.859-.032-1.316-.099-2.565-.374-6.901-1.188-11.479-3.29-4.572-2.098-9.428-5.53-12.828-11.117-4.111-6.77-6.947-15.551-6.955-24.429 0-5.301 1.024-10.646 3.472-15.536 3.18-6.372 7.053-10.421 10.632-13.008 3.568-2.586 6.866-3.731 8.686-4.398.509-.164 1.212-.807 1.855-1.845.644-1.021 1.204-2.316 1.698-3.461.343-.773.621-1.45 1.067-2.129.284-.365.561-.891 1.575-1.258.489-.149 1.646-.502 2.916-.823 1.295-.317 2.603-.623 3.833-.638.291.001.587.015.958.102.358.094.868.242 1.382.807.266.306.856.938 1.438 1.586.594.668 1.165 1.308 1.598 1.951.347.543.702 1.156.719 2.07.005.773-.344 1.409-.55 1.704-.221.319-.345.463-.443.613-.237.351-.549.739-1.007 1.275-.454.525-1.028 1.153-1.694 1.819-1.337 1.332-3.017 2.817-4.879 3.909-1.001.583-1.447 1.066-1.64 1.365-.185.305-.208.45-.219.768-.002.216.034.502.099.865.1.579.477 2.043.472 3.979.002 2.151-.445 4.955-1.963 8.341-1.635 3.641-3.042 7.996-3.036 12.432 0 2.572.458 5.171 1.607 7.765 2.552 5.764 5.569 10.668 7.261 14.229.565 1.206.999 2.248 1.206 3.333.425 2.477.289 4.162.449 4.499.038.121.037.104.07.152.742.933.898 1.857.923 2.843-.005 1.2-.361 2.554-1.356 3.714-.972 1.151-2.604 1.911-4.468 1.911-.03 0-.057-.001-.083-.001zm-2.507-75.17c-.599 1.361-1.354 3.131-2.548 4.693-.799 1.034-1.838 2.028-3.281 2.563-1.846.674-4.587 1.632-7.662 3.853-3.062 2.221-6.433 5.684-9.334 11.478-2.105 4.205-3.027 8.886-3.027 13.648-.009 7.962 2.612 16.125 6.341 22.235 2.861 4.699 6.948 7.618 10.986 9.477 4.031 1.855 7.969 2.608 10.319 2.948.269.039.506.055.713.055.922-.023 1.155-.249 1.361-.455.198-.215.329-.617.323-.949.002-.1-.01-.185-.02-.236-.405-.51-.677-1.102-.821-1.644-.16-.589-.205-1.116-.238-1.616-.06-.999-.06-1.947-.295-3.244-.062-.389-.365-1.236-.866-2.282-.499-1.053-1.182-2.336-1.966-3.787-1.571-2.909-3.549-6.498-5.339-10.536-1.411-3.179-1.972-6.399-1.97-9.475.004-5.321 1.64-10.207 3.403-14.155 1.291-2.895 1.593-5.038 1.597-6.617-.004-1.458-.248-2.375-.408-3.246-.072-.425-.162-.963-.164-1.599-.01-.905.225-2.04.896-3.06.665-1.026 1.672-1.91 3.056-2.719 2.047-1.177 4.356-3.492 5.503-4.838.378-.438.659-.807.69-.858.01-.015.018-.028.028-.042-.239-.3-.609-.734-.978-1.14-.339-.378-.681-.748-.978-1.075-.565.062-1.562.256-2.46.491-.823.208-1.615.437-2.169.602-.169.328-.415.885-.692 1.53zm-.225-2.604-.241-.779z"/></svg>