<svg id="Layer_2" data-name="Layer 2" xmlns="http://www.w3.org/2000/svg" viewBox="0 0 209.49 42.24" height="42.24" width="209.49"><defs><style>.cls-1{fill:#4e5054;}.cls-2{fill:#ff4f1f;}</style></defs><path class="cls-1" d="M261,53.64h-1v-.4h2.53v.4h-1V56.4H261Z" transform="translate(-56.58 -42.76)"/><path class="cls-1" d="M264.25,56.4l-.88-2.74V56.4h-.46V53.24h.76l.82,2.63.82-2.63h.76V56.4h-.46V53.66l-.88,2.74Z" transform="translate(-56.58 -42.76)"/><path class="cls-2" d="M77.8,45.21a1.88,1.88,0,1,1,0,3.76h-.1a1.89,1.89,0,0,1-1.78-1.79,1.88,1.88,0,0,1,1.88-2m0-2.45a4.33,4.33,0,0,0-.21,8.66h.21a4.33,4.33,0,0,0,0-8.66Z" transform="translate(-56.58 -42.76)"/><path class="cls-2" d="M74.91,73a4.37,4.37,0,1,1,0,8.73H70.18a4.37,4.37,0,0,1,0-8.73h4.73m0-2.85H70.18a7.22,7.22,0,1,0,0,14.43h4.73a7.22,7.22,0,1,0,0-14.43Z" transform="translate(-56.58 -42.76)"/><path class="cls-2" d="M74.91,56.09a4.37,4.37,0,1,1,0,8.73H63.79a4.37,4.37,0,0,1,0-8.73H74.91m0-2.85H63.79a7.22,7.22,0,0,0,0,14.44H74.91a7.22,7.22,0,1,0,0-14.44Z" transform="translate(-56.58 -42.76)"/><polygon class="cls-1" points="64.19 41.8 64.19 10.49 81.83 10.49 81.83 13.58 67.33 13.58 67.33 24.43 80.35 24.43 80.35 27.47 67.33 27.47 67.33 38.71 81.83 38.71 81.83 41.8 64.19 41.8"/><polygon class="cls-1" points="116.11 41.8 116.11 10.49 133.75 10.49 133.75 13.58 119.24 13.58 119.24 24.43 132.26 24.43 132.26 27.47 119.24 27.47 119.24 38.71 133.75 38.71 133.75 41.8 116.11 41.8"/><polygon class="cls-1" points="168.88 41.8 168.88 28.82 158.31 10.49 161.81 10.49 170.47 25.5 179.09 10.49 182.6 10.49 172.02 28.82 172.02 41.8 168.88 41.8"/><polygon class="cls-1" points="109.69 41.8 109.69 10.49 106.55 10.49 106.55 36.08 91.04 10.49 87.91 10.49 87.91 10.49 87.91 41.8 91.04 41.8 91.04 16.21 106.55 41.8 109.69 41.8"/><path class="cls-1" d="M104.2,71.1h7.51v2.49c0,6.13-3.88,8.32-7.51,8.32s-7.5-2.19-7.5-8.32V64.22c0-6.14,3.87-8.32,7.5-8.32a7.11,7.11,0,0,1,7.38,6.42h3.15c-.73-5.8-4.8-9.51-10.53-9.51-6.36,0-10.64,4.57-10.64,11.38v9.42C93.56,80.42,97.84,85,104.2,85s10.64-4.58,10.64-11.39V68.06H104.2Z" transform="translate(-56.58 -42.76)"/><path class="cls-1" d="M197.3,75.09c.27,4.2,3,6.82,7,6.82s6.14-2,6.14-5.49a5.24,5.24,0,0,0-4.27-5.24l-5.29-1.44c-3.89-1-6.21-4.21-6.21-8.44,0-5.08,3.62-8.49,9-8.49,6.17,0,8.89,4.29,9.48,8.59H210c-.71-3.59-3-5.5-6.35-5.5-3.58,0-5.88,2.12-5.88,5.4a5.22,5.22,0,0,0,4.05,5.37l5.46,1.49a8.21,8.21,0,0,1,6.26,8.26c0,5.29-3.56,8.58-9.28,8.58-7.12,0-10-5.43-10.14-9.91Z" transform="translate(-56.58 -42.76)"/><path class="cls-1" d="M243.63,75.09c.27,4.2,3.06,6.82,7,6.82s6.14-2,6.14-5.49a5.25,5.25,0,0,0-4.27-5.24l-5.29-1.44c-3.89-1-6.21-4.21-6.21-8.44,0-5.08,3.62-8.49,9-8.49,6.17,0,8.88,4.29,9.48,8.59h-3.14c-.71-3.59-3-5.5-6.34-5.5-3.58,0-5.89,2.12-5.89,5.4a5.23,5.23,0,0,0,4.06,5.37l5.46,1.49a8.21,8.21,0,0,1,6.26,8.26c0,5.29-3.56,8.58-9.28,8.58-7.12,0-10-5.43-10.14-9.91Z" transform="translate(-56.58 -42.76)"/></svg>