<?xml version="1.0" encoding="utf-8"?>
<!-- Generator: Adobe Illustrator 24.2.1, SVG Export Plug-In . SVG Version: 6.00 Build 0)  -->
<svg version="1.1" id="Layer_1" xmlns="http://www.w3.org/2000/svg" xmlns:xlink="http://www.w3.org/1999/xlink" x="0px" y="0px"
	 viewBox="0 0 841.89 595.28" style="enable-background:new 0 0 841.89 595.28;" xml:space="preserve">
<style type="text/css">
	.st0{fill:#004AFF;}
</style>
<g>
	<path class="st0" d="M362.01,312.92l-23.72-15.32l23.72-15.32c5.02-3.24,9.19-7.73,12.04-12.98c2.86-5.25,4.37-11.18,4.37-17.16
		c0-10.96-4.88-21.17-13.62-28.14c-6.38-5.1-14.39-7.73-22.55-7.73H297.1c-10.97,0-21.63,2.15-31.66,6.39
		c-9.68,4.1-18.38,9.96-25.85,17.42c-7.47,7.47-13.33,16.16-17.42,25.85c-4.24,10.03-6.39,20.68-6.39,31.66
		c0,10.97,2.15,21.63,6.39,31.66c4.1,9.68,9.96,18.38,17.42,25.85c7.47,7.47,16.16,13.33,25.85,17.42
		c10.03,4.24,20.68,6.39,31.66,6.39h45.45c9.58,0,18.59-3.73,25.36-10.51c6.77-6.77,10.51-15.78,10.51-25.36
		c0-5.98-1.51-11.91-4.37-17.16C371.19,320.65,367.03,316.16,362.01,312.92z M342.49,363.93H297.1c-8.96,0-17.64-1.75-25.81-5.21
		c-7.9-3.34-14.99-8.12-21.08-14.22c-6.09-6.09-10.88-13.19-14.22-21.08c-3.46-8.17-5.21-16.86-5.21-25.81
		c0-8.96,1.75-17.64,5.21-25.81c3.34-7.9,8.12-14.99,14.22-21.08c6.09-6.09,13.19-10.88,21.08-14.22
		c8.17-3.46,16.86-5.21,25.81-5.21h45.39c8.81,0,18.07,6.92,20.25,15.46c2.32,9.08-1.39,18.12-8.86,22.94l-29.42,18.99l-21.04-13.58
		c-0.34-0.22-0.7-0.41-1.07-0.57l0,0c-7.81-3.41-16.73-2.65-23.86,2.02c-7.13,4.67-11.39,12.54-11.39,21.07s4.26,16.4,11.39,21.07
		c7.13,4.67,16.05,5.42,23.86,2.02l0,0c0.37-0.16,0.73-0.35,1.07-0.57l21.04-13.58l29.42,18.99c7.47,4.83,11.18,13.86,8.86,22.94
		C360.55,357,351.3,363.93,342.49,363.93z M297.86,305.85l-0.49,0.32c-2.34,1.51-5.23,2.03-7.9,1.24c-1.3-0.38-2.55-1.04-3.68-1.95
		c-2.07-1.68-3.39-4.15-3.64-6.81c-0.36-3.91,1.34-7.45,4.56-9.55c1.71-1.12,3.62-1.69,5.55-1.69l0.07,0c1.64,0,3.24,0.48,4.61,1.36
		l0.92,0.6C303.85,293.23,303.85,301.98,297.86,305.85z"/>
	<g>
		<path d="M438.36,253.34c3.79,0,7.2-0.88,10.28-2.69c3.08-1.81,5.44-4.18,7.09-7.09v-10.72H438.3v6.43h10.01v2.97
			c-2.14,3.02-5.33,4.51-9.57,4.51c-3.63,0-6.54-1.15-8.74-3.41c-2.2-2.25-3.3-5.17-3.3-8.74c0-3.46,1.04-6.32,3.19-8.58
			c2.15-2.25,4.95-3.35,8.41-3.35c4.18,0,7.53,1.76,10.12,5.33l5.28-4.34c-3.68-5.22-8.8-8.03-15.34-8.03
			c-5.44,0-10.06,1.82-13.8,5.44c-3.74,3.63-5.61,8.08-5.61,13.42c0,5.33,1.87,9.79,5.61,13.42
			C428.3,251.53,432.91,253.34,438.36,253.34z"/>
		<polygon points="485.42,245.87 469.53,245.87 469.53,216.28 462.11,216.28 462.11,252.57 485.42,252.57 		"/>
		<path d="M507.24,253.34c5.33,0,9.9-1.81,13.69-5.44c3.79-3.63,5.66-8.08,5.66-13.42c0-5.33-1.87-9.79-5.66-13.42
			c-3.79-3.63-8.36-5.44-13.69-5.44c-5.33,0-9.9,1.82-13.64,5.44c-3.74,3.63-5.61,8.08-5.61,13.42c0,5.33,1.87,9.79,5.61,13.42
			C497.35,251.53,501.91,253.34,507.24,253.34z M498.83,225.91c2.2-2.25,5-3.35,8.36-3.35l0.11-0.06c3.35,0,6.1,1.1,8.3,3.35
			c2.2,2.26,3.3,5.11,3.3,8.58s-1.1,6.32-3.3,8.58c-2.2,2.25-5,3.35-8.36,3.35c-3.41,0-6.21-1.1-8.41-3.3
			c-2.2-2.2-3.3-5.06-3.3-8.58C495.53,231.02,496.63,228.16,498.83,225.91z"/>
		<path d="M554.53,233v-0.06c1.82-1.7,2.69-3.9,2.69-6.54c0-2.97-1.1-5.39-3.24-7.26c-2.14-1.87-4.89-2.8-8.25-2.8h-12.87v36.29
			h16.17c3.52,0,6.38-0.99,8.58-2.97c2.2-1.98,3.3-4.56,3.3-7.7c0-2.14-0.55-4.01-1.65-5.55C558.16,234.87,556.56,233.71,554.53,233
			z M539.96,222.72h5.17c1.48,0,2.64,0.38,3.46,1.1c0.82,0.72,1.21,1.71,1.21,2.97c0,1.26-0.44,2.31-1.27,3.08
			c-0.82,0.77-1.98,1.15-3.46,1.15h-5.11V222.72z M552.22,245.04c-0.93,0.82-2.2,1.21-3.79,1.21h-8.47v-9.13h8.47
			c1.59,0,2.86,0.44,3.79,1.27c0.93,0.82,1.37,1.92,1.37,3.3C553.59,243.12,553.15,244.22,552.22,245.04z"/>
		<path d="M573,247.84h14.84l2.03,4.73h7.97l-16.16-36.95h-2.47l-16.22,36.95h7.97L573,247.84z M580.42,229.54l4.78,12.21h-9.57
			L580.42,229.54z"/>
		<polygon points="610.22,245.87 610.22,216.28 602.8,216.28 602.8,252.57 626.11,252.57 626.11,245.87 		"/>
		<path d="M454.3,307.54l-5.61-3.96c-2.58,4.07-6.05,6.1-10.39,6.1c-3.41,0-6.21-1.1-8.41-3.3c-2.2-2.2-3.3-5.06-3.3-8.52
			c0-3.52,1.1-6.38,3.3-8.63c2.2-2.26,5-3.35,8.41-3.35c4.34,0,7.81,2.03,10.39,6.1l5.61-3.96c-1.59-2.81-3.79-5-6.6-6.6
			c-2.8-1.6-5.94-2.64-9.4-2.64c-5.44,0-10.01,1.82-13.74,5.44c-3.74,3.63-5.61,8.08-5.61,13.42c0,5.33,1.87,9.79,5.61,13.42
			c3.74,3.63,8.3,5.44,13.74,5.44c3.46,0,6.6-0.77,9.4-2.36C450.51,312.54,452.71,310.34,454.3,307.54z"/>
		<polygon points="457.21,286.15 468.82,286.15 468.82,315.73 476.24,315.73 476.24,286.15 487.89,286.15 487.89,279.44 
			457.21,279.44 		"/>
		<path d="M509.11,316.5c5.33,0,9.9-1.81,13.69-5.44c3.79-3.63,5.66-8.08,5.66-13.42c0-5.33-1.87-9.79-5.66-13.42
			c-3.79-3.63-8.36-5.44-13.69-5.44c-5.33,0-9.9,1.82-13.64,5.44c-3.74,3.63-5.61,8.08-5.61,13.42c0,5.33,1.87,9.79,5.61,13.42
			C499.22,314.68,503.78,316.5,509.11,316.5z M500.7,289.06c2.2-2.25,5-3.35,8.36-3.35l0.11-0.06c3.35,0,6.1,1.1,8.3,3.35
			c2.2,2.26,3.3,5.11,3.3,8.58c0,3.46-1.1,6.32-3.3,8.58c-2.2,2.25-5,3.35-8.36,3.35c-3.41,0-6.21-1.1-8.41-3.3
			c-2.2-2.2-3.3-5.06-3.3-8.58C497.4,294.17,498.5,291.31,500.7,289.06z"/>
		<polygon points="421.04,378.88 428.46,378.88 428.46,365.08 441.93,365.08 441.93,358.37 428.46,358.37 428.46,349.3 444.9,349.3 
			444.9,342.59 421.04,342.59 		"/>
		<path d="M467.33,341.93c-5.33,0-9.9,1.81-13.64,5.44c-3.74,3.63-5.61,8.08-5.61,13.42c0,5.33,1.87,9.79,5.61,13.42
			c3.74,3.63,8.3,5.44,13.64,5.44c5.33,0,9.9-1.81,13.69-5.44c3.79-3.63,5.66-8.08,5.66-13.42c0-5.33-1.87-9.79-5.66-13.42
			S472.66,341.93,467.33,341.93z M475.69,369.31c-2.2,2.25-5,3.35-8.36,3.35c-3.41,0-6.21-1.1-8.41-3.3c-2.2-2.2-3.3-5.06-3.3-8.58
			c0-3.46,1.1-6.32,3.3-8.58c2.2-2.25,5-3.35,8.36-3.35l0.11-0.06c3.36,0,6.1,1.1,8.3,3.35c2.2,2.26,3.3,5.11,3.3,8.58
			S477.89,367.06,475.69,369.31z"/>
		<path d="M517.97,360.46c1.16-1.76,1.71-3.79,1.71-6.1c0-3.52-1.21-6.32-3.63-8.47c-2.42-2.14-5.55-3.19-9.4-3.19h-13.64v36.29
			h7.42v-12.81h5.44l9.4,12.81l8.3-0.11l-10.28-14.29C515.27,363.6,516.81,362.22,517.97,360.46z M510.65,358.21
			c-0.99,0.93-2.36,1.43-4.07,1.43h-6.21l0.06-10.39h6.21c1.7,0,3.02,0.49,4.01,1.43c0.99,0.94,1.48,2.2,1.48,3.74
			C512.14,356.01,511.65,357.27,510.65,358.21z"/>
		<path d="M550.08,364.42c0,2.64-0.72,4.67-2.2,6.1c-1.48,1.43-3.41,2.14-5.77,2.14c-2.36,0-4.29-0.72-5.77-2.14
			c-1.48-1.43-2.25-3.46-2.25-6.1v-21.83h-7.42v21.28c0,4.78,1.43,8.58,4.29,11.44c2.86,2.86,6.54,4.29,11.05,4.29
			c4.51,0,8.19-1.43,11.05-4.29c2.86-2.86,4.23-6.65,4.29-11.44l0.17-21.28h-7.42V364.42z"/>
		<polygon points="583.28,361.62 567.94,341.93 565.52,341.93 565.52,378.88 572.95,378.88 572.95,359.47 582.07,370.96 
			584.49,370.96 593.62,359.47 593.62,378.88 601.04,378.88 601.04,341.93 598.62,341.93 		"/>
	</g>
</g>
</svg>
