<svg height="99.212" viewBox="0 0 212.598 99.212" width="212.598" xmlns="http://www.w3.org/2000/svg"><g transform="translate(-314.646 -106.299)"><path d="m333.522 147.313c0 11.111 2.638 14.664 6.951 14.664 4.312 0 6.95-3.553 6.95-14.664 0-11.112-2.638-14.664-6.95-14.664-4.313 0-6.951 3.552-6.951 14.664m22.681 43.535c0-2.792-1.269-4.312-5.988-4.312h-17.862c-2.434 2.333-3.551 5.986-3.551 8.22 0 5.935 5.125 8.98 11.671 8.98 8.372 0 15.73-4.718 15.73-12.888m-6.598-59.062c7.968 2.03 13.245 7.002 13.245 15.527 0 11.417-9.591 16.541-22.377 16.541-3.248 0-6.292-.304-8.981-1.015-3.5 2.08-5.936 3.755-5.936 6.393 0 2.385 1.47 3.451 4.262 3.451h23.898c7.56 0 14.056 2.689 14.056 11.163 0 9.996-9.437 21.665-30.09 21.665-15.678 0-23.036-4.009-23.036-8.981 0-6.595 10.199-6.188 15.73-9.994h-2.436c-3.957 0-11.618-1.37-11.618-9.641 0-5.886 3.347-9.946 13.243-14.614-6.953-2.283-11.418-7.155-11.418-14.968 0-11.468 9.539-16.542 22.326-16.542 2.739 0 5.379.253 7.764.711z" fill="#008153"/><g fill="#85b731"><path d="m366.277 106.299s1.438 9.027-3.234 15.522c-4.675 6.498-13.69 8.006-13.69 8.006s-1.44-9.026 3.233-15.524c4.674-6.497 13.691-8.004 13.691-8.004"/><path d="m368.758 129.598s-3.491 2.351-8.038 2.792c-4.548.437-8.426-1.201-8.426-1.201s3.491-2.351 8.038-2.792c4.547-.438 8.426 1.201 8.426 1.201"/><path d="m347.304 129.245s-3.748-1.911-6.342-5.672c-2.591-3.762-3.039-7.949-3.039-7.949s3.75 1.913 6.342 5.673c2.59 3.761 3.039 7.948 3.039 7.948"/><path d="m375.465 201.16h1.407c1.947 0 3.455-.942 3.455-3.041 0-2.101-1.508-3.042-3.455-3.042h-1.407zm-.683-6.703h2.266c3.808 0 3.963 3.124 3.963 3.662s-.155 3.662-3.963 3.662h-2.266z"/><path d="m383.709 194.457h.683v7.324h-.683z"/><path d="m388.188 197.685h1.447c1.438 0 1.718-.796 1.718-1.303 0-.508-.28-1.304-1.718-1.304h-1.447zm-.684-3.228h1.924c.58 0 2.608 0 2.608 1.925 0 1.396-1.066 1.778-1.873 1.882l2.131 3.517h-.776l-2.058-3.476h-1.272v3.476h-.684z"/><path d="m394.765 194.457h4.479v.62h-3.796v2.608h3.558v.62h-3.558v2.855h3.962v.621h-4.645z"/><path d="m407.968 200.633c-.692.952-1.645 1.335-2.72 1.335-2.235 0-3.787-1.614-3.787-3.849s1.552-3.849 3.787-3.849c.993 0 1.883.332 2.524 1.149l-.559.465c-.455-.682-1.23-.993-1.965-.993-1.914 0-3.104 1.407-3.104 3.228 0 1.82 1.19 3.228 3.104 3.228.735 0 1.645-.352 2.162-1.138z"/><path d="m412.2 195.077h-2.503v-.62h5.69v.62h-2.504v6.704h-.683z"/><path d="m421.867 201.16h1.406c1.946 0 3.456-.942 3.456-3.041 0-2.101-1.51-3.042-3.456-3.042h-1.406zm-.683-6.703h2.266c3.807 0 3.963 3.124 3.963 3.662s-.156 3.662-3.963 3.662h-2.266z"/><path d="m430.097 194.457h4.48v.62h-3.796v2.608h3.558v.62h-3.558v2.855h3.962v.621h-4.646z"/><path d="m437.239 194.457h.683v6.703h3.414v.621h-4.097z"/><path d="m443.611 194.457h.684v7.324h-.684z"/><path d="m446.511 194.457h.733l2.36 6.424 2.379-6.424h.724l-2.783 7.324h-.683z"/><path d="m454.934 194.457h4.479v.62h-3.796v2.608h3.558v.62h-3.558v2.855h3.962v.621h-4.645z"/><path d="m462.759 197.685h1.448c1.438 0 1.717-.796 1.717-1.303 0-.508-.279-1.304-1.717-1.304h-1.448zm-.684-3.228h1.925c.579 0 2.607 0 2.607 1.925 0 1.396-1.066 1.778-1.873 1.882l2.131 3.517h-.776l-2.059-3.476h-1.271v3.476h-.684z"/><path d="m470.952 198.626-2.689-4.168h.817l2.214 3.475 2.265-3.475h.765l-2.688 4.168v3.155h-.684z"/><path d="m480.227 200.426c.362.61.951.921 1.676.921.921 0 1.645-.559 1.645-1.438 0-2.048-3.776-.849-3.776-3.631 0-1.304 1.117-2.008 2.35-2.008.795 0 1.499.269 1.995.922l-.59.423c-.341-.475-.796-.724-1.428-.724-.879 0-1.644.456-1.644 1.387 0 2.203 3.776.879 3.776 3.631 0 1.324-1.086 2.059-2.275 2.059-.963 0-1.812-.311-2.381-1.108z"/><path d="m486.857 194.457h4.48v.62h-3.796v2.608h3.558v.62h-3.558v2.855h3.961v.621h-4.645z"/><path d="m494.684 197.685h1.447c1.438 0 1.717-.796 1.717-1.303 0-.508-.279-1.304-1.717-1.304h-1.447zm-.684-3.228h1.924c.58 0 2.608 0 2.608 1.925 0 1.396-1.067 1.778-1.873 1.882l2.13 3.517h-.775l-2.059-3.476h-1.271v3.476h-.684z"/><path d="m500.311 194.457h.733l2.361 6.424 2.379-6.424h.724l-2.783 7.324h-.685z"/><path d="m508.734 194.457h.682v7.324h-.682z"/><path d="m518.605 200.633c-.693.952-1.644 1.335-2.72 1.335-2.237 0-3.788-1.614-3.788-3.849s1.551-3.849 3.788-3.849c.992 0 1.883.332 2.521 1.149l-.557.465c-.455-.682-1.229-.993-1.964-.993-1.914 0-3.104 1.407-3.104 3.228 0 1.82 1.19 3.228 3.104 3.228.735 0 1.643-.352 2.159-1.138z"/><path d="m520.981 194.457h4.48v.62h-3.796v2.608h3.558v.62h-3.558v2.855h3.961v.621h-4.645z"/></g><path d="m380.737 177.746c0-.65.049-1.139-.131-1.448-.162-.309-.519-.455-1.349-.39v2.651h2.765v2.716h-2.765v1.773c0 .522-.049 1.042.471 1.367v2.473h-5.286v-2.473c.521-.325.472-.845.472-1.367v-6.261c0-.732-.049-1.172-.553-1.367v-2.473h10.133v4.799z" fill="#008153"/><path d="m389.828 183.065c0 .098-.049 1.09.846 1.09s.845-.992.845-1.09v-6.311c0-.098.05-1.074-.845-1.074s-.846.976-.846 1.074zm6.035-.211c0 3.448-2.115 4.31-5.189 4.31-3.075 0-5.189-.862-5.189-4.31v-5.873c0-3.447 2.114-4.31 5.189-4.31 3.074 0 5.189.863 5.189 4.31z" fill="#008153"/><path d="m401.533 183.065c0 .098-.049 1.09.846 1.09.894 0 .845-.992.845-1.09v-6.311c0-.098.049-1.074-.845-1.074-.895 0-.846.976-.846 1.074zm6.034-.211c0 3.448-2.114 4.31-5.188 4.31-3.075 0-5.19-.862-5.19-4.31v-5.873c0-3.447 2.115-4.31 5.19-4.31 3.074 0 5.188.863 5.188 4.31z" fill="#008153"/><path d="m413.715 183.943h.342c.942 0 1.236-.341 1.236-1.35v-5.254c0-1.008-.294-1.35-1.236-1.35h-.342zm1.122-10.996c1.188 0 2.554.017 3.546.782 1.139.894 1.253 2.163 1.253 3.497v5.221c0 1.367-.066 2.423-1.122 3.416-.993.943-2.23 1.025-3.546 1.025h-6.149v-2.472c.487-.212.537-.635.552-1.107v-6.783c-.015-.487-.049-.895-.552-1.106v-2.473z" fill="#008153"/><path d="m432.427 177.16c0-.618-.016-1.48-.861-1.48-.553 0-.847.406-.847.927 0 .277.033.553.261.781.244.261.861.456 1.219.553 1.041.276 2.441.651 3.319 1.236.505.342.879.749 1.074 1.335.228.601.325 1.268.325 1.919v.065c0 2.684-1.188 4.668-5.336 4.668-1.772 0-3.643-.342-5.058-1.463v-3.742h4.245c0 .829-.016 1.447.13 1.741.147.275.456.455.781.455.586 0 .846-.57.846-1.074 0-1.431-.895-1.545-2.099-1.838-2.635-.651-4.115-1.285-4.115-4.294v-.31c.065-1.496.308-2.244 1.448-3.105.927-.701 2.276-.863 3.578-.863 1.887 0 3.563.374 5.141 1.464v3.286h-4.051z" fill="#008153"/><path d="m443.918 172.947h5.042v2.473c-.585.325-.537.845-.537 1.366v5.644c-.033 1.481-.147 2.652-1.334 3.693-1.025.894-2.44 1.041-3.692 1.041-1.253 0-2.668-.147-3.693-1.041-1.186-1.041-1.301-2.212-1.333-3.693v-5.644c0-.521.048-1.041-.473-1.366v-2.473h5.288v2.473c-.521.325-.472.845-.472 1.366v6.361c0 .276.064.991.861.991.798 0 .863-.715.863-.991v-6.361c-.016-.521.032-1.041-.52-1.366z" fill="#008153"/><path d="m454.992 179.942h.406c1.285 0 1.237-.732 1.237-2.034 0-1.317.048-2.049-1.237-2.049h-.406zm-4.344-3.155c0-.521.05-1.042-.471-1.367v-2.473h5.677c1.188 0 2.782-.016 3.758.732 1.594 1.221 1.366 3.45 1.366 3.807v1.106c0 2.652-.879 4.294-4.44 4.294h-1.546c0 .684-.049 1.204.472 1.53v2.472h-5.287v-2.472c.521-.326.471-.846.471-1.368z" fill="#008153"/><path d="m466.849 179.942h.406c1.285 0 1.237-.732 1.237-2.034 0-1.317.048-2.049-1.237-2.049h-.406zm-4.344-3.155c0-.521.049-1.042-.471-1.367v-2.473h5.676c1.189 0 2.783-.016 3.758.732 1.595 1.221 1.367 3.45 1.367 3.807v1.106c0 2.652-.879 4.294-4.441 4.294h-1.545c0 .684-.049 1.204.472 1.53v2.472h-5.287v-2.472c.52-.326.471-.846.471-1.368z" fill="#008153"/><path d="m473.751 186.888v-2.472c.521-.325.473-.846.473-1.367v-6.262c0-.521.048-1.042-.473-1.367v-2.472h5.288v2.472c-.52.325-.474.846-.474 1.367v7.141h.424c1.107 0 1.09-.667 1.09-1.546v-2.261h3.823v6.767z" fill="#008153"/><path d="m485.6 176.787c0-.521.049-1.042-.472-1.367v-2.472h5.286v2.472c-.519.325-.47.846-.47 1.367v6.262c0 .521-.049 1.042.47 1.367v2.472h-5.286v-2.472c.521-.325.472-.846.472-1.367z" fill="#008153"/><path d="m502.104 181.845v5.042h-10.443v-2.472c.519-.325.472-.845.472-1.367v-6.262c0-.521.047-1.041-.472-1.366v-2.473h10.443v4.718h-4.002v-.424c0-.943-.131-1.334-1.301-1.334h-.261v2.49h2.75v2.716h-2.75v2.815h.261c1.301 0 1.283-.489 1.301-1.627v-.456z" fill="#008153"/><path d="m508.039 178.673h.438c.945 0 1.236-.488 1.236-1.464 0-.895-.291-1.383-1.236-1.383h-.438zm0 4.375c0 .521-.049 1.042.471 1.367v2.472h-5.287v-2.472c.521-.325.472-.846.472-1.367v-6.262c0-.521.049-1.041-.472-1.366v-2.473h6.035c1.074 0 2.424-.016 3.367.554 1.139.666 1.529 1.854 1.529 3.122 0 1.529-.457 2.863-2.082 3.27v.032c1.367.326 1.822.912 1.822 2.327v.796c0 .472 0 1.155.538 1.367v2.472h-4.668c-.18-.764-.295-1.415-.246-3.74 0-1.107-.114-1.661-1.301-1.693h-.178z" fill="#008153"/><path d="m521.662 177.16c0-.618-.016-1.48-.861-1.48-.553 0-.846.406-.846.927 0 .277.031.553.26.781.244.261.861.456 1.218.553 1.042.276 2.44.651 3.321 1.236.504.342.879.749 1.072 1.335.229.601.326 1.268.326 1.919v.065c0 2.684-1.187 4.668-5.336 4.668-1.773 0-3.644-.342-5.058-1.463v-3.742h4.246c0 .829-.018 1.447.131 1.741.146.275.455.455.779.455.586 0 .846-.57.846-1.074 0-1.431-.895-1.545-2.098-1.838-2.637-.651-4.115-1.285-4.115-4.294v-.31c.064-1.496.308-2.244 1.445-3.105.93-.701 2.279-.863 3.58-.863 1.889 0 3.565.374 5.141 1.464v3.286h-4.051z" fill="#008153"/><path d="m395.519 149.51h-9.237v-.683c0-1.366.287-3.989-1.833-3.989-1.798 0-1.942 1.689-1.942 3.019v13.694c0 .323.144 2.013 1.942 2.013 2.12 0 1.833-2.624 1.833-4.026v-1.366h-1.655v-6.002h10.892v14.7c-3.02 2.732-7.584 3.343-11.502 3.343-2.768 0-5.931-.215-8.123-2.049-2.84-2.408-2.983-5.211-2.983-8.591v-11.716c0-2.732.323-5.392 2.551-7.261 2.229-1.905 5.285-2.408 8.123-2.408 4.205 0 8.555.97 11.934 3.558z" fill="#008153"/><path d="m408.731 151.451h.971c2.084 0 2.731-1.079 2.731-3.235 0-1.976-.647-3.055-2.731-3.055h-.971zm0 9.668c0 1.151-.108 2.301 1.042 3.02v5.463h-11.682v-5.463c1.151-.719 1.042-1.869 1.042-3.02v-13.837c0-1.15.109-2.301-1.042-3.019v-5.464h13.335c2.372 0 5.356-.036 7.441 1.222 2.515 1.473 3.378 4.098 3.378 6.901 0 3.379-1.006 6.326-4.601 7.224v.073c3.02.718 4.026 2.012 4.026 5.139v1.761c0 1.042 0 2.553 1.186 3.02v5.463h-10.315c-.396-1.69-.648-3.127-.539-8.267 0-2.444-.252-3.666-2.875-3.738h-.396z" fill="#008153"/><path d="m448.54 158.46v11.142h-23.076v-5.463c1.15-.719 1.043-1.869 1.043-3.019v-13.838c0-1.15.107-2.301-1.043-3.019v-5.464h23.076v10.423h-8.842v-.934c0-2.084-.288-2.948-2.876-2.948h-.575v5.5h6.074v6.002h-6.074v6.219h.575c2.876 0 2.84-1.079 2.876-3.594v-1.007z" fill="#008153"/><path d="m473.962 158.46v11.142h-23.076v-5.463c1.15-.719 1.043-1.869 1.043-3.019v-13.838c0-1.15.107-2.301-1.043-3.019v-5.464h23.076v10.423h-8.843v-.934c0-2.084-.287-2.948-2.875-2.948h-.575v5.5h6.074v6.002h-6.074v6.219h.575c2.875 0 2.84-1.079 2.875-3.594v-1.007z" fill="#008153"/><path d="m492.26 152.709h.07v-5.427c0-1.15.11-2.301-1.041-3.019v-5.464h9.848v5.464c-1.15.718-1.043 1.869-1.043 3.019v22.32h-9.309l-5.714-13.837h-.072v5.355c0 1.15-.108 2.3 1.042 3.019v5.463h-9.56v-5.463c1.149-.719 1.043-1.869 1.043-3.019v-13.838c0-1.15.106-2.301-1.043-3.019v-5.464h10.424z" fill="#008153"/><path d="m517.324 148.108c0-1.366-.035-3.271-1.906-3.271-1.219 0-1.867.899-1.867 2.049 0 .611.072 1.222.574 1.725.541.575 1.906 1.007 2.695 1.222 2.301.611 5.391 1.438 7.332 2.733 1.115.754 1.942 1.652 2.373 2.946.502 1.33.719 2.804.719 4.242v.143c0 5.931-2.625 10.316-11.787 10.316-3.92 0-8.053-.755-11.18-3.235v-8.267h9.381c0 1.833-.035 3.199.287 3.846.322.611 1.006 1.007 1.727 1.007 1.293 0 1.869-1.259 1.869-2.373 0-3.163-1.979-3.414-4.639-4.062-5.822-1.438-9.094-2.838-9.094-9.488v-.683c.147-3.307.684-4.96 3.2-6.865 2.048-1.546 5.033-1.905 7.908-1.905 4.17 0 7.871.826 11.359 3.234v7.261h-8.951z" fill="#008153"/><path d="m374.782 191.359c-.355 0-.641-.29-.641-.644 0-.355.286-.642.641-.642h150.679c.353 0 .64.287.64.642 0 .354-.287.644-.64.644z" fill="#008153"/></g></svg>