<svg height="238" width="604" viewBox="0 0 784 238" xmlns="http://www.w3.org/2000/svg" fill-rule="evenodd" clip-rule="evenodd" stroke-linejoin="round" stroke-miterlimit="2"><g fill-rule="nonzero"><path d="M308.844 53.08c4.445 0 8.105 3.655 8.11 8.1v43.54c6.66-9.9 19.45-18.37 37.1-18.37 26.29 0 40.69 18 40.69 43.59v44.3c0 4.444-3.656 8.1-8.1 8.1h-.18c-4.444 0-8.1-3.656-8.1-8.1V132.5c0-17.83-9.19-31.16-28.82-31.16-18.91 0-32.59 13-32.59 33v40c-.005 4.445-3.665 8.1-8.11 8.1-4.444 0-8.1-3.656-8.1-8.1V61.18c0-4.444 3.656-8.1 8.1-8.1zM414.024 156.09c0-17.47 15.13-26.47 37.28-29l41.6-4.68v-2.34c0-11.89-9.73-19.81-28.1-19.81-13.24 0-24.89 5.17-30.77 13.06a7.511 7.511 0 01-9.11 2.5 7.472 7.472 0 01-4.35-6.781c0-1.68.567-3.312 1.61-4.629 8.63-11.16 25-18 43-18 27.2 0 43.41 12.07 43.41 33.86v42.45c0 5.33 2.69 7.76 8.56 7.59l.15-.002c3.516 0 6.41 2.894 6.41 6.41v.002c.019 3.308-2.526 6.116-5.82 6.42-14.29 1.06-22.1-5.28-23.53-15l-.18-.9c-8.47 10.81-24.5 17.11-42.32 17.11-21.09.01-37.84-9.71-37.84-28.26zm78.88-20.71l-39.26 4.5c-14 1.62-23.77 5.22-23.77 16 0 9.72 9.18 15.13 23.23 15.13 18.55 0 39.8-8.65 39.8-26.3v-9.33zM547.644 182.38c-4.445 0-8.105-3.655-8.11-8.1V61.18c.005-4.445 3.665-8.1 8.11-8.1 4.444 0 8.1 3.656 8.1 8.1v43.54c7-10.08 20.89-18.37 39.62-18.37 31.7 0 51.51 21.61 51.51 49 0 27.19-19.81 49-51.51 49-18.73 0-32.59-8.28-39.62-18.55v8.48c0 4.444-3.656 8.1-8.1 8.1zm7.38-46.46c0 21.43 18.55 34.58 38.36 34.58 21.07 0 38-13.33 38-35.12 0-22-16.93-35.3-38-35.3-19.81 0-38.36 13.33-38.36 34.58v1.26zM675.684 53.08c4.839 0 8.82 3.981 8.82 8.82v1.08c0 4.84-3.98 8.825-8.82 8.83-4.844 0-8.83-3.986-8.83-8.83V61.9c0-4.839 3.981-8.82 8.82-8.82h.01zm0 129.3c-4.445 0-8.105-3.655-8.11-8.1v-78c0-4.449 3.661-8.11 8.11-8.11 4.445.005 8.1 3.665 8.1 8.11v78c0 4.444-3.656 8.1-8.1 8.1zM721.784 102.06h-15.94c-3.803 0-6.935-3.127-6.94-6.93 0-3.807 3.133-6.94 6.94-6.94h15.94V68.65c0-4.389 3.611-8 8-8 4.389 0 8 3.611 8 8v19.54h36.65c3.803.005 6.93 3.137 6.93 6.94 0 3.802-3.128 6.93-6.93 6.93h-36.59v49.35c0 13.32 7.93 17.46 22.15 17.46a56.997 56.997 0 0014.85-2 7.085 7.085 0 011.803-.234 7.08 7.08 0 016.917 5.644c.758 3.648-1.478 7.303-5.07 8.29a82.437 82.437 0 01-21 2.93c-19.81 0-35.65-7.92-35.65-30.61l-.06-50.83zM145.334 120.72h38.75a17.248 17.248 0 0114.87 8.33 20.24 20.24 0 0017.421 9.956c11.092 0 20.22-9.128 20.22-20.22 0-11.093-9.128-20.22-20.22-20.22a20.241 20.241 0 00-17.331 9.804 17.197 17.197 0 01-14.66 8.46h-39.05a9.076 9.076 0 01-8.35-5.72 1.714 1.714 0 00-.08-.21 9.016 9.016 0 011.88-9.87l6.72-6.72a17.508 17.508 0 0116.57-4.59 20.21 20.21 0 004.879.598c11.087 0 20.21-9.123 20.21-20.21 0-11.087-9.123-20.21-20.21-20.21-11.087 0-20.21 9.123-20.21 20.21 0 1.649.202 3.292.601 4.892a17.177 17.177 0 01-4.38 16.34l-6.93 6.94a9.016 9.016 0 01-9.87 1.88l-.22-.09a9.077 9.077 0 01-5.71-8.34V52.72a17.179 17.179 0 018.46-14.66 20.201 20.201 0 009.8-17.32v-.08c.003-.15.005-.3.005-.45 0-11.086-9.123-20.21-20.21-20.21-11.087 0-20.21 9.124-20.21 20.21 0 .15.002.3.005.45v.06a20.2 20.2 0 009.76 17.33 17.189 17.189 0 018.5 14.67v39a9.066 9.066 0 01-5.72 8.34l-.21.09a9.016 9.016 0 01-9.87-1.88l-6.93-6.94a17.148 17.148 0 01-4.38-16.34c.399-1.599.6-3.242.6-4.89 0-11.092-9.127-20.22-20.22-20.22-11.092 0-20.22 9.128-20.22 20.22 0 11.093 9.128 20.22 20.22 20.22 1.648 0 3.291-.201 4.89-.6a17.518 17.518 0 0116.57 4.59l6.71 6.72a9.014 9.014 0 011.89 9.87l-.09.21a9.066 9.066 0 01-8.34 5.72h-38.75a17.248 17.248 0 01-14.88-8.33 20.231 20.231 0 00-17.404-9.937C9.123 98.563 0 107.686 0 118.773c0 11.087 9.123 20.21 20.21 20.21a20.23 20.23 0 0017.324-9.803 17.179 17.179 0 0114.66-8.46h39.05a9.077 9.077 0 018.34 5.71l.09.22a9.014 9.014 0 01-1.89 9.87l-6.54 6.55a17.518 17.518 0 01-16.57 4.65 20.212 20.212 0 00-19.17 5.32l-.08.09-.09.08a20.219 20.219 0 00-5.202 13.535c0 11.087 9.124 20.21 20.21 20.21 5.016 0 9.856-1.867 13.572-5.235l.08-.09.09-.08a20.25 20.25 0 005.32-19.18 17.148 17.148 0 014.38-16.34l6.76-6.77a9.016 9.016 0 019.87-1.88l.21.08a9.076 9.076 0 015.72 8.35v38.75a17.268 17.268 0 01-8.33 14.88 20.231 20.231 0 00-9.937 17.404c0 11.087 9.123 20.21 20.21 20.21 11.087 0 20.21-9.123 20.21-20.21a20.23 20.23 0 00-9.803-17.324 17.197 17.197 0 01-8.46-14.66v-39a9.066 9.066 0 015.71-8.34l.22-.09a9.016 9.016 0 019.87 1.88l6.93 6.93a17.196 17.196 0 014.38 16.35 20.242 20.242 0 00-.603 4.9c0 11.093 9.128 20.22 20.22 20.22 11.093 0 20.22-9.127 20.22-20.22 0-11.092-9.127-20.22-20.22-20.22-1.647 0-3.288.202-4.887.6a17.508 17.508 0 01-16.57-4.59l-6.72-6.72a9.016 9.016 0 01-1.88-9.87c.033-.071.059-.145.08-.22a9.075 9.075 0 018.35-5.75z"/></g></svg>
