<svg height="500" width="500" xmlns="http://www.w3.org/2000/svg" viewBox="0 0 500 500"><path d="M208.51,217.18h0a4.05,4.05,0,0,1,4.05,4V243c3.33-5,9.72-9.18,18.55-9.18,13.14,0,20.35,9,20.35,21.79v22.15a4.05,4.05,0,0,1-4.05,4.05h-.09a4.05,4.05,0,0,1-4.06-4.05V256.89c0-8.92-4.59-15.58-14.4-15.58-9.46,0-16.3,6.48-16.3,16.48v20a4.05,4.05,0,0,1-4.05,4.05h0a4.05,4.05,0,0,1-4.06-4.05V221.23A4.05,4.05,0,0,1,208.51,217.18Z"/><path d="M261.09,268.68c0-8.73,7.56-13.23,18.64-14.49l20.8-2.34v-1.17c0-6-4.86-9.91-14-9.91-6.62,0-12.45,2.58-15.39,6.53a3.74,3.74,0,0,1-4.55,1.25h0a3.74,3.74,0,0,1-1.37-5.71c4.32-5.57,12.51-9,21.49-9,13.6,0,21.7,6,21.7,16.93V272c0,2.66,1.35,3.87,4.29,3.79a3.21,3.21,0,0,1,3.28,3.21h0a3.2,3.2,0,0,1-2.92,3.2c-7.14.54-11-2.63-11.76-7.5l-.09-.45c-4.23,5.4-12.25,8.55-21.16,8.55C269.46,282.82,261.09,278,261.09,268.68Zm39.44-10.35-19.63,2.25c-7,.81-11.89,2.61-11.89,8,0,4.87,4.59,7.57,11.62,7.57,9.27,0,19.9-4.32,19.9-13.15Z"/><path d="M327.9,281.83h0a4,4,0,0,1-4-4.05V221.23a4,4,0,0,1,4-4h0a4,4,0,0,1,4.05,4V243c3.51-5,10.45-9.18,19.81-9.18,15.85,0,25.75,10.8,25.75,24.49s-9.9,24.49-25.75,24.49c-9.36,0-16.3-4.14-19.81-9.27v4.23A4,4,0,0,1,327.9,281.83Zm3.69-23.23c0,10.71,9.28,17.29,19.18,17.29,10.54,0,19-6.67,19-17.56s-8.46-17.65-19-17.65c-9.9,0-19.18,6.66-19.18,17.29Z"/><path d="M391.92,217.18h0a4.4,4.4,0,0,1,4.41,4.41v.54a4.4,4.4,0,0,1-4.41,4.41h0a4.4,4.4,0,0,1-4.41-4.41v-.54A4.4,4.4,0,0,1,391.92,217.18Zm0,64.65h0a4,4,0,0,1-4.05-4.05v-39a4,4,0,0,1,4.05-4h0a4,4,0,0,1,4.05,4v39A4,4,0,0,1,391.92,281.83Z"/><path d="M415,241.67h-8a3.47,3.47,0,0,1-3.47-3.47h0a3.46,3.46,0,0,1,3.47-3.46h8V225a4,4,0,0,1,4-4h0a4,4,0,0,1,4,4v9.77h18.33a3.46,3.46,0,0,1,3.46,3.46h0a3.46,3.46,0,0,1-3.46,3.47H423v24.67c0,6.67,4,8.74,11.08,8.74a28.47,28.47,0,0,0,7.42-1,3.52,3.52,0,0,1,4.36,2.7h0a3.55,3.55,0,0,1-2.53,4.14,40.78,40.78,0,0,1-10.51,1.47c-9.91,0-17.83-4-17.83-15.31Z"/><path d="M126.74,251h19.38a8.63,8.63,0,0,1,7.44,4.16,10.1,10.1,0,1,0,0-10.34,8.59,8.59,0,0,1-7.33,4.23H126.74a4.53,4.53,0,0,1-4.17-2.86l0-.1a4.48,4.48,0,0,1,.94-4.94l3.36-3.36a8.73,8.73,0,0,1,8.29-2.29,10.42,10.42,0,0,0,2.43.29,10.1,10.1,0,1,0-9.8-7.66,8.58,8.58,0,0,1-2.19,8.18l-3.47,3.46a4.48,4.48,0,0,1-4.93,1l-.11-.05a4.51,4.51,0,0,1-2.85-4.17V217a8.58,8.58,0,0,1,4.23-7.33,10.11,10.11,0,0,0,4.89-8.66v0a10.1,10.1,0,1,0-20.2,0v0a10.1,10.1,0,0,0,4.9,8.66,8.58,8.58,0,0,1,4.23,7.33v19.52a4.52,4.52,0,0,1-2.86,4.17l-.1.05a4.5,4.5,0,0,1-4.94-1l-3.47-3.46a8.61,8.61,0,0,1-2.19-8.18,10.1,10.1,0,1,0-9.8,7.66,10.57,10.57,0,0,0,2.44-.29,8.71,8.71,0,0,1,8.28,2.29l3.36,3.36a4.5,4.5,0,0,1,1,4.94s0,.07,0,.1a4.52,4.52,0,0,1-4.17,2.86H80.33a8.61,8.61,0,0,1-7.44-4.16,10.09,10.09,0,1,0,0,10.34A8.58,8.58,0,0,1,80.18,251H99.7a4.51,4.51,0,0,1,4.17,2.85l0,.11a4.48,4.48,0,0,1-1,4.93l-3.27,3.28a8.73,8.73,0,0,1-8.29,2.29,10.57,10.57,0,0,0-2.44-.29,10,10,0,0,0-7.14,3l0,0,0,0A10.1,10.1,0,1,0,96,281.52l0,0,.05,0a10.1,10.1,0,0,0,2.66-9.58,8.58,8.58,0,0,1,2.19-8.18l3.38-3.38a4.5,4.5,0,0,1,4.94-.94l.1,0a4.53,4.53,0,0,1,2.86,4.17v19.38a8.63,8.63,0,0,1-4.16,7.44,10.09,10.09,0,1,0,10.34,0,8.59,8.59,0,0,1-4.23-7.33V263.56a4.52,4.52,0,0,1,2.85-4.17l.11,0a4.48,4.48,0,0,1,4.93.94l3.47,3.47a8.57,8.57,0,0,1,2.19,8.17,10.1,10.1,0,1,0,9.8-7.66,9.92,9.92,0,0,0-2.43.3,8.73,8.73,0,0,1-8.29-2.3l-3.36-3.36a4.46,4.46,0,0,1-.94-4.93s0-.07,0-.11A4.52,4.52,0,0,1,126.74,251Z"/></svg>
