<svg viewBox="0 0 1738.5 256.96" xmlns="http://www.w3.org/2000/svg" xmlns:xlink="http://www.w3.org/1999/xlink" width="2754" height="517"><linearGradient id="a" gradientUnits="userSpaceOnUse" x1="123.71" x2="201.15" y1="119.63" y2="253.76"><stop offset=".01" stop-color="#60d1bb"/><stop offset=".5" stop-color="#1abc9c"/><stop offset="1" stop-color="#009b9e"/></linearGradient><linearGradient id="b" gradientUnits="userSpaceOnUse" x1="1466.8" x2="1668.17" y1="21.98" y2="370.76"><stop offset="0" stop-color="#60d1bb"/><stop offset=".5" stop-color="#1abc9c"/><stop offset="1" stop-color="#009b9e"/></linearGradient><g transform="translate(-87.6 -84.98)"><g fill="#273647"><path d="m255 93.62h46.5v73.64h72.75v-73.64h46.5v186h-46.5v-73.68h-72.72v73.63h-46.53z"/><path d="m438.68 211.13q0-34.65 19.2-53t57.89-18.35q39 0 58.18 18.21t19.2 53.1q0 71.34-77.38 71.33-77.11.04-77.09-71.29zm100.19 26.87q6.92-8.09 6.93-26.86t-7.09-26.83q-7.05-8.12-22.94-8.09t-22.77 8.22q-6.94 8.2-6.93 26.69-.07 18.78 6.93 26.87t22.81 8.08q16.11-.01 23.06-8.08z"/><path d="m631 280.14q-14.69-2.29-23.66-5.76v-35.53a116 116 0 0 0 23 6.51 133.21 133.21 0 0 0 24.11 2.45q13.56 0 18.61-1.3c3.36-.86 5-2.93 5-6.2 0-2.7-1.62-4.91-4.91-6.65s-9.05-3.85-17.32-6.34l-12.41-4q-20.22-6.94-29.15-16t-9-25.56q0-41.88 63.51-41.87a171.75 171.75 0 0 1 25.12 1.88 128.83 128.83 0 0 1 21.36 4.77v34.94a79.69 79.69 0 0 0 -18-5.34 105.11 105.11 0 0 0 -19.2-1.88c-8.46 0-14.83.47-19.06 1.44s-6.34 3-6.34 6.06c0 2.7 1.34 4.67 4 5.92a139.89 139.89 0 0 0 15.58 5.33c3.85 1 7.8 2.14 11.84 3.48q16.18 4.91 25.12 10.53t12.71 13.44c2.49 5.19 3.76 11.72 3.76 19.62q0 20.79-16.31 31.62t-47.51 10.83a198.19 198.19 0 0 1 -30.85-2.39z"/><path d="m740.66 142.71h40.44l2.3 11.84q17.91-14.73 43-14.73 63.24 0 63.23 68.44 0 36.38-17.31 55.29t-48.22 18.91q-21.68 0-37-8.95v68.42h-46.5zm94 95.28q7.65-10.41 7.66-30.6 0-19.06-6.79-26.27t-22.37-7.23a37.13 37.13 0 0 0 -26 10.41v55.42a47 47 0 0 0 11.4 6.49 37.93 37.93 0 0 0 13.72 2.18q14.72 0 22.37-10.39z"/><path d="m919.12 177.08h-20.23l4-34.37h62.66v136.86h-46.43zm-3.76-91h50.52v34.94h-50.52z"/><path d="m1014.54 269.75q-12.3-12.69-12.29-36.09v-55.73h-18.47v-35.22h18.47v-28.58l46.5-12.42v41h33.25l-2 35.22h-31.18v52.56c0 6.53 1.53 11.11 4.6 13.7s8.09 3.9 15 3.9a53.34 53.34 0 0 0 17-2.89v31.48q-13.56 5.79-33.76 5.78-24.88 0-37.12-12.71z"/><path d="m1110.68 271.35q-13.68-11.13-13.68-31.91 0-21.36 14.57-33.2t42.6-11.84h38.11v-3.17c0-7.12-2.37-12.13-7.07-15s-13.35-4.34-25.85-4.34a149.62 149.62 0 0 0 -45.91 7.23v-30a134.56 134.56 0 0 1 25.12-6.65 174.36 174.36 0 0 1 30.31-2.6q32.64 0 50.26 13.3t17.6 41v85.45h-40.74l-2.3-11.62q-15.87 14.46-48.22 14.45-21.07.01-34.8-11.1zm81.58-30.76v-19.33h-32.92c-6.93 0-12.07 1.34-15.46 4s-5.05 6.81-5.05 12.4q0 16.19 21.38 16.17 20.79.04 32.05-13.24z"/><path d="m1266.44 272.64q-9.82-9.83-9.82-31.48v-156.16h46.48v151.55q0 6.63 2.61 9.1c1.74 1.64 4.51 2.44 8.36 2.44a43.43 43.43 0 0 0 13.86-2v31.48a75.77 75.77 0 0 1 -13.41 3.74 90.68 90.68 0 0 1 -15.74 1.17q-22.53-.02-32.34-9.84z"/></g><path d="m234 160.4h-43.89v-45.25a3.28 3.28 0 0 0 -3.28-3.28h-48.83a3.28 3.28 0 0 0 -3.28 3.28v45.25h-43.83a3.21 3.21 0 0 0 -3.29 3.12v46.35a3.21 3.21 0 0 0 3.29 3.13h43.86v45.25a3.28 3.28 0 0 0 3.28 3.28h48.8a3.28 3.28 0 0 0 3.28-3.28v-45.25h43.89a3.21 3.21 0 0 0 3.28-3.12v-46.36a3.21 3.21 0 0 0 -3.28-3.12z" fill="url(#a)"/><path d="m1342.67 93.65h93q32 0 48.08 16.89t16 46.9q0 18.78-9.4 32.92a56 56 0 0 1 -26.13 21.07 32.12 32.12 0 0 1 6.21 6.94 79.17 79.17 0 0 1 5.64 11l21.93 50.2h-48.52l-20.77-47.34q-2.61-6.34-6.65-8.95c-2.7-1.74-6.53-2.61-11.53-2.61h-21.39v58.9h-46.47zm80.85 91.23q13.85 0 21.36-6.93c5-4.63 7.49-11.44 7.49-20.51q0-28-26.83-28h-36.4v55.45zm104.76 83.86q-13.42-13.71-13.44-40v-86h46.5v83.44c0 7.7 1.84 13.32 5.48 16.89s9.35 5.33 17 5.33a38.15 38.15 0 0 0 15.6-3.31 38.9 38.9 0 0 0 12.72-8.81v-93.55h46.47v136.84h-43.3l-1.43-11.57q-19.35 14.41-47.63 14.42-24.55.04-37.97-13.68zm154-126h43.33l1.43 11.84a80.36 80.36 0 0 1 21.83-10.58 84.63 84.63 0 0 1 26.41-4.18q26.29 0 38.56 12.71t12.26 39.26v87.76h-46.5v-84c0-7.68-1.67-13.18-5-16.45s-9.19-4.91-17.46-4.91a37.14 37.14 0 0 0 -15.29 3.48 42.42 42.42 0 0 0 -13 8.65v93.25h-46.5z" fill="url(#b)"/></g></svg>