<?xml version="1.0" standalone="no"?>
<!DOCTYPE svg PUBLIC "-//W3C//DTD SVG 20010904//EN"
 "http://www.w3.org/TR/2001/REC-SVG-20010904/DTD/svg10.dtd">
<svg version="1.0" xmlns="http://www.w3.org/2000/svg"
 width="256.000000pt" height="120.000000pt" viewBox="0 0 256.000000 120.000000"
 preserveAspectRatio="xMidYMid meet">

<g transform="translate(0.000000,120.000000) scale(0.100000,-0.100000)"
fill="#000000" stroke="none">
<path d="M1270 590 l0 -180 30 0 c17 0 30 4 30 9 0 6 12 3 28 -5 35 -18 76
-18 112 1 69 36 81 153 21 207 -36 33 -102 38 -139 12 l-22 -15 0 75 0 76 -30
0 -30 0 0 -180z m180 -12 c27 -30 26 -73 -5 -103 -30 -30 -54 -31 -89 -4 -52
41 -23 129 44 129 17 0 38 -9 50 -22z"/>
<path d="M870 630 c0 -117 -2 -132 -20 -150 -28 -28 -75 -26 -106 5 -20 20
-29 23 -45 15 -25 -14 -24 -32 4 -57 50 -46 112 -56 167 -28 51 26 60 59 60
210 l0 135 -30 0 -30 0 0 -130z"/>
<path d="M1637 753 c-4 -3 -7 -82 -7 -175 l0 -168 35 0 35 0 0 55 0 55 60 0
c51 0 64 4 91 28 25 23 32 38 36 78 5 65 -21 108 -74 123 -42 12 -166 15 -176
4z m177 -75 c39 -55 4 -108 -69 -108 l-45 0 0 65 0 65 49 0 c40 0 53 -4 65
-22z"/>
<path d="M2226 725 c-26 -26 3 -62 39 -49 20 8 19 50 -1 58 -21 8 -20 8 -38
-9z"/>
<path d="M1045 650 c-69 -28 -96 -127 -53 -190 29 -42 88 -66 140 -56 108 20
140 172 49 233 -35 24 -97 30 -136 13z m105 -60 c24 -24 27 -87 6 -115 -20
-28 -83 -26 -107 4 -28 35 -25 85 7 110 34 26 68 27 94 1z"/>
<path d="M1954 631 c-32 -19 -54 -64 -54 -108 0 -92 92 -150 173 -109 15 8 27
11 27 5 0 -5 14 -9 30 -9 l30 0 0 115 0 115 -30 0 c-16 0 -30 -5 -30 -11 0 -5
-10 -3 -22 5 -30 22 -86 20 -124 -3z m126 -51 c23 -23 27 -77 8 -103 -7 -9
-27 -20 -45 -23 -26 -5 -37 -1 -57 19 -33 33 -33 71 -1 102 29 30 68 32 95 5z"/>
<path d="M2435 630 c-47 -24 -45 -24 -45 -5 0 10 -10 15 -30 15 l-31 0 3 -117
3 -118 28 -3 c26 -3 27 -2 27 48 0 65 23 115 61 132 22 10 29 20 29 40 0 16
-1 28 -3 28 -1 0 -20 -9 -42 -20z"/>
<path d="M2220 519 l0 -120 28 3 27 3 3 118 3 117 -31 0 -30 0 0 -121z"/>
</g>
</svg>
