<svg xmlns="http://www.w3.org/2000/svg" width="600" height="190" viewBox="0 0 600 190" fill="none"><path fill="#33F" fill-rule="evenodd" d="M409 101h-8c0 13 2 26 8 35v12h-26v-46c0-9-5-14-13-14s-13 6-13 15v45h-26V68h26v14c4-10 12-15 24-15 18 0 28 11 28 30v4ZM39 47c0 7-6 13-14 13-7 0-13-6-13-13s6-13 13-13c8 0 14 6 14 13Zm-1 102c0 16-11 25-30 25H0v-19h3c7 0 9-2 9-7V68h26v81Zm88-41c0 27-16 42-41 42s-41-16-41-42 16-41 41-41 41 15 41 41Zm-56 0c0 14 6 22 15 22s14-8 14-22-5-22-14-22-15 8-15 22Zm144 0c0 26-12 42-32 42-11 0-20-6-24-16v14h-26V42h26v40c4-10 13-15 24-15 20 0 32 15 32 41Zm-56 0c0 13 6 21 15 21s15-8 15-21-6-20-15-20-15 7-15 20Zm134 15c0 16-15 27-37 27-24 0-37-11-39-26v-1h26v1c1 5 5 8 13 8 7 0 11-2 11-6s-3-6-10-8l-14-2c-16-3-24-11-24-24 0-16 14-25 36-25 23 0 35 11 35 26h-23c-1-5-5-9-12-9s-11 3-11 7c0 3 3 5 10 7l14 3c17 3 25 10 25 22Zm31-76c0 7-6 13-14 13-7 0-13-6-13-13s6-13 13-13c8 0 14 6 14 13Zm-1 21v80h-26V68h26Z" clip-rule="evenodd"/><path fill="#33F" d="M454 150c26 0 41-14 41-39V42h-31v69c0 9-3 13-10 13s-12-5-12-13h-30c0 24 17 39 42 39Zm96 0c29 0 46-14 46-36 0-17-11-26-34-30l-10-2c-11-2-15-4-15-9s4-9 13-9c8 0 14 4 15 10h28v-1c0-20-15-33-44-33-25 0-43 14-43 35 0 17 11 27 32 31l11 2c12 2 16 4 16 9s-6 9-15 9-16-4-17-9v-1h-29v1c1 21 18 33 46 33Z"/></svg>
