<svg xmlns="http://www.w3.org/2000/svg" viewBox="0 0 225.68 79.44" width="225" height="79"><title>Jochen Schweizer Logo</title><path d="M101.42 39.24c8.59 0 13.7-6.25 13.7-19.68S110.06 0 101.53 0 87.88 6.25 87.88 19.68s5.01 19.56 13.54 19.56Zm0-31.42c2.83 0 4.3 2.67 4.3 11.86s-1.41 11.74-4.24 11.74-4.3-2.67-4.3-11.86 1.42-11.74 4.29-11.74Zm118.71 54.54c3.1-1.85 5-5 5-10 0-8.48-4.95-11.58-11.8-11.58h-13.14v38.06h8.91V64.27h2.45L216 78.84h9.67Zm-7.61-5h-3.42V48h3.59c2.5 0 3.42 1.47 3.42 4.62s-.97 4.69-3.59 4.69Zm-36.33 21.48h22.27v-7.77h-13.25V62.8h8.64v-7.73h-8.64v-6.52h13.26v-7.77h-22.28Zm-15.26-7.44a233.7 233.7 0 0 0 4.89-8.49l8.6-15.28v-6.85h-23.73v7.56h5.9c2.59 0 5.75-.06 7.77-.11-1.15 1.8-3.33 5.6-4.91 8.42L150.7 72v6.84h23.76V71.3h-5.8c-2.61 0-5.66.05-7.73.1Zm-21.07 7.44H149V40.78h-9.18Zm-24.22-38.06h-8.85l-.82 7c-.55 4.79-1.25 11.2-1.51 16a247.18 247.18 0 0 0-2-15.92l-1.09-7h-7.89l-1 7a254.44 254.44 0 0 0-2 15.92 268 268 0 0 0-1.53-16l-.87-7H70.34V55h-7.67V40.78h-9.18v38.06h9.18V62.91h7.67v15.93h9.18V42.79l6.23 36.05h8.32l1.24-7.49c1-5.83 1.86-12.14 2.07-15.46.21 3.32 1.15 9.69 2.07 15.46l1.2 7.49h8.42L115.43 42v36.84h22.67v-7.77h-13.64V62.8h8.64v-7.73h-8.64v-6.52h13.7v-7.77Zm-76.1 30.84c-3 0-4.2-3.1-4.2-11.87S36.49 48 39.43 48c2.23 0 2.82 2.17 3.48 6.41l8.8-2.4c-1.47-7.28-4.24-11.84-12.23-11.84-8.48 0-13.54 6.46-13.54 19.67 0 12.79 4.52 19.58 13.42 19.58 7.56 0 10.77-4.23 12.46-11.14l-8.43-2.89c-1.03 4.7-1.73 6.23-3.85 6.23ZM14.35 55.35c-3.86-1.68-4.84-2.82-4.84-4.84a2.62 2.62 0 0 1 2.72-2.71c2.39 0 3.31 1 5.92 4.07l6.31-5.65c-3.15-3.91-6.09-6-12-6C5.22 40.19.71 45.08.71 51.28c0 6 2.77 8.85 10.32 12.17 4.3 1.9 4.9 3.21 4.9 5.35s-1.36 3-3.27 3-3.91-1.58-6.47-4.63L0 72.82c3.15 4.18 6.57 6.62 12.5 6.62 7.07 0 12.34-4.07 12.34-11.19 0-6.37-2.84-9.53-10.49-12.9Zm190.12-27.47c0-3.59-.06-8.43-.28-10.6a109.59 109.59 0 0 0 4.89 10.43l5.59 10.93H222V.6h-8.53v8.53c0 3.48.11 8.75.32 10.82A82 82 0 0 0 208.7 9.3L203.86.6h-7.94v38h8.55Zm-10.29 3H181v-8.27h8.65v-7.72H181V8.37h13.26V.6h-22.32v38h22.24Zm-40.81-8.15H161v15.91h9.19V.6H161v14.18h-7.66V.6h-9.19v38h9.19Zm-19.22 2.5c-1 4.67-1.74 6.2-3.86 6.2-3 0-4.19-3.11-4.19-11.86s1.14-11.74 4.08-11.74c2.23 0 2.83 2.18 3.48 6.42l8.8-2.39C141 4.57 138.23 0 130.24 0c-8.49 0-13.54 6.47-13.54 19.68 0 12.77 4.51 19.56 13.43 19.56 7.55 0 11.4-4.24 13.08-11.15Zm-60.62 14c8.54 0 12.62-4.89 12.62-13.65V.6H77v25.92c0 3.21-1 4.84-3.26 4.84-2.6 0-3.37-2.12-4.18-6l-8.75 2.07c1.09 7.08 4.52 11.81 12.72 11.81Z" fill="#007ba5"></path></svg>