<?xml version="1.0" standalone="no"?>
<!DOCTYPE svg PUBLIC "-//W3C//DTD SVG 20010904//EN"
 "http://www.w3.org/TR/2001/REC-SVG-20010904/DTD/svg10.dtd">
<svg version="1.0" xmlns="http://www.w3.org/2000/svg"
 width="2306.000000pt" height="755.000000pt" viewBox="0 0 2306.000000 755.000000"
 preserveAspectRatio="xMidYMid meet">
<metadata>
Created by potrace 1.16, written by Peter Selinger 2001-2019
</metadata>
<g transform="translate(0.000000,755.000000) scale(0.100000,-0.100000)"
fill="#000000" stroke="none">
<path d="M490 3775 l0 -1865 435 0 435 0 0 473 1 472 241 250 c133 138 244
251 247 253 4 1 272 -324 596 -723 l590 -725 513 0 513 0 -54 68 c-660 830
-1577 1996 -1575 2001 3 8 1392 1505 1492 1609 l50 52 -490 0 -489 0 -815
-860 -815 -860 -3 860 -2 860 -435 0 -435 0 0 -1865z"/>
<path d="M8040 5180 l0 -460 -220 0 -220 0 0 -325 0 -325 220 0 220 0 0 -652
c0 -368 5 -684 10 -723 32 -230 103 -392 230 -528 193 -206 449 -300 825 -300
193 0 317 17 460 64 98 33 213 92 222 115 5 13 -200 568 -217 587 -4 5 -24 -3
-44 -17 -92 -62 -252 -96 -364 -76 -123 21 -199 77 -249 185 l-28 60 -3 643
-3 642 356 0 355 0 0 325 0 325 -355 0 -355 0 0 460 0 460 -420 0 -420 0 0
-460z"/>
<path d="M19490 3775 l0 -1865 405 0 405 0 0 153 0 152 67 -63 c209 -197 464
-285 823 -285 263 0 445 40 655 142 153 75 272 160 378 270 194 201 320 449
373 736 29 153 26 540 -4 681 -96 446 -349 784 -727 973 -232 115 -441 158
-730 148 -323 -11 -529 -86 -737 -269 l-68 -60 0 576 0 576 -420 0 -420 0 0
-1865z m1718 339 c44 -8 117 -35 170 -60 74 -36 107 -59 170 -122 155 -155
222 -334 222 -597 0 -151 -26 -271 -86 -393 -39 -81 -60 -109 -133 -182 -99
-98 -185 -149 -308 -181 -108 -28 -278 -28 -386 0 -197 51 -359 184 -447 366
-106 219 -114 516 -21 754 64 161 220 317 381 381 124 49 298 63 438 34z"/>
<path d="M15395 4809 c-238 -37 -456 -137 -607 -278 l-78 -73 0 161 0 161
-400 0 -400 0 0 -1435 0 -1435 420 0 420 0 0 763 c0 813 3 878 50 1019 66 195
218 337 411 383 83 19 248 19 322 0 138 -36 240 -119 300 -246 73 -154 71
-116 74 -1066 l4 -853 419 0 420 0 0 748 c0 897 4 942 91 1121 73 149 205 253
374 296 76 19 244 19 318 0 217 -56 342 -223 376 -500 7 -58 11 -367 11 -877
l0 -788 421 0 420 0 -4 943 c-4 1009 -3 989 -57 1183 -121 442 -444 715 -916
775 -147 18 -403 7 -534 -24 -248 -59 -448 -167 -615 -334 l-87 -87 -21 28
c-143 196 -344 328 -602 393 -85 21 -128 25 -285 28 -102 2 -212 0 -245 -6z"/>
<path d="M4263 3868 c3 -805 6 -925 21 -1016 49 -295 152 -510 323 -673 206
-196 454 -293 803 -314 343 -21 673 92 910 312 l60 55 0 -161 0 -161 400 0
400 0 0 1435 0 1435 -425 0 -424 0 -3 -817 c-4 -918 0 -864 -80 -1033 -73
-152 -217 -271 -383 -315 -93 -24 -218 -29 -313 -12 -195 36 -324 142 -391
322 -54 144 -54 138 -58 1028 l-4 827 -420 0 -420 0 4 -912z"/>
<path d="M10240 3887 c0 -889 3 -972 36 -1135 99 -484 435 -793 949 -873 133
-21 382 -16 505 10 211 45 407 144 553 280 l67 63 0 -161 0 -161 400 0 400 0
0 1435 0 1435 -419 0 -420 0 -4 -797 c-4 -843 -3 -818 -53 -975 -88 -271 -354
-439 -654 -414 -265 22 -418 148 -493 407 -21 73 -21 90 -24 927 l-4 852 -419
0 -420 0 0 -893z"/>
</g>
</svg>
