<?xml version="1.0" encoding="utf-8"?>
<!-- Generator: Adobe Illustrator 25.0.0, SVG Export Plug-In . SVG Version: 6.00 Build 0)  -->
<svg version="1.1" xmlns="http://www.w3.org/2000/svg" xmlns:xlink="http://www.w3.org/1999/xlink" x="0px" y="0px"
	 viewBox="0 0 713 322" style="enable-background:new 0 0 713 322;" xml:space="preserve" height="322" width="713">
<style type="text/css">
	.st0{fill-rule:evenodd;clip-rule:evenodd;fill:#FFFFFF;}
	.st1{fill-rule:evenodd;clip-rule:evenodd;}
	.st2{fill-rule:evenodd;clip-rule:evenodd;fill:#DB0A5B;}
</style>
<g id="bg">
</g>
<g id="Layer_1">
	<g>
		<path class="st0" d="M-2884.5,805.8l41.9,24.2c4.5,2.6,7.3,7.5,7.3,12.7c0,17.9,0,59.1,0,77c0,5.2-2.8,10.1-7.3,12.7
			c-15.5,8.9-51.2,29.6-66.7,38.5c-4.5,2.6-10.1,2.6-14.7,0c-15.5-8.9-51.2-29.6-66.7-38.5c-4.5-2.6-7.3-7.5-7.3-12.7
			c0-17.9,0-59.1,0-77c0-5.2,2.8-10.1,7.3-12.7c15.5-8.9,51.2-29.6,66.7-38.5c4.5-2.6,10.1-2.6,14.7,0l23.9,13.8l0.3,0.1
			C-2884.9,805.5-2884.7,805.7-2884.5,805.8L-2884.5,805.8z M-2940.6,943.7l16.6,9.6c4.5,2.6,10.1,2.6,14.7,0l16.1-9.3
			c-0.2-1.6-0.4-3.2-0.6-4.8l-46.4-1.4C-2940.4,939.8-2940.5,941.8-2940.6,943.7L-2940.6,943.7z M-2883.6,938.5l25.7-14.8
			c4.5-2.6,7.3-7.5,7.3-12.7c0-14.7,0-44.7,0-59.4c0-5.2-2.8-10.1-7.3-12.7l-25.1-14.5c0,0.4-0.1,0.8-0.1,1.2l0,0.2
			c-0.4,4.4-1,8.7-1.8,13c-0.1,0.3-0.1,0.6-0.2,0.8c-0.2,1.2-0.5,2.5-0.8,3.7c-0.1,0.4-0.2,0.9-0.3,1.3c0,0.1-0.2,0.7-0.2,0.7
			c-0.1,0.4-0.2,0.6-0.3,1c-0.3,0.9-0.5,1.9-0.8,2.8l0,0.1c-0.4,1.3-0.8,2.5-1.3,3.7c-0.1,0.1-0.1,0.3-0.2,0.4
			c-0.2,0.4-0.2,0.4-0.3,0.8c-0.3,0.8-0.6,1.5-0.9,2.2c-0.1,0.1-0.1,0.3-0.2,0.4c-0.1,0.1-0.1,0.2-0.2,0.4c-0.2,0.5-0.5,0.9-0.7,1.4
			c-0.4,0.9-0.9,1.8-1.4,2.6c-0.2,0.4-0.5,0.8-0.7,1.2l-0.1,0.1c-0.7,1.1-1.4,2.3-2.2,3.4c-0.3,0.4-0.6,0.8-0.9,1.2
			c-0.1,0.2-0.2,0.3-0.3,0.5c-1.1,1.4-2.2,2.7-3.4,3.9c-0.1,0.1-0.1,0.1-0.2,0.2c-0.2,0.1-0.3,0.3-0.5,0.4c-0.5,0.4-1,0.9-1.5,1.3
			c-0.1,0.1-0.1,0.1-0.2,0.1c-1,0.7-2.1,1.4-3.2,2c-0.3,0.1-0.6,0.3-0.8,0.4c-0.5,0.2-0.9,0.4-1.4,0.6c-0.5,0.2-1.1,0.4-1.6,0.5
			c-0.2,0-0.5,0.1-0.7,0.1c0.2,0.1,0.4,0.2,0.6,0.3c0.5,0.3,0.9,0.5,1.3,0.8c3.4,2.2,6.2,5.3,8.5,8.6c0.4,0.6,0.8,1.1,1.1,1.7
			c0.5,0.7,0.9,1.5,1.4,2.3c0.6,1,1.1,2.1,1.7,3.1c0.7,1.3,1.3,2.7,1.9,4c0.8,1.9,1.5,3.7,2.2,5.6c0.9,2.6,1.7,5.3,2.5,7.9
			c1,3.5,1.8,7,2.5,10.5c0.9,4.4,1.7,8.8,2.3,13.2C-2883.9,936.3-2883.7,937.4-2883.6,938.5L-2883.6,938.5z M-2950.4,938.1
			c0.1-1,0.2-1.9,0.3-2.9c0-0.2,0.1-0.5,0.1-0.7c0-0.2,0.1-0.5,0.1-0.7c0.1-0.9,0.2-1.8,0.3-2.6c0.3-2.1,0.5-4.2,0.9-6.2
			c0.1-0.8,0.3-1.6,0.4-2.3l0.1-0.4c0.4-2,0.8-3.9,1.2-5.9c0.1-0.3,0.1-0.5,0.2-0.8c0.2-0.8,0.4-1.6,0.7-2.5
			c0.1-0.3,0.2-0.6,0.3-0.9c0-0.2,0.1-0.3,0.1-0.5c0.4-1.2,0.8-2.3,1.2-3.5l0.1-0.2c0.4-1.1,0.9-2.3,1.4-3.4l0-0.1
			c0.6-1.3,1.2-2.5,1.8-3.8c0.4-0.7,0.8-1.5,1.2-2.2l0.1-0.2c0.7-1.1,1.4-2.3,2.2-3.4c0.3-0.4,0.6-0.8,0.8-1.2
			c0.1-0.2,0.2-0.3,0.4-0.5c1.1-1.4,2.2-2.7,3.4-3.9c0.1-0.1,0.1-0.1,0.2-0.2c0.1,0,0.1-0.1,0.2-0.1c0.3-0.2,0.5-0.5,0.8-0.7
			c0.4-0.3,0.8-0.6,1.2-0.9c0.1-0.1,0.2-0.2,0.3-0.2c0.1-0.1,0.3-0.2,0.4-0.3c0.5-0.3,1-0.6,1.5-0.9c0.3-0.2,0.7-0.4,1-0.5
			c0.4-0.2,0.8-0.4,1.3-0.6c0.6-0.2,1.2-0.4,1.8-0.6c0.4-0.1,0.9-0.2,1.3-0.2c0.3,0,0.5,0,0.8,0l0,0l0.1,0.1l-0.1,0.1
			c0,0-0.1,0-0.1,0c0,0-0.1,0,0,0c-0.1,0-0.1,0-0.2,0c-0.9,0.1-1.7,0.4-2.4,0.8c-0.7,0.4-1.3,0.8-1.8,1.3c-0.2,0.2-0.5,0.4-0.7,0.6
			c-0.4,0.4-0.8,0.9-1.2,1.3c-0.1,0.2-0.3,0.3-0.4,0.5c0,0.1-0.1,0.1-0.1,0.2c-0.2,0.2-0.3,0.4-0.5,0.7c-0.4,0.5-0.7,1.1-1,1.6
			c0,0.1-0.1,0.1-0.1,0.2c0,0.1-0.1,0.1-0.1,0.2c-0.3,0.6-0.6,1.1-0.9,1.7c-0.3,0.7-0.7,1.4-0.9,2.2c-0.1,0.2-0.1,0.3-0.2,0.5
			c-0.2,0.4-0.3,0.8-0.5,1.2c-0.1,0.4-0.3,0.8-0.4,1.2l28.7-1.2c-0.7-1.3-1.5-2.7-2.4-3.9c-0.8-1.2-1.7-2.3-2.7-3.4
			c-1.4-1.4-3-2.7-4.8-3.6c-0.5-0.2-1.1-0.4-1.6-0.6c-0.4-0.1-0.7-0.2-1.1-0.2c-0.2,0-0.2,0-0.4-0.1c-0.5-0.1-0.9-0.2-1.4-0.4
			c-0.8-0.3-1.6-0.6-2.4-0.9c-0.8-0.3-1.6-0.7-2.3-1.2c-0.6-0.3-1.1-0.7-1.7-1c-3.4-2.3-6.3-5.5-8.6-8.9c-0.3-0.5-0.7-1-1-1.5
			c-0.5-0.7-0.9-1.5-1.4-2.3c-0.6-1-1.1-2.1-1.6-3.1c-0.6-1.3-1.3-2.7-1.8-4c-0.8-1.8-1.5-3.7-2.1-5.6c-0.8-2.4-1.6-4.9-2.3-7.3
			c-0.9-3.2-1.7-6.5-2.3-9.8c-0.8-4.1-1.6-8.3-2.1-12.4c-0.1-0.9-0.2-1.8-0.4-2.6l-25.6,14.8c-4.5,2.6-7.3,7.5-7.3,12.7
			c0,14.7,0,44.7,0,59.4c0,5.2,2.8,10.1,7.3,12.7L-2950.4,938.1L-2950.4,938.1z M-2939.9,933.6l45-1.4c-0.5-3.2-1.2-6.4-1.9-9.6
			c-0.1-0.2-0.1-0.5-0.2-0.7l-41.5-1.5c-0.1,1.1-0.3,2.1-0.4,3.2c0,0.3-0.1,0.6-0.1,0.9C-2939.4,927.5-2939.7,930.5-2939.9,933.6
			L-2939.9,933.6z M-2937.8,916.2l39.2-1.4c-0.4-1.5-0.8-2.9-1.3-4.3c-0.7-2.2-1.5-4.4-2.3-6.6l-33.1-1.4c-0.1,0.2-0.1,0.5-0.2,0.7
			c-0.3,1.1-0.5,2.3-0.7,3.4c-0.1,0.3-0.1,0.6-0.2,0.8c-0.2,0.8-0.3,1.7-0.4,2.5c0,0.2-0.1,0.4-0.1,0.6c-0.1,0.4-0.1,0.8-0.2,1.3
			c-0.1,0.6-0.2,1.1-0.3,1.7c-0.1,0.3-0.1,0.6-0.2,0.9C-2937.7,915-2937.8,915.6-2937.8,916.2L-2937.8,916.2z M-2910.4,877
			C-2910.4,877-2910.3,877-2910.4,877c0.9-0.2,1.7-0.6,2.5-1c0.6-0.4,1.2-0.8,1.7-1.2c0.6-0.5,1.2-1.1,1.7-1.8
			c0.1-0.2,0.3-0.3,0.4-0.5c0.1-0.1,0.2-0.2,0.2-0.3c0.1-0.2,0.2-0.3,0.4-0.5c0.4-0.6,0.8-1.2,1.1-1.8c0-0.1,0.1-0.1,0.1-0.2
			c0-0.1,0.1-0.1,0.1-0.2c0.4-0.8,0.9-1.5,1.2-2.3c0.2-0.5,0.5-1,0.7-1.5c0.1-0.2,0.2-0.5,0.3-0.7c0.2-0.4,0.3-0.8,0.5-1.2
			c0.2-0.6,0.4-1.3,0.6-1.9l-29.9,1.1c0.5,0.9,0.9,1.7,1.4,2.5c0.9,1.5,2,3,3.1,4.3c1.6,1.8,3.5,3.5,5.7,4.5c0.6,0.3,1.3,0.5,2,0.7
			c0.2,0.1,0.4,0.1,0.6,0.2c0.2,0,0.4,0.1,0.6,0.1c0.2,0,0.2,0,0.4,0.1c0.4,0.1,0.8,0.2,1.2,0.3c0.8,0.2,1.5,0.5,2.2,0.8
			C-2911.1,876.6-2910.7,876.8-2910.4,877L-2910.4,877z M-2931.8,856.1l34.2,1.3c0.2-1,0.4-2,0.6-3c0-0.2,0-0.2,0.1-0.4
			c0.1-0.2,0.1-0.5,0.2-0.7c0.2-0.8,0.3-1.5,0.4-2.3c0-0.1,0-0.3,0.1-0.4c0-0.1,0-0.3,0.1-0.4c0.1-0.6,0.2-1.1,0.3-1.7
			c0.1-0.4,0.1-0.8,0.2-1.1c0.1-0.3,0.1-0.7,0.2-1c0.1-0.5,0.2-1.1,0.3-1.6l-39.8,1.3c0.4,1.4,0.8,2.9,1.3,4.3
			C-2933.3,852.3-2932.6,854.2-2931.8,856.1L-2931.8,856.1z M-2936.9,838.9l42.2,1.4c0-0.2,0.1-0.4,0.1-0.6l0,0l0.1-0.5
			c0-0.3,0.1-0.7,0.1-1c0-0.3,0.1-0.5,0.1-0.8c0-0.3,0.1-0.5,0.1-0.8c0-0.4,0.1-0.7,0.1-1.1c0,0,0,0,0,0c0-0.4,0.1-0.7,0.1-1.1
			c0,0,0,0,0,0c0.1-1.2,0.3-2.3,0.4-3.5c0.1-1.2,0.2-2.4,0.3-3.6l-45.6,1.3C-2938.3,832-2937.6,835.5-2936.9,838.9L-2936.9,838.9
			L-2936.9,838.9z M-2940.2,818.5c0.1,1,0.2,2.1,0.4,3.1l46.9,1.3c0-0.3,0-0.5,0-0.8v0c0-0.5,0.1-0.9,0.1-1.4c0-0.5,0-0.9,0.1-1.4
			c0-0.2,0-0.5,0-0.7l-16.6-9.6c-4.5-2.6-10.1-2.6-14.7,0L-2940.2,818.5L-2940.2,818.5z"/>
	</g>
	<g>
		<path class="st1" d="M-2884.5,447.5l41.9,24.2c4.5,2.6,7.3,7.5,7.3,12.7c0,17.9,0,59.1,0,77c0,5.2-2.8,10.1-7.3,12.7
			c-15.5,8.9-51.2,29.6-66.7,38.5c-4.5,2.6-10.1,2.6-14.7,0c-15.5-8.9-51.2-29.6-66.7-38.5c-4.5-2.6-7.3-7.5-7.3-12.7
			c0-17.9,0-59.1,0-77c0-5.2,2.8-10.1,7.3-12.7c15.5-8.9,51.2-29.6,66.7-38.5c4.5-2.6,10.1-2.6,14.7,0l23.9,13.8l0.3,0.1
			C-2884.9,447.2-2884.7,447.4-2884.5,447.5L-2884.5,447.5z M-2940.6,585.4l16.6,9.6c4.5,2.6,10.1,2.6,14.7,0l16.1-9.3
			c-0.2-1.6-0.4-3.2-0.6-4.8l-46.4-1.4C-2940.4,581.5-2940.5,583.4-2940.6,585.4L-2940.6,585.4z M-2883.6,580.1l25.7-14.8
			c4.5-2.6,7.3-7.5,7.3-12.7c0-14.7,0-44.7,0-59.4c0-5.2-2.8-10.1-7.3-12.7l-25.1-14.5c0,0.4-0.1,0.8-0.1,1.2l0,0.2
			c-0.4,4.4-1,8.7-1.8,13c-0.1,0.3-0.1,0.6-0.2,0.8c-0.2,1.2-0.5,2.5-0.8,3.7c-0.1,0.4-0.2,0.9-0.3,1.3c0,0.1-0.2,0.7-0.2,0.7
			c-0.1,0.4-0.2,0.6-0.3,1c-0.3,0.9-0.5,1.9-0.8,2.8l0,0.1c-0.4,1.3-0.8,2.5-1.3,3.7c-0.1,0.1-0.1,0.3-0.2,0.4
			c-0.2,0.4-0.2,0.4-0.3,0.8c-0.3,0.8-0.6,1.5-0.9,2.2c-0.1,0.1-0.1,0.3-0.2,0.4c-0.1,0.1-0.1,0.2-0.2,0.4c-0.2,0.5-0.5,0.9-0.7,1.4
			c-0.4,0.9-0.9,1.8-1.4,2.6c-0.2,0.4-0.5,0.8-0.7,1.2l-0.1,0.1c-0.7,1.1-1.4,2.3-2.2,3.4c-0.3,0.4-0.6,0.8-0.9,1.2
			c-0.1,0.2-0.2,0.3-0.3,0.5c-1.1,1.4-2.2,2.7-3.4,3.9c-0.1,0.1-0.1,0.1-0.2,0.2c-0.2,0.1-0.3,0.3-0.5,0.4c-0.5,0.4-1,0.9-1.5,1.3
			c-0.1,0.1-0.1,0.1-0.2,0.1c-1,0.7-2.1,1.4-3.2,2c-0.3,0.1-0.6,0.3-0.8,0.4c-0.5,0.2-0.9,0.4-1.4,0.6c-0.5,0.2-1.1,0.4-1.6,0.5
			c-0.2,0-0.5,0.1-0.7,0.1c0.2,0.1,0.4,0.2,0.6,0.3c0.5,0.3,0.9,0.5,1.3,0.8c3.4,2.2,6.2,5.3,8.5,8.6c0.4,0.6,0.8,1.1,1.1,1.7
			c0.5,0.7,0.9,1.5,1.4,2.3c0.6,1,1.1,2.1,1.7,3.1c0.7,1.3,1.3,2.7,1.9,4c0.8,1.9,1.5,3.7,2.2,5.6c0.9,2.6,1.7,5.3,2.5,7.9
			c1,3.5,1.8,7,2.5,10.5c0.9,4.4,1.7,8.8,2.3,13.2C-2883.9,578-2883.7,579.1-2883.6,580.1L-2883.6,580.1z M-2950.4,579.7
			c0.1-1,0.2-1.9,0.3-2.9c0-0.2,0.1-0.5,0.1-0.7c0-0.2,0.1-0.5,0.1-0.7c0.1-0.9,0.2-1.8,0.3-2.6c0.3-2.1,0.5-4.2,0.9-6.2
			c0.1-0.8,0.3-1.6,0.4-2.3l0.1-0.4c0.4-2,0.8-3.9,1.2-5.9c0.1-0.3,0.1-0.5,0.2-0.8c0.2-0.8,0.4-1.6,0.7-2.5
			c0.1-0.3,0.2-0.6,0.3-0.9c0-0.2,0.1-0.3,0.1-0.5c0.4-1.2,0.8-2.3,1.2-3.5l0.1-0.2c0.4-1.1,0.9-2.3,1.4-3.4l0-0.1
			c0.6-1.3,1.2-2.5,1.8-3.8c0.4-0.7,0.8-1.5,1.2-2.2l0.1-0.2c0.7-1.1,1.4-2.3,2.2-3.4c0.3-0.4,0.6-0.8,0.8-1.2
			c0.1-0.2,0.2-0.3,0.4-0.5c1.1-1.4,2.2-2.7,3.4-3.9c0.1-0.1,0.1-0.1,0.2-0.2c0.1,0,0.1-0.1,0.2-0.1c0.3-0.2,0.5-0.5,0.8-0.7
			c0.4-0.3,0.8-0.6,1.2-0.9c0.1-0.1,0.2-0.2,0.3-0.2c0.1-0.1,0.3-0.2,0.4-0.3c0.5-0.3,1-0.6,1.5-0.9c0.3-0.2,0.7-0.4,1-0.5
			c0.4-0.2,0.8-0.4,1.3-0.6c0.6-0.2,1.2-0.4,1.8-0.6c0.4-0.1,0.9-0.2,1.3-0.2c0.3,0,0.5,0,0.8,0l0,0l0.1,0.1l-0.1,0.1
			c0,0-0.1,0-0.1,0c0,0-0.1,0,0,0c-0.1,0-0.1,0-0.2,0c-0.9,0.1-1.7,0.4-2.4,0.8c-0.7,0.4-1.3,0.8-1.8,1.3c-0.2,0.2-0.5,0.4-0.7,0.6
			c-0.4,0.4-0.8,0.9-1.2,1.3c-0.1,0.2-0.3,0.3-0.4,0.5c0,0.1-0.1,0.1-0.1,0.2c-0.2,0.2-0.3,0.4-0.5,0.7c-0.4,0.5-0.7,1.1-1,1.6
			c0,0.1-0.1,0.1-0.1,0.2c0,0.1-0.1,0.1-0.1,0.2c-0.3,0.6-0.6,1.1-0.9,1.7c-0.3,0.7-0.7,1.4-0.9,2.2c-0.1,0.2-0.1,0.3-0.2,0.5
			c-0.2,0.4-0.3,0.8-0.5,1.2c-0.1,0.4-0.3,0.8-0.4,1.2l28.7-1.2c-0.7-1.3-1.5-2.7-2.4-3.9c-0.8-1.2-1.7-2.3-2.7-3.4
			c-1.4-1.4-3-2.7-4.8-3.6c-0.5-0.2-1.1-0.4-1.6-0.6c-0.4-0.1-0.7-0.2-1.1-0.2c-0.2,0-0.2,0-0.4-0.1c-0.5-0.1-0.9-0.2-1.4-0.4
			c-0.8-0.3-1.6-0.6-2.4-0.9c-0.8-0.3-1.6-0.7-2.3-1.2c-0.6-0.3-1.1-0.7-1.7-1c-3.4-2.3-6.3-5.5-8.6-8.9c-0.3-0.5-0.7-1-1-1.5
			c-0.5-0.7-0.9-1.5-1.4-2.3c-0.6-1-1.1-2.1-1.6-3.1c-0.6-1.3-1.3-2.7-1.8-4c-0.8-1.8-1.5-3.7-2.1-5.6c-0.8-2.4-1.6-4.9-2.3-7.3
			c-0.9-3.2-1.7-6.5-2.3-9.8c-0.8-4.1-1.6-8.3-2.1-12.4c-0.1-0.9-0.2-1.8-0.4-2.6l-25.6,14.8c-4.5,2.6-7.3,7.5-7.3,12.7
			c0,14.7,0,44.7,0,59.4c0,5.2,2.8,10.1,7.3,12.7L-2950.4,579.7L-2950.4,579.7z M-2939.9,575.2l45-1.4c-0.5-3.2-1.2-6.4-1.9-9.6
			c-0.1-0.2-0.1-0.5-0.2-0.7l-41.5-1.5c-0.1,1.1-0.3,2.1-0.4,3.2c0,0.3-0.1,0.6-0.1,0.9C-2939.4,569.2-2939.7,572.2-2939.9,575.2
			L-2939.9,575.2z M-2937.8,557.8l39.2-1.4c-0.4-1.5-0.8-2.9-1.3-4.3c-0.7-2.2-1.5-4.4-2.3-6.6l-33.1-1.4c-0.1,0.2-0.1,0.5-0.2,0.7
			c-0.3,1.1-0.5,2.3-0.7,3.4c-0.1,0.3-0.1,0.6-0.2,0.8c-0.2,0.8-0.3,1.7-0.4,2.5c0,0.2-0.1,0.4-0.1,0.6c-0.1,0.4-0.1,0.8-0.2,1.3
			c-0.1,0.6-0.2,1.1-0.3,1.7c-0.1,0.3-0.1,0.6-0.2,0.9C-2937.7,556.7-2937.8,557.3-2937.8,557.8L-2937.8,557.8z M-2910.4,518.7
			C-2910.4,518.7-2910.3,518.7-2910.4,518.7c0.9-0.2,1.7-0.6,2.5-1c0.6-0.4,1.2-0.8,1.7-1.2c0.6-0.5,1.2-1.1,1.7-1.8
			c0.1-0.2,0.3-0.3,0.4-0.5c0.1-0.1,0.2-0.2,0.2-0.3c0.1-0.2,0.2-0.3,0.4-0.5c0.4-0.6,0.8-1.2,1.1-1.8c0-0.1,0.1-0.1,0.1-0.2
			c0-0.1,0.1-0.1,0.1-0.2c0.4-0.8,0.9-1.5,1.2-2.3c0.2-0.5,0.5-1,0.7-1.5c0.1-0.2,0.2-0.5,0.3-0.7c0.2-0.4,0.3-0.8,0.5-1.2
			c0.2-0.6,0.4-1.3,0.6-1.9l-29.9,1.1c0.5,0.9,0.9,1.7,1.4,2.5c0.9,1.5,2,3,3.1,4.3c1.6,1.8,3.5,3.5,5.7,4.5c0.6,0.3,1.3,0.5,2,0.7
			c0.2,0.1,0.4,0.1,0.6,0.2c0.2,0,0.4,0.1,0.6,0.1c0.2,0,0.2,0,0.4,0.1c0.4,0.1,0.8,0.2,1.2,0.3c0.8,0.2,1.5,0.5,2.2,0.8
			C-2911.1,518.3-2910.7,518.5-2910.4,518.7L-2910.4,518.7z M-2931.8,497.8l34.2,1.3c0.2-1,0.4-2,0.6-3c0-0.2,0-0.2,0.1-0.4
			c0.1-0.2,0.1-0.5,0.2-0.7c0.2-0.8,0.3-1.5,0.4-2.3c0-0.1,0-0.3,0.1-0.4c0-0.1,0-0.3,0.1-0.4c0.1-0.6,0.2-1.1,0.3-1.7
			c0.1-0.4,0.1-0.8,0.2-1.1c0.1-0.3,0.1-0.7,0.2-1c0.1-0.5,0.2-1.1,0.3-1.6l-39.8,1.3c0.4,1.4,0.8,2.9,1.3,4.3
			C-2933.3,493.9-2932.6,495.9-2931.8,497.8L-2931.8,497.8z M-2936.9,480.6l42.2,1.4c0-0.2,0.1-0.4,0.1-0.6l0,0l0.1-0.5
			c0-0.3,0.1-0.7,0.1-1c0-0.3,0.1-0.5,0.1-0.8c0-0.3,0.1-0.5,0.1-0.8c0-0.4,0.1-0.7,0.1-1.1c0,0,0,0,0,0c0-0.4,0.1-0.7,0.1-1.1
			c0,0,0,0,0,0c0.1-1.2,0.3-2.3,0.4-3.5c0.1-1.2,0.2-2.4,0.3-3.6l-45.6,1.3C-2938.3,473.7-2937.6,477.2-2936.9,480.6L-2936.9,480.6
			L-2936.9,480.6z M-2940.2,460.1c0.1,1,0.2,2.1,0.4,3.1l46.9,1.3c0-0.3,0-0.5,0-0.8v0c0-0.5,0.1-0.9,0.1-1.4c0-0.5,0-0.9,0.1-1.4
			c0-0.2,0-0.5,0-0.7l-16.6-9.6c-4.5-2.6-10.1-2.6-14.7,0L-2940.2,460.1L-2940.2,460.1z"/>
	</g>
	<g>
		<path class="st2" d="M-2884.5,85.8l41.9,24.2c4.5,2.6,7.3,7.5,7.3,12.7c0,17.9,0,59.1,0,77c0,5.2-2.8,10.1-7.3,12.7
			c-15.5,8.9-51.2,29.6-66.7,38.5c-4.5,2.6-10.1,2.6-14.7,0c-15.5-8.9-51.2-29.6-66.7-38.5c-4.5-2.6-7.3-7.5-7.3-12.7
			c0-17.9,0-59.1,0-77c0-5.2,2.8-10.1,7.3-12.7c15.5-8.9,51.2-29.6,66.7-38.5c4.5-2.6,10.1-2.6,14.7,0l23.9,13.8l0.3,0.1
			C-2884.9,85.5-2884.7,85.7-2884.5,85.8L-2884.5,85.8z M-2940.6,223.7l16.6,9.6c4.5,2.6,10.1,2.6,14.7,0l16.1-9.3
			c-0.2-1.6-0.4-3.2-0.6-4.8l-46.4-1.4C-2940.4,219.8-2940.5,221.8-2940.6,223.7L-2940.6,223.7z M-2883.6,218.5l25.7-14.8
			c4.5-2.6,7.3-7.5,7.3-12.7c0-14.7,0-44.7,0-59.4c0-5.2-2.8-10.1-7.3-12.7l-25.1-14.5c0,0.4-0.1,0.8-0.1,1.2l0,0.2
			c-0.4,4.4-1,8.7-1.8,13c-0.1,0.3-0.1,0.6-0.2,0.8c-0.2,1.2-0.5,2.5-0.8,3.7c-0.1,0.4-0.2,0.9-0.3,1.3c0,0.1-0.2,0.7-0.2,0.7
			c-0.1,0.4-0.2,0.6-0.3,1c-0.3,0.9-0.5,1.9-0.8,2.8l0,0.1c-0.4,1.3-0.8,2.5-1.3,3.7c-0.1,0.1-0.1,0.3-0.2,0.4
			c-0.2,0.4-0.2,0.4-0.3,0.8c-0.3,0.8-0.6,1.5-0.9,2.2c-0.1,0.1-0.1,0.3-0.2,0.4c-0.1,0.1-0.1,0.2-0.2,0.4c-0.2,0.5-0.5,0.9-0.7,1.4
			c-0.4,0.9-0.9,1.8-1.4,2.6c-0.2,0.4-0.5,0.8-0.7,1.2l-0.1,0.1c-0.7,1.1-1.4,2.3-2.2,3.4c-0.3,0.4-0.6,0.8-0.9,1.2
			c-0.1,0.2-0.2,0.3-0.3,0.5c-1.1,1.4-2.2,2.7-3.4,3.9c-0.1,0.1-0.1,0.1-0.2,0.2c-0.2,0.1-0.3,0.3-0.5,0.4c-0.5,0.4-1,0.9-1.5,1.3
			c-0.1,0.1-0.1,0.1-0.2,0.1c-1,0.7-2.1,1.4-3.2,2c-0.3,0.1-0.6,0.3-0.8,0.4c-0.5,0.2-0.9,0.4-1.4,0.6c-0.5,0.2-1.1,0.4-1.6,0.5
			c-0.2,0-0.5,0.1-0.7,0.1c0.2,0.1,0.4,0.2,0.6,0.3c0.5,0.3,0.9,0.5,1.3,0.8c3.4,2.2,6.2,5.3,8.5,8.6c0.4,0.6,0.8,1.1,1.1,1.7
			c0.5,0.7,0.9,1.5,1.4,2.3c0.6,1,1.1,2.1,1.7,3.1c0.7,1.3,1.3,2.7,1.9,4c0.8,1.9,1.5,3.7,2.2,5.6c0.9,2.6,1.7,5.3,2.5,7.9
			c1,3.5,1.8,7,2.5,10.5c0.9,4.4,1.7,8.8,2.3,13.2C-2883.9,216.3-2883.7,217.4-2883.6,218.5L-2883.6,218.5z M-2950.4,218.1
			c0.1-1,0.2-1.9,0.3-2.9c0-0.2,0.1-0.5,0.1-0.7c0-0.2,0.1-0.5,0.1-0.7c0.1-0.9,0.2-1.8,0.3-2.6c0.3-2.1,0.5-4.2,0.9-6.2
			c0.1-0.8,0.3-1.6,0.4-2.3l0.1-0.4c0.4-2,0.8-3.9,1.2-5.9c0.1-0.3,0.1-0.5,0.2-0.8c0.2-0.8,0.4-1.6,0.7-2.5
			c0.1-0.3,0.2-0.6,0.3-0.9c0-0.2,0.1-0.3,0.1-0.5c0.4-1.2,0.8-2.3,1.2-3.5l0.1-0.2c0.4-1.1,0.9-2.3,1.4-3.4l0-0.1
			c0.6-1.3,1.2-2.5,1.8-3.8c0.4-0.7,0.8-1.5,1.2-2.2l0.1-0.2c0.7-1.1,1.4-2.3,2.2-3.4c0.3-0.4,0.6-0.8,0.8-1.2
			c0.1-0.2,0.2-0.3,0.4-0.5c1.1-1.4,2.2-2.7,3.4-3.9c0.1-0.1,0.1-0.1,0.2-0.2c0.1,0,0.1-0.1,0.2-0.1c0.3-0.2,0.5-0.5,0.8-0.7
			c0.4-0.3,0.8-0.6,1.2-0.9c0.1-0.1,0.2-0.2,0.3-0.2c0.1-0.1,0.3-0.2,0.4-0.3c0.5-0.3,1-0.6,1.5-0.9c0.3-0.2,0.7-0.4,1-0.5
			c0.4-0.2,0.8-0.4,1.3-0.6c0.6-0.2,1.2-0.4,1.8-0.6c0.4-0.1,0.9-0.2,1.3-0.2c0.3,0,0.5,0,0.8,0l0,0l0.1,0.1l-0.1,0.1
			c0,0-0.1,0-0.1,0c0,0-0.1,0,0,0c-0.1,0-0.1,0-0.2,0c-0.9,0.1-1.7,0.4-2.4,0.8c-0.7,0.4-1.3,0.8-1.8,1.3c-0.2,0.2-0.5,0.4-0.7,0.6
			c-0.4,0.4-0.8,0.9-1.2,1.3c-0.1,0.2-0.3,0.3-0.4,0.5c0,0.1-0.1,0.1-0.1,0.2c-0.2,0.2-0.3,0.4-0.5,0.7c-0.4,0.5-0.7,1.1-1,1.6
			c0,0.1-0.1,0.1-0.1,0.2c0,0.1-0.1,0.1-0.1,0.2c-0.3,0.6-0.6,1.1-0.9,1.7c-0.3,0.7-0.7,1.4-0.9,2.2c-0.1,0.2-0.1,0.3-0.2,0.5
			c-0.2,0.4-0.3,0.8-0.5,1.2c-0.1,0.4-0.3,0.8-0.4,1.2l28.7-1.2c-0.7-1.3-1.5-2.7-2.4-3.9c-0.8-1.2-1.7-2.3-2.7-3.4
			c-1.4-1.4-3-2.7-4.8-3.6c-0.5-0.2-1.1-0.4-1.6-0.6c-0.4-0.1-0.7-0.2-1.1-0.2c-0.2,0-0.2,0-0.4-0.1c-0.5-0.1-0.9-0.2-1.4-0.4
			c-0.8-0.3-1.6-0.6-2.4-0.9c-0.8-0.3-1.6-0.7-2.3-1.2c-0.6-0.3-1.1-0.7-1.7-1c-3.4-2.3-6.3-5.5-8.6-8.9c-0.3-0.5-0.7-1-1-1.5
			c-0.5-0.7-0.9-1.5-1.4-2.3c-0.6-1-1.1-2.1-1.6-3.1c-0.6-1.3-1.3-2.7-1.8-4c-0.8-1.8-1.5-3.7-2.1-5.6c-0.8-2.4-1.6-4.9-2.3-7.3
			c-0.9-3.2-1.7-6.5-2.3-9.8c-0.8-4.1-1.6-8.3-2.1-12.4c-0.1-0.9-0.2-1.8-0.4-2.6l-25.6,14.8c-4.5,2.6-7.3,7.5-7.3,12.7
			c0,14.7,0,44.7,0,59.4c0,5.2,2.8,10.1,7.3,12.7L-2950.4,218.1L-2950.4,218.1z M-2939.9,213.6l45-1.4c-0.5-3.2-1.2-6.4-1.9-9.6
			c-0.1-0.2-0.1-0.5-0.2-0.7l-41.5-1.5c-0.1,1.1-0.3,2.1-0.4,3.2c0,0.3-0.1,0.6-0.1,0.9C-2939.4,207.5-2939.7,210.5-2939.9,213.6
			L-2939.9,213.6z M-2937.8,196.2l39.2-1.4c-0.4-1.5-0.8-2.9-1.3-4.3c-0.7-2.2-1.5-4.4-2.3-6.6l-33.1-1.4c-0.1,0.2-0.1,0.5-0.2,0.7
			c-0.3,1.1-0.5,2.3-0.7,3.4c-0.1,0.3-0.1,0.6-0.2,0.8c-0.2,0.8-0.3,1.7-0.4,2.5c0,0.2-0.1,0.4-0.1,0.6c-0.1,0.4-0.1,0.8-0.2,1.3
			c-0.1,0.6-0.2,1.1-0.3,1.7c-0.1,0.3-0.1,0.6-0.2,0.9C-2937.7,195-2937.8,195.6-2937.8,196.2L-2937.8,196.2z M-2910.4,157
			C-2910.4,157-2910.3,157-2910.4,157c0.9-0.2,1.7-0.6,2.5-1c0.6-0.4,1.2-0.8,1.7-1.2c0.6-0.5,1.2-1.1,1.7-1.8
			c0.1-0.2,0.3-0.3,0.4-0.5c0.1-0.1,0.2-0.2,0.2-0.3c0.1-0.2,0.2-0.3,0.4-0.5c0.4-0.6,0.8-1.2,1.1-1.8c0-0.1,0.1-0.1,0.1-0.2
			c0-0.1,0.1-0.1,0.1-0.2c0.4-0.8,0.9-1.5,1.2-2.3c0.2-0.5,0.5-1,0.7-1.5c0.1-0.2,0.2-0.5,0.3-0.7c0.2-0.4,0.3-0.8,0.5-1.2
			c0.2-0.6,0.4-1.3,0.6-1.9l-29.9,1.1c0.5,0.9,0.9,1.7,1.4,2.5c0.9,1.5,2,3,3.1,4.3c1.6,1.8,3.5,3.5,5.7,4.5c0.6,0.3,1.3,0.5,2,0.7
			c0.2,0.1,0.4,0.1,0.6,0.2c0.2,0,0.4,0.1,0.6,0.1c0.2,0,0.2,0,0.4,0.1c0.4,0.1,0.8,0.2,1.2,0.3c0.8,0.2,1.5,0.5,2.2,0.8
			C-2911.1,156.6-2910.7,156.8-2910.4,157L-2910.4,157z M-2931.8,136.1l34.2,1.3c0.2-1,0.4-2,0.6-3c0-0.2,0-0.2,0.1-0.4
			c0.1-0.2,0.1-0.5,0.2-0.7c0.2-0.8,0.3-1.5,0.4-2.3c0-0.1,0-0.3,0.1-0.4c0-0.1,0-0.3,0.1-0.4c0.1-0.6,0.2-1.1,0.3-1.7
			c0.1-0.4,0.1-0.8,0.2-1.1c0.1-0.3,0.1-0.7,0.2-1c0.1-0.5,0.2-1.1,0.3-1.6l-39.8,1.3c0.4,1.4,0.8,2.9,1.3,4.3
			C-2933.3,132.3-2932.6,134.2-2931.8,136.1L-2931.8,136.1z M-2936.9,118.9l42.2,1.4c0-0.2,0.1-0.4,0.1-0.6l0,0l0.1-0.5
			c0-0.3,0.1-0.7,0.1-1c0-0.3,0.1-0.5,0.1-0.8c0-0.3,0.1-0.5,0.1-0.8c0-0.4,0.1-0.7,0.1-1.1c0,0,0,0,0,0c0-0.4,0.1-0.7,0.1-1.1
			c0,0,0,0,0,0c0.1-1.2,0.3-2.3,0.4-3.5c0.1-1.2,0.2-2.4,0.3-3.6l-45.6,1.3C-2938.3,112-2937.6,115.5-2936.9,118.9L-2936.9,118.9
			L-2936.9,118.9z M-2940.2,98.5c0.1,1,0.2,2.1,0.4,3.1l46.9,1.3c0-0.3,0-0.5,0-0.8v0c0-0.5,0.1-0.9,0.1-1.4c0-0.5,0-0.9,0.1-1.4
			c0-0.2,0-0.5,0-0.7l-16.6-9.6c-4.5-2.6-10.1-2.6-14.7,0L-2940.2,98.5L-2940.2,98.5z"/>
	</g>
	<g>
		<path class="st2" d="M182.7,85.8l41.9,24.2c4.5,2.6,7.3,7.5,7.3,12.7c0,17.9,0,59.1,0,77c0,5.2-2.8,10.1-7.3,12.7
			c-15.5,8.9-51.2,29.6-66.7,38.5c-4.5,2.6-10.1,2.6-14.7,0c-15.5-8.9-51.2-29.6-66.7-38.5c-4.5-2.6-7.3-7.5-7.3-12.7
			c0-17.9,0-59.1,0-77c0-5.2,2.8-10.1,7.3-12.7c15.5-8.9,51.2-29.6,66.7-38.5c4.5-2.6,10.1-2.6,14.7,0l23.9,13.8l0.3,0.1
			C182.2,85.5,182.5,85.7,182.7,85.8L182.7,85.8z M126.6,223.7l16.6,9.6c4.5,2.6,10.1,2.6,14.7,0l16.1-9.3c-0.2-1.6-0.4-3.2-0.6-4.8
			l-46.4-1.4C126.8,219.8,126.6,221.8,126.6,223.7L126.6,223.7z M183.6,218.5l25.7-14.8c4.5-2.6,7.3-7.5,7.3-12.7
			c0-14.7,0-44.7,0-59.4c0-5.2-2.8-10.1-7.3-12.7l-25.1-14.5c0,0.4-0.1,0.8-0.1,1.2l0,0.2c-0.4,4.4-1,8.7-1.8,13
			c-0.1,0.3-0.1,0.6-0.2,0.8c-0.2,1.2-0.5,2.5-0.8,3.7c-0.1,0.4-0.2,0.9-0.3,1.3c0,0.1-0.2,0.7-0.2,0.7c-0.1,0.4-0.2,0.6-0.3,1
			c-0.3,0.9-0.5,1.9-0.8,2.8l0,0.1c-0.4,1.3-0.8,2.5-1.3,3.7c-0.1,0.1-0.1,0.3-0.2,0.4c-0.2,0.4-0.2,0.4-0.3,0.8
			c-0.3,0.8-0.6,1.5-0.9,2.2c-0.1,0.1-0.1,0.3-0.2,0.4c-0.1,0.1-0.1,0.2-0.2,0.4c-0.2,0.5-0.5,0.9-0.7,1.4c-0.4,0.9-0.9,1.8-1.4,2.6
			c-0.2,0.4-0.5,0.8-0.7,1.2l-0.1,0.1c-0.7,1.1-1.4,2.3-2.2,3.4c-0.3,0.4-0.6,0.8-0.9,1.2c-0.1,0.2-0.2,0.3-0.3,0.5
			c-1.1,1.4-2.2,2.7-3.4,3.9c-0.1,0.1-0.1,0.1-0.2,0.2c-0.2,0.1-0.3,0.3-0.5,0.4c-0.5,0.4-1,0.9-1.5,1.3c-0.1,0.1-0.1,0.1-0.2,0.1
			c-1,0.7-2.1,1.4-3.2,2c-0.3,0.1-0.6,0.3-0.8,0.4c-0.5,0.2-0.9,0.4-1.4,0.6c-0.5,0.2-1.1,0.4-1.6,0.5c-0.2,0-0.5,0.1-0.7,0.1
			c0.2,0.1,0.4,0.2,0.6,0.3c0.5,0.3,0.9,0.5,1.3,0.8c3.4,2.2,6.2,5.3,8.5,8.6c0.4,0.6,0.8,1.1,1.1,1.7c0.5,0.7,0.9,1.5,1.4,2.3
			c0.6,1,1.1,2.1,1.7,3.1c0.7,1.3,1.3,2.7,1.9,4c0.8,1.9,1.5,3.7,2.2,5.6c0.9,2.6,1.7,5.3,2.5,7.9c1,3.5,1.8,7,2.5,10.5
			c0.9,4.4,1.7,8.8,2.3,13.2C183.3,216.3,183.4,217.4,183.6,218.5L183.6,218.5z M116.8,218.1c0.1-1,0.2-1.9,0.3-2.9
			c0-0.2,0.1-0.5,0.1-0.7c0-0.2,0.1-0.5,0.1-0.7c0.1-0.9,0.2-1.8,0.3-2.6c0.3-2.1,0.5-4.2,0.9-6.2c0.1-0.8,0.3-1.6,0.4-2.3l0.1-0.4
			c0.4-2,0.8-3.9,1.2-5.9c0.1-0.3,0.1-0.5,0.2-0.8c0.2-0.8,0.4-1.6,0.7-2.5c0.1-0.3,0.2-0.6,0.3-0.9c0-0.2,0.1-0.3,0.1-0.5
			c0.4-1.2,0.8-2.3,1.2-3.5l0.1-0.2c0.4-1.1,0.9-2.3,1.4-3.4l0-0.1c0.6-1.3,1.2-2.5,1.8-3.8c0.4-0.7,0.8-1.5,1.2-2.2l0.1-0.2
			c0.7-1.1,1.4-2.3,2.2-3.4c0.3-0.4,0.6-0.8,0.8-1.2c0.1-0.2,0.2-0.3,0.4-0.5c1.1-1.4,2.2-2.7,3.4-3.9c0.1-0.1,0.1-0.1,0.2-0.2
			c0.1,0,0.1-0.1,0.2-0.1c0.3-0.2,0.5-0.5,0.8-0.7c0.4-0.3,0.8-0.6,1.2-0.9c0.1-0.1,0.2-0.2,0.3-0.2c0.1-0.1,0.3-0.2,0.4-0.3
			c0.5-0.3,1-0.6,1.5-0.9c0.3-0.2,0.7-0.4,1-0.5c0.4-0.2,0.8-0.4,1.3-0.6c0.6-0.2,1.2-0.4,1.8-0.6c0.4-0.1,0.9-0.2,1.3-0.2
			c0.3,0,0.5,0,0.8,0l0,0l0.1,0.1l-0.1,0.1c0,0-0.1,0-0.1,0c0,0-0.1,0,0,0c-0.1,0-0.1,0-0.2,0c-0.9,0.1-1.7,0.4-2.4,0.8
			c-0.7,0.4-1.3,0.8-1.8,1.3c-0.2,0.2-0.5,0.4-0.7,0.6c-0.4,0.4-0.8,0.9-1.2,1.3c-0.1,0.2-0.3,0.3-0.4,0.5c0,0.1-0.1,0.1-0.1,0.2
			c-0.2,0.2-0.3,0.4-0.5,0.7c-0.4,0.5-0.7,1.1-1,1.6c0,0.1-0.1,0.1-0.1,0.2c0,0.1-0.1,0.1-0.1,0.2c-0.3,0.6-0.6,1.1-0.9,1.7
			c-0.3,0.7-0.7,1.4-0.9,2.2c-0.1,0.2-0.1,0.3-0.2,0.5c-0.2,0.4-0.3,0.8-0.5,1.2c-0.1,0.4-0.3,0.8-0.4,1.2l28.7-1.2
			c-0.7-1.3-1.5-2.7-2.4-3.9c-0.8-1.2-1.7-2.3-2.7-3.4c-1.4-1.4-3-2.7-4.8-3.6c-0.5-0.2-1.1-0.4-1.6-0.6c-0.4-0.1-0.7-0.2-1.1-0.2
			c-0.2,0-0.2,0-0.4-0.1c-0.5-0.1-0.9-0.2-1.4-0.4c-0.8-0.3-1.6-0.6-2.4-0.9c-0.8-0.3-1.6-0.7-2.3-1.2c-0.6-0.3-1.1-0.7-1.7-1
			c-3.4-2.3-6.3-5.5-8.6-8.9c-0.3-0.5-0.7-1-1-1.5c-0.5-0.7-0.9-1.5-1.4-2.3c-0.6-1-1.1-2.1-1.6-3.1c-0.6-1.3-1.3-2.7-1.8-4
			c-0.8-1.8-1.5-3.7-2.1-5.6c-0.8-2.4-1.6-4.9-2.3-7.3c-0.9-3.2-1.7-6.5-2.3-9.8c-0.8-4.1-1.6-8.3-2.1-12.4
			c-0.1-0.9-0.2-1.8-0.4-2.6l-25.6,14.8c-4.5,2.6-7.3,7.5-7.3,12.7c0,14.7,0,44.7,0,59.4c0,5.2,2.8,10.1,7.3,12.7L116.8,218.1
			L116.8,218.1z M127.2,213.6l45-1.4c-0.5-3.2-1.2-6.4-1.9-9.6c-0.1-0.2-0.1-0.5-0.2-0.7l-41.5-1.5c-0.1,1.1-0.3,2.1-0.4,3.2
			c0,0.3-0.1,0.6-0.1,0.9C127.8,207.5,127.5,210.5,127.2,213.6L127.2,213.6z M129.3,196.2l39.2-1.4c-0.4-1.5-0.8-2.9-1.3-4.3
			c-0.7-2.2-1.5-4.4-2.3-6.6l-33.1-1.4c-0.1,0.2-0.1,0.5-0.2,0.7c-0.3,1.1-0.5,2.3-0.7,3.4c-0.1,0.3-0.1,0.6-0.2,0.8
			c-0.2,0.8-0.3,1.7-0.4,2.5c0,0.2-0.1,0.4-0.1,0.6c-0.1,0.4-0.1,0.8-0.2,1.3c-0.1,0.6-0.2,1.1-0.3,1.7c-0.1,0.3-0.1,0.6-0.2,0.9
			C129.5,195,129.4,195.6,129.3,196.2L129.3,196.2z M156.8,157C156.8,157,156.8,157,156.8,157c0.9-0.2,1.7-0.6,2.5-1
			c0.6-0.4,1.2-0.8,1.7-1.2c0.6-0.5,1.2-1.1,1.7-1.8c0.1-0.2,0.3-0.3,0.4-0.5c0.1-0.1,0.2-0.2,0.2-0.3c0.1-0.2,0.2-0.3,0.4-0.5
			c0.4-0.6,0.8-1.2,1.1-1.8c0-0.1,0.1-0.1,0.1-0.2c0-0.1,0.1-0.1,0.1-0.2c0.4-0.8,0.9-1.5,1.2-2.3c0.2-0.5,0.5-1,0.7-1.5
			c0.1-0.2,0.2-0.5,0.3-0.7c0.2-0.4,0.3-0.8,0.5-1.2c0.2-0.6,0.4-1.3,0.6-1.9l-29.9,1.1c0.5,0.9,0.9,1.7,1.4,2.5
			c0.9,1.5,2,3,3.1,4.3c1.6,1.8,3.5,3.5,5.7,4.5c0.6,0.3,1.3,0.5,2,0.7c0.2,0.1,0.4,0.1,0.6,0.2c0.2,0,0.4,0.1,0.6,0.1
			c0.2,0,0.2,0,0.4,0.1c0.4,0.1,0.8,0.2,1.2,0.3c0.8,0.2,1.5,0.5,2.2,0.8C156.1,156.6,156.4,156.8,156.8,157L156.8,157z
			 M135.3,136.1l34.2,1.3c0.2-1,0.4-2,0.6-3c0-0.2,0-0.2,0.1-0.4c0.1-0.2,0.1-0.5,0.2-0.7c0.2-0.8,0.3-1.5,0.4-2.3
			c0-0.1,0-0.3,0.1-0.4c0-0.1,0-0.3,0.1-0.4c0.1-0.6,0.2-1.1,0.3-1.7c0.1-0.4,0.1-0.8,0.2-1.1c0.1-0.3,0.1-0.7,0.2-1
			c0.1-0.5,0.2-1.1,0.3-1.6L132,126c0.4,1.4,0.8,2.9,1.3,4.3C133.9,132.3,134.6,134.2,135.3,136.1L135.3,136.1z M130.3,118.9
			l42.2,1.4c0-0.2,0.1-0.4,0.1-0.6l0,0l0.1-0.5c0-0.3,0.1-0.7,0.1-1c0-0.3,0.1-0.5,0.1-0.8c0-0.3,0.1-0.5,0.1-0.8
			c0-0.4,0.1-0.7,0.1-1.1c0,0,0,0,0,0c0-0.4,0.1-0.7,0.1-1.1c0,0,0,0,0,0c0.1-1.2,0.3-2.3,0.4-3.5c0.1-1.2,0.2-2.4,0.3-3.6
			l-45.6,1.3C128.9,112,129.5,115.5,130.3,118.9L130.3,118.9L130.3,118.9z M127,98.5c0.1,1,0.2,2.1,0.4,3.1l46.9,1.3
			c0-0.3,0-0.5,0-0.8v0c0-0.5,0.1-0.9,0.1-1.4c0-0.5,0-0.9,0.1-1.4c0-0.2,0-0.5,0-0.7l-16.6-9.6c-4.5-2.6-10.1-2.6-14.7,0L127,98.5
			L127,98.5z"/>
		<path d="M278.5,192.7c0.1,0.8-0.2,1.2-0.8,1.4c-1.2,0.4-2.5,0.7-3.9,0.8c-1.4,0.1-2.6,0.2-3.6,0.2c-3.8,0-6.3-1-7.5-2.9
			c-1.2-1.9-1.9-4.7-1.9-8.2v-82.9c0-0.8,0.4-1.2,1.2-1.2h3.7c0.9,0,1.3,0.4,1.3,1.2V182c0,2.7,0.3,4.7,1,5.9
			c0.6,1.2,2.1,1.7,4.3,1.7c0.9,0,1.7,0,2.4-0.1c0.8-0.1,1.5-0.2,2.2-0.4c0.3,0,0.5,0,0.7,0.1c0.2,0,0.4,0.3,0.5,0.7L278.5,192.7
			L278.5,192.7z"/>
		<path d="M346.1,160c0,11.7-2.5,20.5-7.6,26.6c-5.1,6.1-12.2,9.1-21.4,9.1c-9.1,0-16.1-3-21.1-9.1c-4.9-6.1-7.4-14.8-7.4-26.2
			c0-11.5,2.6-20.3,7.9-26.3c5.2-6,12.2-9,21-9c9.2,0,16.2,3,21.2,9.1C343.6,140.2,346.1,148.8,346.1,160L346.1,160z M340,160.4
			c0-3.9-0.3-7.6-1-11.3c-0.7-3.6-1.9-6.8-3.7-9.6c-1.8-2.7-4.1-5-7-6.6c-2.9-1.7-6.6-2.5-11.1-2.5c-4.1,0-7.6,0.8-10.5,2.4
			c-2.9,1.6-5.2,3.8-7,6.6c-1.8,2.7-3,5.9-3.9,9.5c-0.8,3.6-1.2,7.3-1.2,11.1c0,4.3,0.4,8.3,1.2,12c0.8,3.7,2.1,6.9,3.9,9.7
			c1.8,2.7,4.1,4.9,7,6.4c2.9,1.5,6.4,2.3,10.6,2.3c4.4,0,8-0.9,10.9-2.7c2.9-1.8,5.2-4.1,7-7c1.7-2.9,2.9-6.1,3.7-9.7
			C339.7,167.4,340,163.9,340,160.4L340,160.4z"/>
		<path d="M390.2,125.1c3.6,0,7.5,0.3,11.7,0.8c4.2,0.5,8.4,1.6,12.5,3.2c0.8,0.3,1.2,0.9,1.2,1.8v59.4c0,5.8-0.7,10.5-2.2,14.4
			c-1.5,3.8-3.5,6.9-6.2,9.3c-2.7,2.4-5.9,4.2-9.7,5.5c-3.8,1.3-8,2.3-12.6,3c-0.9,0.1-1.3-0.2-1.4-0.8l-0.5-3.7c0-0.6,0.3-0.9,1-1
			c3.7-0.7,7.1-1.5,10.2-2.4s5.8-2.3,8.1-4.1c2.3-1.8,4-4.1,5.3-6.9c1.2-2.8,1.9-6.5,1.9-10.9v-0.9c-1.4,0.5-2.9,1-4.6,1.5
			c-1.7,0.5-3.5,0.9-5.3,1.2c-1.8,0.3-3.7,0.6-5.5,0.8c-1.8,0.2-3.5,0.3-5,0.3c-5,0-9.2-0.9-12.8-2.6c-3.6-1.7-6.5-4.1-8.8-7.2
			c-2.3-3.1-4-6.7-5.1-10.9c-1.1-4.2-1.6-8.8-1.6-13.6c0-5.1,0.6-9.8,1.7-14.2c1.2-4.4,2.9-8.2,5.3-11.4c2.4-3.2,5.5-5.8,9.2-7.6
			C380.6,126,385,125.1,390.2,125.1L390.2,125.1z M389.5,190.1c0.9,0,2.2-0.1,3.7-0.2c1.5-0.1,3.2-0.4,5-0.7
			c1.8-0.3,3.7-0.8,5.6-1.2c1.9-0.5,3.8-1.1,5.5-1.9v-52.5c-3.3-1.2-6.7-2-10.2-2.4c-3.5-0.4-6.5-0.6-9-0.6c-3.3,0-6.4,0.6-9.3,1.8
			c-2.8,1.2-5.3,3-7.3,5.5c-2.1,2.4-3.7,5.6-4.9,9.4c-1.2,3.8-1.8,8.3-1.8,13.6c0,9.6,2,16.9,6.1,21.9
			C377,187.6,382.5,190.1,389.5,190.1L389.5,190.1z"/>
		<path d="M430.1,161.3c0-4.8,0.6-9.4,1.8-13.8c1.2-4.4,3-8.2,5.5-11.5c2.5-3.3,5.7-5.9,9.7-7.9c3.9-1.9,8.6-2.9,14-2.9
			c2.2,0,4.4,0.1,6.5,0.3c2.1,0.2,4.5,0.6,7.1,1.2v-23.6c0-1,0.2-1.7,0.6-2.1c0.4-0.3,1.1-0.5,2.3-0.5h13.1c0.9,0,1.7,0.2,2.1,0.5
			c0.5,0.3,0.7,1,0.7,2.1v79.3c0,0.9,0,1.9,0,2.9c0,1-0.1,2-0.3,2.9c-0.1,0.9-0.7,1.8-1.9,2.6c-1.2,0.8-2.7,1.4-4.6,2
			c-1.8,0.6-3.9,1.1-6.2,1.5c-2.3,0.4-4.5,0.8-6.8,1c-2.2,0.2-4.3,0.4-6.3,0.5c-2,0.1-3.6,0.2-4.9,0.2c-6.2,0-11.4-0.9-15.5-2.6
			c-4.2-1.7-7.5-4.1-10-7.2c-2.5-3.1-4.3-6.7-5.4-10.9C430.6,171,430.1,166.4,430.1,161.3L430.1,161.3z M449.5,161.6
			c0,6.9,1.4,11.7,4.1,14.4c2.7,2.7,6.5,4.1,11.3,4.1c1.2,0,2.8-0.1,4.8-0.4c2-0.3,3.7-0.6,5.1-1.2v-35.9c-2.2-0.5-4.2-0.9-5.9-1
			c-1.7-0.2-3.3-0.3-4.6-0.3c-4.4,0-7.9,1.6-10.6,4.8C450.9,149.3,449.5,154.5,449.5,161.6L449.5,161.6z"/>
		<path d="M535.4,140.7c-0.9,0-2.1,0-3.7,0.1c-1.6,0-3.3,0.2-5.1,0.6v50.9c0,0.9-0.2,1.6-0.5,1.9c-0.3,0.3-1.1,0.5-2.3,0.5h-13.3
			c-0.9,0-1.6-0.2-2.1-0.5c-0.4-0.3-0.6-0.9-0.6-1.9V137c0-2.9,0.5-5.2,1.5-6.9c1-1.7,3.2-2.9,6.4-3.5c0.9-0.2,2.1-0.3,3.7-0.5
			c1.6-0.1,3.3-0.3,5.1-0.4c1.8-0.1,3.6-0.2,5.3-0.3c1.8-0.1,3.3-0.1,4.6-0.1c6,0,11.2,0.6,15.6,1.8c4.4,1.2,8,3.1,10.9,5.7
			c2.9,2.6,5,6.1,6.4,10.3c1.4,4.2,2.1,9.4,2.1,15.5v33.6c0,0.9-0.2,1.6-0.5,1.9c-0.3,0.3-1.1,0.5-2.3,0.5h-13.4
			c-0.9,0-1.6-0.2-2.1-0.5c-0.4-0.3-0.6-0.9-0.6-1.9v-34.8c0-2.8-0.2-5.3-0.7-7.3c-0.5-2.1-1.3-3.8-2.4-5.2
			c-1.2-1.4-2.7-2.5-4.8-3.2C540.9,141.1,538.4,140.7,535.4,140.7L535.4,140.7z"/>
		<path d="M644,186.2c0,1.1-0.2,2.1-0.5,2.8c-0.3,0.8-1.1,1.5-2.3,2.2c-2,0.9-4.1,1.7-6.4,2.3c-2.3,0.6-4.6,1.1-7,1.4
			c-2.4,0.3-4.7,0.6-7.1,0.8c-2.4,0.2-4.7,0.3-6.8,0.3c-5.8,0-10.7-0.6-14.5-1.7c-3.8-1.1-6.9-2.6-9.2-4.6c-2.3-1.9-3.9-4.2-4.9-6.8
			c-0.9-2.6-1.4-5.4-1.4-8.4c0-3.3,0.6-6.4,1.7-9.2c1.1-2.8,2.8-5.2,5-7.3c2.2-2.1,5-3.7,8.4-4.8c3.4-1.2,7.4-1.7,12-1.7h14.2v-2.1
			c0-1.2-0.1-2.4-0.4-3.5c-0.3-1.1-0.8-2.1-1.6-2.9c-0.8-0.8-2-1.5-3.4-2c-1.5-0.5-3.4-0.8-5.8-0.8c-1.3,0-2.7,0.1-4.4,0.2
			c-1.6,0.1-3.3,0.3-4.9,0.5c-1.6,0.2-3.2,0.5-4.8,0.8c-1.5,0.3-2.9,0.6-4.1,1c-1.1,0.3-1.9,0.3-2.3,0c-0.4-0.3-0.7-0.8-0.9-1.7
			l-2.1-9c-0.3-0.9-0.3-1.6-0.1-2c0.2-0.4,0.7-0.7,1.4-1c3.9-1.4,7.9-2.4,12.2-3c4.2-0.6,8.5-0.9,12.7-0.9c9.4,0,16.2,2,20.6,6
			c4.4,4,6.6,9.9,6.6,17.7V186.2L644,186.2z M625.2,163.9h-10.2c-1.2,0-2.5,0.1-3.9,0.3c-1.4,0.2-2.6,0.6-3.8,1.2
			c-1.2,0.6-2.1,1.6-2.9,2.8c-0.8,1.2-1.2,2.8-1.2,4.9c0,3,1,5.1,3,6.3c2,1.2,4.7,1.8,8.2,1.8c0.5,0,1.2,0,2.1-0.1
			c0.9,0,1.8-0.1,2.8-0.3c1-0.1,2-0.3,3-0.5c1-0.2,2-0.5,2.8-0.8L625.2,163.9L625.2,163.9z"/>
	</g>
</g>
</svg>
