<svg width="1333" height="561" viewBox="0 0 1333 561" fill="none" xmlns="http://www.w3.org/2000/svg">
<path d="M0 561H1333V0H0V561Z" fill="#F95C27"/>
<path d="M903.247 195.669H1072V227.615H903.247V195.669Z" fill="white"/>
<path d="M903.247 264.071H1072V296.016H903.247V264.071Z" fill="white"/>
<path d="M901.479 332.472H1070.23V364.417H901.479V332.472Z" fill="white"/>
<path d="M475.105 195.669H643.855V227.615H475.105V195.669Z" fill="white"/>
<path d="M475.105 264.071H643.855V296.016H475.105V264.071Z" fill="white"/>
<path d="M507.052 363.831H475.107V264.071H507.052V363.831Z" fill="white"/>
<path d="M643.855 363.831H611.909V264.071H643.855V363.831Z" fill="white"/>
<path d="M689.409 195.669H858.16V227.615H689.409V195.669Z" fill="white"/>
<path d="M720.239 363.831H688.292V264.071H720.239V363.831Z" fill="white"/>
<path d="M1072 364.417H1040.05V264.659H1072V364.417Z" fill="white"/>
<path d="M431.184 364.417H399.239V195.668H431.184V364.417Z" fill="white"/>
<path d="M360.821 295.428H328.876V195.669H360.821V295.428Z" fill="white"/>
<path d="M293.283 364.417H261.337V195.668H293.283V364.417Z" fill="white"/>
</svg>
