<svg viewBox="0 0 494.51 116.51" height='116.51' width='494.51' xmlns="http://www.w3.org/2000/svg"><path d="m20 8.5 11.21 6.5v13l-11.21 6.4-11.22-6.48v-12.92zm0-8.72-18.77 10.83v21.67l18.77 10.84 18.76-10.84v-21.67z" fill="#e98e56"/><path d="m40.76 44.51 11.24 6.49v13l-11.24 6.4-11.21-6.47v-12.93l11.21-6.47m0-8.72-18.76 10.81v21.67l18.76 10.84 18.77-10.84v-21.67l-18.77-10.83z" fill="#e06565"/><path d="m61.62 80.52 11.21 6.48v13l-11.21 6.47-11.22-6.53v-12.94l11.22-6.47m0-8.73-18.77 10.83v21.67l18.77 10.83 18.76-10.83v-21.67l-18.76-10.84z" fill="#50b8da"/><path d="m19.91 80.52 11.21 6.48v13l-11.21 6.47-11.21-6.53v-12.94l11.21-6.47m0-8.73-18.77 10.83v21.67l18.77 10.83 18.77-10.83v-21.67l-18.77-10.84z" fill="#54a97d"/><path d="m82.29 44.51 11.22 6.49v13l-11.22 6.4-11.21-6.47v-12.93l11.21-6.47m0-8.72-18.77 10.81v21.67l18.77 10.84 18.77-10.84v-21.67l-18.77-10.83z" fill="#614f8c"/><g fill="#5e6162"><path d="m123.69 9.35h4.39v3.13a17.11 17.11 0 0 1 -.09 1.73h.09a9.23 9.23 0 0 1 8.13-5.42c4 0 6.31 1.82 7.11 5.37h.09a9.52 9.52 0 0 1 8.41-5.37c5.33 0 7.81 3 7.81 9.07v15.14h-4.54v-14.16c0-3.32-.65-5.94-4.2-5.94-3.32 0-5.8 2.81-6.64 6a14.31 14.31 0 0 0 -.33 3.27v10.83h-4.53v-14.16c0-3.09-.47-5.94-4.11-5.94-3.46 0-5.89 2.85-6.78 6.22a13.22 13.22 0 0 0 -.28 3.08v10.8h-4.53z"/><path d="m165.42 0h4.58v4.63h-4.58zm.05 9.35h4.53v23.65h-4.53z"/><path d="m188.51 18.23h1v-.42c0-3.88-2.2-5.19-5.19-5.19a12 12 0 0 0 -6.59 2.29l-1.87-3.32a14.85 14.85 0 0 1 8.84-2.8c6 0 9.34 3.27 9.34 9.25v14.96h-4.2v-2.24a18.31 18.31 0 0 1 .09-1.87h-.09a8.19 8.19 0 0 1 -7.57 4.67c-4.07 0-8-2.48-8-7.2-.01-7.8 10.27-8.13 14.24-8.13zm-5.23 11.68c3.83 0 6.31-4 6.31-7.52v-.75h-1.17c-3.41 0-9.58.24-9.58 4.49 0 1.92 1.49 3.78 4.44 3.78z"/><path d="m123.82 44.62h25.77c12.89 0 22.18 8.69 22.18 22.07s-9.29 22.37-22.18 22.37h-15.88v26.07h-9.89zm24.18 35.85c8.49 0 13.69-5.29 13.69-13.78s-5.2-13.48-13.59-13.48h-14.39v27.26z"/><path d="m179.85 44.62h9.69v55c0 6.1 2.4 7.19 5.4 7.19a15.44 15.44 0 0 0 1.7-.1v8.59a27.25 27.25 0 0 1 -3.2.2c-5.49 0-13.59-1.49-13.59-14.18z"/><path d="m231.29 83.57h2.2v-.9c0-8.29-4.69-11.09-11.08-11.09-7.8 0-14.09 4.9-14.09 4.9l-4-7.09a31.67 31.67 0 0 1 18.87-6c12.79 0 20 7 20 19.78v32h-9v-4.79a38 38 0 0 1 .2-4h-.2a17.47 17.47 0 0 1 -16.18 10c-8.69 0-17.18-5.29-17.18-15.38 0-16.73 21.97-17.43 30.46-17.43zm-11.18 25c8.19 0 13.48-8.59 13.48-16.08v-1.6h-2.49c-7.3 0-20.48.5-20.48 9.59 0 4.07 3.2 8.06 9.49 8.06z"/><path d="m257.46 73.08h-6.59v-7.79h6.89v-14.58h9.39v14.58h12.19v7.79h-12.19v22.48c0 10.08 7.1 11.38 10.79 11.38a11.68 11.68 0 0 0 2.3-.2v8.59a26.59 26.59 0 0 1 -3.4.2c-6.49 0-19.38-2-19.38-18.87z"/><path d="m291.82 73.08h-6.29v-7.79h6.29v-2.4c0-16.68 12.59-18.77 19-18.77a20.81 20.81 0 0 1 3.7.3v8.29a14.06 14.06 0 0 0 -2.5-.2c-3.7 0-10.59 1.2-10.59 10.58v2.2h12v7.79h-12v42.05h-9.59z"/><path d="m344.26 63.39c15.08 0 27.27 11.09 27.27 26.37s-12.19 26.57-27.27 26.57-27.26-11.18-27.26-26.57 12.18-26.37 27.26-26.37zm0 44.55c9.59 0 17.38-7.59 17.38-18.18s-7.79-18-17.38-18-17.38 7.5-17.38 18 7.89 18.18 17.38 18.18z"/><path d="m381 64.59h9.39v8.79a36.29 36.29 0 0 1 -.2 3.8h.2c2.29-7.39 8.19-13.19 16-13.19a17 17 0 0 1 2.49.2v9.59a13.81 13.81 0 0 0 -2.79-.3c-6.19 0-11.89 4.4-14.19 11.89a31 31 0 0 0 -1.19 9.09v20.67h-9.71z"/><path d="m416.48 64.59h9.39v6.7a33.75 33.75 0 0 1 -.21 3.69h.21c2.39-5.89 9.48-11.59 17.38-11.59 8.48 0 13.48 3.9 15.18 11.49h.2a20.34 20.34 0 0 1 18-11.49c11.38 0 16.68 6.5 16.68 19.38v32.36h-9.71v-30.26c0-7.09-1.4-12.69-9-12.69-7.09 0-12.39 6-14.19 12.89a30.12 30.12 0 0 0 -.69 7v23.07h-9.72v-30.27c0-6.59-1-12.69-8.79-12.69-7.39 0-12.59 6.1-14.49 13.29a27.87 27.87 0 0 0 -.6 6.59v23.07h-9.68z"/></g><path d="m20 8.5 11.21 6.5v13l-11.21 6.4-11.22-6.48v-12.92zm0-8.72-18.77 10.83v21.67l18.77 10.84 18.76-10.84v-21.67z" fill="#e98e56"/></svg>
