<svg xmlns="http://www.w3.org/2000/svg" height="50" width="200" viewBox="20 0 200 50"><g fill="none" fill-rule="evenodd"><path fill="#193153" fill-rule="nonzero" d="M22 42V12.1l14.6 25.3h1.2L52.5 12v30H55V7h-2.1L37.3 34 21.6 7h-2.1v35H22zm60.1.3c3.4 0 6.5-.8 9.3-2.3a17 17 0 0 0 6.5-6.4c1.6-2.7 2.4-5.7 2.4-9.1 0-3.4-.8-6.4-2.4-9.1a17 17 0 0 0-6.5-6.3 18.9 18.9 0 0 0-9.3-2.3c-3.4 0-6.5.7-9.3 2.3a17.1 17.1 0 0 0-8.9 15.4 17.6 17.6 0 0 0 8.9 15.4c2.8 1.6 5.9 2.4 9.3 2.4zm0-2.4c-3 0-5.6-.7-8-2a14.7 14.7 0 0 1-5.6-5.5c-1.4-2.4-2-5-2-7.9a14.7 14.7 0 0 1 7.7-13.4c2.3-1.3 5-2 7.9-2a15.5 15.5 0 0 1 13.6 7.5c1.3 2.4 2 5 2 7.9A14.7 14.7 0 0 1 90 37.9a16 16 0 0 1-7.9 2zm29.6 2.1V11.6L135.6 42h2V7h-2.5v30.4L111.3 7h-2.1v35h2.5zm40.7 0V7h-2.6v35h2.6zm21.4 0V9.3h12.6V7h-27.7v2.3h12.6V42h2.5zm21.5 0V30.5h10c1 0 2.2 0 3.4-.2l8.4 11.7h2.8l-8.7-12.3a10 10 0 0 0 6-4c1.5-1.8 2.2-4.1 2.2-6.9 0-3.7-1.3-6.6-3.8-8.7-2.4-2-5.9-3.1-10.3-3.1h-12.6v35h2.6zm10-13.7h-10v-19h10c3.7 0 6.6.8 8.5 2.5 2 1.6 3 4 3 7s-1 5.4-3 7c-2 1.7-4.8 2.5-8.5 2.5z"/><path stroke="#193153" stroke-width="2" d="M68 33h7l3-11 3.3 5.4L86.5 15l4 19H96"/></g></svg>