<svg height="300" viewBox="0 0 894 300" width="894" xmlns="http://www.w3.org/2000/svg" xmlns:xlink="http://www.w3.org/1999/xlink"><clipPath id="a"><path d="m0 0h894v300h-894z"/></clipPath><g clip-path="url(#a)" fill="#2165e4"><path d="m17.725 85.772c-5.081 1.563-8.207 3.908-9.901 7.165-1.433 2.866-1.824 13.68-1.824 58.496v54.848l4.43 4.43 4.429 4.429h20.845c15.634 0 21.105-.391 22.148-1.693.912-1.043 1.693-9.381 1.824-20.454l.39-18.631 12.768 16.807c17.718 23.32 17.458 23.19 42.081 23.711 22.538.521 26.056-.521 29.704-8.078 1.824-3.908 2.084-10.943 2.084-56.411 0-46.771-.26-52.243-2.345-56.412-3.778-7.686-8.598-9.119-29.704-9.119-12.377 0-18.76.521-19.803 1.563-1.042 1.042-1.563 7.817-1.563 21.627v20.063l-11.204-14.722c-15.634-20.584-19.412-24.362-27.098-26.577-6.124-1.824-32.701-2.606-37.261-1.042zm31.658 10.683c2.867.651 6.514 2.605 8.338 4.299 1.694 1.563 19.412 24.102 39.085 49.897 19.802 25.796 36.478 47.683 37.26 48.465.782 1.172.651 2.345-.391 3.648-2.475 2.996-30.486 2.736-36.088-.391-4.95-2.606-79.862-99.665-79.862-103.313 0-1.172.782-2.605 1.694-2.866 2.736-1.172 24.753-.912 29.964.261zm84.162 1.042c2.736 2.345 2.736 2.866 2.475 44.165l-.391 41.95-15.894-20.975-16.025-20.975v-23.19-23.19h13.55c10.943 0 14.07.391 16.285 2.215zm-84.552 84.682v22.539h-14.722c-9.771 0-15.243-.521-16.285-1.563-1.173-1.173-1.564-12.638-1.564-43.775v-42.341l16.286 21.366 16.285 21.366z"/><path d="m218.357 150.651v54.067h14.331 14.331l.261-28.141.391-28.14 24.623 28.14 24.492 28.141h10.944 10.944v-54.067-54.066h-14.331-14.331v28.792 28.792l-24.363-28.792-24.492-28.662h-11.335l-11.465-.13z"/><path d="m547.968 150.651v54.067h14.33 14.331v-18.891-18.891h19.412 19.412l.912-6.123c.521-3.517 1.954-8.989 3.257-12.376l2.345-6.254h-22.669-22.669v-10.422-10.423h26.056 26.057v-12.376-12.377h-40.387-40.387z"/><path d="m350.592 126.419c-18.239 4.69-29.313 19.412-29.313 39.084 0 11.595 2.866 19.542 9.902 27.359 8.598 9.511 16.285 12.507 32.439 12.507 14.201 0 20.454-2.084 28.402-9.64 4.038-3.648 8.728-11.856 8.728-15.113 0-2.736-24.883-2.866-27.359-.13-.781 1.042-3.517 2.605-5.992 3.387-5.863 1.954-12.377-.13-16.937-5.602l-3.518-4.169 27.229-.651 27.229-.652-.131-9.771c-.26-16.155-7.686-28.271-21.235-34.264-6.514-2.866-22.539-4.169-29.444-2.345zm17.458 21.106c3.387 1.172 7.947 6.644 7.947 9.64 0 .391-6.384.652-14.331.652-7.817 0-14.331-.391-14.331-.782 0-2.215 3.257-6.123 6.905-8.338 4.821-2.996 7.947-3.257 13.81-1.172z"/><path d="m428.891 127.331c-9.38 2.997-20.324 14.331-23.451 24.493-7.035 22.278 4.56 46.51 25.014 52.373 8.599 2.475 21.106 1.954 27.359-1.303 3.648-1.824 4.169-1.954 4.169-.13 0 1.563 2.215 1.954 13.028 1.954h13.028v-39.084-39.085h-13.028c-10.813 0-13.028.391-13.028 1.955 0 1.824-.521 1.693-4.169-.131-5.993-3.126-20.845-3.647-28.922-1.042zm29.053 23.581c3.257 2.475 3.387 3.127 3.387 14.722s-.13 12.246-3.387 14.721c-5.212 3.779-13.94 4.3-19.152 1.043-8.338-5.342-11.595-15.504-7.556-23.321 1.954-3.778 6.775-8.598 9.901-9.771 3.648-1.563 13.289.131 16.807 2.606z"/><path d="m536.503 126.68c-3.127.521-8.338 2.475-11.465 4.299l-5.732 3.257v-3.908-3.779h-13.028-13.028v39.085 39.084h13.028 13.028v-22.148-22.148l6.774-3.778c3.909-2.214 9.771-4.299 13.68-4.82l6.905-.782v-12.898c0-14.33.651-13.679-10.162-11.464z"/><path d="m647.632 126.94c-18.5 6.124-28.401 19.412-28.531 37.912 0 17.979 7.035 29.965 22.147 37.391 7.296 3.647 9.771 4.169 19.152 4.169 8.989.13 11.986-.522 18.89-3.648 18.37-8.208 27.359-27.88 21.888-47.944-4.951-17.848-18.5-28.271-38.303-29.182-5.993-.261-12.116.39-15.243 1.302zm24.493 26.708c3.127 3.257 4.039 5.341 4.43 10.943.651 8.599-2.606 14.592-9.511 17.458-10.944 4.56-22.669-3.908-22.669-16.415 0-14.592 17.458-22.148 27.75-11.986z"/><path d="m747.688 126.549c-2.866.652-7.817 2.346-10.683 3.909l-5.342 2.606v-3.258-3.257h-13.679-13.68v39.085 39.084h13.68 13.679v-22.018-22.147l3.388-2.606c3.778-2.996 14.721-6.644 19.672-6.644 2.996 0 2.996-.261 2.996-13.028 0-14.461.652-13.81-10.031-11.726z"/><path d="m791.201 127.852c-4.038 2.215-4.82 2.215-4.82.652 0-1.564-2.345-1.955-13.028-1.955h-13.028v39.085 39.084h13.028 13.028v-24.623-24.753l3.518-2.606c7.295-5.863 14.852-4.299 18.89 3.778 1.955 3.778 2.345 8.208 2.345 26.317v21.887h13.028 13.029v-25.275c0-24.753 0-25.274 2.996-27.098 4.951-3.257 8.729-3.908 12.768-2.215 6.774 2.736 7.686 6.384 7.686 31.789v22.799h13.68 13.679v-25.796c0-31.137-1.173-36.739-9.771-45.207-7.035-7.035-12.898-8.859-26.317-8.338-8.989.391-11.334 1.042-17.067 4.69-5.992 3.648-6.774 3.908-8.337 2.085-5.603-6.905-25.926-9.381-35.307-4.3z"/></g></svg>