<svg id="Ebene_1" data-name="Ebene 1" xmlns="http://www.w3.org/2000/svg" viewBox="0 0 820 346" width="820" height="346"><defs><style>.cls-1{fill:#322d28;}.cls-2{fill:#a4d65e;}.cls-3{fill:#f3ea5d;}.cls-4{fill:#ff808b;}.cls-5{fill:#5bc2e7;}</style></defs><title>full_horizontal_colored_dark_claim</title><path class="cls-1" d="M307.69,235.7h-1.17a1.37,1.37,0,0,1-.62-.12.64.64,0,0,1-.31-.5l-.3-1.39c-.39.35-.78.67-1.15.95a6.84,6.84,0,0,1-1.18.71,6.49,6.49,0,0,1-1.33.44,7.51,7.51,0,0,1-1.56.15,5.35,5.35,0,0,1-1.63-.25,3.82,3.82,0,0,1-1.33-.73,3.55,3.55,0,0,1-.89-1.24,4.38,4.38,0,0,1-.33-1.78,3.36,3.36,0,0,1,.48-1.71,4.33,4.33,0,0,1,1.58-1.46,10.15,10.15,0,0,1,2.85-1.05,19.47,19.47,0,0,1,4.3-.41v-1.17a4.13,4.13,0,0,0-.74-2.66,2.72,2.72,0,0,0-2.21-.9,4.69,4.69,0,0,0-1.62.24,6.74,6.74,0,0,0-1.14.55c-.32.2-.6.39-.83.55a1.2,1.2,0,0,1-.69.24.77.77,0,0,1-.47-.14,1,1,0,0,1-.31-.35l-.48-.84a8.74,8.74,0,0,1,2.68-1.79,8.38,8.38,0,0,1,3.18-.59,5.81,5.81,0,0,1,2.24.41,4.61,4.61,0,0,1,1.64,1.16,4.81,4.81,0,0,1,1,1.79,7.35,7.35,0,0,1,.34,2.3Zm-6.83-1.61a5.05,5.05,0,0,0,2.36-.54,6.7,6.7,0,0,0,1-.63,8.88,8.88,0,0,0,.91-.84V229a18.06,18.06,0,0,0-3.09.23,8.73,8.73,0,0,0-2.07.61,2.8,2.8,0,0,0-1.16.88,1.88,1.88,0,0,0-.36,1.13,2.48,2.48,0,0,0,.19,1,1.9,1.9,0,0,0,.52.71,2,2,0,0,0,.76.4A3.35,3.35,0,0,0,300.86,234.09Z"/><path class="cls-1" d="M327.23,223.38a1.16,1.16,0,0,1-.24.25.53.53,0,0,1-.34.09.92.92,0,0,1-.48-.19,7.31,7.31,0,0,0-.66-.41,5.56,5.56,0,0,0-1-.4,4.39,4.39,0,0,0-1.4-.19,4.57,4.57,0,0,0-1.94.4,3.69,3.69,0,0,0-1.41,1.13,5.05,5.05,0,0,0-.86,1.79,9,9,0,0,0-.29,2.35,8.51,8.51,0,0,0,.31,2.42,5.42,5.42,0,0,0,.87,1.77,3.73,3.73,0,0,0,1.37,1.1,4.25,4.25,0,0,0,1.81.37,4.38,4.38,0,0,0,2.62-.74,5.45,5.45,0,0,0,.68-.51.85.85,0,0,1,.53-.23.57.57,0,0,1,.51.26l.74,1a5.74,5.74,0,0,1-2.45,1.75,8.6,8.6,0,0,1-3.09.56,6.68,6.68,0,0,1-2.61-.52,6.09,6.09,0,0,1-2.09-1.5,7.17,7.17,0,0,1-1.4-2.42,9.76,9.76,0,0,1-.51-3.27,9.86,9.86,0,0,1,.47-3.09,7,7,0,0,1,1.36-2.45,6.28,6.28,0,0,1,2.21-1.61,7.57,7.57,0,0,1,3-.57,7.11,7.11,0,0,1,2.78.51,6.66,6.66,0,0,1,2.15,1.44Z"/><path class="cls-1" d="M346.37,223.38a1.44,1.44,0,0,1-.23.25.58.58,0,0,1-.35.09.92.92,0,0,1-.48-.19c-.17-.12-.39-.26-.65-.41a6.06,6.06,0,0,0-1-.4,4.39,4.39,0,0,0-1.4-.19,4.57,4.57,0,0,0-1.94.4,3.69,3.69,0,0,0-1.41,1.13,5.05,5.05,0,0,0-.86,1.79,9.63,9.63,0,0,0,0,4.77,5.42,5.42,0,0,0,.87,1.77,3.73,3.73,0,0,0,1.37,1.1,4.25,4.25,0,0,0,1.81.37,4.38,4.38,0,0,0,2.62-.74,5.45,5.45,0,0,0,.68-.51.85.85,0,0,1,.53-.23.57.57,0,0,1,.51.26l.74,1a5.74,5.74,0,0,1-2.45,1.75,8.6,8.6,0,0,1-3.09.56,6.68,6.68,0,0,1-2.61-.52,6.09,6.09,0,0,1-2.09-1.5,7.17,7.17,0,0,1-1.4-2.42,9.76,9.76,0,0,1-.51-3.27,9.86,9.86,0,0,1,.47-3.09,7,7,0,0,1,1.36-2.45,6.28,6.28,0,0,1,2.21-1.61,7.57,7.57,0,0,1,3-.57,7.11,7.11,0,0,1,2.78.51,6.66,6.66,0,0,1,2.15,1.44Z"/><path class="cls-1" d="M361.22,220.48a6.72,6.72,0,0,1,2.49.45,5.47,5.47,0,0,1,2,1.3,5.88,5.88,0,0,1,1.3,2.1,8.11,8.11,0,0,1,.46,2.85,1.74,1.74,0,0,1-.13.83.55.55,0,0,1-.5.2h-10a8.49,8.49,0,0,0,.38,2.47,5.07,5.07,0,0,0,1,1.76,3.89,3.89,0,0,0,1.48,1.05,5.09,5.09,0,0,0,1.92.34,5.77,5.77,0,0,0,1.71-.22,8.22,8.22,0,0,0,1.23-.5,8.91,8.91,0,0,0,.87-.5,1.16,1.16,0,0,1,.6-.23.59.59,0,0,1,.5.26l.74,1a5.28,5.28,0,0,1-1.17,1,6.81,6.81,0,0,1-1.46.71,9.68,9.68,0,0,1-1.6.43,10.28,10.28,0,0,1-1.64.14,7.67,7.67,0,0,1-2.87-.53,6.27,6.27,0,0,1-2.26-1.54,7,7,0,0,1-1.49-2.51,10.25,10.25,0,0,1-.53-3.43,8.79,8.79,0,0,1,.49-2.93,7,7,0,0,1,1.38-2.36,6.47,6.47,0,0,1,2.2-1.56A7.26,7.26,0,0,1,361.22,220.48Zm.06,1.94a4,4,0,0,0-3,1.1,5.12,5.12,0,0,0-1.36,3h8.15a5.59,5.59,0,0,0-.25-1.68,3.82,3.82,0,0,0-.74-1.31,3.4,3.4,0,0,0-1.19-.86A4.09,4.09,0,0,0,361.28,222.42Z"/><path class="cls-1" d="M384.69,223.18a.57.57,0,0,1-.54.33,1,1,0,0,1-.51-.16c-.18-.11-.41-.23-.68-.37a8,8,0,0,0-1-.37,4.78,4.78,0,0,0-1.33-.17,4,4,0,0,0-1.2.17,2.89,2.89,0,0,0-.91.47,2.23,2.23,0,0,0-.58.69,1.87,1.87,0,0,0-.2.85,1.39,1.39,0,0,0,.34,1,2.87,2.87,0,0,0,.87.67,8.15,8.15,0,0,0,1.25.49l1.42.46c.49.16,1,.34,1.43.54a4.91,4.91,0,0,1,1.24.74,3.23,3.23,0,0,1,.88,1.09,3.19,3.19,0,0,1,.34,1.54,5.05,5.05,0,0,1-.37,1.92,4.33,4.33,0,0,1-1.1,1.52,5.1,5.1,0,0,1-1.77,1,7.26,7.26,0,0,1-2.43.37,7.56,7.56,0,0,1-2.84-.51,7.18,7.18,0,0,1-2.16-1.3l.62-1a.73.73,0,0,1,.71-.4,1,1,0,0,1,.56.21q.3.21.72.45a5.43,5.43,0,0,0,1,.46,4.59,4.59,0,0,0,1.5.21,4.26,4.26,0,0,0,1.35-.2,2.79,2.79,0,0,0,1-.54,2.12,2.12,0,0,0,.57-.78,2.52,2.52,0,0,0,.19-1,1.6,1.6,0,0,0-.34-1,2.7,2.7,0,0,0-.88-.69,7.73,7.73,0,0,0-1.25-.51l-1.43-.45a12.49,12.49,0,0,1-1.44-.54,5.09,5.09,0,0,1-1.25-.76,3.55,3.55,0,0,1-.88-1.13,3.67,3.67,0,0,1-.33-1.63,3.92,3.92,0,0,1,.36-1.65,4,4,0,0,1,1-1.39,5.28,5.28,0,0,1,1.68-1,6.83,6.83,0,0,1,2.26-.35,7.15,7.15,0,0,1,2.65.46,6.26,6.26,0,0,1,2,1.28Z"/><path class="cls-1" d="M402.86,223.18a.58.58,0,0,1-.55.33,1,1,0,0,1-.5-.16l-.69-.37a7.37,7.37,0,0,0-1-.37,4.72,4.72,0,0,0-1.33-.17,4.09,4.09,0,0,0-1.2.17,3,3,0,0,0-.91.47,2.07,2.07,0,0,0-.57.69,1.75,1.75,0,0,0-.2.85,1.44,1.44,0,0,0,.33,1,2.8,2.8,0,0,0,.88.67,8,8,0,0,0,1.24.49l1.43.46c.49.16,1,.34,1.43.54a5.29,5.29,0,0,1,1.24.74,3.36,3.36,0,0,1,.88,1.09,3.31,3.31,0,0,1,.33,1.54,4.87,4.87,0,0,1-.37,1.92,4.21,4.21,0,0,1-1.1,1.52,5.1,5.1,0,0,1-1.77,1,7.22,7.22,0,0,1-2.43.37,7.6,7.6,0,0,1-2.84-.51,7,7,0,0,1-2.16-1.31l.63-1a.81.81,0,0,1,.28-.3.78.78,0,0,1,.43-.1,1,1,0,0,1,.56.21c.19.13.43.29.72.45a5.43,5.43,0,0,0,1,.46,4.51,4.51,0,0,0,1.5.21,4.15,4.15,0,0,0,1.34-.2,2.62,2.62,0,0,0,1-.54,2.12,2.12,0,0,0,.57-.78,2.34,2.34,0,0,0,.19-1,1.59,1.59,0,0,0-.33-1,2.93,2.93,0,0,0-.88-.69,8.12,8.12,0,0,0-1.25-.51l-1.44-.45a12.34,12.34,0,0,1-1.43-.54,4.75,4.75,0,0,1-1.25-.76,3.29,3.29,0,0,1-.88-1.13,3.67,3.67,0,0,1-.33-1.63,3.88,3.88,0,0,1,.35-1.65,4,4,0,0,1,1-1.39,5.12,5.12,0,0,1,1.67-1,6.83,6.83,0,0,1,2.26-.35,7.21,7.21,0,0,1,2.66.46,6.32,6.32,0,0,1,2,1.28Z"/><path class="cls-1" d="M416,216a1.73,1.73,0,0,1-.16.72,2,2,0,0,1-.41.59,2,2,0,0,1-.6.4,1.8,1.8,0,0,1-.73.15,1.71,1.71,0,0,1-.71-.15,1.86,1.86,0,0,1-.6-.4,2,2,0,0,1-.4-.59,1.72,1.72,0,0,1-.15-.72,1.8,1.8,0,0,1,.15-.73,2,2,0,0,1,.4-.61,2.06,2.06,0,0,1,.6-.41,1.87,1.87,0,0,1,.71-.14,2,2,0,0,1,.73.14,2.21,2.21,0,0,1,.6.41,2,2,0,0,1,.41.61A1.81,1.81,0,0,1,416,216Zm-.6,4.7v15h-2.63v-15Z"/><path class="cls-1" d="M425.34,235.7v-15h1.57a.68.68,0,0,1,.71.55l.21,1.63a8.61,8.61,0,0,1,2.18-1.75,5.7,5.7,0,0,1,2.79-.66,5.37,5.37,0,0,1,2.16.4,4.16,4.16,0,0,1,1.57,1.16,4.87,4.87,0,0,1,1,1.79,7.76,7.76,0,0,1,.33,2.33v9.54h-2.64v-9.54a4,4,0,0,0-.78-2.64,2.89,2.89,0,0,0-2.37-.94,4.34,4.34,0,0,0-2.18.56,7.19,7.19,0,0,0-1.88,1.52v11Z"/><path class="cls-1" d="M452.16,220.46a7.65,7.65,0,0,1,1.83.21,6.22,6.22,0,0,1,1.54.63h4.07v1c0,.32-.21.53-.62.62l-1.7.24a4.87,4.87,0,0,1,.08,4.13,4.53,4.53,0,0,1-1.17,1.53,5.2,5.2,0,0,1-1.78,1,7,7,0,0,1-2.25.34,7.41,7.41,0,0,1-2-.25,2.33,2.33,0,0,0-.72.66,1.14,1.14,0,0,0-.25.68.94.94,0,0,0,.43.84,3,3,0,0,0,1.14.4,9.7,9.7,0,0,0,1.61.12h1.84a10.16,10.16,0,0,1,1.84.17,5.61,5.61,0,0,1,1.62.54,3.06,3.06,0,0,1,1.14,1,3.14,3.14,0,0,1,.42,1.71,4,4,0,0,1-.48,1.89,5.13,5.13,0,0,1-1.38,1.62,7.36,7.36,0,0,1-2.2,1.14,9.6,9.6,0,0,1-2.95.42,11.32,11.32,0,0,1-2.88-.32,6.88,6.88,0,0,1-2-.87,3.76,3.76,0,0,1-1.22-1.27,3,3,0,0,1-.41-1.5,2.71,2.71,0,0,1,.7-1.89,4.85,4.85,0,0,1,1.93-1.24,2.59,2.59,0,0,1-1-.79,2.13,2.13,0,0,1-.38-1.32,2,2,0,0,1,.12-.67,2.59,2.59,0,0,1,.37-.69,3.61,3.61,0,0,1,.6-.65,3.76,3.76,0,0,1,.82-.54,4.66,4.66,0,0,1-1.73-1.65,4.53,4.53,0,0,1-.63-2.41,4.64,4.64,0,0,1,.42-2,4.37,4.37,0,0,1,1.18-1.52,5.41,5.41,0,0,1,1.79-1A7.28,7.28,0,0,1,452.16,220.46Zm4.67,16a1.3,1.3,0,0,0-.31-.92,2.08,2.08,0,0,0-.85-.54,5.63,5.63,0,0,0-1.22-.28,11.61,11.61,0,0,0-1.47-.09h-1.57a5.81,5.81,0,0,1-1.52-.2,4.34,4.34,0,0,0-1.37,1,2,2,0,0,0-.52,1.38,1.76,1.76,0,0,0,.26.94,2.12,2.12,0,0,0,.79.75,4.52,4.52,0,0,0,1.34.51,8.76,8.76,0,0,0,1.9.18,8.43,8.43,0,0,0,1.9-.19,5,5,0,0,0,1.43-.56,2.76,2.76,0,0,0,.9-.86A2,2,0,0,0,456.83,236.46Zm-4.67-8.09a4.09,4.09,0,0,0,1.41-.22,2.87,2.87,0,0,0,1-.62,2.65,2.65,0,0,0,.62-.95,3.43,3.43,0,0,0,.21-1.22,2.9,2.9,0,0,0-.84-2.19,4,4,0,0,0-4.85,0,2.9,2.9,0,0,0-.84,2.19,3.23,3.23,0,0,0,.22,1.22,2.55,2.55,0,0,0,.63.95,2.74,2.74,0,0,0,1,.62A3.94,3.94,0,0,0,452.16,228.37Z"/><path class="cls-1" d="M483.13,235.93a3.6,3.6,0,0,1-2.73-1,3.93,3.93,0,0,1-1-2.85v-9.17h-1.81a.63.63,0,0,1-.4-.14.55.55,0,0,1-.16-.44v-1.05l2.46-.31.61-4.63a.5.5,0,0,1,.19-.36.57.57,0,0,1,.41-.14h1.33V221h4.29v1.91h-4.29v9a1.88,1.88,0,0,0,.46,1.4,1.57,1.57,0,0,0,1.18.46,2,2,0,0,0,.72-.11,2.8,2.8,0,0,0,.52-.24,3.59,3.59,0,0,0,.38-.25.5.5,0,0,1,.27-.11.47.47,0,0,1,.37.25l.77,1.26a4.76,4.76,0,0,1-1.64,1A5.59,5.59,0,0,1,483.13,235.93Z"/><path class="cls-1" d="M494.94,235.7V213.91h2.63v8.81a8.06,8.06,0,0,1,2.13-1.63,5.71,5.71,0,0,1,2.69-.62,5.45,5.45,0,0,1,2.17.41,4.24,4.24,0,0,1,1.57,1.15,5.16,5.16,0,0,1,.95,1.8,7.74,7.74,0,0,1,.33,2.32v9.54h-2.63v-9.54a4,4,0,0,0-.77-2.64,2.93,2.93,0,0,0-2.38-.93,4.37,4.37,0,0,0-2.18.56,7.15,7.15,0,0,0-1.87,1.52v11Z"/><path class="cls-1" d="M522.65,220.47a6.53,6.53,0,0,1,2.49.46,5.47,5.47,0,0,1,2,1.3,5.71,5.71,0,0,1,1.3,2.1,8.1,8.1,0,0,1,.46,2.84,1.68,1.68,0,0,1-.13.83.55.55,0,0,1-.5.21h-10a8.49,8.49,0,0,0,.38,2.47,4.93,4.93,0,0,0,1,1.75,3.79,3.79,0,0,0,1.48,1,4.9,4.9,0,0,0,1.92.35,5.44,5.44,0,0,0,1.71-.23,8.27,8.27,0,0,0,1.23-.49,9.86,9.86,0,0,0,.87-.5,1.16,1.16,0,0,1,.6-.23.6.6,0,0,1,.5.25l.74,1a5,5,0,0,1-1.17,1,7.34,7.34,0,0,1-1.46.72,8.55,8.55,0,0,1-1.6.42,9.16,9.16,0,0,1-1.64.14,7.67,7.67,0,0,1-2.87-.52,6.4,6.4,0,0,1-2.26-1.54,7.08,7.08,0,0,1-1.48-2.51,10.08,10.08,0,0,1-.54-3.43,8.74,8.74,0,0,1,.49-2.93,6.93,6.93,0,0,1,1.38-2.36,6.44,6.44,0,0,1,2.21-1.57A7.18,7.18,0,0,1,522.65,220.47Zm.06,1.94a4.06,4.06,0,0,0-3,1.1,5.24,5.24,0,0,0-1.36,3.06h8.15a5.59,5.59,0,0,0-.25-1.68,3.87,3.87,0,0,0-.74-1.32,3.37,3.37,0,0,0-1.19-.85A3.92,3.92,0,0,0,522.71,222.41Z"/><path class="cls-1" d="M550.86,220.71v9.56a4,4,0,0,0,.78,2.63,2.92,2.92,0,0,0,2.37.93,4.46,4.46,0,0,0,2.17-.55,6.66,6.66,0,0,0,1.88-1.52v-11h2.63v15h-1.57a.67.67,0,0,1-.71-.54l-.2-1.61a8.2,8.2,0,0,1-2.19,1.73,5.74,5.74,0,0,1-2.78.66,5.46,5.46,0,0,1-2.17-.4,4.48,4.48,0,0,1-1.58-1.15,5,5,0,0,1-1-1.79,8.08,8.08,0,0,1-.32-2.32v-9.56Z"/><path class="cls-1" d="M570.35,235.69v-15h1.56a.66.66,0,0,1,.71.55l.21,1.62a8.36,8.36,0,0,1,2.18-1.74,5.65,5.65,0,0,1,2.79-.67,5.45,5.45,0,0,1,2.17.41,4.32,4.32,0,0,1,1.57,1.15,5.33,5.33,0,0,1,1,1.8,7.7,7.7,0,0,1,.32,2.32v9.54h-2.63v-9.54a4,4,0,0,0-.78-2.64,2.9,2.9,0,0,0-2.37-.94,4.45,4.45,0,0,0-2.18.56,7.23,7.23,0,0,0-1.87,1.53v11Z"/><path class="cls-1" d="M595.06,213.91v21.78h-2.63V213.91Z"/><path class="cls-1" d="M608.55,216a1.57,1.57,0,0,1-.16.71,2,2,0,0,1-.41.59,1.87,1.87,0,0,1-1.32.56,1.72,1.72,0,0,1-.72-.15,1.84,1.84,0,0,1-.59-.41,2,2,0,0,1-.41-.59,1.71,1.71,0,0,1-.15-.71,1.88,1.88,0,0,1,.15-.74,1.94,1.94,0,0,1,.41-.6,1.84,1.84,0,0,1,.59-.41,1.72,1.72,0,0,1,.72-.15,1.75,1.75,0,0,1,.72.15,1.78,1.78,0,0,1,.6.41,1.94,1.94,0,0,1,.41.6A1.73,1.73,0,0,1,608.55,216Zm-.59,4.7v15h-2.63v-15Z"/><path class="cls-1" d="M617.92,235.69v-15h1.56a.67.67,0,0,1,.71.55l.2,1.53a7.85,7.85,0,0,1,1.85-1.67,4.41,4.41,0,0,1,2.39-.65,3.49,3.49,0,0,1,2.46.85,4.75,4.75,0,0,1,1.36,2.27,4.5,4.5,0,0,1,.82-1.4,4.64,4.64,0,0,1,1.15-1,4.7,4.7,0,0,1,1.35-.56,5.94,5.94,0,0,1,1.45-.18,5.55,5.55,0,0,1,2.11.38,4.17,4.17,0,0,1,1.57,1.1,4.79,4.79,0,0,1,1,1.78,7.82,7.82,0,0,1,.34,2.42v9.54H635.6v-9.54a4.07,4.07,0,0,0-.77-2.67,2.75,2.75,0,0,0-2.23-.91,3.41,3.41,0,0,0-1.24.23,3.06,3.06,0,0,0-1,.67,3.24,3.24,0,0,0-.7,1.12,4.4,4.4,0,0,0-.26,1.56v9.54h-2.63v-9.54a4.21,4.21,0,0,0-.72-2.69,2.59,2.59,0,0,0-2.12-.89,3.35,3.35,0,0,0-1.81.53,5.7,5.7,0,0,0-1.53,1.43v11.16Z"/><path class="cls-1" d="M651.06,216a1.58,1.58,0,0,1-.16.72,2,2,0,0,1-.41.59,1.87,1.87,0,0,1-1.32.56,1.72,1.72,0,0,1-.72-.15,1.84,1.84,0,0,1-.59-.41,2,2,0,0,1-.41-.59,1.72,1.72,0,0,1-.15-.72,1.83,1.83,0,0,1,.15-.73,1.94,1.94,0,0,1,.41-.6,1.84,1.84,0,0,1,.59-.41,1.72,1.72,0,0,1,.72-.15,1.75,1.75,0,0,1,.72.15,1.78,1.78,0,0,1,.6.41,1.94,1.94,0,0,1,.41.6A1.69,1.69,0,0,1,651.06,216Zm-.59,4.71v15h-2.63v-15Z"/><path class="cls-1" d="M665,235.93a3.63,3.63,0,0,1-2.73-1,4,4,0,0,1-1-2.86v-9.17h-1.8a.61.61,0,0,1-.4-.14.54.54,0,0,1-.16-.44v-1.05l2.45-.31.61-4.63a.58.58,0,0,1,.19-.36.64.64,0,0,1,.42-.14h1.33V221h4.29v1.91h-4.28v9a1.92,1.92,0,0,0,.46,1.4,1.59,1.59,0,0,0,1.18.46,2.18,2.18,0,0,0,.72-.11,3.76,3.76,0,0,0,.53-.25c.14-.08.27-.17.37-.24a.56.56,0,0,1,.28-.11.45.45,0,0,1,.37.25l.77,1.26a5,5,0,0,1-1.65,1A5.59,5.59,0,0,1,665,235.93Z"/><path class="cls-1" d="M682.73,220.47a6.71,6.71,0,0,1,2.48.45,5.64,5.64,0,0,1,2,1.3,6,6,0,0,1,1.29,2.1,8.19,8.19,0,0,1,.47,2.85,1.68,1.68,0,0,1-.14.83.53.53,0,0,1-.5.21h-10a8.54,8.54,0,0,0,.38,2.47,5.18,5.18,0,0,0,1,1.75,3.86,3.86,0,0,0,1.48,1,5.09,5.09,0,0,0,1.92.35,5.75,5.75,0,0,0,1.71-.23,7.78,7.78,0,0,0,1.24-.5,8.76,8.76,0,0,0,.86-.49,1.16,1.16,0,0,1,.6-.23.55.55,0,0,1,.5.25l.74,1a4.66,4.66,0,0,1-1.17,1,7.54,7.54,0,0,1-1.45.72,9.77,9.77,0,0,1-1.61.42,10.18,10.18,0,0,1-1.64.14,7.58,7.58,0,0,1-2.86-.53,6.29,6.29,0,0,1-2.26-1.53,7,7,0,0,1-1.49-2.51,10.09,10.09,0,0,1-.53-3.43,8.74,8.74,0,0,1,.48-2.93,6.84,6.84,0,0,1,1.38-2.36A6.4,6.4,0,0,1,679.8,221,7.22,7.22,0,0,1,682.73,220.47Zm0,1.94a4.06,4.06,0,0,0-3,1.1,5.21,5.21,0,0,0-1.36,3.06h8.15a5.2,5.2,0,0,0-.25-1.68,3.71,3.71,0,0,0-.74-1.32,3.43,3.43,0,0,0-1.19-.86A4.06,4.06,0,0,0,682.78,222.41Z"/><path class="cls-1" d="M708.16,235.69a.67.67,0,0,1-.71-.55l-.23-1.82a8.13,8.13,0,0,1-2.2,1.88,5.71,5.71,0,0,1-2.83.7,5.42,5.42,0,0,1-2.34-.5,4.74,4.74,0,0,1-1.79-1.46,7,7,0,0,1-1.14-2.39,12.64,12.64,0,0,1-.4-3.3,10.19,10.19,0,0,1,.45-3.08,7.57,7.57,0,0,1,1.28-2.48,6.11,6.11,0,0,1,2-1.65,6,6,0,0,1,2.73-.6,5.15,5.15,0,0,1,4.09,1.78V213.9h2.63v21.79Zm-5.1-1.92a4.3,4.3,0,0,0,2.26-.59,6.51,6.51,0,0,0,1.78-1.68v-7.24a4.12,4.12,0,0,0-1.59-1.37,4.59,4.59,0,0,0-1.91-.39,3.79,3.79,0,0,0-3.23,1.49,7,7,0,0,0-1.12,4.26,10.74,10.74,0,0,0,.25,2.51,4.56,4.56,0,0,0,.74,1.71,2.9,2.9,0,0,0,1.19,1A4.19,4.19,0,0,0,703.06,233.77Z"/><path class="cls-2" d="M187.37,93.35a29.86,29.86,0,0,0-51-21.11L82.47,126.16a33.89,33.89,0,0,1,33.78,8.44h0l21.11,21.1,41.28-41.26A29.64,29.64,0,0,0,187.37,93.35Z"/><path class="cls-3" d="M243.76,179.61a29.85,29.85,0,0,0,0-42.22L189.88,83.54a33.87,33.87,0,0,1-8.46,33.7h0l-21.13,21.13,41.24,41.24A29.92,29.92,0,0,0,243.76,179.61Z"/><path class="cls-4" d="M71.23,179.61h0l53.88,53.86a33.81,33.81,0,0,1,8.46-33.71l21.13-21.13L113.46,137.4h0a29.85,29.85,0,0,0-42.22,42.22Z"/><path class="cls-5" d="M127.61,223.65a29.86,29.86,0,0,0,51,21.11l54-54a34.14,34.14,0,0,1-9.91,1.48,33.75,33.75,0,0,1-23.91-9.88l-21.11-21.11-41.27,41.26A29.65,29.65,0,0,0,127.61,223.65Z"/><path class="cls-1" d="M313.4,127.42A29.2,29.2,0,0,1,325,129.63a23.82,23.82,0,0,1,8.66,6.29,27.93,27.93,0,0,1,5.37,9.81,45.21,45.21,0,0,1,0,25.67,28.06,28.06,0,0,1-5.37,9.78,23.49,23.49,0,0,1-8.66,6.25,32,32,0,0,1-23.26,0,23.68,23.68,0,0,1-8.69-6.25,27.81,27.81,0,0,1-5.41-9.78,45.45,45.45,0,0,1,0-25.67,27.69,27.69,0,0,1,5.41-9.81,24,24,0,0,1,8.69-6.29A29.17,29.17,0,0,1,313.4,127.42Zm0,57.64a22.37,22.37,0,0,0,9.44-1.85,17.93,17.93,0,0,0,6.75-5.31,23.68,23.68,0,0,0,4-8.36,45.7,45.7,0,0,0,0-21.89,24,24,0,0,0-4-8.42,18,18,0,0,0-6.75-5.37,24.55,24.55,0,0,0-18.89,0,18,18,0,0,0-6.74,5.37,24.19,24.19,0,0,0-4.07,8.42,44.41,44.41,0,0,0,0,21.89,23.89,23.89,0,0,0,4.07,8.36,17.9,17.9,0,0,0,6.74,5.31A22.38,22.38,0,0,0,313.4,185.06Z"/><path class="cls-1" d="M356.46,188.83V128.39h3.16a1.65,1.65,0,0,1,1.83,1.52L362,139a33.87,33.87,0,0,1,9.63-8.41,23.91,23.91,0,0,1,12.24-3.19,22.59,22.59,0,0,1,8.78,1.58,16.21,16.21,0,0,1,6.29,4.55,20.25,20.25,0,0,1,3.76,7.17A32.5,32.5,0,0,1,404,150.2v38.63H398.2V150.2q0-8.5-3.89-13.34T382.4,132a21.1,21.1,0,0,0-11,3.07,32.37,32.37,0,0,0-9.12,8.41v45.32Z"/><path class="cls-1" d="M445.33,127.42a24.83,24.83,0,0,1,9.45,1.76,21.2,21.2,0,0,1,7.53,5.13,23.56,23.56,0,0,1,5,8.29,32.8,32.8,0,0,1,1.79,11.3,3,3,0,0,1-.39,1.82,1.49,1.49,0,0,1-1.24.49H423.83v1.15a40.75,40.75,0,0,0,1.58,12A24.58,24.58,0,0,0,429.9,178a18.55,18.55,0,0,0,7.05,5.25,23.19,23.19,0,0,0,9.23,1.76,27.6,27.6,0,0,0,7.9-1,29.53,29.53,0,0,0,5.62-2.25,31.7,31.7,0,0,0,3.61-2.24,4.11,4.11,0,0,1,1.95-1,1.4,1.4,0,0,1,1.21.61l1.58,1.94a16.52,16.52,0,0,1-3.86,3.41,27.81,27.81,0,0,1-5.34,2.7,38.45,38.45,0,0,1-6.32,1.79,34.46,34.46,0,0,1-6.77.67,28.7,28.7,0,0,1-11.3-2.16,24,24,0,0,1-8.76-6.28,29,29,0,0,1-5.65-10.12,43.24,43.24,0,0,1-2-13.7,37.17,37.17,0,0,1,1.85-12,27.49,27.49,0,0,1,5.35-9.48,24.34,24.34,0,0,1,8.56-6.23A28.27,28.27,0,0,1,445.33,127.42Zm.09,4.31a22.75,22.75,0,0,0-8.37,1.46,18.29,18.29,0,0,0-6.4,4.19,21.51,21.51,0,0,0-4.37,6.56,30.2,30.2,0,0,0-2.21,8.56h39.79a26.78,26.78,0,0,0-1.33-8.71,18.78,18.78,0,0,0-3.77-6.53,16.16,16.16,0,0,0-5.82-4.1A19.23,19.23,0,0,0,445.42,131.73Z"/><path class="cls-1" d="M527,139.69a7.5,7.5,0,0,1-1.3,1.33,3,3,0,0,1-1.86.49,4,4,0,0,1-2.24-.7c-.73-.46-1.6-1-2.62-1.58a19.42,19.42,0,0,0-3.61-1.58,16.78,16.78,0,0,0-5.19-.7,15.85,15.85,0,0,0-6.93,1.43,13.11,13.11,0,0,0-5,4.1,18.44,18.44,0,0,0-2.95,6.47,35.15,35.15,0,0,0-1,8.6,34,34,0,0,0,1.06,8.86,19,19,0,0,0,3.07,6.53,13.17,13.17,0,0,0,4.86,4,14.6,14.6,0,0,0,6.44,1.37,15.9,15.9,0,0,0,5.8-.88,18.31,18.31,0,0,0,3.74-1.94q1.51-1.06,2.64-1.95a4,4,0,0,1,2.52-.88,3,3,0,0,1,2.73,1.4l4.32,5.47a27.2,27.2,0,0,1-5.41,4.89,29,29,0,0,1-6,3.15,30.62,30.62,0,0,1-6.47,1.67,45.2,45.2,0,0,1-6.62.49,27.62,27.62,0,0,1-10.88-2.16,25.33,25.33,0,0,1-8.9-6.28,30.42,30.42,0,0,1-6-10.12A39,39,0,0,1,479,157.55a39.55,39.55,0,0,1,2-12.73,28.67,28.67,0,0,1,5.8-10.14,26.57,26.57,0,0,1,9.47-6.72,32.66,32.66,0,0,1,13-2.43,30.87,30.87,0,0,1,12.24,2.25,29.9,29.9,0,0,1,9.45,6.44Z"/><path class="cls-1" d="M554.67,98.56v90.27h-15V98.56Z"/><path class="cls-1" d="M587.41,108.34a8.53,8.53,0,0,1-.79,3.65,9.91,9.91,0,0,1-2.09,3,10.29,10.29,0,0,1-3.07,2,9.37,9.37,0,0,1-3.77.76A9,9,0,0,1,574,117a9.69,9.69,0,0,1-5-5,8.81,8.81,0,0,1-.76-3.65,9.33,9.33,0,0,1,.76-3.76,9.48,9.48,0,0,1,2-3,9.76,9.76,0,0,1,3-2,9.14,9.14,0,0,1,3.67-.76,9.55,9.55,0,0,1,3.77.76,10.29,10.29,0,0,1,3.07,2,9.63,9.63,0,0,1,2.09,3A9,9,0,0,1,587.41,108.34Zm-2.25,18.17v62.32h-15V126.51Z"/><path class="cls-1" d="M645.06,139.69a7.52,7.52,0,0,1-1.31,1.33,3,3,0,0,1-1.85.49,4.1,4.1,0,0,1-2.25-.7c-.73-.46-1.6-1-2.61-1.58a19.53,19.53,0,0,0-3.62-1.58,16.7,16.7,0,0,0-5.19-.7,15.84,15.84,0,0,0-6.92,1.43,13.14,13.14,0,0,0-5,4.1,18.61,18.61,0,0,0-2.94,6.47,34.67,34.67,0,0,0-1,8.6,33.58,33.58,0,0,0,1.06,8.86,18.84,18.84,0,0,0,3.07,6.53,13,13,0,0,0,4.86,4,14.6,14.6,0,0,0,6.44,1.37,15.94,15.94,0,0,0,5.8-.88,18.21,18.21,0,0,0,3.73-1.94c1-.71,1.9-1.36,2.65-1.95a4,4,0,0,1,2.52-.88,3.05,3.05,0,0,1,2.73,1.4l4.31,5.47a27.43,27.43,0,0,1-5.4,4.89,29.1,29.1,0,0,1-6.05,3.15,30.31,30.31,0,0,1-6.47,1.67,45,45,0,0,1-6.62.49,27.57,27.57,0,0,1-10.87-2.16,25.33,25.33,0,0,1-8.9-6.28,30.25,30.25,0,0,1-6-10.12,39,39,0,0,1-2.22-13.63,39.83,39.83,0,0,1,2-12.73,28.82,28.82,0,0,1,5.8-10.14,26.61,26.61,0,0,1,9.48-6.72,32.66,32.66,0,0,1,13-2.43,30.87,30.87,0,0,1,12.24,2.25,30.12,30.12,0,0,1,9.45,6.44Z"/><path class="cls-1" d="M673.55,98.56v51.7h2.79a5.31,5.31,0,0,0,2.37-.43,6.07,6.07,0,0,0,1.82-1.58L696,129.12a9.21,9.21,0,0,1,2.19-1.92,5.87,5.87,0,0,1,3-.69H715L695.6,149.65a27,27,0,0,1-2.13,2.34,14,14,0,0,1-2.37,1.85,11.37,11.37,0,0,1,2.25,2.13c.65.81,1.29,1.68,1.94,2.61l20.78,30.25H702.52a6.5,6.5,0,0,1-3-.61,5.74,5.74,0,0,1-2.19-2.06L681.5,162.53a4.85,4.85,0,0,0-1.82-1.83,6.83,6.83,0,0,0-2.73-.42h-3.4v28.55h-15V98.56Z"/><path class="cls-1" d="M737,98v3h-4.61v13.38h-3.81V101H724V98Z"/><path class="cls-1" d="M747.39,107.79c.14.3.27.62.4.94.12-.33.26-.65.4-1s.29-.62.44-.91l4.21-8.29a1.27,1.27,0,0,1,.23-.33.69.69,0,0,1,.26-.17.88.88,0,0,1,.33-.06H757v16.38h-3.35V105c0-.45,0-.95.07-1.48l-4.35,8.42a1.38,1.38,0,0,1-.54.6,1.56,1.56,0,0,1-.78.2h-.52a1.53,1.53,0,0,1-.78-.2,1.46,1.46,0,0,1-.55-.6l-4.36-8.43q0,.39.06.78c0,.26,0,.5,0,.71v9.43h-3.36V98h3.34a.88.88,0,0,1,.33.06.65.65,0,0,1,.27.17,2,2,0,0,1,.23.33L747,106.9C747.1,107.18,747.25,107.48,747.39,107.79Z"/></svg>