<svg width="74.1mm" height="14.7mm" version="1.1" viewBox="0 0 74.1 14.7" xmlns="http://www.w3.org/2000/svg">
 <g transform="matrix(.265 0 0 .265 -52.1 -117)">
  <g transform="matrix(1.25 0 0 -1.25 226 459)">
   <path d="m0 0c0 2.63-2.13 4.83-4.71 4.83h-10.5v-9.59h10.5c2.57 0 4.71 2.19 4.71 4.76m-4.71 13.1c7.08 0 13-5.89 13-13.1 0-7.14-5.89-13-13-13h-10.5v-17.7h-8.28v43.9z" fill="#2d2c2e"/>
  </g>
  <g transform="matrix(1.25 0 0 -1.25 272 475)">
   <path d="m0 0-5.77 15.5-5.77-15.5zm3.13-8.34h-17.8l-3.51-9.34h-8.78l16.4 43.9h9.52l16.4-43.9h-8.78z" fill="#2d2c2e"/>
  </g>
  <g transform="matrix(1.25 0 0 -1.25 334 459)">
   <path d="m0 0c0 2.63-2.13 4.83-4.71 4.83h-10.5v-9.59h10.5c2.57 0 4.71 2.19 4.71 4.76m-4.71 13.1c7.09 0 13-5.89 13-13.1 0-7.14-5.89-13-13-13h-10.5v-17.7h-8.28v43.9z" fill="#2d2c2e"/>
  </g>
  <g transform="matrix(1.25 0 0 -1.25 369 453)">
   <path d="m0 0v-27.3h3.14v-8.27h-14.5v8.27h3.07v27.3h-3.07v8.27h14.5v-8.27z" fill="#2d2c2e"/>
  </g>
  <g transform="matrix(1.25 0 0 -1.25 440 497)">
   <path d="m0 0v43.9h8.27l13.2-25.6v25.6h8.27v-43.9h-8.27l-13.2 24.3v-24.3z" fill="#2d2c2e"/>
  </g>
  <g transform="matrix(1.25 0 0 -1.25 398 460)">
   <path d="m0 0c0-3.44 2.83-6.12 6.13-6.12 3.44 0 6.12 2.69 6.12 6.12 0 3.37-2.68 6.12-6.12 6.12-3.3 0-6.13-2.76-6.13-6.12m-8.14 0c0 7.81 6.4 14.3 14.3 14.3 7.94 0 14.3-6.46 14.3-14.3 0-7.94-6.4-14.3-14.3-14.3-7.88 0-14.3 6.4-14.3 14.3" fill="#2d2c2e"/>
  </g>
  <g transform="matrix(1.25 0 0 -1.25 406 489)">
   <path d="m0 0-13.8 1.87v-8.27l13.8 1.83 13.8-1.83v8.27z" fill="#2d2c2e"/>
  </g>
 </g>
</svg>
