<svg height="80" width="197" xmlns="http://www.w3.org/2000/svg" viewBox="0 0 197 80" fill-rule="nonzero"><path d="M32.728 65.483h-7.17v3.3H31.9v1.993h-6.354v3.404h7.262v1.992h-9.5v-12.68h9.4zm15.116 10.685h-4.726V63.492h4.726c3.983 0 6.736 2.735 6.736 6.32s-2.753 6.356-6.736 6.356zm0-10.648h-2.5v8.62h2.5c2.66 0 4.4-1.793 4.4-4.3s-1.738-4.328-4.4-4.328zm27.616 5.16c0 3.788-2.136 5.687-5.45 5.687s-5.397-1.9-5.397-5.578v-7.297h2.225v7.2c0 2.355 1.213 3.622 3.205 3.622s3.187-1.195 3.187-3.53v-7.3h2.228l.002 7.188zm16.517 5.705c-3.694 0-6.447-2.88-6.447-6.537 0-3.622 2.698-6.574 6.537-6.574 2.336 0 3.75.815 4.962 1.975l-1.43 1.647c-1.014-.94-2.1-1.575-3.544-1.575-2.427 0-4.183 1.992-4.183 4.5s1.756 4.52 4.183 4.52c1.558 0 2.554-.634 3.64-1.648l1.43 1.45c-1.328 1.38-2.777 2.252-5.15 2.252zm27.15-.217h-2.355l-1.285-3.06H109.5l-1.304 3.06h-2.3l5.578-12.766h2.064l5.578 12.766zm-6.646-10.105l-2.174 5.07h4.365l-2.2-5.07zm14.965 3.785c0-3.622 2.698-6.574 6.536-6.574 2.336 0 3.75.815 4.962 1.975l-1.43 1.647c-1.014-.94-2.1-1.575-3.544-1.575-2.427 0-4.184 1.992-4.184 4.5s1.757 4.52 4.184 4.52c1.557 0 2.553-.634 3.64-1.648l1.43 1.45c-1.232 1.285-2.6 2.137-4.745 2.228l-1.194 2.79-1.9-.797 1.43-2.1c-3.05-.555-5.183-3.182-5.183-6.404zm33.592 6.32h-2.353l-1.285-3.06h-5.995l-1.304 3.06h-2.28l5.577-12.766h2.065l5.577 12.766zM155.82 62.44c-.996 0-1.955-.723-2.608-.723-.525 0-.725.3-.996.905l-1.213-.367c.398-1.466.924-2.263 2.028-2.263.996 0 1.955.723 2.608.723.525 0 .725-.3.996-.904l1.213.38c-.398 1.453-.924 2.248-2.028 2.248zm-1.43 3.622l-2.173 5.07h4.365l-2.192-5.07zm21.565 10.323c-3.894 0-6.6-2.952-6.6-6.537s2.753-6.574 6.646-6.574 6.6 2.952 6.6 6.537-2.752 6.574-6.645 6.574zm0-11.064c-2.517 0-4.277 2-4.277 4.5s1.793 4.52 4.3 4.52 4.277-2 4.277-4.5-1.793-4.52-4.3-4.52zm-63.123-53.48c2.542 0 4.863.44 6.965 1.32a16.28 16.28 0 0 1 5.39 3.594 15.77 15.77 0 0 1 3.447 5.353 17.89 17.89 0 0 1 1.21 6.598 20.31 20.31 0 0 1-.22 3.007l-.44 2.42h-25.518c.635 2.348 1.857 4.132 3.666 5.353s4.033 1.832 6.673 1.833a14.2 14.2 0 0 0 5.4-1c1.685-.686 3.274-1.585 4.73-2.676l4.032 6.746c-1.998 1.678-4.25 3.028-6.673 3.997-2.396.953-4.987 1.43-7.774 1.43-2.885 0-5.55-.5-7.993-1.466-2.348-.915-4.5-2.285-6.306-4.032a18.71 18.71 0 0 1-4.143-6.013c-1.003-2.297-1.504-4.8-1.503-7.48s.5-5.183 1.466-7.48c1.9-4.55 5.525-8.164 10.083-10.047 2.382-1 4.94-1.488 7.518-1.466zm-.367 7.994c-2.152 0-4 .648-5.573 1.943s-2.64 3.092-3.227 5.4h16.646c-.098-2.347-.904-4.156-2.42-5.426s-3.324-1.906-5.426-1.906zM79.7 12.646V33.77c0 2.163-.66 3.845-1.98 5.1s-2.933 1.87-4.84 1.87c-1.955 0-3.593-.623-4.913-1.87s-1.98-2.945-1.98-5.097v-21.12H56.17V35.57c0 7.166 4.913 14.333 14.008 14.333 5.743 0 9.53-5.154 9.53-5.154v4.195h9.827v-36.3H79.7zm73.968-.44c1.222 0 2.273.147 3.153.44v8.727h-2.64c-2.836 0-5.158.758-6.965 2.273s-2.7 3.9-2.714 7.186v18.114h-9.897v-36.3h9.093v4.327a12.06 12.06 0 0 1 4.399-3.557 12.9 12.9 0 0 1 5.571-1.21zm23.542-.366a19.89 19.89 0 0 1 13.787 5.463c1.77 1.7 3.2 3.73 4.18 5.976 1.026 2.3 1.54 4.792 1.54 7.48a18.38 18.38 0 0 1-1.54 7.517c-.983 2.26-2.404 4.304-4.18 6.013a20.06 20.06 0 0 1-27.572 0 18.23 18.23 0 0 1-4.143-6.013 18.76 18.76 0 0 1-1.503-7.517c0-2.688.5-5.18 1.503-7.48a18.34 18.34 0 0 1 4.143-5.976 19.86 19.86 0 0 1 6.166-3.997c2.342-.978 4.882-1.467 7.62-1.467zm0 9.02c-2.786 0-5.047.94-6.783 2.823s-2.603 4.265-2.603 7.15.868 5.245 2.603 7.077 3.996 2.748 6.783 2.75c1.272.01 2.532-.24 3.704-.733a8.74 8.74 0 0 0 2.97-2.053 9.99 9.99 0 0 0 1.979-3.117c.498-1.248.747-2.58.733-3.924a10.63 10.63 0 0 0-.733-3.96 9.89 9.89 0 0 0-1.98-3.154 9.21 9.21 0 0 0-2.97-2.09 8.97 8.97 0 0 0-3.704-.77h0zM53.186 50.998l-7.53-9.82a25.58 25.58 0 0 0 3.805-6.166c1.345-3.054 2.017-6.366 2.016-9.935s-.673-6.882-2.016-9.937c-1.296-2.986-3.164-5.7-5.5-7.957a25.44 25.44 0 0 0-8.142-5.277C32.718.635 29.382 0 25.813 0h-.147c-3.57 0-6.905.635-10 1.906a25.45 25.45 0 0 0-8.14 5.28 24.95 24.95 0 0 0-5.499 7.957C.672 18.2 0 21.512 0 25.08s.672 6.88 2.016 9.935a25.16 25.16 0 0 0 5.463 7.957c1.7 1.67 3.655 3.08 5.775 4.183l5.2-7.798c-1.447-.715-2.768-1.66-3.9-2.8a14.31 14.31 0 0 1-3.227-5.023c-.758-1.955-1.137-4.106-1.136-6.453s.38-4.486 1.136-6.417c1.448-3.778 4.394-6.8 8.14-8.322 1.882-.782 3.972-1.173 6.27-1.173s4.4.4 6.277 1.173a14.67 14.67 0 0 1 8.14 8.322c.758 1.933 1.137 4.072 1.136 6.417s-.38 4.496-1.136 6.453a14.18 14.18 0 0 1-3.226 5.023 14.83 14.83 0 0 1-3.91 2.799L46.1 56.428l7.077-5.43z" fill="#304ffe"/><circle fill="#30b0ff" cx="25.638" cy="45.064" r="5.486"/></svg>
