<svg xmlns="http://www.w3.org/2000/svg" width="400" height="100" fill="none"><path fill="url(#a)" d="M36.729 98.776a4.97 4.97 0 0 0 5.742 0C43.976 97.7 79.343 72.169 79.2 40.29 79.2 18.455 61.434.689 39.6.689 17.766.689 0 18.455 0 40.27c-.143 31.9 35.224 57.431 36.73 58.506Z"/><path fill="#00ADBB" fill-rule="evenodd" d="M58 25.439H24.207c-1.866 0-3.38 1.266-3.38 2.828v19.8l-8.11 9.051c-.835.933-.04 2.263 1.352 2.263h7.134l-3.041 3.395c-.836.932-.04 2.262 1.352 2.262h38.464c1.28 0 2.45-.605 3.023-1.563l5.825-9.75v-19.8c0-1.563-1.513-2.83-3.38-2.83H61.38v-2.828c0-1.562-1.513-2.828-3.38-2.828Zm3.38 5.657H29.651c-1.866 0-3.38 1.266-3.38 2.828v19.8l-5.069 5.657h31.33c1.28 0 2.45-.605 3.023-1.563l5.825-9.751V31.096Z" clip-rule="evenodd" style="mix-blend-mode:multiply"/><path fill="#004E5E" fill-rule="evenodd" d="M61.38 31.097v16.971l-5.825 9.75c-.573.959-1.743 1.564-3.023 1.564h-31.33l5.07-5.657v-19.8c0-1.562 1.512-2.828 3.379-2.828H61.38Z" clip-rule="evenodd"/><path fill="#004E5E" d="m115.855 66.895-6.534-11.385h-3.762v11.385h-7.92v-34.65h13.86c3.3 0 6.105 1.155 8.415 3.465 2.31 2.31 3.465 5.115 3.465 8.415 0 2.112-.594 4.075-1.782 5.89-1.155 1.782-2.69 3.168-4.604 4.158l7.376 12.722h-8.514ZM105.559 39.67v8.91h5.94c1.089 0 2.013-.43 2.772-1.287.792-.858 1.188-1.914 1.188-3.168 0-1.254-.396-2.31-1.188-3.168-.759-.858-1.683-1.287-2.772-1.287h-5.94Zm27.662 17.82c.858 2.31 2.838 3.465 5.94 3.465 2.013 0 3.597-.627 4.752-1.881l5.94 3.415c-2.442 3.4-6.039 5.099-10.791 5.099-4.158 0-7.491-1.238-9.999-3.713-2.475-2.475-3.712-5.593-3.712-9.355 0-3.73 1.221-6.831 3.663-9.306 2.475-2.508 5.643-3.762 9.504-3.762 3.597 0 6.583 1.254 8.959 3.762 2.409 2.475 3.614 5.577 3.614 9.306a14.16 14.16 0 0 1-.297 2.97h-17.573Zm-.148-5.544h10.642c-.726-2.607-2.475-3.91-5.247-3.91-2.871 0-4.669 1.303-5.395 3.91Zm49.949-10.494c2.838 0 5.115.94 6.831 2.821 1.716 1.848 2.574 4.323 2.574 7.425v15.197h-7.425V52.342c0-1.254-.313-2.244-.94-2.97-.594-.726-1.469-1.09-2.624-1.09-1.221 0-2.178.413-2.871 1.238-.66.825-.99 1.964-.99 3.416v13.959h-7.425V52.342c0-1.254-.313-2.244-.94-2.97-.594-.726-1.469-1.09-2.624-1.09-1.221 0-2.178.413-2.871 1.238-.66.825-.99 1.964-.99 3.416v13.959h-7.425v-24.75h7.425v2.277c1.353-1.98 3.564-2.97 6.633-2.97 2.871 0 5.033 1.089 6.485 3.267 1.518-2.178 3.91-3.267 7.177-3.267Zm35.667 22.374c-2.541 2.508-5.643 3.762-9.306 3.762-3.663 0-6.765-1.254-9.306-3.762-2.541-2.541-3.812-5.643-3.812-9.306 0-3.663 1.271-6.749 3.812-9.257 2.541-2.54 5.643-3.811 9.306-3.811 3.663 0 6.765 1.27 9.306 3.811 2.541 2.508 3.811 5.594 3.811 9.257 0 3.663-1.27 6.765-3.811 9.306Zm-13.365-5.099c1.089 1.09 2.442 1.634 4.059 1.634s2.97-.545 4.059-1.634 1.633-2.491 1.633-4.207c0-1.716-.544-3.119-1.633-4.208S211 48.68 209.383 48.68s-2.97.544-4.059 1.633c-1.089 1.09-1.634 2.492-1.634 4.208 0 1.716.545 3.118 1.634 4.207Zm35.396-9.454h-5.098v8.761c0 .99.396 1.617 1.188 1.881.792.264 2.095.347 3.91.248v6.732c-4.719.495-7.986.05-9.801-1.337-1.815-1.419-2.722-3.927-2.722-7.524v-8.761h-3.96v-7.128h3.96v-4.703h7.425v4.703h5.098v7.128Zm10.354 8.217c.858 2.31 2.838 3.465 5.94 3.465 2.013 0 3.597-.627 4.752-1.881l5.94 3.415c-2.442 3.4-6.039 5.099-10.791 5.099-4.158 0-7.491-1.238-9.999-3.713-2.475-2.475-3.713-5.593-3.713-9.355 0-3.73 1.221-6.831 3.663-9.306 2.475-2.508 5.643-3.762 9.504-3.762 3.597 0 6.584 1.254 8.96 3.762 2.409 2.475 3.613 5.577 3.613 9.306a14.16 14.16 0 0 1-.297 2.97h-17.572Zm-.149-5.544h10.643c-.726-2.607-2.475-3.91-5.247-3.91-2.871 0-4.67 1.303-5.396 3.91Zm33.638 15.642c-3.531 0-6.485-.76-8.861-2.277-2.343-1.551-4.009-3.647-4.999-6.287l6.831-3.96c1.386 3.201 3.811 4.802 7.276 4.802 3.135 0 4.703-.94 4.703-2.822 0-1.023-.512-1.815-1.535-2.376-.99-.594-2.871-1.27-5.643-2.03-1.452-.395-2.722-.84-3.811-1.336a17.32 17.32 0 0 1-3.218-1.93 8.376 8.376 0 0 1-2.376-3.07c-.528-1.22-.792-2.623-.792-4.207 0-3.2 1.139-5.758 3.416-7.672 2.31-1.914 5.049-2.871 8.217-2.871 2.838 0 5.346.676 7.524 2.03 2.178 1.32 3.894 3.25 5.148 5.79l-6.683 3.911c-.627-1.32-1.402-2.31-2.326-2.97-.924-.693-2.145-1.04-3.663-1.04-1.188 0-2.112.265-2.772.793-.627.495-.941 1.105-.941 1.831 0 .858.396 1.6 1.188 2.228.825.627 2.508 1.32 5.049 2.079 1.386.429 2.459.775 3.218 1.04.759.263 1.716.709 2.871 1.336 1.188.594 2.079 1.237 2.673 1.93.627.66 1.171 1.551 1.633 2.673.495 1.09.743 2.343.743 3.762 0 3.3-1.188 5.907-3.564 7.821-2.376 1.881-5.478 2.822-9.306 2.822Zm29.185 0c-3.762 0-6.897-1.254-9.405-3.762-2.475-2.508-3.712-5.61-3.712-9.306 0-3.696 1.237-6.798 3.712-9.306 2.508-2.508 5.643-3.762 9.405-3.762 2.376 0 4.554.577 6.534 1.732 2.013 1.155 3.564 2.69 4.653 4.604l-6.484 3.762c-.891-1.848-2.492-2.772-4.802-2.772-1.617 0-2.953.544-4.009 1.633-1.056 1.056-1.584 2.426-1.584 4.109 0 1.683.528 3.069 1.584 4.158 1.056 1.056 2.392 1.584 4.009 1.584 2.343 0 3.944-.924 4.802-2.772l6.484 3.712c-1.089 1.947-2.623 3.498-4.603 4.653-1.98 1.155-4.175 1.733-6.584 1.733Zm34.878-3.762c-2.541 2.508-5.643 3.762-9.306 3.762-3.663 0-6.765-1.254-9.306-3.762-2.541-2.541-3.811-5.643-3.811-9.306 0-3.663 1.27-6.749 3.811-9.257 2.541-2.54 5.643-3.811 9.306-3.811 3.663 0 6.765 1.27 9.306 3.811 2.541 2.508 3.812 5.594 3.812 9.257 0 3.663-1.271 6.765-3.812 9.306Zm-13.365-5.099c1.089 1.09 2.442 1.634 4.059 1.634s2.97-.545 4.059-1.634 1.634-2.491 1.634-4.207c0-1.716-.545-3.119-1.634-4.208s-2.442-1.633-4.059-1.633-2.97.544-4.059 1.633c-1.089 1.09-1.633 2.492-1.633 4.208 0 1.716.544 3.118 1.633 4.207Zm37.365-16.582h7.425v24.75h-7.425v-2.327c-1.485 2.013-3.845 3.02-7.079 3.02-2.64 0-4.851-.908-6.633-2.723-1.749-1.815-2.623-4.323-2.623-7.524V42.145h7.425v14.107c0 1.452.396 2.574 1.188 3.366.825.76 1.864 1.139 3.118 1.139 1.419 0 2.541-.43 3.366-1.287.825-.858 1.238-2.129 1.238-3.812V42.145ZM400 49.273h-5.099v8.761c0 .99.396 1.617 1.188 1.881.792.264 2.096.347 3.911.248v6.732c-4.719.495-7.986.05-9.801-1.337-1.815-1.419-2.723-3.927-2.723-7.524v-8.761h-3.96v-7.128h3.96v-4.703h7.425v4.703H400v7.128Z"/><defs><linearGradient id="a" x1="39.6" x2="39.6" y1=".689" y2="99.689" gradientUnits="userSpaceOnUse"><stop stop-color="#E0FDE1"/><stop offset="1" stop-color="#DAF9F7"/></linearGradient></defs></svg>