<svg xmlns="http://www.w3.org/2000/svg" width="602.95" height="142" viewBox="0 0 602.95 142">
  <title>retraced</title>
  <desc>retraced - Sustainability management platform</desc>
  <g>
      <path d="M429.92,106.4a25.56,25.56,0,0,1-10.06-10A28.59,28.59,0,0,1,416.21,82a28.33,28.33,0,0,1,3.65-14.39,25.67,25.67,0,0,1,10.06-9.9,29.46,29.46,0,0,1,14.54-3.55,28.19,28.19,0,0,1,12.67,2.76A21.08,21.08,0,0,1,465.94,65l-5.53,3.76a17.21,17.21,0,0,0-6.88-6.1,20.35,20.35,0,0,0-9.07-2,21.54,21.54,0,0,0-10.69,2.66,18.83,18.83,0,0,0-7.4,7.56A23.07,23.07,0,0,0,423.71,82a23,23,0,0,0,2.66,11.21,18.9,18.9,0,0,0,7.4,7.51c3.17,1.77,6.83,1.91,10.8,1.91,3.26,0,6.18.09,9-1.24a16.83,16.83,0,0,0,6.88-6l5.53,3.75a20.91,20.91,0,0,1-8.86,8.08,28.31,28.31,0,0,1-12.62,2.76A29.56,29.56,0,0,1,429.92,106.4Z"/><path class="cls-1" d="M281.5,106.09a14.12,14.12,0,0,1-5.11,2.86,20.35,20.35,0,0,1-6.36,1q-7.72,0-11.89-4.17T254,94V42.59h7L261.37,54H278v7.12H261.37V93.57c0,3.27.51,5.83,2.11,7.53s4.39,1.91,7.45,1.91c3.33,0,5.87-.36,8-2.24Z"/><path class="cls-1" d="M155.49,57a26.36,26.36,0,0,1,12.77-2.82v8.32l-1.77-.1c-5.77,0-10.29.64-13.55,4.19S148,75.08,148,81.48l.61,27.94h-8V54h6.45l.64,11.33A17.9,17.9,0,0,1,155.49,57Z"/><path class="cls-1" d="M224.64,95.47a19,19,0,0,0,5.17-7.15l5.28,3.17a22.8,22.8,0,0,1-6.37,8.87,29.35,29.35,0,0,1-10.37,5.71,29.79,29.79,0,0,1-14.93,1.18,25,25,0,0,1-12.4-6.12A27.43,27.43,0,0,1,183.34,89a28.37,28.37,0,0,1-1.09-14.31,24.33,24.33,0,0,1,5.93-12A26.66,26.66,0,0,1,200,55.15a25.54,25.54,0,0,1,13.17-.87A24.34,24.34,0,0,1,224.6,60a27,27,0,0,1,7.48,11.4L193.16,93a18,18,0,0,0,10,7.13,21.65,21.65,0,0,0,13.21-.41A23.55,23.55,0,0,0,224.64,95.47ZM193.23,66.55a18,18,0,0,0-4.32,9,22,22,0,0,0,.91,10.82,17.24,17.24,0,0,0,.78,2.08L224,69.88a18.4,18.4,0,0,0-9.26-8.52A17.81,17.81,0,0,0,201.91,61,19.29,19.29,0,0,0,193.23,66.55Z"/><path class="cls-1" d="M315,57a26.33,26.33,0,0,1,12.77-2.82v7.2L326,61.25q-8.65,0-13.56,5.32t-4.9,14.91l.61,27.94h-8V54h6.45l.64,11.32A17.9,17.9,0,0,1,315,57Z"/><path class="cls-1" d="M395.88,54.09v55.33h-7.69l.6-10.84A22.6,22.6,0,0,1,380,107a25.74,25.74,0,0,1-12.35,2.92,27.85,27.85,0,0,1-14-3.54,25.31,25.31,0,0,1-9.8-9.91A29.19,29.19,0,0,1,340.3,82a29.19,29.19,0,0,1,3.55-14.49,25,25,0,0,1,9.8-9.86,28.12,28.12,0,0,1,14-3.49,25.94,25.94,0,0,1,12,2.76A22.89,22.89,0,0,1,388.47,65l.65-10.91ZM378.62,100c3.09-1.77,5.53-3.55,7.3-6.81a24.74,24.74,0,0,0,0-22.32,19,19,0,0,0-7.3-7.56,21.76,21.76,0,0,0-20.85,0,18.92,18.92,0,0,0-7.3,7.56,24.74,24.74,0,0,0,0,22.32c1.77,3.26,4.2,5,7.3,6.81a21.76,21.76,0,0,0,20.85,0Z"/><path class="cls-1" d="M523.06,97a19.53,19.53,0,0,0,5.33-7.38l5.45,3.27a23.59,23.59,0,0,1-6.57,9.15,30.27,30.27,0,0,1-10.69,5.89,30.72,30.72,0,0,1-15.39,1.22,25.85,25.85,0,0,1-12.8-6.31,28.49,28.49,0,0,1-7.92-12.56,29.36,29.36,0,0,1-1.12-14.76,25.13,25.13,0,0,1,6.11-12.4,27.46,27.46,0,0,1,12.19-7.69,26.27,26.27,0,0,1,13.58-.91A25.12,25.12,0,0,1,523,60.42a27.82,27.82,0,0,1,7.71,11.75L490.6,94.42A19.4,19.4,0,0,0,501,102.05a22.37,22.37,0,0,0,13.62-.43A24.07,24.07,0,0,0,523.06,97ZM490.67,67.15a18.7,18.7,0,0,0-4.45,9.23,22.49,22.49,0,0,0,.94,11.15,19.14,19.14,0,0,0,.8,2.15l34.47-19.09a19,19,0,0,0-9.54-8.8,18.45,18.45,0,0,0-13.27-.34A19.91,19.91,0,0,0,490.67,67.15Z"/><path class="cls-1" d="M603,32.06v77.36h-7.73l.64-10.84a22.58,22.58,0,0,1-8.81,8.44,25.81,25.81,0,0,1-12.36,2.92,27.87,27.87,0,0,1-14-3.54,25.31,25.31,0,0,1-9.8-9.91A29.19,29.19,0,0,1,547.37,82a29.19,29.19,0,0,1,3.55-14.49,25,25,0,0,1,9.8-9.86,28.15,28.15,0,0,1,14-3.49,25.94,25.94,0,0,1,12,2.76A22.89,22.89,0,0,1,595.54,65L596,32.06ZM585.59,100c3.09-1.77,5.63-3.55,7.4-6.81a24.74,24.74,0,0,0,0-22.32,19,19,0,0,0-7.3-7.56,21.76,21.76,0,0,0-20.85,0,18.92,18.92,0,0,0-7.3,7.56,24.74,24.74,0,0,0,0,22.32c1.77,3.26,4.1,5,7.19,6.81a21.78,21.78,0,0,0,20.86,0Z"/><path class="cls-1" d="M57.66,142l-5.36-5.06c22.94-24.28,50.29-58.2,50.29-82A47.61,47.61,0,0,0,7.37,55c0,21.8,20,48.34,29.62,60.36l12.9-12.91c-13.67-16.83-20.6-29.3-20.6-37.07,0-14.43,11.53-26.17,25.69-26.17,13.92,0,25.68,12,25.68,26.17,0,12.37-19,35.73-23.07,39.8L36.42,126.34l-2.57-3.17C0,81.6,0,61.56,0,55a55,55,0,0,1,110,0C110,76,92.36,105.28,57.66,142ZM55,46.57c-9.93,0-18.31,8.6-18.31,18.79C36.67,68.08,38.49,76.54,55,97c6.61-7.82,18.28-24.49,18.28-31.68C73.29,55.35,64.73,46.57,55,46.57Z"/>
  </g>
  </svg>
