<svg xmlns="http://www.w3.org/2000/svg" width="426" height="129" viewBox="0 0 319 96"><g fill="rgb(0%,58.431373%,84.705882%)"><path d="M152.02 51.848c-.707 6.746-1.187 5.492-2.176 9.422-.562 2.254-3.617 4.637-6.137 6.434-3.574-.027-10.008-6.53-10.008-6.53 13.414-1.457 18.32-9.324 18.32-9.324zm0 0" stroke="rgb(0%,58.431373%,84.705882%)" stroke-width=".166"/><path d="M133.996 39.31c4.543 1.19 12.852-1.426 18.637-4.395-1.422 2.05-3.664 10.715-20.94 16.238-5.7 1.82-8.555-1.8-12.25-30.785-1.234-9.687 54.977-22.598 55.98-20.04 3.56 9.098-1.648 44.723.863 50.43 3.277 7.45-16.13 44.504-34.945 45.34-3.773-3.004-5.988-14.758-4.543-17.578 6.227 9.488 9.824 9.902 13.81 3.84 2.93-4.46 19.488-10.223 15.48-38.863-2.246-16.047 3.04-13.594-1.71-28.336-15.145-3.336-35.19 6.93-36.117 10.52 1.13 6.586 3.72 11.13 5.738 13.63zm0 0"/></g><path d="M0 67.102V40.75h1.324c.3.004.516.066.648.188s.203.34.227.637l.2 5.563c.848-2.137 1.977-3.8 3.4-5.02s3.148-1.812 5.215-1.812a9.03 9.03 0 0 1 2.195.25c.672.168 1.3.414 1.9.727l-.348 1.75c-.05.285-.23.426-.527.422-.105.004-.258-.03-.45-.105l-.73-.234c-.293-.086-.648-.168-1.07-.242-.426-.066-.914-.105-1.457-.105-1.996 0-3.633.62-4.914 1.855s-2.316 3.02-3.1 5.348v17.133zM22.852 40.75v16.848c-.004 2.473.563 4.4 1.7 5.813s2.86 2.105 5.184 2.105a9.32 9.32 0 0 0 4.805-1.312c1.49-.875 2.828-2.086 4.016-3.64V40.75h2.516v26.352h-1.387c-.488 0-.742-.227-.758-.687l-.242-3.918c-1.223 1.52-2.63 2.738-4.23 3.656s-3.38 1.375-5.34 1.375c-1.473 0-2.75-.227-3.848-.687s-2.008-1.12-2.73-1.988-1.273-1.906-1.645-3.125-.555-2.594-.555-4.13V40.75zM49.65 67.102V40.75h1.38c.457.004.723.223.793.668l.238 3.97c1.2-1.516 2.598-2.738 4.195-3.668s3.38-1.4 5.34-1.4c1.445 0 2.72.23 3.824.7s2.016 1.12 2.742 1.984c.72.867 1.27 1.906 1.64 3.125s.555 2.598.555 4.133v16.84h-2.512v-16.84c-.004-2.473-.566-4.406-1.7-5.812s-2.86-2.105-5.187-2.105a9.23 9.23 0 0 0-4.82 1.336c-1.484.895-2.8 2.117-3.973 3.668v19.754zM88.235 40.33c1.477 0 2.852.258 4.113.77a9.38 9.38 0 0 1 3.285 2.238c.926.98 1.648 2.188 2.168 3.613.523 1.434.785 3.074.785 4.926 0 .4-.06.656-.172.797s-.297.2-.543.2H78.86v.504c-.004 1.977.227 3.715.688 5.215s1.1 2.762 1.957 3.777 1.87 1.777 3.07 2.3 2.543.766 4.027.766c1.324 0 2.473-.145 3.44-.437s1.8-.613 2.453-.977 1.188-.687 1.574-.98.668-.437.848-.437a.61.61 0 0 1 .527.266l.688.848c-.422.53-.984 1.027-1.68 1.484a11.81 11.81 0 0 1-2.328 1.176 17.12 17.12 0 0 1-2.754.781c-.98.2-1.965.3-2.953.293-1.805-.004-3.445-.316-4.926-.94a10.41 10.41 0 0 1-3.816-2.742c-1.058-1.202-1.883-2.668-2.465-4.406s-.87-3.73-.87-5.973c0-1.9.27-3.633.8-5.23s1.313-2.973 2.332-4.133c1.012-1.156 2.258-2.06 3.734-2.715 1.47-.652 3.145-.98 5.02-.98zm.035 1.883c-1.36 0-2.574.2-3.648.633s-2.008 1.035-2.8 1.828-1.418 1.75-1.906 2.86-.805 2.36-.96 3.734H96.3c-.004-1.4-.2-2.676-.582-3.797-.4-1.12-.934-2.07-1.64-2.848s-1.55-1.375-2.54-1.8-2.078-.62-3.277-.62zm129.6 24.9c-.53 0-.86-.242-.98-.738l-.37-3.367-2.16 1.9c-.715.563-1.46 1.043-2.238 1.43s-1.617.684-2.516.887-1.9.305-2.965.305a8.7 8.7 0 0 1-2.621-.398 6.35 6.35 0 0 1-2.25-1.219c-.656-.543-1.18-1.246-1.578-2.105s-.594-1.883-.594-3.082a5.46 5.46 0 0 1 .953-3.098c.637-.953 1.625-1.785 2.98-2.492 1.348-.703 3.086-1.27 5.215-1.695s4.684-.672 7.668-.742V49.94c-.004-2.434-.527-4.3-1.578-5.625s-2.6-1.973-4.672-1.973c-1.273 0-2.355.18-3.246.527-.9.355-1.645.742-2.262 1.164-.62.43-1.125.816-1.512 1.168s-.715.53-.977.53c-.355 0-.62-.16-.797-.48l-.45-.766c1.375-1.375 2.824-2.418 4.344-3.125s3.238-1.06 5.164-1.06c1.4 0 2.645.227 3.707.676a6.87 6.87 0 0 1 2.633 1.93c.695.844 1.223 1.855 1.574 3.047s.53 2.52.53 3.984v17.16zM207.285 65.7c1.023 0 1.96-.1 2.82-.328a10.22 10.22 0 0 0 2.383-.926 11.7 11.7 0 0 0 2.051-1.418l1.883-1.777v-6.86c-2.508.074-4.668.262-6.477.57s-3.3.73-4.477 1.258-2.04 1.164-2.594 1.895a4.04 4.04 0 0 0-.836 2.5c0 .887.145 1.648.438 2.293s.676 1.176 1.152 1.6 1.03.72 1.668.914 1.297.3 1.988.3zm21.387-24.95v16.848c-.004 2.473.566 4.4 1.7 5.813s2.86 2.105 5.18 2.105a9.32 9.32 0 0 0 4.809-1.312c1.488-.87 2.824-2.086 4.016-3.64V40.75h2.516v26.352h-1.387c-.488 0-.742-.227-.758-.687l-.242-3.918c-1.223 1.52-2.63 2.738-4.23 3.656s-3.38 1.375-5.34 1.375c-1.473 0-2.75-.227-3.848-.687s-2.008-1.12-2.73-1.988-1.273-1.906-1.645-3.125-.555-2.594-.555-4.13V40.75zm45.484 26.352c-.437 0-.7-.227-.758-.687l-.27-4.156c-1.168 1.6-2.53 2.852-4.094 3.8s-3.32 1.398-5.262 1.402c-3.238-.004-5.762-1.12-7.57-3.363-1.816-2.242-2.723-5.605-2.72-10.094-.004-1.922.25-3.72.754-5.387s1.246-3.113 2.227-4.344a10.64 10.64 0 0 1 3.605-2.898c1.422-.707 3.063-1.06 4.922-1.06 1.785 0 3.332.332 4.64.992s2.438 1.63 3.395 2.898V28.57h2.516V67.1zm-9.668-1.7c1.746 0 3.328-.453 4.742-1.352s2.68-2.152 3.797-3.762V46.395c-1.027-1.5-2.156-2.56-3.383-3.18s-2.62-.926-4.176-.926-2.918.285-4.086.848a8.06 8.06 0 0 0-2.934 2.398c-.785 1.03-1.38 2.27-1.773 3.707s-.598 3.023-.598 4.75c0 3.926.723 6.805 2.176 8.648s3.527 2.77 6.234 2.77zm23.2-24.66v26.352h-2.512V40.75zm1.113-9.078a2.06 2.06 0 0 1-.199.887 2.68 2.68 0 0 1-.516.727c-.21.21-.46.383-.742.504a2.19 2.19 0 0 1-.898.184c-.32 0-.62-.06-.902-.184a2.38 2.38 0 0 1-.742-.504 2.39 2.39 0 0 1-.5-.727 2.11 2.11 0 0 1-.187-.887 2.29 2.29 0 0 1 .188-.914 2.32 2.32 0 0 1 .5-.754 2.49 2.49 0 0 1 .742-.508 2.26 2.26 0 0 1 .902-.184c.316 0 .617.063.898.184.28.13.527.293.742.508a2.58 2.58 0 0 1 .516.754 2.24 2.24 0 0 1 .199.914zm18.285 8.656c1.9 0 3.578.324 5.074.97 1.488.645 2.746 1.56 3.773 2.738 1.023 1.188 1.8 2.613 2.34 4.28s.8 3.535.8 5.602-.27 3.926-.8 5.586-1.316 3.082-2.34 4.262-2.285 2.094-3.773 2.73c-1.496.633-3.184.95-5.074.953-1.887-.004-3.578-.32-5.07-.953s-2.758-1.547-3.785-2.73c-1.035-1.18-1.82-2.602-2.355-4.262-.543-1.66-.812-3.52-.8-5.586-.004-2.066.266-3.934.8-5.602.535-1.668 1.32-3.094 2.355-4.28 1.027-1.18 2.293-2.094 3.785-2.738s3.184-.97 5.07-.97zm0 25.133c1.57 0 2.94-.266 4.117-.805a7.82 7.82 0 0 0 2.94-2.316c.78-1.008 1.37-2.223 1.758-3.645s.586-3.012.586-4.777c0-1.746-.195-3.34-.586-4.77s-.977-2.652-1.758-3.668a7.92 7.92 0 0 0-2.94-2.344c-1.17-.547-2.547-.82-4.117-.82s-2.945.273-4.117.82a7.86 7.86 0 0 0-2.937 2.344c-.785 1.016-1.38 2.238-1.777 3.668s-.594 3.023-.594 4.77c0 1.766.195 3.36.594 4.777s.992 2.637 1.777 3.645a7.83 7.83 0 0 0 2.938 2.316c1.172.54 2.547.805 4.117.805zm0 0" fill="rgb(20%,20%,20%)"/></svg>