<svg xmlns="http://www.w3.org/2000/svg" viewBox="0 0 585.44 150.1" height="44" width="177"><defs><style>.cls-1{fill:#2947de;}</style></defs><g id="Livello_2" data-name="Livello 2"><g id="Layer_3" data-name="Layer 3"><path class="cls-1" d="M276,89q0,9.72-7,15.32T249.47,110a45.73,45.73,0,0,1-20.33-4.32V91.49a83.48,83.48,0,0,0,12.3,4.57,36.21,36.21,0,0,0,9.21,1.33c3.34,0,5.91-.64,7.69-1.92a6.53,6.53,0,0,0,2.68-5.7A6.24,6.24,0,0,0,259.84,86a13.15,13.15,0,0,0-3.46-3.17A89.52,89.52,0,0,0,247.07,78,44.15,44.15,0,0,1,237.19,72a22.38,22.38,0,0,1-5.25-6.63,18.92,18.92,0,0,1-2-8.84q0-9.54,6.46-15t17.86-5.45A41.9,41.9,0,0,1,265,37.46a73.47,73.47,0,0,1,10.64,3.73L270.7,53a71.51,71.51,0,0,0-9.51-3.29,30.68,30.68,0,0,0-7.39-.94c-2.88,0-5.1.68-6.63,2a6.63,6.63,0,0,0-2.31,5.25,6.54,6.54,0,0,0,.93,3.52,10.29,10.29,0,0,0,3,2.9,92.29,92.29,0,0,0,9.66,5q10.06,4.82,13.8,9.65A18.84,18.84,0,0,1,276,89Z"/><path class="cls-1" d="M322.67,109l-2.9-7.46h-.39a22.18,22.18,0,0,1-7.79,6.6A25.14,25.14,0,0,1,301.15,110q-7.9,0-12.45-4.51t-4.54-12.88q0-8.73,6.11-12.89t18.45-4.59l9.53-.3V72.38q0-8.34-8.55-8.35-6.58,0-15.47,4l-5-10.12a44.61,44.61,0,0,1,21-5q11.06,0,16.95,4.81t5.89,14.64V109Zm-4.42-25.44-5.8.19q-6.52.19-9.72,2.36a7.4,7.4,0,0,0-3.2,6.58q0,6.35,7.27,6.34a11.5,11.5,0,0,0,8.33-3,10.51,10.51,0,0,0,3.12-8Z"/><path class="cls-1" d="M371.7,98a32.69,32.69,0,0,0,9.43-1.72v11.15a33.64,33.64,0,0,1-13.76,2.5q-9,0-13.09-4.54t-4.1-13.63V65.31H343V59l8.25-5,4.33-11.59h9.57V54.06h15.38V65.31H365.16V91.79A5.82,5.82,0,0,0,367,96.5,7,7,0,0,0,371.7,98Z"/><path class="cls-1" d="M391.59,39.86q0-7.32,8.16-7.32t8.15,7.32a7.13,7.13,0,0,1-2,5.43c-1.35,1.3-3.39,1.94-6.11,1.94Q391.59,47.23,391.59,39.86ZM407.22,109h-15V54.06h15Z"/><path class="cls-1" d="M461.84,109l-2-7H459a15.79,15.79,0,0,1-6.83,5.92A23.3,23.3,0,0,1,442.14,110q-9.67,0-14.59-5.18t-4.91-14.91V54.06h15V86.14q0,5.94,2.12,8.91c1.4,2,3.65,3,6.73,3q6.28,0,9.08-4.2t2.81-13.93V54.06h15V109Z"/><path class="cls-1" d="M519.71,53a24.49,24.49,0,0,1,5.06.44l-1.13,14a17,17,0,0,0-4.42-.49q-7.17,0-11.17,3.68T504,81v28h-15V54.06h11.35l2.21,9.24h.73a20.78,20.78,0,0,1,6.91-7.45A17,17,0,0,1,519.71,53Z"/><path class="cls-1" d="M585.44,109h-15V76.9c0-4-.71-6.93-2.11-8.91s-3.66-3-6.73-3c-4.2,0-7.22,1.41-9.09,4.21s-2.8,7.44-2.8,13.92V109h-15V54.06h11.45l2,7H549a15.8,15.8,0,0,1,6.9-6,23.51,23.51,0,0,1,10-2q9.59,0,14.54,5.18t5,15Z"/><path class="cls-1" d="M47.66,103a259.78,259.78,0,0,0,45.27-1.36,3.4,3.4,0,0,0,1.8-.78c1.06-.87,1.4-1.71.25-2.81a3.3,3.3,0,0,0-2-.87,121.36,121.36,0,0,1-27.29-5.55c-1.28-.44-2.56-.92-3.81-1.42C46.36,83.89,38.67,65.16,45.1,49c0-.07,0-.13.08-.19.11-.3.24-.61.36-.9s.27-.62.41-.93h0l.11-.24c.18-.39.37-.77.55-1.16,9.8-20.42,29.89-34.41,53.05-34.41,18.26,0,34.6,8.71,45.5,22.39,1.87.07,3.74.16,5.62.29l.34,0c2.62.18,5.24.43,7.82.74C146.55,13.82,124.65,0,99.67,0,70.91,0,46.2,18.27,35.43,44.43,15.12,51.05-.5,61,0,75.92.52,91.27,16,98.47,34.72,101.5l.6.1c3.79.59,7.7,1,11.66,1.3C47.2,102.93,47.43,103,47.66,103Z"/><path class="cls-1" d="M151.35,47.14a260.74,260.74,0,0,0-45.27,1.36,3.47,3.47,0,0,0-1.8.78c-1.06.87-1.4,1.72-.25,2.81a3.25,3.25,0,0,0,2,.87,121.08,121.08,0,0,1,27.29,5.56c1.28.44,2.55.91,3.81,1.42,15.52,6.27,23.21,25,16.78,41.18,0,.06,0,.12-.08.19-.12.29-.25.6-.36.89s-.27.63-.41.93h0c0,.08-.07.16-.11.25-.19.38-.37.77-.55,1.15C142.6,125,122.51,139,99.34,138.94c-18.26,0-34.59-8.7-45.49-22.39-1.87-.07-3.75-.16-5.62-.28l-.34,0c-2.62-.18-5.24-.43-7.82-.74,12.39,20.78,34.29,34.59,59.27,34.6,28.76,0,53.47-18.27,64.24-44.42,20.31-6.62,35.93-16.57,35.42-31.49-.52-15.35-16-22.55-34.71-25.59l-.6-.1c-3.8-.59-7.71-1-11.66-1.3Z"/></g></g></svg>
