<svg width="210" height="43" xmlns="http://www.w3.org/2000/svg"><g fill="none" fill-rule="evenodd"><path d="M20.727 2.804a67.546 67.546 0 0 0-3.522.659c-.773.163-1.545.315-2.308.506-.704.177-1.426.334-2.116.552a33.98 33.98 0 0 0-1.977.675 12.68 12.68 0 0 0-3.517 2.052c-.64.534-1.237 1.114-1.738 1.783a12.6 12.6 0 0 0-.933 1.497c-.267.497-.45 1.086-.456 1.656-.009 1.676 1.062 3.08 2.295 4.122.405.34.836.654 1.273.953 1.297.89 2.709 1.672 4.143 2.353 1.48.7 2.97 1.372 4.478 2.012 1.426.603 2.883 1.113 4.354 1.6.423.138.851.276 1.274.415 1.333.44 2.695.847 4.018 1.324.824.296 1.702.573 2.525.943.855.384 1.743.767 2.497 1.319a4.63 4.63 0 0 1 1.264 1.347c.317.522.515 1.12.529 1.73a2.886 2.886 0 0 1-.47 1.652c-.827 1.285-2.266 2.161-3.654 2.745a59.954 59.954 0 0 1-6.36 2.253c-1.232.359-2.464.715-3.705 1.036-1.246.322-2.516.66-3.775.974-1.255.314-2.51.597-3.77.867-.722.153-1.449.304-2.166.453-.432.086-.855.177-1.288.27-.901.195-1.802.388-2.707.58-1.03.226-2.06.445-3.09.669-.3.065-.598.144-.897.21-.267.061-1.264.291-.524.247 1.03-.056 3.78-.295 9.655-1.076 2.13-.35 4.267-.65 6.4-.996a114.42 114.42 0 0 0 7.918-1.555c.75-.176 1.494-.364 2.24-.566.492-.136.979-.277 1.462-.427 2.06-.634 5.365-1.754 6.147-2.092 2.989-1.3 4.85-2.278 5.821-4.608.331-.827.487-1.753.386-2.64a5.972 5.972 0 0 0-.804-2.338c-.41-.675-.97-1.251-1.555-1.783-1.09-.986-2.312-1.782-3.618-2.457a22.905 22.905 0 0 0-1.126-.545 50.831 50.831 0 0 0-1.426-.618 33.808 33.808 0 0 0-2.046-.756c-1.793-.61-3.614-1.154-5.416-1.738a38.353 38.353 0 0 1-3.017-1.103 23.41 23.41 0 0 1-1.236-.554c-.478-.23-.943-.482-1.403-.752-.565-.339-1.49-.922-1.232-1.715.18-.565.8-.785 1.306-.988.469-.188.965-.32 1.453-.447 1.49-.38 3.011-.636 4.515-.954a72.59 72.59 0 0 0 1.324-.29c1.173-.273 2.382-.477 3.5-.918.96-.375 2.192-.974 2.551-2.02.515-1.523-.07-3.17-.91-4.455a44.62 44.62 0 0 0-.938-1.365c-.442-.613-.93-1.19-1.407-1.774-.216-.265-.479-.245-.7-.177-.294.1-1.098 1.034-7.521 2.253" fill="#C00"/><path d="M119.209 16.152l.087-.2.101-.173.088-.159.087-.136.06-.134.064-.1.05-.098.065-.06.156-.271.092-.162.11-.159.235-.394.143-.212.147-.22.037-.037.05-.013.11.039.055.036.074.086.147.21.152.28.17.384.18.457.197.554.037.097.064.162.083.21.115.27.014.05.023.062.037.123.027.098.023.1v.073l.014.075-.014.022v.1l-.073.098-.05.061-.125.05-.166.05-.206.025h-.13l-.123.011-1.224.098h-.234l-.184.014h-.193l-.147.011-.152-.011h-.285l-.138-.025-.087-.025-.073-.048-.043-.063-.036-.087.018-.084.018-.114.065-.122.092-.159.083-.136.073-.123.074-.1.055-.098.051-.074.023-.073.037-.036zm-7.836 5.816s.176.045.176.047c.666.19.993.634.483 1.216-.161.186-.29.394-.42.597l-.11.184c-.11.182-.192.351-.21.566l.008.113c.032.297.272.615.419.87.307.522.63.987.989 1.466.054.078.84-1.21.891-1.283.281-.386.607-.728.897-1.106.362-.474.759-.923 1.283-1.226.524-.304 1.126-.425 1.729-.488.597-.066 1.195-.093 1.788-.125 1.222-.064 2.437-.2 3.65-.318.47-.046 1.164-.161 1.587.068.41.22.722.602 1.039.929.381.398.754.804 1.113 1.219.428.491.809 1.016 1.282 1.47.299.29.608.545.948.79l.175.112c.602.297 1.025-.094 1.154-.698.184-.892-.327-1.76-.745-2.511a16.539 16.539 0 0 1-.634-1.26c-.166-.35-.332-.891-.037-1.227.23-.257.702-.27 1.016-.352.371-.098.736-.21 1.108-.284.745-.152 1.484-.35 2.243-.445.423-.05 1.117-.361 1.481.006.478.475.023 1.37-.161 1.878-.299.848-.602 1.726-.698 2.624-.084.817.118 1.696.643 2.348.386.48 1.035.893 1.641.545.483-.28.837-.876 1.053-1.371.405-.945.685-1.926 1.007-2.899.29-.876.59-1.75.92-2.616.243-.63.523-1.251.768-1.88.156-.409.372-.79.543-1.193.137-.34.184-.783.523-.997.414-.256.924.486 1.122.745.377.484.713.99 1.058 1.495.38.545.726 1.267 1.342 1.578 1.062.54 2.014-.722 2.612-1.4.414-.462.832-.939 1.26-1.403.454-.497.919-.99 1.37-1.487.294-.318.68-.942 1.163-.952.418-.006.515.446.552.77.185 1.552.253 3.13.487 4.686.092.578.207 1.153.308 1.728l.147.813c.074.386.152.772.235 1.156.179.797.368 1.594.612 2.374.215.66.491 1.375 1.044 1.839.656.55 1.861.366 2.284-.402.087-.161.125-.357.161-.538.074-.382.037-.782.005-1.166-.11-1.369-.496-2.707-.52-4.088-.005-.57.042-1.135.087-1.703.097-1.324.267-2.644.34-3.97.093-1.621.24-3.336-.233-4.917a5.524 5.524 0 0 0-.567-1.298 5.31 5.31 0 0 0-.767-1.004 4.186 4.186 0 0 0-1.034-.804c-.368-.198-.847-.354-1.265-.375-1.006-.05-2.05.502-2.837 1.079-.672.49-1.278 1.049-1.853 1.646-1.02 1.072-2.046 2.179-2.952 3.355-.262.343-.58.962-1.108.897-.625-.082-.957-1.013-1.15-1.504a23.27 23.27 0 0 0-.616-1.369c-.284-.573-.574-1.14-.845-1.72-.226-.48-.456-.98-.805-1.383-.4-.458-.915-.68-1.485-.867-.404-.131-.98-.297-1.374-.063-.53.313-.428 1.099-.46 1.607-.033.455-.083.895-.125 1.35-.115 1.096-.183 2.225-.432 3.301-.11.477-.271 1.077-.686 1.384-.321.236-.726.204-1.098.22-.304.013-.611.004-.92-.005-.699-.015-1.397-.043-2.096-.025-.598.018-1.2.055-1.802.077-.534.023-1.072.075-1.61.075-.602.034-1.338.13-1.903-.134-.446-.21-.686-.687-.884-1.11-.285-.601-.647-1.165-.988-1.738-.308-.51-.606-1.024-.919-1.53-.45-.73-.897-1.456-1.357-2.178a36.123 36.123 0 0 0-.933-1.415c-.262-.377-.594-.883-1.054-1.04-.421-.145-.836.13-.923.543-.06.268.004.542-.051.81-.06.284-.174.564-.294.83-.234.535-.547 1.035-.864 1.525-1.067 1.64-1.863 3.46-2.814 5.165-.18.318-.368.629-.548.947-.243.445-.403.813-.937.954-.48.125-.993.061-1.476.179-.597.148-.773.657-.874 1.209-.083.467-.096.944-.17 1.415-.055.34-.138.723-.102 1.067zM46.18 31.57c-.492.016-.98.107-1.466.08-.57-.033-.93-.375-1.14-.875-.249-.598-.391-1.274-.543-1.901-.138-.593-.249-1.176-.184-1.782.041-.33.092-.57.363-.798.428-.35 1.025-.122 1.476-.372.405-.225.538-.714.575-1.138.064-.713-.014-1.478-.05-2.194-.111-1.84.013-3.716-.222-5.544-.05-.422-.188-.906-.662-1.031-.938-.248-.947-1.167-1.006-1.96-.037-.497-.042-1.083.16-1.55.271-.641.994-.973 1.628-1.166.616-.188 1.242-.36 1.867-.529.634-.17 1.292-.263 1.94-.373.667-.111 1.334-.206 2.005-.309.653-.101 1.306-.19 1.968-.26.616-.069 1.236-.144 1.857-.18.727-.043 1.462-.086 2.189-.113.653-.028 1.305-.014 1.954-.01.649.005 1.292.032 1.936.052.662.023 1.333.078 1.986.166.952.128 1.857.291 2.676.82.85.556 1.416 1.694.575 2.535-.851.851-2.221.71-3.324.71a89.61 89.61 0 0 0-2.713.048c-.87.028-1.739.116-2.612.17-.81.05-1.614.107-2.427.169-.837.063-1.679.143-2.516.225-.667.063-1.337.127-1.995.247-.552.1-1.2.198-1.623.598-.313.297-.327.794-.198 1.183.253.75 1.403.56 2.01.545 1.379-.041 2.744-.266 4.119-.357.634-.043 1.265-.066 1.894-.102.764-.045 1.522-.07 2.29-.034.671.032 1.329.109 1.986.243.805.166 1.555.472 2.295.81.947.325.796 1.509.639 2.27-.083.399-.216.75-.58.974-.827.504-2 .377-2.924.401-.91.026-1.825.105-2.73.187-1.43.134-2.86.274-4.286.45-.874.109-1.747.259-2.62.35-.59.063-1.362.004-1.844.415l-.088.075-.064.036-.046.086-.056.114c-.064.363-.441 1.56-.064 1.847l.078.036h.124c.479.002.952-.025 1.43-.046.727-.031 1.453-.06 2.184-.12 1.398-.113 2.796-.227 4.194-.347.91-.08 1.848-.13 2.767-.212a85.892 85.892 0 0 1 4.139-.25c.836-.033 1.641-.02 2.427-.363.91-.402 1.665-1.105 2.557-1.562 1.126-.575 2.28-1.088 3.42-1.63 1.398-.666 2.764-1.432 4.185-2.05 1.094-.474 2.193-.944 3.287-1.417.53-.227 1.071-.44 1.577-.726.35-.202 1.255-.64 1.025-1.184-.119-.281-.482-.322-.749-.354-1.048-.125-3.678.068-5.288.313-2.607.45-2.97.788-3.696.078-.552-.584-.414-1.408-.331-2.13.082-.743.442-1.867.694-2.147.754-.976 3.241-1.09 4.4-1.174.598-.043 1.205-.06 1.807-.066.846-.006 1.688.05 2.529.05a39.21 39.21 0 0 1 2.184.15c.828.082 1.734.102 2.538.357.263.084.524.17.773.286.832.384 1.59.886 2.156 1.603.336.425.556.913.667 1.438.055.252.092.5.055.756-.028.189-.083.566-.202.716l-.05.063c-.116.25-.337.475-.539.654-.984.854-2.418 1.165-3.605 1.649-.588.24-1.167.518-1.747.779-1.628.734-3.241 1.496-4.902 2.162-1.365.552-2.726 1.118-4.036 1.792-.36.186-.883.452-1.1.813-.215.381.254.38.557.386.331.011.667-.009 1.003-.034 1.006-.08 2.013-.175 3.025-.284 1.03-.114 2.069-.205 3.1-.334.97-.123 1.94-.247 2.905-.352a30.385 30.385 0 0 1 3.145-.152c1.062 0 2.096.013 3.145.186l.156.025.276.014c.442 0 .906-.059 1.131-.497.368-.71.58-1.565.846-2.317.34-.974.694-1.946 1.048-2.916.046-.134.097-.268.148-.402.404-1.097.8-2.199 1.24-3.282.175-.438.36-.872.502-1.324.106-.338.156-.681.317-1.004.267-.517.75-.851 1.292-.474.438.304.736.833.989 1.292.262.484.488.965.611 1.504.125.542-.008 1.024-.174 1.544-.17.534-.391 1.063-.533 1.605-.309 1.166.85 2.106 1.742 2.637.805.481 1.729.807 2.593 1.167.648.27 1.297.555 1.982.688.41.078.929.16 1.292-.097.588-.422.767-1.247.966-1.897.239-.799.417-1.619.597-2.434.156-.675.262-1.36.336-2.049.06-.542.11-1.087.143-1.63.035-.707-.019-1.388-.029-2.092 0-.454.083-1.042.406-1.396.413-.469 1.131-.228 1.48.217.01.01.128.162.128.162.213.354.368.743.487 1.137.207.709.323 1.438.397 2.17.064.603.105 1.207.128 1.814.073 2.092-.073 4.188-.359 6.259-.156 1.118-.404 2.205-.643 3.305-.138.604-.244 1.226-.506 1.794a4.31 4.31 0 0 1-.694 1.038c-.134.148-.28.272-.447.377-.574.357-1.324.343-1.976.279-.91-.084-1.784-.316-2.64-.627a17.712 17.712 0 0 1-1.586-.645c-.529-.25-1.062-.5-1.572-.786a16.86 16.86 0 0 1-1.495-.945c-.46-.32-.91-.676-1.3-1.073-.346-.35-.603-.8-.925-1.17-.345-.391-.611-.522-.837.016-.137.35-.211.717-.294 1.085-.138.643-.331 1.28-.533 1.908-.193.62-1.026 2.341-1.932 1.54-.293-.26-.505-.593-.947-.588-.45.006-.878.188-1.315.283-.46.103-.938.157-1.407.25-.887.179-1.775.384-2.657.56-.589.112-1.177.194-1.762.294-.564.096-1.135.168-1.705.253-.588.086-1.173.179-1.757.247-.919.113-1.834.222-2.75.318-.735.096-1.465.168-2.197.252-.611.066-1.218.129-1.83.189a49.24 49.24 0 0 1-3.07.22c-1.55.054-3.155.145-4.682-.16-.34-.065-.846-.106-1.103-.356-.184-.177-.037-.48-.175-.688l-.023-.037-.06-.063-.055-.038-.06-.026h-.124l-.064.026-.074.025-.064.05-.13.088-.082.097-.064.112-.037.125c-.331 1.056-1.453 1.453-2.473 1.583L46.18 31.57M198.615 23.376c-2.143.152-4.162.51-6.337.306-.703-.068-1.912-.125-2.505-.508-1.738-1.131 4.35-3.146 5.099-3.41 2.11-.744 6.363-1.957 6.363-1.957s3.996-.981 4.116-3.107c.146-2.58-2.54-3.747-4.594-4.392a21.924 21.924 0 0 0-2.566-.418 26.646 26.646 0 0 0-1.765-.104c-1.108-.039-2.189.068-3.293.2-1.13.134-3.535.204-3.885 1.608-.175.715-.993 2.189-.308 2.836.726.688 1.909.402 2.801.316 1.232-.12 2.45-.348 3.677-.468.907-.089 2.088-.286 2.833.37.915.816-1.513 1.588-1.996 1.792-1.833.772-3.75 1.326-5.59 2.083-1.725.708-3.454 1.39-5.136 2.184-.773.363-1.494.811-2.22 1.247l-.35-.236-2.12.222-2.124.173c-1.42.116-2.86.156-4.285.223-.713.024-1.83.052-2.392-.473-1.226-1.15-.542-2.745.267-3.858.887-1.21 2.133-2.108 3.412-2.87.86-.511 1.811-.93 2.777-1.216.653-.195 1.33-.357 2.01-.456.096.186.206.372.312.554.055.104 1.642-.554 1.793-.632.487-.25 1.168-.751 1.182-1.358.023-.738-.621-1.474-1.205-1.842-.653-.41-1.393-.547-2.16-.554-.833-.011-1.67.039-2.489.146a12.13 12.13 0 0 0-1.715.365c-.937.27-1.83.636-2.68 1.106a13.209 13.209 0 0 0-3.121 2.392 8.533 8.533 0 0 0-1.123 1.458c-.41.667-.708 1.405-.948 2.148-.647 2.056-.45 4.615.489 6.555.643 1.332 1.641 2.489 2.919 3.265 1.61.979 3.646 1.302 5.49.952a11.104 11.104 0 0 0 2.17-.63c.754-.301 1.49-.524 2.194-.926.137-.073 1.641-.924 1.727-.81.236.302.373.672.626.96.244.28.552.534.846.752.622.46 1.325.642 2.083.731 1.899.225 3.826.339 5.74.364 1.525.02 3.07-.083 4.587-.223.985-.09 1.968-.218 2.947-.336 2.493-.302 4.553-.85 7.252-2a7.49 7.49 0 0 0 2.551-1.918 6.022 6.022 0 0 0-.929-.456c-1.963-.78-4.202-.811-6.29-.547-.961.12-1.921.213-2.882.297-.418.038-.837.07-1.255.1M165.358 25.579c.023-.36-.018-.723-.124-1.001-.281-.728-1.058-1.466-1.83-1.607-.7-.124-1.54.008-2.111.45-.308.241-.643.63-.804.99-.355.793-.318 1.97.202 2.671.878 1.188 2.736 1.188 3.77.225.496-.46.846-1.044.897-1.728" fill="#1A1919"/></g></svg>