<svg xmlns="http://www.w3.org/2000/svg" viewBox="0 0 49 50" width="50" height="50"><style>.st1{fill:#eea100;stroke:#fff;stroke-width:.25;stroke-miterlimit:10}</style><rect width="100%" height="100%" fill="#fff"/><path fill="#00508c" stroke="#fff" stroke-miterlimit="10" stroke-width=".25" d="M20.52 41.48a24.13 24.13 0 01-.88-3.41 4.5 4.5 0 012.98-5.2c.92-.35 1.88-.61 2.8-.96a5.04 5.04 0 003.08-6.48c-.42-1.28-.75-2.63-1.79-3.6-1.46-1.35-3.16-1.99-5.17-1.52-.86.2-1.72.43-2.59.6a4.57 4.57 0 01-5.21-5.87c.05-.15.11-.3.19-.43 1.48-2.3 3.34-2.18 5.64-2.47 1.49-.14 3.32 1.43 3.89 3.13 1.19 3.58 3.58 4.91 7.16 3.8 4.79-1.48 6.3 1.69 7.16 4.92.33 1.22-.65 2.73-1.92 3.27-.81.35-1.68.55-2.51.85a4.75 4.75 0 00-3.05 6.15c.28.95.62 1.88.96 2.81a4.6 4.6 0 01-.45 4.33c-.46.42-.86.92-1.38 1.25-3.37 2.14-7.35 2.78-8.91-1.17z"/><path d="M18.26 22c1.12.12 2.25-.36 3.42-.63 2.34-.54 4.01.31 4.9 2.48 1.77 4.33 1.01 5.91-3.47 7.27-3.37 1.02-5.41-.11-6.36-3.55-1.08-3.89-3.61-5.33-7.61-4.33-1.01.25-2.04.53-3.07.59-2.11.13-3.31-.88-3.75-2.95-.8-3.75.21-5.29 4.01-6.09.66-.14 1.34-.25 1.99-.44 2.96-.84 4.02-2.73 3.23-5.69-.55-2.08.26-3.43 2.38-3.91.71-.16 1.44-.27 2.17-.33 2.9-.26 4.43.98 4.84 3.86.2 1.42-.52 2.32-1.77 2.77-.93.33-1.92.48-2.87.74-2.79.74-4.12 2.37-3.85 4.69.41 3.48 2.17 5.38 5.09 5.52.19.01.4 0 .72 0zM31.63 32.78c-.15-1.9.7-3.16 2.22-3.75.78-.3 1.59-.5 2.38-.78a3.93 3.93 0 002.76-3.64c.23-2.78-2.44-6.4-5.12-7.12a5.54 5.54 0 00-3.23.29c-4.52 1.46-6.14-1.27-6.39-4.7 0-1.58.82-2.05 1.6-2.33 1.17-.42 2.42-.68 3.67-.71 1.37-.03 2.4.65 3.08 1.81.29.49.49 1.04.74 1.55 1.23 2.59 3.76 3.9 6.46 3.05 4.32-1.37 6.01 1.32 7.07 4.19.66 1.8-.27 3.19-2.45 3.76-1.82.48-3.15 1.34-3.61 3.25a5.37 5.37 0 00.48 3.5c.33.76.7 1.52.98 2.3.79 2.26-.06 4.18-2.27 5.11-.77.32-1.57.6-2.38.77-1.61.32-3.05-.09-4.04-1.44a11.07 11.07 0 01-1.95-5.11z" class="st1"/><path d="M33.57 37.91a10.8 10.8 0 01-1.94-5.14c-.15-1.9.7-3.16 2.22-3.75" class="st1"/></svg>