<svg width="294" height="97" viewBox="0 0 294 97" fill="none" xmlns="http://www.w3.org/2000/svg">
<path fill-rule="evenodd" clip-rule="evenodd" d="M114.887 47.2775C114.887 44.9167 117.119 43.8025 119.681 43.8025C122.374 43.8025 124.673 44.9826 125.856 47.5396L131.833 44.1956C129.534 39.8679 125.067 37.3766 119.681 37.3766C112.982 37.3766 107.662 41.2448 107.662 47.4086C107.662 59.146 125.33 55.8673 125.33 61.7031C125.33 64.326 122.9 65.375 119.747 65.375C116.135 65.375 113.507 63.6043 112.456 60.654L106.348 64.1949C108.45 68.9158 113.179 71.8667 119.747 71.8667C126.841 71.8667 132.555 68.3258 132.555 61.7683C132.555 49.6383 114.887 53.2444 114.887 47.2775V47.2775ZM167.432 71.0139L152.457 54.2934L166.907 38.2288H158.237L145.495 52.7196V25.0444H138.401V71.0139H145.495V55.8673L158.959 71.0139H167.432ZM175.183 57.6374H201.325C201.456 56.7194 201.587 55.6704 201.587 54.6872C201.587 45.2447 194.888 37.3766 185.101 37.3766C174.789 37.3766 167.761 44.9167 167.761 54.6213C167.761 64.457 174.789 71.8667 185.627 71.8667C192.063 71.8667 196.99 69.178 200.011 64.7191L194.166 61.3093C192.589 63.6043 189.633 65.375 185.692 65.375C180.438 65.375 176.3 62.7521 175.183 57.6374V57.6374ZM175.118 51.8674C176.103 46.9496 179.715 43.8025 185.035 43.8025C189.305 43.8025 193.443 46.2285 194.428 51.8674H175.118ZM213.213 57.6374H239.354C239.486 56.7194 239.617 55.6704 239.617 54.6872C239.617 45.2447 232.918 37.3766 223.131 37.3766C212.819 37.3766 205.791 44.9167 205.791 54.6213C205.791 64.457 212.819 71.8667 223.656 71.8667C230.093 71.8667 235.019 69.178 238.04 64.7191L232.195 61.3093C230.619 63.6043 227.663 65.375 223.722 65.375C218.467 65.375 214.33 62.7521 213.213 57.6374V57.6374ZM213.147 51.8674C214.132 46.9496 217.745 43.8025 223.065 43.8025C227.334 43.8025 231.472 46.2285 232.458 51.8674H213.147ZM245.856 71.0139H252.95V25.0444H245.856V71.0139ZM276.66 71.8667C286.315 71.8667 294 64.326 294 54.6213C294 44.8515 286.315 37.3766 276.66 37.3766C267.07 37.3766 259.319 44.8515 259.319 54.6213C259.319 64.326 267.07 71.8667 276.66 71.8667V71.8667ZM276.66 64.9818C270.88 64.9818 266.413 60.5882 266.413 54.6213C266.413 48.6545 270.88 44.2614 276.66 44.2614C282.44 44.2614 286.906 48.6545 286.906 54.6213C286.906 60.5882 282.44 64.9818 276.66 64.9818V64.9818Z" fill="#0BDA65"/>
<path fill-rule="evenodd" clip-rule="evenodd" d="M28.8332 79.0429C27.9741 72.2011 23.7808 66.3943 17.9291 63.2987L17.934 63.2888C7.26834 57.6595 0 46.4674 0 33.5797C0 15.0338 15.051 0 33.6181 0C34.778 0 35.9238 0.0589234 37.0537 0.173451C46.5895 1.14029 54.9471 6.0882 60.4349 13.3267L60.4565 13.3549C56.8165 15.6189 54.3946 19.6522 54.3946 24.2499C54.3946 30.2302 58.4915 35.2537 64.0342 36.6753L64.0267 36.6935C78.5509 40.4041 89.2889 53.5631 89.2889 69.2276C89.2889 75.7839 87.407 81.9019 84.1542 87.0714C82.8863 89.0864 81.4099 90.9579 79.7548 92.6551L79.7523 92.6517C77.4184 95.0543 74.1515 96.5481 70.5348 96.5481C63.4426 96.5481 57.6931 90.8052 57.6931 83.7211C57.6931 78.8072 60.459 74.539 64.521 72.3854L64.5161 72.3754C68.5814 70.2226 71.3499 65.9519 71.3499 61.0356C71.3499 60.6256 71.3307 60.2198 71.2934 59.8189C67.5229 54.5664 61.3596 51.1439 54.3954 51.1439C50.3749 51.1439 46.6219 52.285 43.4414 54.2594C41.2845 52.3987 38.5011 51.2435 35.4502 51.1505C35.1901 52.168 35.0522 53.2336 35.0522 54.3324C35.0522 58.2014 36.7671 61.6704 39.479 64.0216C39.4749 64.1494 39.4732 64.278 39.4732 64.4058C39.4732 67.6474 40.6763 70.6069 42.6612 72.8651L42.6554 72.8709C43.8933 74.2684 44.6444 76.1067 44.6444 78.12C44.6444 82.4986 41.0909 86.0473 36.7073 86.0473C32.6369 86.0473 29.2819 82.9874 28.8241 79.0446L28.8332 79.0429ZM53.8401 63.1023C52.4509 63.1023 51.1461 62.7449 50.0084 62.1181C51.3441 59.5701 54.003 57.83 57.0704 57.83C58.4587 57.83 59.7644 58.1874 60.9013 58.8142C59.5656 61.363 56.9067 63.1023 53.8401 63.1023Z" fill="#0BDA65"/>
</svg>
