<svg enable-background="new 0 0 170.079 92.49" height="92.49" viewBox="0 0 170.079 92.49" width="170.079" xmlns="http://www.w3.org/2000/svg"><path d="m5.906 80.085c-1.513 0-3.875-.284-5.482-.708v-3.451c1.466.378 3.402.709 5.956.709 3.26 0 4.678-1.891 4.678-5.813 0-4.584-1.276-5.907-3.829-6.427-5.245-1.087-7.229-3.356-7.229-8.933 0-6.759 3.875-9.122 9.309-9.122 1.561 0 3.64.331 5.011.709v3.45c-1.606-.378-3.829-.708-5.482-.708-2.364 0-4.632 1.418-4.632 5.151 0 3.828.662 4.915 3.639 5.529 4.537.945 7.42 2.931 7.42 9.877-.001 7.847-3.734 9.737-9.359 9.737z" fill="#39156e"/><path d="m18.842 87.789v-31.665h3.309l.377 2.032c1.465-1.512 3.355-2.363 5.578-2.363 5.528 0 7.466 3.592 7.466 10.633 0 10.35-2.551 13.659-10.066 13.659-1.088 0-1.938-.095-2.647-.189v7.893zm4.017-24.577v13.281c.709.095 1.702.189 3.121.189 4.488 0 5.482-3.261 5.482-9.783 0-6.002-1.088-7.704-4.112-7.704-2.646.001-4.491 2.317-4.491 4.017z" fill="#39156e"/><path d="m55.363 79.755c-.899 0-2.837-.378-3.546-2.316-1.181 1.702-3.072 2.647-6.238 2.647-3.45 0-7.042-1.135-7.042-6.995 0-5.104 3.167-7.893 8.413-7.893h3.732v-2.553c0-1.985-1.182-3.45-3.544-3.45-2.694 0-4.491.331-6.853.992v-3.45c1.75-.52 4.064-.945 6.379-.945 6.146 0 8.036 2.41 8.036 7.798v11.342c0 .945.567 1.512 2.079 1.512v3.309h-1.416zm-4.68-6.38v-4.963h-3.969c-2.032 0-4.065 1.277-4.065 4.396 0 2.931 1.371 3.875 3.876 3.875 3.26 0 4.158-2.363 4.158-3.308z" fill="#39156e"/><path d="m72.714 79.33c-1.514.425-3.45.756-5.152.756-5.436 0-8.271-1.796-8.271-12.619 0-8.459 2.552-11.673 8.223-11.673 1.56 0 3.829.378 5.2.708v3.497c-1.75-.378-3.073-.662-5.483-.662-2.741 0-3.827 2.08-3.827 9.075 0 7.089 1.465 8.129 3.827 8.129 2.552 0 4.112-.425 5.483-.708z" fill="#39156e"/><path d="m79.544 69.357c.141 6.238 1.654 7.325 4.017 7.325 2.599 0 4.914-.426 6.333-.756v3.403c-1.512.425-4.161.756-5.861.756-5.436 0-8.507-1.607-8.507-12.146 0-8.744 2.929-12.146 8.602-12.146 5.434 0 7.608 3.78 7.608 10.019v3.545zm.046-3.213h8.223v-1.276c0-3.592-.991-5.719-3.779-5.719-3.025-.001-4.207 1.559-4.444 6.995z" fill="#39156e"/><path d="m109.848 79.281c-1.039.284-3.688.804-5.246.804-6.758 0-9.545-3.309-9.545-17.392 0-13.942 3.211-16.353 10.11-16.353 1.515 0 3.403.331 4.681.662v3.498c-1.561-.378-3.688-.614-5.53-.614-3.45 0-5.058 1.702-5.058 13.139 0 11.909 1.704 13.516 5.104 13.516 1.938 0 4.303-.425 5.484-.708z" fill="#39156e"/><path d="m125.474 79.755-.332-1.938c-1.322 1.464-3.025 2.269-5.434 2.269-5.249 0-6.807-2.789-6.807-8.554v-15.408h4.019v15.879c0 2.978.52 4.679 3.399 4.679 2.601 0 4.351-2.222 4.443-3.875v-16.683h4.018v23.631z" fill="#39156e"/><path d="m140.268 80.085c-3.403 0-4.915-.331-6.665-.567v-32.846h4.017v11.201c1.418-1.324 3.167-2.08 5.249-2.08 5.526 0 7.465 3.592 7.465 10.633-.001 10.351-2.552 13.659-10.066 13.659zm-2.649-16.873v13.281c.71.095 1.702.189 3.122.189 4.488 0 5.48-3.261 5.48-9.783 0-6.002-1.089-7.704-4.112-7.704-2.645.001-4.49 2.317-4.49 4.017z" fill="#39156e"/><path d="m157.888 69.357c.139 6.238 1.653 7.325 4.015 7.325 2.601 0 4.915-.426 6.334-.756v3.403c-1.512.425-4.16.756-5.86.756-5.434 0-8.507-1.607-8.507-12.146 0-8.744 2.93-12.146 8.604-12.146 5.434 0 7.606 3.78 7.606 10.019v3.545zm.046-3.213h8.223v-1.276c0-3.592-.992-5.719-3.78-5.719-3.024-.001-4.208 1.559-4.443 6.995z" fill="#39156e"/><path d="m57.777 24.08-.004 19.372 16.389-9.464.387-.676.003-18.911z" fill="#e06c58"/><path d="m56.226 24.08.006 19.372-16.391-9.464-.388-.676-.001-18.911z" fill="#eb9f89"/><path d="m56.998 22.73 16.779-9.681-16.391-9.463-.777.003-16.38 9.453z" fill="#f6d0c1"/><path d="m76.889 11.252-19.112-11.042c-.483-.281-1.075-.281-1.554 0l-19.123 11.04c-.477.279-.773.791-.773 1.349v22.065c0 .557.296 1.069.773 1.349l19.114 11.037c.242.139.512.209.78.209.27 0 .538-.07.778-.209l19.114-11.037c.482-.279.777-.794.777-1.349l.003-22.063c.002-.556-.296-1.071-.777-1.349zm-20.673 32.201-16.384-9.461 13.575-7.838c.188-.107.252-.346.144-.532-.107-.185-.347-.249-.535-.142l-13.576 7.838v-18.922l16.781 9.684zm.782-20.723-16.78-9.682 16.397-9.468v15.68c0 .214.171.389.387.389.215-.002.389-.175.389-.391v-15.678l16.385 9.471zm.779 1.35 16.774-9.679-.002 18.912-13.573-7.834c-.184-.105-.422-.042-.527.144-.111.186-.044.426.142.531l13.57 7.836-16.389 9.463z" fill="#39156e"/><g fill="#e06c58"><path d="m100.002 92.423-.361-1.695h-1.87l-.374 1.695h-.851l1.617-6.706h1.101l1.591 6.706zm-1.301-6.073-.776 3.659h1.562z"/><path d="m107.696 89.511 1.31 2.912h-.917l-1.229-2.778h-.853v2.778h-.831v-6.706s.822-.067 1.619-.067c1.453 0 1.857.776 1.857 1.955.001.986-.276 1.638-.956 1.906zm-.789-3.171c-.524 0-.899.058-.899.058v2.548h.899c.538 0 .894-.229.894-1.273 0-.931-.214-1.333-.894-1.333z"/><path d="m116.069 92.327c-.21.058-.748.163-1.063.163-1.368 0-1.935-.671-1.935-3.525 0-2.826.651-3.315 2.05-3.315.309 0 .689.067.948.134v.709c-.315-.076-.748-.125-1.118-.125-.702 0-1.026.345-1.026 2.663 0 2.414.346 2.74 1.036 2.74.393 0 .87-.086 1.108-.143z"/><path d="m123.298 92.423v-3.085h-1.973v3.085h-.834v-6.706h.834v2.913h1.973v-2.913h.834v6.706z"/><path d="m128.552 92.423v-.699h.671v-5.307h-.671v-.7h2.177v.7h-.674v5.307h.674v.699z"/><path d="m137.083 86.446v5.977h-.834v-5.977h-1.475v-.729h3.784v.729z"/><path d="m142.821 92.423v-6.706h3.141v.7h-2.309v2.193h2.07v.7h-2.07v2.413h2.309v.699h-3.141z"/><path d="m153.247 92.327c-.21.058-.747.163-1.06.163-1.373 0-1.938-.671-1.938-3.525 0-2.826.652-3.315 2.05-3.315.309 0 .689.067.948.134v.709c-.315-.076-.747-.125-1.119-.125-.7 0-1.025.345-1.025 2.663 0 2.414.346 2.74 1.035 2.74.393 0 .872-.086 1.109-.143z"/><path d="m159.609 86.446v5.977h-.834v-5.977h-1.475v-.729h3.783v.729z"/><path d="m166.338 92.49c-.306 0-.785-.058-1.111-.144v-.7c.3.077.692.144 1.208.144.662 0 .949-.383.949-1.178 0-.929-.261-1.197-.776-1.302-1.062-.222-1.468-.681-1.468-1.812 0-1.369.788-1.849 1.889-1.849.315 0 .738.067 1.018.143v.7c-.328-.076-.779-.144-1.113-.144-.479 0-.937.288-.937 1.044 0 .776.133.997.734 1.121.919.191 1.506.594 1.506 2.002-.001 1.592-.76 1.975-1.899 1.975z"/></g></svg>