<svg xmlns="http://www.w3.org/2000/svg" width="215" height="100" viewBox="0 0 215 100" fill="#00b891" xmlns:v="https://vecta.io/nano"><path d="M212.828 50.219a2.15 2.15 0 0 0-1.707-.156 2.18 2.18 0 0 0-1.289 1.133c-2.172 4.348-5.777 9.348-10.488 10.109 1.582-15.828-8.687-23.914-15.203-20.043-1.707 1.105-2.848 2.898-3.129 4.914-3.824 2.852-6.5 6.988-7.535 11.648a43.04 43.04 0 0 1-5.406 10.719c-2.434 3.5-6.516 8.195-8.926 4.633s.52-13.219 2.387-19.566l.848-2.891a2.58 2.58 0 0 0 0-1.066 2.19 2.19 0 0 0-1.91-2.434 2.19 2.19 0 0 0-2.434 1.91c-4.168 11.285-8.426 18.848-12.746 22.609-3.367 2.957-8.035 4.348-10.555.566-1.648-2.984-2.543-6.328-2.605-9.738l3.32-4.523c14.094-19.566 20.395-34.609 16.832-40.586-1.051-1.766-3.082-2.699-5.105-2.348-10.164 1.414-20.477 23.457-19.543 46.086a101.91 101.91 0 0 1-6.645 8.129c-3.738 3.957-8.926 7.785-12.035 3.305a18.84 18.84 0 0 1-2.473-8.695 162.58 162.58 0 0 0 13.508-20.715c9.684-17.676 13.27-30.176 10.012-35.09a4.82 4.82 0 0 0-4.625-2.172c-5.52.52-12.664 8.934-17.375 20.434-4.355 11.52-6.418 23.777-6.082 36.086-.934 1.176-1.844 2.176-2.758 3.285-1.281 1.457-2.434 2.695-3.496 3.715-4.105 3.98-8.797 7.742-10.969 2.523-1.648-3.891-.477-11.719 3.152-21.5 1.301-3.043 2.172-5.176 2.172-5.477.426-1.18-.184-2.477-1.359-2.902a2.26 2.26 0 0 0-2.898 1.355c-.871 2.023-1.629 3.914-2.281 5.719-3.758 8.695-10.531 21.543-17.375 24.652-2.605 1.219-5.449.934-6.512-1.738-1.371-3.152-2-11.523 5.535-33.566 4.957-.816 9.992-1.078 15.008-.781 1.266.059 2.34-.918 2.398-2.187a2.29 2.29 0 0 0-2.18-2.398 71.34 71.34 0 0 0-13.574.477c1.715-4.719 3.758-10 6.188-15.871.477-1.141-.066-2.449-1.203-2.922s-2.449.066-2.922 1.207c-2.758 6.652-5.148 12.805-7.125 18.41a73.27 73.27 0 0 0-15.961 5.328c-5.645-6.109-16.18-5.848-25.516-5.629-3.605 0-8.125-.48-9.145-3.652-1.586-5.109 5.125-15.305 14.137-21.457 7.559-5.152 14.727-5.633 17.004-3.133s1.328 8.438-7.102 18.848a2.19 2.19 0 0 0-.508 1.652 2.17 2.17 0 0 0 .855 1.5 2.19 2.19 0 0 0 1.652.512 2.19 2.19 0 0 0 1.5-.859C50.687 12.697 48.124 5.85 45.538 2.916 41.261-1.736 31.663-.717 22.714 5.35 13.03 11.873 4.343 23.916 6.882 31.893c1.023 3.195 4.191 7 13.508 6.762 7.777-.195 16.465-.391 21.133 3.281a133.09 133.09 0 0 0-22.348 15.543c-48.625 40.457 8.254 67.199 27.625 8.305 3.191-9.695 3.691-17 1.477-22.172a71.18 71.18 0 0 1 11.793-4.109c-5.582 17.023-7.125 28.414-4.605 34.281 2.172 5.066 7.754 6.262 12.617 4.023 4.148-1.914 8.016-6.371 11.316-11.391a17.21 17.21 0 0 0 1.086 7.324c2.41 5.676 8.188 8.695 18.285-1.043a77.39 77.39 0 0 0 3.887-4.129 18.11 18.11 0 0 0 2.563 6.52c3.41 4.914 10.164 6.414 18.828-2.672 1.348-1.437 2.758-3.09 4.344-4.937.422 2.578 1.359 5.039 2.758 7.242 3.934 5.781 11.359 5.195 16.703.781a31.15 31.15 0 0 0 6.059-7.086 12.06 12.06 0 0 0 1.563 7.215c2.844 4.348 9.055 5.48 15.766-3.715.676-.937 1.348-1.937 1.977-2.98 2.324 9.914 11.273 14.133 19.547 6.371 2.695-2.586 4.648-5.855 5.645-9.457 4.605 0 10.297-2.805 15.336-12.652a2.19 2.19 0 0 0 .172-1.68 2.17 2.17 0 0 0-1.086-1.297zM42.566 64.371c-16.68 50.652-63.371 32.215-20.523-3.5a125.19 125.19 0 0 1 22.195-15.219c1.648 4.023 1.086 10.324-1.672 18.719zm63.719-7.719a94.19 94.19 0 0 1 5.84-28.566 52.16 52.16 0 0 1 6.516-11.824c6.516-8.695 10.078-8.066 6.863 3.215-2.398 7.531-5.609 14.777-9.578 21.609a163.01 163.01 0 0 1-9.641 15.566zm28.359-17.195c6.82-25.109 23.891-27.871 6.953 1.109-2.414 4.129-5.539 8.91-9.469 14.367.316-5.23 1.164-10.414 2.516-15.477zm55.012 32.609c-7.926 7.391-13.465-1.195-12.488-9.676a18.08 18.08 0 0 1 4.344-10.566c1.941 6.082 6.477 10.984 12.379 13.395a16.09 16.09 0 0 1-4.234 6.848zm5.148-11.195a16.95 16.95 0 0 1-8.035-7.652c-1.219-2.176-2.652-6.785-.457-8.109 1.301-.785 7.406 0 8.402 11.086.18 1.551.207 3.117.09 4.676zm-28.081-20.152c-.363-1.937-2.051-3.34-4.02-3.348-1.039-.016-2.031.43-2.711 1.215a3.39 3.39 0 0 0-.738 2.719c.359 1.938 2.043 3.352 4.016 3.371a3.6 3.6 0 0 0 2.715-1.199c.633-.77.902-1.773.738-2.758zm-71.625-5.633c-.379-1.926-2.055-3.324-4.016-3.348-1.039-.016-2.035.43-2.715 1.219-.637.766-.906 1.777-.738 2.762a4.12 4.12 0 0 0 4.016 3.41 3.54 3.54 0 0 0 2.695-1.215c.66-.781.941-1.82.758-2.828zm0 0"/></svg>