<svg version="1.0" xmlns="http://www.w3.org/2000/svg"
 width="735.000000pt" height="150.000000pt" viewBox="0 0 7358.000000 1504.000000"
 preserveAspectRatio="xMidYMid meet">

<g transform="translate(0.000000,1504.000000) scale(0.100000,-0.100000)"
fill="#000000" stroke="none">
<path d="M0 7520 l0 -7520 36790 0 36790 0 0 7520 0 7520 -36790 0 -36790 0 0
-7520z m12482 6643 c6 -7 23 -13 37 -13 15 0 39 -7 55 -15 15 -8 33 -15 40
-15 6 -1 29 -9 51 -20 22 -11 46 -19 53 -20 6 0 12 -4 12 -10 0 -5 5 -10 11
-10 6 0 44 -23 86 -52 81 -56 171 -140 218 -203 16 -22 32 -42 35 -45 11 -11
31 -48 71 -130 86 -177 94 -215 94 -445 0 -156 -3 -201 -18 -250 -42 -135 -74
-206 -145 -315 -45 -69 -3891 -3920 -3965 -3970 -29 -19 -58 -41 -65 -47 -7
-7 -19 -13 -27 -13 -7 0 -15 -3 -17 -7 -4 -10 -91 -53 -105 -53 -6 0 -24 -7
-39 -15 -16 -8 -38 -15 -50 -15 -11 0 -24 -4 -30 -9 -14 -15 -159 -34 -254
-35 -87 0 -239 18 -268 33 -9 5 -50 19 -89 32 -40 13 -73 26 -73 30 0 4 -13
10 -30 14 -16 4 -30 11 -30 16 0 5 -5 9 -10 9 -9 0 -65 35 -80 50 -3 3 -23 18
-45 35 -89 65 -196 194 -258 310 -39 72 -87 202 -87 233 0 10 -6 24 -12 31
-10 9 -13 63 -13 201 0 138 3 192 13 202 6 6 12 21 12 33 0 43 91 264 112 273
5 2 8 9 8 16 0 7 8 22 18 34 9 11 26 33 36 49 11 15 493 502 1070 1081 l1051
1052 -2735 0 -2735 0 1051 -1052 c577 -579 1059 -1066 1070 -1081 10 -16 27
-38 37 -49 9 -12 17 -27 17 -34 0 -7 3 -14 8 -16 21 -9 112 -230 112 -273 0
-12 6 -27 13 -33 9 -10 12 -64 12 -202 0 -138 -3 -192 -12 -201 -7 -7 -13 -21
-13 -31 0 -31 -48 -161 -87 -233 -62 -116 -169 -245 -258 -310 -22 -17 -42
-32 -45 -35 -15 -15 -71 -50 -80 -50 -5 0 -10 -4 -10 -9 0 -5 -13 -12 -30 -16
-16 -4 -30 -10 -30 -14 0 -4 -33 -17 -72 -30 -40 -13 -81 -27 -90 -32 -29 -15
-181 -33 -268 -33 -95 1 -240 20 -254 35 -6 5 -19 9 -30 9 -12 0 -34 7 -50 15
-15 8 -33 15 -39 15 -14 0 -101 43 -105 53 -2 4 -10 7 -17 7 -8 0 -20 6 -27
13 -7 6 -36 28 -65 47 -74 50 -3920 3901 -3965 3970 -71 109 -103 180 -145
315 -15 49 -18 94 -18 250 0 230 8 268 94 445 40 82 60 119 71 130 3 3 19 23
35 45 47 63 137 147 218 203 42 29 80 52 86 52 6 0 11 5 11 10 0 6 6 10 13 10
6 1 30 9 52 20 22 11 45 19 51 20 7 0 25 7 40 15 16 8 40 15 55 15 14 0 29 4
35 9 5 5 25 11 44 14 19 2 2428 3 5352 3 4239 -1 5320 -4 5330 -13z m9369
-3740 c218 -75 358 -271 359 -503 0 -231 -167 -445 -395 -505 -52 -13 -312
-15 -2224 -15 l-2166 0 961 -962 962 -963 41 -85 c67 -139 74 -281 21 -424
-24 -63 -89 -156 -143 -203 -164 -144 -413 -168 -607 -61 -43 24 -381 356
-1496 1472 -1547 1547 -1476 1472 -1518 1615 -22 76 -21 204 4 282 22 73 77
169 123 217 71 74 186 134 290 151 29 5 1310 8 2887 7 l2835 -1 66 -22z
m22638 -14 c117 -45 154 -74 225 -174 59 -83 73 -111 92 -196 52 -228 -66
-476 -277 -581 -88 -44 -142 -57 -230 -58 -152 0 -263 45 -371 151 -154 151
-202 385 -119 584 28 68 45 92 110 155 116 114 222 158 380 159 76 1 96 -3
190 -40z m7511 31 c93 -15 215 -77 282 -144 160 -161 197 -411 91 -621 -35
-68 -154 -185 -224 -219 -123 -59 29 -56 -2334 -56 l-2170 0 967 -967 c859
-861 970 -975 997 -1031 48 -95 64 -172 58 -272 -22 -372 -400 -600 -742 -448
-68 31 -104 65 -1509 1467 -923 922 -1452 1457 -1477 1494 -71 108 -100 242
-80 363 39 228 225 406 456 437 72 10 5623 6 5685 -3z m14594 -5 c205 -43 364
-197 411 -396 13 -55 15 -250 15 -1452 l0 -1389 73 65 c99 89 314 249 438 326
923 573 2091 648 3089 196 531 -240 1003 -632 1334 -1108 275 -396 468 -863
545 -1322 47 -278 46 -248 46 -1880 l0 -1550 -23 -68 c-106 -307 -451 -444
-744 -296 -128 65 -241 215 -268 358 -6 35 -10 567 -10 1511 0 953 -4 1494
-11 1566 -50 518 -284 1010 -654 1379 -439 437 -1046 676 -1655 652 -568 -23
-1069 -236 -1474 -627 -348 -336 -565 -746 -657 -1240 l-24 -125 -5 -1560 -5
-1560 -23 -59 c-80 -212 -286 -356 -506 -356 -234 1 -447 172 -501 402 -13 55
-15 572 -15 4073 0 4419 -5 4072 62 4197 77 145 210 240 376 268 72 12 111 11
186 -5z m-64434 -5 c105 -21 150 -33 150 -41 0 -5 8 -9 18 -9 26 0 161 -70
233 -122 59 -42 3929 -3901 3929 -3918 0 -4 13 -23 30 -41 35 -40 130 -222
130 -249 0 -10 4 -21 9 -25 6 -3 13 -27 17 -53 3 -26 12 -53 18 -61 16 -20 16
-3582 -1 -3602 -6 -8 -14 -35 -18 -62 -4 -26 -11 -50 -16 -53 -5 -3 -9 -12 -9
-21 0 -19 -71 -166 -82 -171 -5 -2 -8 -8 -8 -13 0 -10 -26 -49 -65 -98 -27
-34 -124 -131 -156 -156 -51 -40 -88 -65 -98 -65 -5 0 -11 -4 -13 -9 -2 -7
-70 -41 -183 -92 -22 -10 -86 -26 -155 -39 -59 -11 -292 -11 -350 0 -101 20
-150 33 -150 40 0 4 -18 10 -40 14 -22 3 -40 10 -40 15 0 5 -12 12 -27 16 -15
3 -30 10 -33 13 -3 4 -26 18 -52 32 -27 13 -48 28 -48 32 0 3 -9 10 -20 13
-34 11 -192 175 -241 250 -75 114 -127 236 -151 350 -9 45 -13 431 -17 1530
l-6 1470 -1740 1741 c-957 957 -1749 1751 -1760 1765 -38 44 -106 146 -121
179 -4 8 -18 40 -32 70 -26 58 -47 129 -64 220 -12 67 -5 384 9 402 6 7 13 29
17 48 7 38 62 176 81 200 6 8 20 32 30 53 11 20 23 37 27 37 3 0 9 8 13 19 7
23 149 170 195 201 19 13 37 27 40 30 18 22 188 110 212 110 9 0 19 4 22 9 4
5 25 12 49 16 23 4 47 11 52 15 6 5 26 10 45 13 67 8 325 6 370 -3z m10331 -7
c8 -6 33 -14 56 -18 24 -4 45 -11 49 -16 3 -5 13 -9 22 -9 24 0 194 -88 212
-110 3 -3 21 -17 40 -30 46 -31 188 -178 195 -201 4 -11 10 -19 13 -19 4 0 16
-17 27 -37 10 -21 24 -45 30 -53 19 -24 74 -162 81 -200 4 -19 11 -41 17 -48
14 -18 21 -335 9 -402 -17 -91 -38 -162 -64 -220 -14 -30 -28 -62 -32 -70 -15
-33 -83 -135 -121 -179 -11 -14 -803 -808 -1760 -1765 l-1740 -1741 -6 -1470
c-4 -1099 -8 -1485 -17 -1530 -24 -114 -76 -236 -151 -350 -49 -75 -207 -239
-241 -250 -11 -3 -20 -10 -20 -13 0 -4 -21 -19 -47 -32 -27 -14 -50 -28 -53
-32 -3 -3 -18 -10 -33 -13 -15 -4 -27 -11 -27 -16 0 -5 -18 -12 -40 -15 -22
-4 -40 -10 -40 -14 0 -7 -49 -20 -150 -40 -58 -11 -291 -11 -350 0 -69 13
-133 29 -155 39 -113 51 -181 85 -183 92 -2 5 -8 9 -13 9 -10 0 -47 25 -98 65
-32 25 -129 122 -156 156 -39 49 -65 88 -65 98 0 5 -3 11 -7 13 -12 5 -83 152
-83 171 0 9 -4 18 -9 21 -5 3 -12 27 -16 53 -4 27 -12 54 -18 62 -17 20 -17
3582 -1 3602 6 8 15 35 18 61 4 26 11 50 17 53 5 4 9 15 9 25 0 27 95 209 130
249 17 18 30 37 30 41 0 17 3870 3876 3929 3918 72 52 207 122 233 122 10 0
18 4 18 9 0 8 27 15 145 41 57 12 400 7 416 -7z m9518 -2372 c129 -44 233
-133 294 -250 66 -125 61 -4 67 -1701 6 -1654 4 -1580 51 -1795 124 -566 460
-1054 957 -1388 103 -70 374 -204 487 -242 453 -152 916 -165 1360 -38 440
126 848 398 1135 759 238 298 388 634 463 1039 20 107 21 155 26 1675 7 1738
0 1575 72 1711 88 164 302 274 499 255 213 -19 382 -152 452 -353 l23 -68 0
-1550 c0 -1631 1 -1601 -46 -1880 -160 -961 -771 -1822 -1636 -2306 -886 -497
-1962 -554 -2897 -154 -1035 442 -1788 1408 -1955 2510 -39 252 -41 351 -41
1864 0 1266 2 1485 15 1539 45 191 199 345 389 388 82 18 205 12 285 -15z
m7621 -3 c128 -47 227 -132 289 -248 52 -97 61 -156 61 -389 l0 -211 123 103
c587 494 1305 765 2042 771 165 1 186 -1 248 -22 139 -48 237 -138 303 -277
124 -260 5 -583 -257 -699 -74 -32 -146 -44 -314 -50 -654 -25 -1271 -345
-1676 -869 -254 -328 -421 -752 -458 -1167 -7 -74 -11 -635 -11 -1575 0 -1279
-2 -1468 -15 -1520 -59 -223 -278 -396 -505 -395 -252 1 -463 171 -515 415
-22 106 -22 5644 0 5750 42 200 205 364 400 404 79 16 210 6 285 -21z m4850 0
c168 -61 287 -191 336 -365 l17 -62 56 38 c295 200 645 335 1016 393 113 17
184 21 370 21 186 0 257 -4 370 -21 447 -69 849 -247 1200 -529 104 -83 303
-283 365 -366 19 -25 37 -46 40 -46 3 0 20 20 38 44 99 131 302 321 485 453
550 398 1244 552 1923 427 717 -133 1350 -588 1712 -1230 150 -267 244 -544
300 -880 14 -90 16 -295 19 -2015 3 -1402 1 -1933 -8 -1983 -24 -145 -134
-296 -265 -365 -289 -151 -634 -12 -751 303 -17 48 -18 134 -23 1980 l-6 1930
-22 97 c-67 292 -191 518 -401 729 -214 215 -459 346 -757 406 -66 13 -135 17
-269 17 -198 0 -291 -15 -465 -73 -295 -99 -576 -322 -752 -597 -74 -116 -150
-299 -191 -464 -21 -85 -21 -89 -27 -2020 l-5 -1935 -22 -66 c-72 -211 -254
-350 -478 -366 -238 -16 -465 139 -535 365 -20 63 -20 97 -20 1866 0 1092 -4
1854 -10 1936 -28 386 -175 699 -448 961 -204 196 -466 328 -752 380 -98 18
-382 18 -480 0 -302 -55 -561 -191 -781 -410 -211 -211 -331 -432 -401 -740
l-22 -96 -6 -1930 -5 -1930 -22 -52 c-72 -176 -203 -293 -378 -338 -279 -71
-569 113 -630 400 -22 106 -22 5644 0 5750 42 200 205 364 400 404 79 16 210
6 285 -21z m9979 3 c129 -44 233 -132 295 -251 72 -136 66 111 64 -3042 l-3
-2843 -23 -59 c-80 -212 -286 -356 -506 -356 -234 1 -447 172 -501 402 -13 55
-15 432 -15 2888 0 2456 2 2833 15 2888 45 191 199 345 389 388 82 18 205 12
285 -15z m10769 4 c413 -52 780 -166 1137 -354 609 -320 1099 -820 1408 -1440
220 -440 330 -869 344 -1344 7 -216 0 -264 -55 -372 -62 -125 -200 -234 -334
-265 -28 -6 -928 -10 -2555 -10 -1382 0 -2513 -4 -2513 -8 0 -24 63 -229 95
-306 117 -289 279 -532 505 -756 285 -283 649 -488 1035 -583 740 -183 1522
18 2067 531 151 142 221 182 356 200 280 39 529 -138 588 -418 25 -118 3 -250
-59 -360 -17 -30 -69 -93 -117 -140 -471 -468 -1113 -789 -1773 -889 -834
-126 -1654 52 -2342 510 -528 351 -941 843 -1195 1422 -140 320 -228 660 -261
1009 -17 188 -7 616 19 783 97 619 340 1163 729 1632 107 129 341 358 473 463
244 194 572 383 856 494 329 127 588 184 1004 220 94 8 470 -4 588 -19z m7577
5 c300 -35 564 -99 840 -207 403 -156 799 -410 1091 -698 84 -82 108 -113 137
-175 104 -219 60 -452 -115 -616 -98 -92 -215 -138 -353 -137 -162 0 -241 37
-412 191 -208 187 -342 278 -566 388 -855 416 -1889 240 -2565 -436 -294 -293
-516 -698 -602 -1095 -67 -312 -67 -674 0 -974 202 -902 931 -1583 1846 -1727
140 -22 405 -29 549 -15 276 27 548 105 794 227 218 108 342 195 566 397 54
49 119 99 145 112 209 106 460 66 618 -99 161 -167 196 -406 90 -610 -37 -72
-190 -228 -343 -352 -490 -395 -1035 -627 -1670 -710 -186 -25 -631 -25 -810
0 -873 119 -1609 528 -2154 1195 -410 503 -661 1127 -722 1790 -15 167 -6 550
16 711 70 510 240 963 520 1385 413 624 1020 1086 1725 1313 266 86 485 128
820 156 77 7 460 -3 555 -14z m-46520 -395 c146 -38 55 47 1604 -1499 943
-942 1447 -1451 1472 -1491 22 -32 50 -91 62 -130 l22 -70 0 -1275 0 -1275
-23 -64 c-59 -163 -174 -279 -331 -333 -94 -33 -259 -32 -346 2 -167 65 -286
195 -330 361 -12 45 -15 234 -15 1169 l0 1115 -1344 1345 c-1306 1306 -1346
1347 -1380 1418 -70 148 -70 294 1 441 63 132 202 247 344 285 72 19 191 20
264 1z m30277 -14 c32 -12 84 -40 115 -61 35 -24 619 -601 1479 -1462 1534
-1537 1461 -1459 1499 -1603 23 -88 23 -2541 0 -2629 -50 -191 -197 -336 -386
-381 -289 -68 -573 111 -634 400 -12 59 -15 238 -15 1165 l0 1095 -1338 1340
c-1436 1438 -1374 1371 -1416 1514 -20 69 -20 180 -1 256 46 173 201 329 382
381 73 21 243 13 315 -15z"/>
<path d="M54577 7015 c-767 -97 -1415 -554 -1747 -1230 -62 -125 -147 -353
-165 -442 l-7 -33 2171 0 c1348 0 2172 4 2176 9 10 16 -90 301 -147 422 -322
676 -954 1148 -1688 1264 -144 22 -455 28 -593 10z"/>
</g>
</svg>