<?xml version="1.0" standalone="no"?><!-- Generator: Gravit.io --><svg xmlns="http://www.w3.org/2000/svg" xmlns:xlink="http://www.w3.org/1999/xlink" style="isolation:isolate" viewBox="0 0 410 85" width="410" height="85"><defs><clipPath id="_clipPath_IOM6gqqdtxWNxW0Cyy6QPj84xlKmtuSP"><rect width="410" height="85"/></clipPath></defs><g clip-path="url(#_clipPath_IOM6gqqdtxWNxW0Cyy6QPj84xlKmtuSP)"><g><g><path d=" M 54.746 7.351 L 54.762 7.378 L 54.777 7.351 L 54.777 7.405 L 90 68.413 L 72.307 68.413 L 54.616 37.694 L 36.186 69.824 L 46.443 64.98 L 54.731 64.98 L 54.731 68.362 L 28.142 83.849 L 10.493 83.849 L 54.746 7.351 Z  M 49.574 58.9 L 54.615 50.169 L 59.656 58.9 L 49.574 58.9 Z " fill-rule="evenodd" fill="rgb(230,11,109)"/><linearGradient id="_lgradient_10" x1="0" y1="0.5" x2="0.7413103470991417" y2="-0.17116240157189233" gradientTransform="matrix(33.585,0,0,49.453,27.843,34.361)" gradientUnits="userSpaceOnUse"><stop offset="0%" stop-opacity="0.9070282213992791" style="stop-color:rgb(150,25,89)"/><stop offset="33.20203044758506%" stop-opacity="0" style="stop-color:rgb(213,76,79)"/></linearGradient><path d=" M 27.843 83.814 L 36.06 81.4 L 61.427 39.063 L 57.23 34.361 L 27.843 83.814 Z " fill-rule="evenodd" fill="url(#_lgradient_10)"/><linearGradient id="_lgradient_11" x1="0" y1="0.5" x2="0.8728198271639028" y2="0.01195743084278511" gradientTransform="matrix(42.301,0,0,46.476,10.493,37.375)" gradientUnits="userSpaceOnUse"><stop offset="0%" stop-opacity="0.4674276230247504" style="stop-color:rgb(181,50,84)"/><stop offset="19.595877044937346%" stop-opacity="0" style="stop-color:rgb(213,76,79)"/></linearGradient><path d=" M 10.493 83.849 L 26.444 83.851 L 52.794 37.375 L 37.236 37.653 L 10.493 83.849 Z " fill-rule="evenodd" fill="url(#_lgradient_11)"/><linearGradient id="_lgradient_12" x1="0" y1="0.5" x2="1" y2="0.5" gradientTransform="matrix(-33.511,58.043,-6.435,-3.715,59.853,21.275)" gradientUnits="userSpaceOnUse"><stop offset="1.8120065599999962%" stop-opacity="1" style="stop-color:rgb(144,20,90)"/><stop offset="99.99999999999997%" stop-opacity="0" style="stop-color:rgb(213,76,79)"/></linearGradient><path d=" M 53.452 17.579 L 57.969 24.538 L 28.841 74.678 L 19.907 75.602 L 53.452 17.579 Z " fill="url(#_lgradient_12)"/><linearGradient id="_lgradient_13" x1="0" y1="0.5" x2="1" y2="0.5" gradientTransform="matrix(-37.569,65.071,-12.883,-7.438,53.452,17.579)" gradientUnits="userSpaceOnUse"><stop offset="4.820774350000003%" stop-opacity="1" style="stop-color:rgb(144,20,90)"/><stop offset="100%" stop-opacity="0" style="stop-color:rgb(213,76,79)"/></linearGradient><path d=" M 53.452 17.579 L 37.19 16.324 L 3 75.212 L 19.904 75.602 L 53.452 17.579 Z " fill-rule="evenodd" fill="url(#_lgradient_13)"/><linearGradient id="_lgradient_14" x1="0" y1="0.5" x2="1" y2="0.5" gradientTransform="matrix(37.312,0,0,64.431,44.493,3)" gradientUnits="userSpaceOnUse"><stop offset="9.616607479999992%" stop-opacity="1" style="stop-color:rgb(144,20,90)"/><stop offset="99.99999999999997%" stop-opacity="0" style="stop-color:rgb(213,76,79)"/></linearGradient><path d=" M 44.493 17.633 L 53.101 3 L 81.805 52.798 L 73.198 67.431 L 44.493 17.633 Z " fill-rule="evenodd" fill="url(#_lgradient_14)"/></g><path d=" M 112.23 51.356 C 108.828 51.356 106.35 48.626 106.35 44.846 L 106.35 33.926 L 102.15 33.926 L 102.15 44.846 C 102.15 50.894 106.434 55.346 112.23 55.346 C 118.026 55.346 122.31 50.894 122.31 44.846 L 122.31 33.926 L 118.11 33.926 L 118.11 44.846 C 118.11 48.626 115.632 51.356 112.23 51.356 Z  M 155.23 54.926 L 159.01 54.926 L 159.01 33.926 L 154.81 33.926 L 154.81 48.416 L 141.79 33.926 L 138.01 33.926 L 138.01 54.926 L 142.21 54.926 L 142.21 40.436 L 155.23 54.926 Z  M 178.91 33.926 L 174.71 33.926 L 174.71 54.926 L 178.91 54.926 L 178.91 46.316 L 191.51 46.316 L 191.51 54.926 L 195.71 54.926 L 195.71 33.926 L 191.51 33.926 L 191.51 42.536 L 178.91 42.536 L 178.91 33.926 Z  M 213.972 54.926 L 215.694 50.726 L 226.782 50.726 L 228.504 54.926 L 233.04 54.926 L 224.43 33.926 L 218.13 33.926 L 209.52 54.926 L 213.972 54.926 Z  M 217.248 46.946 L 221.028 37.706 L 221.448 37.706 L 225.228 46.946 L 217.248 46.946 Z  M 264.07 54.926 L 267.85 54.926 L 267.85 33.926 L 263.65 33.926 L 263.65 48.416 L 250.63 33.926 L 246.85 33.926 L 246.85 54.926 L 251.05 54.926 L 251.05 40.436 L 264.07 54.926 Z  M 294.05 33.926 L 283.55 33.926 L 283.55 54.926 L 294.05 54.926 C 300.35 54.926 304.97 50.474 304.97 44.426 C 304.97 38.336 300.35 33.926 294.05 33.926 Z  M 287.75 37.706 L 294.05 37.706 C 297.83 37.706 300.56 40.562 300.56 44.426 C 300.56 48.332 297.83 51.146 294.05 51.146 L 287.75 51.146 L 287.75 37.706 Z  M 319.62 54.926 L 336.42 54.926 L 336.42 51.146 L 323.82 51.146 L 323.82 33.926 L 319.62 33.926 L 319.62 54.926 Z  M 371.23 37.706 L 371.23 33.926 L 350.65 33.926 L 350.65 54.926 L 371.23 54.926 L 371.23 51.146 L 354.85 51.146 L 354.85 46.316 L 367.03 46.316 L 367.03 42.536 L 354.85 42.536 L 354.85 37.706 L 371.23 37.706 Z  M 396.8 33.926 L 386.3 33.926 L 386.3 54.926 L 396.8 54.926 C 403.1 54.926 407.72 50.474 407.72 44.426 C 407.72 38.336 403.1 33.926 396.8 33.926 Z  M 390.5 37.706 L 396.8 37.706 C 400.58 37.706 403.31 40.562 403.31 44.426 C 403.31 48.332 400.58 51.146 396.8 51.146 L 390.5 51.146 L 390.5 37.706 Z " fill="rgb(230,11,109)"/></g></g></svg>