<svg height="318" preserveAspectRatio="xMidYMid meet" viewBox="0 0 10320 3180" width="1032" xmlns="http://www.w3.org/2000/svg"><path d="m1425 3113c-659-85-1174-562-1317-1219-21-96-22-122-25-961l-4-863h516 516l-1 807c-1 721 1 814 15 863 63 211 263 359 485 360 222 0 427-160 485-381 12-45 15-192 15-851v-798h515 515v1525 1525h-515-515v-41c0-35-3-40-17-34-46 17-167 46-253 60-87 14-334 19-415 8z"/><path d="m4147 3113c-4-3-7-231-7-505 0-392 3-498 13-498 13 0 1007 990 1007 1003 0 9-1004 10-1013 0z"/><path d="m6180 1595v-1525h510 510v640c0 352 4 640 8 640s16-39 26-87c35-169 116-356 227-524 86-130 282-324 414-412 254-168 494-243 805-254 141-4 184-2 294 17 745 126 1276 753 1276 1505 0 377-128 721-374 1005l-65 75 222 223 222 222h-513-512v-41c0-35-3-40-17-34-48 19-209 54-297 65-134 17-381 8-508-20-417-88-788-358-1002-726-85-146-162-349-181-477-20-129-25 1-25 593v640h-510-510zm2663 490c227-59 387-262 387-490 0-312-298-557-602-494-196 40-357 201-397 397-73 353 265 677 612 587z"/><path d="m4650 575-505-505h513 512v505c0 278-3 505-8 505-4 0-234-227-512-505z"/></svg>