<svg height="220.67999" viewBox="0 0 704.30664 220.67999" width="704.30664" xmlns="http://www.w3.org/2000/svg"><g transform="matrix(.13333333 0 0 -.13333333 0 220.68)"><path d="m3549.83 1153.61-515.26-.08v-63.75h225.42v-437.382h64.43v437.382h225.41z" fill="#231f20"/><path d="m1755.42 1153.73h-72.57l-220.92-431.265-220.96 431.265h-72.51l257.62-501.832 35.86.071 35.86-.071z" fill="#231f20"/><path d="m4780.96 652.148-257.4 501.692-72.08-.14-257.47-501.552 72.3-.25 221.18 431.542 220.96-431.26z" fill="#231f20"/><path d="m2353.56 1089.78v63.95h-515.26v-501.941h515.26v64.445h-450.82v154.555h321.94v64.438h-321.94v154.553z" fill="#231f20"/><path d="m2733.38 652.102c84.42 0 160.55 29.796 214.61 77.55 1.7 1.52 3.44 3 5.09 4.555l-52.04 39.852c-42.29-35.329-101.75-57.36-167.66-57.36-128.31 0-232.32 83.328-232.32 186.117 0 102.794 104.01 186.114 232.32 186.114 65.66 0 124.91-21.85 167.16-56.94l51.95 40.01c-54.3 50.1-132.35 81.53-219.11 81.53-164 0-296.94-112.24-296.94-250.714 0-138.464 132.94-250.714 296.94-250.714" fill="#231f20"/><path d="m3697.15 1089.17h309.41c42.51 0 76.97-34.16 76.97-76.67 0-41.012-32.11-74.934-72.54-77.273h-313.84zm450.82-76.67c0 78.1-63.31 141.11-141.41 141.11l-373.85.06v-.06-218.383-64.438-218.891h64.44v218.891h266.33l112.18-218.891 72.31.25-113.8 221.684c64.87 12.844 113.8 70.027 113.8 138.668" fill="#231f20"/><path d="m4739.86 1114.68c4.31 0 7.39.59 9.22 1.77 1.84 1.18 2.76 3.08 2.76 5.7 0 2.82-.97 4.87-2.89 6.17-1.94 1.29-5.05 1.93-9.32 1.93h-7.25v-15.57zm10.23-4.22 10.63-21.43h-10.07l-9.55 20.02h-8.72v-20.02h-8.89v46.96h17.72c6.56 0 11.49-1.08 14.79-3.23 3.3-2.16 4.95-5.37 4.95-9.65 0-3.34-.95-6.13-2.87-8.38-1.91-2.25-4.57-3.67-7.99-4.27zm26.38.89c0 5.03-.89 9.74-2.66 14.15-1.78 4.41-4.37 8.34-7.78 11.78-3.41 3.34-7.35 5.92-11.81 7.74-4.47 1.82-9.14 2.72-14.02 2.72-4.93 0-9.56-.87-13.91-2.64-4.35-1.76-8.18-4.29-11.47-7.6-3.48-3.48-6.17-7.45-8.06-11.91-1.89-4.47-2.84-9.1-2.84-13.9 0-4.72.92-9.26 2.75-13.63 1.84-4.37 4.44-8.23 7.81-11.56 3.45-3.41 7.38-6.06 11.81-7.93s8.95-2.81 13.57-2.81c4.92 0 9.63.9 14.13 2.73 4.5 1.81 8.51 4.43 12.04 7.84 3.33 3.3 5.9 7.11 7.72 11.42 1.81 4.31 2.72 8.84 2.72 13.6zm-36.27 41.79c4.69 0 9.19-.73 13.52-2.18 4.33-1.47 8.32-3.61 11.96-6.42 5.06-3.94 8.98-8.77 11.78-14.51 2.78-5.74 4.18-11.85 4.18-18.34 0-5.62-1.03-10.93-3.09-15.94-2.06-5-5.06-9.4-9-13.19-4.09-3.97-8.66-7.02-13.72-9.14s-10.27-3.17-15.63-3.17c-5.44 0-10.7 1.06-15.78 3.2s-9.61 5.21-13.58 9.23c-3.9 3.89-6.89 8.35-8.97 13.35-2.08 5.01-3.12 10.22-3.12 15.66 0 4.58.76 9.06 2.28 13.44 1.52 4.39 3.74 8.48 6.66 12.27 3.97 5.1 8.75 8.99 14.35 11.69 5.58 2.7 11.63 4.05 18.16 4.05" fill="#231f20"/><path d="m587.23 652.141h-12.667c-40.27 0-73.215 32.945-73.215 73.214v94.555l86.004-167.531z" fill="#14783d"/><path d="m880.648 1083.04 122.052-238.267v-119.418c0-40.269-32.95-73.214-73.22-73.214h-269.734l154.832 302.195z" fill="#14783d"/><path d="m916.691 1153.26.122.23h12.667c40.27 0 73.22-32.95 73.22-73.21v-94.561z" fill="#14783d"/><path d="m623.398 722.59-122.05 238.265v119.425c0 40.26 32.945 73.21 73.215 73.21h269.738l-154.832-302.193z" fill="#14783d"/><g fill="#959596"><path d="m4783.59 455.691c3.89 0 6.67.539 8.33 1.61 1.66 1.058 2.49 2.781 2.49 5.148 0 2.551-.87 4.403-2.61 5.571-1.75 1.171-4.56 1.75-8.42 1.75h-6.55v-14.079zm9.24-3.8 9.61-19.371h-9.1l-8.63 18.089h-7.88v-18.089h-8.03v42.441h16.01c5.93 0 10.39-.981 13.36-2.93 2.98-1.941 4.48-4.851 4.48-8.711 0-3.019-.86-5.539-2.59-7.57-1.73-2.039-4.14-3.32-7.23-3.859zm23.84.8c0 4.547-.8 8.797-2.41 12.789-1.6 3.981-3.94 7.532-7.02 10.641-3.09 3.02-6.64 5.348-10.68 7-4.03 1.641-8.25 2.449-12.67 2.449-4.45 0-8.63-.781-12.56-2.379-3.94-1.589-7.39-3.882-10.37-6.859-3.14-3.16-5.57-6.742-7.28-10.773-1.71-4.039-2.56-8.219-2.56-12.559 0-4.262.82-8.371 2.48-12.32 1.66-3.95 4.01-7.43 7.06-10.442 3.11-3.09 6.66-5.476 10.67-7.168 4-1.699 8.09-2.539 12.26-2.539 4.44 0 8.7.821 12.77 2.469 4.07 1.641 7.69 4 10.88 7.082 3.01 2.977 5.33 6.418 6.97 10.316 1.64 3.903 2.46 7.993 2.46 12.293zm-32.78 37.758c4.24 0 8.31-.648 12.23-1.969 3.91-1.332 7.51-3.261 10.8-5.8 4.57-3.559 8.12-7.93 10.64-13.11 2.52-5.191 3.79-10.711 3.79-16.57 0-5.078-.93-9.879-2.79-14.41-1.87-4.52-4.58-8.488-8.14-11.918-3.69-3.582-7.83-6.34-12.4-8.25-4.57-1.922-9.28-2.871-14.13-2.871-4.91 0-9.66.961-14.25 2.89-4.6 1.93-8.69 4.719-12.28 8.34-3.51 3.52-6.22 7.551-8.1 12.071-1.88 4.519-2.82 9.238-2.82 14.148 0 4.129.68 8.191 2.06 12.148 1.37 3.961 3.38 7.661 6.02 11.082 3.59 4.61 7.91 8.129 12.96 10.559 5.05 2.441 10.52 3.66 16.41 3.66"/><path d="m2543.27 440.379c-2.98 27.512-21.31 39.383-47.75 39.383-21.58 0-43.16-7.832-43.16-32.91 0-23.743 30.76-27.243 61.76-34.25 30.76-7.02 61.52-17.813 61.52-55.582 0-41-40.19-57.461-75.26-57.461-43.16 0-79.58 21.05-79.58 67.98h24.27c0-32.367 26.98-46.398 56.11-46.398 23.21 0 48.83 7.289 48.83 35.078 0 26.429-30.75 31.011-61.51 37.761-30.74 6.739-61.77 15.641-61.77 50.989 0 39.101 34.81 56.371 69.88 56.371 39.37 0 69.31-18.621 70.94-60.961z"/><path d="m2699.67 387.23c-1.06 21.86-17.53 39.379-40.18 39.379-24.01 0-38.3-18.07-39.94-39.379zm22.13-38.839c-6.2-30.75-28.33-47.481-59.63-47.481-44.5 0-65.54 30.75-66.88 73.379 0 41.813 27.51 72.563 65.54 72.563 49.36 0 64.47-46.133 63.13-79.84h-104.41c-.79-24.293 12.95-45.871 43.44-45.871 18.87 0 32.1 9.179 36.14 27.25z"/><path d="m2842.33 398.832c-3.49 17.539-15.65 27.777-34.52 27.777-33.17 0-43.44-26.148-43.44-54.48 0-25.629 11.61-50.988 40.73-50.988 22.13 0 35.35 12.949 38.32 34h23.47c-5.13-34-26.44-54.231-61.51-54.231-42.62 0-65.27 29.68-65.27 71.219 0 41.812 21.58 74.723 65.81 74.723 31.55 0 56.93-14.832 60.15-48.02z"/><path d="m3007.92 304.148h-21.58v22.133h-.53c-9.72-17.269-25.37-25.371-45.32-25.371-36.68 0-48.02 21.051-48.02 50.988v91.723h22.92v-94.422c0-17 10.79-28.058 28.33-28.058 27.78 0 41.28 18.621 41.28 43.711v78.769h22.92z"/><path d="m3041.59 443.621h21.58v-29.41h.54c11.06 22.391 26.44 33.449 51.25 32.641v-24.282c-36.94 0-50.43-21.039-50.43-56.379v-62.043h-22.94z"/><path d="m3133.54 443.621h22.95v-139.473h-22.95zm22.95 25.09h-22.95v28.051h22.95z"/><path d="m3223.89 443.621h27.78v-20.23h-27.78v-86.602c0-10.508 2.97-12.41 17.26-12.41h10.52v-20.231h-17.52c-23.75 0-33.18 4.864-33.18 30.493v88.75h-23.74v20.23h23.74v41.809h22.92z"/><path d="m3331.77 285.531c-10.54-27.242-19.97-37.222-40.48-37.222-5.38 0-10.79.543-15.9 2.429v21.043c4.31-1.351 8.9-3.242 13.49-3.242 9.43 0 14.56 4.59 18.88 12.68l9.43 23.742-55.3 138.66h25.9l40.73-114.121h.55l39.11 114.121h24.29z"/><path d="m3518.64 443.621h27.78v-20.23h-27.78v-86.602c0-10.508 2.97-12.41 17.26-12.41h10.52v-20.231h-17.52c-23.75 0-33.18 4.864-33.18 30.493v88.75h-23.74v20.23h23.74v41.809h22.92z"/><path d="m3571.75 496.762h22.92v-73.653h.55c7.56 16.723 27.26 23.743 43.98 23.743 36.68 0 48.02-21.043 48.02-50.981v-91.723h-22.95v94.411c0 17-10.79 28.05-28.32 28.05-27.78 0-41.28-18.597-41.28-43.687v-78.774h-22.92z"/><path d="m3808 376.172c-8.9-6.473-26.16-6.731-41.54-9.442-15.11-2.699-28.06-8.082-28.06-25.089 0-15.102 12.95-20.5 26.99-20.5 30.21 0 42.61 18.89 42.61 31.57zm37.24-71.473c-4.05-2.437-9.18-3.789-16.47-3.789-11.86 0-19.42 6.481-19.42 21.578-12.68-14.828-29.67-21.578-49.1-21.578-25.35 0-46.13 11.332-46.13 39.121 0 31.559 23.49 38.301 47.22 42.891 25.36 4.848 46.94 3.238 46.94 20.5 0 19.969-16.47 23.187-31.03 23.187-19.43 0-33.71-5.929-34.8-26.429h-22.93c1.35 34.531 28.06 46.672 59.09 46.672 25.08 0 52.32-5.661 52.32-38.313v-71.75c0-10.789 0-15.648 7.29-15.648 1.88 0 4.04.269 7.02 1.347z"/><path d="m3898.33 443.621h27.78v-20.23h-27.78v-86.602c0-10.508 2.97-12.41 17.26-12.41h10.52v-20.231h-17.52c-23.76 0-33.18 4.864-33.18 30.493v88.75h-23.74v20.23h23.74v41.809h22.92z"/><path d="m4058.23 443.621h27.78v-20.23h-27.78v-86.602c0-10.508 2.98-12.41 17.27-12.41h10.51v-20.231h-17.51c-23.76 0-33.19 4.864-33.19 30.493v88.75h-23.74v20.23h23.74v41.809h22.92z"/><path d="m4111.34 496.762h22.93v-73.653h.54c7.56 16.723 27.26 23.743 43.98 23.743 36.69 0 48.02-21.043 48.02-50.981v-91.723h-22.94v94.411c0 17-10.79 28.05-28.33 28.05-27.78 0-41.27-18.597-41.27-43.687v-78.774h-22.93z"/><path d="m4262.62 443.621h22.94v-139.473h-22.94zm22.94 25.09h-22.94v28.051h22.94z"/><path d="m4321.14 443.621h21.58v-22.133h.54c9.7 17.274 25.35 25.364 45.32 25.364 36.69 0 48-21.043 48-50.981v-91.723h-22.92v94.411c0 17-10.79 28.05-28.33 28.05-27.78 0-41.27-18.597-41.27-43.687v-78.774h-22.92z"/><path d="m4472.41 496.762h22.94v-114.114l63.65 60.973h30.76l-55.29-50.723 59.33-88.75h-29.12l-47.75 72.832-21.58-19.96v-52.872h-22.94z"/><path d="m4625.06 348.121c.8-20.5 18.61-26.98 37.49-26.98 14.31 0 33.71 3.238 33.71 20.781 0 17.789-22.65 20.769-45.57 25.887-22.67 5.132-45.59 12.683-45.59 39.382 0 28.059 27.78 39.661 52.06 39.661 30.74 0 55.29-9.711 57.18-43.704h-22.92c-1.62 17.813-17.27 23.461-32.37 23.461-13.77 0-29.67-3.769-29.67-17.789 0-16.461 24.26-19.148 45.57-24.281 22.94-5.129 45.59-12.68 45.59-39.66 0-33.18-31.01-43.969-59.34-43.969-31.3 0-57.72 12.68-59.08 47.211z"/><path d="m4751 334.09h29.94v-29.942h-29.94z"/></g></g></svg>