<svg width="413" height="136" viewBox="0 0 413 136" xmlns="http://www.w3.org/2000/svg" xmlns:xlink="http://www.w3.org/1999/xlink"><defs><path d="m113.865 106.641-46.308 26.737a14.167 14.167 0 0 1-14.165 0L7.082 106.64A14.164 14.164 0 0 1 0 94.375V40.9c0-5.06 2.7-9.736 7.082-12.266l46.31-26.737a14.163 14.163 0 0 1 14.164 0l46.31 26.737a14.163 14.163 0 0 1 7.082 12.266v53.474c0 5.06-2.7 9.735-7.083 12.266ZM88.464 45.083c-3.473 9.8-6.971 19.624-10.468 29.458h-1.11C73.401 64.683 69.903 54.835 66.418 45H55.544c-3.533 9.943-7.03 19.79-10.527 29.65h-1.015c-3.545-9.956-7.09-19.91-10.516-29.519H20.5c6.315 18.083 12.473 35.712 18.632 53.342h10.719l10.611-29.828h1.075c3.544 10.002 7.078 20.017 10.55 29.804H82.83c6.183-17.701 12.342-35.342 18.633-53.366h-13Z" id="a"/></defs><g fill="none" fill-rule="evenodd"><path d="M294.401 88.011h8.769V48.317H294.4v39.694Zm96.784-39.738h-9.169c0 7.836.017 15.28-.009 22.726-.026 4.948-3.545 8.43-8.387 8.386-4.886-.036-7.151-2.514-7.187-8.023-.044-6.511 0-13.032-.026-19.544-.01-1.182-.205-2.364-.31-3.492h-8.566c-.15.356-.302.542-.302.73-.026 9.3-.178 18.62 0 27.922.09 4.53 2.221 8.075 6.69 9.976 4.575-3.047 9.64-2.78 14.712-2.158 4.14.515 8.19.23 12.642-.667-.036-11.993.098-23.898-.088-35.856Zm-42.555 9.364c-.107-3.856-2.577-6.69-6.122-8.325-3.66-1.687-7.56-2.416-11.469-1.492-3.234.764-6.317 2.159-9.559 3.314-1.404-1.217-3.012-2.603-4.771-4.14-2.194 1.972-4.096 3.669-5.988 5.365 4.051 5.082 4.051 5.082 4.051 11.7 0 6.824 0 13.656.01 20.478 0 1.102.097 2.213.16 3.457h9.043V65.757c0-4.833 2.523-8.076 7.232-9.293 5.508-1.422 8.386.755 8.405 6.423.026 7.232 0 14.472.017 21.713 0 1.102.106 2.203.169 3.322h8.902c0-10.252.177-20.273-.08-30.285Zm-118.62-1.635c4.388.302 6.085 2.079 5.783 6.53-4.442 4.468-9.959 2.576-15.156 2.879.373-5.518 4.7-9.729 9.373-9.409Zm12.775 20.14c-2.248.978-4.21 1.884-6.219 2.675-3.145 1.252-6.405 1.617-9.745.941-3.323-.666-4.922-2.257-5.553-5.765 1.892 0 3.722-.01 5.544 0 4.3.043 8.475-.56 12.313-2.603 7.844-4.185 8.813-15.015 1.714-20.203-7.525-5.508-18.754-5.038-25.257 2.701-4.869 5.8-5.82 12.589-4.655 19.856.959 5.934 4.024 10.42 9.364 13.095 7.587 3.802 20.335 1.785 26.963-4.202-1.484-2.15-2.985-4.327-4.469-6.495Zm168.086-4.797c-2.532-5.846-9.568-9.746-16.018-8.84-.577.08-1.11.444-1.768.729v9.044c1.217-.196 2.222-.436 3.234-.498 2.54-.16 5.028 1.218 5.935 3.198 1.021 2.222.435 5.393-1.52 7.108-.985.862-2.158 1.732-3.393 2.06-2.968.791-6.006 1.645-9.053 1.768-5.57.24-11.167-.123-16.746.045-4.513.143-8.76 2.452-11.106 6.308-4.068 6.699-2.159 15.99 3.99 20.505 5.97 4.379 14.872 3.597 20.157-1.84 3.812-3.918 5.455-8.804 6.317-14.418h-9.32c-.32 1.012-.604 2.212-1.065 3.34-.507 1.235-1.031 2.496-1.777 3.59-1.848 2.7-5.17 3.588-7.934 2.282-2.186-1.03-3.624-4.024-3.145-6.538.587-3.083 2.168-4.176 6.184-4.185 5.685-.017 11.37.178 17.048-.01 5.686-.195 10.998-1.829 15.538-5.418 5.358-4.229 7.187-11.886 4.442-18.23Zm-133.989 4.824c-2.372 3.118-5.712 3.918-9.346 3.9-1.75-.01-3.5-.284-5.766-.48 0-6.21-.23-12.198.098-18.159.16-2.958 2.736-4.602 5.41-5.366 3.119-.897 6.184-.639 8.627 1.902 4.158 4.344 4.628 13.396.977 18.203Zm11.434-13.415c-1.484-10.27-9.258-16.445-19.554-15.84-2.23.133-4.424.852-7.01 1.386V31.5h-9.39v55.072c4.21 1.466 12.749 2.532 17.022 2.186 10.217-.827 16.684-5.988 18.683-15.556.71-3.368.746-7.036.249-10.448Zm-87.73-14.446c-2.586 7.294-5.188 14.606-7.791 21.926h-.827c-2.594-7.338-5.197-14.667-7.791-21.988h-8.093c-2.63 7.4-5.233 14.73-7.836 22.068h-.755l-7.827-21.97H150c4.7 13.459 9.284 26.581 13.868 39.703h7.978l7.898-22.201h.8c2.638 7.444 5.267 14.898 7.853 22.183h7.995c4.602-13.175 9.187-26.306 13.869-39.72h-9.675Z" fill="#FA5A28"/><g transform="translate(0 .5)"><mask id="b" fill="#fff"><use xlink:href="#a"/></mask><use fill="#FA5A28" xlink:href="#a"/></g></g></svg>