<svg enable-background="new 0 0 184.251 69.889" height="69.889" viewBox="0 0 184.251 69.889" width="184.251" xmlns="http://www.w3.org/2000/svg"><path d="m171.655 5.375c-16.871-2.3-33.814-3.856-50.789-4.686l-13.488 13.489 4.291.002v3.716l-10.639-.001-.002-10.639 3.719.002v4.291l11.073-11.071c-26.431-1.066-52.914-.348-79.272 2.151l8.921 8.921v-4.291l3.718-.002-.001 10.639-10.639.001v-3.716l4.291-.002-11.089-11.09c-6.394.658-12.779 1.418-19.154 2.286-6.967.95-12.595 7.557-12.595 14.589v29.963c0 7.033 5.629 13.639 12.597 14.588 6.374.869 12.759 1.627 19.151 2.285l11.09-11.09-4.291-.002v-3.716l10.639.001.001 10.639-3.718-.002v-4.291l-8.921 8.922c26.358 2.498 52.841 3.216 79.273 2.151l-11.074-11.073v4.291l-3.719.002.002-10.639 10.639-.001v3.716l-4.291.002 13.488 13.488c16.975-.828 33.922-2.385 50.791-4.684 6.969-.949 12.594-7.557 12.594-14.588v-29.964c0-7.031-5.629-13.639-12.596-14.587z" fill="#ffe400"/><path d="m39.493 5.573.568.568c17.325-1.544 34.748-2.341 52.065-2.341 6.662 0 13.342.117 20.023.348l.594-.596c-6.881-.243-13.757-.371-20.617-.371-17.508 0-35.122.814-52.633 2.392zm131.729 2.973c-17.662-2.406-35.549-3.991-53.434-4.778l-.594.595c18.053.777 36.115 2.369 53.945 4.799 5.01.669 9.303 5.652 9.291 10.799v29.966c.012 5.147-4.281 10.13-9.291 10.802-17.83 2.43-35.893 4.02-53.947 4.797l.596.595c17.883-.788 35.771-2.372 53.434-4.778 5.354-.744 9.816-5.932 9.828-11.415l.002-29.966c-.014-5.484-4.477-10.676-9.83-11.416zm-158.112.615c7.347-1.001 14.734-1.848 22.142-2.57l-.569-.568c-7.244.712-14.469 1.545-21.654 2.523-5.354.742-9.816 5.936-9.826 11.416l-.004 29.964c.013 5.483 4.479 10.674 9.831 11.415 7.186.979 14.409 1.812 21.653 2.523l.568-.567c-7.406-.722-14.793-1.568-22.138-2.569-5.01-.672-9.306-5.654-9.293-10.802v-29.964c-.011-5.147 4.283-10.13 9.29-10.801zm79.016 56.925c-17.318 0-34.74-.796-52.064-2.341l-.567.568c17.51 1.577 35.124 2.393 52.632 2.395 6.859-.001 13.736-.13 20.617-.375l-.596-.594c-6.682.23-13.36.347-20.022.347z" fill="#d63a2d"/><path d="m110.743 27.365-.479-3.19c-.076-.51-.143-1.154-.229-1.928-.047.605-.135 1.34-.209 1.869l-.459 3.249h-.572l-.832-6.528h.688l.344 3.318c.086.842.114 1.096.143 1.889.029-.46.076-1.242.152-1.84l.441-3.367h.619l.461 3.328c.076.548.133 1.32.182 1.869.018-.568.047-1.184.113-1.879l.346-3.318h.611l-.737 6.528z"/><path d="m113.694 27.365v-6.519h2.072v.617h-1.404v2.174h1.08v.635h-1.08v2.477h1.48v.616z"/><path d="m117.505 20.837h.688c.535 0 1.529 0 1.529 1.624 0 .5-.086.901-.289 1.177-.131.175-.295.234-.391.264.727.185.859 1.115.859 1.613 0 .275-.037 1.01-.4 1.4-.383.411-.736.45-1.365.45h-.631zm.658 2.801h.219c.537 0 .729-.422.729-1.079 0-.206-.02-.606-.229-.899-.154-.206-.326-.206-.5-.206h-.219zm0 3.111h.162c.537 0 .898-.166.898-1.264 0-.068 0-.527-.133-.83-.182-.422-.439-.432-.67-.432h-.258v2.526z"/><path d="m124.06 20.837h.83c.393 0 1.078 0 1.443.979.191.508.324 1.146.324 2.301 0 .587-.047 1.928-.459 2.643-.354.606-.982.606-1.221.606h-.918v-6.529zm.668 5.912h.297c.449 0 .621-.354.658-.439.27-.568.277-1.891.277-2.213 0-.549-.037-1.586-.287-2.125-.238-.519-.506-.519-.717-.519h-.229v5.296z"/><path d="m128.435 27.365v-6.519h2.074v.617h-1.404v2.174h1.078v.635h-1.078v2.477h1.479v.616z"/><path d="m132.577 25.771c.012.529.209 1.057.67 1.057.6 0 .668-.793.668-1.174 0-.893-.459-1.225-.688-1.391-.508-.371-1.158-.842-1.158-1.948 0-.929.451-1.546 1.225-1.546.934 0 1.164.871 1.213 1.418l-.631.109c-.049-.354-.125-.901-.611-.901-.295 0-.523.206-.523.764 0 .499.197.93.59 1.224.572.431.783.586 1.004.998.113.216.275.587.275 1.156 0 .332-.057.91-.332 1.369-.297.49-.812.549-1.051.549-.918 0-1.242-.764-1.281-1.586z"/><path d="m136.247 27.365v-6.528h.68v6.528z"/><path d="m141.011 27.396-.127-.549c-.074.188-.246.568-.84.568-1.135 0-1.309-1.271-1.309-3.27 0-2.223.211-3.377 1.375-3.377.621 0 .9.371 1.053.773.057.146.143.43.16.803l-.619.127c-.086-.764-.23-1.058-.594-1.058-.43 0-.533.44-.582.706-.096.537-.096 1.711-.096 1.908 0 .459 0 1.467.105 2.025.049.225.143.715.611.715.535 0 .631-.694.631-1.321v-.744h-.621v-.617h1.262v3.31h-.409z"/><path d="m145.179 27.365-.994-3.376c-.068-.215-.287-.99-.383-1.44.01.226.049 1.244.049 1.45v3.366h-.584v-6.528h.574l.975 3.476c.066.254.256.88.375 1.429-.033-.93-.041-1.234-.041-1.41v-3.494h.584v6.528h-.555z"/><path d="m150.308 25.771c.012.529.211 1.057.67 1.057.604 0 .67-.793.67-1.174 0-.893-.459-1.225-.688-1.391-.508-.371-1.156-.842-1.156-1.948 0-.929.449-1.546 1.223-1.546.938 0 1.164.871 1.213 1.418l-.629.109c-.051-.354-.127-.901-.613-.901-.297 0-.525.206-.525.764 0 .499.201.93.592 1.224.574.431.783.586 1.004.998.115.216.277.587.277 1.156 0 .332-.059.91-.336 1.369-.297.49-.811.549-1.049.549-.918 0-1.242-.764-1.281-1.586z"/><path d="m154.397 27.365v-5.912h-.803v-.616h2.285v.616h-.814v5.912z"/><path d="m158.067 20.837v5.101c0 .429 0 .851.523.851.535 0 .535-.412.535-.851v-5.101h.668v5.051c0 .568 0 1.527-1.166 1.527-1.23 0-1.23-.871-1.23-1.527v-5.051z"/><path d="m161.696 20.837h.83c.393 0 1.08 0 1.443.979.191.508.324 1.146.324 2.301 0 .587-.047 1.928-.457 2.643-.354.606-.986.606-1.225.606h-.916v-6.529zm.668 5.912h.297c.449 0 .621-.354.658-.439.268-.568.277-1.891.277-2.213 0-.549-.037-1.586-.285-2.125-.24-.519-.506-.519-.717-.519h-.23z"/><path d="m166.081 27.365v-6.528h.682v6.528z"/><path d="m169.917 20.759c1.051 0 1.375.939 1.375 3.27 0 2.115-.152 3.417-1.357 3.417-.982 0-1.365-.726-1.365-3.329-.001-1.949.142-3.358 1.347-3.358zm-.648 3.327c0 .54.008 1.646.133 2.145.076.323.209.587.545.587.287 0 .42-.166.516-.568.107-.479.133-1.546.133-2.183 0-2.28-.209-2.643-.666-2.643-.211 0-.355.118-.432.265-.229.498-.229 1.791-.229 2.388z"/><g fill="#d63a2d"><path d="m44.073 20.759h6.168l1.573 13.484c.341 2.85.426 5.189.553 7.359.213-3.02.723-7.02.894-8.21l2.085-12.634h5.231l2.256 13.271c.255 1.531.34 3.02.722 7.572.043-1.064.299-5.828.639-8.21l1.659-12.634h5.062l-5.146 28.373h-5.104l-2.425-13.911c-.17-.978-.597-3.403-.682-6.381-.17 2.001-.553 5.147-.765 6.381l-2.426 13.911h-5.104z"/><path d="m77.66 32.329h6.849v4.721h-6.849v7.104h8.933v4.978h-14.761v-28.373h14.761v4.977h-8.933z"/><path d="m88.056 20.759h7.742c3.445 0 5.36 0 7.019 1.956.937 1.063 1.786 2.637 1.786 5.403 0 4.68-2.211 5.656-3.53 6.209 1.063.383 4.339 1.488 4.339 7.147 0 3.147-1.318 4.977-2.211 5.87-1.66 1.744-4.723 1.787-6.381 1.787h-8.764zm5.615 11.441h2.127c3.062 0 3.148-2.084 3.148-3.275 0-2.084-.895-3.614-3.148-3.614h-2.127zm0 12.209h2.298c2.127 0 3.487-.681 3.487-3.828 0-.255 0-1.617-.596-2.68-.637-1.064-1.445-1.148-3.105-1.148h-2.084z"/></g><path d="m107.964 29.976h4.006l1.021 8.969c.221 1.896.277 3.451.359 4.896.138-2.009.471-4.669.581-5.461l1.353-8.403h3.398l1.465 8.828c.164 1.019.221 2.009.469 5.036.029-.708.193-3.877.414-5.461l1.078-8.403h3.287l-3.342 18.873h-3.316l-1.574-9.254c-.111-.65-.387-2.262-.441-4.243-.109 1.329-.359 3.423-.498 4.243l-1.574 9.254h-3.314z"/><path d="m136.759 39.539c0 5.573-1.242 9.593-5.801 9.593-2.873 0-3.949-1.784-4.172-2.15-1.188-1.98-1.547-4.754-1.547-7.782 0-5.772 1.465-9.507 5.803-9.507 4.447-.001 5.717 4.13 5.717 9.846zm-7.127-5.291c-.332.935-.387 2.971-.387 5.347 0 1.613 0 3.453.332 4.782.193.765.523 1.387 1.465 1.387 1.02 0 1.326-.679 1.49-1.67.223-1.301.223-4.611.223-4.866 0-1.16 0-3.819-.361-4.951-.303-.934-.719-1.217-1.436-1.217-.58 0-1.021.339-1.326 1.188z"/><path d="m138.103 29.976h4.752c1.988 0 3.121.113 4.088 1.019 1.713 1.642 1.713 3.876 1.713 4.583 0 3.565-1.547 4.557-2.404 5.094l2.791 8.178h-3.979l-2.072-7.414h-1.186v7.414h-3.703zm3.703 8.346h1.049c1.463 0 2.045-.989 2.045-2.772 0-1.953-.83-2.604-2.045-2.604h-1.049z"/><path d="m149.921 29.976h3.785v6.168c0 .227-.082 1.5-.139 2.235.109-.425.414-1.556.691-2.15l2.762-6.253h3.703l-3.73 6.989 4.281 11.884h-3.895l-2.598-8.518-1.076 2.518v6h-3.785v-18.873z"/><path d="m168.476 35.295c-.443-1.84-1.299-2.208-2.102-2.208-1.518 0-1.6 1.529-1.6 1.84 0 1.387.578 1.67 3.285 2.943 1.133.566 3.508 1.697 3.508 5.291 0 3.508-2.016 5.971-5.578 5.971-4.199 0-5.084-3.254-5.414-5.094l3.012-1.075c.439 2.009 1.076 2.772 2.402 2.772 1.711 0 1.879-1.527 1.879-1.98 0-1.273-.83-1.811-1.547-2.15-2.322-1.188-3.455-1.727-4.258-3.028-.496-.792-.826-1.952-.826-3.14 0-2.857 1.77-5.744 5.027-5.744 3.785 0 4.723 3.254 5.027 4.329z"/><path d="m18.952 49.132h-3.49v-14.118h-2.777v-3.288h9.122v3.288h-2.854v14.118z"/><path d="m28.523 38.59v-6.864h3.49v17.406h-3.49v-7.489h-2.573v7.489h-3.49v-17.406h3.49v6.864z"/><path d="m37.273 38.824h4.102v2.896h-4.102v4.359h5.35v3.053h-8.84v-17.406h8.84v3.053h-5.35z"/></svg>